999
dxflib 3.26.4.0
  0
SECTION
  2
HEADER
  9
$ACADVER
  1
AC1015
  9
$HANDSEED
  5
FFFF
  9
$DIMADEC
 70
0
  9
$DIMASZ
 40
2.5
  9
$DIMATFIT
 70
0
  9
$DIMAUNIT
 70
0
  9
$DIMAZIN
 70
2
  9
$DIMBLK
  1
0
  9
$DIMBLK1
  1
0
  9
$DIMBLK2
  1
0
  9
$DIMDEC
 70
4
  9
$DIMDLI
 40
5.0
  9
$DIMDSEP
 70
46
  9
$DIMEXE
 40
1.25
  9
$DIMEXO
 40
0.625
  9
$DIMGAP
 40
0.625
  9
$DIMLFAC
 40
0.0
  9
$DIMLUNIT
 70
2
  9
$DIMSCALE
 40
1.0
  9
$DIMTAD
 70
1
  9
$DIMTIH
 70
0
  9
$DIMTSZ
 40
0.0
  9
$DIMTXT
 40
2.5
  9
$DIMZIN
 70
8
  9
$DWGCODEPAGE
  3
ANSI_1252
  9
$INSUNITS
 70
1
  9
$LTSCALE
 40
1.0
  9
$MAXACTVP
 70
64
  9
$MEASUREMENT
 70
0
  9
$MIRRTEXT
 70
0
  9
$PDMODE
 70
0
  9
$PDSIZE
 40
0.0
  0
ENDSEC
  0
SECTION
  2
TABLES
  0
TABLE
  2
VPORT
  5
8
100
AcDbSymbolTable
 70
1
  0
VPORT
  5
30
100
AcDbSymbolTableRecord
100
AcDbViewportTableRecord
  2
*Active
 70
0
 10
0.0
 20
0.0
 11
1.0
 21
1.0
 12
286.3055555555554861
 22
148.5
 13
0.0
 23
0.0
 14
10.0
 24
10.0
 15
10.0
 25
10.0
 16
0.0
 26
0.0
 36
1.0
 17
0.0
 27
0.0
 37
0.0
 40
297.0
 41
1.92798353909465
 42
50.0
 43
0.0
 44
0.0
 50
0.0
 51
0.0
 71
0
 72
100
 73
1
 74
3
 75
1
 76
1
 77
0
 78
0
281
0
 65
1
110
0.0
120
0.0
130
0.0
111
1.0
121
0.0
131
0.0
112
0.0
122
1.0
132
0.0
 79
0
146
0.0
  0
ENDTAB
  0
TABLE
  2
LTYPE
  5
5
100
AcDbSymbolTable
 70
41
  0
LTYPE
  5
16
100
AcDbSymbolTableRecord
100
AcDbLinetypeTableRecord
  2
Continuous
 70
0
  3
Solid line
 72
65
 73
0
 40
0.0
  0
LTYPE
  5
31
100
AcDbSymbolTableRecord
100
AcDbLinetypeTableRecord
  2
ACAD_ISO09W100
 70
0
  3
ISO long-dash double-short-dash ____ __ __ ____
 72
65
 73
6
 40
45.0
 49
24.0
 74
0
 49
-3.0
 74
0
 49
6.0
 74
0
 49
-3.0
 74
0
 49
6.0
 74
0
 49
-3.0
 74
0
  0
LTYPE
  5
32
100
AcDbSymbolTableRecord
100
AcDbLinetypeTableRecord
  2
PHANTOM2
 70
0
  3
Phantom (.5x) ___ _ _ ___ _ _ ___ _ _ ___ _ _
 72
65
 73
6
 40
1.25
 49
0.625
 74
0
 49
-0.125
 74
0
 49
0.125
 74
0
 49
-0.125
 74
0
 49
0.125
 74
0
 49
-0.125
 74
0
  0
LTYPE
  5
33
100
AcDbSymbolTableRecord
100
AcDbLinetypeTableRecord
  2
ACAD_ISO02W100
 70
0
  3
ISO dash __ __ __ __ __ __ __ __ __ __ __ __ __
 72
65
 73
2
 40
15.0
 49
12.0
 74
0
 49
-3.0
 74
0
  0
LTYPE
  5
34
100
AcDbSymbolTableRecord
100
AcDbLinetypeTableRecord
  2
ACAD_ISO06W100
 70
0
  3
ISO long-dash triple-dot ____ ... ____ ... ____
 72
65
 73
8
 40
36.0000000000000071
 49
24.0
 74
0
 49
-2.9500000000000002
 74
0
 49
0.1
 74
0
 49
-2.9000000000000004
 74
0
 49
0.1
 74
0
 49
-2.9000000000000004
 74
0
 49
0.1
 74
0
 49
-2.9500000000000002
 74
0
  0
LTYPE
  5
35
100
AcDbSymbolTableRecord
100
AcDbLinetypeTableRecord
  2
CENTER
 70
0
  3
Center ____ _ ____ _ ____ _ ____ _ ____ _ ____
 72
65
 73
4
 40
2.0
 49
1.25
 74
0
 49
-0.25
 74
0
 49
0.25
 74
0
 49
-0.25
 74
0
  0
LTYPE
  5
36
100
AcDbSymbolTableRecord
100
AcDbLinetypeTableRecord
  2
BORDER
 70
0
  3
Border __ __ . __ __ . __ __ . __ __ . __ __ .
 72
65
 73
6
 40
1.75
 49
0.5
 74
0
 49
-0.25
 74
0
 49
0.5
 74
0
 49
-0.2
 74
0
 49
0.1
 74
0
 49
-0.2
 74
0
  0
LTYPE
  5
37
100
AcDbSymbolTableRecord
100
AcDbLinetypeTableRecord
  2
HIDDEN
 70
0
  3
Hidden __ __ __ __ __ __ __ __ __ __ __ __ __ __
 72
65
 73
2
 40
0.375
 49
0.25
 74
0
 49
-0.125
 74
0
  0
LTYPE
  5
38
100
AcDbSymbolTableRecord
100
AcDbLinetypeTableRecord
  2
ACAD_ISO07W100
 70
0
  3
ISO dot . . . . . . . . . . . . . . . . . . . . 
 72
65
 73
2
 40
3.0
 49
0.1
 74
0
 49
-2.8999999999999999
 74
0
  0
LTYPE
  5
39
100
AcDbSymbolTableRecord
100
AcDbLinetypeTableRecord
  2
DIVIDE2
 70
0
  3
Divide (.5x) __..__..__..__..__..__..__..__.._
 72
65
 73
6
 40
0.625
 49
0.25
 74
0
 49
-0.075
 74
0
 49
0.1
 74
0
 49
-0.025
 74
0
 49
0.1
 74
0
 49
-0.075
 74
0
  0
LTYPE
  5
3A
100
AcDbSymbolTableRecord
100
AcDbLinetypeTableRecord
  2
DOTX2
 70
0
  3
Dot (2x) .  .  .  .  .  .  .  .  .  .  .  .  .  .
 72
65
 73
2
 40
0.5
 49
0.1
 74
0
 49
-0.4
 74
0
  0
LTYPE
  5
3B
100
AcDbSymbolTableRecord
100
AcDbLinetypeTableRecord
  2
ACAD_ISO11W100
 70
0
  3
ISO double-dash dot __ __ . __ __ . __ __ . __ _
 72
65
 73
6
 40
33.0
 49
12.0
 74
0
 49
-3.0
 74
0
 49
12.0
 74
0
 49
-2.9500000000000002
 74
0
 49
0.1
 74
0
 49
-2.9500000000000002
 74
0
  0
LTYPE
  5
3C
100
AcDbSymbolTableRecord
100
AcDbLinetypeTableRecord
  2
ACAD_ISO14W100
 70
0
  3
ISO dash triple-dot __ . . . __ . . . __ . . . _
 72
65
 73
8
 40
24.0000000000000036
 49
12.0
 74
0
 49
-2.9500000000000002
 74
0
 49
0.1
 74
0
 49
-2.9000000000000004
 74
0
 49
0.1
 74
0
 49
-2.9000000000000004
 74
0
 49
0.1
 74
0
 49
-2.9500000000000002
 74
0
  0
LTYPE
  5
3D
100
AcDbSymbolTableRecord
100
AcDbLinetypeTableRecord
  2
CENTER2
 70
0
  3
Center (.5x) ___ _ ___ _ ___ _ ___ _ ___ _ ___
 72
65
 73
4
 40
1.125
 49
0.75
 74
0
 49
-0.125
 74
0
 49
0.125
 74
0
 49
-0.125
 74
0
  0
LTYPE
  5
3E
100
AcDbSymbolTableRecord
100
AcDbLinetypeTableRecord
  2
DASHED2
 70
0
  3
Dashed (.5x) _ _ _ _ _ _ _ _ _ _ _ _ _ _ _ _ _ 
 72
65
 73
2
 40
0.375
 49
0.25
 74
0
 49
-0.125
 74
0
  0
LTYPE
  5
3F
100
AcDbSymbolTableRecord
100
AcDbLinetypeTableRecord
  2
DASHDOT
 70
0
  3
Dash dot __ . __ . __ . __ . __ . __ . __ . __
 72
65
 73
4
 40
1.0
 49
0.5
 74
0
 49
-0.2
 74
0
 49
0.1
 74
0
 49
-0.2
 74
0
  0
LTYPE
  5
40
100
AcDbSymbolTableRecord
100
AcDbLinetypeTableRecord
  2
DASHDOTX2
 70
0
  3
Dash dot (2x) ____  .  ____  .  ____  .  ___
 72
65
 73
4
 40
2.0
 49
1.0
 74
0
 49
-0.45
 74
0
 49
0.1
 74
0
 49
-0.45
 74
0
  0
LTYPE
  5
14
100
AcDbSymbolTableRecord
100
AcDbLinetypeTableRecord
  2
BYBLOCK
 70
0
  3

 72
65
 73
0
 40
0.0
  0
LTYPE
  5
41
100
AcDbSymbolTableRecord
100
AcDbLinetypeTableRecord
  2
ACAD_ISO15W100
 70
0
  3
ISO double-dash triple-dot __ __ . . . __ __ . .
 72
65
 73
10
 40
39.0000000000000071
 49
12.0
 74
0
 49
-3.0
 74
0
 49
12.0
 74
0
 49
-2.9500000000000002
 74
0
 49
0.1
 74
0
 49
-2.9000000000000004
 74
0
 49
0.1
 74
0
 49
-2.9000000000000004
 74
0
 49
0.1
 74
0
 49
-2.9500000000000002
 74
0
  0
LTYPE
  5
42
100
AcDbSymbolTableRecord
100
AcDbLinetypeTableRecord
  2
ACAD_ISO12W100
 70
0
  3
ISO dash double-dot __ . . __ . . __ . . __ . . 
 72
65
 73
6
 40
21.0
 49
12.0
 74
0
 49
-2.9500000000000002
 74
0
 49
0.1
 74
0
 49
-2.9000000000000004
 74
0
 49
0.1
 74
0
 49
-2.9500000000000002
 74
0
  0
LTYPE
  5
43
100
AcDbSymbolTableRecord
100
AcDbLinetypeTableRecord
  2
DOT2
 70
0
  3
Dot (.5x) ........................................
 72
65
 73
2
 40
0.125
 49
0.1
 74
0
 49
-0.025
 74
0
  0
LTYPE
  5
44
100
AcDbSymbolTableRecord
100
AcDbLinetypeTableRecord
  2
ACAD_ISO13W100
 70
0
  3
ISO double-dash double-dot __ __ . . __ __ . . _
 72
65
 73
8
 40
36.0000000000000071
 49
12.0
 74
0
 49
-3.0
 74
0
 49
12.0
 74
0
 49
-2.9500000000000002
 74
0
 49
0.1
 74
0
 49
-2.9000000000000004
 74
0
 49
0.1
 74
0
 49
-2.9500000000000002
 74
0
  0
LTYPE
  5
45
100
AcDbSymbolTableRecord
100
AcDbLinetypeTableRecord
  2
BORDER2
 70
0
  3
Border (.5x) __.__.__.__.__.__.__.__.__.__.__.
 72
65
 73
6
 40
0.8749999999999999
 49
0.25
 74
0
 49
-0.125
 74
0
 49
0.25
 74
0
 49
-0.075
 74
0
 49
0.1
 74
0
 49
-0.075
 74
0
  0
LTYPE
  5
15
100
AcDbSymbolTableRecord
100
AcDbLinetypeTableRecord
  2
BYLAYER
 70
0
  3

 72
65
 73
0
 40
0.0
  0
LTYPE
  5
46
100
AcDbSymbolTableRecord
100
AcDbLinetypeTableRecord
  2
ACAD_ISO04W100
 70
0
  3
ISO long-dash dot ____ . ____ . ____ . ____ . _
 72
65
 73
4
 40
30.0
 49
24.0
 74
0
 49
-2.9500000000000002
 74
0
 49
0.1
 74
0
 49
-2.9500000000000002
 74
0
  0
LTYPE
  5
47
100
AcDbSymbolTableRecord
100
AcDbLinetypeTableRecord
  2
ACAD_ISO08W100
 70
0
  3
ISO long-dash short-dash ____ __ ____ __ ____ _
 72
65
 73
4
 40
36.0
 49
24.0
 74
0
 49
-3.0
 74
0
 49
6.0
 74
0
 49
-3.0
 74
0
  0
LTYPE
  5
48
100
AcDbSymbolTableRecord
100
AcDbLinetypeTableRecord
  2
DASHDOT2
 70
0
  3
Dash dot (.5x) _._._._._._._._._._._._._._._.
 72
65
 73
4
 40
0.5
 49
0.25
 74
0
 49
-0.075
 74
0
 49
0.1
 74
0
 49
-0.075
 74
0
  0
LTYPE
  5
49
100
AcDbSymbolTableRecord
100
AcDbLinetypeTableRecord
  2
DASHEDX2
 70
0
  3
Dashed (2x) ____  ____  ____  ____  ____  ___
 72
65
 73
2
 40
1.5
 49
1.0
 74
0
 49
-0.5
 74
0
  0
LTYPE
  5
4A
100
AcDbSymbolTableRecord
100
AcDbLinetypeTableRecord
  2
PHANTOM
 70
0
  3
Phantom ______  __  __  ______  __  __  ______ 
 72
65
 73
6
 40
2.5
 49
1.25
 74
0
 49
-0.25
 74
0
 49
0.25
 74
0
 49
-0.25
 74
0
 49
0.25
 74
0
 49
-0.25
 74
0
  0
LTYPE
  5
4B
100
AcDbSymbolTableRecord
100
AcDbLinetypeTableRecord
  2
DIVIDEX2
 70
0
  3
Divide (2x) ________  .  .  ________  .  .  _
 72
65
 73
6
 40
2.5000000000000004
 49
1.0
 74
0
 49
-0.45
 74
0
 49
0.1
 74
0
 49
-0.4
 74
0
 49
0.1
 74
0
 49
-0.45
 74
0
  0
LTYPE
  5
4C
100
AcDbSymbolTableRecord
100
AcDbLinetypeTableRecord
  2
HIDDEN2
 70
0
  3
Hidden (.5x) _ _ _ _ _ _ _ _ _ _ _ _ _ _ _ _ _ 
 72
65
 73
2
 40
0.1875
 49
0.125
 74
0
 49
-0.0625
 74
0
  0
LTYPE
  5
4D
100
AcDbSymbolTableRecord
100
AcDbLinetypeTableRecord
  2
DOT
 70
0
  3
Dot . . . . . . . . . . . . . . . . . . . . . . . .
 72
65
 73
2
 40
0.25
 49
0.1
 74
0
 49
-0.15
 74
0
  0
LTYPE
  5
4E
100
AcDbSymbolTableRecord
100
AcDbLinetypeTableRecord
  2
PHANTOMX2
 70
0
  3
Phantom (2x) ____________    ____    ____   _
 72
65
 73
6
 40
5.0
 49
2.5
 74
0
 49
-0.5
 74
0
 49
0.5
 74
0
 49
-0.5
 74
0
 49
0.5
 74
0
 49
-0.5
 74
0
  0
LTYPE
  5
4F
100
AcDbSymbolTableRecord
100
AcDbLinetypeTableRecord
  2
DIVIDE
 70
0
  3
Divide ____ . . ____ . . ____ . . ____ . . ____
 72
65
 73
6
 40
1.25
 49
0.5
 74
0
 49
-0.2
 74
0
 49
0.1
 74
0
 49
-0.15
 74
0
 49
0.1
 74
0
 49
-0.2
 74
0
  0
LTYPE
  5
50
100
AcDbSymbolTableRecord
100
AcDbLinetypeTableRecord
  2
ACAD_ISO05W100
 70
0
  3
ISO long-dash double-dot ____ .. ____ .. ____ . 
 72
65
 73
6
 40
33.0000000000000071
 49
24.0
 74
0
 49
-2.9500000000000002
 74
0
 49
0.1
 74
0
 49
-2.9000000000000004
 74
0
 49
0.1
 74
0
 49
-2.9500000000000002
 74
0
  0
LTYPE
  5
51
100
AcDbSymbolTableRecord
100
AcDbLinetypeTableRecord
  2
HIDDENX2
 70
0
  3
Hidden (2x) ____ ____ ____ ____ ____ ____ ____ 
 72
65
 73
2
 40
0.75
 49
0.5
 74
0
 49
-0.25
 74
0
  0
LTYPE
  5
52
100
AcDbSymbolTableRecord
100
AcDbLinetypeTableRecord
  2
ACAD_ISO03W100
 70
0
  3
ISO dash space __    __    __    __    __    __
 72
65
 73
2
 40
30.0
 49
12.0
 74
0
 49
-18.0
 74
0
  0
LTYPE
  5
53
100
AcDbSymbolTableRecord
100
AcDbLinetypeTableRecord
  2
ACAD_ISO10W100
 70
0
  3
ISO dash dot __ . __ . __ . __ . __ . __ . __ . 
 72
65
 73
4
 40
18.0
 49
12.0
 74
0
 49
-2.9500000000000002
 74
0
 49
0.1
 74
0
 49
-2.9500000000000002
 74
0
  0
LTYPE
  5
54
100
AcDbSymbolTableRecord
100
AcDbLinetypeTableRecord
  2
CENTERX2
 70
0
  3
Center (2x) ________  __  ________  __  _____
 72
65
 73
4
 40
4.0
 49
2.5
 74
0
 49
-0.5
 74
0
 49
0.5
 74
0
 49
-0.5
 74
0
  0
LTYPE
  5
55
100
AcDbSymbolTableRecord
100
AcDbLinetypeTableRecord
  2
DASHED
 70
0
  3
Dashed __ __ __ __ __ __ __ __ __ __ __ __ __ _
 72
65
 73
2
 40
0.75
 49
0.5
 74
0
 49
-0.25
 74
0
  0
LTYPE
  5
56
100
AcDbSymbolTableRecord
100
AcDbLinetypeTableRecord
  2
BORDERX2
 70
0
  3
Border (2x) ____  ____  .  ____  ____  .  ___
 72
65
 73
6
 40
3.5000000000000004
 49
1.0
 74
0
 49
-0.5
 74
0
 49
1.0
 74
0
 49
-0.45
 74
0
 49
0.1
 74
0
 49
-0.45
 74
0
  0
ENDTAB
  0
TABLE
  2
LAYER
  5
2
100
AcDbSymbolTable
 70
15
  0
LAYER
  5
57
100
AcDbSymbolTableRecord
100
AcDbLayerTableRecord
  2
Step_02
 70
1
 62
7
420
0
  6
Continuous
370
25
390
F
  0
LAYER
  5
58
100
AcDbSymbolTableRecord
100
AcDbLayerTableRecord
  2
Step_08
 70
1
 62
7
420
0
  6
Continuous
370
25
390
F
  0
LAYER
  5
59
100
AcDbSymbolTableRecord
100
AcDbLayerTableRecord
  2
Step_03
 70
1
 62
7
420
0
  6
Continuous
370
25
390
F
  0
LAYER
  5
5A
100
AcDbSymbolTableRecord
100
AcDbLayerTableRecord
  2
Step_10
 70
1
 62
7
420
0
  6
Continuous
370
25
390
F
  0
LAYER
  5
5B
100
AcDbSymbolTableRecord
100
AcDbLayerTableRecord
  2
Step_12
 70
1
 62
7
420
0
  6
Continuous
370
25
390
F
  0
LAYER
  5
5C
100
AcDbSymbolTableRecord
100
AcDbLayerTableRecord
  2
Step_09
 70
1
 62
7
420
0
  6
Continuous
370
25
390
F
  0
LAYER
  5
5D
100
AcDbSymbolTableRecord
100
AcDbLayerTableRecord
  2
Step_07
 70
1
 62
7
420
0
  6
Continuous
370
25
390
F
  0
LAYER
  5
10
100
AcDbSymbolTableRecord
100
AcDbLayerTableRecord
  2
0
 70
1
 62
7
420
16777215
  6
Continuous
370
25
390
F
  0
LAYER
  5
5E
100
AcDbSymbolTableRecord
100
AcDbLayerTableRecord
  2
Step_05
 70
1
 62
7
420
0
  6
Continuous
370
25
390
F
  0
LAYER
  5
5F
100
AcDbSymbolTableRecord
100
AcDbLayerTableRecord
  2
Step_11
 70
1
 62
7
420
0
  6
Continuous
370
25
390
F
  0
LAYER
  5
60
100
AcDbSymbolTableRecord
100
AcDbLayerTableRecord
  2
Step_06
 70
1
 62
7
420
0
  6
Continuous
370
25
390
F
  0
LAYER
  5
61
100
AcDbSymbolTableRecord
100
AcDbLayerTableRecord
  2
Step_01
 70
1
 62
7
420
0
  6
Continuous
370
25
390
F
  0
LAYER
  5
62
100
AcDbSymbolTableRecord
100
AcDbLayerTableRecord
  2
Jig-Framing
 70
0
 62
7
420
0
  6
Continuous
370
25
390
F
  0
LAYER
  5
63
100
AcDbSymbolTableRecord
100
AcDbLayerTableRecord
  2
Step_04-Framing
 70
0
 62
7
420
0
  6
Continuous
370
25
390
F
  0
LAYER
  5
64
100
AcDbSymbolTableRecord
100
AcDbLayerTableRecord
  2
Step_04-overlay
 70
1
 62
7
420
0
  6
Continuous
370
25
390
F
  0
ENDTAB
  0
TABLE
  2
STYLE
  5
3
100
AcDbSymbolTable
 70
105
  0
STYLE
  5
65
100
AcDbSymbolTableRecord
100
AcDbTextStyleTableRecord
  2
Standard
 70
0
 40
0.0
 41
1.0
 50
0.0
 71
0
 42
2.5
  3

  4

1001
ACAD
1000
txt
1071
0
  0
STYLE
  5
66
100
AcDbSymbolTableRecord
100
AcDbTextStyleTableRecord
  2
textstyle0
 70
0
 40
0.0
 41
1.0
 50
0.0
 71
0
 42
3.0
  3

  4

1001
ACAD
1000
Liberation Sans
1071
0
  0
STYLE
  5
67
100
AcDbSymbolTableRecord
100
AcDbTextStyleTableRecord
  2
textstyle1
 70
0
 40
0.0
 41
1.0
 50
0.0
 71
0
 42
3.0
  3

  4

1001
ACAD
1000
Liberation Sans
1071
0
  0
STYLE
  5
68
100
AcDbSymbolTableRecord
100
AcDbTextStyleTableRecord
  2
textstyle2
 70
0
 40
0.0
 41
1.0
 50
0.0
 71
0
 42
3.0
  3

  4

1001
ACAD
1000
Liberation Sans
1071
0
  0
STYLE
  5
69
100
AcDbSymbolTableRecord
100
AcDbTextStyleTableRecord
  2
textstyle3
 70
0
 40
0.0
 41
1.0
 50
0.0
 71
0
 42
3.0
  3

  4

1001
ACAD
1000
Liberation Sans
1071
0
  0
STYLE
  5
6A
100
AcDbSymbolTableRecord
100
AcDbTextStyleTableRecord
  2
textstyle4
 70
0
 40
0.0
 41
1.0
 50
0.0
 71
0
 42
3.0
  3

  4

1001
ACAD
1000
Liberation Sans
1071
0
  0
STYLE
  5
6B
100
AcDbSymbolTableRecord
100
AcDbTextStyleTableRecord
  2
textstyle5
 70
0
 40
0.0
 41
1.0
 50
0.0
 71
0
 42
3.0
  3

  4

1001
ACAD
1000
Liberation Sans
1071
0
  0
STYLE
  5
6C
100
AcDbSymbolTableRecord
100
AcDbTextStyleTableRecord
  2
textstyle6
 70
0
 40
0.0
 41
1.0
 50
0.0
 71
0
 42
3.0
  3

  4

1001
ACAD
1000
Liberation Sans
1071
0
  0
STYLE
  5
6D
100
AcDbSymbolTableRecord
100
AcDbTextStyleTableRecord
  2
textstyle7
 70
0
 40
0.0
 41
1.0
 50
0.0
 71
0
 42
3.0
  3

  4

1001
ACAD
1000
Liberation Sans
1071
0
  0
STYLE
  5
6E
100
AcDbSymbolTableRecord
100
AcDbTextStyleTableRecord
  2
textstyle8
 70
0
 40
0.0
 41
1.0
 50
0.0
 71
0
 42
3.0
  3

  4

1001
ACAD
1000
Liberation Sans
1071
0
  0
STYLE
  5
6F
100
AcDbSymbolTableRecord
100
AcDbTextStyleTableRecord
  2
textstyle9
 70
0
 40
0.0
 41
1.0
 50
0.0
 71
0
 42
3.0
  3

  4

1001
ACAD
1000
Liberation Sans
1071
0
  0
STYLE
  5
70
100
AcDbSymbolTableRecord
100
AcDbTextStyleTableRecord
  2
textstyle10
 70
0
 40
0.0
 41
1.0
 50
0.0
 71
0
 42
3.0
  3

  4

1001
ACAD
1000
Liberation Sans
1071
0
  0
STYLE
  5
71
100
AcDbSymbolTableRecord
100
AcDbTextStyleTableRecord
  2
textstyle11
 70
0
 40
0.0
 41
1.0
 50
0.0
 71
0
 42
3.0
  3

  4

1001
ACAD
1000
Liberation Sans
1071
0
  0
STYLE
  5
72
100
AcDbSymbolTableRecord
100
AcDbTextStyleTableRecord
  2
textstyle12
 70
0
 40
0.0
 41
1.0
 50
0.0
 71
0
 42
3.0
  3

  4

1001
ACAD
1000
Liberation Sans
1071
0
  0
STYLE
  5
73
100
AcDbSymbolTableRecord
100
AcDbTextStyleTableRecord
  2
textstyle13
 70
0
 40
0.0
 41
1.0
 50
0.0
 71
0
 42
3.0
  3

  4

1001
ACAD
1000
Liberation Sans
1071
0
  0
STYLE
  5
74
100
AcDbSymbolTableRecord
100
AcDbTextStyleTableRecord
  2
textstyle14
 70
0
 40
0.0
 41
1.0
 50
0.0
 71
0
 42
3.0
  3

  4

1001
ACAD
1000
Liberation Sans
1071
0
  0
STYLE
  5
75
100
AcDbSymbolTableRecord
100
AcDbTextStyleTableRecord
  2
textstyle15
 70
0
 40
0.0
 41
1.0
 50
0.0
 71
0
 42
3.0
  3

  4

1001
ACAD
1000
Liberation Sans
1071
0
  0
STYLE
  5
76
100
AcDbSymbolTableRecord
100
AcDbTextStyleTableRecord
  2
textstyle16
 70
0
 40
0.0
 41
1.0
 50
0.0
 71
0
 42
3.0
  3

  4

1001
ACAD
1000
Liberation Sans
1071
0
  0
STYLE
  5
77
100
AcDbSymbolTableRecord
100
AcDbTextStyleTableRecord
  2
textstyle17
 70
0
 40
0.0
 41
1.0
 50
0.0
 71
0
 42
3.0
  3

  4

1001
ACAD
1000
Liberation Sans
1071
0
  0
STYLE
  5
78
100
AcDbSymbolTableRecord
100
AcDbTextStyleTableRecord
  2
textstyle18
 70
0
 40
0.0
 41
1.0
 50
0.0
 71
0
 42
3.0
  3

  4

1001
ACAD
1000
Liberation Sans
1071
0
  0
STYLE
  5
79
100
AcDbSymbolTableRecord
100
AcDbTextStyleTableRecord
  2
textstyle19
 70
0
 40
0.0
 41
1.0
 50
0.0
 71
0
 42
3.0
  3

  4

1001
ACAD
1000
Liberation Sans
1071
0
  0
STYLE
  5
7A
100
AcDbSymbolTableRecord
100
AcDbTextStyleTableRecord
  2
textstyle20
 70
0
 40
0.0
 41
1.0
 50
0.0
 71
0
 42
3.0
  3

  4

1001
ACAD
1000
Liberation Sans
1071
0
  0
STYLE
  5
7B
100
AcDbSymbolTableRecord
100
AcDbTextStyleTableRecord
  2
textstyle21
 70
0
 40
0.0
 41
1.0
 50
0.0
 71
0
 42
3.0
  3

  4

1001
ACAD
1000
Liberation Sans
1071
0
  0
STYLE
  5
7C
100
AcDbSymbolTableRecord
100
AcDbTextStyleTableRecord
  2
textstyle22
 70
0
 40
0.0
 41
1.0
 50
0.0
 71
0
 42
3.0
  3

  4

1001
ACAD
1000
Liberation Sans
1071
0
  0
STYLE
  5
7D
100
AcDbSymbolTableRecord
100
AcDbTextStyleTableRecord
  2
textstyle23
 70
0
 40
0.0
 41
1.0
 50
0.0
 71
0
 42
3.0
  3

  4

1001
ACAD
1000
Liberation Sans
1071
0
  0
STYLE
  5
7E
100
AcDbSymbolTableRecord
100
AcDbTextStyleTableRecord
  2
textstyle24
 70
0
 40
0.0
 41
1.0
 50
0.0
 71
0
 42
3.0
  3

  4

1001
ACAD
1000
Liberation Sans
1071
0
  0
STYLE
  5
7F
100
AcDbSymbolTableRecord
100
AcDbTextStyleTableRecord
  2
textstyle25
 70
0
 40
0.0
 41
1.0
 50
0.0
 71
0
 42
3.0
  3

  4

1001
ACAD
1000
Liberation Sans
1071
0
  0
STYLE
  5
80
100
AcDbSymbolTableRecord
100
AcDbTextStyleTableRecord
  2
textstyle26
 70
0
 40
0.0
 41
1.0
 50
0.0
 71
0
 42
3.0
  3

  4

1001
ACAD
1000
Liberation Sans
1071
0
  0
STYLE
  5
81
100
AcDbSymbolTableRecord
100
AcDbTextStyleTableRecord
  2
textstyle27
 70
0
 40
0.0
 41
1.0
 50
0.0
 71
0
 42
3.0
  3

  4

1001
ACAD
1000
Liberation Sans
1071
0
  0
STYLE
  5
82
100
AcDbSymbolTableRecord
100
AcDbTextStyleTableRecord
  2
textstyle28
 70
0
 40
0.0
 41
1.0
 50
0.0
 71
0
 42
3.0
  3

  4

1001
ACAD
1000
Liberation Sans
1071
0
  0
STYLE
  5
83
100
AcDbSymbolTableRecord
100
AcDbTextStyleTableRecord
  2
textstyle29
 70
0
 40
0.0
 41
1.0
 50
0.0
 71
0
 42
3.0
  3

  4

1001
ACAD
1000
Liberation Sans
1071
0
  0
STYLE
  5
84
100
AcDbSymbolTableRecord
100
AcDbTextStyleTableRecord
  2
textstyle30
 70
0
 40
0.0
 41
1.0
 50
0.0
 71
0
 42
3.0
  3

  4

1001
ACAD
1000
Liberation Sans
1071
0
  0
STYLE
  5
85
100
AcDbSymbolTableRecord
100
AcDbTextStyleTableRecord
  2
textstyle31
 70
0
 40
0.0
 41
1.0
 50
0.0
 71
0
 42
3.0
  3

  4

1001
ACAD
1000
Liberation Sans
1071
0
  0
STYLE
  5
86
100
AcDbSymbolTableRecord
100
AcDbTextStyleTableRecord
  2
textstyle32
 70
0
 40
0.0
 41
1.0
 50
0.0
 71
0
 42
3.0
  3

  4

1001
ACAD
1000
Liberation Sans
1071
0
  0
STYLE
  5
87
100
AcDbSymbolTableRecord
100
AcDbTextStyleTableRecord
  2
textstyle33
 70
0
 40
0.0
 41
1.0
 50
0.0
 71
0
 42
3.0
  3

  4

1001
ACAD
1000
Liberation Sans
1071
0
  0
STYLE
  5
88
100
AcDbSymbolTableRecord
100
AcDbTextStyleTableRecord
  2
textstyle34
 70
0
 40
0.0
 41
1.0
 50
0.0
 71
0
 42
3.0
  3

  4

1001
ACAD
1000
Liberation Sans
1071
0
  0
STYLE
  5
89
100
AcDbSymbolTableRecord
100
AcDbTextStyleTableRecord
  2
textstyle35
 70
0
 40
0.0
 41
1.0
 50
0.0
 71
0
 42
3.0
  3

  4

1001
ACAD
1000
Liberation Sans
1071
0
  0
STYLE
  5
8A
100
AcDbSymbolTableRecord
100
AcDbTextStyleTableRecord
  2
textstyle36
 70
0
 40
0.0
 41
1.0
 50
0.0
 71
0
 42
3.0
  3

  4

1001
ACAD
1000
Liberation Sans
1071
0
  0
STYLE
  5
8B
100
AcDbSymbolTableRecord
100
AcDbTextStyleTableRecord
  2
textstyle37
 70
0
 40
0.0
 41
1.0
 50
0.0
 71
0
 42
3.0
  3

  4

1001
ACAD
1000
Liberation Sans
1071
0
  0
STYLE
  5
8C
100
AcDbSymbolTableRecord
100
AcDbTextStyleTableRecord
  2
textstyle38
 70
0
 40
0.0
 41
1.0
 50
0.0
 71
0
 42
3.0
  3

  4

1001
ACAD
1000
Liberation Sans
1071
0
  0
STYLE
  5
8D
100
AcDbSymbolTableRecord
100
AcDbTextStyleTableRecord
  2
textstyle39
 70
0
 40
0.0
 41
1.0
 50
0.0
 71
0
 42
3.0
  3

  4

1001
ACAD
1000
Liberation Sans
1071
0
  0
STYLE
  5
8E
100
AcDbSymbolTableRecord
100
AcDbTextStyleTableRecord
  2
textstyle40
 70
0
 40
0.0
 41
1.0
 50
0.0
 71
0
 42
3.0
  3

  4

1001
ACAD
1000
Liberation Sans
1071
0
  0
STYLE
  5
8F
100
AcDbSymbolTableRecord
100
AcDbTextStyleTableRecord
  2
textstyle41
 70
0
 40
0.0
 41
1.0
 50
0.0
 71
0
 42
3.0
  3

  4

1001
ACAD
1000
Liberation Sans
1071
0
  0
STYLE
  5
90
100
AcDbSymbolTableRecord
100
AcDbTextStyleTableRecord
  2
textstyle42
 70
0
 40
0.0
 41
1.0
 50
0.0
 71
0
 42
3.0
  3

  4

1001
ACAD
1000
Liberation Sans
1071
0
  0
STYLE
  5
91
100
AcDbSymbolTableRecord
100
AcDbTextStyleTableRecord
  2
textstyle43
 70
0
 40
0.0
 41
1.0
 50
0.0
 71
0
 42
3.0
  3

  4

1001
ACAD
1000
Liberation Sans
1071
0
  0
STYLE
  5
92
100
AcDbSymbolTableRecord
100
AcDbTextStyleTableRecord
  2
textstyle44
 70
0
 40
0.0
 41
1.0
 50
0.0
 71
0
 42
3.0
  3

  4

1001
ACAD
1000
Liberation Sans
1071
0
  0
STYLE
  5
93
100
AcDbSymbolTableRecord
100
AcDbTextStyleTableRecord
  2
textstyle45
 70
0
 40
0.0
 41
1.0
 50
0.0
 71
0
 42
3.0
  3

  4

1001
ACAD
1000
Liberation Sans
1071
0
  0
STYLE
  5
94
100
AcDbSymbolTableRecord
100
AcDbTextStyleTableRecord
  2
textstyle46
 70
0
 40
0.0
 41
1.0
 50
0.0
 71
0
 42
3.0
  3

  4

1001
ACAD
1000
Liberation Sans
1071
0
  0
STYLE
  5
95
100
AcDbSymbolTableRecord
100
AcDbTextStyleTableRecord
  2
textstyle47
 70
0
 40
0.0
 41
1.0
 50
0.0
 71
0
 42
3.0
  3

  4

1001
ACAD
1000
Liberation Sans
1071
0
  0
STYLE
  5
96
100
AcDbSymbolTableRecord
100
AcDbTextStyleTableRecord
  2
textstyle48
 70
0
 40
0.0
 41
1.0
 50
0.0
 71
0
 42
3.0
  3

  4

1001
ACAD
1000
Liberation Sans
1071
0
  0
STYLE
  5
97
100
AcDbSymbolTableRecord
100
AcDbTextStyleTableRecord
  2
textstyle49
 70
0
 40
0.0
 41
1.0
 50
0.0
 71
0
 42
3.0
  3

  4

1001
ACAD
1000
Liberation Sans
1071
0
  0
STYLE
  5
98
100
AcDbSymbolTableRecord
100
AcDbTextStyleTableRecord
  2
textstyle50
 70
0
 40
0.0
 41
1.0
 50
0.0
 71
0
 42
3.0
  3

  4

1001
ACAD
1000
Liberation Sans
1071
0
  0
STYLE
  5
99
100
AcDbSymbolTableRecord
100
AcDbTextStyleTableRecord
  2
textstyle51
 70
0
 40
0.0
 41
1.0
 50
0.0
 71
0
 42
3.0
  3

  4

1001
ACAD
1000
Liberation Sans
1071
0
  0
STYLE
  5
9A
100
AcDbSymbolTableRecord
100
AcDbTextStyleTableRecord
  2
textstyle52
 70
0
 40
0.0
 41
1.0
 50
0.0
 71
0
 42
3.0
  3

  4

1001
ACAD
1000
Liberation Sans
1071
0
  0
STYLE
  5
9B
100
AcDbSymbolTableRecord
100
AcDbTextStyleTableRecord
  2
textstyle53
 70
0
 40
0.0
 41
1.0
 50
0.0
 71
0
 42
3.0
  3

  4

1001
ACAD
1000
Liberation Sans
1071
0
  0
STYLE
  5
9C
100
AcDbSymbolTableRecord
100
AcDbTextStyleTableRecord
  2
textstyle54
 70
0
 40
0.0
 41
1.0
 50
0.0
 71
0
 42
3.0
  3

  4

1001
ACAD
1000
Liberation Sans
1071
0
  0
STYLE
  5
9D
100
AcDbSymbolTableRecord
100
AcDbTextStyleTableRecord
  2
textstyle55
 70
0
 40
0.0
 41
1.0
 50
0.0
 71
0
 42
3.0
  3

  4

1001
ACAD
1000
Liberation Sans
1071
0
  0
STYLE
  5
9E
100
AcDbSymbolTableRecord
100
AcDbTextStyleTableRecord
  2
textstyle56
 70
0
 40
0.0
 41
1.0
 50
0.0
 71
0
 42
3.0
  3

  4

1001
ACAD
1000
Liberation Sans
1071
0
  0
STYLE
  5
9F
100
AcDbSymbolTableRecord
100
AcDbTextStyleTableRecord
  2
textstyle57
 70
0
 40
0.0
 41
1.0
 50
0.0
 71
0
 42
3.0
  3

  4

1001
ACAD
1000
Liberation Sans
1071
0
  0
STYLE
  5
A0
100
AcDbSymbolTableRecord
100
AcDbTextStyleTableRecord
  2
textstyle58
 70
0
 40
0.0
 41
1.0
 50
0.0
 71
0
 42
3.0
  3

  4

1001
ACAD
1000
Liberation Sans
1071
0
  0
STYLE
  5
A1
100
AcDbSymbolTableRecord
100
AcDbTextStyleTableRecord
  2
textstyle59
 70
0
 40
0.0
 41
1.0
 50
0.0
 71
0
 42
3.0
  3

  4

1001
ACAD
1000
Liberation Sans
1071
0
  0
STYLE
  5
A2
100
AcDbSymbolTableRecord
100
AcDbTextStyleTableRecord
  2
textstyle60
 70
0
 40
0.0
 41
1.0
 50
0.0
 71
0
 42
3.0
  3

  4

1001
ACAD
1000
Liberation Sans
1071
0
  0
STYLE
  5
A3
100
AcDbSymbolTableRecord
100
AcDbTextStyleTableRecord
  2
textstyle61
 70
0
 40
0.0
 41
1.0
 50
0.0
 71
0
 42
3.0
  3

  4

1001
ACAD
1000
Liberation Sans
1071
0
  0
STYLE
  5
A4
100
AcDbSymbolTableRecord
100
AcDbTextStyleTableRecord
  2
textstyle62
 70
0
 40
0.0
 41
1.0
 50
0.0
 71
0
 42
3.0
  3

  4

1001
ACAD
1000
Liberation Sans
1071
0
  0
STYLE
  5
A5
100
AcDbSymbolTableRecord
100
AcDbTextStyleTableRecord
  2
textstyle63
 70
0
 40
0.0
 41
1.0
 50
0.0
 71
0
 42
3.0
  3

  4

1001
ACAD
1000
Liberation Sans
1071
0
  0
STYLE
  5
A6
100
AcDbSymbolTableRecord
100
AcDbTextStyleTableRecord
  2
textstyle64
 70
0
 40
0.0
 41
1.0
 50
0.0
 71
0
 42
3.0
  3

  4

1001
ACAD
1000
Liberation Sans
1071
0
  0
STYLE
  5
A7
100
AcDbSymbolTableRecord
100
AcDbTextStyleTableRecord
  2
textstyle65
 70
0
 40
0.0
 41
1.0
 50
0.0
 71
0
 42
3.0
  3

  4

1001
ACAD
1000
Liberation Sans
1071
0
  0
STYLE
  5
A8
100
AcDbSymbolTableRecord
100
AcDbTextStyleTableRecord
  2
textstyle66
 70
0
 40
0.0
 41
1.0
 50
0.0
 71
0
 42
3.0
  3

  4

1001
ACAD
1000
Liberation Sans
1071
0
  0
STYLE
  5
A9
100
AcDbSymbolTableRecord
100
AcDbTextStyleTableRecord
  2
textstyle67
 70
0
 40
0.0
 41
1.0
 50
0.0
 71
0
 42
3.0
  3

  4

1001
ACAD
1000
Liberation Sans
1071
0
  0
STYLE
  5
AA
100
AcDbSymbolTableRecord
100
AcDbTextStyleTableRecord
  2
textstyle68
 70
0
 40
0.0
 41
1.0
 50
0.0
 71
0
 42
3.0
  3

  4

1001
ACAD
1000
Liberation Sans
1071
0
  0
STYLE
  5
AB
100
AcDbSymbolTableRecord
100
AcDbTextStyleTableRecord
  2
textstyle69
 70
0
 40
0.0
 41
1.0
 50
0.0
 71
0
 42
3.0
  3

  4

1001
ACAD
1000
Liberation Sans
1071
0
  0
STYLE
  5
AC
100
AcDbSymbolTableRecord
100
AcDbTextStyleTableRecord
  2
textstyle70
 70
0
 40
0.0
 41
1.0
 50
0.0
 71
0
 42
3.0
  3

  4

1001
ACAD
1000
Liberation Sans
1071
0
  0
STYLE
  5
AD
100
AcDbSymbolTableRecord
100
AcDbTextStyleTableRecord
  2
textstyle71
 70
0
 40
0.0
 41
1.0
 50
0.0
 71
0
 42
3.0
  3

  4

1001
ACAD
1000
Liberation Sans
1071
0
  0
STYLE
  5
AE
100
AcDbSymbolTableRecord
100
AcDbTextStyleTableRecord
  2
textstyle72
 70
0
 40
0.0
 41
1.0
 50
0.0
 71
0
 42
3.0
  3

  4

1001
ACAD
1000
Liberation Sans
1071
0
  0
STYLE
  5
AF
100
AcDbSymbolTableRecord
100
AcDbTextStyleTableRecord
  2
textstyle73
 70
0
 40
0.0
 41
1.0
 50
0.0
 71
0
 42
3.0
  3

  4

1001
ACAD
1000
Liberation Sans
1071
0
  0
STYLE
  5
B0
100
AcDbSymbolTableRecord
100
AcDbTextStyleTableRecord
  2
textstyle74
 70
0
 40
0.0
 41
1.0
 50
0.0
 71
0
 42
3.0
  3

  4

1001
ACAD
1000
Liberation Sans
1071
0
  0
STYLE
  5
B1
100
AcDbSymbolTableRecord
100
AcDbTextStyleTableRecord
  2
textstyle75
 70
0
 40
0.0
 41
1.0
 50
0.0
 71
0
 42
3.0
  3

  4

1001
ACAD
1000
Liberation Sans
1071
0
  0
STYLE
  5
B2
100
AcDbSymbolTableRecord
100
AcDbTextStyleTableRecord
  2
textstyle76
 70
0
 40
0.0
 41
1.0
 50
0.0
 71
0
 42
3.0
  3

  4

1001
ACAD
1000
Liberation Sans
1071
0
  0
STYLE
  5
B3
100
AcDbSymbolTableRecord
100
AcDbTextStyleTableRecord
  2
textstyle77
 70
0
 40
0.0
 41
1.0
 50
0.0
 71
0
 42
3.0
  3

  4

1001
ACAD
1000
Liberation Sans
1071
0
  0
STYLE
  5
B4
100
AcDbSymbolTableRecord
100
AcDbTextStyleTableRecord
  2
textstyle78
 70
0
 40
0.0
 41
1.0
 50
0.0
 71
0
 42
3.0
  3

  4

1001
ACAD
1000
Liberation Sans
1071
0
  0
STYLE
  5
B5
100
AcDbSymbolTableRecord
100
AcDbTextStyleTableRecord
  2
textstyle79
 70
0
 40
0.0
 41
1.0
 50
0.0
 71
0
 42
3.0
  3

  4

1001
ACAD
1000
Liberation Sans
1071
0
  0
STYLE
  5
B6
100
AcDbSymbolTableRecord
100
AcDbTextStyleTableRecord
  2
textstyle80
 70
0
 40
0.0
 41
1.0
 50
0.0
 71
0
 42
3.0
  3

  4

1001
ACAD
1000
Liberation Sans
1071
0
  0
STYLE
  5
B7
100
AcDbSymbolTableRecord
100
AcDbTextStyleTableRecord
  2
textstyle81
 70
0
 40
0.0
 41
1.0
 50
0.0
 71
0
 42
3.0
  3

  4

1001
ACAD
1000
Liberation Sans
1071
0
  0
STYLE
  5
B8
100
AcDbSymbolTableRecord
100
AcDbTextStyleTableRecord
  2
textstyle82
 70
0
 40
0.0
 41
1.0
 50
0.0
 71
0
 42
3.0
  3

  4

1001
ACAD
1000
Liberation Sans
1071
0
  0
STYLE
  5
B9
100
AcDbSymbolTableRecord
100
AcDbTextStyleTableRecord
  2
textstyle83
 70
0
 40
0.0
 41
1.0
 50
0.0
 71
0
 42
3.0
  3

  4

1001
ACAD
1000
Liberation Sans
1071
0
  0
STYLE
  5
BA
100
AcDbSymbolTableRecord
100
AcDbTextStyleTableRecord
  2
textstyle84
 70
0
 40
0.0
 41
1.0
 50
0.0
 71
0
 42
3.0
  3

  4

1001
ACAD
1000
Liberation Sans
1071
0
  0
STYLE
  5
BB
100
AcDbSymbolTableRecord
100
AcDbTextStyleTableRecord
  2
textstyle85
 70
0
 40
0.0
 41
1.0
 50
0.0
 71
0
 42
3.0
  3

  4

1001
ACAD
1000
Liberation Sans
1071
0
  0
STYLE
  5
BC
100
AcDbSymbolTableRecord
100
AcDbTextStyleTableRecord
  2
textstyle86
 70
0
 40
0.0
 41
1.0
 50
0.0
 71
0
 42
3.0
  3

  4

1001
ACAD
1000
Liberation Sans
1071
0
  0
STYLE
  5
BD
100
AcDbSymbolTableRecord
100
AcDbTextStyleTableRecord
  2
textstyle87
 70
0
 40
0.0
 41
1.0
 50
0.0
 71
0
 42
3.0
  3

  4

1001
ACAD
1000
Liberation Sans
1071
0
  0
STYLE
  5
BE
100
AcDbSymbolTableRecord
100
AcDbTextStyleTableRecord
  2
textstyle88
 70
0
 40
0.0
 41
1.0
 50
0.0
 71
0
 42
3.0
  3

  4

1001
ACAD
1000
Liberation Sans
1071
0
  0
STYLE
  5
BF
100
AcDbSymbolTableRecord
100
AcDbTextStyleTableRecord
  2
textstyle89
 70
0
 40
0.0
 41
1.0
 50
0.0
 71
0
 42
3.0
  3

  4

1001
ACAD
1000
Liberation Sans
1071
0
  0
STYLE
  5
C0
100
AcDbSymbolTableRecord
100
AcDbTextStyleTableRecord
  2
textstyle90
 70
0
 40
0.0
 41
1.0
 50
0.0
 71
0
 42
3.0
  3

  4

1001
ACAD
1000
Liberation Sans
1071
0
  0
STYLE
  5
C1
100
AcDbSymbolTableRecord
100
AcDbTextStyleTableRecord
  2
textstyle91
 70
0
 40
0.0
 41
1.0
 50
0.0
 71
0
 42
3.0
  3

  4

1001
ACAD
1000
Liberation Sans
1071
0
  0
STYLE
  5
C2
100
AcDbSymbolTableRecord
100
AcDbTextStyleTableRecord
  2
textstyle92
 70
0
 40
0.0
 41
1.0
 50
0.0
 71
0
 42
3.0
  3

  4

1001
ACAD
1000
Liberation Sans
1071
0
  0
STYLE
  5
C3
100
AcDbSymbolTableRecord
100
AcDbTextStyleTableRecord
  2
textstyle93
 70
0
 40
0.0
 41
1.0
 50
0.0
 71
0
 42
3.0
  3

  4

1001
ACAD
1000
Liberation Sans
1071
0
  0
STYLE
  5
C4
100
AcDbSymbolTableRecord
100
AcDbTextStyleTableRecord
  2
textstyle94
 70
0
 40
0.0
 41
1.0
 50
0.0
 71
0
 42
3.0
  3

  4

1001
ACAD
1000
Liberation Sans
1071
0
  0
STYLE
  5
C5
100
AcDbSymbolTableRecord
100
AcDbTextStyleTableRecord
  2
textstyle95
 70
0
 40
0.0
 41
1.0
 50
0.0
 71
0
 42
3.0
  3

  4

1001
ACAD
1000
Liberation Sans
1071
0
  0
STYLE
  5
C6
100
AcDbSymbolTableRecord
100
AcDbTextStyleTableRecord
  2
textstyle96
 70
0
 40
0.0
 41
1.0
 50
0.0
 71
0
 42
3.0
  3

  4

1001
ACAD
1000
Liberation Sans
1071
0
  0
STYLE
  5
C7
100
AcDbSymbolTableRecord
100
AcDbTextStyleTableRecord
  2
textstyle97
 70
0
 40
0.0
 41
1.0
 50
0.0
 71
0
 42
6.0
  3

  4

1001
ACAD
1000
Liberation Sans
1071
0
  0
STYLE
  5
C8
100
AcDbSymbolTableRecord
100
AcDbTextStyleTableRecord
  2
textstyle98
 70
0
 40
0.0
 41
1.0
 50
0.0
 71
0
 42
6.0
  3

  4

1001
ACAD
1000
Liberation Sans
1071
0
  0
STYLE
  5
C9
100
AcDbSymbolTableRecord
100
AcDbTextStyleTableRecord
  2
textstyle99
 70
0
 40
0.0
 41
1.0
 50
0.0
 71
0
 42
3.0
  3

  4

1001
ACAD
1000
Liberation Sans
1071
0
  0
STYLE
  5
CA
100
AcDbSymbolTableRecord
100
AcDbTextStyleTableRecord
  2
textstyle100
 70
0
 40
0.0
 41
1.0
 50
0.0
 71
0
 42
6.0
  3

  4

1001
ACAD
1000
Liberation Sans
1071
0
  0
STYLE
  5
CB
100
AcDbSymbolTableRecord
100
AcDbTextStyleTableRecord
  2
textstyle101
 70
0
 40
0.0
 41
1.0
 50
0.0
 71
0
 42
3.0
  3

  4

1001
ACAD
1000
Liberation Sans
1071
0
  0
STYLE
  5
CC
100
AcDbSymbolTableRecord
100
AcDbTextStyleTableRecord
  2
textstyle102
 70
0
 40
0.0
 41
1.0
 50
0.0
 71
0
 42
3.0
  3

  4

1001
ACAD
1000
Liberation Sans
1071
0
  0
STYLE
  5
CD
100
AcDbSymbolTableRecord
100
AcDbTextStyleTableRecord
  2
textstyle103
 70
0
 40
0.0
 41
1.0
 50
0.0
 71
0
 42
3.0
  3

  4

1001
ACAD
1000
Liberation Sans
1071
0
  0
ENDTAB
  0
TABLE
  2
VIEW
  5
6
100
AcDbSymbolTable
 70
0
  0
ENDTAB
  0
TABLE
  2
UCS
  5
7
100
AcDbSymbolTable
 70
0
  0
ENDTAB
  0
TABLE
  2
APPID
  5
9
100
AcDbSymbolTable
 70
1
  0
APPID
  5
12
100
AcDbSymbolTableRecord
100
AcDbRegAppTableRecord
  2
ACAD
 70
0
  0
APPID
  5
CE
100
AcDbSymbolTableRecord
100
AcDbRegAppTableRecord
  2
QCAD
 70
0
  0
ENDTAB
  0
TABLE
  2
DIMSTYLE
  5
A
100
AcDbSymbolTable
 70
1
100
AcDbDimStyleTable
 71
0
  0
DIMSTYLE
105
27
100
AcDbSymbolTableRecord
100
AcDbDimStyleTableRecord
  2
Standard
 41
2.5
 42
0.625
 43
3.75
 44
1.25
 70
0
 73
0
 74
0
 77
1
 78
8
140
2.5
141
2.5
143
0.03937007874016
147
0.625
171
3
172
1
271
2
272
2
274
3
278
44
283
0
284
8
340
65
  0
ENDTAB
  0
TABLE
  2
BLOCK_RECORD
  5
1
100
AcDbSymbolTable
 70
1
  0
BLOCK_RECORD
  5
1F
100
AcDbSymbolTableRecord
100
AcDbBlockTableRecord
  2
*Model_Space
340
22
  0
BLOCK_RECORD
  5
1B
100
AcDbSymbolTableRecord
100
AcDbBlockTableRecord
  2
*Paper_Space
340
1E
  0
BLOCK_RECORD
  5
23
100
AcDbSymbolTableRecord
100
AcDbBlockTableRecord
  2
*Paper_Space0
340
26
  0
BLOCK_RECORD
  5
CF
100
AcDbSymbolTableRecord
100
AcDbBlockTableRecord
  2
spaceBlk
340
0
  0
BLOCK_RECORD
  5
D0
100
AcDbSymbolTableRecord
100
AcDbBlockTableRecord
  2
spaceblkEnd
340
0
  0
ENDTAB
  0
ENDSEC
  0
SECTION
  2
BLOCKS
  0
BLOCK
  5
20
100
AcDbEntity
  8
0
100
AcDbBlockBegin
  2
*Model_Space
 70
0
 10
0.0
 20
0.0
 30
0.0
  3
*Model_Space
  1

  0
ENDBLK
  5
21
100
AcDbEntity
  8
0
100
AcDbBlockEnd
  0
BLOCK
  5
1C
100
AcDbEntity
 67
1
  8
0
100
AcDbBlockBegin
  2
*Paper_Space
 70
0
 10
0.0
 20
0.0
 30
0.0
  3
*Paper_Space
  1

  0
ENDBLK
  5
1D
100
AcDbEntity
 67
1
  8
0
100
AcDbBlockEnd
  0
BLOCK
  5
24
100
AcDbEntity
  8
0
100
AcDbBlockBegin
  2
*Paper_Space0
 70
0
 10
0.0
 20
0.0
 30
0.0
  3
*Paper_Space0
  1

  0
ENDBLK
  5
25
100
AcDbEntity
  8
0
100
AcDbBlockEnd
  0
BLOCK
  5
D1
100
AcDbEntity
  8
0
100
AcDbBlockBegin
  2
spaceBlk
 70
0
 10
0.0
 20
0.0
 30
0.0
  3
spaceBlk
  1

  0
LINE
  5
D2
100
AcDbEntity
  8
Step_07
 62
256
370
-1
 48
1.0
  6
BYLAYER
100
AcDbLine
 10
0.0
 20
0.0
 30
0.0
 11
0.0
 21
12.0
 31
0.0
  0
LINE
  5
D3
100
AcDbEntity
  8
Step_04-Framing
 62
256
370
-1
 48
1.0
  6
BYLAYER
100
AcDbLine
 10
0.0
 20
12.0
 30
0.0
 11
3.5
 21
12.0
 31
0.0
  0
LINE
  5
D4
100
AcDbEntity
  8
Step_07
 62
256
370
-1
 48
1.0
  6
BYLAYER
100
AcDbLine
 10
3.5
 20
12.0
 30
0.0
 11
3.5
 21
0.0
 31
0.0
  0
LINE
  5
D5
100
AcDbEntity
  8
Step_07
 62
256
370
-1
 48
1.0
  6
BYLAYER
100
AcDbLine
 10
3.5
 20
0.0
 30
0.0
 11
0.0
 21
0.0
 31
0.0
  0
HATCH
  5
D6
100
AcDbEntity
  8
Step_07
 62
256
370
-1
 48
1.0
  6
BYLAYER
100
AcDbHatch
 10
0.0
 20
0.0
 30
0.0
210
0.0
220
0.0
230
1.0
  2
SOLID
 70
1
 71
0
 91
1
 92
1
 93
4
 72
1
 10
0.0
 20
12.0
 11
3.5
 21
12.0
 72
1
 10
3.5
 20
12.0
 11
3.5
 21
0.0
 72
1
 10
3.5
 20
0.0
 11
0.0
 21
0.0
 72
1
 10
0.0
 20
0.0
 11
0.0
 21
12.0
 97
0
 75
0
 76
1
 98
0
1001
ACAD
1010
0.0
1020
0.0
1030
0
  0
ENDBLK
  5
D7
100
AcDbEntity
  8
0
100
AcDbBlockEnd
  0
BLOCK
  5
D8
100
AcDbEntity
  8
0
100
AcDbBlockBegin
  2
spaceblkEnd
 70
0
 10
0.0
 20
0.0
 30
0.0
  3
spaceblkEnd
  1

  0
LINE
  5
D9
100
AcDbEntity
  8
Step_07
 62
256
370
-1
 48
1.0
  6
BYLAYER
100
AcDbLine
 10
0.0
 20
0.0
 30
0.0
 11
0.0
 21
10.0
 31
0.0
  0
LINE
  5
DA
100
AcDbEntity
  8
Step_07
 62
256
370
-1
 48
1.0
  6
BYLAYER
100
AcDbLine
 10
0.0
 20
10.0
 30
0.0
 11
3.5
 21
10.0
 31
0.0
  0
LINE
  5
DB
100
AcDbEntity
  8
Step_07
 62
256
370
-1
 48
1.0
  6
BYLAYER
100
AcDbLine
 10
3.5
 20
10.0
 30
0.0
 11
3.5
 21
0.0
 31
0.0
  0
LINE
  5
DC
100
AcDbEntity
  8
Step_07
 62
256
370
-1
 48
1.0
  6
BYLAYER
100
AcDbLine
 10
3.5
 20
0.0
 30
0.0
 11
0.0
 21
0.0
 31
0.0
  0
HATCH
  5
DD
100
AcDbEntity
  8
Step_04-Framing
 62
256
370
-1
 48
1.0
  6
BYLAYER
100
AcDbHatch
 10
0.0
 20
0.0
 30
0.0
210
0.0
220
0.0
230
1.0
  2
SOLID
 70
1
 71
0
 91
1
 92
1
 93
4
 72
1
 10
3.5
 20
0.0
 11
0.0
 21
0.0
 72
1
 10
0.0
 20
0.0
 11
0.0
 21
10.0
 72
1
 10
0.0
 20
10.0
 11
3.5
 21
10.0
 72
1
 10
3.5
 20
10.0
 11
3.5
 21
0.0
 97
0
 75
0
 76
1
 98
0
1001
ACAD
1010
0.0
1020
0.0
1030
0
  0
ENDBLK
  5
DE
100
AcDbEntity
  8
0
100
AcDbBlockEnd
  0
ENDSEC
  0
SECTION
  2
ENTITIES
  0
HATCH
  5
DF
100
AcDbEntity
  8
Step_09
 62
252
420
10526884
370
-1
 48
1.0
  6
BYLAYER
100
AcDbHatch
 10
0.0
 20
0.0
 30
0.0
210
0.0
220
0.0
230
1.0
  2
AR-RROOF
 70
0
 71
0
 91
1
 92
1
 93
4
 72
1
 10
94.2966544023705637
 20
30.9724058217527087
 11
1.7966544023705637
 21
30.9724058217527087
 72
1
 10
1.7966544023705637
 20
30.9724058217527087
 11
1.7966544023705637
 21
16.9724058217527087
 72
1
 10
1.7966544023705637
 20
16.9724058217527087
 11
94.2966544023705495
 21
16.9724058217527087
 72
1
 10
94.2966544023705637
 20
16.9724058217527087
 11
94.2966544023705637
 21
30.9724058217527087
 97
0
 75
0
 76
1
 52
0.0
 41
1.0
 77
0
 78
1
 53
45.0
 43
0.0
 44
0.0
 45
-0.0883883476483184
 46
0.0883883476483185
 79
0
 98
0
1001
ACAD
1010
0.0
1020
0.0
1030
0
  0
HATCH
  5
E0
100
AcDbEntity
  8
Step_08
 62
252
420
10526884
370
-1
 48
1.0
  6
BYLAYER
100
AcDbHatch
 10
0.0
 20
0.0
 30
0.0
210
0.0
220
0.0
230
1.0
  2
AR-RROOF
 70
0
 71
0
 91
1
 92
1
 93
4
 72
1
 10
94.2966544023705637
 20
78.9724058217527158
 11
1.7966544023705637
 21
78.9724058217527158
 72
1
 10
1.7966544023705637
 20
78.9724058217527158
 11
1.7966544023705637
 21
64.9724058217527158
 72
1
 10
1.7966544023705637
 20
64.9724058217527158
 11
94.2966544023705495
 21
64.9724058217527158
 72
1
 10
94.2966544023705637
 20
64.9724058217527158
 11
94.2966544023705637
 21
78.9724058217527158
 97
0
 75
0
 76
1
 52
0.0
 41
1.0
 77
0
 78
1
 53
45.0
 43
0.0
 44
0.0
 45
-0.0883883476483184
 46
0.0883883476483185
 79
0
 98
0
1001
ACAD
1010
0.0
1020
0.0
1030
0
  0
HATCH
  5
E1
100
AcDbEntity
  8
Step_04-Framing
 62
252
420
10526884
370
-1
 48
1.0
  6
BYLAYER
100
AcDbHatch
 10
0.0
 20
0.0
 30
0.0
210
0.0
220
0.0
230
1.0
  2
SOLID
 70
1
 71
0
 91
1
 92
1
 93
4
 72
1
 10
94.5
 20
0.0
 11
94.5
 21
144.0
 72
1
 10
94.5
 20
144.0
 11
96.0
 21
144.0
 72
1
 10
96.0
 20
144.0
 11
96.0
 21
0.0
 72
1
 10
96.0
 20
0.0
 11
94.5
 21
0.0
 97
0
 75
0
 76
1
 98
0
1001
ACAD
1010
0.0
1020
0.0
1030
0
  0
HATCH
  5
E2
100
AcDbEntity
  8
Step_04-Framing
 62
252
420
10526884
370
-1
 48
1.0
  6
BYLAYER
100
AcDbHatch
 10
0.0
 20
0.0
 30
0.0
210
0.0
220
0.0
230
1.0
  2
SOLID
 70
1
 71
0
 91
1
 92
1
 93
4
 72
1
 10
83.5
 20
0.0
 11
83.5
 21
144.0
 72
1
 10
83.5
 20
144.0
 11
80.0
 21
144.0
 72
1
 10
80.0
 20
144.0
 11
80.0
 21
0.0
 72
1
 10
80.0
 20
0.0
 11
83.5
 21
0.0
 97
0
 75
0
 76
1
 98
0
1001
ACAD
1010
0.0
1020
0.0
1030
0
  0
HATCH
  5
E3
100
AcDbEntity
  8
Step_04-Framing
 62
252
420
10526884
370
-1
 48
1.0
  6
BYLAYER
100
AcDbHatch
 10
0.0
 20
0.0
 30
0.0
210
0.0
220
0.0
230
1.0
  2
SOLID
 70
1
 71
0
 91
1
 92
1
 93
4
 72
1
 10
12.5
 20
144.0
 11
12.5
 21
0.0
 72
1
 10
12.5
 20
0.0
 11
16.0
 21
0.0
 72
1
 10
16.0
 20
0.0
 11
16.0
 21
144.0
 72
1
 10
16.0
 20
144.0
 11
12.5
 21
144.0
 97
0
 75
0
 76
1
 98
0
1001
ACAD
1010
0.0
1020
0.0
1030
0
  0
LINE
  5
E4
100
AcDbEntity
  8
Step_04-Framing
 62
256
370
-1
 48
1.0
  6
BYLAYER
100
AcDbLine
 10
83.5
 20
0.0
 30
0.0
 11
83.5
 21
144.0
 31
0.0
  0
LINE
  5
E5
100
AcDbEntity
  8
Step_04-Framing
 62
256
370
-1
 48
1.0
  6
BYLAYER
100
AcDbLine
 10
80.0
 20
144.0
 30
0.0
 11
80.0
 21
0.0
 31
0.0
  0
LINE
  5
E6
100
AcDbEntity
  8
Step_04-Framing
 62
256
370
-1
 48
1.0
  6
BYLAYER
100
AcDbLine
 10
16.0
 20
0.0
 30
0.0
 11
16.0
 21
143.0
 31
0.0
  0
LINE
  5
E7
100
AcDbEntity
  8
Step_04-Framing
 62
256
370
-1
 48
1.0
  6
BYLAYER
100
AcDbLine
 10
12.5
 20
143.0
 30
0.0
 11
12.5
 21
0.0
 31
0.0
  0
HATCH
  5
E8
100
AcDbEntity
  8
Step_04-Framing
 62
252
420
10526884
370
-1
 48
1.0
  6
BYLAYER
100
AcDbHatch
 10
0.0
 20
0.0
 30
0.0
210
0.0
220
0.0
230
1.0
  2
SOLID
 70
1
 71
0
 91
1
 92
1
 93
4
 72
1
 10
1.5
 20
16.75
 11
1.5
 21
15.25
 72
1
 10
1.5
 20
15.25
 11
94.5
 21
15.25
 72
1
 10
94.5
 20
15.25
 11
94.5
 21
16.75
 72
1
 10
94.5
 20
16.75
 11
1.5
 21
16.75
 97
0
 75
0
 76
1
 98
0
1001
ACAD
1010
0.0
1020
0.0
1030
0
  0
HATCH
  5
E9
100
AcDbEntity
  8
Step_04-Framing
 62
252
420
10526884
370
-1
 48
1.0
  6
BYLAYER
100
AcDbHatch
 10
0.0
 20
0.0
 30
0.0
210
0.0
220
0.0
230
1.0
  2
SOLID
 70
1
 71
0
 91
1
 92
1
 93
4
 72
1
 10
1.5
 20
144.0
 11
94.5
 21
144.0
 72
1
 10
94.5
 20
144.0
 11
94.5
 21
142.5
 72
1
 10
94.5
 20
142.5
 11
1.5
 21
142.5
 72
1
 10
1.5
 20
142.5
 11
1.5
 21
144.0
 97
0
 75
0
 76
1
 98
0
1001
ACAD
1010
0.0
1020
0.0
1030
0
  0
HATCH
  5
EA
100
AcDbEntity
  8
Step_04-Framing
 62
252
420
10526884
370
-1
 48
1.0
  6
BYLAYER
100
AcDbHatch
 10
0.0
 20
0.0
 30
0.0
210
0.0
220
0.0
230
1.0
  2
SOLID
 70
1
 71
0
 91
1
 92
1
 93
4
 72
1
 10
1.5
 20
96.75
 11
1.5
 21
95.25
 72
1
 10
1.5
 20
95.25
 11
94.5
 21
95.25
 72
1
 10
94.5
 20
95.25
 11
94.5
 21
96.75
 72
1
 10
94.5
 20
96.75
 11
1.5
 21
96.75
 97
0
 75
0
 76
1
 98
0
1001
ACAD
1010
0.0
1020
0.0
1030
0
  0
HATCH
  5
EB
100
AcDbEntity
  8
Step_04-Framing
 62
252
420
10526884
370
-1
 48
1.0
  6
BYLAYER
100
AcDbHatch
 10
0.0
 20
0.0
 30
0.0
210
0.0
220
0.0
230
1.0
  2
SOLID
 70
1
 71
0
 91
1
 92
1
 93
4
 72
1
 10
1.5
 20
80.75
 11
1.5
 21
79.25
 72
1
 10
1.5
 20
79.25
 11
94.5
 21
79.25
 72
1
 10
94.5
 20
79.25
 11
94.5
 21
80.75
 72
1
 10
94.5
 20
80.75
 11
1.5
 21
80.75
 97
0
 75
0
 76
1
 98
0
1001
ACAD
1010
0.0
1020
0.0
1030
0
  0
HATCH
  5
EC
100
AcDbEntity
  8
Step_04-Framing
 62
252
420
10526884
370
-1
 48
1.0
  6
BYLAYER
100
AcDbHatch
 10
0.0
 20
0.0
 30
0.0
210
0.0
220
0.0
230
1.0
  2
SOLID
 70
1
 71
0
 91
1
 92
1
 93
4
 72
1
 10
1.5
 20
128.75
 11
1.5
 21
127.25
 72
1
 10
1.5
 20
127.25
 11
94.5
 21
127.25
 72
1
 10
94.5
 20
127.25
 11
94.5
 21
128.75
 72
1
 10
94.5
 20
128.75
 11
1.5
 21
128.75
 97
0
 75
0
 76
1
 98
0
1001
ACAD
1010
0.0
1020
0.0
1030
0
  0
HATCH
  5
ED
100
AcDbEntity
  8
Step_04-Framing
 62
252
420
10526884
370
-1
 48
1.0
  6
BYLAYER
100
AcDbHatch
 10
0.0
 20
0.0
 30
0.0
210
0.0
220
0.0
230
1.0
  2
SOLID
 70
1
 71
0
 91
1
 92
1
 93
4
 72
1
 10
1.5
 20
64.75
 11
1.5
 21
63.25
 72
1
 10
1.5
 20
63.25
 11
94.5
 21
63.25
 72
1
 10
94.5
 20
63.25
 11
94.5
 21
64.75
 72
1
 10
94.5
 20
64.75
 11
1.5
 21
64.75
 97
0
 75
0
 76
1
 98
0
1001
ACAD
1010
0.0
1020
0.0
1030
0
  0
HATCH
  5
EE
100
AcDbEntity
  8
Step_04-Framing
 62
252
420
10526884
370
-1
 48
1.0
  6
BYLAYER
100
AcDbHatch
 10
0.0
 20
0.0
 30
0.0
210
0.0
220
0.0
230
1.0
  2
SOLID
 70
1
 71
0
 91
1
 92
1
 93
4
 72
1
 10
94.5
 20
141.0
 11
94.5
 21
142.5
 72
1
 10
94.5
 20
142.5
 11
1.5
 21
142.5
 72
1
 10
1.5
 20
142.5
 11
1.5
 21
141.0
 72
1
 10
1.5
 20
141.0
 11
94.5
 21
141.0
 97
0
 75
0
 76
1
 98
0
1001
ACAD
1010
0.0
1020
0.0
1030
0
  0
HATCH
  5
EF
100
AcDbEntity
  8
Step_04-Framing
 62
252
420
10526884
370
-1
 48
1.0
  6
BYLAYER
100
AcDbHatch
 10
0.0
 20
0.0
 30
0.0
210
0.0
220
0.0
230
1.0
  2
SOLID
 70
1
 71
0
 91
1
 92
1
 93
4
 72
1
 10
94.5
 20
1.5
 11
94.5
 21
3.0
 72
1
 10
94.5
 20
3.0
 11
1.5
 21
3.0
 72
1
 10
1.5
 20
3.0
 11
1.5
 21
1.5
 72
1
 10
1.5
 20
1.5
 11
94.5
 21
1.5
 97
0
 75
0
 76
1
 98
0
1001
ACAD
1010
0.0
1020
0.0
1030
0
  0
HATCH
  5
F0
100
AcDbEntity
  8
Step_04-Framing
 62
252
420
10526884
370
-1
 48
1.0
  6
BYLAYER
100
AcDbHatch
 10
0.0
 20
0.0
 30
0.0
210
0.0
220
0.0
230
1.0
  2
SOLID
 70
1
 71
0
 91
1
 92
1
 93
4
 72
1
 10
1.5
 20
1.5
 11
94.5
 21
1.5
 72
1
 10
94.5
 20
1.5
 11
94.5
 21
0.0
 72
1
 10
94.5
 20
0.0
 11
1.5
 21
0.0
 72
1
 10
1.5
 20
0.0
 11
1.5
 21
1.5
 97
0
 75
0
 76
1
 98
0
1001
ACAD
1010
0.0
1020
0.0
1030
0
  0
HATCH
  5
F1
100
AcDbEntity
  8
Step_04-Framing
 62
252
420
10526884
370
-1
 48
1.0
  6
BYLAYER
100
AcDbHatch
 10
0.0
 20
0.0
 30
0.0
210
0.0
220
0.0
230
1.0
  2
SOLID
 70
1
 71
0
 91
1
 92
1
 93
4
 72
1
 10
1.5
 20
48.75
 11
1.5
 21
47.25
 72
1
 10
1.5
 20
47.25
 11
94.5
 21
47.25
 72
1
 10
94.5
 20
47.25
 11
94.5
 21
48.75
 72
1
 10
94.5
 20
48.75
 11
1.5
 21
48.75
 97
0
 75
0
 76
1
 98
0
1001
ACAD
1010
0.0
1020
0.0
1030
0
  0
HATCH
  5
F2
100
AcDbEntity
  8
Step_04-Framing
 62
252
420
10526884
370
-1
 48
1.0
  6
BYLAYER
100
AcDbHatch
 10
0.0
 20
0.0
 30
0.0
210
0.0
220
0.0
230
1.0
  2
SOLID
 70
1
 71
0
 91
1
 92
1
 93
4
 72
1
 10
0.0
 20
0.0
 11
0.0
 21
144.0
 72
1
 10
0.0
 20
144.0
 11
1.5
 21
144.0
 72
1
 10
1.5
 20
144.0
 11
1.5
 21
0.0
 72
1
 10
1.5
 20
0.0
 11
0.0
 21
0.0
 97
0
 75
0
 76
1
 98
0
1001
ACAD
1010
0.0
1020
0.0
1030
0
  0
HATCH
  5
F3
100
AcDbEntity
  8
Step_04-Framing
 62
252
420
10526884
370
-1
 48
1.0
  6
BYLAYER
100
AcDbHatch
 10
0.0
 20
0.0
 30
0.0
210
0.0
220
0.0
230
1.0
  2
SOLID
 70
1
 71
0
 91
1
 92
1
 93
4
 72
1
 10
1.5
 20
32.75
 11
1.5
 21
31.25
 72
1
 10
1.5
 20
31.25
 11
94.5
 21
31.25
 72
1
 10
94.5
 20
31.25
 11
94.5
 21
32.75
 72
1
 10
94.5
 20
32.75
 11
1.5
 21
32.75
 97
0
 75
0
 76
1
 98
0
1001
ACAD
1010
0.0
1020
0.0
1030
0
  0
HATCH
  5
F4
100
AcDbEntity
  8
Step_04-Framing
 62
252
420
10526884
370
-1
 48
1.0
  6
BYLAYER
100
AcDbHatch
 10
0.0
 20
0.0
 30
0.0
210
0.0
220
0.0
230
1.0
  2
SOLID
 70
1
 71
0
 91
1
 92
1
 93
4
 72
1
 10
1.5
 20
112.75
 11
1.5
 21
111.25
 72
1
 10
1.5
 20
111.25
 11
94.5
 21
111.25
 72
1
 10
94.5
 20
111.25
 11
94.5
 21
112.75
 72
1
 10
94.5
 20
112.75
 11
1.5
 21
112.75
 97
0
 75
0
 76
1
 98
0
1001
ACAD
1010
0.0
1020
0.0
1030
0
  0
HATCH
  5
F5
100
AcDbEntity
  8
Step_09
 62
252
420
10526884
370
-1
 48
1.0
  6
BYLAYER
100
AcDbHatch
 10
0.0
 20
0.0
 30
0.0
210
0.0
220
0.0
230
1.0
  2
SOLID
 70
1
 71
0
 91
1
 92
1
 93
4
 72
1
 10
0.0
 20
144.0
 11
0.0
 21
96.0
 72
1
 10
0.0
 20
96.0
 11
96.0
 21
96.0
 72
1
 10
96.0
 20
96.0
 11
96.0
 21
144.0
 72
1
 10
96.0
 20
144.0
 11
0.0
 21
144.0
 97
0
 75
0
 76
1
 98
0
1001
ACAD
1010
0.0
1020
0.0
1030
0
  0
HATCH
  5
F6
100
AcDbEntity
  8
Step_10
 62
252
420
10526884
370
-1
 48
1.0
  6
BYLAYER
100
AcDbHatch
 10
0.0
 20
0.0
 30
0.0
210
0.0
220
0.0
230
1.0
  2
SOLID
 70
1
 71
0
 91
1
 92
1
 93
4
 72
1
 10
0.0
 20
144.0
 11
0.0
 21
96.0
 72
1
 10
0.0
 20
96.0
 11
96.0
 21
96.0
 72
1
 10
96.0
 20
96.0
 11
96.0
 21
144.0
 72
1
 10
96.0
 20
144.0
 11
0.0
 21
144.0
 97
0
 75
0
 76
1
 98
0
1001
ACAD
1010
0.0
1020
0.0
1030
0
  0
HATCH
  5
F7
100
AcDbEntity
  8
Step_10
 62
252
420
10526884
370
-1
 48
1.0
  6
BYLAYER
100
AcDbHatch
 10
0.0
 20
0.0
 30
0.0
210
0.0
220
0.0
230
1.0
  2
SOLID
 70
1
 71
0
 91
1
 92
1
 93
4
 72
1
 10
0.0
 20
96.0
 11
0.0
 21
48.0
 72
1
 10
0.0
 20
48.0
 11
96.0
 21
48.0
 72
1
 10
96.0
 20
48.0
 11
96.0
 21
96.0
 72
1
 10
96.0
 20
96.0
 11
0.0
 21
96.0
 97
0
 75
0
 76
1
 98
0
1001
ACAD
1010
0.0
1020
0.0
1030
0
  0
HATCH
  5
F8
100
AcDbEntity
  8
Step_11
 62
252
420
10526884
370
-1
 48
1.0
  6
BYLAYER
100
AcDbHatch
 10
0.0
 20
0.0
 30
0.0
210
0.0
220
0.0
230
1.0
  2
SOLID
 70
1
 71
0
 91
1
 92
1
 93
4
 72
1
 10
0.0
 20
96.0
 11
0.0
 21
48.0
 72
1
 10
0.0
 20
48.0
 11
96.0
 21
48.0
 72
1
 10
96.0
 20
48.0
 11
96.0
 21
96.0
 72
1
 10
96.0
 20
96.0
 11
0.0
 21
96.0
 97
0
 75
0
 76
1
 98
0
1001
ACAD
1010
0.0
1020
0.0
1030
0
  0
HATCH
  5
F9
100
AcDbEntity
  8
Step_11
 62
252
420
10526884
370
-1
 48
1.0
  6
BYLAYER
100
AcDbHatch
 10
0.0
 20
0.0
 30
0.0
210
0.0
220
0.0
230
1.0
  2
SOLID
 70
1
 71
0
 91
1
 92
1
 93
4
 72
1
 10
0.0
 20
144.0
 11
0.0
 21
96.0
 72
1
 10
0.0
 20
96.0
 11
96.0
 21
96.0
 72
1
 10
96.0
 20
96.0
 11
96.0
 21
144.0
 72
1
 10
96.0
 20
144.0
 11
0.0
 21
144.0
 97
0
 75
0
 76
1
 98
0
1001
ACAD
1010
0.0
1020
0.0
1030
0
  0
HATCH
  5
FA
100
AcDbEntity
  8
Step_11
 62
252
420
10526884
370
-1
 48
1.0
  6
BYLAYER
100
AcDbHatch
 10
0.0
 20
0.0
 30
0.0
210
0.0
220
0.0
230
1.0
  2
SOLID
 70
1
 71
0
 91
1
 92
1
 93
4
 72
1
 10
0.0
 20
48.0
 11
0.0
 21
0.0
 72
1
 10
0.0
 20
0.0
 11
96.0
 21
0.0
 72
1
 10
96.0
 20
0.0
 11
96.0
 21
48.0
 72
1
 10
96.0
 20
48.0
 11
0.0
 21
48.0
 97
0
 75
0
 76
1
 98
0
1001
ACAD
1010
0.0
1020
0.0
1030
0
  0
HATCH
  5
FB
100
AcDbEntity
  8
Step_01
 62
256
370
-1
 48
1.0
  6
BYLAYER
100
AcDbHatch
 10
0.0
 20
0.0
 30
0.0
210
0.0
220
0.0
230
1.0
  2
SOLID
 70
1
 71
0
 91
1
 92
1
 93
4
 72
1
 10
0.0
 20
0.0
 11
0.0
 21
144.0
 72
1
 10
0.0
 20
144.0
 11
1.5
 21
144.0
 72
1
 10
1.5
 20
144.0
 11
1.5
 21
0.0
 72
1
 10
1.5
 20
0.0
 11
0.0
 21
0.0
 97
0
 75
0
 76
1
 98
0
1001
ACAD
1010
0.0
1020
0.0
1030
0
  0
HATCH
  5
FC
100
AcDbEntity
  8
Step_01
 62
256
370
-1
 48
1.0
  6
BYLAYER
100
AcDbHatch
 10
0.0
 20
0.0
 30
0.0
210
0.0
220
0.0
230
1.0
  2
SOLID
 70
1
 71
0
 91
1
 92
1
 93
4
 72
1
 10
94.5
 20
0.0
 11
94.5
 21
144.0
 72
1
 10
94.5
 20
144.0
 11
96.0
 21
144.0
 72
1
 10
96.0
 20
144.0
 11
96.0
 21
0.0
 72
1
 10
96.0
 20
0.0
 11
94.5
 21
0.0
 97
0
 75
0
 76
1
 98
0
1001
ACAD
1010
0.0
1020
0.0
1030
0
  0
HATCH
  5
FD
100
AcDbEntity
  8
Step_02
 62
252
420
10526884
370
-1
 48
1.0
  6
BYLAYER
100
AcDbHatch
 10
0.0
 20
0.0
 30
0.0
210
0.0
220
0.0
230
1.0
  2
SOLID
 70
1
 71
0
 91
1
 92
1
 93
4
 72
1
 10
0.0
 20
0.0
 11
0.0
 21
144.0
 72
1
 10
0.0
 20
144.0
 11
1.5
 21
144.0
 72
1
 10
1.5
 20
144.0
 11
1.5
 21
0.0
 72
1
 10
1.5
 20
0.0
 11
0.0
 21
0.0
 97
0
 75
0
 76
1
 98
0
1001
ACAD
1010
0.0
1020
0.0
1030
0
  0
HATCH
  5
FE
100
AcDbEntity
  8
Step_02
 62
252
420
10526884
370
-1
 48
1.0
  6
BYLAYER
100
AcDbHatch
 10
0.0
 20
0.0
 30
0.0
210
0.0
220
0.0
230
1.0
  2
SOLID
 70
1
 71
0
 91
1
 92
1
 93
4
 72
1
 10
94.5
 20
0.0
 11
94.5
 21
144.0
 72
1
 10
94.5
 20
144.0
 11
96.0
 21
144.0
 72
1
 10
96.0
 20
144.0
 11
96.0
 21
0.0
 72
1
 10
96.0
 20
0.0
 11
94.5
 21
0.0
 97
0
 75
0
 76
1
 98
0
1001
ACAD
1010
0.0
1020
0.0
1030
0
  0
HATCH
  5
FF
100
AcDbEntity
  8
Step_03
 62
252
420
10526884
370
-1
 48
1.0
  6
BYLAYER
100
AcDbHatch
 10
0.0
 20
0.0
 30
0.0
210
0.0
220
0.0
230
1.0
  2
SOLID
 70
1
 71
0
 91
1
 92
1
 93
4
 72
1
 10
0.0
 20
0.0
 11
0.0
 21
144.0
 72
1
 10
0.0
 20
144.0
 11
1.5
 21
144.0
 72
1
 10
1.5
 20
144.0
 11
1.5
 21
0.0
 72
1
 10
1.5
 20
0.0
 11
0.0
 21
0.0
 97
0
 75
0
 76
1
 98
0
1001
ACAD
1010
0.0
1020
0.0
1030
0
  0
HATCH
  5
100
100
AcDbEntity
  8
Step_03
 62
252
420
10526884
370
-1
 48
1.0
  6
BYLAYER
100
AcDbHatch
 10
0.0
 20
0.0
 30
0.0
210
0.0
220
0.0
230
1.0
  2
SOLID
 70
1
 71
0
 91
1
 92
1
 93
4
 72
1
 10
94.5
 20
0.0
 11
94.5
 21
144.0
 72
1
 10
94.5
 20
144.0
 11
96.0
 21
144.0
 72
1
 10
96.0
 20
144.0
 11
96.0
 21
0.0
 72
1
 10
96.0
 20
0.0
 11
94.5
 21
0.0
 97
0
 75
0
 76
1
 98
0
1001
ACAD
1010
0.0
1020
0.0
1030
0
  0
HATCH
  5
101
100
AcDbEntity
  8
Step_01
 62
256
370
-1
 48
1.0
  6
BYLAYER
100
AcDbHatch
 10
0.0
 20
0.0
 30
0.0
210
0.0
220
0.0
230
1.0
  2
SOLID
 70
1
 71
0
 91
1
 92
1
 93
4
 72
1
 10
1.5
 20
1.5
 11
94.5
 21
1.5
 72
1
 10
94.5
 20
1.5
 11
94.5
 21
0.0
 72
1
 10
94.5
 20
0.0
 11
1.5
 21
0.0
 72
1
 10
1.5
 20
0.0
 11
1.5
 21
1.5
 97
0
 75
0
 76
1
 98
0
1001
ACAD
1010
0.0
1020
0.0
1030
0
  0
HATCH
  5
102
100
AcDbEntity
  8
Step_01
 62
256
370
-1
 48
1.0
  6
BYLAYER
100
AcDbHatch
 10
0.0
 20
0.0
 30
0.0
210
0.0
220
0.0
230
1.0
  2
SOLID
 70
1
 71
0
 91
1
 92
1
 93
4
 72
1
 10
1.5
 20
144.0
 11
94.5
 21
144.0
 72
1
 10
94.5
 20
144.0
 11
94.5
 21
142.5
 72
1
 10
94.5
 20
142.5
 11
1.5
 21
142.5
 72
1
 10
1.5
 20
142.5
 11
1.5
 21
144.0
 97
0
 75
0
 76
1
 98
0
1001
ACAD
1010
0.0
1020
0.0
1030
0
  0
HATCH
  5
103
100
AcDbEntity
  8
Step_02
 62
252
420
10526884
370
-1
 48
1.0
  6
BYLAYER
100
AcDbHatch
 10
0.0
 20
0.0
 30
0.0
210
0.0
220
0.0
230
1.0
  2
SOLID
 70
1
 71
0
 91
1
 92
1
 93
4
 72
1
 10
1.5
 20
1.5
 11
94.5
 21
1.5
 72
1
 10
94.5
 20
1.5
 11
94.5
 21
0.0
 72
1
 10
94.5
 20
0.0
 11
1.5
 21
0.0
 72
1
 10
1.5
 20
0.0
 11
1.5
 21
1.5
 97
0
 75
0
 76
1
 98
0
1001
ACAD
1010
0.0
1020
0.0
1030
0
  0
HATCH
  5
104
100
AcDbEntity
  8
Step_02
 62
252
420
10526884
370
-1
 48
1.0
  6
BYLAYER
100
AcDbHatch
 10
0.0
 20
0.0
 30
0.0
210
0.0
220
0.0
230
1.0
  2
SOLID
 70
1
 71
0
 91
1
 92
1
 93
4
 72
1
 10
1.5
 20
144.0
 11
94.5
 21
144.0
 72
1
 10
94.5
 20
144.0
 11
94.5
 21
142.5
 72
1
 10
94.5
 20
142.5
 11
1.5
 21
142.5
 72
1
 10
1.5
 20
142.5
 11
1.5
 21
144.0
 97
0
 75
0
 76
1
 98
0
1001
ACAD
1010
0.0
1020
0.0
1030
0
  0
HATCH
  5
105
100
AcDbEntity
  8
Step_03
 62
252
420
10526884
370
-1
 48
1.0
  6
BYLAYER
100
AcDbHatch
 10
0.0
 20
0.0
 30
0.0
210
0.0
220
0.0
230
1.0
  2
SOLID
 70
1
 71
0
 91
1
 92
1
 93
4
 72
1
 10
1.5
 20
1.5
 11
94.5
 21
1.5
 72
1
 10
94.5
 20
1.5
 11
94.5
 21
0.0
 72
1
 10
94.5
 20
0.0
 11
1.5
 21
0.0
 72
1
 10
1.5
 20
0.0
 11
1.5
 21
1.5
 97
0
 75
0
 76
1
 98
0
1001
ACAD
1010
0.0
1020
0.0
1030
0
  0
HATCH
  5
106
100
AcDbEntity
  8
Step_03
 62
252
420
10526884
370
-1
 48
1.0
  6
BYLAYER
100
AcDbHatch
 10
0.0
 20
0.0
 30
0.0
210
0.0
220
0.0
230
1.0
  2
SOLID
 70
1
 71
0
 91
1
 92
1
 93
4
 72
1
 10
1.5
 20
144.0
 11
94.5
 21
144.0
 72
1
 10
94.5
 20
144.0
 11
94.5
 21
142.5
 72
1
 10
94.5
 20
142.5
 11
1.5
 21
142.5
 72
1
 10
1.5
 20
142.5
 11
1.5
 21
144.0
 97
0
 75
0
 76
1
 98
0
1001
ACAD
1010
0.0
1020
0.0
1030
0
  0
IMAGE
  5
107
100
AcDbEntity
  8
Step_01
 62
256
370
-1
 48
1.0
  6
BYLAYER
100
AcDbRasterImage
 90
0
 10
-0.4800568761319803
 20
131.6815450149399283
 30
0.0
 11
0.0
 21
0.25
 31
0.0
 12
-0.25
 22
0.0
 32
0.0
 13
14.0
 23
14.0
340
108
 70
15
280
0
281
50
282
50
283
0
  0
IMAGE
  5
109
100
AcDbEntity
  8
Step_01
 62
256
370
-1
 48
1.0
  6
BYLAYER
100
AcDbRasterImage
 90
0
 10
-0.4562611082195478
 20
-10.6724910066103291
 30
0.0
 11
0.0
 21
0.25
 31
0.0
 12
-0.25
 22
0.0
 32
0.0
 13
14.0
 23
14.0
340
10A
 70
15
280
0
281
50
282
50
283
0
  0
IMAGE
  5
10B
100
AcDbEntity
  8
Step_01
 62
256
370
-1
 48
1.0
  6
BYLAYER
100
AcDbRasterImage
 90
0
 10
96.6706647439233251
 20
-10.4855038644554934
 30
0.0
 11
-0.0
 21
0.25
 31
0.0
 12
0.25
 22
0.0
 32
0.0
 13
14.0
 23
14.0
340
10C
 70
15
280
0
281
50
282
50
283
0
  0
IMAGE
  5
10D
100
AcDbEntity
  8
Step_01
 62
256
370
-1
 48
1.0
  6
BYLAYER
100
AcDbRasterImage
 90
0
 10
96.6706647439233251
 20
131.7799811225659141
 30
0.0
 11
-0.0
 21
0.25
 31
0.0
 12
0.25
 22
0.0
 32
0.0
 13
14.0
 23
14.0
340
10E
 70
15
280
0
281
50
282
50
283
0
  0
IMAGE
  5
10F
100
AcDbEntity
  8
Step_02
 62
256
370
-1
 48
1.0
  6
BYLAYER
100
AcDbRasterImage
 90
0
 10
19.1429171310146984
 20
0.5963407711991204
 30
0.0
 11
-0.1499961871475098
 21
0.0010695051235154
 31
0.0
 12
-0.0010695051235155
 22
-0.1499961871475098
 32
0.0
 13
8.0
 23
8.0
340
110
 70
15
280
0
281
50
282
50
283
0
  0
IMAGE
  5
111
100
AcDbEntity
  8
Step_02
 62
256
370
-1
 48
1.0
  6
BYLAYER
100
AcDbRasterImage
 90
0
 10
48.1421799795332532
 20
0.3895697806527267
 30
0.0
 11
-0.1499961871475098
 21
0.0010695051235154
 31
0.0
 12
-0.0010695051235155
 22
-0.1499961871475098
 32
0.0
 13
8.0
 23
8.0
340
112
 70
15
280
0
281
50
282
50
283
0
  0
IMAGE
  5
113
100
AcDbEntity
  8
Step_02
 62
256
370
-1
 48
1.0
  6
BYLAYER
100
AcDbRasterImage
 90
0
 10
62.6418114037925235
 20
0.2861842853794794
 30
0.0
 11
-0.1499961871475098
 21
0.0010695051235154
 31
0.0
 12
-0.0010695051235155
 22
-0.1499961871475098
 32
0.0
 13
8.0
 23
8.0
340
114
 70
15
280
0
281
50
282
50
283
0
  0
IMAGE
  5
115
100
AcDbEntity
  8
Step_02
 62
256
370
-1
 48
1.0
  6
BYLAYER
100
AcDbRasterImage
 90
0
 10
91.6410742523110855
 20
0.0794132948335569
 30
0.0
 11
-0.1499961871475098
 21
0.0010695051235154
 31
0.0
 12
-0.0010695051235155
 22
-0.1499961871475098
 32
0.0
 13
8.0
 23
8.0
340
116
 70
15
280
0
281
50
282
50
283
0
  0
IMAGE
  5
117
100
AcDbEntity
  8
Step_02
 62
256
370
-1
 48
1.0
  6
BYLAYER
100
AcDbRasterImage
 90
0
 10
62.6514863261262178
 20
144.0578066852083907
 30
0.0
 11
-0.15
 21
0.0
 31
0.0
 12
-0.0
 22
0.15
 32
0.0
 13
8.0
 23
8.0
340
118
 70
15
280
0
281
50
282
50
283
0
  0
IMAGE
  5
119
100
AcDbEntity
  8
Step_02
 62
256
370
-1
 48
1.0
  6
BYLAYER
100
AcDbRasterImage
 90
0
 10
19.1514863261262072
 20
144.0578066852084476
 30
0.0
 11
-0.15
 21
0.0
 31
0.0
 12
-0.0
 22
0.15
 32
0.0
 13
8.0
 23
8.0
340
11A
 70
15
280
0
281
50
282
50
283
0
  0
IMAGE
  5
11B
100
AcDbEntity
  8
Step_02
 62
256
370
-1
 48
1.0
  6
BYLAYER
100
AcDbRasterImage
 90
0
 10
-0.185831169902162
 20
148.4439916841396894
 30
0.0
 11
-0.0
 21
-0.15
 31
0.0
 12
-0.15
 22
0.0
 32
0.0
 13
8.0
 23
8.0
340
11C
 70
15
280
0
281
50
282
50
283
0
  0
IMAGE
  5
11D
100
AcDbEntity
  8
Step_02
 62
256
370
-1
 48
1.0
  6
BYLAYER
100
AcDbRasterImage
 90
0
 10
96.0
 20
148.5932453574567376
 30
0.0
 11
-0.0
 21
-0.15
 31
0.0
 12
0.15
 22
0.0
 32
0.0
 13
8.0
 23
8.0
340
11E
 70
15
280
0
281
50
282
50
283
0
  0
IMAGE
  5
11F
100
AcDbEntity
  8
Step_02
 62
256
370
-1
 48
1.0
  6
BYLAYER
100
AcDbRasterImage
 90
0
 10
0.036746683668697
 20
9.1147508849782923
 30
0.0
 11
-0.0
 21
-0.15
 31
0.0
 12
-0.15
 22
0.0
 32
0.0
 13
8.0
 23
8.0
340
120
 70
15
280
0
281
50
282
50
283
0
  0
IMAGE
  5
121
100
AcDbEntity
  8
Step_02
 62
256
370
-1
 48
1.0
  6
BYLAYER
100
AcDbRasterImage
 90
0
 10
96.2225778535708827
 20
9.2640045582953121
 30
0.0
 11
-0.0
 21
-0.15
 31
0.0
 12
0.15
 22
0.0
 32
0.0
 13
8.0
 23
8.0
340
122
 70
15
280
0
281
50
282
50
283
0
  0
IMAGE
  5
123
100
AcDbEntity
  8
Step_02
 62
256
370
-1
 48
1.0
  6
BYLAYER
100
AcDbRasterImage
 90
0
 10
91.6514863261261894
 20
144.0578066852081918
 30
0.0
 11
-0.15
 21
0.0
 31
0.0
 12
-0.0
 22
0.15
 32
0.0
 13
8.0
 23
8.0
340
124
 70
15
280
0
281
50
282
50
283
0
  0
IMAGE
  5
125
100
AcDbEntity
  8
Step_02
 62
256
370
-1
 48
1.0
  6
BYLAYER
100
AcDbRasterImage
 90
0
 10
48.1514863261262178
 20
144.057806685208476
 30
0.0
 11
-0.15
 21
0.0
 31
0.0
 12
-0.0
 22
0.15
 32
0.0
 13
8.0
 23
8.0
340
126
 70
15
280
0
281
50
282
50
283
0
  0
IMAGE
  5
127
100
AcDbEntity
  8
Step_03
 62
256
370
-1
 48
1.0
  6
BYLAYER
100
AcDbRasterImage
 90
0
 10
-0.4800568761319906
 20
116.4315450149399283
 30
0.0
 11
0.0
 21
0.25
 31
0.0
 12
-0.25
 22
0.0
 32
0.0
 13
14.0
 23
14.0
340
128
 70
15
280
0
281
50
282
50
283
0
  0
IMAGE
  5
129
100
AcDbEntity
  8
Step_03
 62
256
370
-1
 48
1.0
  6
BYLAYER
100
AcDbRasterImage
 90
0
 10
-0.4800568761319893
 20
130.4315450149399283
 30
0.0
 11
0.0
 21
0.25
 31
0.0
 12
-0.25
 22
0.0
 32
0.0
 13
14.0
 23
14.0
340
12A
 70
15
280
0
281
50
282
50
283
0
  0
IMAGE
  5
12B
100
AcDbEntity
  8
Step_03
 62
256
370
-1
 48
1.0
  6
BYLAYER
100
AcDbRasterImage
 90
0
 10
96.6706647439233393
 20
116.6055324650746456
 30
0.0
 11
-0.0
 21
0.25
 31
0.0
 12
0.25
 22
0.0
 32
0.0
 13
14.0
 23
14.0
340
12C
 70
15
280
0
281
50
282
50
283
0
  0
IMAGE
  5
12D
100
AcDbEntity
  8
Step_03
 62
256
370
-1
 48
1.0
  6
BYLAYER
100
AcDbRasterImage
 90
0
 10
96.6821475657194043
 20
130.2072776004984007
 30
0.0
 11
0.0
 21
0.25
 31
0.0
 12
0.25
 22
0.0
 32
0.0
 13
14.0
 23
14.0
340
12E
 70
15
280
0
281
50
282
50
283
0
  0
IMAGE
  5
12F
100
AcDbEntity
  8
Step_03
 62
256
370
-1
 48
1.0
  6
BYLAYER
100
AcDbRasterImage
 90
0
 10
-0.4800568761319893
 20
100.4315450149399283
 30
0.0
 11
0.0
 21
0.25
 31
0.0
 12
-0.25
 22
0.0
 32
0.0
 13
14.0
 23
14.0
340
130
 70
15
280
0
281
50
282
50
283
0
  0
IMAGE
  5
131
100
AcDbEntity
  8
Step_03
 62
256
370
-1
 48
1.0
  6
BYLAYER
100
AcDbRasterImage
 90
0
 10
96.6706647439233535
 20
100.6055324650746456
 30
0.0
 11
-0.0
 21
0.25
 31
0.0
 12
0.25
 22
0.0
 32
0.0
 13
14.0
 23
14.0
340
132
 70
15
280
0
281
50
282
50
283
0
  0
IMAGE
  5
133
100
AcDbEntity
  8
Step_03
 62
256
370
-1
 48
1.0
  6
BYLAYER
100
AcDbRasterImage
 90
0
 10
-0.4800568761319893
 20
84.4315450149399283
 30
0.0
 11
0.0
 21
0.25
 31
0.0
 12
-0.25
 22
0.0
 32
0.0
 13
14.0
 23
14.0
340
134
 70
15
280
0
281
50
282
50
283
0
  0
IMAGE
  5
135
100
AcDbEntity
  8
Step_03
 62
256
370
-1
 48
1.0
  6
BYLAYER
100
AcDbRasterImage
 90
0
 10
96.6706647439233535
 20
84.6055324650746456
 30
0.0
 11
-0.0
 21
0.25
 31
0.0
 12
0.25
 22
0.0
 32
0.0
 13
14.0
 23
14.0
340
136
 70
15
280
0
281
50
282
50
283
0
  0
IMAGE
  5
137
100
AcDbEntity
  8
Step_03
 62
256
370
-1
 48
1.0
  6
BYLAYER
100
AcDbRasterImage
 90
0
 10
-0.4800568761319893
 20
68.4315450149399283
 30
0.0
 11
0.0
 21
0.25
 31
0.0
 12
-0.25
 22
0.0
 32
0.0
 13
14.0
 23
14.0
340
138
 70
15
280
0
281
50
282
50
283
0
  0
IMAGE
  5
139
100
AcDbEntity
  8
Step_03
 62
256
370
-1
 48
1.0
  6
BYLAYER
100
AcDbRasterImage
 90
0
 10
96.6706647439233535
 20
68.6055324650746456
 30
0.0
 11
-0.0
 21
0.25
 31
0.0
 12
0.25
 22
0.0
 32
0.0
 13
14.0
 23
14.0
340
13A
 70
15
280
0
281
50
282
50
283
0
  0
IMAGE
  5
13B
100
AcDbEntity
  8
Step_03
 62
256
370
-1
 48
1.0
  6
BYLAYER
100
AcDbRasterImage
 90
0
 10
-0.4800568761319893
 20
52.4315450149399283
 30
0.0
 11
0.0
 21
0.25
 31
0.0
 12
-0.25
 22
0.0
 32
0.0
 13
14.0
 23
14.0
340
13C
 70
15
280
0
281
50
282
50
283
0
  0
IMAGE
  5
13D
100
AcDbEntity
  8
Step_03
 62
256
370
-1
 48
1.0
  6
BYLAYER
100
AcDbRasterImage
 90
0
 10
96.6706647439233535
 20
52.6055324650746456
 30
0.0
 11
-0.0
 21
0.25
 31
0.0
 12
0.25
 22
0.0
 32
0.0
 13
14.0
 23
14.0
340
13E
 70
15
280
0
281
50
282
50
283
0
  0
IMAGE
  5
13F
100
AcDbEntity
  8
Step_03
 62
256
370
-1
 48
1.0
  6
BYLAYER
100
AcDbRasterImage
 90
0
 10
-0.4800568761319893
 20
36.4315450149399283
 30
0.0
 11
0.0
 21
0.25
 31
0.0
 12
-0.25
 22
0.0
 32
0.0
 13
14.0
 23
14.0
340
140
 70
15
280
0
281
50
282
50
283
0
  0
IMAGE
  5
141
100
AcDbEntity
  8
Step_03
 62
256
370
-1
 48
1.0
  6
BYLAYER
100
AcDbRasterImage
 90
0
 10
96.6706647439233535
 20
36.6055324650746456
 30
0.0
 11
-0.0
 21
0.25
 31
0.0
 12
0.25
 22
0.0
 32
0.0
 13
14.0
 23
14.0
340
142
 70
15
280
0
281
50
282
50
283
0
  0
IMAGE
  5
143
100
AcDbEntity
  8
Step_03
 62
256
370
-1
 48
1.0
  6
BYLAYER
100
AcDbRasterImage
 90
0
 10
-0.4800568761319893
 20
20.4315450149399283
 30
0.0
 11
0.0
 21
0.25
 31
0.0
 12
-0.25
 22
0.0
 32
0.0
 13
14.0
 23
14.0
340
144
 70
15
280
0
281
50
282
50
283
0
  0
IMAGE
  5
145
100
AcDbEntity
  8
Step_03
 62
256
370
-1
 48
1.0
  6
BYLAYER
100
AcDbRasterImage
 90
0
 10
96.6706647439233535
 20
20.6055324650746456
 30
0.0
 11
-0.0
 21
0.25
 31
0.0
 12
0.25
 22
0.0
 32
0.0
 13
14.0
 23
14.0
340
146
 70
15
280
0
281
50
282
50
283
0
  0
IMAGE
  5
147
100
AcDbEntity
  8
Step_03
 62
256
370
-1
 48
1.0
  6
BYLAYER
100
AcDbRasterImage
 90
0
 10
-0.4800568761319893
 20
4.4315450149399283
 30
0.0
 11
0.0
 21
0.25
 31
0.0
 12
-0.25
 22
0.0
 32
0.0
 13
14.0
 23
14.0
340
148
 70
15
280
0
281
50
282
50
283
0
  0
IMAGE
  5
149
100
AcDbEntity
  8
Step_03
 62
256
370
-1
 48
1.0
  6
BYLAYER
100
AcDbRasterImage
 90
0
 10
-0.4600037383226013
 20
-9.1974470500257262
 30
0.0
 11
0.0
 21
0.25
 31
0.0
 12
-0.25
 22
0.0
 32
0.0
 13
14.0
 23
14.0
340
14A
 70
15
280
0
281
50
282
50
283
0
  0
IMAGE
  5
14B
100
AcDbEntity
  8
Step_03
 62
256
370
-1
 48
1.0
  6
BYLAYER
100
AcDbRasterImage
 90
0
 10
96.6706647439233535
 20
4.6055324650746456
 30
0.0
 11
-0.0
 21
0.25
 31
0.0
 12
0.25
 22
0.0
 32
0.0
 13
14.0
 23
14.0
340
14C
 70
15
280
0
281
50
282
50
283
0
  0
IMAGE
  5
14D
100
AcDbEntity
  8
Step_03
 62
256
370
-1
 48
1.0
  6
BYLAYER
100
AcDbRasterImage
 90
0
 10
96.6477583236969195
 20
-9.1004378438237978
 30
0.0
 11
0.0
 21
0.25
 31
0.0
 12
0.25
 22
0.0
 32
0.0
 13
14.0
 23
14.0
340
14E
 70
15
280
0
281
50
282
50
283
0
  0
MTEXT
  5
14F
100
AcDbEntity
  8
Step_01
 62
256
370
-1
 48
1.0
  6
BYLAYER
100
AcDbMText
 10
-19.0
 20
144.0
 30
0.0
 40
3.0
 41
0.0
 71
1
 72
1
  1
\H2.50001;x3
  7
textstyle54
 50
0.0
 73
2
 44
1.0
  0
MTEXT
  5
150
100
AcDbEntity
  8
Step_02
 62
256
370
-1
 48
1.0
  6
BYLAYER
100
AcDbMText
 10
-13.7037367870448605
 20
143.0916980782474184
 30
0.0
 40
3.0
 41
0.0
 71
1
 72
1
  1
\H2.50001;x3
  7
textstyle46
 50
0.0
 73
2
 44
1.0
  0
MTEXT
  5
151
100
AcDbEntity
  8
Step_02
 62
256
370
-1
 48
1.0
  6
BYLAYER
100
AcDbMText
 10
-13.4811589334739921
 20
3.7624572790860213
 30
0.0
 40
3.0
 41
0.0
 71
1
 72
1
  1
\H2.50001;x3
  7
textstyle47
 50
0.0
 73
2
 44
1.0
  0
MTEXT
  5
152
100
AcDbEntity
  8
Step_01
 62
256
370
-1
 48
1.0
  6
BYLAYER
100
AcDbMText
 10
-19.0
 20
2.0
 30
0.0
 40
3.0
 41
0.0
 71
1
 72
1
  1
\H2.50001;x3
  7
textstyle48
 50
0.0
 73
2
 44
1.0
  0
MTEXT
  5
153
100
AcDbEntity
  8
Step_03
 62
256
370
-1
 48
1.0
  6
BYLAYER
100
AcDbMText
 10
-18.9999999999999858
 20
128.75
 30
0.0
 40
3.0
 41
0.0
 71
1
 72
1
  1
\H2.50001;x3
  7
textstyle49
 50
0.0
 73
2
 44
1.0
  0
MTEXT
  5
154
100
AcDbEntity
  8
Step_03
 62
256
370
-1
 48
1.0
  6
BYLAYER
100
AcDbMText
 10
-18.9999999999999787
 20
142.75
 30
0.0
 40
3.0
 41
0.0
 71
1
 72
1
  1
\H2.50001;x3
  7
textstyle50
 50
0.0
 73
2
 44
1.0
  0
MTEXT
  5
155
100
AcDbEntity
  8
Step_03
 62
256
370
-1
 48
1.0
  6
BYLAYER
100
AcDbMText
 10
-18.9999999999999787
 20
112.75
 30
0.0
 40
3.0
 41
0.0
 71
1
 72
1
  1
\H2.50001;x3
  7
textstyle51
 50
0.0
 73
2
 44
1.0
  0
MTEXT
  5
156
100
AcDbEntity
  8
Step_03
 62
256
370
-1
 48
1.0
  6
BYLAYER
100
AcDbMText
 10
-18.9999999999999787
 20
96.75
 30
0.0
 40
3.0
 41
0.0
 71
1
 72
1
  1
\H2.50001;x3
  7
textstyle52
 50
0.0
 73
2
 44
1.0
  0
MTEXT
  5
157
100
AcDbEntity
  8
Step_03
 62
256
370
-1
 48
1.0
  6
BYLAYER
100
AcDbMText
 10
-18.9999999999999787
 20
80.75
 30
0.0
 40
3.0
 41
0.0
 71
1
 72
1
  1
\H2.50001;x3
  7
textstyle53
 50
0.0
 73
2
 44
1.0
  0
MTEXT
  5
158
100
AcDbEntity
  8
Step_03
 62
256
370
-1
 48
1.0
  6
BYLAYER
100
AcDbMText
 10
-18.9999999999999787
 20
64.75
 30
0.0
 40
3.0
 41
0.0
 71
1
 72
1
  1
\H2.50001;x3
  7
textstyle63
 50
0.0
 73
2
 44
1.0
  0
MTEXT
  5
159
100
AcDbEntity
  8
Step_03
 62
256
370
-1
 48
1.0
  6
BYLAYER
100
AcDbMText
 10
-18.9999999999999787
 20
48.75
 30
0.0
 40
3.0
 41
0.0
 71
1
 72
1
  1
\H2.50001;x3
  7
textstyle64
 50
0.0
 73
2
 44
1.0
  0
MTEXT
  5
15A
100
AcDbEntity
  8
Step_03
 62
256
370
-1
 48
1.0
  6
BYLAYER
100
AcDbMText
 10
-18.9999999999999787
 20
32.75
 30
0.0
 40
3.0
 41
0.0
 71
1
 72
1
  1
\H2.50001;x3
  7
textstyle65
 50
0.0
 73
2
 44
1.0
  0
MTEXT
  5
15B
100
AcDbEntity
  8
Step_03
 62
256
370
-1
 48
1.0
  6
BYLAYER
100
AcDbMText
 10
-18.9999999999999787
 20
16.75
 30
0.0
 40
3.0
 41
0.0
 71
1
 72
1
  1
\H2.50001;x3
  7
textstyle66
 50
0.0
 73
2
 44
1.0
  0
MTEXT
  5
15C
100
AcDbEntity
  8
Step_03
 62
256
370
-1
 48
1.0
  6
BYLAYER
100
AcDbMText
 10
-18.9799468621905874
 20
3.1210079350343456
 30
0.0
 40
3.0
 41
0.0
 71
1
 72
1
  1
\H2.50001;x3
  7
textstyle67
 50
0.0
 73
2
 44
1.0
  0
MTEXT
  5
15D
100
AcDbEntity
  8
Step_01
 62
256
370
-1
 48
1.0
  6
BYLAYER
100
AcDbMText
 10
112.1901759498466902
 20
2.3555020311477453
 30
0.0
 40
3.0
 41
0.0
 71
1
 72
1
  1
\H2.50001;x3
  7
textstyle68
 50
0.0
 73
2
 44
1.0
  0
MTEXT
  5
15E
100
AcDbEntity
  8
Step_01
 62
256
370
-1
 48
1.0
  6
BYLAYER
100
AcDbMText
 10
112.1901759498466902
 20
144.6209870181691599
 30
0.0
 40
3.0
 41
0.0
 71
1
 72
1
  1
\H2.50001;x3
  7
textstyle69
 50
0.0
 73
2
 44
1.0
  0
MTEXT
  5
15F
100
AcDbEntity
  8
Step_02
 62
256
370
-1
 48
1.0
  6
BYLAYER
100
AcDbMText
 10
106.4154375191507995
 20
143.0916980782474184
 30
0.0
 40
3.0
 41
0.0
 71
1
 72
1
  1
\H2.50001;x3
  7
textstyle70
 50
0.0
 73
2
 44
1.0
  0
MTEXT
  5
160
100
AcDbEntity
  8
Step_02
 62
256
370
-1
 48
1.0
  6
BYLAYER
100
AcDbMText
 10
106.638015372721668
 20
3.7624572790860498
 30
0.0
 40
3.0
 41
0.0
 71
1
 72
1
  1
\H2.50001;x3
  7
textstyle55
 50
0.0
 73
2
 44
1.0
  0
MTEXT
  5
161
100
AcDbEntity
  8
Step_03
 62
256
370
-1
 48
1.0
  6
BYLAYER
100
AcDbMText
 10
112.1901759498466902
 20
129.4465383606779483
 30
0.0
 40
3.0
 41
0.0
 71
1
 72
1
  1
\H2.50001;x3
  7
textstyle56
 50
0.0
 73
2
 44
1.0
  0
MTEXT
  5
162
100
AcDbEntity
  8
Step_03
 62
256
370
-1
 48
1.0
  6
BYLAYER
100
AcDbMText
 10
112.2016587716427267
 20
143.0482834961017033
 30
0.0
 40
3.0
 41
0.0
 71
1
 72
1
  1
\H2.50001;x3
  7
textstyle57
 50
0.0
 73
2
 44
1.0
  0
MTEXT
  5
163
100
AcDbEntity
  8
Step_03
 62
256
370
-1
 48
1.0
  6
BYLAYER
100
AcDbMText
 10
112.190175949846676
 20
113.4465383606779483
 30
0.0
 40
3.0
 41
0.0
 71
1
 72
1
  1
\H2.50001;x3
  7
textstyle58
 50
0.0
 73
2
 44
1.0
  0
MTEXT
  5
164
100
AcDbEntity
  8
Step_03
 62
256
370
-1
 48
1.0
  6
BYLAYER
100
AcDbMText
 10
112.190175949846676
 20
97.4465383606779483
 30
0.0
 40
3.0
 41
0.0
 71
1
 72
1
  1
\H2.50001;x3
  7
textstyle59
 50
0.0
 73
2
 44
1.0
  0
MTEXT
  5
165
100
AcDbEntity
  8
Step_03
 62
256
370
-1
 48
1.0
  6
BYLAYER
100
AcDbMText
 10
112.190175949846676
 20
81.4465383606779483
 30
0.0
 40
3.0
 41
0.0
 71
1
 72
1
  1
\H2.50001;x3
  7
textstyle60
 50
0.0
 73
2
 44
1.0
  0
MTEXT
  5
166
100
AcDbEntity
  8
Step_03
 62
256
370
-1
 48
1.0
  6
BYLAYER
100
AcDbMText
 10
112.190175949846676
 20
65.4465383606779483
 30
0.0
 40
3.0
 41
0.0
 71
1
 72
1
  1
\H2.50001;x3
  7
textstyle61
 50
0.0
 73
2
 44
1.0
  0
MTEXT
  5
167
100
AcDbEntity
  8
Step_03
 62
256
370
-1
 48
1.0
  6
BYLAYER
100
AcDbMText
 10
112.190175949846676
 20
49.4465383606779483
 30
0.0
 40
3.0
 41
0.0
 71
1
 72
1
  1
\H2.50001;x3
  7
textstyle62
 50
0.0
 73
2
 44
1.0
  0
MTEXT
  5
168
100
AcDbEntity
  8
Step_03
 62
256
370
-1
 48
1.0
  6
BYLAYER
100
AcDbMText
 10
112.190175949846676
 20
33.4465383606779483
 30
0.0
 40
3.0
 41
0.0
 71
1
 72
1
  1
\H2.50001;x3
  7
textstyle75
 50
0.0
 73
2
 44
1.0
  0
MTEXT
  5
169
100
AcDbEntity
  8
Step_03
 62
256
370
-1
 48
1.0
  6
BYLAYER
100
AcDbMText
 10
112.190175949846676
 20
17.4465383606779483
 30
0.0
 40
3.0
 41
0.0
 71
1
 72
1
  1
\H2.50001;x3
  7
textstyle76
 50
0.0
 73
2
 44
1.0
  0
MTEXT
  5
16A
100
AcDbEntity
  8
Step_03
 62
256
370
-1
 48
1.0
  6
BYLAYER
100
AcDbMText
 10
112.167269529620242
 20
3.7405680517793556
 30
0.0
 40
3.0
 41
0.0
 71
1
 72
1
  1
\H2.50001;x3
  7
textstyle77
 50
0.0
 73
2
 44
1.0
  0
HATCH
  5
16B
100
AcDbEntity
  8
Step_02
 62
256
370
-1
 48
1.0
  6
BYLAYER
100
AcDbHatch
 10
0.0
 20
0.0
 30
0.0
210
0.0
220
0.0
230
1.0
  2
SOLID
 70
1
 71
0
 91
1
 92
1
 93
4
 72
1
 10
94.5
 20
141.0
 11
94.5
 21
142.5
 72
1
 10
94.5
 20
142.5
 11
1.5
 21
142.5
 72
1
 10
1.5
 20
142.5
 11
1.5
 21
141.0
 72
1
 10
1.5
 20
141.0
 11
94.5
 21
141.0
 97
0
 75
0
 76
1
 98
0
1001
ACAD
1010
0.0
1020
0.0
1030
0
  0
HATCH
  5
16C
100
AcDbEntity
  8
Step_02
 62
256
370
-1
 48
1.0
  6
BYLAYER
100
AcDbHatch
 10
0.0
 20
0.0
 30
0.0
210
0.0
220
0.0
230
1.0
  2
SOLID
 70
1
 71
0
 91
1
 92
1
 93
4
 72
1
 10
94.5
 20
1.5
 11
94.5
 21
3.0
 72
1
 10
94.5
 20
3.0
 11
1.5
 21
3.0
 72
1
 10
1.5
 20
3.0
 11
1.5
 21
1.5
 72
1
 10
1.5
 20
1.5
 11
94.5
 21
1.5
 97
0
 75
0
 76
1
 98
0
1001
ACAD
1010
0.0
1020
0.0
1030
0
  0
HATCH
  5
16D
100
AcDbEntity
  8
Step_03
 62
252
420
10526884
370
-1
 48
1.0
  6
BYLAYER
100
AcDbHatch
 10
0.0
 20
0.0
 30
0.0
210
0.0
220
0.0
230
1.0
  2
SOLID
 70
1
 71
0
 91
1
 92
1
 93
4
 72
1
 10
94.5
 20
141.0
 11
94.5
 21
142.5
 72
1
 10
94.5
 20
142.5
 11
1.5
 21
142.5
 72
1
 10
1.5
 20
142.5
 11
1.5
 21
141.0
 72
1
 10
1.5
 20
141.0
 11
94.5
 21
141.0
 97
0
 75
0
 76
1
 98
0
1001
ACAD
1010
0.0
1020
0.0
1030
0
  0
HATCH
  5
16E
100
AcDbEntity
  8
Step_03
 62
252
420
10526884
370
-1
 48
1.0
  6
BYLAYER
100
AcDbHatch
 10
0.0
 20
0.0
 30
0.0
210
0.0
220
0.0
230
1.0
  2
SOLID
 70
1
 71
0
 91
1
 92
1
 93
4
 72
1
 10
94.5
 20
1.5
 11
94.5
 21
3.0
 72
1
 10
94.5
 20
3.0
 11
1.5
 21
3.0
 72
1
 10
1.5
 20
3.0
 11
1.5
 21
1.5
 72
1
 10
1.5
 20
1.5
 11
94.5
 21
1.5
 97
0
 75
0
 76
1
 98
0
1001
ACAD
1010
0.0
1020
0.0
1030
0
  0
LEADER
  5
16F
100
AcDbEntity
  8
Step_02
 62
256
370
-1
 48
1.0
  6
BYLAYER
100
AcDbLeader
  3
Standard
 71
1
 72
0
 73
3
 74
0
 75
0
 40
1.0
 41
10.0
 76
2
 10
21.0
 20
0.0
 10
21.0
 20
-6.0
1001
ACAD
1000
DSTYLE
1002
{
1070
40
1040
1.0
1002
}
  0
LEADER
  5
170
100
AcDbEntity
  8
Step_02
 62
256
370
-1
 48
1.0
  6
BYLAYER
100
AcDbLeader
  3
Standard
 71
1
 72
0
 73
3
 74
0
 75
0
 40
1.0
 41
10.0
 76
2
 10
79.0
 20
0.0
 10
79.0
 20
-6.0
1001
ACAD
1000
DSTYLE
1002
{
1070
40
1040
1.0
1002
}
  0
LEADER
  5
171
100
AcDbEntity
  8
Step_02
 62
256
370
-1
 48
1.0
  6
BYLAYER
100
AcDbLeader
  3
Standard
 71
1
 72
0
 73
3
 74
0
 75
0
 40
1.0
 41
10.0
 76
2
 10
21.0
 20
144.0
 10
21.0
 20
150.0
1001
ACAD
1000
DSTYLE
1002
{
1070
40
1040
1.0
1002
}
  0
LEADER
  5
172
100
AcDbEntity
  8
Step_02
 62
256
370
-1
 48
1.0
  6
BYLAYER
100
AcDbLeader
  3
Standard
 71
1
 72
0
 73
3
 74
0
 75
0
 40
1.0
 41
10.0
 76
2
 10
78.9999999999999716
 20
143.9999999999999147
 10
78.9999999999999716
 20
149.9999999999999147
1001
ACAD
1000
DSTYLE
1002
{
1070
40
1040
1.0
1002
}
  0
MTEXT
  5
173
100
AcDbEntity
  8
Step_02
 62
256
370
-1
 48
1.0
  6
BYLAYER
100
AcDbMText
 10
25.2823992415493422
 20
136.0
 30
0.0
 40
3.0
 41
0.0
 71
1
 72
1
  1
CLAMP
  7
textstyle71
 50
0.0
 73
2
 44
1.0
  0
MTEXT
  5
174
100
AcDbEntity
  8
Step_02
 62
256
370
-1
 48
1.0
  6
BYLAYER
100
AcDbMText
 10
60.4879556610711191
 20
136.0
 30
0.0
 40
3.0
 41
0.0
 71
1
 72
1
  1
CLAMP
  7
textstyle72
 50
0.0
 73
2
 44
1.0
  0
MTEXT
  5
175
100
AcDbEntity
  8
Step_02
 62
256
370
-1
 48
1.0
  6
BYLAYER
100
AcDbMText
 10
26.5433553189733544
 20
10.0
 30
0.0
 40
3.0
 41
0.0
 71
1
 72
1
  1
CLAMP
  7
textstyle73
 50
0.0
 73
2
 44
1.0
  0
MTEXT
  5
176
100
AcDbEntity
  8
Step_02
 62
256
370
-1
 48
1.0
  6
BYLAYER
100
AcDbMText
 10
59.3435230087206733
 20
10.0
 30
0.0
 40
3.0
 41
0.0
 71
1
 72
1
  1
CLAMP
  7
textstyle74
 50
0.0
 73
2
 44
1.0
  0
MTEXT
  5
177
100
AcDbEntity
  8
Step_01
 62
256
370
-1
 48
1.0
  6
BYLAYER
100
AcDbMText
 10
42.8844196262379782
 20
-12.3319094625127672
 30
0.0
 40
3.0
 41
0.0
 71
1
 72
1
  1
\H2.50001;Step\H3; 1
  7
textstyle81
 50
0.0
 73
2
 44
1.0
  0
MTEXT
  5
178
100
AcDbEntity
  8
Step_02
 62
256
370
-1
 48
1.0
  6
BYLAYER
100
AcDbMText
 10
42.8844196262379782
 20
-12.3319094625127672
 30
0.0
 40
3.0
 41
0.0
 71
1
 72
1
  1
\H2.50001;Step\H3; 2
  7
textstyle82
 50
0.0
 73
2
 44
1.0
  0
MTEXT
  5
179
100
AcDbEntity
  8
Step_03
 62
256
370
-1
 48
1.0
  6
BYLAYER
100
AcDbMText
 10
42.8844196262379782
 20
-12.3319094625127672
 30
0.0
 40
3.0
 41
0.0
 71
1
 72
1
  1
\H2.50001;Step\H3; 3
  7
textstyle83
 50
0.0
 73
2
 44
1.0
  0
MTEXT
  5
17A
100
AcDbEntity
  8
Step_04-overlay
 62
256
370
-1
 48
1.0
  6
BYLAYER
100
AcDbMText
 10
42.4705847991693162
 20
-11.6299977876450118
 30
0.0
 40
3.0
 41
0.0
 71
1
 72
1
  1
\H2.50001;Step\H3; 4
  7
textstyle84
 50
0.0
 73
2
 44
1.0
  0
MTEXT
  5
17B
100
AcDbEntity
  8
Step_05
 62
256
370
-1
 48
1.0
  6
BYLAYER
100
AcDbMText
 10
42.4705847991693162
 20
-11.6299977876450118
 30
0.0
 40
3.0
 41
0.0
 71
1
 72
1
  1
\H2.50001;Step\H3; 5
  7
textstyle85
 50
0.0
 73
2
 44
1.0
  0
MTEXT
  5
17C
100
AcDbEntity
  8
Step_06
 62
256
370
-1
 48
1.0
  6
BYLAYER
100
AcDbMText
 10
42.4705847991693162
 20
-11.6299977876450118
 30
0.0
 40
3.0
 41
0.0
 71
1
 72
1
  1
\H2.50001;Step\H3; 6
  7
textstyle86
 50
0.0
 73
2
 44
1.0
  0
MTEXT
  5
17D
100
AcDbEntity
  8
Step_07
 62
256
370
-1
 48
1.0
  6
BYLAYER
100
AcDbMText
 10
42.4705847991693162
 20
-11.6299977876450118
 30
0.0
 40
3.0
 41
0.0
 71
1
 72
1
  1
\H2.50001;Step\H3; 7
  7
textstyle87
 50
0.0
 73
2
 44
1.0
  0
MTEXT
  5
17E
100
AcDbEntity
  8
Step_08
 62
256
370
-1
 48
1.0
  6
BYLAYER
100
AcDbMText
 10
42.4705847991693162
 20
-11.6299977876450118
 30
0.0
 40
3.0
 41
0.0
 71
1
 72
1
  1
\H2.50001;Step\H3; 8
  7
textstyle88
 50
0.0
 73
2
 44
1.0
  0
MTEXT
  5
17F
100
AcDbEntity
  8
Step_09
 62
256
370
-1
 48
1.0
  6
BYLAYER
100
AcDbMText
 10
42.4705847991693162
 20
-11.6299977876450118
 30
0.0
 40
3.0
 41
0.0
 71
1
 72
1
  1
\H2.50001;Step\H3; 9
  7
textstyle78
 50
0.0
 73
2
 44
1.0
  0
MTEXT
  5
180
100
AcDbEntity
  8
Step_10
 62
256
370
-1
 48
1.0
  6
BYLAYER
100
AcDbMText
 10
42.4705847991693162
 20
-11.6299977876450118
 30
0.0
 40
3.0
 41
0.0
 71
1
 72
1
  1
\H2.50001;Step\H3; 10
  7
textstyle79
 50
0.0
 73
2
 44
1.0
  0
MTEXT
  5
181
100
AcDbEntity
  8
Step_11
 62
256
370
-1
 48
1.0
  6
BYLAYER
100
AcDbMText
 10
42.4705847991693091
 20
-11.62999778764501
 30
0.0
 40
3.0
 41
0.0
 71
1
 72
1
  1
\H2.50001;Step\H3; 11
  7
textstyle80
 50
0.0
 73
2
 44
1.0
  0
LINE
  5
182
100
AcDbEntity
  8
Jig-Framing
 62
256
370
-1
 48
1.0
  6
BYLAYER
100
AcDbLine
 10
0.0
 20
0.0
 30
0.0
 11
0.0
 21
144.0
 31
0.0
  0
LINE
  5
183
100
AcDbEntity
  8
Jig-Framing
 62
256
370
-1
 48
1.0
  6
BYLAYER
100
AcDbLine
 10
0.0
 20
144.0
 30
0.0
 11
1.5
 21
144.0
 31
0.0
  0
LINE
  5
184
100
AcDbEntity
  8
Jig-Framing
 62
256
370
-1
 48
1.0
  6
BYLAYER
100
AcDbLine
 10
1.5
 20
144.0
 30
0.0
 11
1.5
 21
0.0
 31
0.0
  0
LINE
  5
185
100
AcDbEntity
  8
Jig-Framing
 62
256
370
-1
 48
1.0
  6
BYLAYER
100
AcDbLine
 10
1.5
 20
0.0
 30
0.0
 11
0.0
 21
0.0
 31
0.0
  0
LINE
  5
186
100
AcDbEntity
  8
Jig-Framing
 62
256
370
-1
 48
1.0
  6
BYLAYER
100
AcDbLine
 10
0.0
 20
0.0
 30
0.0
 11
0.0
 21
144.0
 31
0.0
  0
LINE
  5
187
100
AcDbEntity
  8
Jig-Framing
 62
256
370
-1
 48
1.0
  6
BYLAYER
100
AcDbLine
 10
94.5
 20
0.0
 30
0.0
 11
94.5
 21
144.0
 31
0.0
  0
LINE
  5
188
100
AcDbEntity
  8
Jig-Framing
 62
256
370
-1
 48
1.0
  6
BYLAYER
100
AcDbLine
 10
94.5
 20
144.0
 30
0.0
 11
96.0
 21
144.0
 31
0.0
  0
LINE
  5
189
100
AcDbEntity
  8
Jig-Framing
 62
256
370
-1
 48
1.0
  6
BYLAYER
100
AcDbLine
 10
96.0
 20
144.0
 30
0.0
 11
96.0
 21
0.0
 31
0.0
  0
LINE
  5
18A
100
AcDbEntity
  8
Jig-Framing
 62
256
370
-1
 48
1.0
  6
BYLAYER
100
AcDbLine
 10
96.0
 20
0.0
 30
0.0
 11
94.5
 21
0.0
 31
0.0
  0
LINE
  5
18B
100
AcDbEntity
  8
Jig-Framing
 62
256
370
-1
 48
1.0
  6
BYLAYER
100
AcDbLine
 10
1.5
 20
0.0
 30
0.0
 11
94.5
 21
0.0
 31
0.0
  0
LINE
  5
18C
100
AcDbEntity
  8
Jig-Framing
 62
256
370
-1
 48
1.0
  6
BYLAYER
100
AcDbLine
 10
94.5
 20
0.0
 30
0.0
 11
94.5
 21
1.5
 31
0.0
  0
LINE
  5
18D
100
AcDbEntity
  8
Jig-Framing
 62
256
370
-1
 48
1.0
  6
BYLAYER
100
AcDbLine
 10
94.5
 20
1.5
 30
0.0
 11
1.5
 21
1.5
 31
0.0
  0
LINE
  5
18E
100
AcDbEntity
  8
Jig-Framing
 62
256
370
-1
 48
1.0
  6
BYLAYER
100
AcDbLine
 10
1.5
 20
1.5
 30
0.0
 11
1.5
 21
0.0
 31
0.0
  0
LINE
  5
18F
100
AcDbEntity
  8
Jig-Framing
 62
256
370
-1
 48
1.0
  6
BYLAYER
100
AcDbLine
 10
1.5
 20
1.5
 30
0.0
 11
94.5
 21
1.5
 31
0.0
  0
LINE
  5
190
100
AcDbEntity
  8
Jig-Framing
 62
256
370
-1
 48
1.0
  6
BYLAYER
100
AcDbLine
 10
94.5
 20
1.5
 30
0.0
 11
94.5
 21
3.0
 31
0.0
  0
LINE
  5
191
100
AcDbEntity
  8
Jig-Framing
 62
256
370
-1
 48
1.0
  6
BYLAYER
100
AcDbLine
 10
94.5
 20
3.0
 30
0.0
 11
1.5
 21
3.0
 31
0.0
  0
LINE
  5
192
100
AcDbEntity
  8
Jig-Framing
 62
256
370
-1
 48
1.0
  6
BYLAYER
100
AcDbLine
 10
1.5
 20
3.0
 30
0.0
 11
1.5
 21
1.5
 31
0.0
  0
LINE
  5
193
100
AcDbEntity
  8
Jig-Framing
 62
256
370
-1
 48
1.0
  6
BYLAYER
100
AcDbLine
 10
1.5
 20
15.25
 30
0.0
 11
94.5
 21
15.25
 31
0.0
  0
LINE
  5
194
100
AcDbEntity
  8
Jig-Framing
 62
256
370
-1
 48
1.0
  6
BYLAYER
100
AcDbLine
 10
94.5
 20
15.25
 30
0.0
 11
94.5
 21
16.75
 31
0.0
  0
LINE
  5
195
100
AcDbEntity
  8
Jig-Framing
 62
256
370
-1
 48
1.0
  6
BYLAYER
100
AcDbLine
 10
94.5
 20
16.75
 30
0.0
 11
1.5
 21
16.75
 31
0.0
  0
LINE
  5
196
100
AcDbEntity
  8
Jig-Framing
 62
256
370
-1
 48
1.0
  6
BYLAYER
100
AcDbLine
 10
1.5
 20
16.75
 30
0.0
 11
1.5
 21
15.25
 31
0.0
  0
LINE
  5
197
100
AcDbEntity
  8
Jig-Framing
 62
256
370
-1
 48
1.0
  6
BYLAYER
100
AcDbLine
 10
1.5
 20
31.25
 30
0.0
 11
94.5
 21
31.25
 31
0.0
  0
LINE
  5
198
100
AcDbEntity
  8
Jig-Framing
 62
256
370
-1
 48
1.0
  6
BYLAYER
100
AcDbLine
 10
94.5
 20
31.25
 30
0.0
 11
94.5
 21
32.75
 31
0.0
  0
LINE
  5
199
100
AcDbEntity
  8
Jig-Framing
 62
256
370
-1
 48
1.0
  6
BYLAYER
100
AcDbLine
 10
94.5
 20
32.75
 30
0.0
 11
1.5
 21
32.75
 31
0.0
  0
LINE
  5
19A
100
AcDbEntity
  8
Jig-Framing
 62
256
370
-1
 48
1.0
  6
BYLAYER
100
AcDbLine
 10
1.5
 20
32.75
 30
0.0
 11
1.5
 21
31.25
 31
0.0
  0
LINE
  5
19B
100
AcDbEntity
  8
Jig-Framing
 62
256
370
-1
 48
1.0
  6
BYLAYER
100
AcDbLine
 10
1.5
 20
47.25
 30
0.0
 11
94.5
 21
47.25
 31
0.0
  0
LINE
  5
19C
100
AcDbEntity
  8
Jig-Framing
 62
256
370
-1
 48
1.0
  6
BYLAYER
100
AcDbLine
 10
94.5
 20
47.25
 30
0.0
 11
94.5
 21
48.75
 31
0.0
  0
LINE
  5
19D
100
AcDbEntity
  8
Jig-Framing
 62
256
370
-1
 48
1.0
  6
BYLAYER
100
AcDbLine
 10
94.5
 20
48.75
 30
0.0
 11
1.5
 21
48.75
 31
0.0
  0
LINE
  5
19E
100
AcDbEntity
  8
Jig-Framing
 62
256
370
-1
 48
1.0
  6
BYLAYER
100
AcDbLine
 10
1.5
 20
48.75
 30
0.0
 11
1.5
 21
47.25
 31
0.0
  0
LINE
  5
19F
100
AcDbEntity
  8
Jig-Framing
 62
256
370
-1
 48
1.0
  6
BYLAYER
100
AcDbLine
 10
1.5
 20
63.25
 30
0.0
 11
94.5
 21
63.25
 31
0.0
  0
LINE
  5
1A0
100
AcDbEntity
  8
Jig-Framing
 62
256
370
-1
 48
1.0
  6
BYLAYER
100
AcDbLine
 10
94.5
 20
63.25
 30
0.0
 11
94.5
 21
64.75
 31
0.0
  0
LINE
  5
1A1
100
AcDbEntity
  8
Jig-Framing
 62
256
370
-1
 48
1.0
  6
BYLAYER
100
AcDbLine
 10
94.5
 20
64.75
 30
0.0
 11
1.5
 21
64.75
 31
0.0
  0
LINE
  5
1A2
100
AcDbEntity
  8
Step_08
 62
256
370
-1
 48
1.0
  6
BYLAYER
100
AcDbLine
 10
94.5
 20
112.75
 30
0.0
 11
1.5
 21
112.75
 31
0.0
  0
LINE
  5
1A3
100
AcDbEntity
  8
Step_08
 62
256
370
-1
 48
1.0
  6
BYLAYER
100
AcDbLine
 10
94.5
 20
96.75
 30
0.0
 11
1.5
 21
96.75
 31
0.0
  0
LINE
  5
1A4
100
AcDbEntity
  8
Step_08
 62
256
370
-1
 48
1.0
  6
BYLAYER
100
AcDbLine
 10
94.5
 20
80.75
 30
0.0
 11
1.5
 21
80.75
 31
0.0
  0
LINE
  5
1A5
100
AcDbEntity
  8
Step_08
 62
256
370
-1
 48
1.0
  6
BYLAYER
100
AcDbLine
 10
94.5
 20
64.75
 30
0.0
 11
1.5
 21
64.75
 31
0.0
  0
LINE
  5
1A6
100
AcDbEntity
  8
Step_08
 62
256
370
-1
 48
1.0
  6
BYLAYER
100
AcDbLine
 10
94.5
 20
48.75
 30
0.0
 11
1.5
 21
48.75
 31
0.0
  0
LINE
  5
1A7
100
AcDbEntity
  8
Step_08
 62
256
370
-1
 48
1.0
  6
BYLAYER
100
AcDbLine
 10
94.5
 20
32.75
 30
0.0
 11
1.5
 21
32.75
 31
0.0
  0
LINE
  5
1A8
100
AcDbEntity
  8
Step_08
 62
256
370
-1
 48
1.0
  6
BYLAYER
100
AcDbLine
 10
94.5
 20
16.75
 30
0.0
 11
1.5
 21
16.75
 31
0.0
  0
LINE
  5
1A9
100
AcDbEntity
  8
Step_08
 62
256
370
-1
 48
1.0
  6
BYLAYER
100
AcDbLine
 10
94.5
 20
128.75
 30
0.0
 11
1.5000000000000033
 21
128.75
 31
0.0
  0
LINE
  5
1AA
100
AcDbEntity
  8
Step_08
 62
256
370
-1
 48
1.0
  6
BYLAYER
100
AcDbLine
 10
94.5
 20
3.0
 30
0.0
 11
1.5000000000000033
 21
3.0
 31
0.0
  0
LINE
  5
1AB
100
AcDbEntity
  8
Jig-Framing
 62
256
370
-1
 48
1.0
  6
BYLAYER
100
AcDbLine
 10
1.5
 20
64.75
 30
0.0
 11
1.5
 21
63.25
 31
0.0
  0
LINE
  5
1AC
100
AcDbEntity
  8
Jig-Framing
 62
256
370
-1
 48
1.0
  6
BYLAYER
100
AcDbLine
 10
1.5
 20
79.25
 30
0.0
 11
94.5
 21
79.25
 31
0.0
  0
LINE
  5
1AD
100
AcDbEntity
  8
Step_08
 62
256
370
-1
 48
1.0
  6
BYLAYER
100
AcDbLine
 10
1.5
 20
127.25
 30
0.0
 11
94.5
 21
127.25
 31
0.0
  0
LINE
  5
1AE
100
AcDbEntity
  8
Step_08
 62
256
370
-1
 48
1.0
  6
BYLAYER
100
AcDbLine
 10
1.5
 20
111.25
 30
0.0
 11
94.5
 21
111.25
 31
0.0
  0
LINE
  5
1AF
100
AcDbEntity
  8
Step_08
 62
256
370
-1
 48
1.0
  6
BYLAYER
100
AcDbLine
 10
1.5
 20
95.25
 30
0.0
 11
94.5
 21
95.25
 31
0.0
  0
LINE
  5
1B0
100
AcDbEntity
  8
Step_08
 62
256
370
-1
 48
1.0
  6
BYLAYER
100
AcDbLine
 10
1.5
 20
79.25
 30
0.0
 11
94.5
 21
79.25
 31
0.0
  0
LINE
  5
1B1
100
AcDbEntity
  8
Step_08
 62
256
370
-1
 48
1.0
  6
BYLAYER
100
AcDbLine
 10
1.5
 20
63.25
 30
0.0
 11
94.5
 21
63.25
 31
0.0
  0
LINE
  5
1B2
100
AcDbEntity
  8
Step_08
 62
256
370
-1
 48
1.0
  6
BYLAYER
100
AcDbLine
 10
1.5
 20
47.25
 30
0.0
 11
94.5
 21
47.25
 31
0.0
  0
LINE
  5
1B3
100
AcDbEntity
  8
Step_08
 62
256
370
-1
 48
1.0
  6
BYLAYER
100
AcDbLine
 10
1.5
 20
31.25
 30
0.0
 11
94.5
 21
31.25
 31
0.0
  0
LINE
  5
1B4
100
AcDbEntity
  8
Step_08
 62
256
370
-1
 48
1.0
  6
BYLAYER
100
AcDbLine
 10
1.500000000000004
 20
141.0
 30
0.0
 11
94.5
 21
141.0
 31
0.0
  0
LINE
  5
1B5
100
AcDbEntity
  8
Step_08
 62
256
370
-1
 48
1.0
  6
BYLAYER
100
AcDbLine
 10
1.500000000000004
 20
15.25
 30
0.0
 11
94.5
 21
15.25
 31
0.0
  0
LINE
  5
1B6
100
AcDbEntity
  8
Jig-Framing
 62
256
370
-1
 48
1.0
  6
BYLAYER
100
AcDbLine
 10
94.5
 20
79.25
 30
0.0
 11
94.5
 21
80.75
 31
0.0
  0
LINE
  5
1B7
100
AcDbEntity
  8
Jig-Framing
 62
256
370
-1
 48
1.0
  6
BYLAYER
100
AcDbLine
 10
94.5
 20
80.75
 30
0.0
 11
1.5
 21
80.75
 31
0.0
  0
LINE
  5
1B8
100
AcDbEntity
  8
Jig-Framing
 62
256
370
-1
 48
1.0
  6
BYLAYER
100
AcDbLine
 10
1.5
 20
80.75
 30
0.0
 11
1.5
 21
79.25
 31
0.0
  0
LINE
  5
1B9
100
AcDbEntity
  8
Jig-Framing
 62
256
370
-1
 48
1.0
  6
BYLAYER
100
AcDbLine
 10
1.5
 20
95.25
 30
0.0
 11
94.5
 21
95.25
 31
0.0
  0
LINE
  5
1BA
100
AcDbEntity
  8
Jig-Framing
 62
256
370
-1
 48
1.0
  6
BYLAYER
100
AcDbLine
 10
94.5
 20
95.25
 30
0.0
 11
94.5
 21
96.75
 31
0.0
  0
LINE
  5
1BB
100
AcDbEntity
  8
Jig-Framing
 62
256
370
-1
 48
1.0
  6
BYLAYER
100
AcDbLine
 10
94.5
 20
96.75
 30
0.0
 11
1.5
 21
96.75
 31
0.0
  0
LINE
  5
1BC
100
AcDbEntity
  8
Jig-Framing
 62
256
370
-1
 48
1.0
  6
BYLAYER
100
AcDbLine
 10
1.5
 20
96.75
 30
0.0
 11
1.5
 21
95.25
 31
0.0
  0
LINE
  5
1BD
100
AcDbEntity
  8
Jig-Framing
 62
256
370
-1
 48
1.0
  6
BYLAYER
100
AcDbLine
 10
1.5
 20
111.25
 30
0.0
 11
94.5
 21
111.25
 31
0.0
  0
LINE
  5
1BE
100
AcDbEntity
  8
Jig-Framing
 62
256
370
-1
 48
1.0
  6
BYLAYER
100
AcDbLine
 10
94.5
 20
111.25
 30
0.0
 11
94.5
 21
112.75
 31
0.0
  0
LINE
  5
1BF
100
AcDbEntity
  8
Jig-Framing
 62
256
370
-1
 48
1.0
  6
BYLAYER
100
AcDbLine
 10
94.5
 20
112.75
 30
0.0
 11
1.5
 21
112.75
 31
0.0
  0
LINE
  5
1C0
100
AcDbEntity
  8
Jig-Framing
 62
256
370
-1
 48
1.0
  6
BYLAYER
100
AcDbLine
 10
1.5
 20
112.75
 30
0.0
 11
1.5
 21
111.25
 31
0.0
  0
LINE
  5
1C1
100
AcDbEntity
  8
Jig-Framing
 62
256
370
-1
 48
1.0
  6
BYLAYER
100
AcDbLine
 10
1.5
 20
127.25
 30
0.0
 11
94.5
 21
127.25
 31
0.0
  0
LINE
  5
1C2
100
AcDbEntity
  8
Jig-Framing
 62
256
370
-1
 48
1.0
  6
BYLAYER
100
AcDbLine
 10
94.5
 20
127.25
 30
0.0
 11
94.5
 21
128.75
 31
0.0
  0
LINE
  5
1C3
100
AcDbEntity
  8
Jig-Framing
 62
256
370
-1
 48
1.0
  6
BYLAYER
100
AcDbLine
 10
94.5
 20
128.75
 30
0.0
 11
1.5
 21
128.75
 31
0.0
  0
LINE
  5
1C4
100
AcDbEntity
  8
Jig-Framing
 62
256
370
-1
 48
1.0
  6
BYLAYER
100
AcDbLine
 10
1.5
 20
128.75
 30
0.0
 11
1.5
 21
127.25
 31
0.0
  0
LINE
  5
1C5
100
AcDbEntity
  8
Jig-Framing
 62
256
370
-1
 48
1.0
  6
BYLAYER
100
AcDbLine
 10
1.5
 20
142.5
 30
0.0
 11
94.5
 21
142.5
 31
0.0
  0
LINE
  5
1C6
100
AcDbEntity
  8
Jig-Framing
 62
256
370
-1
 48
1.0
  6
BYLAYER
100
AcDbLine
 10
94.5
 20
142.5
 30
0.0
 11
94.5
 21
144.0
 31
0.0
  0
LINE
  5
1C7
100
AcDbEntity
  8
Jig-Framing
 62
256
370
-1
 48
1.0
  6
BYLAYER
100
AcDbLine
 10
94.5
 20
144.0
 30
0.0
 11
1.5
 21
144.0
 31
0.0
  0
LINE
  5
1C8
100
AcDbEntity
  8
Jig-Framing
 62
256
370
-1
 48
1.0
  6
BYLAYER
100
AcDbLine
 10
1.5
 20
144.0
 30
0.0
 11
1.5
 21
142.5
 31
0.0
  0
LINE
  5
1C9
100
AcDbEntity
  8
Jig-Framing
 62
256
370
-1
 48
1.0
  6
BYLAYER
100
AcDbLine
 10
1.5
 20
141.0
 30
0.0
 11
94.5
 21
141.0
 31
0.0
  0
LINE
  5
1CA
100
AcDbEntity
  8
Jig-Framing
 62
256
370
-1
 48
1.0
  6
BYLAYER
100
AcDbLine
 10
94.5
 20
141.0
 30
0.0
 11
94.5
 21
142.5
 31
0.0
  0
LINE
  5
1CB
100
AcDbEntity
  8
Jig-Framing
 62
256
370
-1
 48
1.0
  6
BYLAYER
100
AcDbLine
 10
94.5
 20
142.5
 30
0.0
 11
1.5
 21
142.5
 31
0.0
  0
LINE
  5
1CC
100
AcDbEntity
  8
Jig-Framing
 62
256
370
-1
 48
1.0
  6
BYLAYER
100
AcDbLine
 10
1.5
 20
142.5
 30
0.0
 11
1.5
 21
141.0
 31
0.0
  0
IMAGE
  5
1CD
100
AcDbEntity
  8
Step_02
 62
256
370
-1
 48
1.0
  6
BYLAYER
100
AcDbRasterImage
 90
0
 10
99.72966237096702
 20
127.963604553397488
 30
0.0
 11
0.15
 21
0.0
 31
0.0
 12
0.0
 22
0.15
 32
0.0
 13
7.0
 23
7.0
340
1CE
 70
15
280
0
281
50
282
50
283
0
  0
IMAGE
  5
1CF
100
AcDbEntity
  8
Step_02
 62
256
370
-1
 48
1.0
  6
BYLAYER
100
AcDbRasterImage
 90
0
 10
-3.5
 20
127.9636045533975164
 30
0.0
 11
-0.15
 21
0.0
 31
0.0
 12
0.0
 22
0.15
 32
0.0
 13
7.0
 23
7.0
340
1D0
 70
15
280
0
281
50
282
50
283
0
  0
IMAGE
  5
1D1
100
AcDbEntity
  8
Step_02
 62
256
370
-1
 48
1.0
  6
BYLAYER
100
AcDbRasterImage
 90
0
 10
99.72966237096702
 20
111.963604553397488
 30
0.0
 11
0.15
 21
0.0
 31
0.0
 12
0.0
 22
0.15
 32
0.0
 13
7.0
 23
7.0
340
1D2
 70
15
280
0
281
50
282
50
283
0
  0
IMAGE
  5
1D3
100
AcDbEntity
  8
Step_02
 62
256
370
-1
 48
1.0
  6
BYLAYER
100
AcDbRasterImage
 90
0
 10
99.72966237096702
 20
95.963604553397488
 30
0.0
 11
0.15
 21
0.0
 31
0.0
 12
0.0
 22
0.15
 32
0.0
 13
7.0
 23
7.0
340
1D4
 70
15
280
0
281
50
282
50
283
0
  0
IMAGE
  5
1D5
100
AcDbEntity
  8
Step_02
 62
256
370
-1
 48
1.0
  6
BYLAYER
100
AcDbRasterImage
 90
0
 10
99.72966237096702
 20
79.963604553397488
 30
0.0
 11
0.15
 21
0.0
 31
0.0
 12
0.0
 22
0.15
 32
0.0
 13
7.0
 23
7.0
340
1D6
 70
15
280
0
281
50
282
50
283
0
  0
IMAGE
  5
1D7
100
AcDbEntity
  8
Step_02
 62
256
370
-1
 48
1.0
  6
BYLAYER
100
AcDbRasterImage
 90
0
 10
99.72966237096702
 20
63.963604553397488
 30
0.0
 11
0.15
 21
0.0
 31
0.0
 12
0.0
 22
0.15
 32
0.0
 13
7.0
 23
7.0
340
1D8
 70
15
280
0
281
50
282
50
283
0
  0
IMAGE
  5
1D9
100
AcDbEntity
  8
Step_02
 62
256
370
-1
 48
1.0
  6
BYLAYER
100
AcDbRasterImage
 90
0
 10
99.72966237096702
 20
47.963604553397488
 30
0.0
 11
0.15
 21
0.0
 31
0.0
 12
0.0
 22
0.15
 32
0.0
 13
7.0
 23
7.0
340
1DA
 70
15
280
0
281
50
282
50
283
0
  0
IMAGE
  5
1DB
100
AcDbEntity
  8
Step_02
 62
256
370
-1
 48
1.0
  6
BYLAYER
100
AcDbRasterImage
 90
0
 10
99.72966237096702
 20
31.963604553397488
 30
0.0
 11
0.15
 21
0.0
 31
0.0
 12
0.0
 22
0.15
 32
0.0
 13
7.0
 23
7.0
340
1DC
 70
15
280
0
281
50
282
50
283
0
  0
IMAGE
  5
1DD
100
AcDbEntity
  8
Step_02
 62
256
370
-1
 48
1.0
  6
BYLAYER
100
AcDbRasterImage
 90
0
 10
99.72966237096702
 20
15.963604553397488
 30
0.0
 11
0.15
 21
0.0
 31
0.0
 12
0.0
 22
0.15
 32
0.0
 13
7.0
 23
7.0
340
1DE
 70
15
280
0
281
50
282
50
283
0
  0
IMAGE
  5
1DF
100
AcDbEntity
  8
Step_02
 62
256
370
-1
 48
1.0
  6
BYLAYER
100
AcDbRasterImage
 90
0
 10
-3.5000000000000124
 20
111.963604553397488
 30
0.0
 11
-0.15
 21
0.0
 31
0.0
 12
0.0
 22
0.15
 32
0.0
 13
7.0
 23
7.0
340
1E0
 70
15
280
0
281
50
282
50
283
0
  0
IMAGE
  5
1E1
100
AcDbEntity
  8
Step_02
 62
256
370
-1
 48
1.0
  6
BYLAYER
100
AcDbRasterImage
 90
0
 10
-3.5000000000000124
 20
95.963604553397488
 30
0.0
 11
-0.15
 21
0.0
 31
0.0
 12
0.0
 22
0.15
 32
0.0
 13
7.0
 23
7.0
340
1E2
 70
15
280
0
281
50
282
50
283
0
  0
IMAGE
  5
1E3
100
AcDbEntity
  8
Step_02
 62
256
370
-1
 48
1.0
  6
BYLAYER
100
AcDbRasterImage
 90
0
 10
-3.5000000000000124
 20
79.963604553397488
 30
0.0
 11
-0.15
 21
0.0
 31
0.0
 12
0.0
 22
0.15
 32
0.0
 13
7.0
 23
7.0
340
1E4
 70
15
280
0
281
50
282
50
283
0
  0
IMAGE
  5
1E5
100
AcDbEntity
  8
Step_02
 62
256
370
-1
 48
1.0
  6
BYLAYER
100
AcDbRasterImage
 90
0
 10
-3.5000000000000124
 20
63.963604553397488
 30
0.0
 11
-0.15
 21
0.0
 31
0.0
 12
0.0
 22
0.15
 32
0.0
 13
7.0
 23
7.0
340
1E6
 70
15
280
0
281
50
282
50
283
0
  0
IMAGE
  5
1E7
100
AcDbEntity
  8
Step_02
 62
256
370
-1
 48
1.0
  6
BYLAYER
100
AcDbRasterImage
 90
0
 10
-3.5000000000000124
 20
47.963604553397488
 30
0.0
 11
-0.15
 21
0.0
 31
0.0
 12
0.0
 22
0.15
 32
0.0
 13
7.0
 23
7.0
340
1E8
 70
15
280
0
281
50
282
50
283
0
  0
IMAGE
  5
1E9
100
AcDbEntity
  8
Step_02
 62
256
370
-1
 48
1.0
  6
BYLAYER
100
AcDbRasterImage
 90
0
 10
-3.5000000000000124
 20
31.963604553397488
 30
0.0
 11
-0.15
 21
0.0
 31
0.0
 12
0.0
 22
0.15
 32
0.0
 13
7.0
 23
7.0
340
1EA
 70
15
280
0
281
50
282
50
283
0
  0
IMAGE
  5
1EB
100
AcDbEntity
  8
Step_02
 62
256
370
-1
 48
1.0
  6
BYLAYER
100
AcDbRasterImage
 90
0
 10
-3.5000000000000124
 20
15.963604553397488
 30
0.0
 11
-0.15
 21
0.0
 31
0.0
 12
0.0
 22
0.15
 32
0.0
 13
7.0
 23
7.0
340
1EC
 70
15
280
0
281
50
282
50
283
0
  0
LINE
  5
1ED
100
AcDbEntity
  8
Step_02
 62
256
370
-1
 48
1.0
  6
BYLAYER
100
AcDbLine
 10
96.5813783095523348
 20
127.9752185233558066
 30
0.0
 11
98.7681363671253791
 21
127.9752185233558066
 31
0.0
  0
LINE
  5
1EE
100
AcDbEntity
  8
Step_02
 62
256
370
-1
 48
1.0
  6
BYLAYER
100
AcDbLine
 10
96.5813783095523348
 20
111.9752185233558066
 30
0.0
 11
98.7681363671253791
 21
111.9752185233558066
 31
0.0
  0
LINE
  5
1EF
100
AcDbEntity
  8
Step_02
 62
256
370
-1
 48
1.0
  6
BYLAYER
100
AcDbLine
 10
96.5813783095523348
 20
95.9752185233558066
 30
0.0
 11
98.7681363671253791
 21
95.9752185233558066
 31
0.0
  0
LINE
  5
1F0
100
AcDbEntity
  8
Step_02
 62
256
370
-1
 48
1.0
  6
BYLAYER
100
AcDbLine
 10
96.5813783095523348
 20
79.9752185233558066
 30
0.0
 11
98.7681363671253791
 21
79.9752185233558066
 31
0.0
  0
LINE
  5
1F1
100
AcDbEntity
  8
Step_02
 62
256
370
-1
 48
1.0
  6
BYLAYER
100
AcDbLine
 10
96.5813783095523348
 20
63.9752185233558066
 30
0.0
 11
98.7681363671253791
 21
63.9752185233558066
 31
0.0
  0
LINE
  5
1F2
100
AcDbEntity
  8
Step_02
 62
256
370
-1
 48
1.0
  6
BYLAYER
100
AcDbLine
 10
96.5813783095523348
 20
47.9752185233558066
 30
0.0
 11
98.7681363671253791
 21
47.9752185233558066
 31
0.0
  0
LINE
  5
1F3
100
AcDbEntity
  8
Step_02
 62
256
370
-1
 48
1.0
  6
BYLAYER
100
AcDbLine
 10
96.5813783095523348
 20
31.9752185233558066
 30
0.0
 11
98.7681363671253791
 21
31.9752185233558066
 31
0.0
  0
LINE
  5
1F4
100
AcDbEntity
  8
Step_02
 62
256
370
-1
 48
1.0
  6
BYLAYER
100
AcDbLine
 10
96.5813783095523348
 20
15.9752185233558066
 30
0.0
 11
98.7681363671253791
 21
15.9752185233558066
 31
0.0
  0
LINE
  5
1F5
100
AcDbEntity
  8
Step_02
 62
256
370
-1
 48
1.0
  6
BYLAYER
100
AcDbLine
 10
-0.5
 20
127.9752185233558208
 30
0.0
 11
-2.5
 21
127.9752185233558208
 31
0.0
  0
LINE
  5
1F6
100
AcDbEntity
  8
Step_02
 62
256
370
-1
 48
1.0
  6
BYLAYER
100
AcDbLine
 10
-0.5
 20
111.9752185233558208
 30
0.0
 11
-2.5
 21
111.9752185233558208
 31
0.0
  0
LINE
  5
1F7
100
AcDbEntity
  8
Step_02
 62
256
370
-1
 48
1.0
  6
BYLAYER
100
AcDbLine
 10
-0.5
 20
95.9752185233558208
 30
0.0
 11
-2.5
 21
95.9752185233558208
 31
0.0
  0
LINE
  5
1F8
100
AcDbEntity
  8
Step_02
 62
256
370
-1
 48
1.0
  6
BYLAYER
100
AcDbLine
 10
-0.5
 20
79.9752185233558208
 30
0.0
 11
-2.5
 21
79.9752185233558208
 31
0.0
  0
LINE
  5
1F9
100
AcDbEntity
  8
Step_02
 62
256
370
-1
 48
1.0
  6
BYLAYER
100
AcDbLine
 10
-0.5
 20
63.9752185233558208
 30
0.0
 11
-2.5
 21
63.9752185233558208
 31
0.0
  0
LINE
  5
1FA
100
AcDbEntity
  8
Step_02
 62
256
370
-1
 48
1.0
  6
BYLAYER
100
AcDbLine
 10
-0.5
 20
47.9752185233558208
 30
0.0
 11
-2.5
 21
47.9752185233558208
 31
0.0
  0
LINE
  5
1FB
100
AcDbEntity
  8
Step_02
 62
256
370
-1
 48
1.0
  6
BYLAYER
100
AcDbLine
 10
-0.5
 20
31.9752185233558208
 30
0.0
 11
-2.5
 21
31.9752185233558208
 31
0.0
  0
LINE
  5
1FC
100
AcDbEntity
  8
Step_02
 62
256
370
-1
 48
1.0
  6
BYLAYER
100
AcDbLine
 10
-0.5
 20
15.9752185233558208
 30
0.0
 11
-2.5
 21
15.9752185233558208
 31
0.0
  0
LINE
  5
1FD
100
AcDbEntity
  8
Jig-Framing
 62
256
370
-1
 48
1.0
  6
BYLAYER
100
AcDbLine
 10
94.5
 20
0.0
 30
0.0
 11
94.5
 21
144.0
 31
0.0
  0
HATCH
  5
1FE
100
AcDbEntity
  8
Step_03
 62
256
370
-1
 48
1.0
  6
BYLAYER
100
AcDbHatch
 10
0.0
 20
0.0
 30
0.0
210
0.0
220
0.0
230
1.0
  2
SOLID
 70
1
 71
0
 91
1
 92
1
 93
4
 72
1
 10
1.5
 20
128.75
 11
1.5
 21
127.25
 72
1
 10
1.5
 20
127.25
 11
94.5
 21
127.25
 72
1
 10
94.5
 20
127.25
 11
94.5
 21
128.75
 72
1
 10
94.5
 20
128.75
 11
1.5
 21
128.75
 97
0
 75
0
 76
1
 98
0
1001
ACAD
1010
0.0
1020
0.0
1030
0
  0
HATCH
  5
1FF
100
AcDbEntity
  8
Step_03
 62
256
370
-1
 48
1.0
  6
BYLAYER
100
AcDbHatch
 10
0.0
 20
0.0
 30
0.0
210
0.0
220
0.0
230
1.0
  2
SOLID
 70
1
 71
0
 91
1
 92
1
 93
4
 72
1
 10
1.5
 20
112.75
 11
1.5
 21
111.25
 72
1
 10
1.5
 20
111.25
 11
94.5
 21
111.25
 72
1
 10
94.5
 20
111.25
 11
94.5
 21
112.75
 72
1
 10
94.5
 20
112.75
 11
1.5
 21
112.75
 97
0
 75
0
 76
1
 98
0
1001
ACAD
1010
0.0
1020
0.0
1030
0
  0
HATCH
  5
200
100
AcDbEntity
  8
Step_03
 62
256
370
-1
 48
1.0
  6
BYLAYER
100
AcDbHatch
 10
0.0
 20
0.0
 30
0.0
210
0.0
220
0.0
230
1.0
  2
SOLID
 70
1
 71
0
 91
1
 92
1
 93
4
 72
1
 10
1.5
 20
96.75
 11
1.5
 21
95.25
 72
1
 10
1.5
 20
95.25
 11
94.5
 21
95.25
 72
1
 10
94.5
 20
95.25
 11
94.5
 21
96.75
 72
1
 10
94.5
 20
96.75
 11
1.5
 21
96.75
 97
0
 75
0
 76
1
 98
0
1001
ACAD
1010
0.0
1020
0.0
1030
0
  0
HATCH
  5
201
100
AcDbEntity
  8
Step_03
 62
256
370
-1
 48
1.0
  6
BYLAYER
100
AcDbHatch
 10
0.0
 20
0.0
 30
0.0
210
0.0
220
0.0
230
1.0
  2
SOLID
 70
1
 71
0
 91
1
 92
1
 93
4
 72
1
 10
1.5
 20
80.75
 11
1.5
 21
79.25
 72
1
 10
1.5
 20
79.25
 11
94.5
 21
79.25
 72
1
 10
94.5
 20
79.25
 11
94.5
 21
80.75
 72
1
 10
94.5
 20
80.75
 11
1.5
 21
80.75
 97
0
 75
0
 76
1
 98
0
1001
ACAD
1010
0.0
1020
0.0
1030
0
  0
HATCH
  5
202
100
AcDbEntity
  8
Step_03
 62
256
370
-1
 48
1.0
  6
BYLAYER
100
AcDbHatch
 10
0.0
 20
0.0
 30
0.0
210
0.0
220
0.0
230
1.0
  2
SOLID
 70
1
 71
0
 91
1
 92
1
 93
4
 72
1
 10
1.5
 20
64.75
 11
1.5
 21
63.25
 72
1
 10
1.5
 20
63.25
 11
94.5
 21
63.25
 72
1
 10
94.5
 20
63.25
 11
94.5
 21
64.75
 72
1
 10
94.5
 20
64.75
 11
1.5
 21
64.75
 97
0
 75
0
 76
1
 98
0
1001
ACAD
1010
0.0
1020
0.0
1030
0
  0
HATCH
  5
203
100
AcDbEntity
  8
Step_03
 62
256
370
-1
 48
1.0
  6
BYLAYER
100
AcDbHatch
 10
0.0
 20
0.0
 30
0.0
210
0.0
220
0.0
230
1.0
  2
SOLID
 70
1
 71
0
 91
1
 92
1
 93
4
 72
1
 10
1.5
 20
48.75
 11
1.5
 21
47.25
 72
1
 10
1.5
 20
47.25
 11
94.5
 21
47.25
 72
1
 10
94.5
 20
47.25
 11
94.5
 21
48.75
 72
1
 10
94.5
 20
48.75
 11
1.5
 21
48.75
 97
0
 75
0
 76
1
 98
0
1001
ACAD
1010
0.0
1020
0.0
1030
0
  0
HATCH
  5
204
100
AcDbEntity
  8
Step_03
 62
256
370
-1
 48
1.0
  6
BYLAYER
100
AcDbHatch
 10
0.0
 20
0.0
 30
0.0
210
0.0
220
0.0
230
1.0
  2
SOLID
 70
1
 71
0
 91
1
 92
1
 93
4
 72
1
 10
1.5
 20
32.75
 11
1.5
 21
31.25
 72
1
 10
1.5
 20
31.25
 11
94.5
 21
31.25
 72
1
 10
94.5
 20
31.25
 11
94.5
 21
32.75
 72
1
 10
94.5
 20
32.75
 11
1.5
 21
32.75
 97
0
 75
0
 76
1
 98
0
1001
ACAD
1010
0.0
1020
0.0
1030
0
  0
HATCH
  5
205
100
AcDbEntity
  8
Step_03
 62
256
370
-1
 48
1.0
  6
BYLAYER
100
AcDbHatch
 10
0.0
 20
0.0
 30
0.0
210
0.0
220
0.0
230
1.0
  2
SOLID
 70
1
 71
0
 91
1
 92
1
 93
4
 72
1
 10
1.5
 20
16.75
 11
1.5
 21
15.25
 72
1
 10
1.5
 20
15.25
 11
94.5
 21
15.25
 72
1
 10
94.5
 20
15.25
 11
94.5
 21
16.75
 72
1
 10
94.5
 20
16.75
 11
1.5
 21
16.75
 97
0
 75
0
 76
1
 98
0
1001
ACAD
1010
0.0
1020
0.0
1030
0
  0
MTEXT
  5
206
100
AcDbEntity
  8
Step_05
 62
256
370
-1
 48
1.0
  6
BYLAYER
100
AcDbMText
 10
16.5
 20
5.8999999999999986
 30
0.0
 40
3.0
 41
0.0
 71
1
 72
1
  1
\H2.50001;x
  7
textstyle101
 50
0.0
 73
2
 44
1.0
  0
MTEXT
  5
207
100
AcDbEntity
  8
Step_06
 62
256
370
-1
 48
1.0
  6
BYLAYER
100
AcDbMText
 10
16.3966233054996273
 20
5.8803744656327881
 30
0.0
 40
3.0
 41
0.0
 71
1
 72
1
  1
\H2.50001;x
  7
textstyle6
 50
0.0
 73
2
 44
1.0
  0
MTEXT
  5
208
100
AcDbEntity
  8
Step_05
 62
256
370
-1
 48
1.0
  6
BYLAYER
100
AcDbMText
 10
16.5
 20
35.6499999999999986
 30
0.0
 40
3.0
 41
0.0
 71
1
 72
1
  1
\H2.50001;x
  7
textstyle7
 50
0.0
 73
2
 44
1.0
  0
MTEXT
  5
209
100
AcDbEntity
  8
Step_06
 62
256
370
-1
 48
1.0
  6
BYLAYER
100
AcDbMText
 10
16.3966233054996202
 20
35.6303744656327979
 30
0.0
 40
3.0
 41
0.0
 71
1
 72
1
  1
\H2.50001;x
  7
textstyle8
 50
0.0
 73
2
 44
1.0
  0
MTEXT
  5
20A
100
AcDbEntity
  8
Step_05
 62
256
370
-1
 48
1.0
  6
BYLAYER
100
AcDbMText
 10
16.4999999999999964
 20
67.6500000000000057
 30
0.0
 40
3.0
 41
0.0
 71
1
 72
1
  1
\H2.50001;x
  7
textstyle9
 50
0.0
 73
2
 44
1.0
  0
MTEXT
  5
20B
100
AcDbEntity
  8
Step_06
 62
256
370
-1
 48
1.0
  6
BYLAYER
100
AcDbMText
 10
16.3966233054996202
 20
67.6303744656327979
 30
0.0
 40
3.0
 41
0.0
 71
1
 72
1
  1
\H2.50001;x
  7
textstyle10
 50
0.0
 73
2
 44
1.0
  0
MTEXT
  5
20C
100
AcDbEntity
  8
Step_05
 62
256
370
-1
 48
1.0
  6
BYLAYER
100
AcDbMText
 10
16.4999999999999964
 20
99.6499999999999915
 30
0.0
 40
3.0
 41
0.0
 71
1
 72
1
  1
\H2.50001;x
  7
textstyle11
 50
0.0
 73
2
 44
1.0
  0
MTEXT
  5
20D
100
AcDbEntity
  8
Step_06
 62
256
370
-1
 48
1.0
  6
BYLAYER
100
AcDbMText
 10
16.3966233054996415
 20
99.6303744656327694
 30
0.0
 40
3.0
 41
0.0
 71
1
 72
1
  1
\H2.50001;x
  7
textstyle12
 50
0.0
 73
2
 44
1.0
  0
MTEXT
  5
20E
100
AcDbEntity
  8
Step_05
 62
256
370
-1
 48
1.0
  6
BYLAYER
100
AcDbMText
 10
16.4999999999999964
 20
131.6499999999999773
 30
0.0
 40
3.0
 41
0.0
 71
1
 72
1
  1
\H2.50001;x
  7
textstyle13
 50
0.0
 73
2
 44
1.0
  0
MTEXT
  5
20F
100
AcDbEntity
  8
Step_06
 62
256
370
-1
 48
1.0
  6
BYLAYER
100
AcDbMText
 10
16.3966233054996167
 20
131.6303744656327694
 30
0.0
 40
3.0
 41
0.0
 71
1
 72
1
  1
\H2.50001;x
  7
textstyle102
 50
0.0
 73
2
 44
1.0
  0
MTEXT
  5
210
100
AcDbEntity
  8
Step_05
 62
256
370
-1
 48
1.0
  6
BYLAYER
100
AcDbMText
 10
16.5
 20
141.0
 30
0.0
 40
3.0
 41
0.0
 71
1
 72
1
  1
\H2.50001;x
  7
textstyle103
 50
0.0
 73
2
 44
1.0
  0
MTEXT
  5
211
100
AcDbEntity
  8
Step_06
 62
256
370
-1
 48
1.0
  6
BYLAYER
100
AcDbMText
 10
16.3966233054996309
 20
140.9803744656328206
 30
0.0
 40
3.0
 41
0.0
 71
1
 72
1
  1
\H2.50001;x
  7
textstyle0
 50
0.0
 73
2
 44
1.0
  0
MTEXT
  5
212
100
AcDbEntity
  8
Step_05
 62
256
370
-1
 48
1.0
  6
BYLAYER
100
AcDbMText
 10
10.25
 20
115.9000000000000057
 30
0.0
 40
3.0
 41
0.0
 71
1
 72
1
  1
\H2.50001;x
  7
textstyle1
 50
0.0
 73
2
 44
1.0
  0
MTEXT
  5
213
100
AcDbEntity
  8
Step_06
 62
256
370
-1
 48
1.0
  6
BYLAYER
100
AcDbMText
 10
10.146623305499638
 20
115.8803744656327837
 30
0.0
 40
3.0
 41
0.0
 71
1
 72
1
  1
\H2.50001;x
  7
textstyle2
 50
0.0
 73
2
 44
1.0
  0
MTEXT
  5
214
100
AcDbEntity
  8
Step_05
 62
256
370
-1
 48
1.0
  6
BYLAYER
100
AcDbMText
 10
10.2500000000000071
 20
83.8999999999999915
 30
0.0
 40
3.0
 41
0.0
 71
1
 72
1
  1
\H2.50001;x
  7
textstyle3
 50
0.0
 73
2
 44
1.0
  0
MTEXT
  5
215
100
AcDbEntity
  8
Step_06
 62
256
370
-1
 48
1.0
  6
BYLAYER
100
AcDbMText
 10
10.1466233054996309
 20
83.8803744656327837
 30
0.0
 40
3.0
 41
0.0
 71
1
 72
1
  1
\H2.50001;x
  7
textstyle4
 50
0.0
 73
2
 44
1.0
  0
MTEXT
  5
216
100
AcDbEntity
  8
Step_05
 62
256
370
-1
 48
1.0
  6
BYLAYER
100
AcDbMText
 10
10.2500000000000071
 20
51.8999999999999915
 30
0.0
 40
3.0
 41
0.0
 71
1
 72
1
  1
\H2.50001;x
  7
textstyle5
 50
0.0
 73
2
 44
1.0
  0
MTEXT
  5
217
100
AcDbEntity
  8
Step_06
 62
256
370
-1
 48
1.0
  6
BYLAYER
100
AcDbMText
 10
10.1466233054996362
 20
51.8803744656327908
 30
0.0
 40
3.0
 41
0.0
 71
1
 72
1
  1
\H2.50001;x
  7
textstyle22
 50
0.0
 73
2
 44
1.0
  0
MTEXT
  5
218
100
AcDbEntity
  8
Step_05
 62
256
370
-1
 48
1.0
  6
BYLAYER
100
AcDbMText
 10
10.2500000000000071
 20
19.8999999999999915
 30
0.0
 40
3.0
 41
0.0
 71
1
 72
1
  1
\H2.50001;x
  7
textstyle23
 50
0.0
 73
2
 44
1.0
  0
MTEXT
  5
219
100
AcDbEntity
  8
Step_06
 62
256
370
-1
 48
1.0
  6
BYLAYER
100
AcDbMText
 10
10.1466233054996327
 20
19.8803744656327801
 30
0.0
 40
3.0
 41
0.0
 71
1
 72
1
  1
\H2.50001;x
  7
textstyle24
 50
0.0
 73
2
 44
1.0
  0
MTEXT
  5
21A
100
AcDbEntity
  8
Step_05
 62
256
370
-1
 48
1.0
  6
BYLAYER
100
AcDbMText
 10
77.5
 20
5.9000000000000403
 30
0.0
 40
3.0
 41
0.0
 71
1
 72
1
  1
\H2.50001;x
  7
textstyle25
 50
0.0
 73
2
 44
1.0
  0
MTEXT
  5
21B
100
AcDbEntity
  8
Step_06
 62
256
370
-1
 48
1.0
  6
BYLAYER
100
AcDbMText
 10
77.3966233054996167
 20
5.8803744656327108
 30
0.0
 40
3.0
 41
0.0
 71
1
 72
1
  1
\H2.50001;x
  7
textstyle26
 50
0.0
 73
2
 44
1.0
  0
MTEXT
  5
21C
100
AcDbEntity
  8
Step_05
 62
256
370
-1
 48
1.0
  6
BYLAYER
100
AcDbMText
 10
77.5
 20
35.6500000000000554
 30
0.0
 40
3.0
 41
0.0
 71
1
 72
1
  1
\H2.50001;x
  7
textstyle27
 50
0.0
 73
2
 44
1.0
  0
MTEXT
  5
21D
100
AcDbEntity
  8
Step_06
 62
256
370
-1
 48
1.0
  6
BYLAYER
100
AcDbMText
 10
77.3966233054996167
 20
35.6303744656328689
 30
0.0
 40
3.0
 41
0.0
 71
1
 72
1
  1
\H2.50001;x
  7
textstyle28
 50
0.0
 73
2
 44
1.0
  0
MTEXT
  5
21E
100
AcDbEntity
  8
Step_05
 62
256
370
-1
 48
1.0
  6
BYLAYER
100
AcDbMText
 10
77.5
 20
67.6500000000000341
 30
0.0
 40
3.0
 41
0.0
 71
1
 72
1
  1
\H2.50001;x
  7
textstyle29
 50
0.0
 73
2
 44
1.0
  0
MTEXT
  5
21F
100
AcDbEntity
  8
Step_06
 62
256
370
-1
 48
1.0
  6
BYLAYER
100
AcDbMText
 10
77.3966233054996167
 20
67.6303744656328263
 30
0.0
 40
3.0
 41
0.0
 71
1
 72
1
  1
\H2.50001;x
  7
textstyle14
 50
0.0
 73
2
 44
1.0
  0
MTEXT
  5
220
100
AcDbEntity
  8
Step_05
 62
256
370
-1
 48
1.0
  6
BYLAYER
100
AcDbMText
 10
77.5
 20
99.6500000000000057
 30
0.0
 40
3.0
 41
0.0
 71
1
 72
1
  1
\H2.50001;x
  7
textstyle15
 50
0.0
 73
2
 44
1.0
  0
MTEXT
  5
221
100
AcDbEntity
  8
Step_06
 62
256
370
-1
 48
1.0
  6
BYLAYER
100
AcDbMText
 10
77.3966233054996167
 20
99.6303744656328121
 30
0.0
 40
3.0
 41
0.0
 71
1
 72
1
  1
\H2.50001;x
  7
textstyle16
 50
0.0
 73
2
 44
1.0
  0
MTEXT
  5
222
100
AcDbEntity
  8
Step_05
 62
256
370
-1
 48
1.0
  6
BYLAYER
100
AcDbMText
 10
77.4999999999999858
 20
131.6500000000000341
 30
0.0
 40
3.0
 41
0.0
 71
1
 72
1
  1
\H2.50001;x
  7
textstyle17
 50
0.0
 73
2
 44
1.0
  0
MTEXT
  5
223
100
AcDbEntity
  8
Step_06
 62
256
370
-1
 48
1.0
  6
BYLAYER
100
AcDbMText
 10
77.3966233054996167
 20
131.6303744656328547
 30
0.0
 40
3.0
 41
0.0
 71
1
 72
1
  1
\H2.50001;x
  7
textstyle18
 50
0.0
 73
2
 44
1.0
  0
MTEXT
  5
224
100
AcDbEntity
  8
Step_05
 62
256
370
-1
 48
1.0
  6
BYLAYER
100
AcDbMText
 10
77.4999999999999858
 20
141.0000000000000568
 30
0.0
 40
3.0
 41
0.0
 71
1
 72
1
  1
\H2.50001;x
  7
textstyle19
 50
0.0
 73
2
 44
1.0
  0
MTEXT
  5
225
100
AcDbEntity
  8
Step_06
 62
256
370
-1
 48
1.0
  6
BYLAYER
100
AcDbMText
 10
77.3966233054996167
 20
140.9803744656328206
 30
0.0
 40
3.0
 41
0.0
 71
1
 72
1
  1
\H2.50001;x
  7
textstyle20
 50
0.0
 73
2
 44
1.0
  0
MTEXT
  5
226
100
AcDbEntity
  8
Step_05
 62
256
370
-1
 48
1.0
  6
BYLAYER
100
AcDbMText
 10
84.0
 20
115.8999999999999915
 30
0.0
 40
3.0
 41
0.0
 71
1
 72
1
  1
\H2.50001;x
  7
textstyle21
 50
0.0
 73
2
 44
1.0
  0
MTEXT
  5
227
100
AcDbEntity
  8
Step_06
 62
256
370
-1
 48
1.0
  6
BYLAYER
100
AcDbMText
 10
83.8966233054996167
 20
115.8803744656327552
 30
0.0
 40
3.0
 41
0.0
 71
1
 72
1
  1
\H2.50001;x
  7
textstyle33
 50
0.0
 73
2
 44
1.0
  0
MTEXT
  5
228
100
AcDbEntity
  8
Step_05
 62
256
370
-1
 48
1.0
  6
BYLAYER
100
AcDbMText
 10
84.0
 20
83.8999999999999915
 30
0.0
 40
3.0
 41
0.0
 71
1
 72
1
  1
\H2.50001;x
  7
textstyle34
 50
0.0
 73
2
 44
1.0
  0
MTEXT
  5
229
100
AcDbEntity
  8
Step_06
 62
256
370
-1
 48
1.0
  6
BYLAYER
100
AcDbMText
 10
83.8966233054996167
 20
83.8803744656327837
 30
0.0
 40
3.0
 41
0.0
 71
1
 72
1
  1
\H2.50001;x
  7
textstyle35
 50
0.0
 73
2
 44
1.0
  0
MTEXT
  5
22A
100
AcDbEntity
  8
Step_05
 62
256
370
-1
 48
1.0
  6
BYLAYER
100
AcDbMText
 10
84.0
 20
51.8999999999999915
 30
0.0
 40
3.0
 41
0.0
 71
1
 72
1
  1
\H2.50001;x
  7
textstyle36
 50
0.0
 73
2
 44
1.0
  0
MTEXT
  5
22B
100
AcDbEntity
  8
Step_06
 62
256
370
-1
 48
1.0
  6
BYLAYER
100
AcDbMText
 10
83.8966233054996167
 20
51.8803744656327979
 30
0.0
 40
3.0
 41
0.0
 71
1
 72
1
  1
\H2.50001;x
  7
textstyle37
 50
0.0
 73
2
 44
1.0
  0
MTEXT
  5
22C
100
AcDbEntity
  8
Step_05
 62
256
370
-1
 48
1.0
  6
BYLAYER
100
AcDbMText
 10
84.0
 20
19.9000000000000377
 30
0.0
 40
3.0
 41
0.0
 71
1
 72
1
  1
\H2.50001;x
  7
textstyle38
 50
0.0
 73
2
 44
1.0
  0
MTEXT
  5
22D
100
AcDbEntity
  8
Step_06
 62
256
370
-1
 48
1.0
  6
BYLAYER
100
AcDbMText
 10
83.8966233054996167
 20
19.8803744656327339
 30
0.0
 40
3.0
 41
0.0
 71
1
 72
1
  1
\H2.50001;x
  7
textstyle39
 50
0.0
 73
2
 44
1.0
  0
IMAGE
  5
22E
100
AcDbEntity
  8
Step_05
 62
256
370
-1
 48
1.0
  6
BYLAYER
100
AcDbRasterImage
 90
0
 10
19.0
 20
3.9999999999999982
 30
0.0
 11
0.15
 21
0.0
 31
0.0
 12
0.0
 22
0.15
 32
0.0
 13
7.0
 23
7.0
340
22F
 70
15
280
0
281
50
282
50
283
0
  0
MTEXT
  5
230
100
AcDbEntity
  8
Step_05
 62
256
370
-1
 48
1.0
  6
BYLAYER
100
AcDbMText
 10
27.9282613184983219
 20
8.997323064787123
 30
0.0
 40
3.0
 41
0.0
 71
1
 72
1
  1
Start \H2.50001;Here
  7
textstyle30
 50
0.0
 73
2
 44
1.0
  0
IMAGE
  5
231
100
AcDbEntity
  8
Step_06
 62
256
370
-1
 48
1.0
  6
BYLAYER
100
AcDbRasterImage
 90
0
 10
-20.869385244252328
 20
-27.4893635124957498
 30
0.0
 11
0.4
 21
0.0
 31
0.0
 12
0.0
 22
0.4
 32
0.0
 13
16.0
 23
31.0
340
232
 70
15
280
0
281
50
282
50
283
0
  0
IMAGE
  5
233
100
AcDbEntity
  8
Step_06
 62
256
370
-1
 48
1.0
  6
BYLAYER
100
AcDbRasterImage
 90
0
 10
-9.1807095903474707
 20
-3.460455841683161
 30
0.0
 11
-0.0
 21
-0.25
 31
0.0
 12
0.25
 22
0.0
 32
0.0
 13
5.0
 23
12.0
340
234
 70
15
280
0
281
50
282
50
283
0
  0
IMAGE
  5
235
100
AcDbEntity
  8
Step_06
 62
256
370
-1
 48
1.0
  6
BYLAYER
100
AcDbRasterImage
 90
0
 10
-5.7782999361290912
 20
-19.059366361151433
 30
0.0
 11
-0.0
 21
-0.25
 31
0.0
 12
0.25
 22
0.0
 32
0.0
 13
5.0
 23
12.0
340
236
 70
15
280
0
281
50
282
50
283
0
  0
MTEXT
  5
237
100
AcDbEntity
  8
Step_06
 62
256
370
-1
 48
1.0
  6
BYLAYER
100
AcDbMText
 10
3.9397434044476309
 20
-4.5117338688518718
 30
0.0
 40
3.0
 41
0.0
 71
1
 72
1
  1
\H2.50001;x3
  7
textstyle31
 50
0.0
 73
2
 44
1.0
  0
MTEXT
  5
238
100
AcDbEntity
  8
Step_06
 62
256
370
-1
 48
1.0
  6
BYLAYER
100
AcDbMText
 10
7.3421530586659856
 20
-20.1106443883201571
 30
0.0
 40
3.0
 41
0.0
 71
1
 72
1
  1
\H2.50001;x3
  7
textstyle32
 50
0.0
 73
2
 44
1.0
  0
LINE
  5
239
100
AcDbEntity
  8
Step_08
 62
256
370
-1
 48
1.0
  6
BYLAYER
100
AcDbLine
 10
1.7985156691977657
 20
3.2302576744119897
 30
0.0
 11
94.2985156691977551
 21
3.2302576744119897
 31
0.0
  0
LINE
  5
23A
100
AcDbEntity
  8
Step_08
 62
256
370
-1
 48
1.0
  6
BYLAYER
100
AcDbLine
 10
1.7334618592777422
 20
128.9479292677740148
 30
0.0
 11
94.2334618592777247
 21
128.9479292677740148
 31
0.0
  0
LINE
  5
23B
100
AcDbEntity
  8
Step_08
 62
256
370
-1
 48
1.0
  6
BYLAYER
100
AcDbLine
 10
94.2985156691977693
 20
3.2302576744119897
 30
0.0
 11
94.2985156691977693
 21
14.9802576744119893
 31
0.0
  0
LINE
  5
23C
100
AcDbEntity
  8
Step_08
 62
256
370
-1
 48
1.0
  6
BYLAYER
100
AcDbLine
 10
94.0
 20
128.7499999999999716
 30
0.0
 11
94.0
 21
140.4999999999999716
 31
0.0
  0
LINE
  5
23D
100
AcDbEntity
  8
Step_08
 62
256
370
-1
 48
1.0
  6
BYLAYER
100
AcDbLine
 10
94.0
 20
2.9999999999999716
 30
0.0
 11
94.0
 21
14.7499999999999716
 31
0.0
  0
LINE
  5
23E
100
AcDbEntity
  8
Step_08
 62
256
370
-1
 48
1.0
  6
BYLAYER
100
AcDbLine
 10
94.2985156691977693
 20
14.9802576744119893
 30
0.0
 11
1.7985156691977693
 21
14.9802576744119893
 31
0.0
  0
LINE
  5
23F
100
AcDbEntity
  8
Step_08
 62
256
370
-1
 48
1.0
  6
BYLAYER
100
AcDbLine
 10
94.2334618592777389
 20
140.6979292677740148
 30
0.0
 11
1.7334618592777458
 21
140.6979292677740148
 31
0.0
  0
LINE
  5
240
100
AcDbEntity
  8
Step_08
 62
256
370
-1
 48
1.0
  6
BYLAYER
100
AcDbLine
 10
1.7985156691977657
 20
14.9802576744119875
 30
0.0
 11
1.7985156691977657
 21
3.2302576744119911
 31
0.0
  0
LINE
  5
241
100
AcDbEntity
  8
Step_08
 62
256
370
-1
 48
1.0
  6
BYLAYER
100
AcDbLine
 10
1.7334618592777422
 20
140.6979292677740148
 30
0.0
 11
1.7334618592777422
 21
128.9479292677740148
 31
0.0
  0
HATCH
  5
242
100
AcDbEntity
  8
Step_08
 62
252
420
10526884
370
-1
 48
1.0
  6
BYLAYER
100
AcDbHatch
 10
0.0
 20
0.0
 30
0.0
210
0.0
220
0.0
230
1.0
  2
AR-RROOF
 70
0
 71
0
 91
1
 92
1
 93
4
 72
1
 10
1.7985156691977657
 20
14.9802576744119875
 11
1.7985156691977657
 21
3.2302576744119911
 72
1
 10
1.7985156691977657
 20
3.2302576744119897
 11
94.2985156691977551
 21
3.2302576744119897
 72
1
 10
94.2985156691977693
 20
3.2302576744119897
 11
94.2985156691977693
 21
14.9802576744119893
 72
1
 10
94.2985156691977693
 20
14.9802576744119893
 11
1.7985156691977693
 21
14.9802576744119893
 97
0
 75
0
 76
1
 52
0.0
 41
1.0
 77
0
 78
1
 53
45.0
 43
0.0
 44
0.0
 45
-0.0883883476483184
 46
0.0883883476483185
 79
0
 98
0
1001
ACAD
1010
0.0
1020
0.0
1030
0
  0
HATCH
  5
243
100
AcDbEntity
  8
Step_08
 62
252
420
10526884
370
-1
 48
1.0
  6
BYLAYER
100
AcDbHatch
 10
0.0
 20
0.0
 30
0.0
210
0.0
220
0.0
230
1.0
  2
AR-RROOF
 70
0
 71
0
 91
1
 92
1
 93
4
 72
1
 10
1.7334618592777422
 20
140.6979292677740148
 11
1.7334618592777422
 21
128.9479292677740148
 72
1
 10
1.7334618592777422
 20
128.9479292677740148
 11
94.2334618592777247
 21
128.9479292677740148
 72
1
 10
94.2334618592777389
 20
128.9479292677740148
 11
94.2334618592777389
 21
140.6979292677740148
 72
1
 10
94.2334618592777389
 20
140.6979292677740148
 11
1.7334618592777458
 21
140.6979292677740148
 97
0
 75
0
 76
1
 52
0.0
 41
1.0
 77
0
 78
1
 53
45.0
 43
0.0
 44
0.0
 45
-0.0883883476483184
 46
0.0883883476483185
 79
0
 98
0
1001
ACAD
1010
0.0
1020
0.0
1030
0
  0
HATCH
  5
244
100
AcDbEntity
  8
Step_09
 62
252
420
10526884
370
-1
 48
1.0
  6
BYLAYER
100
AcDbHatch
 10
0.0
 20
0.0
 30
0.0
210
0.0
220
0.0
230
1.0
  2
AR-RROOF
 70
0
 71
0
 91
1
 92
1
 93
4
 72
1
 10
1.7985156691977657
 20
14.9802576744119875
 11
1.7985156691977657
 21
3.2302576744119911
 72
1
 10
1.7985156691977657
 20
3.2302576744119897
 11
94.2985156691977551
 21
3.2302576744119897
 72
1
 10
94.2985156691977693
 20
3.2302576744119897
 11
94.2985156691977693
 21
14.9802576744119893
 72
1
 10
94.2985156691977693
 20
14.9802576744119893
 11
1.7985156691977693
 21
14.9802576744119893
 97
0
 75
0
 76
1
 52
0.0
 41
1.0
 77
0
 78
1
 53
45.0
 43
0.0
 44
0.0
 45
-0.0883883476483184
 46
0.0883883476483185
 79
0
 98
0
1001
ACAD
1010
0.0
1020
0.0
1030
0
  0
HATCH
  5
245
100
AcDbEntity
  8
Step_10
 62
252
420
10526884
370
-1
 48
1.0
  6
BYLAYER
100
AcDbHatch
 10
0.0
 20
0.0
 30
0.0
210
0.0
220
0.0
230
1.0
  2
AR-RROOF
 70
0
 71
0
 91
1
 92
1
 93
4
 72
1
 10
1.7985156691977657
 20
14.9802576744119875
 11
1.7985156691977657
 21
3.2302576744119911
 72
1
 10
1.7985156691977657
 20
3.2302576744119897
 11
94.2985156691977551
 21
3.2302576744119897
 72
1
 10
94.2985156691977693
 20
3.2302576744119897
 11
94.2985156691977693
 21
14.9802576744119893
 72
1
 10
94.2985156691977693
 20
14.9802576744119893
 11
1.7985156691977693
 21
14.9802576744119893
 97
0
 75
0
 76
1
 52
0.0
 41
1.0
 77
0
 78
1
 53
45.0
 43
0.0
 44
0.0
 45
-0.0883883476483184
 46
0.0883883476483185
 79
0
 98
0
1001
ACAD
1010
0.0
1020
0.0
1030
0
  0
LINE
  5
246
100
AcDbEntity
  8
Step_08
 62
256
370
-1
 48
1.0
  6
BYLAYER
100
AcDbLine
 10
1.7966544023705637
 20
16.9724058217527087
 30
0.0
 11
94.2966544023705495
 21
16.9724058217527087
 31
0.0
  0
LINE
  5
247
100
AcDbEntity
  8
Step_08
 62
256
370
-1
 48
1.0
  6
BYLAYER
100
AcDbLine
 10
1.7966544023705637
 20
32.9724058217527087
 30
0.0
 11
94.2966544023705495
 21
32.9724058217527087
 31
0.0
  0
LINE
  5
248
100
AcDbEntity
  8
Step_08
 62
256
370
-1
 48
1.0
  6
BYLAYER
100
AcDbLine
 10
1.7966544023705637
 20
48.9724058217527087
 30
0.0
 11
94.2966544023705495
 21
48.9724058217527087
 31
0.0
  0
LINE
  5
249
100
AcDbEntity
  8
Step_08
 62
256
370
-1
 48
1.0
  6
BYLAYER
100
AcDbLine
 10
1.7966544023705637
 20
64.9724058217527158
 30
0.0
 11
94.2966544023705495
 21
64.9724058217527158
 31
0.0
  0
LINE
  5
24A
100
AcDbEntity
  8
Step_08
 62
256
370
-1
 48
1.0
  6
BYLAYER
100
AcDbLine
 10
1.7966544023705637
 20
80.9724058217527158
 30
0.0
 11
94.2966544023705495
 21
80.9724058217527158
 31
0.0
  0
LINE
  5
24B
100
AcDbEntity
  8
Step_08
 62
256
370
-1
 48
1.0
  6
BYLAYER
100
AcDbLine
 10
1.7966544023705637
 20
96.9724058217527158
 30
0.0
 11
94.2966544023705495
 21
96.9724058217527158
 31
0.0
  0
LINE
  5
24C
100
AcDbEntity
  8
Step_08
 62
256
370
-1
 48
1.0
  6
BYLAYER
100
AcDbLine
 10
1.7966544023705637
 20
112.9724058217527158
 30
0.0
 11
94.2966544023705495
 21
112.9724058217527158
 31
0.0
  0
LINE
  5
24D
100
AcDbEntity
  8
Step_08
 62
256
370
-1
 48
1.0
  6
BYLAYER
100
AcDbLine
 10
94.2966544023705637
 20
16.9724058217527087
 30
0.0
 11
94.2966544023705637
 21
30.9724058217527087
 31
0.0
  0
LINE
  5
24E
100
AcDbEntity
  8
Step_08
 62
256
370
-1
 48
1.0
  6
BYLAYER
100
AcDbLine
 10
94.2966544023705637
 20
32.9724058217527087
 30
0.0
 11
94.2966544023705637
 21
46.9724058217527087
 31
0.0
  0
LINE
  5
24F
100
AcDbEntity
  8
Step_08
 62
256
370
-1
 48
1.0
  6
BYLAYER
100
AcDbLine
 10
94.2966544023705637
 20
48.9724058217527087
 30
0.0
 11
94.2966544023705637
 21
62.9724058217527087
 31
0.0
  0
LINE
  5
250
100
AcDbEntity
  8
Step_08
 62
256
370
-1
 48
1.0
  6
BYLAYER
100
AcDbLine
 10
94.2966544023705637
 20
64.9724058217527158
 30
0.0
 11
94.2966544023705637
 21
78.9724058217527158
 31
0.0
  0
LINE
  5
251
100
AcDbEntity
  8
Step_08
 62
256
370
-1
 48
1.0
  6
BYLAYER
100
AcDbLine
 10
94.2966544023705637
 20
80.9724058217527158
 30
0.0
 11
94.2966544023705637
 21
94.9724058217527158
 31
0.0
  0
LINE
  5
252
100
AcDbEntity
  8
Step_08
 62
256
370
-1
 48
1.0
  6
BYLAYER
100
AcDbLine
 10
94.2966544023705637
 20
96.9724058217527158
 30
0.0
 11
94.2966544023705637
 21
110.9724058217527158
 31
0.0
  0
LINE
  5
253
100
AcDbEntity
  8
Step_08
 62
256
370
-1
 48
1.0
  6
BYLAYER
100
AcDbLine
 10
94.2966544023705637
 20
112.9724058217527158
 30
0.0
 11
94.2966544023705637
 21
126.9724058217527158
 31
0.0
  0
LINE
  5
254
100
AcDbEntity
  8
Step_08
 62
256
370
-1
 48
1.0
  6
BYLAYER
100
AcDbLine
 10
94.2966544023705637
 20
30.9724058217527087
 30
0.0
 11
1.7966544023705637
 21
30.9724058217527087
 31
0.0
  0
LINE
  5
255
100
AcDbEntity
  8
Step_08
 62
256
370
-1
 48
1.0
  6
BYLAYER
100
AcDbLine
 10
94.2966544023705637
 20
46.9724058217527087
 30
0.0
 11
1.7966544023705637
 21
46.9724058217527087
 31
0.0
  0
LINE
  5
256
100
AcDbEntity
  8
Step_08
 62
256
370
-1
 48
1.0
  6
BYLAYER
100
AcDbLine
 10
94.2966544023705637
 20
62.9724058217527087
 30
0.0
 11
1.7966544023705637
 21
62.9724058217527087
 31
0.0
  0
LINE
  5
257
100
AcDbEntity
  8
Step_08
 62
256
370
-1
 48
1.0
  6
BYLAYER
100
AcDbLine
 10
94.2966544023705637
 20
78.9724058217527158
 30
0.0
 11
1.7966544023705637
 21
78.9724058217527158
 31
0.0
  0
LINE
  5
258
100
AcDbEntity
  8
Step_08
 62
256
370
-1
 48
1.0
  6
BYLAYER
100
AcDbLine
 10
94.2966544023705637
 20
94.9724058217527158
 30
0.0
 11
1.7966544023705637
 21
94.9724058217527158
 31
0.0
  0
LINE
  5
259
100
AcDbEntity
  8
Step_08
 62
256
370
-1
 48
1.0
  6
BYLAYER
100
AcDbLine
 10
94.2966544023705637
 20
110.9724058217527158
 30
0.0
 11
1.7966544023705637
 21
110.9724058217527158
 31
0.0
  0
LINE
  5
25A
100
AcDbEntity
  8
Step_08
 62
256
370
-1
 48
1.0
  6
BYLAYER
100
AcDbLine
 10
94.2966544023705637
 20
126.9724058217527158
 30
0.0
 11
1.7966544023705637
 21
126.9724058217527158
 31
0.0
  0
LINE
  5
25B
100
AcDbEntity
  8
Step_08
 62
256
370
-1
 48
1.0
  6
BYLAYER
100
AcDbLine
 10
1.7966544023705637
 20
30.9724058217527087
 30
0.0
 11
1.7966544023705637
 21
16.9724058217527087
 31
0.0
  0
LINE
  5
25C
100
AcDbEntity
  8
Step_08
 62
256
370
-1
 48
1.0
  6
BYLAYER
100
AcDbLine
 10
1.7966544023705637
 20
46.9724058217527087
 30
0.0
 11
1.7966544023705637
 21
32.9724058217527087
 31
0.0
  0
LINE
  5
25D
100
AcDbEntity
  8
Step_08
 62
256
370
-1
 48
1.0
  6
BYLAYER
100
AcDbLine
 10
1.7966544023705637
 20
62.9724058217527087
 30
0.0
 11
1.7966544023705637
 21
48.9724058217527087
 31
0.0
  0
LINE
  5
25E
100
AcDbEntity
  8
Step_08
 62
256
370
-1
 48
1.0
  6
BYLAYER
100
AcDbLine
 10
1.7966544023705637
 20
78.9724058217527158
 30
0.0
 11
1.7966544023705637
 21
64.9724058217527158
 31
0.0
  0
LINE
  5
25F
100
AcDbEntity
  8
Step_08
 62
256
370
-1
 48
1.0
  6
BYLAYER
100
AcDbLine
 10
1.7966544023705637
 20
94.9724058217527158
 30
0.0
 11
1.7966544023705637
 21
80.9724058217527158
 31
0.0
  0
LINE
  5
260
100
AcDbEntity
  8
Step_08
 62
256
370
-1
 48
1.0
  6
BYLAYER
100
AcDbLine
 10
1.7966544023705637
 20
110.9724058217527158
 30
0.0
 11
1.7966544023705637
 21
96.9724058217527158
 31
0.0
  0
LINE
  5
261
100
AcDbEntity
  8
Step_08
 62
256
370
-1
 48
1.0
  6
BYLAYER
100
AcDbLine
 10
1.7966544023705637
 20
126.9724058217527158
 30
0.0
 11
1.7966544023705637
 21
112.9724058217527158
 31
0.0
  0
HATCH
  5
262
100
AcDbEntity
  8
Step_08
 62
252
420
10526884
370
-1
 48
1.0
  6
BYLAYER
100
AcDbHatch
 10
0.0
 20
0.0
 30
0.0
210
0.0
220
0.0
230
1.0
  2
AR-RROOF
 70
0
 71
0
 91
1
 92
1
 93
4
 72
1
 10
94.2966544023705637
 20
30.9724058217527087
 11
1.7966544023705637
 21
30.9724058217527087
 72
1
 10
1.7966544023705637
 20
30.9724058217527087
 11
1.7966544023705637
 21
16.9724058217527087
 72
1
 10
1.7966544023705637
 20
16.9724058217527087
 11
94.2966544023705495
 21
16.9724058217527087
 72
1
 10
94.2966544023705637
 20
16.9724058217527087
 11
94.2966544023705637
 21
30.9724058217527087
 97
0
 75
0
 76
1
 52
0.0
 41
1.0
 77
0
 78
1
 53
45.0
 43
0.0
 44
0.0
 45
-0.0883883476483184
 46
0.0883883476483185
 79
0
 98
0
1001
ACAD
1010
0.0
1020
0.0
1030
0
  0
HATCH
  5
263
100
AcDbEntity
  8
Step_08
 62
252
420
10526884
370
-1
 48
1.0
  6
BYLAYER
100
AcDbHatch
 10
0.0
 20
0.0
 30
0.0
210
0.0
220
0.0
230
1.0
  2
AR-RROOF
 70
0
 71
0
 91
1
 92
1
 93
4
 72
1
 10
94.2966544023705637
 20
94.9724058217527158
 11
1.7966544023705637
 21
94.9724058217527158
 72
1
 10
1.7966544023705637
 20
94.9724058217527158
 11
1.7966544023705637
 21
80.9724058217527158
 72
1
 10
1.7966544023705637
 20
80.9724058217527158
 11
94.2966544023705495
 21
80.9724058217527158
 72
1
 10
94.2966544023705637
 20
80.9724058217527158
 11
94.2966544023705637
 21
94.9724058217527158
 97
0
 75
0
 76
1
 52
0.0
 41
1.0
 77
0
 78
1
 53
45.0
 43
0.0
 44
0.0
 45
-0.0883883476483184
 46
0.0883883476483185
 79
0
 98
0
1001
ACAD
1010
0.0
1020
0.0
1030
0
  0
HATCH
  5
264
100
AcDbEntity
  8
Step_08
 62
252
420
10526884
370
-1
 48
1.0
  6
BYLAYER
100
AcDbHatch
 10
0.0
 20
0.0
 30
0.0
210
0.0
220
0.0
230
1.0
  2
AR-RROOF
 70
0
 71
0
 91
1
 92
1
 93
4
 72
1
 10
94.2966544023705637
 20
126.9724058217527158
 11
1.7966544023705637
 21
126.9724058217527158
 72
1
 10
1.7966544023705637
 20
126.9724058217527158
 11
1.7966544023705637
 21
112.9724058217527158
 72
1
 10
1.7966544023705637
 20
112.9724058217527158
 11
94.2966544023705495
 21
112.9724058217527158
 72
1
 10
94.2966544023705637
 20
112.9724058217527158
 11
94.2966544023705637
 21
126.9724058217527158
 97
0
 75
0
 76
1
 52
0.0
 41
1.0
 77
0
 78
1
 53
45.0
 43
0.0
 44
0.0
 45
-0.0883883476483184
 46
0.0883883476483185
 79
0
 98
0
1001
ACAD
1010
0.0
1020
0.0
1030
0
  0
HATCH
  5
265
100
AcDbEntity
  8
Step_08
 62
252
420
10526884
370
-1
 48
1.0
  6
BYLAYER
100
AcDbHatch
 10
0.0
 20
0.0
 30
0.0
210
0.0
220
0.0
230
1.0
  2
AR-RROOF
 70
0
 71
0
 91
1
 92
1
 93
4
 72
1
 10
94.2966544023705637
 20
110.9724058217527158
 11
1.7966544023705637
 21
110.9724058217527158
 72
1
 10
1.7966544023705637
 20
110.9724058217527158
 11
1.7966544023705637
 21
96.9724058217527158
 72
1
 10
1.7966544023705637
 20
96.9724058217527158
 11
94.2966544023705495
 21
96.9724058217527158
 72
1
 10
94.2966544023705637
 20
96.9724058217527158
 11
94.2966544023705637
 21
110.9724058217527158
 97
0
 75
0
 76
1
 52
0.0
 41
1.0
 77
0
 78
1
 53
45.0
 43
0.0
 44
0.0
 45
-0.0883883476483184
 46
0.0883883476483185
 79
0
 98
0
1001
ACAD
1010
0.0
1020
0.0
1030
0
  0
HATCH
  5
266
100
AcDbEntity
  8
Step_08
 62
252
420
10526884
370
-1
 48
1.0
  6
BYLAYER
100
AcDbHatch
 10
0.0
 20
0.0
 30
0.0
210
0.0
220
0.0
230
1.0
  2
AR-RROOF
 70
0
 71
0
 91
1
 92
1
 93
4
 72
1
 10
94.2966544023705637
 20
62.9724058217527087
 11
1.7966544023705637
 21
62.9724058217527087
 72
1
 10
1.7966544023705637
 20
62.9724058217527087
 11
1.7966544023705637
 21
48.9724058217527087
 72
1
 10
1.7966544023705637
 20
48.9724058217527087
 11
94.2966544023705495
 21
48.9724058217527087
 72
1
 10
94.2966544023705637
 20
48.9724058217527087
 11
94.2966544023705637
 21
62.9724058217527087
 97
0
 75
0
 76
1
 52
0.0
 41
1.0
 77
0
 78
1
 53
45.0
 43
0.0
 44
0.0
 45
-0.0883883476483184
 46
0.0883883476483185
 79
0
 98
0
1001
ACAD
1010
0.0
1020
0.0
1030
0
  0
HATCH
  5
267
100
AcDbEntity
  8
Step_08
 62
252
420
10526884
370
-1
 48
1.0
  6
BYLAYER
100
AcDbHatch
 10
0.0
 20
0.0
 30
0.0
210
0.0
220
0.0
230
1.0
  2
AR-RROOF
 70
0
 71
0
 91
1
 92
1
 93
4
 72
1
 10
94.2966544023705637
 20
46.9724058217527087
 11
1.7966544023705637
 21
46.9724058217527087
 72
1
 10
1.7966544023705637
 20
46.9724058217527087
 11
1.7966544023705637
 21
32.9724058217527087
 72
1
 10
1.7966544023705637
 20
32.9724058217527087
 11
94.2966544023705495
 21
32.9724058217527087
 72
1
 10
94.2966544023705637
 20
32.9724058217527087
 11
94.2966544023705637
 21
46.9724058217527087
 97
0
 75
0
 76
1
 52
0.0
 41
1.0
 77
0
 78
1
 53
45.0
 43
0.0
 44
0.0
 45
-0.0883883476483184
 46
0.0883883476483185
 79
0
 98
0
1001
ACAD
1010
0.0
1020
0.0
1030
0
  0
HATCH
  5
268
100
AcDbEntity
  8
Step_09
 62
252
420
10526884
370
-1
 48
1.0
  6
BYLAYER
100
AcDbHatch
 10
0.0
 20
0.0
 30
0.0
210
0.0
220
0.0
230
1.0
  2
AR-RROOF
 70
0
 71
0
 91
1
 92
1
 93
4
 72
1
 10
94.2966544023705637
 20
62.9724058217527087
 11
1.7966544023705637
 21
62.9724058217527087
 72
1
 10
1.7966544023705637
 20
62.9724058217527087
 11
1.7966544023705637
 21
48.9724058217527087
 72
1
 10
1.7966544023705637
 20
48.9724058217527087
 11
94.2966544023705495
 21
48.9724058217527087
 72
1
 10
94.2966544023705637
 20
48.9724058217527087
 11
94.2966544023705637
 21
62.9724058217527087
 97
0
 75
0
 76
1
 52
0.0
 41
1.0
 77
0
 78
1
 53
45.0
 43
0.0
 44
0.0
 45
-0.0883883476483184
 46
0.0883883476483185
 79
0
 98
0
1001
ACAD
1010
0.0
1020
0.0
1030
0
  0
HATCH
  5
269
100
AcDbEntity
  8
Step_09
 62
252
420
10526884
370
-1
 48
1.0
  6
BYLAYER
100
AcDbHatch
 10
0.0
 20
0.0
 30
0.0
210
0.0
220
0.0
230
1.0
  2
AR-RROOF
 70
0
 71
0
 91
1
 92
1
 93
4
 72
1
 10
94.2966544023705637
 20
46.9724058217527087
 11
1.7966544023705637
 21
46.9724058217527087
 72
1
 10
1.7966544023705637
 20
46.9724058217527087
 11
1.7966544023705637
 21
32.9724058217527087
 72
1
 10
1.7966544023705637
 20
32.9724058217527087
 11
94.2966544023705495
 21
32.9724058217527087
 72
1
 10
94.2966544023705637
 20
32.9724058217527087
 11
94.2966544023705637
 21
46.9724058217527087
 97
0
 75
0
 76
1
 52
0.0
 41
1.0
 77
0
 78
1
 53
45.0
 43
0.0
 44
0.0
 45
-0.0883883476483184
 46
0.0883883476483185
 79
0
 98
0
1001
ACAD
1010
0.0
1020
0.0
1030
0
  0
HATCH
  5
26A
100
AcDbEntity
  8
Step_09
 62
252
420
10526884
370
-1
 48
1.0
  6
BYLAYER
100
AcDbHatch
 10
0.0
 20
0.0
 30
0.0
210
0.0
220
0.0
230
1.0
  2
AR-RROOF
 70
0
 71
0
 91
1
 92
1
 93
4
 72
1
 10
94.2966544023705637
 20
94.9724058217527158
 11
1.7966544023705637
 21
94.9724058217527158
 72
1
 10
1.7966544023705637
 20
94.9724058217527158
 11
1.7966544023705637
 21
80.9724058217527158
 72
1
 10
1.7966544023705637
 20
80.9724058217527158
 11
94.2966544023705495
 21
80.9724058217527158
 72
1
 10
94.2966544023705637
 20
80.9724058217527158
 11
94.2966544023705637
 21
94.9724058217527158
 97
0
 75
0
 76
1
 52
0.0
 41
1.0
 77
0
 78
1
 53
45.0
 43
0.0
 44
0.0
 45
-0.0883883476483184
 46
0.0883883476483185
 79
0
 98
0
1001
ACAD
1010
0.0
1020
0.0
1030
0
  0
HATCH
  5
26B
100
AcDbEntity
  8
Step_09
 62
252
420
10526884
370
-1
 48
1.0
  6
BYLAYER
100
AcDbHatch
 10
0.0
 20
0.0
 30
0.0
210
0.0
220
0.0
230
1.0
  2
AR-RROOF
 70
0
 71
0
 91
1
 92
1
 93
4
 72
1
 10
94.2966544023705637
 20
78.9724058217527158
 11
1.7966544023705637
 21
78.9724058217527158
 72
1
 10
1.7966544023705637
 20
78.9724058217527158
 11
1.7966544023705637
 21
64.9724058217527158
 72
1
 10
1.7966544023705637
 20
64.9724058217527158
 11
94.2966544023705495
 21
64.9724058217527158
 72
1
 10
94.2966544023705637
 20
64.9724058217527158
 11
94.2966544023705637
 21
78.9724058217527158
 97
0
 75
0
 76
1
 52
0.0
 41
1.0
 77
0
 78
1
 53
45.0
 43
0.0
 44
0.0
 45
-0.0883883476483184
 46
0.0883883476483185
 79
0
 98
0
1001
ACAD
1010
0.0
1020
0.0
1030
0
  0
HATCH
  5
26C
100
AcDbEntity
  8
Step_10
 62
252
420
10526884
370
-1
 48
1.0
  6
BYLAYER
100
AcDbHatch
 10
0.0
 20
0.0
 30
0.0
210
0.0
220
0.0
230
1.0
  2
AR-RROOF
 70
0
 71
0
 91
1
 92
1
 93
4
 72
1
 10
94.2966544023705637
 20
30.9724058217527087
 11
1.7966544023705637
 21
30.9724058217527087
 72
1
 10
1.7966544023705637
 20
30.9724058217527087
 11
1.7966544023705637
 21
16.9724058217527087
 72
1
 10
1.7966544023705637
 20
16.9724058217527087
 11
94.2966544023705495
 21
16.9724058217527087
 72
1
 10
94.2966544023705637
 20
16.9724058217527087
 11
94.2966544023705637
 21
30.9724058217527087
 97
0
 75
0
 76
1
 52
0.0
 41
1.0
 77
0
 78
1
 53
45.0
 43
0.0
 44
0.0
 45
-0.0883883476483184
 46
0.0883883476483185
 79
0
 98
0
1001
ACAD
1010
0.0
1020
0.0
1030
0
  0
HATCH
  5
26D
100
AcDbEntity
  8
Step_10
 62
252
420
10526884
370
-1
 48
1.0
  6
BYLAYER
100
AcDbHatch
 10
0.0
 20
0.0
 30
0.0
210
0.0
220
0.0
230
1.0
  2
AR-RROOF
 70
0
 71
0
 91
1
 92
1
 93
4
 72
1
 10
94.2966544023705637
 20
46.9724058217527087
 11
1.7966544023705637
 21
46.9724058217527087
 72
1
 10
1.7966544023705637
 20
46.9724058217527087
 11
1.7966544023705637
 21
32.9724058217527087
 72
1
 10
1.7966544023705637
 20
32.9724058217527087
 11
94.2966544023705495
 21
32.9724058217527087
 72
1
 10
94.2966544023705637
 20
32.9724058217527087
 11
94.2966544023705637
 21
46.9724058217527087
 97
0
 75
0
 76
1
 52
0.0
 41
1.0
 77
0
 78
1
 53
45.0
 43
0.0
 44
0.0
 45
-0.0883883476483184
 46
0.0883883476483185
 79
0
 98
0
1001
ACAD
1010
0.0
1020
0.0
1030
0
  0
LINE
  5
26E
100
AcDbEntity
  8
Step_09
 62
256
370
-1
 48
1.0
  6
BYLAYER
100
AcDbLine
 10
0.0
 20
96.0
 30
0.0
 11
96.0
 21
96.0
 31
0.0
  0
LINE
  5
26F
100
AcDbEntity
  8
Step_10
 62
256
370
-1
 48
1.0
  6
BYLAYER
100
AcDbLine
 10
0.0
 20
96.0
 30
0.0
 11
96.0
 21
96.0
 31
0.0
  0
LINE
  5
270
100
AcDbEntity
  8
Step_10
 62
256
370
-1
 48
1.0
  6
BYLAYER
100
AcDbLine
 10
0.0
 20
48.0
 30
0.0
 11
96.0
 21
48.0
 31
0.0
  0
LINE
  5
271
100
AcDbEntity
  8
Step_11
 62
256
370
-1
 48
1.0
  6
BYLAYER
100
AcDbLine
 10
0.0
 20
96.0
 30
0.0
 11
96.0
 21
96.0
 31
0.0
  0
LINE
  5
272
100
AcDbEntity
  8
Step_11
 62
256
370
-1
 48
1.0
  6
BYLAYER
100
AcDbLine
 10
0.0
 20
48.0
 30
0.0
 11
96.0
 21
48.0
 31
0.0
  0
LINE
  5
273
100
AcDbEntity
  8
Step_11
 62
256
370
-1
 48
1.0
  6
BYLAYER
100
AcDbLine
 10
0.0
 20
48.0
 30
0.0
 11
96.0
 21
48.0
 31
0.0
  0
LINE
  5
274
100
AcDbEntity
  8
Step_11
 62
256
370
-1
 48
1.0
  6
BYLAYER
100
AcDbLine
 10
0.0
 20
0.0
 30
0.0
 11
96.0
 21
0.0
 31
0.0
  0
LINE
  5
275
100
AcDbEntity
  8
Step_09
 62
256
370
-1
 48
1.0
  6
BYLAYER
100
AcDbLine
 10
96.0
 20
96.0
 30
0.0
 11
96.0
 21
144.0
 31
0.0
  0
LINE
  5
276
100
AcDbEntity
  8
Step_10
 62
256
370
-1
 48
1.0
  6
BYLAYER
100
AcDbLine
 10
96.0
 20
96.0
 30
0.0
 11
96.0
 21
144.0
 31
0.0
  0
LINE
  5
277
100
AcDbEntity
  8
Step_10
 62
256
370
-1
 48
1.0
  6
BYLAYER
100
AcDbLine
 10
96.0
 20
48.0
 30
0.0
 11
96.0
 21
96.0
 31
0.0
  0
LINE
  5
278
100
AcDbEntity
  8
Step_11
 62
256
370
-1
 48
1.0
  6
BYLAYER
100
AcDbLine
 10
96.0
 20
96.0
 30
0.0
 11
96.0
 21
144.0
 31
0.0
  0
LINE
  5
279
100
AcDbEntity
  8
Step_11
 62
256
370
-1
 48
1.0
  6
BYLAYER
100
AcDbLine
 10
96.0
 20
48.0
 30
0.0
 11
96.0
 21
96.0
 31
0.0
  0
LINE
  5
27A
100
AcDbEntity
  8
Step_11
 62
256
370
-1
 48
1.0
  6
BYLAYER
100
AcDbLine
 10
96.0
 20
0.0
 30
0.0
 11
96.0
 21
48.0
 31
0.0
  0
LINE
  5
27B
100
AcDbEntity
  8
Step_09
 62
256
370
-1
 48
1.0
  6
BYLAYER
100
AcDbLine
 10
96.0
 20
144.0
 30
0.0
 11
0.0
 21
144.0
 31
0.0
  0
LINE
  5
27C
100
AcDbEntity
  8
Step_10
 62
256
370
-1
 48
1.0
  6
BYLAYER
100
AcDbLine
 10
96.0
 20
144.0
 30
0.0
 11
0.0
 21
144.0
 31
0.0
  0
LINE
  5
27D
100
AcDbEntity
  8
Step_10
 62
256
370
-1
 48
1.0
  6
BYLAYER
100
AcDbLine
 10
96.0
 20
96.0
 30
0.0
 11
0.0
 21
96.0
 31
0.0
  0
LINE
  5
27E
100
AcDbEntity
  8
Step_11
 62
256
370
-1
 48
1.0
  6
BYLAYER
100
AcDbLine
 10
96.0
 20
144.0
 30
0.0
 11
0.0
 21
144.0
 31
0.0
  0
LINE
  5
27F
100
AcDbEntity
  8
Step_11
 62
256
370
-1
 48
1.0
  6
BYLAYER
100
AcDbLine
 10
96.0
 20
96.0
 30
0.0
 11
0.0
 21
96.0
 31
0.0
  0
LINE
  5
280
100
AcDbEntity
  8
Step_09
 62
256
370
-1
 48
1.0
  6
BYLAYER
100
AcDbLine
 10
0.0
 20
144.0
 30
0.0
 11
0.0
 21
96.0
 31
0.0
  0
LINE
  5
281
100
AcDbEntity
  8
Step_10
 62
256
370
-1
 48
1.0
  6
BYLAYER
100
AcDbLine
 10
0.0
 20
144.0
 30
0.0
 11
0.0
 21
96.0
 31
0.0
  0
LINE
  5
282
100
AcDbEntity
  8
Step_10
 62
256
370
-1
 48
1.0
  6
BYLAYER
100
AcDbLine
 10
0.0
 20
96.0
 30
0.0
 11
0.0
 21
48.0
 31
0.0
  0
LINE
  5
283
100
AcDbEntity
  8
Step_11
 62
256
370
-1
 48
1.0
  6
BYLAYER
100
AcDbLine
 10
0.0
 20
144.0
 30
0.0
 11
0.0
 21
96.0
 31
0.0
  0
LINE
  5
284
100
AcDbEntity
  8
Step_11
 62
256
370
-1
 48
1.0
  6
BYLAYER
100
AcDbLine
 10
0.0
 20
96.0
 30
0.0
 11
0.0
 21
48.0
 31
0.0
  0
LINE
  5
285
100
AcDbEntity
  8
Step_11
 62
256
370
-1
 48
1.0
  6
BYLAYER
100
AcDbLine
 10
0.0
 20
48.0
 30
0.0
 11
0.0
 21
0.0
 31
0.0
  0
MTEXT
  5
286
100
AcDbEntity
  8
Step_09
 62
256
370
-1
 48
1.0
  6
BYLAYER
100
AcDbMText
 10
34.4321693879853186
 20
123.0173270951962508
 30
0.0
 40
3.0
 41
0.0
 71
1
 72
1
  1
\H4.00001;Panel 1
  7
textstyle40
 50
0.0
 73
2
 44
1.0
  0
MTEXT
  5
287
100
AcDbEntity
  8
Step_10
 62
256
370
-1
 48
1.0
  6
BYLAYER
100
AcDbMText
 10
34.1162450183684385
 20
76.6148876335936961
 30
0.0
 40
3.0
 41
0.0
 71
1
 72
1
  1
\H4.00001;Panel 2
  7
textstyle41
 50
0.0
 73
2
 44
1.0
  0
MTEXT
  5
288
100
AcDbEntity
  8
Step_11
 62
256
370
-1
 48
1.0
  6
BYLAYER
100
AcDbMText
 10
33.8960679581321784
 20
27.3019554692946969
 30
0.0
 40
3.0
 41
0.0
 71
1
 72
1
  1
\H4.00001;Panel 3
  7
textstyle42
 50
0.0
 73
2
 44
1.0
  0
MTEXT
  5
289
100
AcDbEntity
  8
Step_10
 62
256
370
-1
 48
1.0
  6
BYLAYER
100
AcDbMText
 10
34.4321693879853257
 20
123.0173270951962365
 30
0.0
 40
3.0
 41
0.0
 71
1
 72
1
  1
\H4.00001;Panel 1
  7
textstyle43
 50
0.0
 73
2
 44
1.0
  0
MTEXT
  5
28A
100
AcDbEntity
  8
Step_11
 62
256
370
-1
 48
1.0
  6
BYLAYER
100
AcDbMText
 10
34.1162450183684385
 20
76.6148876335936961
 30
0.0
 40
3.0
 41
0.0
 71
1
 72
1
  1
\H4.00001;Panel 2
  7
textstyle44
 50
0.0
 73
2
 44
1.0
  0
MTEXT
  5
28B
100
AcDbEntity
  8
Step_11
 62
256
370
-1
 48
1.0
  6
BYLAYER
100
AcDbMText
 10
34.4321693879853186
 20
123.0173270951962081
 30
0.0
 40
3.0
 41
0.0
 71
1
 72
1
  1
\H4.00001;Panel 1
  7
textstyle45
 50
0.0
 73
2
 44
1.0
  0
LINE
  5
28C
100
AcDbEntity
  8
Step_04-Framing
 62
256
370
-1
 48
1.0
  6
BYLAYER
100
AcDbLine
 10
80.0
 20
0.0
 30
0.0
 11
83.5
 21
0.0
 31
0.0
  0
LINE
  5
28D
100
AcDbEntity
  8
Step_04-Framing
 62
256
370
-1
 48
1.0
  6
BYLAYER
100
AcDbLine
 10
12.5
 20
0.0
 30
0.0
 11
16.0
 21
0.0
 31
0.0
  0
LINE
  5
28E
100
AcDbEntity
  8
Step_04-Framing
 62
256
370
-1
 48
1.0
  6
BYLAYER
100
AcDbLine
 10
0.0
 20
0.0
 30
0.0
 11
0.0
 21
144.0
 31
0.0
  0
LINE
  5
28F
100
AcDbEntity
  8
Step_04-Framing
 62
256
370
-1
 48
1.0
  6
BYLAYER
100
AcDbLine
 10
0.0
 20
144.0
 30
0.0
 11
1.5
 21
144.0
 31
0.0
  0
LINE
  5
290
100
AcDbEntity
  8
Step_04-Framing
 62
256
370
-1
 48
1.0
  6
BYLAYER
100
AcDbLine
 10
1.5
 20
144.0
 30
0.0
 11
1.5
 21
0.0
 31
0.0
  0
LINE
  5
291
100
AcDbEntity
  8
Step_04-Framing
 62
256
370
-1
 48
1.0
  6
BYLAYER
100
AcDbLine
 10
1.5
 20
0.0
 30
0.0
 11
0.0
 21
0.0
 31
0.0
  0
LINE
  5
292
100
AcDbEntity
  8
Step_04-Framing
 62
256
370
-1
 48
1.0
  6
BYLAYER
100
AcDbLine
 10
94.5
 20
144.0
 30
0.0
 11
96.0
 21
144.0
 31
0.0
  0
LINE
  5
293
100
AcDbEntity
  8
Step_04-Framing
 62
256
370
-1
 48
1.0
  6
BYLAYER
100
AcDbLine
 10
96.0
 20
144.0
 30
0.0
 11
96.0
 21
0.0
 31
0.0
  0
LINE
  5
294
100
AcDbEntity
  8
Step_04-Framing
 62
256
370
-1
 48
1.0
  6
BYLAYER
100
AcDbLine
 10
96.0
 20
0.0
 30
0.0
 11
94.5
 21
0.0
 31
0.0
  0
LINE
  5
295
100
AcDbEntity
  8
Step_04-Framing
 62
256
370
-1
 48
1.0
  6
BYLAYER
100
AcDbLine
 10
1.5
 20
0.0
 30
0.0
 11
94.5
 21
0.0
 31
0.0
  0
LINE
  5
296
100
AcDbEntity
  8
Step_04-Framing
 62
256
370
-1
 48
1.0
  6
BYLAYER
100
AcDbLine
 10
94.5
 20
0.0
 30
0.0
 11
94.5
 21
1.5
 31
0.0
  0
LINE
  5
297
100
AcDbEntity
  8
Step_04-Framing
 62
256
370
-1
 48
1.0
  6
BYLAYER
100
AcDbLine
 10
94.5
 20
1.5
 30
0.0
 11
1.5
 21
1.5
 31
0.0
  0
LINE
  5
298
100
AcDbEntity
  8
Step_04-Framing
 62
256
370
-1
 48
1.0
  6
BYLAYER
100
AcDbLine
 10
1.5
 20
1.5
 30
0.0
 11
1.5
 21
0.0
 31
0.0
  0
LINE
  5
299
100
AcDbEntity
  8
Step_04-Framing
 62
256
370
-1
 48
1.0
  6
BYLAYER
100
AcDbLine
 10
1.5
 20
1.5
 30
0.0
 11
94.5
 21
1.5
 31
0.0
  0
LINE
  5
29A
100
AcDbEntity
  8
Step_04-Framing
 62
256
370
-1
 48
1.0
  6
BYLAYER
100
AcDbLine
 10
94.5
 20
1.5
 30
0.0
 11
94.5
 21
3.0
 31
0.0
  0
LINE
  5
29B
100
AcDbEntity
  8
Step_04-Framing
 62
256
370
-1
 48
1.0
  6
BYLAYER
100
AcDbLine
 10
94.5
 20
3.0
 30
0.0
 11
1.5
 21
3.0
 31
0.0
  0
LINE
  5
29C
100
AcDbEntity
  8
Step_04-Framing
 62
256
370
-1
 48
1.0
  6
BYLAYER
100
AcDbLine
 10
1.5
 20
3.0
 30
0.0
 11
1.5
 21
1.5
 31
0.0
  0
LINE
  5
29D
100
AcDbEntity
  8
Step_04-Framing
 62
256
370
-1
 48
1.0
  6
BYLAYER
100
AcDbLine
 10
1.5
 20
15.25
 30
0.0
 11
94.5
 21
15.25
 31
0.0
  0
LINE
  5
29E
100
AcDbEntity
  8
Step_04-Framing
 62
256
370
-1
 48
1.0
  6
BYLAYER
100
AcDbLine
 10
94.5
 20
15.25
 30
0.0
 11
94.5
 21
16.75
 31
0.0
  0
LINE
  5
29F
100
AcDbEntity
  8
Step_04-Framing
 62
256
370
-1
 48
1.0
  6
BYLAYER
100
AcDbLine
 10
94.5
 20
16.75
 30
0.0
 11
1.5
 21
16.75
 31
0.0
  0
LINE
  5
2A0
100
AcDbEntity
  8
Step_04-Framing
 62
256
370
-1
 48
1.0
  6
BYLAYER
100
AcDbLine
 10
1.5
 20
16.75
 30
0.0
 11
1.5
 21
15.25
 31
0.0
  0
LINE
  5
2A1
100
AcDbEntity
  8
Step_04-Framing
 62
256
370
-1
 48
1.0
  6
BYLAYER
100
AcDbLine
 10
1.5
 20
31.25
 30
0.0
 11
94.5
 21
31.25
 31
0.0
  0
LINE
  5
2A2
100
AcDbEntity
  8
Step_04-Framing
 62
256
370
-1
 48
1.0
  6
BYLAYER
100
AcDbLine
 10
94.5
 20
31.25
 30
0.0
 11
94.5
 21
32.75
 31
0.0
  0
LINE
  5
2A3
100
AcDbEntity
  8
Step_04-Framing
 62
256
370
-1
 48
1.0
  6
BYLAYER
100
AcDbLine
 10
94.5
 20
32.75
 30
0.0
 11
1.5
 21
32.75
 31
0.0
  0
LINE
  5
2A4
100
AcDbEntity
  8
Step_04-Framing
 62
256
370
-1
 48
1.0
  6
BYLAYER
100
AcDbLine
 10
1.5
 20
32.75
 30
0.0
 11
1.5
 21
31.25
 31
0.0
  0
LINE
  5
2A5
100
AcDbEntity
  8
Step_04-Framing
 62
256
370
-1
 48
1.0
  6
BYLAYER
100
AcDbLine
 10
1.5
 20
47.25
 30
0.0
 11
94.5
 21
47.25
 31
0.0
  0
LINE
  5
2A6
100
AcDbEntity
  8
Step_04-Framing
 62
256
370
-1
 48
1.0
  6
BYLAYER
100
AcDbLine
 10
94.5
 20
47.25
 30
0.0
 11
94.5
 21
48.75
 31
0.0
  0
LINE
  5
2A7
100
AcDbEntity
  8
Step_04-Framing
 62
256
370
-1
 48
1.0
  6
BYLAYER
100
AcDbLine
 10
94.5
 20
48.75
 30
0.0
 11
1.5
 21
48.75
 31
0.0
  0
LINE
  5
2A8
100
AcDbEntity
  8
Step_04-Framing
 62
256
370
-1
 48
1.0
  6
BYLAYER
100
AcDbLine
 10
1.5
 20
48.75
 30
0.0
 11
1.5
 21
47.25
 31
0.0
  0
LINE
  5
2A9
100
AcDbEntity
  8
Step_04-Framing
 62
256
370
-1
 48
1.0
  6
BYLAYER
100
AcDbLine
 10
1.5
 20
63.25
 30
0.0
 11
94.5
 21
63.25
 31
0.0
  0
LINE
  5
2AA
100
AcDbEntity
  8
Step_04-Framing
 62
256
370
-1
 48
1.0
  6
BYLAYER
100
AcDbLine
 10
94.5
 20
63.25
 30
0.0
 11
94.5
 21
64.75
 31
0.0
  0
LINE
  5
2AB
100
AcDbEntity
  8
Step_04-Framing
 62
256
370
-1
 48
1.0
  6
BYLAYER
100
AcDbLine
 10
94.5
 20
64.75
 30
0.0
 11
1.5
 21
64.75
 31
0.0
  0
LINE
  5
2AC
100
AcDbEntity
  8
Step_04-Framing
 62
256
370
-1
 48
1.0
  6
BYLAYER
100
AcDbLine
 10
1.5
 20
64.75
 30
0.0
 11
1.5
 21
63.25
 31
0.0
  0
LINE
  5
2AD
100
AcDbEntity
  8
Step_04-Framing
 62
256
370
-1
 48
1.0
  6
BYLAYER
100
AcDbLine
 10
1.5
 20
79.25
 30
0.0
 11
94.5
 21
79.25
 31
0.0
  0
LINE
  5
2AE
100
AcDbEntity
  8
Step_04-Framing
 62
256
370
-1
 48
1.0
  6
BYLAYER
100
AcDbLine
 10
94.5
 20
79.25
 30
0.0
 11
94.5
 21
80.75
 31
0.0
  0
LINE
  5
2AF
100
AcDbEntity
  8
Step_04-Framing
 62
256
370
-1
 48
1.0
  6
BYLAYER
100
AcDbLine
 10
94.5
 20
80.75
 30
0.0
 11
1.5
 21
80.75
 31
0.0
  0
LINE
  5
2B0
100
AcDbEntity
  8
Step_04-Framing
 62
256
370
-1
 48
1.0
  6
BYLAYER
100
AcDbLine
 10
1.5
 20
80.75
 30
0.0
 11
1.5
 21
79.25
 31
0.0
  0
LINE
  5
2B1
100
AcDbEntity
  8
Step_04-Framing
 62
256
370
-1
 48
1.0
  6
BYLAYER
100
AcDbLine
 10
1.5
 20
95.25
 30
0.0
 11
94.5
 21
95.25
 31
0.0
  0
LINE
  5
2B2
100
AcDbEntity
  8
Step_04-Framing
 62
256
370
-1
 48
1.0
  6
BYLAYER
100
AcDbLine
 10
94.5
 20
95.25
 30
0.0
 11
94.5
 21
96.75
 31
0.0
  0
LINE
  5
2B3
100
AcDbEntity
  8
Step_04-Framing
 62
256
370
-1
 48
1.0
  6
BYLAYER
100
AcDbLine
 10
94.5
 20
96.75
 30
0.0
 11
1.5
 21
96.75
 31
0.0
  0
LINE
  5
2B4
100
AcDbEntity
  8
Step_04-Framing
 62
256
370
-1
 48
1.0
  6
BYLAYER
100
AcDbLine
 10
1.5
 20
96.75
 30
0.0
 11
1.5
 21
95.25
 31
0.0
  0
LINE
  5
2B5
100
AcDbEntity
  8
Step_04-Framing
 62
256
370
-1
 48
1.0
  6
BYLAYER
100
AcDbLine
 10
1.5
 20
111.25
 30
0.0
 11
94.5
 21
111.25
 31
0.0
  0
LINE
  5
2B6
100
AcDbEntity
  8
Step_04-Framing
 62
256
370
-1
 48
1.0
  6
BYLAYER
100
AcDbLine
 10
94.5
 20
111.25
 30
0.0
 11
94.5
 21
112.75
 31
0.0
  0
LINE
  5
2B7
100
AcDbEntity
  8
Step_04-Framing
 62
256
370
-1
 48
1.0
  6
BYLAYER
100
AcDbLine
 10
94.5
 20
112.75
 30
0.0
 11
1.5
 21
112.75
 31
0.0
  0
LINE
  5
2B8
100
AcDbEntity
  8
Step_04-Framing
 62
256
370
-1
 48
1.0
  6
BYLAYER
100
AcDbLine
 10
1.5
 20
112.75
 30
0.0
 11
1.5
 21
111.25
 31
0.0
  0
LINE
  5
2B9
100
AcDbEntity
  8
Step_04-Framing
 62
256
370
-1
 48
1.0
  6
BYLAYER
100
AcDbLine
 10
1.5
 20
127.25
 30
0.0
 11
94.5
 21
127.25
 31
0.0
  0
LINE
  5
2BA
100
AcDbEntity
  8
Step_04-Framing
 62
256
370
-1
 48
1.0
  6
BYLAYER
100
AcDbLine
 10
94.5
 20
127.25
 30
0.0
 11
94.5
 21
128.75
 31
0.0
  0
LINE
  5
2BB
100
AcDbEntity
  8
Step_04-Framing
 62
256
370
-1
 48
1.0
  6
BYLAYER
100
AcDbLine
 10
94.5
 20
128.75
 30
0.0
 11
1.5
 21
128.75
 31
0.0
  0
LINE
  5
2BC
100
AcDbEntity
  8
Step_04-Framing
 62
256
370
-1
 48
1.0
  6
BYLAYER
100
AcDbLine
 10
1.5
 20
128.75
 30
0.0
 11
1.5
 21
127.25
 31
0.0
  0
LINE
  5
2BD
100
AcDbEntity
  8
Step_04-Framing
 62
256
370
-1
 48
1.0
  6
BYLAYER
100
AcDbLine
 10
1.5
 20
142.5
 30
0.0
 11
94.5
 21
142.5
 31
0.0
  0
LINE
  5
2BE
100
AcDbEntity
  8
Step_04-Framing
 62
256
370
-1
 48
1.0
  6
BYLAYER
100
AcDbLine
 10
94.5
 20
142.5
 30
0.0
 11
94.5
 21
144.0
 31
0.0
  0
LINE
  5
2BF
100
AcDbEntity
  8
Step_04-Framing
 62
256
370
-1
 48
1.0
  6
BYLAYER
100
AcDbLine
 10
94.5
 20
144.0
 30
0.0
 11
1.5
 21
144.0
 31
0.0
  0
LINE
  5
2C0
100
AcDbEntity
  8
Step_04-Framing
 62
256
370
-1
 48
1.0
  6
BYLAYER
100
AcDbLine
 10
1.5
 20
144.0
 30
0.0
 11
1.5
 21
142.5
 31
0.0
  0
LINE
  5
2C1
100
AcDbEntity
  8
Step_04-Framing
 62
256
370
-1
 48
1.0
  6
BYLAYER
100
AcDbLine
 10
1.5
 20
141.0
 30
0.0
 11
94.5
 21
141.0
 31
0.0
  0
LINE
  5
2C2
100
AcDbEntity
  8
Step_04-Framing
 62
256
370
-1
 48
1.0
  6
BYLAYER
100
AcDbLine
 10
94.5
 20
141.0
 30
0.0
 11
94.5
 21
142.5
 31
0.0
  0
LINE
  5
2C3
100
AcDbEntity
  8
Step_04-Framing
 62
256
370
-1
 48
1.0
  6
BYLAYER
100
AcDbLine
 10
94.5
 20
142.5
 30
0.0
 11
1.5
 21
142.5
 31
0.0
  0
LINE
  5
2C4
100
AcDbEntity
  8
Step_04-Framing
 62
256
370
-1
 48
1.0
  6
BYLAYER
100
AcDbLine
 10
1.5
 20
142.5
 30
0.0
 11
1.5
 21
141.0
 31
0.0
  0
LINE
  5
2C5
100
AcDbEntity
  8
Step_04-Framing
 62
256
370
-1
 48
1.0
  6
BYLAYER
100
AcDbLine
 10
94.5
 20
0.0
 30
0.0
 11
94.5
 21
144.0
 31
0.0
  0
LINE
  5
2C6
100
AcDbEntity
  8
Step_04-Framing
 62
256
370
-1
 48
1.0
  6
BYLAYER
100
AcDbLine
 10
0.0
 20
0.0
 30
0.0
 11
0.0
 21
144.0
 31
0.0
  0
LINE
  5
2C7
100
AcDbEntity
  8
Step_04-Framing
 62
256
370
-1
 48
1.0
  6
BYLAYER
100
AcDbLine
 10
94.5
 20
0.0
 30
0.0
 11
94.5
 21
144.0
 31
0.0
  0
LEADER
  5
2C8
100
AcDbEntity
  8
Step_02
 62
256
370
-1
 48
1.0
  6
BYLAYER
100
AcDbLeader
  3
Standard
 71
1
 72
0
 73
3
 74
0
 75
0
 40
1.0
 41
10.0
 76
3
 10
21.0
 20
141.0
 10
21.0
 20
134.5
 10
24.0
 20
134.5
1001
ACAD
1000
DSTYLE
1002
{
1070
40
1040
1.0
1002
}
  0
LEADER
  5
2C9
100
AcDbEntity
  8
Step_02
 62
256
370
-1
 48
1.0
  6
BYLAYER
100
AcDbLeader
  3
Standard
 71
1
 72
0
 73
3
 74
0
 75
0
 40
1.0
 41
10.0
 76
3
 10
79.0
 20
140.9999999999999716
 10
79.0
 20
134.5
 10
76.0
 20
134.5
1001
ACAD
1000
DSTYLE
1002
{
1070
40
1040
1.0
1002
}
  0
LEADER
  5
2CA
100
AcDbEntity
  8
Step_02
 62
256
370
-1
 48
1.0
  6
BYLAYER
100
AcDbLeader
  3
Standard
 71
1
 72
0
 73
3
 74
0
 75
0
 40
1.0
 41
10.0
 76
3
 10
21.0
 20
3.0
 10
21.0
 20
8.5
 10
25.0
 20
8.5
1001
ACAD
1000
DSTYLE
1002
{
1070
40
1040
1.0
1002
}
  0
LEADER
  5
2CB
100
AcDbEntity
  8
Step_02
 62
256
370
-1
 48
1.0
  6
BYLAYER
100
AcDbLeader
  3
Standard
 71
1
 72
0
 73
3
 74
0
 75
0
 40
1.0
 41
10.0
 76
3
 10
79.0
 20
3.0
 10
79.0
 20
8.5
 10
75.0
 20
8.5
1001
ACAD
1000
DSTYLE
1002
{
1070
40
1040
1.0
1002
}
  0
MTEXT
  5
2CC
100
AcDbEntity
  8
Step_08
 62
256
370
-1
 48
1.0
  6
BYLAYER
100
AcDbMText
 10
31.458843657135354
 20
74.4846999072205733
 30
0.0
 40
3.0
 41
0.0
 71
1
 72
1
  1
RIGID INSULATION
  7
textstyle89
 50
0.0
 73
2
 44
1.0
  0
MTEXT
  5
2CD
100
AcDbEntity
  8
Step_09
 62
256
370
-1
 48
1.0
  6
BYLAYER
100
AcDbMText
 10
31.4588436571353611
 20
74.4846999072205733
 30
0.0
 40
3.0
 41
0.0
 71
1
 72
1
  1
RIGID INSULATION
  7
textstyle90
 50
0.0
 73
2
 44
1.0
  0
MTEXT
  5
2CE
100
AcDbEntity
  8
Step_10
 62
256
370
-1
 48
1.0
  6
BYLAYER
100
AcDbMText
 10
31.4588436571353647
 20
26.4846999072205769
 30
0.0
 40
3.0
 41
0.0
 71
1
 72
1
  1
RIGID INSULATION
  7
textstyle91
 50
0.0
 73
2
 44
1.0
  0
LINE
  5
2CF
100
AcDbEntity
  8
Step_08
 62
256
370
-1
 48
1.0
  6
BYLAYER
100
AcDbLine
 10
1.5
 20
64.75
 30
0.0
 11
94.5
 21
64.75
 31
0.0
  0
LINE
  5
2D0
100
AcDbEntity
  8
Step_08
 62
256
370
-1
 48
1.0
  6
BYLAYER
100
AcDbLine
 10
94.5
 20
64.75
 30
0.0
 11
94.5
 21
79.25
 31
0.0
  0
LINE
  5
2D1
100
AcDbEntity
  8
Step_08
 62
256
370
-1
 48
1.0
  6
BYLAYER
100
AcDbLine
 10
94.5
 20
112.75
 30
0.0
 11
94.5
 21
127.25
 31
0.0
  0
LINE
  5
2D2
100
AcDbEntity
  8
Step_08
 62
256
370
-1
 48
1.0
  6
BYLAYER
100
AcDbLine
 10
94.5
 20
96.75
 30
0.0
 11
94.5
 21
111.25
 31
0.0
  0
LINE
  5
2D3
100
AcDbEntity
  8
Step_08
 62
256
370
-1
 48
1.0
  6
BYLAYER
100
AcDbLine
 10
94.5
 20
80.75
 30
0.0
 11
94.5
 21
95.25
 31
0.0
  0
LINE
  5
2D4
100
AcDbEntity
  8
Step_08
 62
256
370
-1
 48
1.0
  6
BYLAYER
100
AcDbLine
 10
94.5
 20
64.75
 30
0.0
 11
94.5
 21
79.25
 31
0.0
  0
LINE
  5
2D5
100
AcDbEntity
  8
Step_08
 62
256
370
-1
 48
1.0
  6
BYLAYER
100
AcDbLine
 10
94.5
 20
48.75
 30
0.0
 11
94.5
 21
63.25
 31
0.0
  0
LINE
  5
2D6
100
AcDbEntity
  8
Step_08
 62
256
370
-1
 48
1.0
  6
BYLAYER
100
AcDbLine
 10
94.5
 20
32.75
 30
0.0
 11
94.5
 21
47.25
 31
0.0
  0
LINE
  5
2D7
100
AcDbEntity
  8
Step_08
 62
256
370
-1
 48
1.0
  6
BYLAYER
100
AcDbLine
 10
94.5
 20
16.75
 30
0.0
 11
94.5
 21
31.25
 31
0.0
  0
LINE
  5
2D8
100
AcDbEntity
  8
Step_08
 62
256
370
-1
 48
1.0
  6
BYLAYER
100
AcDbLine
 10
94.5
 20
128.75
 30
0.0
 11
94.5
 21
141.0
 31
0.0
  0
LINE
  5
2D9
100
AcDbEntity
  8
Step_08
 62
256
370
-1
 48
1.0
  6
BYLAYER
100
AcDbLine
 10
94.5
 20
3.0
 30
0.0
 11
94.5
 21
15.25
 31
0.0
  0
LINE
  5
2DA
100
AcDbEntity
  8
Step_08
 62
256
370
-1
 48
1.0
  6
BYLAYER
100
AcDbLine
 10
94.5
 20
79.25
 30
0.0
 11
1.5
 21
79.25
 31
0.0
  0
LINE
  5
2DB
100
AcDbEntity
  8
Step_08
 62
256
370
-1
 48
1.0
  6
BYLAYER
100
AcDbLine
 10
1.5
 20
79.25
 30
0.0
 11
1.5
 21
64.75
 31
0.0
  0
LINE
  5
2DC
100
AcDbEntity
  8
Step_08
 62
256
370
-1
 48
1.0
  6
BYLAYER
100
AcDbLine
 10
2.0
 20
65.25
 30
0.0
 11
94.0
 21
65.25
 31
0.0
  0
LINE
  5
2DD
100
AcDbEntity
  8
Step_08
 62
256
370
-1
 48
1.0
  6
BYLAYER
100
AcDbLine
 10
2.0
 20
113.25
 30
0.0
 11
94.0
 21
113.25
 31
0.0
  0
LINE
  5
2DE
100
AcDbEntity
  8
Step_08
 62
256
370
-1
 48
1.0
  6
BYLAYER
100
AcDbLine
 10
2.0
 20
97.25
 30
0.0
 11
94.0
 21
97.25
 31
0.0
  0
LINE
  5
2DF
100
AcDbEntity
  8
Step_08
 62
256
370
-1
 48
1.0
  6
BYLAYER
100
AcDbLine
 10
2.0
 20
81.25
 30
0.0
 11
94.0
 21
81.25
 31
0.0
  0
LINE
  5
2E0
100
AcDbEntity
  8
Step_08
 62
256
370
-1
 48
1.0
  6
BYLAYER
100
AcDbLine
 10
2.0
 20
65.25
 30
0.0
 11
94.0
 21
65.25
 31
0.0
  0
LINE
  5
2E1
100
AcDbEntity
  8
Step_08
 62
256
370
-1
 48
1.0
  6
BYLAYER
100
AcDbLine
 10
2.0
 20
49.25
 30
0.0
 11
94.0
 21
49.25
 31
0.0
  0
LINE
  5
2E2
100
AcDbEntity
  8
Step_08
 62
256
370
-1
 48
1.0
  6
BYLAYER
100
AcDbLine
 10
2.0
 20
33.25
 30
0.0
 11
94.0
 21
33.25
 31
0.0
  0
LINE
  5
2E3
100
AcDbEntity
  8
Step_08
 62
256
370
-1
 48
1.0
  6
BYLAYER
100
AcDbLine
 10
2.0
 20
17.25
 30
0.0
 11
94.0
 21
17.25
 31
0.0
  0
LINE
  5
2E4
100
AcDbEntity
  8
Step_08
 62
256
370
-1
 48
1.0
  6
BYLAYER
100
AcDbLine
 10
2.0000000000000036
 20
129.25
 30
0.0
 11
94.0
 21
129.25
 31
0.0
  0
LINE
  5
2E5
100
AcDbEntity
  8
Step_08
 62
256
370
-1
 48
1.0
  6
BYLAYER
100
AcDbLine
 10
2.0000000000000036
 20
3.5
 30
0.0
 11
94.0
 21
3.5
 31
0.0
  0
LINE
  5
2E6
100
AcDbEntity
  8
Step_08
 62
256
370
-1
 48
1.0
  6
BYLAYER
100
AcDbLine
 10
94.0
 20
65.25
 30
0.0
 11
94.0
 21
78.75
 31
0.0
  0
LINE
  5
2E7
100
AcDbEntity
  8
Step_08
 62
256
370
-1
 48
1.0
  6
BYLAYER
100
AcDbLine
 10
94.0
 20
113.25
 30
0.0
 11
94.0
 21
126.75
 31
0.0
  0
LINE
  5
2E8
100
AcDbEntity
  8
Step_08
 62
256
370
-1
 48
1.0
  6
BYLAYER
100
AcDbLine
 10
94.0
 20
97.25
 30
0.0
 11
94.0
 21
110.75
 31
0.0
  0
LINE
  5
2E9
100
AcDbEntity
  8
Step_08
 62
256
370
-1
 48
1.0
  6
BYLAYER
100
AcDbLine
 10
94.0
 20
81.25
 30
0.0
 11
94.0
 21
94.75
 31
0.0
  0
LINE
  5
2EA
100
AcDbEntity
  8
Step_08
 62
256
370
-1
 48
1.0
  6
BYLAYER
100
AcDbLine
 10
94.0
 20
65.25
 30
0.0
 11
94.0
 21
78.75
 31
0.0
  0
LINE
  5
2EB
100
AcDbEntity
  8
Step_08
 62
256
370
-1
 48
1.0
  6
BYLAYER
100
AcDbLine
 10
94.0
 20
49.25
 30
0.0
 11
94.0
 21
62.75
 31
0.0
  0
LINE
  5
2EC
100
AcDbEntity
  8
Step_08
 62
256
370
-1
 48
1.0
  6
BYLAYER
100
AcDbLine
 10
94.0
 20
33.25
 30
0.0
 11
94.0
 21
46.75
 31
0.0
  0
LINE
  5
2ED
100
AcDbEntity
  8
Step_08
 62
256
370
-1
 48
1.0
  6
BYLAYER
100
AcDbLine
 10
94.0
 20
17.25
 30
0.0
 11
94.0
 21
30.75
 31
0.0
  0
LINE
  5
2EE
100
AcDbEntity
  8
Step_08
 62
256
370
-1
 48
1.0
  6
BYLAYER
100
AcDbLine
 10
94.2334618592777389
 20
129.4479292677740432
 30
0.0
 11
94.2334618592777389
 21
140.6979292677740432
 31
0.0
  0
LINE
  5
2EF
100
AcDbEntity
  8
Step_08
 62
256
370
-1
 48
1.0
  6
BYLAYER
100
AcDbLine
 10
94.0
 20
78.75
 30
0.0
 11
2.0
 21
78.75
 31
0.0
  0
LINE
  5
2F0
100
AcDbEntity
  8
Step_08
 62
256
370
-1
 48
1.0
  6
BYLAYER
100
AcDbLine
 10
94.0
 20
126.75
 30
0.0
 11
2.0
 21
126.75
 31
0.0
  0
LINE
  5
2F1
100
AcDbEntity
  8
Step_08
 62
256
370
-1
 48
1.0
  6
BYLAYER
100
AcDbLine
 10
94.0
 20
110.75
 30
0.0
 11
2.0
 21
110.75
 31
0.0
  0
LINE
  5
2F2
100
AcDbEntity
  8
Step_08
 62
256
370
-1
 48
1.0
  6
BYLAYER
100
AcDbLine
 10
94.0
 20
94.75
 30
0.0
 11
2.0
 21
94.75
 31
0.0
  0
LINE
  5
2F3
100
AcDbEntity
  8
Step_08
 62
256
370
-1
 48
1.0
  6
BYLAYER
100
AcDbLine
 10
94.0
 20
78.75
 30
0.0
 11
2.0
 21
78.75
 31
0.0
  0
LINE
  5
2F4
100
AcDbEntity
  8
Step_08
 62
256
370
-1
 48
1.0
  6
BYLAYER
100
AcDbLine
 10
94.0
 20
62.75
 30
0.0
 11
2.0
 21
62.75
 31
0.0
  0
LINE
  5
2F5
100
AcDbEntity
  8
Step_08
 62
256
370
-1
 48
1.0
  6
BYLAYER
100
AcDbLine
 10
94.0
 20
46.75
 30
0.0
 11
2.0
 21
46.75
 31
0.0
  0
LINE
  5
2F6
100
AcDbEntity
  8
Step_08
 62
256
370
-1
 48
1.0
  6
BYLAYER
100
AcDbLine
 10
94.0
 20
30.75
 30
0.0
 11
2.0
 21
30.75
 31
0.0
  0
LINE
  5
2F7
100
AcDbEntity
  8
Step_08
 62
256
370
-1
 48
1.0
  6
BYLAYER
100
AcDbLine
 10
94.0
 20
140.5
 30
0.0
 11
2.000000000000004
 21
140.5
 31
0.0
  0
LINE
  5
2F8
100
AcDbEntity
  8
Step_08
 62
256
370
-1
 48
1.0
  6
BYLAYER
100
AcDbLine
 10
94.0
 20
14.75
 30
0.0
 11
2.000000000000004
 21
14.75
 31
0.0
  0
LINE
  5
2F9
100
AcDbEntity
  8
Step_08
 62
256
370
-1
 48
1.0
  6
BYLAYER
100
AcDbLine
 10
2.0
 20
78.75
 30
0.0
 11
2.0
 21
65.25
 31
0.0
  0
LINE
  5
2FA
100
AcDbEntity
  8
Step_08
 62
256
370
-1
 48
1.0
  6
BYLAYER
100
AcDbLine
 10
2.0
 20
126.75
 30
0.0
 11
2.0
 21
113.25
 31
0.0
  0
LINE
  5
2FB
100
AcDbEntity
  8
Step_08
 62
256
370
-1
 48
1.0
  6
BYLAYER
100
AcDbLine
 10
2.0
 20
110.75
 30
0.0
 11
2.0
 21
97.25
 31
0.0
  0
LINE
  5
2FC
100
AcDbEntity
  8
Step_08
 62
256
370
-1
 48
1.0
  6
BYLAYER
100
AcDbLine
 10
2.0
 20
94.75
 30
0.0
 11
2.0
 21
81.25
 31
0.0
  0
LINE
  5
2FD
100
AcDbEntity
  8
Step_08
 62
256
370
-1
 48
1.0
  6
BYLAYER
100
AcDbLine
 10
2.0
 20
78.75
 30
0.0
 11
2.0
 21
65.25
 31
0.0
  0
LINE
  5
2FE
100
AcDbEntity
  8
Step_08
 62
256
370
-1
 48
1.0
  6
BYLAYER
100
AcDbLine
 10
2.0
 20
62.75
 30
0.0
 11
2.0
 21
49.25
 31
0.0
  0
LINE
  5
2FF
100
AcDbEntity
  8
Step_08
 62
256
370
-1
 48
1.0
  6
BYLAYER
100
AcDbLine
 10
2.0
 20
46.75
 30
0.0
 11
2.0
 21
33.25
 31
0.0
  0
LINE
  5
300
100
AcDbEntity
  8
Step_08
 62
256
370
-1
 48
1.0
  6
BYLAYER
100
AcDbLine
 10
2.0
 20
30.75
 30
0.0
 11
2.0
 21
17.25
 31
0.0
  0
LINE
  5
301
100
AcDbEntity
  8
Step_08
 62
256
370
-1
 48
1.0
  6
BYLAYER
100
AcDbLine
 10
2.0000000000000053
 20
140.5
 30
0.0
 11
2.0000000000000036
 21
129.25
 31
0.0
  0
LINE
  5
302
100
AcDbEntity
  8
Step_08
 62
256
370
-1
 48
1.0
  6
BYLAYER
100
AcDbLine
 10
2.0000000000000053
 20
14.75
 30
0.0
 11
2.0000000000000036
 21
3.5
 31
0.0
  0
HATCH
  5
303
100
AcDbEntity
  8
Step_08
 62
256
370
-1
 48
1.0
  6
BYLAYER
100
AcDbHatch
 10
0.0
 20
0.0
 30
0.0
210
0.0
220
0.0
230
1.0
  2
SOLID
 70
1
 71
0
 91
2
 92
1
 93
4
 72
1
 10
94.5
 20
64.75
 11
94.5
 21
79.25
 72
1
 10
94.5
 20
79.25
 11
1.5
 21
79.25
 72
1
 10
1.5
 20
79.25
 11
1.5
 21
64.75
 72
1
 10
1.5
 20
64.75
 11
94.5
 21
64.75
 97
0
 92
1
 93
4
 72
1
 10
94.0
 20
65.25
 11
94.0
 21
78.75
 72
1
 10
94.0
 20
78.75
 11
2.0
 21
78.75
 72
1
 10
2.0
 20
78.75
 11
2.0
 21
65.25
 72
1
 10
2.0
 20
65.25
 11
94.0
 21
65.25
 97
0
 75
0
 76
1
 98
0
1001
ACAD
1010
0.0
1020
0.0
1030
0
  0
HATCH
  5
304
100
AcDbEntity
  8
Step_08
 62
256
370
-1
 48
1.0
  6
BYLAYER
100
AcDbHatch
 10
0.0
 20
0.0
 30
0.0
210
0.0
220
0.0
230
1.0
  2
SOLID
 70
1
 71
0
 91
2
 92
1
 93
4
 72
1
 10
94.5
 20
112.75
 11
94.5
 21
127.25
 72
1
 10
94.5
 20
127.25
 11
1.5
 21
127.25
 72
1
 10
1.5
 20
127.25
 11
1.5
 21
112.75
 72
1
 10
1.5
 20
112.75
 11
94.5
 21
112.75
 97
0
 92
1
 93
4
 72
1
 10
94.0
 20
113.25
 11
94.0
 21
126.75
 72
1
 10
94.0
 20
126.75
 11
2.0
 21
126.75
 72
1
 10
2.0
 20
126.75
 11
2.0
 21
113.25
 72
1
 10
2.0
 20
113.25
 11
94.0
 21
113.25
 97
0
 75
0
 76
1
 98
0
1001
ACAD
1010
0.0
1020
0.0
1030
0
  0
HATCH
  5
305
100
AcDbEntity
  8
Step_08
 62
256
370
-1
 48
1.0
  6
BYLAYER
100
AcDbHatch
 10
0.0
 20
0.0
 30
0.0
210
0.0
220
0.0
230
1.0
  2
SOLID
 70
1
 71
0
 91
2
 92
1
 93
4
 72
1
 10
94.5
 20
96.75
 11
94.5
 21
111.25
 72
1
 10
94.5
 20
111.25
 11
1.5
 21
111.25
 72
1
 10
1.5
 20
111.25
 11
1.5
 21
96.75
 72
1
 10
1.5
 20
96.75
 11
94.5
 21
96.75
 97
0
 92
1
 93
4
 72
1
 10
94.0
 20
97.25
 11
94.0
 21
110.75
 72
1
 10
94.0
 20
110.75
 11
2.0
 21
110.75
 72
1
 10
2.0
 20
110.75
 11
2.0
 21
97.25
 72
1
 10
2.0
 20
97.25
 11
94.0
 21
97.25
 97
0
 75
0
 76
1
 98
0
1001
ACAD
1010
0.0
1020
0.0
1030
0
  0
HATCH
  5
306
100
AcDbEntity
  8
Step_08
 62
256
370
-1
 48
1.0
  6
BYLAYER
100
AcDbHatch
 10
0.0
 20
0.0
 30
0.0
210
0.0
220
0.0
230
1.0
  2
SOLID
 70
1
 71
0
 91
2
 92
1
 93
4
 72
1
 10
94.5
 20
80.75
 11
94.5
 21
95.25
 72
1
 10
94.5
 20
95.25
 11
1.5
 21
95.25
 72
1
 10
1.5
 20
95.25
 11
1.5
 21
80.75
 72
1
 10
1.5
 20
80.75
 11
94.5
 21
80.75
 97
0
 92
1
 93
4
 72
1
 10
94.0
 20
81.25
 11
94.0
 21
94.75
 72
1
 10
94.0
 20
94.75
 11
2.0
 21
94.75
 72
1
 10
2.0
 20
94.75
 11
2.0
 21
81.25
 72
1
 10
2.0
 20
81.25
 11
94.0
 21
81.25
 97
0
 75
0
 76
1
 98
0
1001
ACAD
1010
0.0
1020
0.0
1030
0
  0
HATCH
  5
307
100
AcDbEntity
  8
Step_08
 62
256
370
-1
 48
1.0
  6
BYLAYER
100
AcDbHatch
 10
0.0
 20
0.0
 30
0.0
210
0.0
220
0.0
230
1.0
  2
SOLID
 70
1
 71
0
 91
2
 92
1
 93
4
 72
1
 10
94.5
 20
64.75
 11
94.5
 21
79.25
 72
1
 10
94.5
 20
79.25
 11
1.5
 21
79.25
 72
1
 10
1.5
 20
79.25
 11
1.5
 21
64.75
 72
1
 10
1.5
 20
64.75
 11
94.5
 21
64.75
 97
0
 92
1
 93
4
 72
1
 10
94.0
 20
65.25
 11
94.0
 21
78.75
 72
1
 10
94.0
 20
78.75
 11
2.0
 21
78.75
 72
1
 10
2.0
 20
78.75
 11
2.0
 21
65.25
 72
1
 10
2.0
 20
65.25
 11
94.0
 21
65.25
 97
0
 75
0
 76
1
 98
0
1001
ACAD
1010
0.0
1020
0.0
1030
0
  0
HATCH
  5
308
100
AcDbEntity
  8
Step_08
 62
256
370
-1
 48
1.0
  6
BYLAYER
100
AcDbHatch
 10
0.0
 20
0.0
 30
0.0
210
0.0
220
0.0
230
1.0
  2
SOLID
 70
1
 71
0
 91
2
 92
1
 93
4
 72
1
 10
94.5
 20
48.75
 11
94.5
 21
63.25
 72
1
 10
94.5
 20
63.25
 11
1.5
 21
63.25
 72
1
 10
1.5
 20
63.25
 11
1.5
 21
48.75
 72
1
 10
1.5
 20
48.75
 11
94.5
 21
48.75
 97
0
 92
1
 93
4
 72
1
 10
94.0
 20
49.25
 11
94.0
 21
62.75
 72
1
 10
94.0
 20
62.75
 11
2.0
 21
62.75
 72
1
 10
2.0
 20
62.75
 11
2.0
 21
49.25
 72
1
 10
2.0
 20
49.25
 11
94.0
 21
49.25
 97
0
 75
0
 76
1
 98
0
1001
ACAD
1010
0.0
1020
0.0
1030
0
  0
HATCH
  5
309
100
AcDbEntity
  8
Step_08
 62
256
370
-1
 48
1.0
  6
BYLAYER
100
AcDbHatch
 10
0.0
 20
0.0
 30
0.0
210
0.0
220
0.0
230
1.0
  2
SOLID
 70
1
 71
0
 91
2
 92
1
 93
4
 72
1
 10
94.5
 20
32.75
 11
94.5
 21
47.25
 72
1
 10
94.5
 20
47.25
 11
1.5
 21
47.25
 72
1
 10
1.5
 20
47.25
 11
1.5
 21
32.75
 72
1
 10
1.5
 20
32.75
 11
94.5
 21
32.75
 97
0
 92
1
 93
4
 72
1
 10
94.0
 20
33.25
 11
94.0
 21
46.75
 72
1
 10
94.0
 20
46.75
 11
2.0
 21
46.75
 72
1
 10
2.0
 20
46.75
 11
2.0
 21
33.25
 72
1
 10
2.0
 20
33.25
 11
94.0
 21
33.25
 97
0
 75
0
 76
1
 98
0
1001
ACAD
1010
0.0
1020
0.0
1030
0
  0
HATCH
  5
30A
100
AcDbEntity
  8
Step_08
 62
256
370
-1
 48
1.0
  6
BYLAYER
100
AcDbHatch
 10
0.0
 20
0.0
 30
0.0
210
0.0
220
0.0
230
1.0
  2
SOLID
 70
1
 71
0
 91
2
 92
1
 93
4
 72
1
 10
94.5
 20
16.75
 11
94.5
 21
31.25
 72
1
 10
94.5
 20
31.25
 11
1.5
 21
31.25
 72
1
 10
1.5
 20
31.25
 11
1.5
 21
16.75
 72
1
 10
1.5
 20
16.75
 11
94.5
 21
16.75
 97
0
 92
1
 93
4
 72
1
 10
94.0
 20
17.25
 11
94.0
 21
30.75
 72
1
 10
94.0
 20
30.75
 11
2.0
 21
30.75
 72
1
 10
2.0
 20
30.75
 11
2.0
 21
17.25
 72
1
 10
2.0
 20
17.25
 11
94.0
 21
17.25
 97
0
 75
0
 76
1
 98
0
1001
ACAD
1010
0.0
1020
0.0
1030
0
  0
LINE
  5
30B
100
AcDbEntity
  8
Step_08
 62
256
370
-1
 48
1.0
  6
BYLAYER
100
AcDbLine
 10
1.5
 20
112.75
 30
0.0
 11
1.5
 21
127.25
 31
0.0
  0
LINE
  5
30C
100
AcDbEntity
  8
Step_08
 62
256
370
-1
 48
1.0
  6
BYLAYER
100
AcDbLine
 10
1.5
 20
96.75
 30
0.0
 11
1.5
 21
111.25
 31
0.0
  0
LINE
  5
30D
100
AcDbEntity
  8
Step_08
 62
256
370
-1
 48
1.0
  6
BYLAYER
100
AcDbLine
 10
1.5
 20
80.75
 30
0.0
 11
1.5
 21
95.25
 31
0.0
  0
LINE
  5
30E
100
AcDbEntity
  8
Step_08
 62
256
370
-1
 48
1.0
  6
BYLAYER
100
AcDbLine
 10
1.5
 20
64.75
 30
0.0
 11
1.5
 21
79.25
 31
0.0
  0
LINE
  5
30F
100
AcDbEntity
  8
Step_08
 62
256
370
-1
 48
1.0
  6
BYLAYER
100
AcDbLine
 10
1.5
 20
48.75
 30
0.0
 11
1.5
 21
63.25
 31
0.0
  0
LINE
  5
310
100
AcDbEntity
  8
Step_08
 62
256
370
-1
 48
1.0
  6
BYLAYER
100
AcDbLine
 10
1.5
 20
32.75
 30
0.0
 11
1.5
 21
47.25
 31
0.0
  0
LINE
  5
311
100
AcDbEntity
  8
Step_08
 62
256
370
-1
 48
1.0
  6
BYLAYER
100
AcDbLine
 10
1.5
 20
16.75
 30
0.0
 11
1.5
 21
31.25
 31
0.0
  0
LINE
  5
312
100
AcDbEntity
  8
Step_08
 62
256
370
-1
 48
1.0
  6
BYLAYER
100
AcDbLine
 10
1.5000000000000033
 20
128.75
 30
0.0
 11
1.500000000000004
 21
141.0
 31
0.0
  0
LINE
  5
313
100
AcDbEntity
  8
Step_08
 62
256
370
-1
 48
1.0
  6
BYLAYER
100
AcDbLine
 10
1.5000000000000033
 20
3.0
 30
0.0
 11
1.500000000000004
 21
15.25
 31
0.0
  0
HATCH
  5
314
100
AcDbEntity
  8
Step_08
 62
256
370
-1
 48
1.0
  6
BYLAYER
100
AcDbHatch
 10
0.0
 20
0.0
 30
0.0
210
0.0
220
0.0
230
1.0
  2
SOLID
 70
1
 71
0
 91
2
 92
1
 93
4
 72
1
 10
1.5000000000000033
 20
128.75
 11
1.500000000000004
 21
141.0
 72
1
 10
1.500000000000004
 20
141.0
 11
94.5
 21
141.0
 72
1
 10
94.5
 20
141.0
 11
94.5
 21
128.75
 72
1
 10
94.5
 20
128.75
 11
1.5000000000000033
 21
128.75
 97
0
 92
1
 93
4
 72
1
 10
2.0000000000000053
 20
140.5
 11
2.0000000000000036
 21
129.25
 72
1
 10
2.0000000000000036
 20
129.25
 11
94.0
 21
129.25
 72
1
 10
94.0
 20
129.25
 11
94.0
 21
140.5
 72
1
 10
94.0
 20
140.5
 11
2.000000000000004
 21
140.5
 97
0
 75
0
 76
1
 98
0
1001
ACAD
1010
0.0
1020
0.0
1030
0
  0
HATCH
  5
315
100
AcDbEntity
  8
Step_08
 62
256
370
-1
 48
1.0
  6
BYLAYER
100
AcDbHatch
 10
0.0
 20
0.0
 30
0.0
210
0.0
220
0.0
230
1.0
  2
SOLID
 70
1
 71
0
 91
2
 92
1
 93
4
 72
1
 10
1.5000000000000033
 20
3.0
 11
1.500000000000004
 21
15.25
 72
1
 10
1.500000000000004
 20
15.25
 11
94.5
 21
15.25
 72
1
 10
94.5
 20
15.25
 11
94.5
 21
3.0
 72
1
 10
94.5
 20
3.0
 11
1.5000000000000033
 21
3.0
 97
0
 92
1
 93
4
 72
1
 10
2.0000000000000053
 20
14.75
 11
2.0000000000000036
 21
3.5
 72
1
 10
2.0000000000000036
 20
3.5
 11
94.0
 21
3.5
 72
1
 10
94.0
 20
3.5
 11
94.0
 21
14.75
 72
1
 10
94.0
 20
14.75
 11
2.000000000000004
 21
14.75
 97
0
 75
0
 76
1
 98
0
1001
ACAD
1010
0.0
1020
0.0
1030
0
  0
LEADER
  5
316
100
AcDbEntity
  8
Step_08
 62
256
370
-1
 48
1.0
  6
BYLAYER
100
AcDbLeader
  3
Standard
 71
1
 72
0
 73
3
 74
0
 75
0
 40
1.0
 41
10.0
 76
3
 10
55.5320099549517607
 20
3.8147121351886142
 10
63.5320099549517607
 20
-4.1852878648113858
 10
65.5320099549517607
 20
-4.1852878648113858
1001
ACAD
1000
DSTYLE
1002
{
1070
40
1040
1.0
1002
}
  0
MTEXT
  5
317
100
AcDbEntity
  8
Step_08
 62
256
370
-1
 48
1.0
  6
BYLAYER
100
AcDbMText
 10
66.4782527005330195
 20
-2.7703959652870127
 30
0.0
 40
3.0
 41
0.0
 71
1
 72
1
  1
\H2;Foam Sealant (Great Stuff) all 4 sides\P  of each bay
  7
textstyle92
 50
0.0
 73
2
 44
1.0
  0
HATCH
  5
318
100
AcDbEntity
  8
Step_12
 62
252
420
10526884
370
-1
 48
1.0
  6
BYLAYER
100
AcDbHatch
 10
0.0
 20
0.0
 30
0.0
210
0.0
220
0.0
230
1.0
  2
SOLID
 70
1
 71
0
 91
1
 92
1
 93
4
 72
1
 10
0.0
 20
48.0
 11
0.0
 21
0.0
 72
1
 10
0.0
 20
0.0
 11
96.0
 21
0.0
 72
1
 10
96.0
 20
0.0
 11
96.0
 21
48.0
 72
1
 10
96.0
 20
48.0
 11
0.0
 21
48.0
 97
0
 75
0
 76
1
 98
0
1001
ACAD
1010
0.0
1020
0.0
1030
0
  0
HATCH
  5
319
100
AcDbEntity
  8
Step_12
 62
252
420
10526884
370
-1
 48
1.0
  6
BYLAYER
100
AcDbHatch
 10
0.0
 20
0.0
 30
0.0
210
0.0
220
0.0
230
1.0
  2
SOLID
 70
1
 71
0
 91
1
 92
1
 93
4
 72
1
 10
0.0
 20
96.0
 11
0.0
 21
48.0
 72
1
 10
0.0
 20
48.0
 11
96.0
 21
48.0
 72
1
 10
96.0
 20
48.0
 11
96.0
 21
96.0
 72
1
 10
96.0
 20
96.0
 11
0.0
 21
96.0
 97
0
 75
0
 76
1
 98
0
1001
ACAD
1010
0.0
1020
0.0
1030
0
  0
HATCH
  5
31A
100
AcDbEntity
  8
Step_12
 62
252
420
10526884
370
-1
 48
1.0
  6
BYLAYER
100
AcDbHatch
 10
0.0
 20
0.0
 30
0.0
210
0.0
220
0.0
230
1.0
  2
SOLID
 70
1
 71
0
 91
1
 92
1
 93
4
 72
1
 10
0.0
 20
144.0
 11
0.0
 21
96.0
 72
1
 10
0.0
 20
96.0
 11
96.0
 21
96.0
 72
1
 10
96.0
 20
96.0
 11
96.0
 21
144.0
 72
1
 10
96.0
 20
144.0
 11
0.0
 21
144.0
 97
0
 75
0
 76
1
 98
0
1001
ACAD
1010
0.0
1020
0.0
1030
0
  0
MTEXT
  5
31B
100
AcDbEntity
  8
Step_12
 62
256
370
-1
 48
1.0
  6
BYLAYER
100
AcDbMText
 10
42.4705847991693162
 20
-11.6299977876450118
 30
0.0
 40
3.0
 41
0.0
 71
1
 72
1
  1
\H2.50001;Step\H3; 12
  7
textstyle93
 50
0.0
 73
2
 44
1.0
  0
LINE
  5
31C
100
AcDbEntity
  8
Step_12
 62
256
370
-1
 48
1.0
  6
BYLAYER
100
AcDbLine
 10
0.0
 20
96.0
 30
0.0
 11
96.0
 21
96.0
 31
0.0
  0
LINE
  5
31D
100
AcDbEntity
  8
Step_12
 62
256
370
-1
 48
1.0
  6
BYLAYER
100
AcDbLine
 10
0.0
 20
48.0
 30
0.0
 11
96.0
 21
48.0
 31
0.0
  0
LINE
  5
31E
100
AcDbEntity
  8
Step_12
 62
256
370
-1
 48
1.0
  6
BYLAYER
100
AcDbLine
 10
0.0
 20
48.0
 30
0.0
 11
96.0
 21
48.0
 31
0.0
  0
LINE
  5
31F
100
AcDbEntity
  8
Step_12
 62
256
370
-1
 48
1.0
  6
BYLAYER
100
AcDbLine
 10
0.0
 20
0.0
 30
0.0
 11
96.0
 21
0.0
 31
0.0
  0
LINE
  5
320
100
AcDbEntity
  8
Step_12
 62
256
370
-1
 48
1.0
  6
BYLAYER
100
AcDbLine
 10
96.0
 20
96.0
 30
0.0
 11
96.0
 21
144.0
 31
0.0
  0
LINE
  5
321
100
AcDbEntity
  8
Step_12
 62
256
370
-1
 48
1.0
  6
BYLAYER
100
AcDbLine
 10
96.0
 20
48.0
 30
0.0
 11
96.0
 21
96.0
 31
0.0
  0
LINE
  5
322
100
AcDbEntity
  8
Step_12
 62
256
370
-1
 48
1.0
  6
BYLAYER
100
AcDbLine
 10
96.0
 20
0.0
 30
0.0
 11
96.0
 21
48.0
 31
0.0
  0
LINE
  5
323
100
AcDbEntity
  8
Step_12
 62
256
370
-1
 48
1.0
  6
BYLAYER
100
AcDbLine
 10
96.0
 20
144.0
 30
0.0
 11
0.0
 21
144.0
 31
0.0
  0
LINE
  5
324
100
AcDbEntity
  8
Step_12
 62
256
370
-1
 48
1.0
  6
BYLAYER
100
AcDbLine
 10
96.0
 20
96.0
 30
0.0
 11
0.0
 21
96.0
 31
0.0
  0
LINE
  5
325
100
AcDbEntity
  8
Step_12
 62
256
370
-1
 48
1.0
  6
BYLAYER
100
AcDbLine
 10
0.0
 20
144.0
 30
0.0
 11
0.0
 21
96.0
 31
0.0
  0
LINE
  5
326
100
AcDbEntity
  8
Step_12
 62
256
370
-1
 48
1.0
  6
BYLAYER
100
AcDbLine
 10
0.0
 20
96.0
 30
0.0
 11
0.0
 21
48.0
 31
0.0
  0
LINE
  5
327
100
AcDbEntity
  8
Step_12
 62
256
370
-1
 48
1.0
  6
BYLAYER
100
AcDbLine
 10
0.0
 20
48.0
 30
0.0
 11
0.0
 21
0.0
 31
0.0
  0
LINE
  5
328
100
AcDbEntity
  8
Step_12
 62
256
370
-1
 48
1.0
  6
BYLAYER
100
AcDbLine
 10
3.5
 20
3.5
 30
0.0
 11
92.5
 21
3.5
 31
0.0
  0
LINE
  5
329
100
AcDbEntity
  8
Step_12
 62
256
370
-1
 48
1.0
  6
BYLAYER
100
AcDbLine
 10
92.5
 20
3.5
 30
0.0
 11
92.5
 21
140.5
 31
0.0
  0
LINE
  5
32A
100
AcDbEntity
  8
Step_12
 62
256
370
-1
 48
1.0
  6
BYLAYER
100
AcDbLine
 10
92.5
 20
140.5
 30
0.0
 11
3.5
 21
140.5
 31
0.0
  0
LINE
  5
32B
100
AcDbEntity
  8
Step_12
 62
256
370
-1
 48
1.0
  6
BYLAYER
100
AcDbLine
 10
3.5
 20
140.5
 30
0.0
 11
3.5
 21
3.5
 31
0.0
  0
IMAGE
  5
32C
100
AcDbEntity
  8
Step_12
 62
256
370
-1
 48
1.0
  6
BYLAYER
100
AcDbRasterImage
 90
0
 10
92.3656817798466392
 20
116.7181944729223204
 30
0.0
 11
0.25
 21
0.0
 31
0.0
 12
0.0
 22
0.25
 32
0.0
 13
12.0
 23
12.0
340
32D
 70
15
280
0
281
50
282
50
283
0
  0
MTEXT
  5
32E
100
AcDbEntity
  8
Step_04-Framing
 62
256
370
-1
 48
1.0
  6
BYLAYER
100
AcDbMText
 10
42.9857493770563224
 20
151.9280632744028594
 30
0.0
 40
3.0
 41
0.0
 71
1
 72
1
  1
REAR
  7
textstyle94
 50
0.0
 73
2
 44
1.0
  0
MTEXT
  5
32F
100
AcDbEntity
  8
Step_04-Framing
 62
256
370
-1
 48
1.0
  6
BYLAYER
100
AcDbMText
 10
42.0620267523479541
 20
-4.3483510283754612
 30
0.0
 40
3.0
 41
0.0
 71
1
 72
1
  1
FRONT
  7
textstyle95
 50
0.0
 73
2
 44
1.0
  0
MTEXT
  5
330
100
AcDbEntity
  8
Step_04-Framing
 62
256
370
-1
 48
1.0
  6
BYLAYER
100
AcDbMText
 10
42.0620267523479541
 20
-4.3483510283754612
 30
0.0
 40
3.0
 41
0.0
 71
1
 72
1
  1
FRONT
  7
textstyle96
 50
0.0
 73
2
 44
1.0
  0
INSERT
  5
331
100
AcDbEntity
  8
Step_07
 62
256
370
-1
 48
1.0
  6
BYLAYER
100
AcDbBlockReference
  2
spaceBlk
 10
12.5
 20
114.0
 30
0.0
  0
INSERT
  5
332
100
AcDbEntity
  8
Step_07
 62
256
370
-1
 48
1.0
  6
BYLAYER
100
AcDbBlockReference
  2
spaceBlk
 10
12.5
 20
98.0
 30
0.0
  0
INSERT
  5
333
100
AcDbEntity
  8
Step_07
 62
256
370
-1
 48
1.0
  6
BYLAYER
100
AcDbBlockReference
  2
spaceBlk
 10
12.5
 20
82.0
 30
0.0
  0
INSERT
  5
334
100
AcDbEntity
  8
Step_07
 62
256
370
-1
 48
1.0
  6
BYLAYER
100
AcDbBlockReference
  2
spaceBlk
 10
12.5
 20
66.0
 30
0.0
  0
INSERT
  5
335
100
AcDbEntity
  8
Step_07
 62
256
370
-1
 48
1.0
  6
BYLAYER
100
AcDbBlockReference
  2
spaceBlk
 10
12.5
 20
50.0
 30
0.0
  0
INSERT
  5
336
100
AcDbEntity
  8
Step_07
 62
256
370
-1
 48
1.0
  6
BYLAYER
100
AcDbBlockReference
  2
spaceBlk
 10
12.5
 20
34.0
 30
0.0
  0
INSERT
  5
337
100
AcDbEntity
  8
Step_07
 62
256
370
-1
 48
1.0
  6
BYLAYER
100
AcDbBlockReference
  2
spaceBlk
 10
80.0
 20
114.0
 30
0.0
  0
INSERT
  5
338
100
AcDbEntity
  8
Step_07
 62
256
370
-1
 48
1.0
  6
BYLAYER
100
AcDbBlockReference
  2
spaceBlk
 10
80.0
 20
98.0
 30
0.0
  0
INSERT
  5
339
100
AcDbEntity
  8
Step_07
 62
256
370
-1
 48
1.0
  6
BYLAYER
100
AcDbBlockReference
  2
spaceBlk
 10
80.0
 20
82.0
 30
0.0
  0
INSERT
  5
33A
100
AcDbEntity
  8
Step_07
 62
256
370
-1
 48
1.0
  6
BYLAYER
100
AcDbBlockReference
  2
spaceBlk
 10
80.0
 20
66.0
 30
0.0
  0
INSERT
  5
33B
100
AcDbEntity
  8
Step_07
 62
256
370
-1
 48
1.0
  6
BYLAYER
100
AcDbBlockReference
  2
spaceBlk
 10
80.0
 20
50.0
 30
0.0
  0
INSERT
  5
33C
100
AcDbEntity
  8
Step_07
 62
256
370
-1
 48
1.0
  6
BYLAYER
100
AcDbBlockReference
  2
spaceBlk
 10
80.0
 20
34.0
 30
0.0
  0
INSERT
  5
33D
100
AcDbEntity
  8
Step_07
 62
256
370
-1
 48
1.0
  6
BYLAYER
100
AcDbBlockReference
  2
spaceBlk
 10
80.0
 20
18.0
 30
0.0
  0
LEADER
  5
33E
100
AcDbEntity
  8
Step_08
 62
256
370
-1
 48
1.0
  6
BYLAYER
100
AcDbLeader
  3
Standard
 71
1
 72
0
 73
3
 74
0
 75
0
 40
1.0
 41
10.0
 76
3
 10
50.9867824998645318
 20
136.8635676360304956
 10
57.7566177313375277
 20
148.4689994614127784
 10
63.144853935979306
 20
148.4689994614127784
1001
ACAD
1000
DSTYLE
1002
{
1070
40
1040
1.0
1002
}
  0
MTEXT
  5
33F
100
AcDbEntity
  8
Step_08
 62
256
370
-1
 48
1.0
  6
BYLAYER
100
AcDbMText
 10
65.4935722815923782
 20
149.9887583909271314
 30
0.0
 40
3.0
 41
0.0
 71
1
 72
1
  1
\H2.50001;Install insulation silver side up
  7
textstyle99
 50
0.0
 73
2
 44
1.0
  0
LEADER
  5
340
100
AcDbEntity
  8
Step_07
 62
256
370
-1
 48
1.0
  6
BYLAYER
100
AcDbLeader
  3
Standard
 71
1
 72
0
 73
3
 74
0
 75
0
 40
1.0
 41
10.0
 76
3
 10
16.0
 20
101.0
 10
20.0
 20
105.0
 10
24.0
 20
105.0
1001
ACAD
1000
DSTYLE
1002
{
1070
40
1040
1.0
1002
}
  0
LEADER
  5
341
100
AcDbEntity
  8
Step_07
 62
256
370
-1
 48
1.0
  6
BYLAYER
100
AcDbLeader
  3
Standard
 71
1
 72
0
 73
3
 74
0
 75
0
 40
1.0
 41
10.0
 76
3
 10
16.0
 20
131.0
 10
20.0
 20
135.0
 10
24.0
 20
135.0
1001
ACAD
1000
DSTYLE
1002
{
1070
40
1040
1.0
1002
}
  0
MTEXT
  5
342
100
AcDbEntity
  8
Step_07
 62
256
370
-1
 48
1.0
  6
BYLAYER
100
AcDbMText
 10
25.0
 20
106.0
 30
0.0
 40
6.0
 41
0.0
 71
1
 72
1
  1
\H2.5;Blocks labeled "SAVE"
  7
textstyle100
 50
0.0
 73
2
 44
1.0
  0
MTEXT
  5
343
100
AcDbEntity
  8
Step_07
 62
256
370
-1
 48
1.0
  6
BYLAYER
100
AcDbMText
 10
25.2381397981778512
 20
135.6664455501944246
 30
0.0
 40
6.0
 41
0.0
 71
1
 72
1
  1
\H2.5;Blocks labeled "SAVE END"
  7
textstyle97
 50
0.0
 73
2
 44
1.0
  0
MTEXT
  5
344
100
AcDbEntity
  8
Step_07
 62
256
370
-1
 48
1.0
  6
BYLAYER
100
AcDbMText
 10
25.1270196559017549
 20
90.5899210628618619
 30
0.0
 40
6.0
 41
0.0
 71
1
 72
1
  1
\H2.5;DO NOT NAIL BLOCKS
  7
textstyle98
 50
0.0
 73
2
 44
1.0
  0
INSERT
  5
345
100
AcDbEntity
  8
Step_07
 62
256
370
-1
 48
1.0
  6
BYLAYER
100
AcDbBlockReference
  2
spaceBlk
 10
12.5
 20
18.0
 30
0.0
  0
INSERT
  5
346
100
AcDbEntity
  8
Step_07
 62
256
370
-1
 48
1.0
  6
BYLAYER
100
AcDbBlockReference
  2
spaceblkEnd
 10
12.5
 20
4.0
 30
0.0
  0
INSERT
  5
347
100
AcDbEntity
  8
Step_07
 62
256
370
-1
 48
1.0
  6
BYLAYER
100
AcDbBlockReference
  2
spaceblkEnd
 10
80.0
 20
4.0
 30
0.0
  0
INSERT
  5
348
100
AcDbEntity
  8
Step_07
 62
256
370
-1
 48
1.0
  6
BYLAYER
100
AcDbBlockReference
  2
spaceblkEnd
 10
12.5
 20
129.75
 30
0.0
  0
INSERT
  5
349
100
AcDbEntity
  8
Step_07
 62
256
370
-1
 48
1.0
  6
BYLAYER
100
AcDbBlockReference
  2
spaceblkEnd
 10
80.0
 20
129.75
 30
0.0
  0
ENDSEC
  0
SECTION
  2
OBJECTS
  0
DICTIONARY
  5
C
100
AcDbDictionary
280
0
281
1
  3
ACAD_GROUP
350
D
  3
ACAD_LAYOUT
350
1A
  3
ACAD_MLINESTYLE
350
17
  3
ACAD_PLOTSETTINGS
350
19
  3
ACAD_PLOTSTYLENAME
350
E
  3
AcDbVariableDictionary
350
34A
  3
QCAD_OBJECTS
350
34B
  0
DICTIONARY
  5
D
100
AcDbDictionary
280
0
281
1
  0
ACDBDICTIONARYWDFLT
  5
E
100
AcDbDictionary
281
1
  3
Normal
350
F
100
AcDbDictionaryWithDefault
340
F
  0
ACDBPLACEHOLDER
  5
F
  0
DICTIONARY
  5
17
100
AcDbDictionary
280
0
281
1
  3
Standard
350
18
  0
MLINESTYLE
  5
18
100
AcDbMlineStyle
  2
STANDARD
 70
0
  3

 62
256
 51
90.0
 52
90.0
 71
2
 49
0.5
 62
256
  6
BYLAYER
 49
-0.5
 62
256
  6
BYLAYER
  0
DICTIONARY
  5
19
100
AcDbDictionary
280
0
281
1
  0
DICTIONARY
  5
1A
100
AcDbDictionary
281
1
  3
Layout1
350
1E
  3
Layout2
350
26
  3
Model
350
22
  0
LAYOUT
  5
1E
100
AcDbPlotSettings
  1

  2
none_device
  4

  6

 40
0.0
 41
0.0
 42
0.0
 43
0.0
 44
0.0
 45
0.0
 46
0.0
 47
0.0
 48
0.0
 49
0.0
140
0.0
141
0.0
142
1.0
143
1.0
 70
688
 72
0
 73
0
 74
5
  7

 75
16
147
1.0
148
0.0
149
0.0
100
AcDbLayout
  1
Layout1
 70
1
 71
1
 10
0.0
 20
0.0
 11
420.0
 21
297.0
 12
0.0
 22
0.0
 32
0.0
 14
100000000000000000000.0
 24
100000000000000000000.0
 34
100000000000000000000.0
 15
-100000000000000000000.0
 25
-100000000000000000000.0
 35
-100000000000000000000.0
146
0.0
 13
0.0
 23
0.0
 33
0.0
 16
1.0
 26
0.0
 36
0.0
 17
0.0
 27
1.0
 37
0.0
 76
0
330
1B
  0
LAYOUT
  5
22
100
AcDbPlotSettings
  1

  2
none_device
  4

  6

 40
0.0
 41
0.0
 42
0.0
 43
0.0
 44
0.0
 45
0.0
 46
0.0
 47
0.0
 48
0.0
 49
0.0
140
0.0
141
0.0
142
1.0
143
1.0
 70
1712
 72
0
 73
0
 74
0
  7

 75
0
147
1.0
148
0.0
149
0.0
100
AcDbLayout
  1
Model
 70
1
 71
0
 10
0.0
 20
0.0
 11
12.0
 21
9.0
 12
0.0
 22
0.0
 32
0.0
 14
0.0
 24
0.0
 34
0.0
 15
0.0
 25
0.0
 35
0.0
146
0.0
 13
0.0
 23
0.0
 33
0.0
 16
1.0
 26
0.0
 36
0.0
 17
0.0
 27
1.0
 37
0.0
 76
0
330
1F
  0
LAYOUT
  5
26
100
AcDbPlotSettings
  1

  2
none_device
  4

  6

 40
0.0
 41
0.0
 42
0.0
 43
0.0
 44
0.0
 45
0.0
 46
0.0
 47
0.0
 48
0.0
 49
0.0
140
0.0
141
0.0
142
1.0
143
1.0
 70
688
 72
0
 73
0
 74
5
  7

 75
16
147
1.0
148
0.0
149
0.0
100
AcDbLayout
  1
Layout2
 70
1
 71
2
 10
0.0
 20
0.0
 11
12.0
 21
9.0
 12
0.0
 22
0.0
 32
0.0
 14
0.0
 24
0.0
 34
0.0
 15
0.0
 25
0.0
 35
0.0
146
0.0
 13
0.0
 23
0.0
 33
0.0
 16
1.0
 26
0.0
 36
0.0
 17
0.0
 27
1.0
 37
0.0
 76
0
330
23
  0
DICTIONARY
  5
34A
100
AcDbDictionary
281
1
  3
DIMASSOC
350
34D
  3
HIDETEXT
350
34C
  0
DICTIONARYVAR
  5
34C
100
DictionaryVariables
280
0
  1
2
  0
DICTIONARYVAR
  5
34D
100
DictionaryVariables
280
0
  1
1
  0
DICTIONARY
  5
34B
100
AcDbDictionary
281
1
  3
ColorSettings/BackgroundColor
350
34E
  3
ColorSettings/ColorMode
350
34F
  3
DimensionSettings/AngularFormat
350
350
  3
DimensionSettings/AngularPrecision
350
351
  3
DimensionSettings/DecimalPoint
350
352
  3
DimensionSettings/DimensionFont
350
353
  3
DimensionSettings/DimensionTextColor
350
354
  3
DimensionSettings/KeepProportions
350
355
  3
DimensionSettings/LinearFormat
350
356
  3
DimensionSettings/LinearPrecision
350
357
  3
Grid/DisplayGrid00
350
358
  3
Grid/DisplayGrid01
350
359
  3
Grid/DisplayGrid02
350
35A
  3
Grid/DisplayGrid03
350
35B
  3
Grid/GridSpacingX00
350
35C
  3
Grid/GridSpacingX01
350
35D
  3
Grid/GridSpacingX02
350
35E
  3
Grid/GridSpacingX03
350
35F
  3
Grid/GridSpacingY00
350
360
  3
Grid/GridSpacingY01
350
361
  3
Grid/GridSpacingY02
350
362
  3
Grid/GridSpacingY03
350
363
  3
Grid/IsometricGrid00
350
364
  3
Grid/IsometricGrid01
350
365
  3
Grid/IsometricGrid02
350
366
  3
Grid/IsometricGrid03
350
367
  3
Grid/IsometricProjection00
350
368
  3
Grid/IsometricProjection01
350
369
  3
Grid/IsometricProjection02
350
36A
  3
Grid/IsometricProjection03
350
36B
  3
Grid/MetaGridSpacingX00
350
36C
  3
Grid/MetaGridSpacingX01
350
36D
  3
Grid/MetaGridSpacingX02
350
36E
  3
Grid/MetaGridSpacingX03
350
36F
  3
Grid/MetaGridSpacingY00
350
370
  3
Grid/MetaGridSpacingY01
350
371
  3
Grid/MetaGridSpacingY02
350
372
  3
Grid/MetaGridSpacingY03
350
373
  3
MultiPageSettings/Columns
350
374
  3
MultiPageSettings/GlueMarginsBottom
350
375
  3
MultiPageSettings/GlueMarginsLeft
350
376
  3
MultiPageSettings/GlueMarginsRight
350
377
  3
MultiPageSettings/GlueMarginsTop
350
378
  3
MultiPageSettings/PrintCropMarks
350
379
  3
MultiPageSettings/Rows
350
37A
  3
PageSettings/OffsetX
350
37B
  3
PageSettings/OffsetY
350
37C
  3
PageSettings/PageOrientation
350
37D
  3
PageSettings/PaperHeight
350
37E
  3
PageSettings/PaperSizeName
350
37F
  3
PageSettings/PaperWidth
350
380
  3
PageSettings/PointSize
350
381
  3
PageSettings/Scale
350
382
  3
PageSettings/ShowPaperBorders
350
383
  3
PageTagSettings/EnablePageTags
350
384
  3
PageTagSettings/TagAlignment
350
385
  3
PageTagSettings/TagFont
350
386
  3
PageTagSettings/TagPosition
350
387
  3
QCADVersion
350
388
  3
UnitSettings/Measurement
350
389
  3
UnitSettings/PaperUnit
350
38A
  3
ViewportCenter
350
38B
  3
ViewportHeight
350
38C
  3
ViewportWidth
350
38D
  0
XRECORD
  5
34E
330
34B
100
AcDbXrecord
280
1
1000
White
  0
XRECORD
  5
34F
330
34B
100
AcDbXrecord
280
1
1000
Grayscale
  0
XRECORD
  5
350
330
34B
100
AcDbXrecord
280
1
 90
0
  0
XRECORD
  5
351
330
34B
100
AcDbXrecord
280
1
 90
0
  0
XRECORD
  5
352
330
34B
100
AcDbXrecord
280
1
 90
46
  0
XRECORD
  5
353
330
34B
100
AcDbXrecord
280
1
1000
DejaVu Sans
  0
XRECORD
  5
354
330
34B
100
AcDbXrecord
280
1
1000
By Layer
  0
XRECORD
  5
355
330
34B
100
AcDbXrecord
280
1
290
1
  0
XRECORD
  5
356
330
34B
100
AcDbXrecord
280
1
 90
2
  0
XRECORD
  5
357
330
34B
100
AcDbXrecord
280
1
 90
4
  0
XRECORD
  5
358
330
34B
100
AcDbXrecord
280
1
290
1
  0
XRECORD
  5
359
330
34B
100
AcDbXrecord
280
1
290
1
  0
XRECORD
  5
35A
330
34B
100
AcDbXrecord
280
1
290
1
  0
XRECORD
  5
35B
330
34B
100
AcDbXrecord
280
1
290
1
  0
XRECORD
  5
35C
330
34B
100
AcDbXrecord
280
1
1000
auto
  0
XRECORD
  5
35D
330
34B
100
AcDbXrecord
280
1
1000
auto
  0
XRECORD
  5
35E
330
34B
100
AcDbXrecord
280
1
1000
auto
  0
XRECORD
  5
35F
330
34B
100
AcDbXrecord
280
1
1000
auto
  0
XRECORD
  5
360
330
34B
100
AcDbXrecord
280
1
1000
auto
  0
XRECORD
  5
361
330
34B
100
AcDbXrecord
280
1
1000
auto
  0
XRECORD
  5
362
330
34B
100
AcDbXrecord
280
1
1000
auto
  0
XRECORD
  5
363
330
34B
100
AcDbXrecord
280
1
1000
auto
  0
XRECORD
  5
364
330
34B
100
AcDbXrecord
280
1
290
0
  0
XRECORD
  5
365
330
34B
100
AcDbXrecord
280
1
290
0
  0
XRECORD
  5
366
330
34B
100
AcDbXrecord
280
1
290
0
  0
XRECORD
  5
367
330
34B
100
AcDbXrecord
280
1
290
0
  0
XRECORD
  5
368
330
34B
100
AcDbXrecord
280
1
 90
65537
  0
XRECORD
  5
369
330
34B
100
AcDbXrecord
280
1
 90
65537
  0
XRECORD
  5
36A
330
34B
100
AcDbXrecord
280
1
 90
65537
  0
XRECORD
  5
36B
330
34B
100
AcDbXrecord
280
1
 90
65537
  0
XRECORD
  5
36C
330
34B
100
AcDbXrecord
280
1
1000
auto
  0
XRECORD
  5
36D
330
34B
100
AcDbXrecord
280
1
1000
auto
  0
XRECORD
  5
36E
330
34B
100
AcDbXrecord
280
1
1000
auto
  0
XRECORD
  5
36F
330
34B
100
AcDbXrecord
280
1
1000
auto
  0
XRECORD
  5
370
330
34B
100
AcDbXrecord
280
1
1000
auto
  0
XRECORD
  5
371
330
34B
100
AcDbXrecord
280
1
1000
auto
  0
XRECORD
  5
372
330
34B
100
AcDbXrecord
280
1
1000
auto
  0
XRECORD
  5
373
330
34B
100
AcDbXrecord
280
1
1000
auto
  0
XRECORD
  5
374
330
34B
100
AcDbXrecord
280
1
 90
1
  0
XRECORD
  5
375
330
34B
100
AcDbXrecord
280
1
 40
0.3937007874015748
  0
XRECORD
  5
376
330
34B
100
AcDbXrecord
280
1
 40
0.3937007874015748
  0
XRECORD
  5
377
330
34B
100
AcDbXrecord
280
1
 40
0.3937007874015748
  0
XRECORD
  5
378
330
34B
100
AcDbXrecord
280
1
 40
0.3937007874015748
  0
XRECORD
  5
379
330
34B
100
AcDbXrecord
280
1
290
0
  0
XRECORD
  5
37A
330
34B
100
AcDbXrecord
280
1
 90
1
  0
XRECORD
  5
37B
330
34B
100
AcDbXrecord
280
1
 40
-28.0861517198964457
  0
XRECORD
  5
37C
330
34B
100
AcDbXrecord
280
1
 40
-41.4262959668114235
  0
XRECORD
  5
37D
330
34B
100
AcDbXrecord
280
1
1000
Portrait
  0
XRECORD
  5
37E
330
34B
100
AcDbXrecord
280
1
 40
11.6929133858267722
  0
XRECORD
  5
37F
330
34B
100
AcDbXrecord
280
1
1000
Custom
  0
XRECORD
  5
380
330
34B
100
AcDbXrecord
280
1
 40
8.2677165354330704
  0
XRECORD
  5
381
330
34B
100
AcDbXrecord
280
1
1000
0.5
  0
XRECORD
  5
382
330
34B
100
AcDbXrecord
280
1
1000
0.054
  0
XRECORD
  5
383
330
34B
100
AcDbXrecord
280
1
290
0
  0
XRECORD
  5
384
330
34B
100
AcDbXrecord
280
1
290
0
  0
XRECORD
  5
385
330
34B
100
AcDbXrecord
280
1
1000
Inside
  0
XRECORD
  5
386
330
34B
100
AcDbXrecord
280
1
1000
Arial,10,-1,5,50,0,0,0,0,0
  0
XRECORD
  5
387
330
34B
100
AcDbXrecord
280
1
1000
TopLeft
  0
XRECORD
  5
388
330
34B
100
AcDbXrecord
280
1
1000
3.32.6
  0
XRECORD
  5
389
330
34B
100
AcDbXrecord
280
1
 90
0
  0
XRECORD
  5
38A
330
34B
100
AcDbXrecord
280
1
 90
1
  0
XRECORD
  5
38C
330
34B
100
AcDbXrecord
280
1
 40
166.0487993109101694
  0
XRECORD
  5
38D
330
34B
100
AcDbXrecord
280
1
 40
177.0970560165284553
  0
IMAGEDEF
  5
108
100
AcDbRasterImageDef
 90
0
  1
/home/means/Documents/TinyHomes/icons/NailGun.png
 10
14.0
 20
14.0
 11
1.0
 21
1.0
280
1
281
0
  0
IMAGEDEF
  5
10A
100
AcDbRasterImageDef
 90
0
  1
/home/means/Documents/TinyHomes/icons/NailGun.png
 10
14.0
 20
14.0
 11
1.0
 21
1.0
280
1
281
0
  0
IMAGEDEF
  5
10C
100
AcDbRasterImageDef
 90
0
  1
/home/means/Documents/TinyHomes/icons/NailGun.png
 10
14.0
 20
14.0
 11
1.0
 21
1.0
280
1
281
0
  0
IMAGEDEF
  5
10E
100
AcDbRasterImageDef
 90
0
  1
/home/means/Documents/TinyHomes/icons/NailGun.png
 10
14.0
 20
14.0
 11
1.0
 21
1.0
280
1
281
0
  0
IMAGEDEF
  5
110
100
AcDbRasterImageDef
 90
0
  1
/home/means/Documents/TinyHomes/icons/NailGun.png
 10
8.0
 20
8.0
 11
1.0
 21
1.0
280
1
281
0
  0
IMAGEDEF
  5
112
100
AcDbRasterImageDef
 90
0
  1
/home/means/Documents/TinyHomes/icons/NailGun.png
 10
8.0
 20
8.0
 11
1.0
 21
1.0
280
1
281
0
  0
IMAGEDEF
  5
114
100
AcDbRasterImageDef
 90
0
  1
/home/means/Documents/TinyHomes/icons/NailGun.png
 10
8.0
 20
8.0
 11
1.0
 21
1.0
280
1
281
0
  0
IMAGEDEF
  5
116
100
AcDbRasterImageDef
 90
0
  1
/home/means/Documents/TinyHomes/icons/NailGun.png
 10
8.0
 20
8.0
 11
1.0
 21
1.0
280
1
281
0
  0
IMAGEDEF
  5
118
100
AcDbRasterImageDef
 90
0
  1
/home/means/Documents/TinyHomes/icons/NailGun.png
 10
8.0
 20
8.0
 11
1.0
 21
1.0
280
1
281
0
  0
IMAGEDEF
  5
11A
100
AcDbRasterImageDef
 90
0
  1
/home/means/Documents/TinyHomes/icons/NailGun.png
 10
8.0
 20
8.0
 11
1.0
 21
1.0
280
1
281
0
  0
IMAGEDEF
  5
11C
100
AcDbRasterImageDef
 90
0
  1
/home/means/Documents/TinyHomes/icons/NailGun.png
 10
8.0
 20
8.0
 11
1.0
 21
1.0
280
1
281
0
  0
IMAGEDEF
  5
11E
100
AcDbRasterImageDef
 90
0
  1
/home/means/Documents/TinyHomes/icons/NailGun.png
 10
8.0
 20
8.0
 11
1.0
 21
1.0
280
1
281
0
  0
IMAGEDEF
  5
120
100
AcDbRasterImageDef
 90
0
  1
/home/means/Documents/TinyHomes/icons/NailGun.png
 10
8.0
 20
8.0
 11
1.0
 21
1.0
280
1
281
0
  0
IMAGEDEF
  5
122
100
AcDbRasterImageDef
 90
0
  1
/home/means/Documents/TinyHomes/icons/NailGun.png
 10
8.0
 20
8.0
 11
1.0
 21
1.0
280
1
281
0
  0
IMAGEDEF
  5
124
100
AcDbRasterImageDef
 90
0
  1
/home/means/Documents/TinyHomes/icons/NailGun.png
 10
8.0
 20
8.0
 11
1.0
 21
1.0
280
1
281
0
  0
IMAGEDEF
  5
126
100
AcDbRasterImageDef
 90
0
  1
/home/means/Documents/TinyHomes/icons/NailGun.png
 10
8.0
 20
8.0
 11
1.0
 21
1.0
280
1
281
0
  0
IMAGEDEF
  5
128
100
AcDbRasterImageDef
 90
0
  1
/home/means/Documents/TinyHomes/icons/NailGun.png
 10
14.0
 20
14.0
 11
1.0
 21
1.0
280
1
281
0
  0
IMAGEDEF
  5
12A
100
AcDbRasterImageDef
 90
0
  1
/home/means/Documents/TinyHomes/icons/NailGun.png
 10
14.0
 20
14.0
 11
1.0
 21
1.0
280
1
281
0
  0
IMAGEDEF
  5
12C
100
AcDbRasterImageDef
 90
0
  1
/home/means/Documents/TinyHomes/icons/NailGun.png
 10
14.0
 20
14.0
 11
1.0
 21
1.0
280
1
281
0
  0
IMAGEDEF
  5
12E
100
AcDbRasterImageDef
 90
0
  1
/home/means/Documents/TinyHomes/icons/NailGun.png
 10
14.0
 20
14.0
 11
1.0
 21
1.0
280
1
281
0
  0
IMAGEDEF
  5
130
100
AcDbRasterImageDef
 90
0
  1
/home/means/Documents/TinyHomes/icons/NailGun.png
 10
14.0
 20
14.0
 11
1.0
 21
1.0
280
1
281
0
  0
IMAGEDEF
  5
132
100
AcDbRasterImageDef
 90
0
  1
/home/means/Documents/TinyHomes/icons/NailGun.png
 10
14.0
 20
14.0
 11
1.0
 21
1.0
280
1
281
0
  0
IMAGEDEF
  5
134
100
AcDbRasterImageDef
 90
0
  1
/home/means/Documents/TinyHomes/icons/NailGun.png
 10
14.0
 20
14.0
 11
1.0
 21
1.0
280
1
281
0
  0
IMAGEDEF
  5
136
100
AcDbRasterImageDef
 90
0
  1
/home/means/Documents/TinyHomes/icons/NailGun.png
 10
14.0
 20
14.0
 11
1.0
 21
1.0
280
1
281
0
  0
IMAGEDEF
  5
138
100
AcDbRasterImageDef
 90
0
  1
/home/means/Documents/TinyHomes/icons/NailGun.png
 10
14.0
 20
14.0
 11
1.0
 21
1.0
280
1
281
0
  0
IMAGEDEF
  5
13A
100
AcDbRasterImageDef
 90
0
  1
/home/means/Documents/TinyHomes/icons/NailGun.png
 10
14.0
 20
14.0
 11
1.0
 21
1.0
280
1
281
0
  0
IMAGEDEF
  5
13C
100
AcDbRasterImageDef
 90
0
  1
/home/means/Documents/TinyHomes/icons/NailGun.png
 10
14.0
 20
14.0
 11
1.0
 21
1.0
280
1
281
0
  0
IMAGEDEF
  5
13E
100
AcDbRasterImageDef
 90
0
  1
/home/means/Documents/TinyHomes/icons/NailGun.png
 10
14.0
 20
14.0
 11
1.0
 21
1.0
280
1
281
0
  0
IMAGEDEF
  5
140
100
AcDbRasterImageDef
 90
0
  1
/home/means/Documents/TinyHomes/icons/NailGun.png
 10
14.0
 20
14.0
 11
1.0
 21
1.0
280
1
281
0
  0
IMAGEDEF
  5
142
100
AcDbRasterImageDef
 90
0
  1
/home/means/Documents/TinyHomes/icons/NailGun.png
 10
14.0
 20
14.0
 11
1.0
 21
1.0
280
1
281
0
  0
IMAGEDEF
  5
144
100
AcDbRasterImageDef
 90
0
  1
/home/means/Documents/TinyHomes/icons/NailGun.png
 10
14.0
 20
14.0
 11
1.0
 21
1.0
280
1
281
0
  0
IMAGEDEF
  5
146
100
AcDbRasterImageDef
 90
0
  1
/home/means/Documents/TinyHomes/icons/NailGun.png
 10
14.0
 20
14.0
 11
1.0
 21
1.0
280
1
281
0
  0
IMAGEDEF
  5
148
100
AcDbRasterImageDef
 90
0
  1
/home/means/Documents/TinyHomes/icons/NailGun.png
 10
14.0
 20
14.0
 11
1.0
 21
1.0
280
1
281
0
  0
IMAGEDEF
  5
14A
100
AcDbRasterImageDef
 90
0
  1
/home/means/Documents/TinyHomes/icons/NailGun.png
 10
14.0
 20
14.0
 11
1.0
 21
1.0
280
1
281
0
  0
IMAGEDEF
  5
14C
100
AcDbRasterImageDef
 90
0
  1
/home/means/Documents/TinyHomes/icons/NailGun.png
 10
14.0
 20
14.0
 11
1.0
 21
1.0
280
1
281
0
  0
IMAGEDEF
  5
14E
100
AcDbRasterImageDef
 90
0
  1
/home/means/Documents/TinyHomes/icons/NailGun.png
 10
14.0
 20
14.0
 11
1.0
 21
1.0
280
1
281
0
  0
IMAGEDEF
  5
1CE
100
AcDbRasterImageDef
 90
0
  1
/home/means/Documents/TinyHomes/icons/Pencil.png
 10
7.0
 20
7.0
 11
1.0
 21
1.0
280
1
281
0
  0
IMAGEDEF
  5
1D0
100
AcDbRasterImageDef
 90
0
  1
/home/means/Documents/TinyHomes/icons/Pencil.png
 10
7.0
 20
7.0
 11
1.0
 21
1.0
280
1
281
0
  0
IMAGEDEF
  5
1D2
100
AcDbRasterImageDef
 90
0
  1
/home/means/Documents/TinyHomes/icons/Pencil.png
 10
7.0
 20
7.0
 11
1.0
 21
1.0
280
1
281
0
  0
IMAGEDEF
  5
1D4
100
AcDbRasterImageDef
 90
0
  1
/home/means/Documents/TinyHomes/icons/Pencil.png
 10
7.0
 20
7.0
 11
1.0
 21
1.0
280
1
281
0
  0
IMAGEDEF
  5
1D6
100
AcDbRasterImageDef
 90
0
  1
/home/means/Documents/TinyHomes/icons/Pencil.png
 10
7.0
 20
7.0
 11
1.0
 21
1.0
280
1
281
0
  0
IMAGEDEF
  5
1D8
100
AcDbRasterImageDef
 90
0
  1
/home/means/Documents/TinyHomes/icons/Pencil.png
 10
7.0
 20
7.0
 11
1.0
 21
1.0
280
1
281
0
  0
IMAGEDEF
  5
1DA
100
AcDbRasterImageDef
 90
0
  1
/home/means/Documents/TinyHomes/icons/Pencil.png
 10
7.0
 20
7.0
 11
1.0
 21
1.0
280
1
281
0
  0
IMAGEDEF
  5
1DC
100
AcDbRasterImageDef
 90
0
  1
/home/means/Documents/TinyHomes/icons/Pencil.png
 10
7.0
 20
7.0
 11
1.0
 21
1.0
280
1
281
0
  0
IMAGEDEF
  5
1DE
100
AcDbRasterImageDef
 90
0
  1
/home/means/Documents/TinyHomes/icons/Pencil.png
 10
7.0
 20
7.0
 11
1.0
 21
1.0
280
1
281
0
  0
IMAGEDEF
  5
1E0
100
AcDbRasterImageDef
 90
0
  1
/home/means/Documents/TinyHomes/icons/Pencil.png
 10
7.0
 20
7.0
 11
1.0
 21
1.0
280
1
281
0
  0
IMAGEDEF
  5
1E2
100
AcDbRasterImageDef
 90
0
  1
/home/means/Documents/TinyHomes/icons/Pencil.png
 10
7.0
 20
7.0
 11
1.0
 21
1.0
280
1
281
0
  0
IMAGEDEF
  5
1E4
100
AcDbRasterImageDef
 90
0
  1
/home/means/Documents/TinyHomes/icons/Pencil.png
 10
7.0
 20
7.0
 11
1.0
 21
1.0
280
1
281
0
  0
IMAGEDEF
  5
1E6
100
AcDbRasterImageDef
 90
0
  1
/home/means/Documents/TinyHomes/icons/Pencil.png
 10
7.0
 20
7.0
 11
1.0
 21
1.0
280
1
281
0
  0
IMAGEDEF
  5
1E8
100
AcDbRasterImageDef
 90
0
  1
/home/means/Documents/TinyHomes/icons/Pencil.png
 10
7.0
 20
7.0
 11
1.0
 21
1.0
280
1
281
0
  0
IMAGEDEF
  5
1EA
100
AcDbRasterImageDef
 90
0
  1
/home/means/Documents/TinyHomes/icons/Pencil.png
 10
7.0
 20
7.0
 11
1.0
 21
1.0
280
1
281
0
  0
IMAGEDEF
  5
1EC
100
AcDbRasterImageDef
 90
0
  1
/home/means/Documents/TinyHomes/icons/Pencil.png
 10
7.0
 20
7.0
 11
1.0
 21
1.0
280
1
281
0
  0
IMAGEDEF
  5
22F
100
AcDbRasterImageDef
 90
0
  1
/home/means/Documents/TinyHomes/icons/Pencil.png
 10
7.0
 20
7.0
 11
1.0
 21
1.0
280
1
281
0
  0
IMAGEDEF
  5
232
100
AcDbRasterImageDef
 90
0
  1
/home/means/Documents/TinyHomes/icons/Hurricane_Bracket.png
 10
16.0
 20
31.0
 11
1.0
 21
1.0
280
1
281
0
  0
IMAGEDEF
  5
234
100
AcDbRasterImageDef
 90
0
  1
/home/means/Documents/TinyHomes/icons/Screw.png
 10
5.0
 20
12.0
 11
1.0
 21
1.0
280
1
281
0
  0
IMAGEDEF
  5
236
100
AcDbRasterImageDef
 90
0
  1
/home/means/Documents/TinyHomes/icons/Screw.png
 10
5.0
 20
12.0
 11
1.0
 21
1.0
280
1
281
0
  0
IMAGEDEF
  5
32D
100
AcDbRasterImageDef
 90
0
  1
/home/means/Documents/TinyHomes/icons/Pencil.png
 10
12.0
 20
12.0
 11
1.0
 21
1.0
280
1
281
0
  0
ENDSEC
  0
EOF
