999
dxflib 3.26.4.0
  0
SECTION
  2
HEADER
  9
$ACADVER
  1
AC1015
  9
$HANDSEED
  5
FFFF
  9
$DIMADEC
 70
0
  9
$DIMASZ
 40
1.5
  9
$DIMATFIT
 70
0
  9
$DIMAUNIT
 70
0
  9
$DIMAZIN
 70
2
  9
$DIMBLK
  1
0
  9
$DIMBLK1
  1
0
  9
$DIMBLK2
  1
0
  9
$DIMDEC
 70
4
  9
$DIMDLI
 40
5.0
  9
$DIMDSEP
 70
46
  9
$DIMEXE
 40
1.25
  9
$DIMEXO
 40
0.625
  9
$DIMGAP
 40
0.625
  9
$DIMLFAC
 40
0.0
  9
$DIMLUNIT
 70
2
  9
$DIMSCALE
 40
1.0
  9
$DIMTAD
 70
1
  9
$DIMTIH
 70
0
  9
$DIMTSZ
 40
0.0
  9
$DIMTXT
 40
2.5
  9
$DIMZIN
 70
8
  9
$DWGCODEPAGE
  3
ANSI_1252
  9
$INSUNITS
 70
1
  9
$LTSCALE
 40
1.0
  9
$MAXACTVP
 70
64
  9
$MEASUREMENT
 70
1
  9
$MIRRTEXT
 70
0
  9
$PDMODE
 70
0
  9
$PDSIZE
 40
0.0
  0
ENDSEC
  0
SECTION
  2
TABLES
  0
TABLE
  2
VPORT
  5
8
100
AcDbSymbolTable
 70
1
  0
VPORT
  5
30
100
AcDbSymbolTableRecord
100
AcDbViewportTableRecord
  2
*Active
 70
0
 10
0.0
 20
0.0
 11
1.0
 21
1.0
 12
286.3055555555554861
 22
148.5
 13
0.0
 23
0.0
 14
10.0
 24
10.0
 15
10.0
 25
10.0
 16
0.0
 26
0.0
 36
1.0
 17
0.0
 27
0.0
 37
0.0
 40
297.0
 41
1.92798353909465
 42
50.0
 43
0.0
 44
0.0
 50
0.0
 51
0.0
 71
0
 72
100
 73
1
 74
3
 75
1
 76
1
 77
0
 78
0
281
0
 65
1
110
0.0
120
0.0
130
0.0
111
1.0
121
0.0
131
0.0
112
0.0
122
1.0
132
0.0
 79
0
146
0.0
  0
ENDTAB
  0
TABLE
  2
LTYPE
  5
5
100
AcDbSymbolTable
 70
41
  0
LTYPE
  5
16
100
AcDbSymbolTableRecord
100
AcDbLinetypeTableRecord
  2
Continuous
 70
0
  3
Solid line
 72
65
 73
0
 40
0.0
  0
LTYPE
  5
31
100
AcDbSymbolTableRecord
100
AcDbLinetypeTableRecord
  2
ACAD_ISO05W100
 70
0
  3
ISO long-dash double-dot ____ .. ____ .. ____ . 
 72
65
 73
6
 40
33.0000000000000071
 49
24.0
 74
0
 49
-2.9500000000000002
 74
0
 49
0.1
 74
0
 49
-2.9000000000000004
 74
0
 49
0.1
 74
0
 49
-2.9500000000000002
 74
0
  0
LTYPE
  5
32
100
AcDbSymbolTableRecord
100
AcDbLinetypeTableRecord
  2
ACAD_ISO06W100
 70
0
  3
ISO long-dash triple-dot ____ ... ____ ... ____
 72
65
 73
8
 40
36.0000000000000071
 49
24.0
 74
0
 49
-2.9500000000000002
 74
0
 49
0.1
 74
0
 49
-2.9000000000000004
 74
0
 49
0.1
 74
0
 49
-2.9000000000000004
 74
0
 49
0.1
 74
0
 49
-2.9500000000000002
 74
0
  0
LTYPE
  5
33
100
AcDbSymbolTableRecord
100
AcDbLinetypeTableRecord
  2
CENTERX2
 70
0
  3
Center (2x) ________  __  ________  __  _____
 72
65
 73
4
 40
4.0
 49
2.5
 74
0
 49
-0.5
 74
0
 49
0.5
 74
0
 49
-0.5
 74
0
  0
LTYPE
  5
34
100
AcDbSymbolTableRecord
100
AcDbLinetypeTableRecord
  2
DOTX2
 70
0
  3
Dot (2x) .  .  .  .  .  .  .  .  .  .  .  .  .  .
 72
65
 73
2
 40
0.5
 49
0.1
 74
0
 49
-0.4
 74
0
  0
LTYPE
  5
35
100
AcDbSymbolTableRecord
100
AcDbLinetypeTableRecord
  2
ACAD_ISO07W100
 70
0
  3
ISO dot . . . . . . . . . . . . . . . . . . . . 
 72
65
 73
2
 40
3.0
 49
0.1
 74
0
 49
-2.8999999999999999
 74
0
  0
LTYPE
  5
36
100
AcDbSymbolTableRecord
100
AcDbLinetypeTableRecord
  2
ACAD_ISO15W100
 70
0
  3
ISO double-dash triple-dot __ __ . . . __ __ . .
 72
65
 73
10
 40
39.0000000000000071
 49
12.0
 74
0
 49
-3.0
 74
0
 49
12.0
 74
0
 49
-2.9500000000000002
 74
0
 49
0.1
 74
0
 49
-2.9000000000000004
 74
0
 49
0.1
 74
0
 49
-2.9000000000000004
 74
0
 49
0.1
 74
0
 49
-2.9500000000000002
 74
0
  0
LTYPE
  5
37
100
AcDbSymbolTableRecord
100
AcDbLinetypeTableRecord
  2
DIVIDE2
 70
0
  3
Divide (.5x) __..__..__..__..__..__..__..__.._
 72
65
 73
6
 40
0.625
 49
0.25
 74
0
 49
-0.075
 74
0
 49
0.1
 74
0
 49
-0.025
 74
0
 49
0.1
 74
0
 49
-0.075
 74
0
  0
LTYPE
  5
38
100
AcDbSymbolTableRecord
100
AcDbLinetypeTableRecord
  2
ACAD_ISO10W100
 70
0
  3
ISO dash dot __ . __ . __ . __ . __ . __ . __ . 
 72
65
 73
4
 40
18.0
 49
12.0
 74
0
 49
-2.9500000000000002
 74
0
 49
0.1
 74
0
 49
-2.9500000000000002
 74
0
  0
LTYPE
  5
39
100
AcDbSymbolTableRecord
100
AcDbLinetypeTableRecord
  2
HIDDEN2
 70
0
  3
Hidden (.5x) _ _ _ _ _ _ _ _ _ _ _ _ _ _ _ _ _ 
 72
65
 73
2
 40
0.1875
 49
0.125
 74
0
 49
-0.0625
 74
0
  0
LTYPE
  5
3A
100
AcDbSymbolTableRecord
100
AcDbLinetypeTableRecord
  2
ACAD_ISO09W100
 70
0
  3
ISO long-dash double-short-dash ____ __ __ ____
 72
65
 73
6
 40
45.0
 49
24.0
 74
0
 49
-3.0
 74
0
 49
6.0
 74
0
 49
-3.0
 74
0
 49
6.0
 74
0
 49
-3.0
 74
0
  0
LTYPE
  5
3B
100
AcDbSymbolTableRecord
100
AcDbLinetypeTableRecord
  2
ACAD_ISO14W100
 70
0
  3
ISO dash triple-dot __ . . . __ . . . __ . . . _
 72
65
 73
8
 40
24.0000000000000036
 49
12.0
 74
0
 49
-2.9500000000000002
 74
0
 49
0.1
 74
0
 49
-2.9000000000000004
 74
0
 49
0.1
 74
0
 49
-2.9000000000000004
 74
0
 49
0.1
 74
0
 49
-2.9500000000000002
 74
0
  0
LTYPE
  5
3C
100
AcDbSymbolTableRecord
100
AcDbLinetypeTableRecord
  2
DIVIDEX2
 70
0
  3
Divide (2x) ________  .  .  ________  .  .  _
 72
65
 73
6
 40
2.5000000000000004
 49
1.0
 74
0
 49
-0.45
 74
0
 49
0.1
 74
0
 49
-0.4
 74
0
 49
0.1
 74
0
 49
-0.45
 74
0
  0
LTYPE
  5
14
100
AcDbSymbolTableRecord
100
AcDbLinetypeTableRecord
  2
BYBLOCK
 70
0
  3

 72
65
 73
0
 40
0.0
  0
LTYPE
  5
3D
100
AcDbSymbolTableRecord
100
AcDbLinetypeTableRecord
  2
BORDERX2
 70
0
  3
Border (2x) ____  ____  .  ____  ____  .  ___
 72
65
 73
6
 40
3.5000000000000004
 49
1.0
 74
0
 49
-0.5
 74
0
 49
1.0
 74
0
 49
-0.45
 74
0
 49
0.1
 74
0
 49
-0.45
 74
0
  0
LTYPE
  5
3E
100
AcDbSymbolTableRecord
100
AcDbLinetypeTableRecord
  2
DASHDOTX2
 70
0
  3
Dash dot (2x) ____  .  ____  .  ____  .  ___
 72
65
 73
4
 40
2.0
 49
1.0
 74
0
 49
-0.45
 74
0
 49
0.1
 74
0
 49
-0.45
 74
0
  0
LTYPE
  5
3F
100
AcDbSymbolTableRecord
100
AcDbLinetypeTableRecord
  2
PHANTOM
 70
0
  3
Phantom ______  __  __  ______  __  __  ______ 
 72
65
 73
6
 40
2.5
 49
1.25
 74
0
 49
-0.25
 74
0
 49
0.25
 74
0
 49
-0.25
 74
0
 49
0.25
 74
0
 49
-0.25
 74
0
  0
LTYPE
  5
40
100
AcDbSymbolTableRecord
100
AcDbLinetypeTableRecord
  2
ACAD_ISO03W100
 70
0
  3
ISO dash space __    __    __    __    __    __
 72
65
 73
2
 40
30.0
 49
12.0
 74
0
 49
-18.0
 74
0
  0
LTYPE
  5
41
100
AcDbSymbolTableRecord
100
AcDbLinetypeTableRecord
  2
DASHDOT2
 70
0
  3
Dash dot (.5x) _._._._._._._._._._._._._._._.
 72
65
 73
4
 40
0.5
 49
0.25
 74
0
 49
-0.075
 74
0
 49
0.1
 74
0
 49
-0.075
 74
0
  0
LTYPE
  5
42
100
AcDbSymbolTableRecord
100
AcDbLinetypeTableRecord
  2
HIDDENX2
 70
0
  3
Hidden (2x) ____ ____ ____ ____ ____ ____ ____ 
 72
65
 73
2
 40
0.75
 49
0.5
 74
0
 49
-0.25
 74
0
  0
LTYPE
  5
43
100
AcDbSymbolTableRecord
100
AcDbLinetypeTableRecord
  2
ACAD_ISO02W100
 70
0
  3
ISO dash __ __ __ __ __ __ __ __ __ __ __ __ __
 72
65
 73
2
 40
15.0
 49
12.0
 74
0
 49
-3.0
 74
0
  0
LTYPE
  5
44
100
AcDbSymbolTableRecord
100
AcDbLinetypeTableRecord
  2
PHANTOMX2
 70
0
  3
Phantom (2x) ____________    ____    ____   _
 72
65
 73
6
 40
5.0
 49
2.5
 74
0
 49
-0.5
 74
0
 49
0.5
 74
0
 49
-0.5
 74
0
 49
0.5
 74
0
 49
-0.5
 74
0
  0
LTYPE
  5
45
100
AcDbSymbolTableRecord
100
AcDbLinetypeTableRecord
  2
ACAD_ISO13W100
 70
0
  3
ISO double-dash double-dot __ __ . . __ __ . . _
 72
65
 73
8
 40
36.0000000000000071
 49
12.0
 74
0
 49
-3.0
 74
0
 49
12.0
 74
0
 49
-2.9500000000000002
 74
0
 49
0.1
 74
0
 49
-2.9000000000000004
 74
0
 49
0.1
 74
0
 49
-2.9500000000000002
 74
0
  0
LTYPE
  5
46
100
AcDbSymbolTableRecord
100
AcDbLinetypeTableRecord
  2
ACAD_ISO12W100
 70
0
  3
ISO dash double-dot __ . . __ . . __ . . __ . . 
 72
65
 73
6
 40
21.0
 49
12.0
 74
0
 49
-2.9500000000000002
 74
0
 49
0.1
 74
0
 49
-2.9000000000000004
 74
0
 49
0.1
 74
0
 49
-2.9500000000000002
 74
0
  0
LTYPE
  5
47
100
AcDbSymbolTableRecord
100
AcDbLinetypeTableRecord
  2
DOT
 70
0
  3
Dot . . . . . . . . . . . . . . . . . . . . . . . .
 72
65
 73
2
 40
0.25
 49
0.1
 74
0
 49
-0.15
 74
0
  0
LTYPE
  5
15
100
AcDbSymbolTableRecord
100
AcDbLinetypeTableRecord
  2
BYLAYER
 70
0
  3

 72
65
 73
0
 40
0.0
  0
LTYPE
  5
48
100
AcDbSymbolTableRecord
100
AcDbLinetypeTableRecord
  2
HIDDEN
 70
0
  3
Hidden __ __ __ __ __ __ __ __ __ __ __ __ __ __
 72
65
 73
2
 40
0.375
 49
0.25
 74
0
 49
-0.125
 74
0
  0
LTYPE
  5
49
100
AcDbSymbolTableRecord
100
AcDbLinetypeTableRecord
  2
ACAD_ISO04W100
 70
0
  3
ISO long-dash dot ____ . ____ . ____ . ____ . _
 72
65
 73
4
 40
30.0
 49
24.0
 74
0
 49
-2.9500000000000002
 74
0
 49
0.1
 74
0
 49
-2.9500000000000002
 74
0
  0
LTYPE
  5
4A
100
AcDbSymbolTableRecord
100
AcDbLinetypeTableRecord
  2
DOT2
 70
0
  3
Dot (.5x) ........................................
 72
65
 73
2
 40
0.125
 49
0.1
 74
0
 49
-0.025
 74
0
  0
LTYPE
  5
4B
100
AcDbSymbolTableRecord
100
AcDbLinetypeTableRecord
  2
ACAD_ISO08W100
 70
0
  3
ISO long-dash short-dash ____ __ ____ __ ____ _
 72
65
 73
4
 40
36.0
 49
24.0
 74
0
 49
-3.0
 74
0
 49
6.0
 74
0
 49
-3.0
 74
0
  0
LTYPE
  5
4C
100
AcDbSymbolTableRecord
100
AcDbLinetypeTableRecord
  2
DIVIDE
 70
0
  3
Divide ____ . . ____ . . ____ . . ____ . . ____
 72
65
 73
6
 40
1.25
 49
0.5
 74
0
 49
-0.2
 74
0
 49
0.1
 74
0
 49
-0.15
 74
0
 49
0.1
 74
0
 49
-0.2
 74
0
  0
LTYPE
  5
4D
100
AcDbSymbolTableRecord
100
AcDbLinetypeTableRecord
  2
DASHEDX2
 70
0
  3
Dashed (2x) ____  ____  ____  ____  ____  ___
 72
65
 73
2
 40
1.5
 49
1.0
 74
0
 49
-0.5
 74
0
  0
LTYPE
  5
4E
100
AcDbSymbolTableRecord
100
AcDbLinetypeTableRecord
  2
CENTER2
 70
0
  3
Center (.5x) ___ _ ___ _ ___ _ ___ _ ___ _ ___
 72
65
 73
4
 40
1.125
 49
0.75
 74
0
 49
-0.125
 74
0
 49
0.125
 74
0
 49
-0.125
 74
0
  0
LTYPE
  5
4F
100
AcDbSymbolTableRecord
100
AcDbLinetypeTableRecord
  2
BORDER
 70
0
  3
Border __ __ . __ __ . __ __ . __ __ . __ __ .
 72
65
 73
6
 40
1.75
 49
0.5
 74
0
 49
-0.25
 74
0
 49
0.5
 74
0
 49
-0.2
 74
0
 49
0.1
 74
0
 49
-0.2
 74
0
  0
LTYPE
  5
50
100
AcDbSymbolTableRecord
100
AcDbLinetypeTableRecord
  2
DASHED
 70
0
  3
Dashed __ __ __ __ __ __ __ __ __ __ __ __ __ _
 72
65
 73
2
 40
0.75
 49
0.5
 74
0
 49
-0.25
 74
0
  0
LTYPE
  5
51
100
AcDbSymbolTableRecord
100
AcDbLinetypeTableRecord
  2
ACAD_ISO11W100
 70
0
  3
ISO double-dash dot __ __ . __ __ . __ __ . __ _
 72
65
 73
6
 40
33.0
 49
12.0
 74
0
 49
-3.0
 74
0
 49
12.0
 74
0
 49
-2.9500000000000002
 74
0
 49
0.1
 74
0
 49
-2.9500000000000002
 74
0
  0
LTYPE
  5
52
100
AcDbSymbolTableRecord
100
AcDbLinetypeTableRecord
  2
PHANTOM2
 70
0
  3
Phantom (.5x) ___ _ _ ___ _ _ ___ _ _ ___ _ _
 72
65
 73
6
 40
1.25
 49
0.625
 74
0
 49
-0.125
 74
0
 49
0.125
 74
0
 49
-0.125
 74
0
 49
0.125
 74
0
 49
-0.125
 74
0
  0
LTYPE
  5
53
100
AcDbSymbolTableRecord
100
AcDbLinetypeTableRecord
  2
BORDER2
 70
0
  3
Border (.5x) __.__.__.__.__.__.__.__.__.__.__.
 72
65
 73
6
 40
0.8749999999999999
 49
0.25
 74
0
 49
-0.125
 74
0
 49
0.25
 74
0
 49
-0.075
 74
0
 49
0.1
 74
0
 49
-0.075
 74
0
  0
LTYPE
  5
54
100
AcDbSymbolTableRecord
100
AcDbLinetypeTableRecord
  2
DASHDOT
 70
0
  3
Dash dot __ . __ . __ . __ . __ . __ . __ . __
 72
65
 73
4
 40
1.0
 49
0.5
 74
0
 49
-0.2
 74
0
 49
0.1
 74
0
 49
-0.2
 74
0
  0
LTYPE
  5
55
100
AcDbSymbolTableRecord
100
AcDbLinetypeTableRecord
  2
DASHED2
 70
0
  3
Dashed (.5x) _ _ _ _ _ _ _ _ _ _ _ _ _ _ _ _ _ 
 72
65
 73
2
 40
0.375
 49
0.25
 74
0
 49
-0.125
 74
0
  0
LTYPE
  5
56
100
AcDbSymbolTableRecord
100
AcDbLinetypeTableRecord
  2
CENTER
 70
0
  3
Center ____ _ ____ _ ____ _ ____ _ ____ _ ____
 72
65
 73
4
 40
2.0
 49
1.25
 74
0
 49
-0.25
 74
0
 49
0.25
 74
0
 49
-0.25
 74
0
  0
ENDTAB
  0
TABLE
  2
LAYER
  5
2
100
AcDbSymbolTable
 70
3
  0
LAYER
  5
57
100
AcDbSymbolTableRecord
100
AcDbLayerTableRecord
  2
Notes
 70
0
 62
7
420
0
  6
Continuous
370
25
390
F
  0
LAYER
  5
58
100
AcDbSymbolTableRecord
100
AcDbLayerTableRecord
  2
Panels
 70
0
 62
7
420
0
  6
Continuous
370
25
390
F
  0
LAYER
  5
10
100
AcDbSymbolTableRecord
100
AcDbLayerTableRecord
  2
0
 70
1
 62
7
420
16777215
  6
Continuous
370
25
390
F
  0
ENDTAB
  0
TABLE
  2
STYLE
  5
3
100
AcDbSymbolTable
 70
20
  0
STYLE
  5
59
100
AcDbSymbolTableRecord
100
AcDbTextStyleTableRecord
  2
Standard
 70
0
 40
0.0
 41
1.0
 50
0.0
 71
0
 42
2.5
  3

  4

1001
ACAD
1000
txt
1071
0
  0
STYLE
  5
5A
100
AcDbSymbolTableRecord
100
AcDbTextStyleTableRecord
  2
textstyle0
 70
0
 40
0.0
 41
1.0
 50
0.0
 71
0
 42
3.0
  3

  4

1001
ACAD
1000

1071
0
  0
STYLE
  5
5B
100
AcDbSymbolTableRecord
100
AcDbTextStyleTableRecord
  2
textstyle1
 70
0
 40
0.0
 41
1.0
 50
0.0
 71
0
 42
3.0
  3

  4

1001
ACAD
1000

1071
0
  0
STYLE
  5
5C
100
AcDbSymbolTableRecord
100
AcDbTextStyleTableRecord
  2
textstyle2
 70
0
 40
0.0
 41
1.0
 50
0.0
 71
0
 42
3.0
  3

  4

1001
ACAD
1000

1071
0
  0
STYLE
  5
5D
100
AcDbSymbolTableRecord
100
AcDbTextStyleTableRecord
  2
textstyle3
 70
0
 40
0.0
 41
1.0
 50
0.0
 71
0
 42
3.0
  3

  4

1001
ACAD
1000

1071
0
  0
STYLE
  5
5E
100
AcDbSymbolTableRecord
100
AcDbTextStyleTableRecord
  2
textstyle4
 70
0
 40
0.0
 41
1.0
 50
0.0
 71
0
 42
3.0
  3

  4

1001
ACAD
1000

1071
0
  0
STYLE
  5
5F
100
AcDbSymbolTableRecord
100
AcDbTextStyleTableRecord
  2
textstyle5
 70
0
 40
0.0
 41
1.0
 50
0.0
 71
0
 42
3.0
  3

  4

1001
ACAD
1000

1071
0
  0
STYLE
  5
60
100
AcDbSymbolTableRecord
100
AcDbTextStyleTableRecord
  2
textstyle6
 70
0
 40
0.0
 41
1.0
 50
0.0
 71
0
 42
3.0
  3

  4

1001
ACAD
1000

1071
0
  0
STYLE
  5
61
100
AcDbSymbolTableRecord
100
AcDbTextStyleTableRecord
  2
textstyle7
 70
0
 40
0.0
 41
1.0
 50
0.0
 71
0
 42
3.0
  3

  4

1001
ACAD
1000

1071
0
  0
STYLE
  5
62
100
AcDbSymbolTableRecord
100
AcDbTextStyleTableRecord
  2
textstyle8
 70
0
 40
0.0
 41
1.0
 50
0.0
 71
0
 42
1.0
  3

  4

1001
ACAD
1000

1071
0
  0
STYLE
  5
63
100
AcDbSymbolTableRecord
100
AcDbTextStyleTableRecord
  2
textstyle9
 70
0
 40
0.0
 41
1.0
 50
0.0
 71
0
 42
3.0
  3

  4

1001
ACAD
1000

1071
0
  0
STYLE
  5
64
100
AcDbSymbolTableRecord
100
AcDbTextStyleTableRecord
  2
textstyle10
 70
0
 40
0.0
 41
1.0
 50
0.0
 71
0
 42
3.0
  3

  4

1001
ACAD
1000

1071
0
  0
STYLE
  5
65
100
AcDbSymbolTableRecord
100
AcDbTextStyleTableRecord
  2
textstyle11
 70
0
 40
0.0
 41
1.0
 50
0.0
 71
0
 42
3.0
  3

  4

1001
ACAD
1000

1071
0
  0
STYLE
  5
66
100
AcDbSymbolTableRecord
100
AcDbTextStyleTableRecord
  2
textstyle12
 70
0
 40
0.0
 41
1.0
 50
0.0
 71
0
 42
3.0
  3

  4

1001
ACAD
1000
Liberation Sans
1071
0
  0
STYLE
  5
67
100
AcDbSymbolTableRecord
100
AcDbTextStyleTableRecord
  2
textstyle13
 70
0
 40
0.0
 41
1.0
 50
0.0
 71
0
 42
3.0
  3

  4

1001
ACAD
1000
Liberation Sans
1071
0
  0
STYLE
  5
68
100
AcDbSymbolTableRecord
100
AcDbTextStyleTableRecord
  2
textstyle14
 70
0
 40
0.0
 41
1.0
 50
0.0
 71
0
 42
3.0
  3

  4

1001
ACAD
1000
Liberation Sans
1071
0
  0
STYLE
  5
69
100
AcDbSymbolTableRecord
100
AcDbTextStyleTableRecord
  2
textstyle15
 70
0
 40
0.0
 41
1.0
 50
0.0
 71
0
 42
3.0
  3

  4

1001
ACAD
1000
Liberation Sans
1071
0
  0
STYLE
  5
6A
100
AcDbSymbolTableRecord
100
AcDbTextStyleTableRecord
  2
textstyle16
 70
0
 40
0.0
 41
1.0
 50
0.0
 71
0
 42
3.0
  3

  4

1001
ACAD
1000
Liberation Sans
1071
0
  0
STYLE
  5
6B
100
AcDbSymbolTableRecord
100
AcDbTextStyleTableRecord
  2
textstyle17
 70
0
 40
0.0
 41
1.0
 50
0.0
 71
0
 42
3.0
  3

  4

1001
ACAD
1000

1071
0
  0
STYLE
  5
6C
100
AcDbSymbolTableRecord
100
AcDbTextStyleTableRecord
  2
textstyle18
 70
0
 40
0.0
 41
1.0
 50
0.0
 71
0
 42
3.0
  3

  4

1001
ACAD
1000

1071
0
  0
ENDTAB
  0
TABLE
  2
VIEW
  5
6
100
AcDbSymbolTable
 70
0
  0
ENDTAB
  0
TABLE
  2
UCS
  5
7
100
AcDbSymbolTable
 70
0
  0
ENDTAB
  0
TABLE
  2
APPID
  5
9
100
AcDbSymbolTable
 70
1
  0
APPID
  5
12
100
AcDbSymbolTableRecord
100
AcDbRegAppTableRecord
  2
ACAD
 70
0
  0
APPID
  5
6D
100
AcDbSymbolTableRecord
100
AcDbRegAppTableRecord
  2
QCAD
 70
0
  0
ENDTAB
  0
TABLE
  2
DIMSTYLE
  5
A
100
AcDbSymbolTable
 70
1
100
AcDbDimStyleTable
 71
0
  0
DIMSTYLE
105
27
100
AcDbSymbolTableRecord
100
AcDbDimStyleTableRecord
  2
Standard
 41
1.5
 42
0.625
 43
3.75
 44
1.25
 70
0
 73
0
 74
0
 77
1
 78
8
140
2.5
141
2.5
143
0.03937007874016
147
0.625
171
3
172
1
271
2
272
2
274
3
278
44
283
0
284
8
340
59
  0
ENDTAB
  0
TABLE
  2
BLOCK_RECORD
  5
1
100
AcDbSymbolTable
 70
1
  0
BLOCK_RECORD
  5
1F
100
AcDbSymbolTableRecord
100
AcDbBlockTableRecord
  2
*Model_Space
340
22
  0
BLOCK_RECORD
  5
1B
100
AcDbSymbolTableRecord
100
AcDbBlockTableRecord
  2
*Paper_Space
340
1E
  0
BLOCK_RECORD
  5
23
100
AcDbSymbolTableRecord
100
AcDbBlockTableRecord
  2
*Paper_Space0
340
26
  0
BLOCK_RECORD
  5
6E
100
AcDbSymbolTableRecord
100
AcDbBlockTableRecord
  2
WhiteBore
340
0
  0
BLOCK_RECORD
  5
6F
100
AcDbSymbolTableRecord
100
AcDbBlockTableRecord
  2
noNail
340
0
  0
ENDTAB
  0
ENDSEC
  0
SECTION
  2
BLOCKS
  0
BLOCK
  5
20
100
AcDbEntity
  8
0
100
AcDbBlockBegin
  2
*Model_Space
 70
0
 10
0.0
 20
0.0
 30
0.0
  3
*Model_Space
  1

  0
ENDBLK
  5
21
100
AcDbEntity
  8
0
100
AcDbBlockEnd
  0
BLOCK
  5
1C
100
AcDbEntity
 67
1
  8
0
100
AcDbBlockBegin
  2
*Paper_Space
 70
0
 10
0.0
 20
0.0
 30
0.0
  3
*Paper_Space
  1

  0
ENDBLK
  5
1D
100
AcDbEntity
 67
1
  8
0
100
AcDbBlockEnd
  0
BLOCK
  5
24
100
AcDbEntity
  8
0
100
AcDbBlockBegin
  2
*Paper_Space0
 70
0
 10
0.0
 20
0.0
 30
0.0
  3
*Paper_Space0
  1

  0
ENDBLK
  5
25
100
AcDbEntity
  8
0
100
AcDbBlockEnd
  0
BLOCK
  5
70
100
AcDbEntity
  8
0
100
AcDbBlockBegin
  2
WhiteBore
 70
0
 10
0.0
 20
0.0
 30
0.0
  3
WhiteBore
  1

  0
CIRCLE
  5
71
100
AcDbEntity
  8
Panels
 62
7
420
16053492
370
-1
 48
1.0
  6
BYLAYER
100
AcDbCircle
 10
0.0
 20
0.0
 30
0.0
 40
0.3175
  0
HATCH
  5
72
100
AcDbEntity
  8
Panels
 62
7
420
16053492
370
-1
 48
1.0
  6
BYLAYER
100
AcDbHatch
 10
0.0
 20
0.0
 30
0.0
210
0.0
220
0.0
230
1.0
  2
SOLID
 70
1
 71
0
 91
1
 92
1
 93
1
 72
2
 10
0.0
 20
0.0
 40
0.3175
 50
0.0
 51
360.0
 73
1
 97
0
 75
0
 76
1
 98
0
1001
ACAD
1010
0.0
1020
0.0
1030
0
  0
ENDBLK
  5
73
100
AcDbEntity
  8
0
100
AcDbBlockEnd
  0
BLOCK
  5
74
100
AcDbEntity
  8
0
100
AcDbBlockBegin
  2
noNail
 70
0
 10
0.0
 20
0.0
 30
0.0
  3
noNail
  1

  0
ENDBLK
  5
75
100
AcDbEntity
  8
0
100
AcDbBlockEnd
  0
ENDSEC
  0
SECTION
  2
ENTITIES
  0
HATCH
  5
76
100
AcDbEntity
  8
Panels
 62
9
420
12632256
370
-1
 48
1.0
  6
BYLAYER
100
AcDbHatch
 10
0.0
 20
0.0
 30
0.0
210
0.0
220
0.0
230
1.0
  2
SOLID
 70
1
 71
0
 91
1
 92
1
 93
4
 72
1
 10
121.4812375963484214
 20
-122.2069760000000542
 11
121.4812375963484214
 21
-166.2069760000000542
 72
1
 10
121.4812375963484214
 20
-166.2069760000000542
 11
165.4812375963484214
 21
-166.2069760000000542
 72
1
 10
165.4812375963484214
 20
-166.2069760000000542
 11
165.4812375963484214
 21
-122.2069760000000542
 72
1
 10
165.4812375963484214
 20
-122.2069760000000542
 11
121.4812375963484214
 21
-122.2069760000000542
 97
0
 75
0
 76
1
 98
0
1001
ACAD
1010
0.0
1020
0.0
1030
0
  0
HATCH
  5
77
100
AcDbEntity
  8
Panels
 62
9
420
12632256
370
-1
 48
1.0
  6
BYLAYER
100
AcDbHatch
 10
0.0
 20
0.0
 30
0.0
210
0.0
220
0.0
230
1.0
  2
SOLID
 70
1
 71
0
 91
1
 92
1
 93
4
 72
1
 10
122.0
 20
-210.0000000000000284
 11
122.0
 21
-254.0000000000000284
 72
1
 10
122.0
 20
-254.0000000000000284
 11
166.0
 21
-254.0000000000000284
 72
1
 10
166.0
 20
-254.0000000000000284
 11
166.0
 21
-210.0000000000000284
 72
1
 10
166.0
 20
-210.0000000000000284
 11
122.0
 21
-210.0000000000000284
 97
0
 75
0
 76
1
 98
0
1001
ACAD
1010
0.0
1020
0.0
1030
0
  0
HATCH
  5
78
100
AcDbEntity
  8
Panels
 62
9
420
12632256
370
-1
 48
1.0
  6
BYLAYER
100
AcDbHatch
 10
0.0
 20
0.0
 30
0.0
210
0.0
220
0.0
230
1.0
  2
SOLID
 70
1
 71
0
 91
1
 92
1
 93
4
 72
1
 10
122.4238009738416082
 20
-89.5070282289475756
 11
122.4238009738416082
 21
-45.5070282289475756
 72
1
 10
122.4238009738416082
 20
-45.5070282289475756
 11
30.4238009738416082
 21
-45.5070282289475756
 72
1
 10
30.4238009738416082
 20
-45.5070282289475756
 11
30.4238009738416082
 21
-89.5070282289475756
 72
1
 10
30.4238009738416082
 20
-89.5070282289475756
 11
122.4238009738416082
 21
-89.5070282289475756
 97
0
 75
0
 76
1
 98
0
1001
ACAD
1010
0.0
1020
0.0
1030
0
  0
HATCH
  5
79
100
AcDbEntity
  8
Panels
 62
9
420
12632256
370
-1
 48
1.0
  6
BYLAYER
100
AcDbHatch
 10
0.0
 20
0.0
 30
0.0
210
0.0
220
0.0
230
1.0
  2
SOLID
 70
1
 71
0
 91
1
 92
1
 93
4
 72
1
 10
121.4812375963484214
 20
-166.2069760000000258
 11
121.4812375963484214
 21
-122.2069760000000258
 72
1
 10
121.4812375963484214
 20
-122.2069760000000258
 11
29.4812375963484214
 21
-122.2069760000000258
 72
1
 10
29.4812375963484214
 20
-122.2069760000000258
 11
29.4812375963484214
 21
-166.2069760000000258
 72
1
 10
29.4812375963484214
 20
-166.2069760000000258
 11
121.4812375963484214
 21
-166.2069760000000258
 97
0
 75
0
 76
1
 98
0
1001
ACAD
1010
0.0
1020
0.0
1030
0
  0
HATCH
  5
7A
100
AcDbEntity
  8
Panels
 62
9
420
12632256
370
-1
 48
1.0
  6
BYLAYER
100
AcDbHatch
 10
0.0
 20
0.0
 30
0.0
210
0.0
220
0.0
230
1.0
  2
SOLID
 70
1
 71
0
 91
1
 92
1
 93
4
 72
1
 10
122.0
 20
-254.0
 11
122.0
 21
-210.0
 72
1
 10
122.0
 20
-210.0
 11
30.0
 21
-210.0
 72
1
 10
30.0
 20
-210.0
 11
30.0
 21
-254.0
 72
1
 10
30.0
 20
-254.0
 11
122.0
 21
-254.0
 97
0
 75
0
 76
1
 98
0
1001
ACAD
1010
0.0
1020
0.0
1030
0
  0
LINE
  5
7B
100
AcDbEntity
  8
Panels
 62
256
370
-1
 48
1.0
  6
BYLAYER
100
AcDbLine
 10
0.0
 20
0.0
 30
0.0
 11
92.0
 21
0.0
 31
0.0
  0
LINE
  5
7C
100
AcDbEntity
  8
Panels
 62
256
370
-1
 48
1.0
  6
BYLAYER
100
AcDbLine
 10
30.4238009738416082
 20
-89.5070282289475756
 30
0.0
 11
122.4238009738416082
 21
-89.5070282289475756
 31
0.0
  0
LINE
  5
7D
100
AcDbEntity
  8
Panels
 62
256
370
-1
 48
1.0
  6
BYLAYER
100
AcDbLine
 10
29.4812375963484214
 20
-166.2069760000000258
 30
0.0
 11
121.4812375963484214
 21
-166.2069760000000258
 31
0.0
  0
LINE
  5
7E
100
AcDbEntity
  8
Panels
 62
256
370
-1
 48
1.0
  6
BYLAYER
100
AcDbLine
 10
30.0
 20
-254.0
 30
0.0
 11
122.0
 21
-254.0
 31
0.0
  0
LINE
  5
7F
100
AcDbEntity
  8
Panels
 62
256
370
-1
 48
1.0
  6
BYLAYER
100
AcDbLine
 10
92.0
 20
0.0
 30
0.0
 11
92.0
 21
44.0
 31
0.0
  0
LINE
  5
80
100
AcDbEntity
  8
Panels
 62
256
370
-1
 48
1.0
  6
BYLAYER
100
AcDbLine
 10
122.4238009738416082
 20
-89.5070282289475756
 30
0.0
 11
122.4238009738416082
 21
-45.5070282289475756
 31
0.0
  0
LINE
  5
81
100
AcDbEntity
  8
Panels
 62
256
370
-1
 48
1.0
  6
BYLAYER
100
AcDbLine
 10
121.4812375963484214
 20
-166.2069760000000258
 30
0.0
 11
121.4812375963484214
 21
-122.2069760000000258
 31
0.0
  0
LINE
  5
82
100
AcDbEntity
  8
Panels
 62
256
370
-1
 48
1.0
  6
BYLAYER
100
AcDbLine
 10
122.0
 20
-254.0
 30
0.0
 11
122.0
 21
-210.0
 31
0.0
  0
LINE
  5
83
100
AcDbEntity
  8
Panels
 62
256
370
-1
 48
1.0
  6
BYLAYER
100
AcDbLine
 10
92.0
 20
44.0
 30
0.0
 11
0.0
 21
44.0
 31
0.0
  0
LINE
  5
84
100
AcDbEntity
  8
Panels
 62
256
370
-1
 48
1.0
  6
BYLAYER
100
AcDbLine
 10
122.4238009738416082
 20
-45.5070282289475756
 30
0.0
 11
30.4238009738416082
 21
-45.5070282289475756
 31
0.0
  0
LINE
  5
85
100
AcDbEntity
  8
Panels
 62
256
370
-1
 48
1.0
  6
BYLAYER
100
AcDbLine
 10
121.4812375963484214
 20
-122.2069760000000258
 30
0.0
 11
29.4812375963484214
 21
-122.2069760000000258
 31
0.0
  0
LINE
  5
86
100
AcDbEntity
  8
Panels
 62
256
370
-1
 48
1.0
  6
BYLAYER
100
AcDbLine
 10
122.0
 20
-210.0
 30
0.0
 11
30.0
 21
-210.0
 31
0.0
  0
LINE
  5
87
100
AcDbEntity
  8
Panels
 62
256
370
-1
 48
1.0
  6
BYLAYER
100
AcDbLine
 10
0.0
 20
44.0
 30
0.0
 11
0.0
 21
0.0
 31
0.0
  0
LINE
  5
88
100
AcDbEntity
  8
Panels
 62
256
370
-1
 48
1.0
  6
BYLAYER
100
AcDbLine
 10
30.4238009738416082
 20
-45.5070282289475756
 30
0.0
 11
30.4238009738416082
 21
-89.5070282289475756
 31
0.0
  0
LINE
  5
89
100
AcDbEntity
  8
Panels
 62
256
370
-1
 48
1.0
  6
BYLAYER
100
AcDbLine
 10
29.4812375963484214
 20
-122.2069760000000258
 30
0.0
 11
29.4812375963484214
 21
-166.2069760000000258
 31
0.0
  0
LINE
  5
8A
100
AcDbEntity
  8
Panels
 62
256
370
-1
 48
1.0
  6
BYLAYER
100
AcDbLine
 10
30.0
 20
-210.0
 30
0.0
 11
30.0
 21
-254.0
 31
0.0
  0
LINE
  5
8B
100
AcDbEntity
  8
Panels
 62
256
370
-1
 48
1.0
  6
BYLAYER
100
AcDbLine
 10
130.0
 20
0.0
 30
0.0
 11
174.0
 21
0.0
 31
0.0
  0
LINE
  5
8C
100
AcDbEntity
  8
Panels
 62
256
370
-1
 48
1.0
  6
BYLAYER
100
AcDbLine
 10
121.4812375963484214
 20
-166.2069760000000542
 30
0.0
 11
165.4812375963484214
 21
-166.2069760000000542
 31
0.0
  0
LINE
  5
8D
100
AcDbEntity
  8
Panels
 62
256
370
-1
 48
1.0
  6
BYLAYER
100
AcDbLine
 10
122.0
 20
-254.0000000000000284
 30
0.0
 11
166.0
 21
-254.0000000000000284
 31
0.0
  0
LINE
  5
8E
100
AcDbEntity
  8
Panels
 62
256
370
-1
 48
1.0
  6
BYLAYER
100
AcDbLine
 10
174.0
 20
0.0
 30
0.0
 11
174.0
 21
44.0
 31
0.0
  0
LINE
  5
8F
100
AcDbEntity
  8
Panels
 62
256
370
-1
 48
1.0
  6
BYLAYER
100
AcDbLine
 10
165.4812375963484214
 20
-166.2069760000000542
 30
0.0
 11
165.4812375963484214
 21
-122.2069760000000542
 31
0.0
  0
LINE
  5
90
100
AcDbEntity
  8
Panels
 62
256
370
-1
 48
1.0
  6
BYLAYER
100
AcDbLine
 10
166.0
 20
-254.0000000000000284
 30
0.0
 11
166.0
 21
-210.0000000000000284
 31
0.0
  0
LINE
  5
91
100
AcDbEntity
  8
Panels
 62
256
370
-1
 48
1.0
  6
BYLAYER
100
AcDbLine
 10
174.0
 20
44.0
 30
0.0
 11
130.0
 21
44.0
 31
0.0
  0
LINE
  5
92
100
AcDbEntity
  8
Panels
 62
256
370
-1
 48
1.0
  6
BYLAYER
100
AcDbLine
 10
165.4812375963484214
 20
-122.2069760000000542
 30
0.0
 11
121.4812375963484214
 21
-122.2069760000000542
 31
0.0
  0
LINE
  5
93
100
AcDbEntity
  8
Panels
 62
256
370
-1
 48
1.0
  6
BYLAYER
100
AcDbLine
 10
166.0
 20
-210.0000000000000284
 30
0.0
 11
122.0
 21
-210.0000000000000284
 31
0.0
  0
LINE
  5
94
100
AcDbEntity
  8
Panels
 62
256
370
-1
 48
1.0
  6
BYLAYER
100
AcDbLine
 10
130.0
 20
44.0
 30
0.0
 11
130.0
 21
0.0
 31
0.0
  0
LINE
  5
95
100
AcDbEntity
  8
Panels
 62
256
370
-1
 48
1.0
  6
BYLAYER
100
AcDbLine
 10
121.4812375963484214
 20
-122.2069760000000542
 30
0.0
 11
121.4812375963484214
 21
-166.2069760000000542
 31
0.0
  0
LINE
  5
96
100
AcDbEntity
  8
Panels
 62
256
370
-1
 48
1.0
  6
BYLAYER
100
AcDbLine
 10
122.0
 20
-210.0000000000000284
 30
0.0
 11
122.0
 21
-254.0000000000000284
 31
0.0
  0
IMAGE
  5
97
100
AcDbEntity
  8
Panels
 62
256
370
-1
 48
1.0
  6
BYLAYER
100
AcDbRasterImage
 90
0
 10
129.7853009225112828
 20
42.4924751111147998
 30
0.0
 11
0.1
 21
-0.1732050807568877
 31
0.0
 12
0.1732050807568877
 22
0.1
 32
0.0
 13
3.0
 23
9.0
340
98
 70
15
280
0
281
50
282
50
283
0
  0
IMAGE
  5
99
100
AcDbEntity
  8
Panels
 62
256
370
-1
 48
1.0
  6
BYLAYER
100
AcDbRasterImage
 90
0
 10
129.7853009225112828
 20
34.4924751111147927
 30
0.0
 11
0.1
 21
-0.1732050807568877
 31
0.0
 12
0.1732050807568877
 22
0.1
 32
0.0
 13
3.0
 23
9.0
340
9A
 70
15
280
0
281
50
282
50
283
0
  0
IMAGE
  5
9B
100
AcDbEntity
  8
Panels
 62
256
370
-1
 48
1.0
  6
BYLAYER
100
AcDbRasterImage
 90
0
 10
129.7853009225112828
 20
26.4924751111147927
 30
0.0
 11
0.1
 21
-0.1732050807568877
 31
0.0
 12
0.1732050807568877
 22
0.1
 32
0.0
 13
3.0
 23
9.0
340
9C
 70
15
280
0
281
50
282
50
283
0
  0
IMAGE
  5
9D
100
AcDbEntity
  8
Panels
 62
256
370
-1
 48
1.0
  6
BYLAYER
100
AcDbRasterImage
 90
0
 10
129.7853009225112828
 20
18.4924751111147927
 30
0.0
 11
0.1
 21
-0.1732050807568877
 31
0.0
 12
0.1732050807568877
 22
0.1
 32
0.0
 13
3.0
 23
9.0
340
9E
 70
15
280
0
281
50
282
50
283
0
  0
IMAGE
  5
9F
100
AcDbEntity
  8
Panels
 62
256
370
-1
 48
1.0
  6
BYLAYER
100
AcDbRasterImage
 90
0
 10
129.7853009225112828
 20
10.4924751111147927
 30
0.0
 11
0.1
 21
-0.1732050807568877
 31
0.0
 12
0.1732050807568877
 22
0.1
 32
0.0
 13
3.0
 23
9.0
340
A0
 70
15
280
0
281
50
282
50
283
0
  0
IMAGE
  5
A1
100
AcDbEntity
  8
Panels
 62
256
370
-1
 48
1.0
  6
BYLAYER
100
AcDbRasterImage
 90
0
 10
129.7853009225112828
 20
2.4924751111147927
 30
0.0
 11
0.1
 21
-0.1732050807568877
 31
0.0
 12
0.1732050807568877
 22
0.1
 32
0.0
 13
3.0
 23
9.0
340
A2
 70
15
280
0
281
50
282
50
283
0
  0
IMAGE
  5
A3
100
AcDbEntity
  8
Panels
 62
256
370
-1
 48
1.0
  6
BYLAYER
100
AcDbRasterImage
 90
0
 10
171.9966961821212408
 20
38.8290392059831717
 30
0.0
 11
0.1
 21
0.1732050807568877
 31
0.0
 12
-0.1732050807568877
 22
0.1000000000000001
 32
0.0
 13
3.0
 23
9.0
340
A4
 70
15
280
0
281
50
282
50
283
0
  0
IMAGE
  5
A5
100
AcDbEntity
  8
Panels
 62
256
370
-1
 48
1.0
  6
BYLAYER
100
AcDbRasterImage
 90
0
 10
172.0606049426847903
 20
22.8291668417947271
 30
0.0
 11
0.1
 21
0.1732050807568877
 31
0.0
 12
-0.1732050807568877
 22
0.1000000000000001
 32
0.0
 13
3.0
 23
9.0
340
A6
 70
15
280
0
281
50
282
50
283
0
  0
IMAGE
  5
A7
100
AcDbEntity
  8
Panels
 62
256
370
-1
 48
1.0
  6
BYLAYER
100
AcDbRasterImage
 90
0
 10
172.0286505624030156
 20
30.8291030238889334
 30
0.0
 11
0.1
 21
0.1732050807568877
 31
0.0
 12
-0.1732050807568877
 22
0.1000000000000001
 32
0.0
 13
3.0
 23
9.0
340
A8
 70
15
280
0
281
50
282
50
283
0
  0
IMAGE
  5
A9
100
AcDbEntity
  8
Panels
 62
256
370
-1
 48
1.0
  6
BYLAYER
100
AcDbRasterImage
 90
0
 10
172.1245137032483683
 20
6.8292944776064353
 30
0.0
 11
0.1
 21
0.1732050807568877
 31
0.0
 12
-0.1732050807568877
 22
0.1000000000000001
 32
0.0
 13
3.0
 23
9.0
340
AA
 70
15
280
0
281
50
282
50
283
0
  0
IMAGE
  5
AB
100
AcDbEntity
  8
Panels
 62
256
370
-1
 48
1.0
  6
BYLAYER
100
AcDbRasterImage
 90
0
 10
172.0925593229665935
 20
14.8292306597002757
 30
0.0
 11
0.1
 21
0.1732050807568877
 31
0.0
 12
-0.1732050807568877
 22
0.1000000000000001
 32
0.0
 13
3.0
 23
9.0
340
AC
 70
15
280
0
281
50
282
50
283
0
  0
IMAGE
  5
AD
100
AcDbEntity
  8
Panels
 62
256
370
-1
 48
1.0
  6
BYLAYER
100
AcDbRasterImage
 90
0
 10
172.1564680835301715
 20
-1.1706417044878368
 30
0.0
 11
0.1
 21
0.1732050807568877
 31
0.0
 12
-0.1732050807568877
 22
0.1000000000000001
 32
0.0
 13
3.0
 23
9.0
340
AE
 70
15
280
0
281
50
282
50
283
0
  0
IMAGE
  5
AF
100
AcDbEntity
  8
Panels
 62
256
370
-1
 48
1.0
  6
BYLAYER
100
AcDbRasterImage
 90
0
 10
90.0
 20
40.0000000000000071
 30
0.0
 11
0.1
 21
0.1732050807568877
 31
0.0
 12
-0.1732050807568877
 22
0.1000000000000001
 32
0.0
 13
3.0
 23
9.0
340
B0
 70
15
280
0
281
50
282
50
283
0
  0
IMAGE
  5
B1
100
AcDbEntity
  8
Panels
 62
256
370
-1
 48
1.0
  6
BYLAYER
100
AcDbRasterImage
 90
0
 10
90.0639087605635495
 20
24.0001276358114985
 30
0.0
 11
0.1
 21
0.1732050807568877
 31
0.0
 12
-0.1732050807568877
 22
0.1000000000000001
 32
0.0
 13
3.0
 23
9.0
340
B2
 70
15
280
0
281
50
282
50
283
0
  0
IMAGE
  5
B3
100
AcDbEntity
  8
Panels
 62
256
370
-1
 48
1.0
  6
BYLAYER
100
AcDbRasterImage
 90
0
 10
90.0319543802817748
 20
32.0000638179058825
 30
0.0
 11
0.1
 21
0.1732050807568877
 31
0.0
 12
-0.1732050807568877
 22
0.1000000000000001
 32
0.0
 13
3.0
 23
9.0
340
B4
 70
15
280
0
281
50
282
50
283
0
  0
IMAGE
  5
B5
100
AcDbEntity
  8
Panels
 62
256
370
-1
 48
1.0
  6
BYLAYER
100
AcDbRasterImage
 90
0
 10
90.1278175211271275
 20
8.0002552716234412
 30
0.0
 11
0.1
 21
0.1732050807568877
 31
0.0
 12
-0.1732050807568877
 22
0.1000000000000001
 32
0.0
 13
3.0
 23
9.0
340
B6
 70
15
280
0
281
50
282
50
283
0
  0
IMAGE
  5
B7
100
AcDbEntity
  8
Panels
 62
256
370
-1
 48
1.0
  6
BYLAYER
100
AcDbRasterImage
 90
0
 10
90.0958631408453527
 20
16.0001914537171714
 30
0.0
 11
0.1
 21
0.1732050807568877
 31
0.0
 12
-0.1732050807568877
 22
0.1000000000000001
 32
0.0
 13
3.0
 23
9.0
340
B8
 70
15
280
0
281
50
282
50
283
0
  0
IMAGE
  5
B9
100
AcDbEntity
  8
Panels
 62
256
370
-1
 48
1.0
  6
BYLAYER
100
AcDbRasterImage
 90
0
 10
90.1597719014089307
 20
0.0003190895278176
 30
0.0
 11
0.1
 21
0.1732050807568877
 31
0.0
 12
-0.1732050807568877
 22
0.1000000000000001
 32
0.0
 13
3.0
 23
9.0
340
BA
 70
15
280
0
281
50
282
50
283
0
  0
IMAGE
  5
BB
100
AcDbEntity
  8
Panels
 62
256
370
-1
 48
1.0
  6
BYLAYER
100
AcDbRasterImage
 90
0
 10
-0.8306990774887026
 20
43.2568319999999673
 30
0.0
 11
0.1
 21
-0.1732050807568877
 31
0.0
 12
0.1732050807568877
 22
0.1
 32
0.0
 13
3.0
 23
9.0
340
BC
 70
15
280
0
281
50
282
50
283
0
  0
IMAGE
  5
BD
100
AcDbEntity
  8
Panels
 62
256
370
-1
 48
1.0
  6
BYLAYER
100
AcDbRasterImage
 90
0
 10
-0.8306990774887026
 20
35.2568319999999957
 30
0.0
 11
0.1
 21
-0.1732050807568877
 31
0.0
 12
0.1732050807568877
 22
0.1
 32
0.0
 13
3.0
 23
9.0
340
BE
 70
15
280
0
281
50
282
50
283
0
  0
IMAGE
  5
BF
100
AcDbEntity
  8
Panels
 62
256
370
-1
 48
1.0
  6
BYLAYER
100
AcDbRasterImage
 90
0
 10
-0.8306990774887026
 20
27.2568319999999105
 30
0.0
 11
0.1
 21
-0.1732050807568877
 31
0.0
 12
0.1732050807568877
 22
0.1
 32
0.0
 13
3.0
 23
9.0
340
C0
 70
15
280
0
281
50
282
50
283
0
  0
IMAGE
  5
C1
100
AcDbEntity
  8
Panels
 62
256
370
-1
 48
1.0
  6
BYLAYER
100
AcDbRasterImage
 90
0
 10
-0.8306990774887026
 20
19.2568320000000028
 30
0.0
 11
0.1
 21
-0.1732050807568877
 31
0.0
 12
0.1732050807568877
 22
0.1
 32
0.0
 13
3.0
 23
9.0
340
C2
 70
15
280
0
281
50
282
50
283
0
  0
IMAGE
  5
C3
100
AcDbEntity
  8
Panels
 62
256
370
-1
 48
1.0
  6
BYLAYER
100
AcDbRasterImage
 90
0
 10
-0.8306990774887026
 20
11.2568319999998181
 30
0.0
 11
0.1
 21
-0.1732050807568877
 31
0.0
 12
0.1732050807568877
 22
0.1
 32
0.0
 13
3.0
 23
9.0
340
C4
 70
15
280
0
281
50
282
50
283
0
  0
IMAGE
  5
C5
100
AcDbEntity
  8
Panels
 62
256
370
-1
 48
1.0
  6
BYLAYER
100
AcDbRasterImage
 90
0
 10
-0.8306990774887026
 20
3.2568319999999353
 30
0.0
 11
0.1
 21
-0.1732050807568877
 31
0.0
 12
0.1732050807568877
 22
0.1
 32
0.0
 13
3.0
 23
9.0
340
C6
 70
15
280
0
281
50
282
50
283
0
  0
MTEXT
  5
C7
100
AcDbEntity
  8
0
 62
256
370
-1
 48
1.0
  6
BYLAYER
100
AcDbMText
 10
50.0
 20
90.0
 30
0.0
 40
3.0
 41
0.0
 71
1
 72
1
  1
\H7.99999;Interior Ceiling Panels
  7
textstyle12
 50
0.0
 73
2
 44
1.0
  0
MTEXT
  5
C8
100
AcDbEntity
  8
Panels
 62
256
370
-1
 48
1.0
  6
BYLAYER
100
AcDbMText
 10
20.0
 20
40.0
 30
0.0
 40
3.0
 41
0.0
 71
1
 72
1
  1
\H7.99999;R1
  7
textstyle13
 50
0.0
 73
2
 44
1.0
  0
MTEXT
  5
C9
100
AcDbEntity
  8
Panels
 62
256
370
-1
 48
1.0
  6
BYLAYER
100
AcDbMText
 10
55.7499999999999858
 20
-55.5000000000000071
 30
0.0
 40
3.0
 41
0.0
 71
1
 72
1
  1
\H7.99999;R1
  7
textstyle14
 50
0.0
 73
2
 44
1.0
  0
MTEXT
  5
CA
100
AcDbEntity
  8
Panels
 62
256
370
-1
 48
1.0
  6
BYLAYER
100
AcDbMText
 10
145.4856706833066085
 20
39.9905909637119805
 30
0.0
 40
3.0
 41
0.0
 71
1
 72
1
  1
\H7.99999;R2
  7
textstyle15
 50
0.0
 73
2
 44
1.0
  0
MTEXT
  5
CB
100
AcDbEntity
  8
Panels
 62
256
370
-1
 48
1.0
  6
BYLAYER
100
AcDbMText
 10
127.0731730534400299
 20
-130.1254070272000831
 30
0.0
 40
3.0
 41
0.0
 71
1
 72
1
  1
\H7.99999;R2
  7
textstyle16
 50
0.0
 73
2
 44
1.0
  0
LEADER
  5
CC
100
AcDbEntity
  8
Notes
 62
256
370
-1
 48
1.0
  6
BYLAYER
100
AcDbLeader
  3
Standard
 71
1
 72
0
 73
3
 74
0
 75
0
 40
1.0
 41
10.0
 76
3
 10
92.0
 20
39.9905909637119805
 10
102.6492697524906106
 20
55.9940319313920227
 10
108.0240409524906084
 20
55.9940319313920227
1001
ACAD
1000
DSTYLE
1002
{
1070
40
1040
1.0
1002
}
  0
LEADER
  5
CD
100
AcDbEntity
  8
Notes
 62
256
370
-1
 48
1.0
  6
BYLAYER
100
AcDbLeader
  3
Standard
 71
1
 72
0
 73
3
 74
0
 75
0
 40
1.0
 41
10.0
 76
3
 10
129.7899289524905839
 20
6.300899131392022
 10
115.1019289524905673
 20
-18.4095008686079638
 10
124.2603289524905676
 20
-18.4095008686079638
1001
ACAD
1000
DSTYLE
1002
{
1070
40
1040
1.0
1002
}
  0
MTEXT
  5
CE
100
AcDbEntity
  8
Notes
 62
256
370
-1
 48
1.0
  6
BYLAYER
100
AcDbMText
 10
127.7163289524905849
 20
-17.0271008686079739
 30
0.0
 40
3.0
 41
0.0
 71
1
 72
1
  1
\fDejaVu Sans|b0|i0|c0|p0;Factory edge (paint mark)
  7
textstyle17
 50
0.0
 73
2
 44
1.0
  0
MTEXT
  5
CF
100
AcDbEntity
  8
Notes
 62
256
370
-1
 48
1.0
  6
BYLAYER
100
AcDbMText
 10
109.3104134042183802
 20
57.7379874168757325
 30
0.0
 40
3.0
 41
0.0
 71
1
 72
1
  1
\fDejaVu Sans|b0|i0|c0|p0;Factory edge (paint mark)
  7
textstyle18
 50
0.0
 73
2
 44
1.0
  0
LINE
  5
D0
100
AcDbEntity
  8
0
 62
256
370
-1
 48
1.0
  6
BYLAYER
100
AcDbLine
 10
145.75
 20
-43.5429082643934109
 30
0.0
 11
145.75
 21
-90.0
 31
0.0
  0
LINE
  5
D1
100
AcDbEntity
  8
0
 62
256
370
-1
 48
1.0
  6
BYLAYER
100
AcDbLine
 10
121.75
 20
-43.5429082643934109
 30
0.0
 11
121.75
 21
-90.0
 31
0.0
  0
LINE
  5
D2
100
AcDbEntity
  8
0
 62
256
370
-1
 48
1.0
  6
BYLAYER
100
AcDbLine
 10
97.75
 20
-43.5429082643934109
 30
0.0
 11
97.75
 21
-90.0
 31
0.0
  0
LINE
  5
D3
100
AcDbEntity
  8
0
 62
256
370
-1
 48
1.0
  6
BYLAYER
100
AcDbLine
 10
73.75
 20
-43.5429082643934109
 30
0.0
 11
73.75
 21
-90.0
 31
0.0
  0
LINE
  5
D4
100
AcDbEntity
  8
0
 62
256
370
-1
 48
1.0
  6
BYLAYER
100
AcDbLine
 10
49.75
 20
-43.5429082643934109
 30
0.0
 11
49.75
 21
-90.0
 31
0.0
  0
LINE
  5
D5
100
AcDbEntity
  8
0
 62
256
370
-1
 48
1.0
  6
BYLAYER
100
AcDbLine
 10
165.5
 20
-43.5429082643934109
 30
0.0
 11
165.5
 21
-90.0
 31
0.0
  0
LINE
  5
D6
100
AcDbEntity
  8
0
 62
256
370
-1
 48
1.0
  6
BYLAYER
100
AcDbLine
 10
30.0
 20
-43.5429082643934109
 30
0.0
 11
30.0
 21
-90.0
 31
0.0
  0
LINE
  5
D7
100
AcDbEntity
  8
0
 62
256
370
-1
 48
1.0
  6
BYLAYER
100
AcDbLine
 10
144.807436622506799
 20
-120.2428560354458398
 30
0.0
 11
144.807436622506799
 21
-166.6999477710524218
 31
0.0
  0
LINE
  5
D8
100
AcDbEntity
  8
0
 62
256
370
-1
 48
1.0
  6
BYLAYER
100
AcDbLine
 10
145.3261990261583776
 20
-208.035880035445814
 30
0.0
 11
145.3261990261583776
 21
-254.492971771052396
 31
0.0
  0
LINE
  5
D9
100
AcDbEntity
  8
0
 62
256
370
-1
 48
1.0
  6
BYLAYER
100
AcDbLine
 10
120.8074366225068133
 20
-120.2428560354458398
 30
0.0
 11
120.8074366225068133
 21
-166.6999477710524218
 31
0.0
  0
LINE
  5
DA
100
AcDbEntity
  8
0
 62
256
370
-1
 48
1.0
  6
BYLAYER
100
AcDbLine
 10
121.3261990261583918
 20
-208.035880035445814
 30
0.0
 11
121.3261990261583918
 21
-254.492971771052396
 31
0.0
  0
LINE
  5
DB
100
AcDbEntity
  8
0
 62
256
370
-1
 48
1.0
  6
BYLAYER
100
AcDbLine
 10
96.8074366225068133
 20
-120.2428560354458398
 30
0.0
 11
96.8074366225068133
 21
-166.6999477710524218
 31
0.0
  0
LINE
  5
DC
100
AcDbEntity
  8
0
 62
256
370
-1
 48
1.0
  6
BYLAYER
100
AcDbLine
 10
97.3261990261583918
 20
-208.035880035445814
 30
0.0
 11
97.3261990261583918
 21
-254.492971771052396
 31
0.0
  0
LINE
  5
DD
100
AcDbEntity
  8
0
 62
256
370
-1
 48
1.0
  6
BYLAYER
100
AcDbLine
 10
72.8074366225068133
 20
-120.2428560354458398
 30
0.0
 11
72.8074366225068133
 21
-166.6999477710524218
 31
0.0
  0
LINE
  5
DE
100
AcDbEntity
  8
0
 62
256
370
-1
 48
1.0
  6
BYLAYER
100
AcDbLine
 10
73.3261990261583918
 20
-208.035880035445814
 30
0.0
 11
73.3261990261583918
 21
-254.492971771052396
 31
0.0
  0
LINE
  5
DF
100
AcDbEntity
  8
0
 62
256
370
-1
 48
1.0
  6
BYLAYER
100
AcDbLine
 10
48.8074366225068133
 20
-120.2428560354458398
 30
0.0
 11
48.8074366225068133
 21
-166.6999477710524218
 31
0.0
  0
LINE
  5
E0
100
AcDbEntity
  8
0
 62
256
370
-1
 48
1.0
  6
BYLAYER
100
AcDbLine
 10
49.3261990261583918
 20
-208.035880035445814
 30
0.0
 11
49.3261990261583918
 21
-254.492971771052396
 31
0.0
  0
LINE
  5
E1
100
AcDbEntity
  8
0
 62
256
370
-1
 48
1.0
  6
BYLAYER
100
AcDbLine
 10
164.557436622506799
 20
-120.2428560354458398
 30
0.0
 11
164.557436622506799
 21
-166.6999477710524218
 31
0.0
  0
LINE
  5
E2
100
AcDbEntity
  8
0
 62
256
370
-1
 48
1.0
  6
BYLAYER
100
AcDbLine
 10
165.0761990261583776
 20
-208.035880035445814
 30
0.0
 11
165.0761990261583776
 21
-254.492971771052396
 31
0.0
  0
LINE
  5
E3
100
AcDbEntity
  8
0
 62
256
370
-1
 48
1.0
  6
BYLAYER
100
AcDbLine
 10
29.0574366225068133
 20
-120.2428560354458398
 30
0.0
 11
29.0574366225068133
 21
-166.6999477710524218
 31
0.0
  0
LINE
  5
E4
100
AcDbEntity
  8
0
 62
256
370
-1
 48
1.0
  6
BYLAYER
100
AcDbLine
 10
29.5761990261583918
 20
-208.035880035445814
 30
0.0
 11
29.5761990261583918
 21
-254.492971771052396
 31
0.0
  0
LINE
  5
E5
100
AcDbEntity
  8
0
 62
256
370
-1
 48
1.0
  6
BYLAYER
100
AcDbLine
 10
145.75
 20
-90.0
 30
0.0
 11
147.25
 21
-90.0
 31
0.0
  0
LINE
  5
E6
100
AcDbEntity
  8
0
 62
256
370
-1
 48
1.0
  6
BYLAYER
100
AcDbLine
 10
121.75
 20
-90.0
 30
0.0
 11
123.25
 21
-90.0
 31
0.0
  0
LINE
  5
E7
100
AcDbEntity
  8
0
 62
256
370
-1
 48
1.0
  6
BYLAYER
100
AcDbLine
 10
97.75
 20
-90.0
 30
0.0
 11
99.25
 21
-90.0
 31
0.0
  0
LINE
  5
E8
100
AcDbEntity
  8
0
 62
256
370
-1
 48
1.0
  6
BYLAYER
100
AcDbLine
 10
73.75
 20
-90.0
 30
0.0
 11
75.25
 21
-90.0
 31
0.0
  0
LINE
  5
E9
100
AcDbEntity
  8
0
 62
256
370
-1
 48
1.0
  6
BYLAYER
100
AcDbLine
 10
49.75
 20
-90.0
 30
0.0
 11
51.25
 21
-90.0
 31
0.0
  0
LINE
  5
EA
100
AcDbEntity
  8
0
 62
256
370
-1
 48
1.0
  6
BYLAYER
100
AcDbLine
 10
165.5
 20
-90.0
 30
0.0
 11
167.0
 21
-90.0
 31
0.0
  0
LINE
  5
EB
100
AcDbEntity
  8
0
 62
256
370
-1
 48
1.0
  6
BYLAYER
100
AcDbLine
 10
30.0
 20
-90.0
 30
0.0
 11
31.5
 21
-90.0
 31
0.0
  0
LINE
  5
EC
100
AcDbEntity
  8
0
 62
256
370
-1
 48
1.0
  6
BYLAYER
100
AcDbLine
 10
144.807436622506799
 20
-166.6999477710524218
 30
0.0
 11
146.307436622506799
 21
-166.6999477710524218
 31
0.0
  0
LINE
  5
ED
100
AcDbEntity
  8
0
 62
256
370
-1
 48
1.0
  6
BYLAYER
100
AcDbLine
 10
145.3261990261583776
 20
-254.492971771052396
 30
0.0
 11
146.8261990261583776
 21
-254.492971771052396
 31
0.0
  0
LINE
  5
EE
100
AcDbEntity
  8
0
 62
256
370
-1
 48
1.0
  6
BYLAYER
100
AcDbLine
 10
120.8074366225068133
 20
-166.6999477710524218
 30
0.0
 11
122.3074366225068133
 21
-166.6999477710524218
 31
0.0
  0
LINE
  5
EF
100
AcDbEntity
  8
0
 62
256
370
-1
 48
1.0
  6
BYLAYER
100
AcDbLine
 10
121.3261990261583918
 20
-254.492971771052396
 30
0.0
 11
122.8261990261583918
 21
-254.492971771052396
 31
0.0
  0
LINE
  5
F0
100
AcDbEntity
  8
0
 62
256
370
-1
 48
1.0
  6
BYLAYER
100
AcDbLine
 10
96.8074366225068133
 20
-166.6999477710524218
 30
0.0
 11
98.3074366225068133
 21
-166.6999477710524218
 31
0.0
  0
LINE
  5
F1
100
AcDbEntity
  8
0
 62
256
370
-1
 48
1.0
  6
BYLAYER
100
AcDbLine
 10
97.3261990261583918
 20
-254.492971771052396
 30
0.0
 11
98.8261990261583918
 21
-254.492971771052396
 31
0.0
  0
LINE
  5
F2
100
AcDbEntity
  8
0
 62
256
370
-1
 48
1.0
  6
BYLAYER
100
AcDbLine
 10
72.8074366225068133
 20
-166.6999477710524218
 30
0.0
 11
74.3074366225068133
 21
-166.6999477710524218
 31
0.0
  0
LINE
  5
F3
100
AcDbEntity
  8
0
 62
256
370
-1
 48
1.0
  6
BYLAYER
100
AcDbLine
 10
73.3261990261583918
 20
-254.492971771052396
 30
0.0
 11
74.8261990261583918
 21
-254.492971771052396
 31
0.0
  0
LINE
  5
F4
100
AcDbEntity
  8
0
 62
256
370
-1
 48
1.0
  6
BYLAYER
100
AcDbLine
 10
48.8074366225068133
 20
-166.6999477710524218
 30
0.0
 11
50.3074366225068133
 21
-166.6999477710524218
 31
0.0
  0
LINE
  5
F5
100
AcDbEntity
  8
0
 62
256
370
-1
 48
1.0
  6
BYLAYER
100
AcDbLine
 10
49.3261990261583918
 20
-254.492971771052396
 30
0.0
 11
50.8261990261583918
 21
-254.492971771052396
 31
0.0
  0
LINE
  5
F6
100
AcDbEntity
  8
0
 62
256
370
-1
 48
1.0
  6
BYLAYER
100
AcDbLine
 10
164.557436622506799
 20
-166.6999477710524218
 30
0.0
 11
166.057436622506799
 21
-166.6999477710524218
 31
0.0
  0
LINE
  5
F7
100
AcDbEntity
  8
0
 62
256
370
-1
 48
1.0
  6
BYLAYER
100
AcDbLine
 10
165.0761990261583776
 20
-254.492971771052396
 30
0.0
 11
166.5761990261583776
 21
-254.492971771052396
 31
0.0
  0
LINE
  5
F8
100
AcDbEntity
  8
0
 62
256
370
-1
 48
1.0
  6
BYLAYER
100
AcDbLine
 10
29.0574366225068133
 20
-166.6999477710524218
 30
0.0
 11
30.5574366225068133
 21
-166.6999477710524218
 31
0.0
  0
LINE
  5
F9
100
AcDbEntity
  8
0
 62
256
370
-1
 48
1.0
  6
BYLAYER
100
AcDbLine
 10
29.5761990261583918
 20
-254.492971771052396
 30
0.0
 11
31.0761990261583918
 21
-254.492971771052396
 31
0.0
  0
LINE
  5
FA
100
AcDbEntity
  8
0
 62
256
370
-1
 48
1.0
  6
BYLAYER
100
AcDbLine
 10
147.25
 20
-90.0
 30
0.0
 11
147.25
 21
-43.5429082643934109
 31
0.0
  0
LINE
  5
FB
100
AcDbEntity
  8
0
 62
256
370
-1
 48
1.0
  6
BYLAYER
100
AcDbLine
 10
123.25
 20
-90.0
 30
0.0
 11
123.25
 21
-43.5429082643934109
 31
0.0
  0
LINE
  5
FC
100
AcDbEntity
  8
0
 62
256
370
-1
 48
1.0
  6
BYLAYER
100
AcDbLine
 10
99.25
 20
-90.0
 30
0.0
 11
99.25
 21
-43.5429082643934109
 31
0.0
  0
LINE
  5
FD
100
AcDbEntity
  8
0
 62
256
370
-1
 48
1.0
  6
BYLAYER
100
AcDbLine
 10
75.25
 20
-90.0
 30
0.0
 11
75.25
 21
-43.5429082643934109
 31
0.0
  0
LINE
  5
FE
100
AcDbEntity
  8
0
 62
256
370
-1
 48
1.0
  6
BYLAYER
100
AcDbLine
 10
51.25
 20
-90.0
 30
0.0
 11
51.25
 21
-43.5429082643934109
 31
0.0
  0
LINE
  5
FF
100
AcDbEntity
  8
0
 62
256
370
-1
 48
1.0
  6
BYLAYER
100
AcDbLine
 10
167.0
 20
-90.0
 30
0.0
 11
167.0
 21
-43.5429082643934109
 31
0.0
  0
LINE
  5
100
100
AcDbEntity
  8
0
 62
256
370
-1
 48
1.0
  6
BYLAYER
100
AcDbLine
 10
31.5
 20
-90.0
 30
0.0
 11
31.5
 21
-43.5429082643934109
 31
0.0
  0
LINE
  5
101
100
AcDbEntity
  8
0
 62
256
370
-1
 48
1.0
  6
BYLAYER
100
AcDbLine
 10
146.307436622506799
 20
-166.6999477710524218
 30
0.0
 11
146.307436622506799
 21
-120.2428560354458398
 31
0.0
  0
LINE
  5
102
100
AcDbEntity
  8
0
 62
256
370
-1
 48
1.0
  6
BYLAYER
100
AcDbLine
 10
146.8261990261583776
 20
-254.492971771052396
 30
0.0
 11
146.8261990261583776
 21
-208.035880035445814
 31
0.0
  0
LINE
  5
103
100
AcDbEntity
  8
0
 62
256
370
-1
 48
1.0
  6
BYLAYER
100
AcDbLine
 10
122.3074366225068133
 20
-166.6999477710524218
 30
0.0
 11
122.3074366225068133
 21
-120.2428560354458398
 31
0.0
  0
LINE
  5
104
100
AcDbEntity
  8
0
 62
256
370
-1
 48
1.0
  6
BYLAYER
100
AcDbLine
 10
122.8261990261583918
 20
-254.492971771052396
 30
0.0
 11
122.8261990261583918
 21
-208.035880035445814
 31
0.0
  0
LINE
  5
105
100
AcDbEntity
  8
0
 62
256
370
-1
 48
1.0
  6
BYLAYER
100
AcDbLine
 10
98.3074366225068133
 20
-166.6999477710524218
 30
0.0
 11
98.3074366225068133
 21
-120.2428560354458398
 31
0.0
  0
LINE
  5
106
100
AcDbEntity
  8
0
 62
256
370
-1
 48
1.0
  6
BYLAYER
100
AcDbLine
 10
98.8261990261583918
 20
-254.492971771052396
 30
0.0
 11
98.8261990261583918
 21
-208.035880035445814
 31
0.0
  0
LINE
  5
107
100
AcDbEntity
  8
0
 62
256
370
-1
 48
1.0
  6
BYLAYER
100
AcDbLine
 10
74.3074366225068133
 20
-166.6999477710524218
 30
0.0
 11
74.3074366225068133
 21
-120.2428560354458398
 31
0.0
  0
LINE
  5
108
100
AcDbEntity
  8
0
 62
256
370
-1
 48
1.0
  6
BYLAYER
100
AcDbLine
 10
74.8261990261583918
 20
-254.492971771052396
 30
0.0
 11
74.8261990261583918
 21
-208.035880035445814
 31
0.0
  0
LINE
  5
109
100
AcDbEntity
  8
0
 62
256
370
-1
 48
1.0
  6
BYLAYER
100
AcDbLine
 10
50.3074366225068133
 20
-166.6999477710524218
 30
0.0
 11
50.3074366225068133
 21
-120.2428560354458398
 31
0.0
  0
LINE
  5
10A
100
AcDbEntity
  8
0
 62
256
370
-1
 48
1.0
  6
BYLAYER
100
AcDbLine
 10
50.8261990261583918
 20
-254.492971771052396
 30
0.0
 11
50.8261990261583918
 21
-208.035880035445814
 31
0.0
  0
LINE
  5
10B
100
AcDbEntity
  8
0
 62
256
370
-1
 48
1.0
  6
BYLAYER
100
AcDbLine
 10
166.057436622506799
 20
-166.6999477710524218
 30
0.0
 11
166.057436622506799
 21
-120.2428560354458398
 31
0.0
  0
LINE
  5
10C
100
AcDbEntity
  8
0
 62
256
370
-1
 48
1.0
  6
BYLAYER
100
AcDbLine
 10
166.5761990261583776
 20
-254.492971771052396
 30
0.0
 11
166.5761990261583776
 21
-208.035880035445814
 31
0.0
  0
LINE
  5
10D
100
AcDbEntity
  8
0
 62
256
370
-1
 48
1.0
  6
BYLAYER
100
AcDbLine
 10
30.5574366225068133
 20
-166.6999477710524218
 30
0.0
 11
30.5574366225068133
 21
-120.2428560354458398
 31
0.0
  0
LINE
  5
10E
100
AcDbEntity
  8
0
 62
256
370
-1
 48
1.0
  6
BYLAYER
100
AcDbLine
 10
31.0761990261583918
 20
-254.492971771052396
 30
0.0
 11
31.0761990261583918
 21
-208.035880035445814
 31
0.0
  0
LINE
  5
10F
100
AcDbEntity
  8
0
 62
256
370
-1
 48
1.0
  6
BYLAYER
100
AcDbLine
 10
145.75
 20
-43.542908264393418
 30
0.0
 11
147.25
 21
-43.542908264393418
 31
0.0
  0
LINE
  5
110
100
AcDbEntity
  8
0
 62
256
370
-1
 48
1.0
  6
BYLAYER
100
AcDbLine
 10
121.75
 20
-43.542908264393418
 30
0.0
 11
123.25
 21
-43.542908264393418
 31
0.0
  0
LINE
  5
111
100
AcDbEntity
  8
0
 62
256
370
-1
 48
1.0
  6
BYLAYER
100
AcDbLine
 10
97.75
 20
-43.542908264393418
 30
0.0
 11
99.25
 21
-43.542908264393418
 31
0.0
  0
LINE
  5
112
100
AcDbEntity
  8
0
 62
256
370
-1
 48
1.0
  6
BYLAYER
100
AcDbLine
 10
73.75
 20
-43.542908264393418
 30
0.0
 11
75.25
 21
-43.542908264393418
 31
0.0
  0
LINE
  5
113
100
AcDbEntity
  8
0
 62
256
370
-1
 48
1.0
  6
BYLAYER
100
AcDbLine
 10
49.75
 20
-43.542908264393418
 30
0.0
 11
51.25
 21
-43.542908264393418
 31
0.0
  0
LINE
  5
114
100
AcDbEntity
  8
0
 62
256
370
-1
 48
1.0
  6
BYLAYER
100
AcDbLine
 10
165.5
 20
-43.542908264393418
 30
0.0
 11
167.0
 21
-43.542908264393418
 31
0.0
  0
LINE
  5
115
100
AcDbEntity
  8
0
 62
256
370
-1
 48
1.0
  6
BYLAYER
100
AcDbLine
 10
30.0
 20
-43.542908264393418
 30
0.0
 11
31.5
 21
-43.542908264393418
 31
0.0
  0
LINE
  5
116
100
AcDbEntity
  8
0
 62
256
370
-1
 48
1.0
  6
BYLAYER
100
AcDbLine
 10
144.807436622506799
 20
-120.2428560354458398
 30
0.0
 11
146.307436622506799
 21
-120.2428560354458398
 31
0.0
  0
LINE
  5
117
100
AcDbEntity
  8
0
 62
256
370
-1
 48
1.0
  6
BYLAYER
100
AcDbLine
 10
145.3261990261583776
 20
-208.035880035445814
 30
0.0
 11
146.8261990261583776
 21
-208.035880035445814
 31
0.0
  0
LINE
  5
118
100
AcDbEntity
  8
0
 62
256
370
-1
 48
1.0
  6
BYLAYER
100
AcDbLine
 10
120.8074366225068133
 20
-120.2428560354458398
 30
0.0
 11
122.3074366225068133
 21
-120.2428560354458398
 31
0.0
  0
LINE
  5
119
100
AcDbEntity
  8
0
 62
256
370
-1
 48
1.0
  6
BYLAYER
100
AcDbLine
 10
121.3261990261583918
 20
-208.035880035445814
 30
0.0
 11
122.8261990261583918
 21
-208.035880035445814
 31
0.0
  0
LINE
  5
11A
100
AcDbEntity
  8
0
 62
256
370
-1
 48
1.0
  6
BYLAYER
100
AcDbLine
 10
96.8074366225068133
 20
-120.2428560354458398
 30
0.0
 11
98.3074366225068133
 21
-120.2428560354458398
 31
0.0
  0
LINE
  5
11B
100
AcDbEntity
  8
0
 62
256
370
-1
 48
1.0
  6
BYLAYER
100
AcDbLine
 10
97.3261990261583918
 20
-208.035880035445814
 30
0.0
 11
98.8261990261583918
 21
-208.035880035445814
 31
0.0
  0
LINE
  5
11C
100
AcDbEntity
  8
0
 62
256
370
-1
 48
1.0
  6
BYLAYER
100
AcDbLine
 10
72.8074366225068133
 20
-120.2428560354458398
 30
0.0
 11
74.3074366225068133
 21
-120.2428560354458398
 31
0.0
  0
LINE
  5
11D
100
AcDbEntity
  8
0
 62
256
370
-1
 48
1.0
  6
BYLAYER
100
AcDbLine
 10
73.3261990261583918
 20
-208.035880035445814
 30
0.0
 11
74.8261990261583918
 21
-208.035880035445814
 31
0.0
  0
LINE
  5
11E
100
AcDbEntity
  8
0
 62
256
370
-1
 48
1.0
  6
BYLAYER
100
AcDbLine
 10
48.8074366225068133
 20
-120.2428560354458398
 30
0.0
 11
50.3074366225068133
 21
-120.2428560354458398
 31
0.0
  0
LINE
  5
11F
100
AcDbEntity
  8
0
 62
256
370
-1
 48
1.0
  6
BYLAYER
100
AcDbLine
 10
49.3261990261583918
 20
-208.035880035445814
 30
0.0
 11
50.8261990261583918
 21
-208.035880035445814
 31
0.0
  0
LINE
  5
120
100
AcDbEntity
  8
0
 62
256
370
-1
 48
1.0
  6
BYLAYER
100
AcDbLine
 10
164.557436622506799
 20
-120.2428560354458398
 30
0.0
 11
166.057436622506799
 21
-120.2428560354458398
 31
0.0
  0
LINE
  5
121
100
AcDbEntity
  8
0
 62
256
370
-1
 48
1.0
  6
BYLAYER
100
AcDbLine
 10
165.0761990261583776
 20
-208.035880035445814
 30
0.0
 11
166.5761990261583776
 21
-208.035880035445814
 31
0.0
  0
LINE
  5
122
100
AcDbEntity
  8
0
 62
256
370
-1
 48
1.0
  6
BYLAYER
100
AcDbLine
 10
29.0574366225068133
 20
-120.2428560354458398
 30
0.0
 11
30.5574366225068133
 21
-120.2428560354458398
 31
0.0
  0
LINE
  5
123
100
AcDbEntity
  8
0
 62
256
370
-1
 48
1.0
  6
BYLAYER
100
AcDbLine
 10
29.5761990261583918
 20
-208.035880035445814
 30
0.0
 11
31.0761990261583918
 21
-208.035880035445814
 31
0.0
  0
LINE
  5
124
100
AcDbEntity
  8
0
 62
256
370
-1
 48
1.0
  6
BYLAYER
100
AcDbLine
 10
30.0
 20
-43.542908264393418
 30
0.0
 11
167.0
 21
-43.542908264393418
 31
0.0
  0
LINE
  5
125
100
AcDbEntity
  8
0
 62
256
370
-1
 48
1.0
  6
BYLAYER
100
AcDbLine
 10
29.0574366225068133
 20
-120.2428560354458398
 30
0.0
 11
166.057436622506799
 21
-120.2428560354458398
 31
0.0
  0
LINE
  5
126
100
AcDbEntity
  8
0
 62
256
370
-1
 48
1.0
  6
BYLAYER
100
AcDbLine
 10
29.5761990261583918
 20
-208.035880035445814
 30
0.0
 11
166.5761990261583776
 21
-208.035880035445814
 31
0.0
  0
LINE
  5
127
100
AcDbEntity
  8
0
 62
256
370
-1
 48
1.0
  6
BYLAYER
100
AcDbLine
 10
51.2407128649498773
 20
-45.0243958653566665
 30
0.0
 11
73.7407128649498702
 21
-45.0243958653566665
 31
0.0
  0
LINE
  5
128
100
AcDbEntity
  8
0
 62
256
370
-1
 48
1.0
  6
BYLAYER
100
AcDbLine
 10
75.25
 20
-45.0243958653566594
 30
0.0
 11
97.75
 21
-45.0243958653566594
 31
0.0
  0
LINE
  5
129
100
AcDbEntity
  8
0
 62
256
370
-1
 48
1.0
  6
BYLAYER
100
AcDbLine
 10
99.2592871350501298
 20
-45.0243958653566523
 30
0.0
 11
121.7592871350501298
 21
-45.0243958653566523
 31
0.0
  0
LINE
  5
12A
100
AcDbEntity
  8
0
 62
256
370
-1
 48
1.0
  6
BYLAYER
100
AcDbLine
 10
123.2685742701002312
 20
-45.0243958653566452
 30
0.0
 11
145.7685742701002312
 21
-45.0243958653566452
 31
0.0
  0
LINE
  5
12B
100
AcDbEntity
  8
0
 62
256
370
-1
 48
1.0
  6
BYLAYER
100
AcDbLine
 10
31.4907128649498773
 20
-45.0243958653566665
 30
0.0
 11
49.75
 21
-45.0243958653566665
 31
0.0
  0
LINE
  5
12C
100
AcDbEntity
  8
0
 62
256
370
-1
 48
1.0
  6
BYLAYER
100
AcDbLine
 10
147.2407128649498702
 20
-45.0243958653566665
 30
0.0
 11
165.5
 21
-45.0243958653566665
 31
0.0
  0
LINE
  5
12D
100
AcDbEntity
  8
0
 62
256
370
-1
 48
1.0
  6
BYLAYER
100
AcDbLine
 10
50.2981494874566906
 20
-121.7243436364090883
 30
0.0
 11
72.7981494874566977
 21
-121.7243436364090883
 31
0.0
  0
LINE
  5
12E
100
AcDbEntity
  8
0
 62
256
370
-1
 48
1.0
  6
BYLAYER
100
AcDbLine
 10
50.8169118911082691
 20
-209.5173676364090625
 30
0.0
 11
73.3169118911082762
 21
-209.5173676364090625
 31
0.0
  0
LINE
  5
12F
100
AcDbEntity
  8
0
 62
256
370
-1
 48
1.0
  6
BYLAYER
100
AcDbLine
 10
74.3074366225068133
 20
-121.7243436364090883
 30
0.0
 11
96.8074366225068133
 21
-121.7243436364090883
 31
0.0
  0
LINE
  5
130
100
AcDbEntity
  8
0
 62
256
370
-1
 48
1.0
  6
BYLAYER
100
AcDbLine
 10
74.8261990261583918
 20
-209.5173676364090625
 30
0.0
 11
97.3261990261583918
 21
-209.5173676364090625
 31
0.0
  0
LINE
  5
131
100
AcDbEntity
  8
0
 62
256
370
-1
 48
1.0
  6
BYLAYER
100
AcDbLine
 10
98.3167237575569288
 20
-121.7243436364090883
 30
0.0
 11
120.816723757556943
 21
-121.7243436364090883
 31
0.0
  0
LINE
  5
132
100
AcDbEntity
  8
0
 62
256
370
-1
 48
1.0
  6
BYLAYER
100
AcDbLine
 10
98.8354861612085074
 20
-209.5173676364090625
 30
0.0
 11
121.3354861612085216
 21
-209.5173676364090625
 31
0.0
  0
LINE
  5
133
100
AcDbEntity
  8
0
 62
256
370
-1
 48
1.0
  6
BYLAYER
100
AcDbLine
 10
122.3260108926070444
 20
-121.7243436364090883
 30
0.0
 11
144.8260108926070586
 21
-121.7243436364090883
 31
0.0
  0
LINE
  5
134
100
AcDbEntity
  8
0
 62
256
370
-1
 48
1.0
  6
BYLAYER
100
AcDbLine
 10
122.844773296258623
 20
-209.5173676364090625
 30
0.0
 11
145.3447732962586372
 21
-209.5173676364090625
 31
0.0
  0
LINE
  5
135
100
AcDbEntity
  8
0
 62
256
370
-1
 48
1.0
  6
BYLAYER
100
AcDbLine
 10
30.5481494874566906
 20
-121.7243436364090883
 30
0.0
 11
48.8074366225068133
 21
-121.7243436364090883
 31
0.0
  0
LINE
  5
136
100
AcDbEntity
  8
0
 62
256
370
-1
 48
1.0
  6
BYLAYER
100
AcDbLine
 10
31.0669118911082691
 20
-209.5173676364090625
 30
0.0
 11
49.3261990261583918
 21
-209.5173676364090625
 31
0.0
  0
LINE
  5
137
100
AcDbEntity
  8
0
 62
256
370
-1
 48
1.0
  6
BYLAYER
100
AcDbLine
 10
146.2981494874566977
 20
-121.7243436364090883
 30
0.0
 11
164.557436622506799
 21
-121.7243436364090883
 31
0.0
  0
LINE
  5
138
100
AcDbEntity
  8
0
 62
256
370
-1
 48
1.0
  6
BYLAYER
100
AcDbLine
 10
146.8169118911082762
 20
-209.5173676364090625
 30
0.0
 11
165.0761990261583776
 21
-209.5173676364090625
 31
0.0
  0
LINE
  5
139
100
AcDbEntity
  8
0
 62
256
370
-1
 48
1.0
  6
BYLAYER
100
AcDbLine
 10
51.25
 20
-44.5429082643934109
 30
0.0
 11
53.25
 21
-44.5429082643934109
 31
0.0
  0
LINE
  5
13A
100
AcDbEntity
  8
0
 62
256
370
-1
 48
1.0
  6
BYLAYER
100
AcDbLine
 10
51.25
 20
-44.0429082643934109
 30
0.0
 11
53.25
 21
-44.0429082643934109
 31
0.0
  0
LINE
  5
13B
100
AcDbEntity
  8
0
 62
256
370
-1
 48
1.0
  6
BYLAYER
100
AcDbLine
 10
51.25
 20
-43.5429082643934109
 30
0.0
 11
53.25
 21
-43.5429082643934109
 31
0.0
  0
LINE
  5
13C
100
AcDbEntity
  8
0
 62
256
370
-1
 48
1.0
  6
BYLAYER
100
AcDbLine
 10
71.7344440746852143
 20
-44.5429082643934038
 30
0.0
 11
73.7407128649498702
 21
-44.5429082643934038
 31
0.0
  0
LINE
  5
13D
100
AcDbEntity
  8
0
 62
256
370
-1
 48
1.0
  6
BYLAYER
100
AcDbLine
 10
71.7375784698175494
 20
-44.0429082643934038
 30
0.0
 11
73.7407128649498702
 21
-44.0429082643934038
 31
0.0
  0
LINE
  5
13E
100
AcDbEntity
  8
0
 62
256
370
-1
 48
1.0
  6
BYLAYER
100
AcDbLine
 10
71.7407128649498702
 20
-43.5429082643934038
 30
0.0
 11
73.7407128649498702
 21
-43.5429082643934038
 31
0.0
  0
LINE
  5
13F
100
AcDbEntity
  8
0
 62
256
370
-1
 48
1.0
  6
BYLAYER
100
AcDbLine
 10
60.0737514426105363
 20
-44.5196013880278585
 30
0.0
 11
62.0737514426105363
 21
-44.5196013880278585
 31
0.0
  0
LINE
  5
140
100
AcDbEntity
  8
0
 62
256
370
-1
 48
1.0
  6
BYLAYER
100
AcDbLine
 10
60.0737514426105363
 20
-44.0196013880278585
 30
0.0
 11
62.0737514426105363
 21
-44.0196013880278585
 31
0.0
  0
LINE
  5
141
100
AcDbEntity
  8
0
 62
256
370
-1
 48
1.0
  6
BYLAYER
100
AcDbLine
 10
60.0737514426105363
 20
-43.5196013880278585
 30
0.0
 11
62.0737514426105363
 21
-43.5196013880278585
 31
0.0
  0
LINE
  5
142
100
AcDbEntity
  8
0
 62
256
370
-1
 48
1.0
  6
BYLAYER
100
AcDbLine
 10
75.2592871350501298
 20
-44.5429082643934038
 30
0.0
 11
77.2592871350501156
 21
-44.5429082643934038
 31
0.0
  0
LINE
  5
143
100
AcDbEntity
  8
0
 62
256
370
-1
 48
1.0
  6
BYLAYER
100
AcDbLine
 10
75.2592871350501298
 20
-44.0429082643934038
 30
0.0
 11
77.2592871350501156
 21
-44.0429082643934038
 31
0.0
  0
LINE
  5
144
100
AcDbEntity
  8
0
 62
256
370
-1
 48
1.0
  6
BYLAYER
100
AcDbLine
 10
75.2592871350501298
 20
-43.5429082643934038
 30
0.0
 11
77.2592871350501156
 21
-43.5429082643934038
 31
0.0
  0
LINE
  5
145
100
AcDbEntity
  8
0
 62
256
370
-1
 48
1.0
  6
BYLAYER
100
AcDbLine
 10
95.7437312097353299
 20
-44.5429082643933967
 30
0.0
 11
97.75
 21
-44.5429082643933967
 31
0.0
  0
LINE
  5
146
100
AcDbEntity
  8
0
 62
256
370
-1
 48
1.0
  6
BYLAYER
100
AcDbLine
 10
95.7468656048676792
 20
-44.0429082643933967
 30
0.0
 11
97.75
 21
-44.0429082643933967
 31
0.0
  0
LINE
  5
147
100
AcDbEntity
  8
0
 62
256
370
-1
 48
1.0
  6
BYLAYER
100
AcDbLine
 10
95.75
 20
-43.5429082643933967
 30
0.0
 11
97.75
 21
-43.5429082643933967
 31
0.0
  0
LINE
  5
148
100
AcDbEntity
  8
0
 62
256
370
-1
 48
1.0
  6
BYLAYER
100
AcDbLine
 10
84.083038577660659
 20
-44.5196013880278514
 30
0.0
 11
86.083038577660659
 21
-44.5196013880278514
 31
0.0
  0
LINE
  5
149
100
AcDbEntity
  8
0
 62
256
370
-1
 48
1.0
  6
BYLAYER
100
AcDbLine
 10
84.083038577660659
 20
-44.0196013880278514
 30
0.0
 11
86.083038577660659
 21
-44.0196013880278514
 31
0.0
  0
LINE
  5
14A
100
AcDbEntity
  8
0
 62
256
370
-1
 48
1.0
  6
BYLAYER
100
AcDbLine
 10
84.083038577660659
 20
-43.5196013880278514
 30
0.0
 11
86.083038577660659
 21
-43.5196013880278514
 31
0.0
  0
LINE
  5
14B
100
AcDbEntity
  8
0
 62
256
370
-1
 48
1.0
  6
BYLAYER
100
AcDbLine
 10
99.2685742701002454
 20
-44.5429082643933967
 30
0.0
 11
101.2685742701002454
 21
-44.5429082643933967
 31
0.0
  0
LINE
  5
14C
100
AcDbEntity
  8
0
 62
256
370
-1
 48
1.0
  6
BYLAYER
100
AcDbLine
 10
99.2685742701002454
 20
-44.0429082643933967
 30
0.0
 11
101.2685742701002454
 21
-44.0429082643933967
 31
0.0
  0
LINE
  5
14D
100
AcDbEntity
  8
0
 62
256
370
-1
 48
1.0
  6
BYLAYER
100
AcDbLine
 10
99.2685742701002454
 20
-43.5429082643933967
 30
0.0
 11
101.2685742701002454
 21
-43.5429082643933967
 31
0.0
  0
LINE
  5
14E
100
AcDbEntity
  8
0
 62
256
370
-1
 48
1.0
  6
BYLAYER
100
AcDbLine
 10
119.7530183447854597
 20
-44.5429082643933896
 30
0.0
 11
121.7592871350501298
 21
-44.5429082643933896
 31
0.0
  0
LINE
  5
14F
100
AcDbEntity
  8
0
 62
256
370
-1
 48
1.0
  6
BYLAYER
100
AcDbLine
 10
119.7561527399177947
 20
-44.0429082643933896
 30
0.0
 11
121.7592871350501298
 21
-44.0429082643933896
 31
0.0
  0
LINE
  5
150
100
AcDbEntity
  8
0
 62
256
370
-1
 48
1.0
  6
BYLAYER
100
AcDbLine
 10
119.7592871350501298
 20
-43.5429082643933896
 30
0.0
 11
121.7592871350501298
 21
-43.5429082643933896
 31
0.0
  0
LINE
  5
151
100
AcDbEntity
  8
0
 62
256
370
-1
 48
1.0
  6
BYLAYER
100
AcDbLine
 10
108.0923257127107888
 20
-44.5196013880278443
 30
0.0
 11
110.0923257127107888
 21
-44.5196013880278443
 31
0.0
  0
LINE
  5
152
100
AcDbEntity
  8
0
 62
256
370
-1
 48
1.0
  6
BYLAYER
100
AcDbLine
 10
108.0923257127107888
 20
-44.0196013880278443
 30
0.0
 11
110.0923257127107888
 21
-44.0196013880278443
 31
0.0
  0
LINE
  5
153
100
AcDbEntity
  8
0
 62
256
370
-1
 48
1.0
  6
BYLAYER
100
AcDbLine
 10
108.0923257127107888
 20
-43.5196013880278443
 30
0.0
 11
110.0923257127107888
 21
-43.5196013880278443
 31
0.0
  0
LINE
  5
154
100
AcDbEntity
  8
0
 62
256
370
-1
 48
1.0
  6
BYLAYER
100
AcDbLine
 10
123.277861405150361
 20
-44.5429082643933896
 30
0.0
 11
125.277861405150361
 21
-44.5429082643933896
 31
0.0
  0
LINE
  5
155
100
AcDbEntity
  8
0
 62
256
370
-1
 48
1.0
  6
BYLAYER
100
AcDbLine
 10
123.277861405150361
 20
-44.0429082643933896
 30
0.0
 11
125.277861405150361
 21
-44.0429082643933896
 31
0.0
  0
LINE
  5
156
100
AcDbEntity
  8
0
 62
256
370
-1
 48
1.0
  6
BYLAYER
100
AcDbLine
 10
123.277861405150361
 20
-43.5429082643933896
 30
0.0
 11
125.277861405150361
 21
-43.5429082643933896
 31
0.0
  0
LINE
  5
157
100
AcDbEntity
  8
0
 62
256
370
-1
 48
1.0
  6
BYLAYER
100
AcDbLine
 10
143.7623054798355611
 20
-44.5429082643933825
 30
0.0
 11
145.7685742701002312
 21
-44.5429082643933825
 31
0.0
  0
LINE
  5
158
100
AcDbEntity
  8
0
 62
256
370
-1
 48
1.0
  6
BYLAYER
100
AcDbLine
 10
143.7654398749679103
 20
-44.0429082643933825
 30
0.0
 11
145.7685742701002312
 21
-44.0429082643933825
 31
0.0
  0
LINE
  5
159
100
AcDbEntity
  8
0
 62
256
370
-1
 48
1.0
  6
BYLAYER
100
AcDbLine
 10
143.7685742701002312
 20
-43.5429082643933825
 30
0.0
 11
145.7685742701002312
 21
-43.5429082643933825
 31
0.0
  0
LINE
  5
15A
100
AcDbEntity
  8
0
 62
256
370
-1
 48
1.0
  6
BYLAYER
100
AcDbLine
 10
132.1016128477608902
 20
-44.5196013880278372
 30
0.0
 11
134.1016128477608902
 21
-44.5196013880278372
 31
0.0
  0
LINE
  5
15B
100
AcDbEntity
  8
0
 62
256
370
-1
 48
1.0
  6
BYLAYER
100
AcDbLine
 10
132.1016128477608902
 20
-44.0196013880278372
 30
0.0
 11
134.1016128477608902
 21
-44.0196013880278372
 31
0.0
  0
LINE
  5
15C
100
AcDbEntity
  8
0
 62
256
370
-1
 48
1.0
  6
BYLAYER
100
AcDbLine
 10
132.1016128477608902
 20
-43.5196013880278372
 30
0.0
 11
134.1016128477608902
 21
-43.5196013880278372
 31
0.0
  0
LINE
  5
15D
100
AcDbEntity
  8
0
 62
256
370
-1
 48
1.0
  6
BYLAYER
100
AcDbLine
 10
31.5
 20
-44.5429082643934109
 30
0.0
 11
33.5
 21
-44.5429082643934109
 31
0.0
  0
LINE
  5
15E
100
AcDbEntity
  8
0
 62
256
370
-1
 48
1.0
  6
BYLAYER
100
AcDbLine
 10
31.5
 20
-44.0429082643934109
 30
0.0
 11
33.5
 21
-44.0429082643934109
 31
0.0
  0
LINE
  5
15F
100
AcDbEntity
  8
0
 62
256
370
-1
 48
1.0
  6
BYLAYER
100
AcDbLine
 10
31.5
 20
-43.5429082643934109
 30
0.0
 11
33.5
 21
-43.5429082643934109
 31
0.0
  0
LINE
  5
160
100
AcDbEntity
  8
0
 62
256
370
-1
 48
1.0
  6
BYLAYER
100
AcDbLine
 10
40.3237514426105363
 20
-44.5196013880278585
 30
0.0
 11
42.3237514426105363
 21
-44.5196013880278585
 31
0.0
  0
LINE
  5
161
100
AcDbEntity
  8
0
 62
256
370
-1
 48
1.0
  6
BYLAYER
100
AcDbLine
 10
40.3237514426105363
 20
-44.0196013880278585
 30
0.0
 11
42.3237514426105363
 21
-44.0196013880278585
 31
0.0
  0
LINE
  5
162
100
AcDbEntity
  8
0
 62
256
370
-1
 48
1.0
  6
BYLAYER
100
AcDbLine
 10
40.3237514426105363
 20
-43.5196013880278585
 30
0.0
 11
42.3237514426105363
 21
-43.5196013880278585
 31
0.0
  0
LINE
  5
163
100
AcDbEntity
  8
0
 62
256
370
-1
 48
1.0
  6
BYLAYER
100
AcDbLine
 10
47.75
 20
-44.5429082643934109
 30
0.0
 11
49.75
 21
-44.5429082643934109
 31
0.0
  0
LINE
  5
164
100
AcDbEntity
  8
0
 62
256
370
-1
 48
1.0
  6
BYLAYER
100
AcDbLine
 10
47.75
 20
-44.0429082643934109
 30
0.0
 11
49.75
 21
-44.0429082643934109
 31
0.0
  0
LINE
  5
165
100
AcDbEntity
  8
0
 62
256
370
-1
 48
1.0
  6
BYLAYER
100
AcDbLine
 10
47.75
 20
-43.5429082643934109
 30
0.0
 11
49.75
 21
-43.5429082643934109
 31
0.0
  0
LINE
  5
166
100
AcDbEntity
  8
0
 62
256
370
-1
 48
1.0
  6
BYLAYER
100
AcDbLine
 10
147.25
 20
-44.5429082643934109
 30
0.0
 11
149.25
 21
-44.5429082643934109
 31
0.0
  0
LINE
  5
167
100
AcDbEntity
  8
0
 62
256
370
-1
 48
1.0
  6
BYLAYER
100
AcDbLine
 10
147.25
 20
-44.0429082643934109
 30
0.0
 11
149.25
 21
-44.0429082643934109
 31
0.0
  0
LINE
  5
168
100
AcDbEntity
  8
0
 62
256
370
-1
 48
1.0
  6
BYLAYER
100
AcDbLine
 10
147.25
 20
-43.5429082643934109
 30
0.0
 11
149.25
 21
-43.5429082643934109
 31
0.0
  0
LINE
  5
169
100
AcDbEntity
  8
0
 62
256
370
-1
 48
1.0
  6
BYLAYER
100
AcDbLine
 10
156.0737514426105292
 20
-44.5196013880278585
 30
0.0
 11
158.0737514426105292
 21
-44.5196013880278585
 31
0.0
  0
LINE
  5
16A
100
AcDbEntity
  8
0
 62
256
370
-1
 48
1.0
  6
BYLAYER
100
AcDbLine
 10
156.0737514426105292
 20
-44.0196013880278585
 30
0.0
 11
158.0737514426105292
 21
-44.0196013880278585
 31
0.0
  0
LINE
  5
16B
100
AcDbEntity
  8
0
 62
256
370
-1
 48
1.0
  6
BYLAYER
100
AcDbLine
 10
156.0737514426105292
 20
-43.5196013880278585
 30
0.0
 11
158.0737514426105292
 21
-43.5196013880278585
 31
0.0
  0
LINE
  5
16C
100
AcDbEntity
  8
0
 62
256
370
-1
 48
1.0
  6
BYLAYER
100
AcDbLine
 10
163.5
 20
-44.5429082643934109
 30
0.0
 11
165.5
 21
-44.5429082643934109
 31
0.0
  0
LINE
  5
16D
100
AcDbEntity
  8
0
 62
256
370
-1
 48
1.0
  6
BYLAYER
100
AcDbLine
 10
163.5
 20
-44.0429082643934109
 30
0.0
 11
165.5
 21
-44.0429082643934109
 31
0.0
  0
LINE
  5
16E
100
AcDbEntity
  8
0
 62
256
370
-1
 48
1.0
  6
BYLAYER
100
AcDbLine
 10
163.5
 20
-43.5429082643934109
 30
0.0
 11
165.5
 21
-43.5429082643934109
 31
0.0
  0
LINE
  5
16F
100
AcDbEntity
  8
0
 62
256
370
-1
 48
1.0
  6
BYLAYER
100
AcDbLine
 10
50.3074366225068133
 20
-121.2428560354458398
 30
0.0
 11
52.3074366225068133
 21
-121.2428560354458398
 31
0.0
  0
LINE
  5
170
100
AcDbEntity
  8
0
 62
256
370
-1
 48
1.0
  6
BYLAYER
100
AcDbLine
 10
50.8261990261583918
 20
-209.035880035445814
 30
0.0
 11
52.8261990261583918
 21
-209.035880035445814
 31
0.0
  0
LINE
  5
171
100
AcDbEntity
  8
0
 62
256
370
-1
 48
1.0
  6
BYLAYER
100
AcDbLine
 10
50.3074366225068133
 20
-120.7428560354458398
 30
0.0
 11
52.3074366225068133
 21
-120.7428560354458398
 31
0.0
  0
LINE
  5
172
100
AcDbEntity
  8
0
 62
256
370
-1
 48
1.0
  6
BYLAYER
100
AcDbLine
 10
50.8261990261583918
 20
-208.535880035445814
 30
0.0
 11
52.8261990261583918
 21
-208.535880035445814
 31
0.0
  0
LINE
  5
173
100
AcDbEntity
  8
0
 62
256
370
-1
 48
1.0
  6
BYLAYER
100
AcDbLine
 10
50.3074366225068133
 20
-120.2428560354458398
 30
0.0
 11
52.3074366225068133
 21
-120.2428560354458398
 31
0.0
  0
LINE
  5
174
100
AcDbEntity
  8
0
 62
256
370
-1
 48
1.0
  6
BYLAYER
100
AcDbLine
 10
50.8261990261583918
 20
-208.035880035445814
 30
0.0
 11
52.8261990261583918
 21
-208.035880035445814
 31
0.0
  0
LINE
  5
175
100
AcDbEntity
  8
0
 62
256
370
-1
 48
1.0
  6
BYLAYER
100
AcDbLine
 10
70.7918806971920276
 20
-121.2428560354458398
 30
0.0
 11
72.7981494874566977
 21
-121.2428560354458398
 31
0.0
  0
LINE
  5
176
100
AcDbEntity
  8
0
 62
256
370
-1
 48
1.0
  6
BYLAYER
100
AcDbLine
 10
71.3106431008436061
 20
-209.035880035445814
 30
0.0
 11
73.3169118911082762
 21
-209.035880035445814
 31
0.0
  0
LINE
  5
177
100
AcDbEntity
  8
0
 62
256
370
-1
 48
1.0
  6
BYLAYER
100
AcDbLine
 10
70.7950150923243626
 20
-120.7428560354458398
 30
0.0
 11
72.7981494874566977
 21
-120.7428560354458398
 31
0.0
  0
LINE
  5
178
100
AcDbEntity
  8
0
 62
256
370
-1
 48
1.0
  6
BYLAYER
100
AcDbLine
 10
71.3137774959759412
 20
-208.535880035445814
 30
0.0
 11
73.3169118911082762
 21
-208.535880035445814
 31
0.0
  0
LINE
  5
179
100
AcDbEntity
  8
0
 62
256
370
-1
 48
1.0
  6
BYLAYER
100
AcDbLine
 10
70.7981494874566977
 20
-120.2428560354458398
 30
0.0
 11
72.7981494874566977
 21
-120.2428560354458398
 31
0.0
  0
LINE
  5
17A
100
AcDbEntity
  8
0
 62
256
370
-1
 48
1.0
  6
BYLAYER
100
AcDbLine
 10
71.3169118911082762
 20
-208.035880035445814
 30
0.0
 11
73.3169118911082762
 21
-208.035880035445814
 31
0.0
  0
LINE
  5
17B
100
AcDbEntity
  8
0
 62
256
370
-1
 48
1.0
  6
BYLAYER
100
AcDbLine
 10
59.1311880651173496
 20
-121.2195491590802874
 30
0.0
 11
61.1311880651173496
 21
-121.2195491590802874
 31
0.0
  0
LINE
  5
17C
100
AcDbEntity
  8
0
 62
256
370
-1
 48
1.0
  6
BYLAYER
100
AcDbLine
 10
59.6499504687689281
 20
-209.0125731590802616
 30
0.0
 11
61.6499504687689281
 21
-209.0125731590802616
 31
0.0
  0
LINE
  5
17D
100
AcDbEntity
  8
0
 62
256
370
-1
 48
1.0
  6
BYLAYER
100
AcDbLine
 10
59.1311880651173496
 20
-120.7195491590802874
 30
0.0
 11
61.1311880651173496
 21
-120.7195491590802874
 31
0.0
  0
LINE
  5
17E
100
AcDbEntity
  8
0
 62
256
370
-1
 48
1.0
  6
BYLAYER
100
AcDbLine
 10
59.6499504687689281
 20
-208.5125731590802616
 30
0.0
 11
61.6499504687689281
 21
-208.5125731590802616
 31
0.0
  0
LINE
  5
17F
100
AcDbEntity
  8
0
 62
256
370
-1
 48
1.0
  6
BYLAYER
100
AcDbLine
 10
59.1311880651173496
 20
-120.2195491590802874
 30
0.0
 11
61.1311880651173496
 21
-120.2195491590802874
 31
0.0
  0
LINE
  5
180
100
AcDbEntity
  8
0
 62
256
370
-1
 48
1.0
  6
BYLAYER
100
AcDbLine
 10
59.6499504687689281
 20
-208.0125731590802616
 30
0.0
 11
61.6499504687689281
 21
-208.0125731590802616
 31
0.0
  0
LINE
  5
181
100
AcDbEntity
  8
0
 62
256
370
-1
 48
1.0
  6
BYLAYER
100
AcDbLine
 10
74.3167237575569288
 20
-121.2428560354458398
 30
0.0
 11
76.3167237575569288
 21
-121.2428560354458398
 31
0.0
  0
LINE
  5
182
100
AcDbEntity
  8
0
 62
256
370
-1
 48
1.0
  6
BYLAYER
100
AcDbLine
 10
74.8354861612085074
 20
-209.035880035445814
 30
0.0
 11
76.8354861612085074
 21
-209.035880035445814
 31
0.0
  0
LINE
  5
183
100
AcDbEntity
  8
0
 62
256
370
-1
 48
1.0
  6
BYLAYER
100
AcDbLine
 10
74.3167237575569288
 20
-120.7428560354458398
 30
0.0
 11
76.3167237575569288
 21
-120.7428560354458398
 31
0.0
  0
LINE
  5
184
100
AcDbEntity
  8
0
 62
256
370
-1
 48
1.0
  6
BYLAYER
100
AcDbLine
 10
74.8354861612085074
 20
-208.535880035445814
 30
0.0
 11
76.8354861612085074
 21
-208.535880035445814
 31
0.0
  0
LINE
  5
185
100
AcDbEntity
  8
0
 62
256
370
-1
 48
1.0
  6
BYLAYER
100
AcDbLine
 10
74.3167237575569288
 20
-120.2428560354458398
 30
0.0
 11
76.3167237575569288
 21
-120.2428560354458398
 31
0.0
  0
LINE
  5
186
100
AcDbEntity
  8
0
 62
256
370
-1
 48
1.0
  6
BYLAYER
100
AcDbLine
 10
74.8354861612085074
 20
-208.035880035445814
 30
0.0
 11
76.8354861612085074
 21
-208.035880035445814
 31
0.0
  0
LINE
  5
187
100
AcDbEntity
  8
0
 62
256
370
-1
 48
1.0
  6
BYLAYER
100
AcDbLine
 10
94.8011678322421574
 20
-121.2428560354458398
 30
0.0
 11
96.8074366225068133
 21
-121.2428560354458398
 31
0.0
  0
LINE
  5
188
100
AcDbEntity
  8
0
 62
256
370
-1
 48
1.0
  6
BYLAYER
100
AcDbLine
 10
95.3199302358937359
 20
-209.035880035445814
 30
0.0
 11
97.3261990261583918
 21
-209.035880035445814
 31
0.0
  0
LINE
  5
189
100
AcDbEntity
  8
0
 62
256
370
-1
 48
1.0
  6
BYLAYER
100
AcDbLine
 10
94.8043022273744782
 20
-120.7428560354458398
 30
0.0
 11
96.8074366225068133
 21
-120.7428560354458398
 31
0.0
  0
LINE
  5
18A
100
AcDbEntity
  8
0
 62
256
370
-1
 48
1.0
  6
BYLAYER
100
AcDbLine
 10
95.3230646310260568
 20
-208.535880035445814
 30
0.0
 11
97.3261990261583918
 21
-208.535880035445814
 31
0.0
  0
LINE
  5
18B
100
AcDbEntity
  8
0
 62
256
370
-1
 48
1.0
  6
BYLAYER
100
AcDbLine
 10
94.8074366225068133
 20
-120.2428560354458398
 30
0.0
 11
96.8074366225068133
 21
-120.2428560354458398
 31
0.0
  0
LINE
  5
18C
100
AcDbEntity
  8
0
 62
256
370
-1
 48
1.0
  6
BYLAYER
100
AcDbLine
 10
95.3261990261583918
 20
-208.035880035445814
 30
0.0
 11
97.3261990261583918
 21
-208.035880035445814
 31
0.0
  0
LINE
  5
18D
100
AcDbEntity
  8
0
 62
256
370
-1
 48
1.0
  6
BYLAYER
100
AcDbLine
 10
83.1404752001674723
 20
-121.2195491590802874
 30
0.0
 11
85.1404752001674723
 21
-121.2195491590802874
 31
0.0
  0
LINE
  5
18E
100
AcDbEntity
  8
0
 62
256
370
-1
 48
1.0
  6
BYLAYER
100
AcDbLine
 10
83.6592376038190508
 20
-209.0125731590802616
 30
0.0
 11
85.6592376038190508
 21
-209.0125731590802616
 31
0.0
  0
LINE
  5
18F
100
AcDbEntity
  8
0
 62
256
370
-1
 48
1.0
  6
BYLAYER
100
AcDbLine
 10
83.1404752001674723
 20
-120.7195491590802874
 30
0.0
 11
85.1404752001674723
 21
-120.7195491590802874
 31
0.0
  0
LINE
  5
190
100
AcDbEntity
  8
0
 62
256
370
-1
 48
1.0
  6
BYLAYER
100
AcDbLine
 10
83.6592376038190508
 20
-208.5125731590802616
 30
0.0
 11
85.6592376038190508
 21
-208.5125731590802616
 31
0.0
  0
LINE
  5
191
100
AcDbEntity
  8
0
 62
256
370
-1
 48
1.0
  6
BYLAYER
100
AcDbLine
 10
83.1404752001674723
 20
-120.2195491590802874
 30
0.0
 11
85.1404752001674723
 21
-120.2195491590802874
 31
0.0
  0
LINE
  5
192
100
AcDbEntity
  8
0
 62
256
370
-1
 48
1.0
  6
BYLAYER
100
AcDbLine
 10
83.6592376038190508
 20
-208.0125731590802616
 30
0.0
 11
85.6592376038190508
 21
-208.0125731590802616
 31
0.0
  0
LINE
  5
193
100
AcDbEntity
  8
0
 62
256
370
-1
 48
1.0
  6
BYLAYER
100
AcDbLine
 10
98.3260108926070586
 20
-121.2428560354458398
 30
0.0
 11
100.3260108926070586
 21
-121.2428560354458398
 31
0.0
  0
LINE
  5
194
100
AcDbEntity
  8
0
 62
256
370
-1
 48
1.0
  6
BYLAYER
100
AcDbLine
 10
98.8447732962586372
 20
-209.035880035445814
 30
0.0
 11
100.8447732962586372
 21
-209.035880035445814
 31
0.0
  0
LINE
  5
195
100
AcDbEntity
  8
0
 62
256
370
-1
 48
1.0
  6
BYLAYER
100
AcDbLine
 10
98.3260108926070586
 20
-120.7428560354458398
 30
0.0
 11
100.3260108926070586
 21
-120.7428560354458398
 31
0.0
  0
LINE
  5
196
100
AcDbEntity
  8
0
 62
256
370
-1
 48
1.0
  6
BYLAYER
100
AcDbLine
 10
98.8447732962586372
 20
-208.535880035445814
 30
0.0
 11
100.8447732962586372
 21
-208.535880035445814
 31
0.0
  0
LINE
  5
197
100
AcDbEntity
  8
0
 62
256
370
-1
 48
1.0
  6
BYLAYER
100
AcDbLine
 10
98.3260108926070586
 20
-120.2428560354458398
 30
0.0
 11
100.3260108926070586
 21
-120.2428560354458398
 31
0.0
  0
LINE
  5
198
100
AcDbEntity
  8
0
 62
256
370
-1
 48
1.0
  6
BYLAYER
100
AcDbLine
 10
98.8447732962586372
 20
-208.035880035445814
 30
0.0
 11
100.8447732962586372
 21
-208.035880035445814
 31
0.0
  0
LINE
  5
199
100
AcDbEntity
  8
0
 62
256
370
-1
 48
1.0
  6
BYLAYER
100
AcDbLine
 10
118.810454967292273
 20
-121.2428560354458398
 30
0.0
 11
120.816723757556943
 21
-121.2428560354458398
 31
0.0
  0
LINE
  5
19A
100
AcDbEntity
  8
0
 62
256
370
-1
 48
1.0
  6
BYLAYER
100
AcDbLine
 10
119.3292173709438515
 20
-209.035880035445814
 30
0.0
 11
121.3354861612085216
 21
-209.035880035445814
 31
0.0
  0
LINE
  5
19B
100
AcDbEntity
  8
0
 62
256
370
-1
 48
1.0
  6
BYLAYER
100
AcDbLine
 10
118.813589362424608
 20
-120.7428560354458398
 30
0.0
 11
120.816723757556943
 21
-120.7428560354458398
 31
0.0
  0
LINE
  5
19C
100
AcDbEntity
  8
0
 62
256
370
-1
 48
1.0
  6
BYLAYER
100
AcDbLine
 10
119.3323517660761865
 20
-208.535880035445814
 30
0.0
 11
121.3354861612085216
 21
-208.535880035445814
 31
0.0
  0
LINE
  5
19D
100
AcDbEntity
  8
0
 62
256
370
-1
 48
1.0
  6
BYLAYER
100
AcDbLine
 10
118.816723757556943
 20
-120.2428560354458398
 30
0.0
 11
120.816723757556943
 21
-120.2428560354458398
 31
0.0
  0
LINE
  5
19E
100
AcDbEntity
  8
0
 62
256
370
-1
 48
1.0
  6
BYLAYER
100
AcDbLine
 10
119.3354861612085216
 20
-208.035880035445814
 30
0.0
 11
121.3354861612085216
 21
-208.035880035445814
 31
0.0
  0
LINE
  5
19F
100
AcDbEntity
  8
0
 62
256
370
-1
 48
1.0
  6
BYLAYER
100
AcDbLine
 10
107.1497623352176021
 20
-121.2195491590802874
 30
0.0
 11
109.1497623352176021
 21
-121.2195491590802874
 31
0.0
  0
LINE
  5
1A0
100
AcDbEntity
  8
0
 62
256
370
-1
 48
1.0
  6
BYLAYER
100
AcDbLine
 10
107.6685247388691806
 20
-209.0125731590802616
 30
0.0
 11
109.6685247388691806
 21
-209.0125731590802616
 31
0.0
  0
LINE
  5
1A1
100
AcDbEntity
  8
0
 62
256
370
-1
 48
1.0
  6
BYLAYER
100
AcDbLine
 10
107.1497623352176021
 20
-120.7195491590802874
 30
0.0
 11
109.1497623352176021
 21
-120.7195491590802874
 31
0.0
  0
LINE
  5
1A2
100
AcDbEntity
  8
0
 62
256
370
-1
 48
1.0
  6
BYLAYER
100
AcDbLine
 10
107.6685247388691806
 20
-208.5125731590802616
 30
0.0
 11
109.6685247388691806
 21
-208.5125731590802616
 31
0.0
  0
LINE
  5
1A3
100
AcDbEntity
  8
0
 62
256
370
-1
 48
1.0
  6
BYLAYER
100
AcDbLine
 10
107.1497623352176021
 20
-120.2195491590802874
 30
0.0
 11
109.1497623352176021
 21
-120.2195491590802874
 31
0.0
  0
LINE
  5
1A4
100
AcDbEntity
  8
0
 62
256
370
-1
 48
1.0
  6
BYLAYER
100
AcDbLine
 10
107.6685247388691806
 20
-208.0125731590802616
 30
0.0
 11
109.6685247388691806
 21
-208.0125731590802616
 31
0.0
  0
LINE
  5
1A5
100
AcDbEntity
  8
0
 62
256
370
-1
 48
1.0
  6
BYLAYER
100
AcDbLine
 10
122.3352980276571742
 20
-121.2428560354458398
 30
0.0
 11
124.3352980276571742
 21
-121.2428560354458398
 31
0.0
  0
LINE
  5
1A6
100
AcDbEntity
  8
0
 62
256
370
-1
 48
1.0
  6
BYLAYER
100
AcDbLine
 10
122.8540604313087528
 20
-209.035880035445814
 30
0.0
 11
124.8540604313087528
 21
-209.035880035445814
 31
0.0
  0
LINE
  5
1A7
100
AcDbEntity
  8
0
 62
256
370
-1
 48
1.0
  6
BYLAYER
100
AcDbLine
 10
122.3352980276571742
 20
-120.7428560354458398
 30
0.0
 11
124.3352980276571742
 21
-120.7428560354458398
 31
0.0
  0
LINE
  5
1A8
100
AcDbEntity
  8
0
 62
256
370
-1
 48
1.0
  6
BYLAYER
100
AcDbLine
 10
122.8540604313087528
 20
-208.535880035445814
 30
0.0
 11
124.8540604313087528
 21
-208.535880035445814
 31
0.0
  0
LINE
  5
1A9
100
AcDbEntity
  8
0
 62
256
370
-1
 48
1.0
  6
BYLAYER
100
AcDbLine
 10
122.3352980276571742
 20
-120.2428560354458398
 30
0.0
 11
124.3352980276571742
 21
-120.2428560354458398
 31
0.0
  0
LINE
  5
1AA
100
AcDbEntity
  8
0
 62
256
370
-1
 48
1.0
  6
BYLAYER
100
AcDbLine
 10
122.8540604313087528
 20
-208.035880035445814
 30
0.0
 11
124.8540604313087528
 21
-208.035880035445814
 31
0.0
  0
LINE
  5
1AB
100
AcDbEntity
  8
0
 62
256
370
-1
 48
1.0
  6
BYLAYER
100
AcDbLine
 10
142.8197421023423885
 20
-121.2428560354458114
 30
0.0
 11
144.8260108926070586
 21
-121.2428560354458114
 31
0.0
  0
LINE
  5
1AC
100
AcDbEntity
  8
0
 62
256
370
-1
 48
1.0
  6
BYLAYER
100
AcDbLine
 10
143.3385045059939671
 20
-209.0358800354457856
 30
0.0
 11
145.3447732962586372
 21
-209.0358800354457856
 31
0.0
  0
LINE
  5
1AD
100
AcDbEntity
  8
0
 62
256
370
-1
 48
1.0
  6
BYLAYER
100
AcDbLine
 10
142.8228764974747094
 20
-120.7428560354458114
 30
0.0
 11
144.8260108926070586
 21
-120.7428560354458114
 31
0.0
  0
LINE
  5
1AE
100
AcDbEntity
  8
0
 62
256
370
-1
 48
1.0
  6
BYLAYER
100
AcDbLine
 10
143.3416389011262879
 20
-208.5358800354457856
 30
0.0
 11
145.3447732962586372
 21
-208.5358800354457856
 31
0.0
  0
LINE
  5
1AF
100
AcDbEntity
  8
0
 62
256
370
-1
 48
1.0
  6
BYLAYER
100
AcDbLine
 10
142.8260108926070586
 20
-120.2428560354458114
 30
0.0
 11
144.8260108926070586
 21
-120.2428560354458114
 31
0.0
  0
LINE
  5
1B0
100
AcDbEntity
  8
0
 62
256
370
-1
 48
1.0
  6
BYLAYER
100
AcDbLine
 10
143.3447732962586372
 20
-208.0358800354457856
 30
0.0
 11
145.3447732962586372
 21
-208.0358800354457856
 31
0.0
  0
LINE
  5
1B1
100
AcDbEntity
  8
0
 62
256
370
-1
 48
1.0
  6
BYLAYER
100
AcDbLine
 10
131.1590494702677177
 20
-121.2195491590802874
 30
0.0
 11
133.1590494702677177
 21
-121.2195491590802874
 31
0.0
  0
LINE
  5
1B2
100
AcDbEntity
  8
0
 62
256
370
-1
 48
1.0
  6
BYLAYER
100
AcDbLine
 10
131.6778118739192962
 20
-209.0125731590802616
 30
0.0
 11
133.6778118739192962
 21
-209.0125731590802616
 31
0.0
  0
LINE
  5
1B3
100
AcDbEntity
  8
0
 62
256
370
-1
 48
1.0
  6
BYLAYER
100
AcDbLine
 10
131.1590494702677177
 20
-120.7195491590802874
 30
0.0
 11
133.1590494702677177
 21
-120.7195491590802874
 31
0.0
  0
LINE
  5
1B4
100
AcDbEntity
  8
0
 62
256
370
-1
 48
1.0
  6
BYLAYER
100
AcDbLine
 10
131.6778118739192962
 20
-208.5125731590802616
 30
0.0
 11
133.6778118739192962
 21
-208.5125731590802616
 31
0.0
  0
LINE
  5
1B5
100
AcDbEntity
  8
0
 62
256
370
-1
 48
1.0
  6
BYLAYER
100
AcDbLine
 10
131.1590494702677177
 20
-120.2195491590802874
 30
0.0
 11
133.1590494702677177
 21
-120.2195491590802874
 31
0.0
  0
LINE
  5
1B6
100
AcDbEntity
  8
0
 62
256
370
-1
 48
1.0
  6
BYLAYER
100
AcDbLine
 10
131.6778118739192962
 20
-208.0125731590802616
 30
0.0
 11
133.6778118739192962
 21
-208.0125731590802616
 31
0.0
  0
LINE
  5
1B7
100
AcDbEntity
  8
0
 62
256
370
-1
 48
1.0
  6
BYLAYER
100
AcDbLine
 10
30.5574366225068133
 20
-121.2428560354458398
 30
0.0
 11
32.5574366225068133
 21
-121.2428560354458398
 31
0.0
  0
LINE
  5
1B8
100
AcDbEntity
  8
0
 62
256
370
-1
 48
1.0
  6
BYLAYER
100
AcDbLine
 10
31.0761990261583918
 20
-209.035880035445814
 30
0.0
 11
33.0761990261583918
 21
-209.035880035445814
 31
0.0
  0
LINE
  5
1B9
100
AcDbEntity
  8
0
 62
256
370
-1
 48
1.0
  6
BYLAYER
100
AcDbLine
 10
30.5574366225068133
 20
-120.7428560354458398
 30
0.0
 11
32.5574366225068133
 21
-120.7428560354458398
 31
0.0
  0
LINE
  5
1BA
100
AcDbEntity
  8
0
 62
256
370
-1
 48
1.0
  6
BYLAYER
100
AcDbLine
 10
31.0761990261583918
 20
-208.535880035445814
 30
0.0
 11
33.0761990261583918
 21
-208.535880035445814
 31
0.0
  0
LINE
  5
1BB
100
AcDbEntity
  8
0
 62
256
370
-1
 48
1.0
  6
BYLAYER
100
AcDbLine
 10
30.5574366225068133
 20
-120.2428560354458398
 30
0.0
 11
32.5574366225068133
 21
-120.2428560354458398
 31
0.0
  0
LINE
  5
1BC
100
AcDbEntity
  8
0
 62
256
370
-1
 48
1.0
  6
BYLAYER
100
AcDbLine
 10
31.0761990261583918
 20
-208.035880035445814
 30
0.0
 11
33.0761990261583918
 21
-208.035880035445814
 31
0.0
  0
LINE
  5
1BD
100
AcDbEntity
  8
0
 62
256
370
-1
 48
1.0
  6
BYLAYER
100
AcDbLine
 10
39.3811880651173496
 20
-121.2195491590802874
 30
0.0
 11
41.3811880651173496
 21
-121.2195491590802874
 31
0.0
  0
LINE
  5
1BE
100
AcDbEntity
  8
0
 62
256
370
-1
 48
1.0
  6
BYLAYER
100
AcDbLine
 10
39.8999504687689281
 20
-209.0125731590802616
 30
0.0
 11
41.8999504687689281
 21
-209.0125731590802616
 31
0.0
  0
LINE
  5
1BF
100
AcDbEntity
  8
0
 62
256
370
-1
 48
1.0
  6
BYLAYER
100
AcDbLine
 10
39.3811880651173496
 20
-120.7195491590802874
 30
0.0
 11
41.3811880651173496
 21
-120.7195491590802874
 31
0.0
  0
LINE
  5
1C0
100
AcDbEntity
  8
0
 62
256
370
-1
 48
1.0
  6
BYLAYER
100
AcDbLine
 10
39.8999504687689281
 20
-208.5125731590802616
 30
0.0
 11
41.8999504687689281
 21
-208.5125731590802616
 31
0.0
  0
LINE
  5
1C1
100
AcDbEntity
  8
0
 62
256
370
-1
 48
1.0
  6
BYLAYER
100
AcDbLine
 10
39.3811880651173496
 20
-120.2195491590802874
 30
0.0
 11
41.3811880651173496
 21
-120.2195491590802874
 31
0.0
  0
LINE
  5
1C2
100
AcDbEntity
  8
0
 62
256
370
-1
 48
1.0
  6
BYLAYER
100
AcDbLine
 10
39.8999504687689281
 20
-208.0125731590802616
 30
0.0
 11
41.8999504687689281
 21
-208.0125731590802616
 31
0.0
  0
LINE
  5
1C3
100
AcDbEntity
  8
0
 62
256
370
-1
 48
1.0
  6
BYLAYER
100
AcDbLine
 10
46.8074366225068133
 20
-121.2428560354458398
 30
0.0
 11
48.8074366225068133
 21
-121.2428560354458398
 31
0.0
  0
LINE
  5
1C4
100
AcDbEntity
  8
0
 62
256
370
-1
 48
1.0
  6
BYLAYER
100
AcDbLine
 10
47.3261990261583918
 20
-209.035880035445814
 30
0.0
 11
49.3261990261583918
 21
-209.035880035445814
 31
0.0
  0
LINE
  5
1C5
100
AcDbEntity
  8
0
 62
256
370
-1
 48
1.0
  6
BYLAYER
100
AcDbLine
 10
46.8074366225068133
 20
-120.7428560354458398
 30
0.0
 11
48.8074366225068133
 21
-120.7428560354458398
 31
0.0
  0
LINE
  5
1C6
100
AcDbEntity
  8
0
 62
256
370
-1
 48
1.0
  6
BYLAYER
100
AcDbLine
 10
47.3261990261583918
 20
-208.535880035445814
 30
0.0
 11
49.3261990261583918
 21
-208.535880035445814
 31
0.0
  0
LINE
  5
1C7
100
AcDbEntity
  8
0
 62
256
370
-1
 48
1.0
  6
BYLAYER
100
AcDbLine
 10
46.8074366225068133
 20
-120.2428560354458398
 30
0.0
 11
48.8074366225068133
 21
-120.2428560354458398
 31
0.0
  0
LINE
  5
1C8
100
AcDbEntity
  8
0
 62
256
370
-1
 48
1.0
  6
BYLAYER
100
AcDbLine
 10
47.3261990261583918
 20
-208.035880035445814
 30
0.0
 11
49.3261990261583918
 21
-208.035880035445814
 31
0.0
  0
LINE
  5
1C9
100
AcDbEntity
  8
0
 62
256
370
-1
 48
1.0
  6
BYLAYER
100
AcDbLine
 10
146.307436622506799
 20
-121.2428560354458398
 30
0.0
 11
148.307436622506799
 21
-121.2428560354458398
 31
0.0
  0
LINE
  5
1CA
100
AcDbEntity
  8
0
 62
256
370
-1
 48
1.0
  6
BYLAYER
100
AcDbLine
 10
146.8261990261583776
 20
-209.035880035445814
 30
0.0
 11
148.8261990261583776
 21
-209.035880035445814
 31
0.0
  0
LINE
  5
1CB
100
AcDbEntity
  8
0
 62
256
370
-1
 48
1.0
  6
BYLAYER
100
AcDbLine
 10
146.307436622506799
 20
-120.7428560354458398
 30
0.0
 11
148.307436622506799
 21
-120.7428560354458398
 31
0.0
  0
LINE
  5
1CC
100
AcDbEntity
  8
0
 62
256
370
-1
 48
1.0
  6
BYLAYER
100
AcDbLine
 10
146.8261990261583776
 20
-208.535880035445814
 30
0.0
 11
148.8261990261583776
 21
-208.535880035445814
 31
0.0
  0
LINE
  5
1CD
100
AcDbEntity
  8
0
 62
256
370
-1
 48
1.0
  6
BYLAYER
100
AcDbLine
 10
146.307436622506799
 20
-120.2428560354458398
 30
0.0
 11
148.307436622506799
 21
-120.2428560354458398
 31
0.0
  0
LINE
  5
1CE
100
AcDbEntity
  8
0
 62
256
370
-1
 48
1.0
  6
BYLAYER
100
AcDbLine
 10
146.8261990261583776
 20
-208.035880035445814
 30
0.0
 11
148.8261990261583776
 21
-208.035880035445814
 31
0.0
  0
LINE
  5
1CF
100
AcDbEntity
  8
0
 62
256
370
-1
 48
1.0
  6
BYLAYER
100
AcDbLine
 10
155.1311880651173567
 20
-121.2195491590802874
 30
0.0
 11
157.1311880651173567
 21
-121.2195491590802874
 31
0.0
  0
LINE
  5
1D0
100
AcDbEntity
  8
0
 62
256
370
-1
 48
1.0
  6
BYLAYER
100
AcDbLine
 10
155.6499504687689353
 20
-209.0125731590802616
 30
0.0
 11
157.6499504687689353
 21
-209.0125731590802616
 31
0.0
  0
LINE
  5
1D1
100
AcDbEntity
  8
0
 62
256
370
-1
 48
1.0
  6
BYLAYER
100
AcDbLine
 10
155.1311880651173567
 20
-120.7195491590802874
 30
0.0
 11
157.1311880651173567
 21
-120.7195491590802874
 31
0.0
  0
LINE
  5
1D2
100
AcDbEntity
  8
0
 62
256
370
-1
 48
1.0
  6
BYLAYER
100
AcDbLine
 10
155.6499504687689353
 20
-208.5125731590802616
 30
0.0
 11
157.6499504687689353
 21
-208.5125731590802616
 31
0.0
  0
LINE
  5
1D3
100
AcDbEntity
  8
0
 62
256
370
-1
 48
1.0
  6
BYLAYER
100
AcDbLine
 10
155.1311880651173567
 20
-120.2195491590802874
 30
0.0
 11
157.1311880651173567
 21
-120.2195491590802874
 31
0.0
  0
LINE
  5
1D4
100
AcDbEntity
  8
0
 62
256
370
-1
 48
1.0
  6
BYLAYER
100
AcDbLine
 10
155.6499504687689353
 20
-208.0125731590802616
 30
0.0
 11
157.6499504687689353
 21
-208.0125731590802616
 31
0.0
  0
LINE
  5
1D5
100
AcDbEntity
  8
0
 62
256
370
-1
 48
1.0
  6
BYLAYER
100
AcDbLine
 10
162.557436622506799
 20
-121.2428560354458398
 30
0.0
 11
164.557436622506799
 21
-121.2428560354458398
 31
0.0
  0
LINE
  5
1D6
100
AcDbEntity
  8
0
 62
256
370
-1
 48
1.0
  6
BYLAYER
100
AcDbLine
 10
163.0761990261583776
 20
-209.035880035445814
 30
0.0
 11
165.0761990261583776
 21
-209.035880035445814
 31
0.0
  0
LINE
  5
1D7
100
AcDbEntity
  8
0
 62
256
370
-1
 48
1.0
  6
BYLAYER
100
AcDbLine
 10
162.557436622506799
 20
-120.7428560354458398
 30
0.0
 11
164.557436622506799
 21
-120.7428560354458398
 31
0.0
  0
LINE
  5
1D8
100
AcDbEntity
  8
0
 62
256
370
-1
 48
1.0
  6
BYLAYER
100
AcDbLine
 10
163.0761990261583776
 20
-208.535880035445814
 30
0.0
 11
165.0761990261583776
 21
-208.535880035445814
 31
0.0
  0
LINE
  5
1D9
100
AcDbEntity
  8
0
 62
256
370
-1
 48
1.0
  6
BYLAYER
100
AcDbLine
 10
162.557436622506799
 20
-120.2428560354458398
 30
0.0
 11
164.557436622506799
 21
-120.2428560354458398
 31
0.0
  0
LINE
  5
1DA
100
AcDbEntity
  8
0
 62
256
370
-1
 48
1.0
  6
BYLAYER
100
AcDbLine
 10
163.0761990261583776
 20
-208.035880035445814
 30
0.0
 11
165.0761990261583776
 21
-208.035880035445814
 31
0.0
  0
LINE
  5
1DB
100
AcDbEntity
  8
0
 62
256
370
-1
 48
1.0
  6
BYLAYER
100
AcDbLine
 10
51.25
 20
-43.5429082643934109
 30
0.0
 11
51.2407128649498773
 21
-45.0243958653566665
 31
0.0
  0
LINE
  5
1DC
100
AcDbEntity
  8
0
 62
256
370
-1
 48
1.0
  6
BYLAYER
100
AcDbLine
 10
71.7407128649498702
 20
-43.5429082643934038
 30
0.0
 11
71.7314257298997404
 21
-45.0243958653566594
 31
0.0
  0
LINE
  5
1DD
100
AcDbEntity
  8
0
 62
256
370
-1
 48
1.0
  6
BYLAYER
100
AcDbLine
 10
60.0737514426105363
 20
-43.5196013880278585
 30
0.0
 11
60.0644643075604066
 21
-45.0010889889911141
 31
0.0
  0
LINE
  5
1DE
100
AcDbEntity
  8
0
 62
256
370
-1
 48
1.0
  6
BYLAYER
100
AcDbLine
 10
75.2592871350501298
 20
-43.5429082643934038
 30
0.0
 11
75.25
 21
-45.0243958653566594
 31
0.0
  0
LINE
  5
1DF
100
AcDbEntity
  8
0
 62
256
370
-1
 48
1.0
  6
BYLAYER
100
AcDbLine
 10
95.75
 20
-43.5429082643933967
 30
0.0
 11
95.7407128649498702
 21
-45.0243958653566523
 31
0.0
  0
LINE
  5
1E0
100
AcDbEntity
  8
0
 62
256
370
-1
 48
1.0
  6
BYLAYER
100
AcDbLine
 10
84.083038577660659
 20
-43.5196013880278514
 30
0.0
 11
84.0737514426105292
 21
-45.001088988991107
 31
0.0
  0
LINE
  5
1E1
100
AcDbEntity
  8
0
 62
256
370
-1
 48
1.0
  6
BYLAYER
100
AcDbLine
 10
99.2685742701002454
 20
-43.5429082643933967
 30
0.0
 11
99.2592871350501298
 21
-45.0243958653566523
 31
0.0
  0
LINE
  5
1E2
100
AcDbEntity
  8
0
 62
256
370
-1
 48
1.0
  6
BYLAYER
100
AcDbLine
 10
119.7592871350501298
 20
-43.5429082643933896
 30
0.0
 11
119.75
 21
-45.0243958653566452
 31
0.0
  0
LINE
  5
1E3
100
AcDbEntity
  8
0
 62
256
370
-1
 48
1.0
  6
BYLAYER
100
AcDbLine
 10
108.0923257127107888
 20
-43.5196013880278443
 30
0.0
 11
108.083038577660659
 21
-45.0010889889910999
 31
0.0
  0
LINE
  5
1E4
100
AcDbEntity
  8
0
 62
256
370
-1
 48
1.0
  6
BYLAYER
100
AcDbLine
 10
123.277861405150361
 20
-43.5429082643933896
 30
0.0
 11
123.2685742701002312
 21
-45.0243958653566452
 31
0.0
  0
LINE
  5
1E5
100
AcDbEntity
  8
0
 62
256
370
-1
 48
1.0
  6
BYLAYER
100
AcDbLine
 10
143.7685742701002312
 20
-43.5429082643933825
 30
0.0
 11
143.7592871350501014
 21
-45.0243958653566381
 31
0.0
  0
LINE
  5
1E6
100
AcDbEntity
  8
0
 62
256
370
-1
 48
1.0
  6
BYLAYER
100
AcDbLine
 10
132.1016128477608902
 20
-43.5196013880278372
 30
0.0
 11
132.0923257127107604
 21
-45.0010889889910928
 31
0.0
  0
LINE
  5
1E7
100
AcDbEntity
  8
0
 62
256
370
-1
 48
1.0
  6
BYLAYER
100
AcDbLine
 10
40.3237514426105363
 20
-43.5196013880278585
 30
0.0
 11
40.3144643075604066
 21
-45.0010889889911141
 31
0.0
  0
LINE
  5
1E8
100
AcDbEntity
  8
0
 62
256
370
-1
 48
1.0
  6
BYLAYER
100
AcDbLine
 10
47.75
 20
-43.5429082643934109
 30
0.0
 11
47.7407128649498702
 21
-45.0243958653566665
 31
0.0
  0
LINE
  5
1E9
100
AcDbEntity
  8
0
 62
256
370
-1
 48
1.0
  6
BYLAYER
100
AcDbLine
 10
156.0737514426105292
 20
-43.5196013880278585
 30
0.0
 11
156.0644643075603994
 21
-45.0010889889911141
 31
0.0
  0
LINE
  5
1EA
100
AcDbEntity
  8
0
 62
256
370
-1
 48
1.0
  6
BYLAYER
100
AcDbLine
 10
163.5
 20
-43.5429082643934109
 30
0.0
 11
163.4907128649498702
 21
-45.0243958653566665
 31
0.0
  0
LINE
  5
1EB
100
AcDbEntity
  8
0
 62
256
370
-1
 48
1.0
  6
BYLAYER
100
AcDbLine
 10
50.3074366225068133
 20
-120.2428560354458398
 30
0.0
 11
50.2981494874566906
 21
-121.7243436364090883
 31
0.0
  0
LINE
  5
1EC
100
AcDbEntity
  8
0
 62
256
370
-1
 48
1.0
  6
BYLAYER
100
AcDbLine
 10
50.8261990261583918
 20
-208.035880035445814
 30
0.0
 11
50.8169118911082691
 21
-209.5173676364090625
 31
0.0
  0
LINE
  5
1ED
100
AcDbEntity
  8
0
 62
256
370
-1
 48
1.0
  6
BYLAYER
100
AcDbLine
 10
70.7981494874566977
 20
-120.2428560354458398
 30
0.0
 11
70.7888623524065679
 21
-121.7243436364090883
 31
0.0
  0
LINE
  5
1EE
100
AcDbEntity
  8
0
 62
256
370
-1
 48
1.0
  6
BYLAYER
100
AcDbLine
 10
71.3169118911082762
 20
-208.035880035445814
 30
0.0
 11
71.3076247560581464
 21
-209.5173676364090625
 31
0.0
  0
LINE
  5
1EF
100
AcDbEntity
  8
0
 62
256
370
-1
 48
1.0
  6
BYLAYER
100
AcDbLine
 10
59.1311880651173496
 20
-120.2195491590802874
 30
0.0
 11
59.1219009300672198
 21
-121.7010367600435359
 31
0.0
  0
LINE
  5
1F0
100
AcDbEntity
  8
0
 62
256
370
-1
 48
1.0
  6
BYLAYER
100
AcDbLine
 10
59.6499504687689281
 20
-208.0125731590802616
 30
0.0
 11
59.6406633337187984
 21
-209.4940607600435101
 31
0.0
  0
LINE
  5
1F1
100
AcDbEntity
  8
0
 62
256
370
-1
 48
1.0
  6
BYLAYER
100
AcDbLine
 10
74.3167237575569288
 20
-120.2428560354458398
 30
0.0
 11
74.3074366225068133
 21
-121.7243436364090883
 31
0.0
  0
LINE
  5
1F2
100
AcDbEntity
  8
0
 62
256
370
-1
 48
1.0
  6
BYLAYER
100
AcDbLine
 10
74.8354861612085074
 20
-208.035880035445814
 30
0.0
 11
74.8261990261583918
 21
-209.5173676364090625
 31
0.0
  0
LINE
  5
1F3
100
AcDbEntity
  8
0
 62
256
370
-1
 48
1.0
  6
BYLAYER
100
AcDbLine
 10
94.8074366225068133
 20
-120.2428560354458398
 30
0.0
 11
94.7981494874566835
 21
-121.7243436364090883
 31
0.0
  0
LINE
  5
1F4
100
AcDbEntity
  8
0
 62
256
370
-1
 48
1.0
  6
BYLAYER
100
AcDbLine
 10
95.3261990261583918
 20
-208.035880035445814
 30
0.0
 11
95.316911891108262
 21
-209.5173676364090625
 31
0.0
  0
LINE
  5
1F5
100
AcDbEntity
  8
0
 62
256
370
-1
 48
1.0
  6
BYLAYER
100
AcDbLine
 10
83.1404752001674723
 20
-120.2195491590802874
 30
0.0
 11
83.1311880651173425
 21
-121.7010367600435359
 31
0.0
  0
LINE
  5
1F6
100
AcDbEntity
  8
0
 62
256
370
-1
 48
1.0
  6
BYLAYER
100
AcDbLine
 10
83.6592376038190508
 20
-208.0125731590802616
 30
0.0
 11
83.649950468768921
 21
-209.4940607600435101
 31
0.0
  0
LINE
  5
1F7
100
AcDbEntity
  8
0
 62
256
370
-1
 48
1.0
  6
BYLAYER
100
AcDbLine
 10
98.3260108926070586
 20
-120.2428560354458398
 30
0.0
 11
98.3167237575569288
 21
-121.7243436364090883
 31
0.0
  0
LINE
  5
1F8
100
AcDbEntity
  8
0
 62
256
370
-1
 48
1.0
  6
BYLAYER
100
AcDbLine
 10
98.8447732962586372
 20
-208.035880035445814
 30
0.0
 11
98.8354861612085074
 21
-209.5173676364090625
 31
0.0
  0
LINE
  5
1F9
100
AcDbEntity
  8
0
 62
256
370
-1
 48
1.0
  6
BYLAYER
100
AcDbLine
 10
118.816723757556943
 20
-120.2428560354458398
 30
0.0
 11
118.8074366225068133
 21
-121.7243436364090883
 31
0.0
  0
LINE
  5
1FA
100
AcDbEntity
  8
0
 62
256
370
-1
 48
1.0
  6
BYLAYER
100
AcDbLine
 10
119.3354861612085216
 20
-208.035880035445814
 30
0.0
 11
119.3261990261583918
 21
-209.5173676364090625
 31
0.0
  0
LINE
  5
1FB
100
AcDbEntity
  8
0
 62
256
370
-1
 48
1.0
  6
BYLAYER
100
AcDbLine
 10
107.1497623352176021
 20
-120.2195491590802874
 30
0.0
 11
107.1404752001674723
 21
-121.7010367600435359
 31
0.0
  0
LINE
  5
1FC
100
AcDbEntity
  8
0
 62
256
370
-1
 48
1.0
  6
BYLAYER
100
AcDbLine
 10
107.6685247388691806
 20
-208.0125731590802616
 30
0.0
 11
107.6592376038190508
 21
-209.4940607600435101
 31
0.0
  0
LINE
  5
1FD
100
AcDbEntity
  8
0
 62
256
370
-1
 48
1.0
  6
BYLAYER
100
AcDbLine
 10
122.3352980276571742
 20
-120.2428560354458398
 30
0.0
 11
122.3260108926070444
 21
-121.7243436364090883
 31
0.0
  0
LINE
  5
1FE
100
AcDbEntity
  8
0
 62
256
370
-1
 48
1.0
  6
BYLAYER
100
AcDbLine
 10
122.8540604313087528
 20
-208.035880035445814
 30
0.0
 11
122.844773296258623
 21
-209.5173676364090625
 31
0.0
  0
LINE
  5
1FF
100
AcDbEntity
  8
0
 62
256
370
-1
 48
1.0
  6
BYLAYER
100
AcDbLine
 10
142.8260108926070586
 20
-120.2428560354458114
 30
0.0
 11
142.8167237575569004
 21
-121.7243436364090883
 31
0.0
  0
LINE
  5
200
100
AcDbEntity
  8
0
 62
256
370
-1
 48
1.0
  6
BYLAYER
100
AcDbLine
 10
143.3447732962586372
 20
-208.0358800354457856
 30
0.0
 11
143.335486161208479
 21
-209.5173676364090625
 31
0.0
  0
LINE
  5
201
100
AcDbEntity
  8
0
 62
256
370
-1
 48
1.0
  6
BYLAYER
100
AcDbLine
 10
131.1590494702677177
 20
-120.2195491590802874
 30
0.0
 11
131.1497623352175594
 21
-121.7010367600435359
 31
0.0
  0
LINE
  5
202
100
AcDbEntity
  8
0
 62
256
370
-1
 48
1.0
  6
BYLAYER
100
AcDbLine
 10
131.6778118739192962
 20
-208.0125731590802616
 30
0.0
 11
131.668524738869138
 21
-209.4940607600435101
 31
0.0
  0
LINE
  5
203
100
AcDbEntity
  8
0
 62
256
370
-1
 48
1.0
  6
BYLAYER
100
AcDbLine
 10
39.3811880651173496
 20
-120.2195491590802874
 30
0.0
 11
39.3719009300672198
 21
-121.7010367600435359
 31
0.0
  0
LINE
  5
204
100
AcDbEntity
  8
0
 62
256
370
-1
 48
1.0
  6
BYLAYER
100
AcDbLine
 10
39.8999504687689281
 20
-208.0125731590802616
 30
0.0
 11
39.8906633337187984
 21
-209.4940607600435101
 31
0.0
  0
LINE
  5
205
100
AcDbEntity
  8
0
 62
256
370
-1
 48
1.0
  6
BYLAYER
100
AcDbLine
 10
46.8074366225068133
 20
-120.2428560354458398
 30
0.0
 11
46.7981494874566835
 21
-121.7243436364090883
 31
0.0
  0
LINE
  5
206
100
AcDbEntity
  8
0
 62
256
370
-1
 48
1.0
  6
BYLAYER
100
AcDbLine
 10
47.3261990261583918
 20
-208.035880035445814
 30
0.0
 11
47.316911891108262
 21
-209.5173676364090625
 31
0.0
  0
LINE
  5
207
100
AcDbEntity
  8
0
 62
256
370
-1
 48
1.0
  6
BYLAYER
100
AcDbLine
 10
155.1311880651173567
 20
-120.2195491590802874
 30
0.0
 11
155.1219009300671985
 21
-121.7010367600435359
 31
0.0
  0
LINE
  5
208
100
AcDbEntity
  8
0
 62
256
370
-1
 48
1.0
  6
BYLAYER
100
AcDbLine
 10
155.6499504687689353
 20
-208.0125731590802616
 30
0.0
 11
155.640663333718777
 21
-209.4940607600435101
 31
0.0
  0
LINE
  5
209
100
AcDbEntity
  8
0
 62
256
370
-1
 48
1.0
  6
BYLAYER
100
AcDbLine
 10
162.557436622506799
 20
-120.2428560354458398
 30
0.0
 11
162.5481494874566977
 21
-121.7243436364090883
 31
0.0
  0
LINE
  5
20A
100
AcDbEntity
  8
0
 62
256
370
-1
 48
1.0
  6
BYLAYER
100
AcDbLine
 10
163.0761990261583776
 20
-208.035880035445814
 30
0.0
 11
163.0669118911082762
 21
-209.5173676364090625
 31
0.0
  0
LINE
  5
20B
100
AcDbEntity
  8
0
 62
256
370
-1
 48
1.0
  6
BYLAYER
100
AcDbLine
 10
53.25
 20
-43.5429082643934109
 30
0.0
 11
53.25
 21
-45.0243958653566665
 31
0.0
  0
LINE
  5
20C
100
AcDbEntity
  8
0
 62
256
370
-1
 48
1.0
  6
BYLAYER
100
AcDbLine
 10
73.7407128649498702
 20
-43.5429082643934038
 30
0.0
 11
73.7407128649498702
 21
-45.0243958653566594
 31
0.0
  0
LINE
  5
20D
100
AcDbEntity
  8
0
 62
256
370
-1
 48
1.0
  6
BYLAYER
100
AcDbLine
 10
62.0737514426105363
 20
-43.5196013880278585
 30
0.0
 11
62.0737514426105363
 21
-45.0010889889911141
 31
0.0
  0
LINE
  5
20E
100
AcDbEntity
  8
0
 62
256
370
-1
 48
1.0
  6
BYLAYER
100
AcDbLine
 10
77.2592871350501298
 20
-43.5429082643934038
 30
0.0
 11
77.2592871350501298
 21
-45.0243958653566594
 31
0.0
  0
LINE
  5
20F
100
AcDbEntity
  8
0
 62
256
370
-1
 48
1.0
  6
BYLAYER
100
AcDbLine
 10
97.75
 20
-43.5429082643933967
 30
0.0
 11
97.75
 21
-45.0243958653566523
 31
0.0
  0
LINE
  5
210
100
AcDbEntity
  8
0
 62
256
370
-1
 48
1.0
  6
BYLAYER
100
AcDbLine
 10
86.083038577660659
 20
-43.5196013880278514
 30
0.0
 11
86.083038577660659
 21
-45.001088988991107
 31
0.0
  0
LINE
  5
211
100
AcDbEntity
  8
0
 62
256
370
-1
 48
1.0
  6
BYLAYER
100
AcDbLine
 10
101.2685742701002454
 20
-43.5429082643933967
 30
0.0
 11
101.2685742701002454
 21
-45.0243958653566523
 31
0.0
  0
LINE
  5
212
100
AcDbEntity
  8
0
 62
256
370
-1
 48
1.0
  6
BYLAYER
100
AcDbLine
 10
121.7592871350501298
 20
-43.5429082643933896
 30
0.0
 11
121.7592871350501298
 21
-45.0243958653566452
 31
0.0
  0
LINE
  5
213
100
AcDbEntity
  8
0
 62
256
370
-1
 48
1.0
  6
BYLAYER
100
AcDbLine
 10
110.0923257127107888
 20
-43.5196013880278443
 30
0.0
 11
110.0923257127107888
 21
-45.0010889889910999
 31
0.0
  0
LINE
  5
214
100
AcDbEntity
  8
0
 62
256
370
-1
 48
1.0
  6
BYLAYER
100
AcDbLine
 10
125.277861405150361
 20
-43.5429082643933896
 30
0.0
 11
125.277861405150361
 21
-45.0243958653566452
 31
0.0
  0
LINE
  5
215
100
AcDbEntity
  8
0
 62
256
370
-1
 48
1.0
  6
BYLAYER
100
AcDbLine
 10
145.7685742701002312
 20
-43.5429082643933825
 30
0.0
 11
145.7685742701002312
 21
-45.0243958653566381
 31
0.0
  0
LINE
  5
216
100
AcDbEntity
  8
0
 62
256
370
-1
 48
1.0
  6
BYLAYER
100
AcDbLine
 10
134.1016128477608902
 20
-43.5196013880278372
 30
0.0
 11
134.1016128477608902
 21
-45.0010889889910928
 31
0.0
  0
LINE
  5
217
100
AcDbEntity
  8
0
 62
256
370
-1
 48
1.0
  6
BYLAYER
100
AcDbLine
 10
33.5
 20
-43.5429082643934109
 30
0.0
 11
33.5
 21
-45.0243958653566665
 31
0.0
  0
LINE
  5
218
100
AcDbEntity
  8
0
 62
256
370
-1
 48
1.0
  6
BYLAYER
100
AcDbLine
 10
42.3237514426105363
 20
-43.5196013880278585
 30
0.0
 11
42.3237514426105363
 21
-45.0010889889911141
 31
0.0
  0
LINE
  5
219
100
AcDbEntity
  8
0
 62
256
370
-1
 48
1.0
  6
BYLAYER
100
AcDbLine
 10
49.75
 20
-43.5429082643934109
 30
0.0
 11
49.75
 21
-45.0243958653566665
 31
0.0
  0
LINE
  5
21A
100
AcDbEntity
  8
0
 62
256
370
-1
 48
1.0
  6
BYLAYER
100
AcDbLine
 10
149.25
 20
-43.5429082643934109
 30
0.0
 11
149.25
 21
-45.0243958653566665
 31
0.0
  0
LINE
  5
21B
100
AcDbEntity
  8
0
 62
256
370
-1
 48
1.0
  6
BYLAYER
100
AcDbLine
 10
158.0737514426105292
 20
-43.5196013880278585
 30
0.0
 11
158.0737514426105292
 21
-45.0010889889911141
 31
0.0
  0
LINE
  5
21C
100
AcDbEntity
  8
0
 62
256
370
-1
 48
1.0
  6
BYLAYER
100
AcDbLine
 10
165.5
 20
-43.5429082643934109
 30
0.0
 11
165.5
 21
-45.0243958653566665
 31
0.0
  0
LINE
  5
21D
100
AcDbEntity
  8
0
 62
256
370
-1
 48
1.0
  6
BYLAYER
100
AcDbLine
 10
52.3074366225068133
 20
-120.2428560354458398
 30
0.0
 11
52.3074366225068133
 21
-121.7243436364090883
 31
0.0
  0
LINE
  5
21E
100
AcDbEntity
  8
0
 62
256
370
-1
 48
1.0
  6
BYLAYER
100
AcDbLine
 10
52.8261990261583918
 20
-208.035880035445814
 30
0.0
 11
52.8261990261583918
 21
-209.5173676364090625
 31
0.0
  0
LINE
  5
21F
100
AcDbEntity
  8
0
 62
256
370
-1
 48
1.0
  6
BYLAYER
100
AcDbLine
 10
72.7981494874566977
 20
-120.2428560354458398
 30
0.0
 11
72.7981494874566977
 21
-121.7243436364090883
 31
0.0
  0
LINE
  5
220
100
AcDbEntity
  8
0
 62
256
370
-1
 48
1.0
  6
BYLAYER
100
AcDbLine
 10
73.3169118911082762
 20
-208.035880035445814
 30
0.0
 11
73.3169118911082762
 21
-209.5173676364090625
 31
0.0
  0
LINE
  5
221
100
AcDbEntity
  8
0
 62
256
370
-1
 48
1.0
  6
BYLAYER
100
AcDbLine
 10
61.1311880651173496
 20
-120.2195491590802874
 30
0.0
 11
61.1311880651173496
 21
-121.7010367600435359
 31
0.0
  0
LINE
  5
222
100
AcDbEntity
  8
0
 62
256
370
-1
 48
1.0
  6
BYLAYER
100
AcDbLine
 10
61.6499504687689281
 20
-208.0125731590802616
 30
0.0
 11
61.6499504687689281
 21
-209.4940607600435101
 31
0.0
  0
LINE
  5
223
100
AcDbEntity
  8
0
 62
256
370
-1
 48
1.0
  6
BYLAYER
100
AcDbLine
 10
76.3167237575569288
 20
-120.2428560354458398
 30
0.0
 11
76.3167237575569288
 21
-121.7243436364090883
 31
0.0
  0
LINE
  5
224
100
AcDbEntity
  8
0
 62
256
370
-1
 48
1.0
  6
BYLAYER
100
AcDbLine
 10
76.8354861612085074
 20
-208.035880035445814
 30
0.0
 11
76.8354861612085074
 21
-209.5173676364090625
 31
0.0
  0
LINE
  5
225
100
AcDbEntity
  8
0
 62
256
370
-1
 48
1.0
  6
BYLAYER
100
AcDbLine
 10
96.8074366225068133
 20
-120.2428560354458398
 30
0.0
 11
96.8074366225068133
 21
-121.7243436364090883
 31
0.0
  0
LINE
  5
226
100
AcDbEntity
  8
0
 62
256
370
-1
 48
1.0
  6
BYLAYER
100
AcDbLine
 10
97.3261990261583918
 20
-208.035880035445814
 30
0.0
 11
97.3261990261583918
 21
-209.5173676364090625
 31
0.0
  0
LINE
  5
227
100
AcDbEntity
  8
0
 62
256
370
-1
 48
1.0
  6
BYLAYER
100
AcDbLine
 10
85.1404752001674723
 20
-120.2195491590802874
 30
0.0
 11
85.1404752001674723
 21
-121.7010367600435359
 31
0.0
  0
LINE
  5
228
100
AcDbEntity
  8
0
 62
256
370
-1
 48
1.0
  6
BYLAYER
100
AcDbLine
 10
85.6592376038190508
 20
-208.0125731590802616
 30
0.0
 11
85.6592376038190508
 21
-209.4940607600435101
 31
0.0
  0
LINE
  5
229
100
AcDbEntity
  8
0
 62
256
370
-1
 48
1.0
  6
BYLAYER
100
AcDbLine
 10
100.3260108926070586
 20
-120.2428560354458398
 30
0.0
 11
100.3260108926070586
 21
-121.7243436364090883
 31
0.0
  0
LINE
  5
22A
100
AcDbEntity
  8
0
 62
256
370
-1
 48
1.0
  6
BYLAYER
100
AcDbLine
 10
100.8447732962586372
 20
-208.035880035445814
 30
0.0
 11
100.8447732962586372
 21
-209.5173676364090625
 31
0.0
  0
LINE
  5
22B
100
AcDbEntity
  8
0
 62
256
370
-1
 48
1.0
  6
BYLAYER
100
AcDbLine
 10
120.816723757556943
 20
-120.2428560354458398
 30
0.0
 11
120.816723757556943
 21
-121.7243436364090883
 31
0.0
  0
LINE
  5
22C
100
AcDbEntity
  8
0
 62
256
370
-1
 48
1.0
  6
BYLAYER
100
AcDbLine
 10
121.3354861612085216
 20
-208.035880035445814
 30
0.0
 11
121.3354861612085216
 21
-209.5173676364090625
 31
0.0
  0
LINE
  5
22D
100
AcDbEntity
  8
0
 62
256
370
-1
 48
1.0
  6
BYLAYER
100
AcDbLine
 10
109.1497623352176021
 20
-120.2195491590802874
 30
0.0
 11
109.1497623352176021
 21
-121.7010367600435359
 31
0.0
  0
LINE
  5
22E
100
AcDbEntity
  8
0
 62
256
370
-1
 48
1.0
  6
BYLAYER
100
AcDbLine
 10
109.6685247388691806
 20
-208.0125731590802616
 30
0.0
 11
109.6685247388691806
 21
-209.4940607600435101
 31
0.0
  0
LINE
  5
22F
100
AcDbEntity
  8
0
 62
256
370
-1
 48
1.0
  6
BYLAYER
100
AcDbLine
 10
124.3352980276571742
 20
-120.2428560354458398
 30
0.0
 11
124.3352980276571742
 21
-121.7243436364090883
 31
0.0
  0
LINE
  5
230
100
AcDbEntity
  8
0
 62
256
370
-1
 48
1.0
  6
BYLAYER
100
AcDbLine
 10
124.8540604313087528
 20
-208.035880035445814
 30
0.0
 11
124.8540604313087528
 21
-209.5173676364090625
 31
0.0
  0
LINE
  5
231
100
AcDbEntity
  8
0
 62
256
370
-1
 48
1.0
  6
BYLAYER
100
AcDbLine
 10
144.8260108926070586
 20
-120.2428560354458114
 30
0.0
 11
144.8260108926070586
 21
-121.7243436364090883
 31
0.0
  0
LINE
  5
232
100
AcDbEntity
  8
0
 62
256
370
-1
 48
1.0
  6
BYLAYER
100
AcDbLine
 10
145.3447732962586372
 20
-208.0358800354457856
 30
0.0
 11
145.3447732962586372
 21
-209.5173676364090625
 31
0.0
  0
LINE
  5
233
100
AcDbEntity
  8
0
 62
256
370
-1
 48
1.0
  6
BYLAYER
100
AcDbLine
 10
133.1590494702677177
 20
-120.2195491590802874
 30
0.0
 11
133.1590494702677177
 21
-121.7010367600435359
 31
0.0
  0
LINE
  5
234
100
AcDbEntity
  8
0
 62
256
370
-1
 48
1.0
  6
BYLAYER
100
AcDbLine
 10
133.6778118739192962
 20
-208.0125731590802616
 30
0.0
 11
133.6778118739192962
 21
-209.4940607600435101
 31
0.0
  0
LINE
  5
235
100
AcDbEntity
  8
0
 62
256
370
-1
 48
1.0
  6
BYLAYER
100
AcDbLine
 10
32.5574366225068133
 20
-120.2428560354458398
 30
0.0
 11
32.5574366225068133
 21
-121.7243436364090883
 31
0.0
  0
LINE
  5
236
100
AcDbEntity
  8
0
 62
256
370
-1
 48
1.0
  6
BYLAYER
100
AcDbLine
 10
33.0761990261583918
 20
-208.035880035445814
 30
0.0
 11
33.0761990261583918
 21
-209.5173676364090625
 31
0.0
  0
LINE
  5
237
100
AcDbEntity
  8
0
 62
256
370
-1
 48
1.0
  6
BYLAYER
100
AcDbLine
 10
41.3811880651173496
 20
-120.2195491590802874
 30
0.0
 11
41.3811880651173496
 21
-121.7010367600435359
 31
0.0
  0
LINE
  5
238
100
AcDbEntity
  8
0
 62
256
370
-1
 48
1.0
  6
BYLAYER
100
AcDbLine
 10
41.8999504687689281
 20
-208.0125731590802616
 30
0.0
 11
41.8999504687689281
 21
-209.4940607600435101
 31
0.0
  0
LINE
  5
239
100
AcDbEntity
  8
0
 62
256
370
-1
 48
1.0
  6
BYLAYER
100
AcDbLine
 10
48.8074366225068133
 20
-120.2428560354458398
 30
0.0
 11
48.8074366225068133
 21
-121.7243436364090883
 31
0.0
  0
LINE
  5
23A
100
AcDbEntity
  8
0
 62
256
370
-1
 48
1.0
  6
BYLAYER
100
AcDbLine
 10
49.3261990261583918
 20
-208.035880035445814
 30
0.0
 11
49.3261990261583918
 21
-209.5173676364090625
 31
0.0
  0
LINE
  5
23B
100
AcDbEntity
  8
0
 62
256
370
-1
 48
1.0
  6
BYLAYER
100
AcDbLine
 10
148.307436622506799
 20
-120.2428560354458398
 30
0.0
 11
148.307436622506799
 21
-121.7243436364090883
 31
0.0
  0
LINE
  5
23C
100
AcDbEntity
  8
0
 62
256
370
-1
 48
1.0
  6
BYLAYER
100
AcDbLine
 10
148.8261990261583776
 20
-208.035880035445814
 30
0.0
 11
148.8261990261583776
 21
-209.5173676364090625
 31
0.0
  0
LINE
  5
23D
100
AcDbEntity
  8
0
 62
256
370
-1
 48
1.0
  6
BYLAYER
100
AcDbLine
 10
157.1311880651173567
 20
-120.2195491590802874
 30
0.0
 11
157.1311880651173567
 21
-121.7010367600435359
 31
0.0
  0
LINE
  5
23E
100
AcDbEntity
  8
0
 62
256
370
-1
 48
1.0
  6
BYLAYER
100
AcDbLine
 10
157.6499504687689353
 20
-208.0125731590802616
 30
0.0
 11
157.6499504687689353
 21
-209.4940607600435101
 31
0.0
  0
LINE
  5
23F
100
AcDbEntity
  8
0
 62
256
370
-1
 48
1.0
  6
BYLAYER
100
AcDbLine
 10
164.557436622506799
 20
-120.2428560354458398
 30
0.0
 11
164.557436622506799
 21
-121.7243436364090883
 31
0.0
  0
LINE
  5
240
100
AcDbEntity
  8
0
 62
256
370
-1
 48
1.0
  6
BYLAYER
100
AcDbLine
 10
165.0761990261583776
 20
-208.035880035445814
 30
0.0
 11
165.0761990261583776
 21
-209.5173676364090625
 31
0.0
  0
LINE
  5
241
100
AcDbEntity
  8
0
 62
256
370
-1
 48
1.0
  6
BYLAYER
100
AcDbLine
 10
30.0
 20
-90.0
 30
0.0
 11
167.0
 21
-90.0
 31
0.0
  0
LINE
  5
242
100
AcDbEntity
  8
0
 62
256
370
-1
 48
1.0
  6
BYLAYER
100
AcDbLine
 10
166.057436622506799
 20
-166.6999477710524218
 30
0.0
 11
29.0574366225068133
 21
-166.6999477710524218
 31
0.0
  0
LINE
  5
243
100
AcDbEntity
  8
0
 62
256
370
-1
 48
1.0
  6
BYLAYER
100
AcDbLine
 10
166.5761990261583776
 20
-254.492971771052396
 30
0.0
 11
29.5761990261583918
 21
-254.492971771052396
 31
0.0
  0
MTEXT
  5
244
100
AcDbEntity
  8
Panels
 62
256
370
-1
 48
1.0
  6
BYLAYER
100
AcDbMText
 10
177.6304895743999168
 20
-60.341239756799979
 30
0.0
 40
3.0
 41
0.0
 71
1
 72
1
  1
\fDejaVu Sans|b0|i0|c0|p0;\H5;Front
  7
textstyle0
 50
0.0
 73
2
 44
1.0
  0
MTEXT
  5
245
100
AcDbEntity
  8
Panels
 62
256
370
-1
 48
1.0
  6
BYLAYER
100
AcDbMText
 10
177.0792480358398677
 20
-137.985313177600176
 30
0.0
 40
3.0
 41
0.0
 71
1
 72
1
  1
\fDejaVu Sans|b0|i0|c0|p0;\H5;Front
  7
textstyle1
 50
0.0
 73
2
 44
1.0
  0
MTEXT
  5
246
100
AcDbEntity
  8
Panels
 62
256
370
-1
 48
1.0
  6
BYLAYER
100
AcDbMText
 10
177.5980104394914179
 20
-225.7783371776002355
 30
0.0
 40
3.0
 41
0.0
 71
1
 72
1
  1
\fDejaVu Sans|b0|i0|c0|p0;\H5;Front
  7
textstyle2
 50
0.0
 73
2
 44
1.0
  0
MTEXT
  5
247
100
AcDbEntity
  8
Panels
 62
256
370
-1
 48
1.0
  6
BYLAYER
100
AcDbMText
 10
-0.0000000000000213
 20
-59.9999999999999858
 30
0.0
 40
3.0
 41
0.0
 71
1
 72
1
  1
\fDejaVu Sans|b0|i0|c0|p0;\H5;Back
  7
textstyle3
 50
0.0
 73
2
 44
1.0
  0
MTEXT
  5
248
100
AcDbEntity
  8
Panels
 62
256
370
-1
 48
1.0
  6
BYLAYER
100
AcDbMText
 10
-0.5838882969600822
 20
-138.1580608000000154
 30
0.0
 40
3.0
 41
0.0
 71
1
 72
1
  1
\fDejaVu Sans|b0|i0|c0|p0;\H5;Back
  7
textstyle4
 50
0.0
 73
2
 44
1.0
  0
MTEXT
  5
249
100
AcDbEntity
  8
Panels
 62
256
370
-1
 48
1.0
  6
BYLAYER
100
AcDbMText
 10
-0.0651258933085002
 20
-225.9510847999999896
 30
0.0
 40
3.0
 41
0.0
 71
1
 72
1
  1
\fDejaVu Sans|b0|i0|c0|p0;\H5;Back
  7
textstyle5
 50
0.0
 73
2
 44
1.0
  0
LEADER
  5
24A
100
AcDbEntity
  8
Panels
 62
256
370
-1
 48
1.0
  6
BYLAYER
100
AcDbLeader
  3
Standard
 71
1
 72
0
 73
3
 74
0
 75
0
 40
1.0
 41
10.0
 76
3
 10
122.304041384959902
 20
-85.6144490803201137
 10
132.008489384959887
 20
-100.7932010803201024
 10
139.2246173849599131
 20
-100.7932010803201024
1001
ACAD
1000
DSTYLE
1002
{
1070
40
1040
1.0
1002
}
  0
LEADER
  5
24B
100
AcDbEntity
  8
Panels
 62
256
370
-1
 48
1.0
  6
BYLAYER
100
AcDbLeader
  3
Standard
 71
1
 72
0
 73
3
 74
0
 75
0
 40
1.0
 41
10.0
 76
3
 10
121.2320000000000135
 20
-132.291199999999975
 10
110.0000000000000142
 20
-110.0
 10
118.8128000000000242
 20
-110.0
1001
ACAD
1000
DSTYLE
1002
{
1070
40
1040
1.0
1002
}
  0
MTEXT
  5
24C
100
AcDbEntity
  8
Panels
 62
256
370
-1
 48
1.0
  6
BYLAYER
100
AcDbMText
 10
141.561149864959873
 20
-99.0812966400000477
 30
0.0
 40
3.0
 41
0.0
 71
1
 72
1
  1
\fDejaVu Sans|b0|i0|c0|p0;Factory Edge
  7
textstyle6
 50
0.0
 73
2
 44
1.0
  0
MTEXT
  5
24D
100
AcDbEntity
  8
Panels
 62
256
370
-1
 48
1.0
  6
BYLAYER
100
AcDbMText
 10
121.5972300799999459
 20
-108.6433126400000333
 30
0.0
 40
3.0
 41
0.0
 71
1
 72
1
  1
\fDejaVu Sans|b0|i0|c0|p0;Factory Edge
  7
textstyle7
 50
0.0
 73
2
 44
1.0
  0
INSERT
  5
24E
100
AcDbEntity
  8
Notes
 62
7
420
16053492
370
-1
 48
1.0
  6
BYLAYER
100
AcDbBlockReference
  2
WhiteBore
 10
146.0999999999999943
 20
-252.9999999999999716
 30
0.0
 41
1.0
 42
-1.0
 43
1.0
 50
180.0
  0
INSERT
  5
24F
100
AcDbEntity
  8
Notes
 62
7
420
16053492
370
-1
 48
1.0
  6
BYLAYER
100
AcDbBlockReference
  2
WhiteBore
 10
146.0999999999999943
 20
-240.9999999999999716
 30
0.0
 41
1.0
 42
-1.0
 43
1.0
 50
180.0
  0
INSERT
  5
250
100
AcDbEntity
  8
Notes
 62
7
420
16053492
370
-1
 48
1.0
  6
BYLAYER
100
AcDbBlockReference
  2
WhiteBore
 10
146.0999999999999943
 20
-228.9999999999999716
 30
0.0
 41
1.0
 42
-1.0
 43
1.0
 50
180.0
  0
INSERT
  5
251
100
AcDbEntity
  8
Notes
 62
7
420
16053492
370
-1
 48
1.0
  6
BYLAYER
100
AcDbBlockReference
  2
WhiteBore
 10
146.0999999999999943
 20
-216.9999999999999716
 30
0.0
 41
1.0
 42
-1.0
 43
1.0
 50
180.0
  0
INSERT
  5
252
100
AcDbEntity
  8
Notes
 62
7
420
16053492
370
-1
 48
1.0
  6
BYLAYER
100
AcDbBlockReference
  2
WhiteBore
 10
98.0999999999999943
 20
-252.9999999999999716
 30
0.0
 41
1.0
 42
-1.0
 43
1.0
 50
180.0
  0
INSERT
  5
253
100
AcDbEntity
  8
Notes
 62
7
420
16053492
370
-1
 48
1.0
  6
BYLAYER
100
AcDbBlockReference
  2
WhiteBore
 10
98.0999999999999943
 20
-240.9999999999999716
 30
0.0
 41
1.0
 42
-1.0
 43
1.0
 50
180.0
  0
INSERT
  5
254
100
AcDbEntity
  8
Notes
 62
7
420
16053492
370
-1
 48
1.0
  6
BYLAYER
100
AcDbBlockReference
  2
WhiteBore
 10
98.0999999999999943
 20
-228.9999999999999716
 30
0.0
 41
1.0
 42
-1.0
 43
1.0
 50
180.0
  0
INSERT
  5
255
100
AcDbEntity
  8
Notes
 62
7
420
16053492
370
-1
 48
1.0
  6
BYLAYER
100
AcDbBlockReference
  2
WhiteBore
 10
98.0999999999999943
 20
-216.9999999999999716
 30
0.0
 41
1.0
 42
-1.0
 43
1.0
 50
180.0
  0
INSERT
  5
256
100
AcDbEntity
  8
Notes
 62
7
420
16053492
370
-1
 48
1.0
  6
BYLAYER
100
AcDbBlockReference
  2
WhiteBore
 10
74.0999999999999943
 20
-252.9999999999999716
 30
0.0
 41
1.0
 42
-1.0
 43
1.0
 50
180.0
  0
INSERT
  5
257
100
AcDbEntity
  8
Notes
 62
7
420
16053492
370
-1
 48
1.0
  6
BYLAYER
100
AcDbBlockReference
  2
WhiteBore
 10
74.0999999999999943
 20
-240.9999999999999716
 30
0.0
 41
1.0
 42
-1.0
 43
1.0
 50
180.0
  0
INSERT
  5
258
100
AcDbEntity
  8
Notes
 62
7
420
16053492
370
-1
 48
1.0
  6
BYLAYER
100
AcDbBlockReference
  2
WhiteBore
 10
74.0999999999999943
 20
-228.9999999999999716
 30
0.0
 41
1.0
 42
-1.0
 43
1.0
 50
180.0
  0
INSERT
  5
259
100
AcDbEntity
  8
Notes
 62
7
420
16053492
370
-1
 48
1.0
  6
BYLAYER
100
AcDbBlockReference
  2
WhiteBore
 10
74.0999999999999943
 20
-216.9999999999999716
 30
0.0
 41
1.0
 42
-1.0
 43
1.0
 50
180.0
  0
INSERT
  5
25A
100
AcDbEntity
  8
Notes
 62
7
420
16053492
370
-1
 48
1.0
  6
BYLAYER
100
AcDbBlockReference
  2
WhiteBore
 10
50.0999999999999943
 20
-252.9999999999999716
 30
0.0
 41
1.0
 42
-1.0
 43
1.0
 50
180.0
  0
INSERT
  5
25B
100
AcDbEntity
  8
Notes
 62
7
420
16053492
370
-1
 48
1.0
  6
BYLAYER
100
AcDbBlockReference
  2
WhiteBore
 10
50.0999999999999943
 20
-240.9999999999999716
 30
0.0
 41
1.0
 42
-1.0
 43
1.0
 50
180.0
  0
INSERT
  5
25C
100
AcDbEntity
  8
Notes
 62
7
420
16053492
370
-1
 48
1.0
  6
BYLAYER
100
AcDbBlockReference
  2
WhiteBore
 10
50.0999999999999943
 20
-228.9999999999999716
 30
0.0
 41
1.0
 42
-1.0
 43
1.0
 50
180.0
  0
INSERT
  5
25D
100
AcDbEntity
  8
Notes
 62
7
420
16053492
370
-1
 48
1.0
  6
BYLAYER
100
AcDbBlockReference
  2
WhiteBore
 10
50.0999999999999943
 20
-216.9999999999999716
 30
0.0
 41
1.0
 42
-1.0
 43
1.0
 50
180.0
  0
INSERT
  5
25E
100
AcDbEntity
  8
Notes
 62
7
420
16053492
370
-1
 48
1.0
  6
BYLAYER
100
AcDbBlockReference
  2
WhiteBore
 10
146.1481587607464405
 20
-211.1366913254323663
 30
0.0
 41
1.0
 42
-1.0
 43
1.0
 50
180.0
  0
INSERT
  5
25F
100
AcDbEntity
  8
Notes
 62
7
420
16053492
370
-1
 48
1.0
  6
BYLAYER
100
AcDbBlockReference
  2
WhiteBore
 10
98.1481587607464405
 20
-211.1366913254323663
 30
0.0
 41
1.0
 42
-1.0
 43
1.0
 50
180.0
  0
INSERT
  5
260
100
AcDbEntity
  8
Notes
 62
7
420
16053492
370
-1
 48
1.0
  6
BYLAYER
100
AcDbBlockReference
  2
WhiteBore
 10
74.1481587607464405
 20
-211.1366913254323663
 30
0.0
 41
1.0
 42
-1.0
 43
1.0
 50
180.0
  0
INSERT
  5
261
100
AcDbEntity
  8
Notes
 62
7
420
16053492
370
-1
 48
1.0
  6
BYLAYER
100
AcDbBlockReference
  2
WhiteBore
 10
50.1481587607464405
 20
-211.1366913254323663
 30
0.0
 41
1.0
 42
-1.0
 43
1.0
 50
180.0
  0
MTEXT
  5
262
100
AcDbEntity
  8
Notes
 62
256
370
-1
 48
1.0
  6
BYLAYER
100
AcDbMText
 10
40.0
 20
-260.0
 30
0.0
 40
1.0
 41
0.0
 71
1
 72
1
  1
\fDejaVu Sans|b0|i0|c0|p0;\H3.5;Drill & countersink, then use\PLONG screws into rafters\P(5 screws into each rafter)
  7
textstyle8
 50
0.0
 73
2
 44
1.0
  0
LEADER
  5
263
100
AcDbEntity
  8
Notes
 62
256
370
-1
 48
1.0
  6
BYLAYER
100
AcDbLeader
  3
Standard
 71
1
 72
0
 73
3
 74
0
 75
0
 40
1.0
 41
10.0
 76
3
 10
174.1245137032483683
 20
10.0
 10
181.0
 20
23.0
 10
187.0
 20
23.0
1001
ACAD
1000
DSTYLE
1002
{
1070
40
1040
1.0
1002
}
  0
LEADER
  5
264
100
AcDbEntity
  8
Notes
 62
256
370
-1
 48
1.0
  6
BYLAYER
100
AcDbLeader
  3
Standard
 71
1
 72
0
 73
3
 74
0
 75
0
 40
1.0
 41
10.0
 76
3
 10
91.9999999999998579
 20
10.0
 10
98.8754862967514896
 20
23.0
 10
104.8754862967514896
 20
23.0
1001
ACAD
1000
DSTYLE
1002
{
1070
40
1040
1.0
1002
}
  0
MTEXT
  5
265
100
AcDbEntity
  8
Notes
 62
256
370
-1
 48
1.0
  6
BYLAYER
100
AcDbMText
 10
188.5782525365766276
 20
24.4156479468427854
 30
0.0
 40
3.0
 41
0.0
 71
1
 72
1
  1
\fDejaVu Sans|b0|i0|c0|p0;\H2.50001;8" spacing
  7
textstyle9
 50
0.0
 73
2
 44
1.0
  0
MTEXT
  5
266
100
AcDbEntity
  8
Notes
 62
256
370
-1
 48
1.0
  6
BYLAYER
100
AcDbMText
 10
106.4537388333281172
 20
24.4156479468427605
 30
0.0
 40
3.0
 41
0.0
 71
1
 72
1
  1
\fDejaVu Sans|b0|i0|c0|p0;\H2.50001;8" spacing
  7
textstyle10
 50
0.0
 73
2
 44
1.0
  0
MTEXT
  5
267
100
AcDbEntity
  8
Panels
 62
256
370
-1
 48
1.0
  6
BYLAYER
100
AcDbMText
 10
64.322785855233505
 20
-284.4347070074708768
 30
0.0
 40
3.0
 41
0.0
 71
1
 72
1
  1
\fDejaVu Sans|b0|i0|c0|p0;\H7.99998;Ceiling Panels
  7
textstyle11
 50
0.0
 73
2
 44
1.0
  0
ENDSEC
  0
SECTION
  2
OBJECTS
  0
DICTIONARY
  5
C
100
AcDbDictionary
280
0
281
1
  3
ACAD_GROUP
350
D
  3
ACAD_LAYOUT
350
1A
  3
ACAD_MLINESTYLE
350
17
  3
ACAD_PLOTSETTINGS
350
19
  3
ACAD_PLOTSTYLENAME
350
E
  3
AcDbVariableDictionary
350
268
  3
QCAD_OBJECTS
350
269
  0
DICTIONARY
  5
D
100
AcDbDictionary
280
0
281
1
  0
ACDBDICTIONARYWDFLT
  5
E
100
AcDbDictionary
281
1
  3
Normal
350
F
100
AcDbDictionaryWithDefault
340
F
  0
ACDBPLACEHOLDER
  5
F
  0
DICTIONARY
  5
17
100
AcDbDictionary
280
0
281
1
  3
Standard
350
18
  0
MLINESTYLE
  5
18
100
AcDbMlineStyle
  2
STANDARD
 70
0
  3

 62
256
 51
90.0
 52
90.0
 71
2
 49
0.5
 62
256
  6
BYLAYER
 49
-0.5
 62
256
  6
BYLAYER
  0
DICTIONARY
  5
19
100
AcDbDictionary
280
0
281
1
  0
DICTIONARY
  5
1A
100
AcDbDictionary
281
1
  3
Layout1
350
1E
  3
Layout2
350
26
  3
Model
350
22
  0
LAYOUT
  5
1E
100
AcDbPlotSettings
  1

  2
none_device
  4

  6

 40
0.0
 41
0.0
 42
0.0
 43
0.0
 44
0.0
 45
0.0
 46
0.0
 47
0.0
 48
0.0
 49
0.0
140
0.0
141
0.0
142
1.0
143
1.0
 70
688
 72
0
 73
0
 74
5
  7

 75
16
147
1.0
148
0.0
149
0.0
100
AcDbLayout
  1
Layout1
 70
1
 71
1
 10
0.0
 20
0.0
 11
420.0
 21
297.0
 12
0.0
 22
0.0
 32
0.0
 14
100000000000000000000.0
 24
100000000000000000000.0
 34
100000000000000000000.0
 15
-100000000000000000000.0
 25
-100000000000000000000.0
 35
-100000000000000000000.0
146
0.0
 13
0.0
 23
0.0
 33
0.0
 16
1.0
 26
0.0
 36
0.0
 17
0.0
 27
1.0
 37
0.0
 76
0
330
1B
  0
LAYOUT
  5
22
100
AcDbPlotSettings
  1

  2
none_device
  4

  6

 40
0.0
 41
0.0
 42
0.0
 43
0.0
 44
0.0
 45
0.0
 46
0.0
 47
0.0
 48
0.0
 49
0.0
140
0.0
141
0.0
142
1.0
143
1.0
 70
1712
 72
0
 73
0
 74
0
  7

 75
0
147
1.0
148
0.0
149
0.0
100
AcDbLayout
  1
Model
 70
1
 71
0
 10
0.0
 20
0.0
 11
12.0
 21
9.0
 12
0.0
 22
0.0
 32
0.0
 14
0.0
 24
0.0
 34
0.0
 15
0.0
 25
0.0
 35
0.0
146
0.0
 13
0.0
 23
0.0
 33
0.0
 16
1.0
 26
0.0
 36
0.0
 17
0.0
 27
1.0
 37
0.0
 76
0
330
1F
  0
LAYOUT
  5
26
100
AcDbPlotSettings
  1

  2
none_device
  4

  6

 40
0.0
 41
0.0
 42
0.0
 43
0.0
 44
0.0
 45
0.0
 46
0.0
 47
0.0
 48
0.0
 49
0.0
140
0.0
141
0.0
142
1.0
143
1.0
 70
688
 72
0
 73
0
 74
5
  7

 75
16
147
1.0
148
0.0
149
0.0
100
AcDbLayout
  1
Layout2
 70
1
 71
2
 10
0.0
 20
0.0
 11
12.0
 21
9.0
 12
0.0
 22
0.0
 32
0.0
 14
0.0
 24
0.0
 34
0.0
 15
0.0
 25
0.0
 35
0.0
146
0.0
 13
0.0
 23
0.0
 33
0.0
 16
1.0
 26
0.0
 36
0.0
 17
0.0
 27
1.0
 37
0.0
 76
0
330
23
  0
DICTIONARY
  5
268
100
AcDbDictionary
281
1
  3
DIMASSOC
350
26B
  3
HIDETEXT
350
26A
  0
DICTIONARYVAR
  5
26A
100
DictionaryVariables
280
0
  1
2
  0
DICTIONARYVAR
  5
26B
100
DictionaryVariables
280
0
  1
1
  0
DICTIONARY
  5
269
100
AcDbDictionary
281
1
  3
ColorSettings/BackgroundColor
350
26C
  3
ColorSettings/ColorMode
350
26D
  3
DimensionSettings/AngularFormat
350
26E
  3
DimensionSettings/AngularPrecision
350
26F
  3
DimensionSettings/DecimalPoint
350
270
  3
DimensionSettings/DimensionFont
350
271
  3
DimensionSettings/DimensionTextColor
350
272
  3
DimensionSettings/KeepProportions
350
273
  3
DimensionSettings/LinearFormat
350
274
  3
DimensionSettings/LinearPrecision
350
275
  3
Grid/DisplayGrid00
350
276
  3
Grid/DisplayGrid01
350
277
  3
Grid/DisplayGrid02
350
278
  3
Grid/DisplayGrid03
350
279
  3
Grid/GridSpacingX00
350
27A
  3
Grid/GridSpacingX01
350
27B
  3
Grid/GridSpacingX02
350
27C
  3
Grid/GridSpacingX03
350
27D
  3
Grid/GridSpacingY00
350
27E
  3
Grid/GridSpacingY01
350
27F
  3
Grid/GridSpacingY02
350
280
  3
Grid/GridSpacingY03
350
281
  3
Grid/IsometricGrid00
350
282
  3
Grid/IsometricGrid01
350
283
  3
Grid/IsometricGrid02
350
284
  3
Grid/IsometricGrid03
350
285
  3
Grid/IsometricProjection00
350
286
  3
Grid/IsometricProjection01
350
287
  3
Grid/IsometricProjection02
350
288
  3
Grid/IsometricProjection03
350
289
  3
Grid/MetaGridSpacingX00
350
28A
  3
Grid/MetaGridSpacingX01
350
28B
  3
Grid/MetaGridSpacingX02
350
28C
  3
Grid/MetaGridSpacingX03
350
28D
  3
Grid/MetaGridSpacingY00
350
28E
  3
Grid/MetaGridSpacingY01
350
28F
  3
Grid/MetaGridSpacingY02
350
290
  3
Grid/MetaGridSpacingY03
350
291
  3
MultiPageSettings/Columns
350
292
  3
MultiPageSettings/GlueMarginsBottom
350
293
  3
MultiPageSettings/GlueMarginsLeft
350
294
  3
MultiPageSettings/GlueMarginsRight
350
295
  3
MultiPageSettings/GlueMarginsTop
350
296
  3
MultiPageSettings/PrintCropMarks
350
297
  3
MultiPageSettings/Rows
350
298
  3
PageSettings/OffsetX
350
299
  3
PageSettings/OffsetY
350
29A
  3
PageSettings/PageOrientation
350
29B
  3
PageSettings/PaperHeight
350
29C
  3
PageSettings/PaperSizeName
350
29D
  3
PageSettings/PaperWidth
350
29E
  3
PageSettings/PointSize
350
29F
  3
PageSettings/Scale
350
2A0
  3
PageSettings/ShowPaperBorders
350
2A1
  3
PageTagSettings/EnablePageTags
350
2A2
  3
PageTagSettings/TagAlignment
350
2A3
  3
PageTagSettings/TagFont
350
2A4
  3
PageTagSettings/TagPosition
350
2A5
  3
QCADVersion
350
2A6
  3
UnitSettings/Measurement
350
2A7
  3
UnitSettings/PaperUnit
350
2A8
  3
ViewportCenter
350
2A9
  3
ViewportHeight
350
2AA
  3
ViewportWidth
350
2AB
  0
XRECORD
  5
26C
330
269
100
AcDbXrecord
280
1
1000
White
  0
XRECORD
  5
26D
330
269
100
AcDbXrecord
280
1
1000
FullColor
  0
XRECORD
  5
26E
330
269
100
AcDbXrecord
280
1
 90
0
  0
XRECORD
  5
26F
330
269
100
AcDbXrecord
280
1
 90
0
  0
XRECORD
  5
270
330
269
100
AcDbXrecord
280
1
 90
46
  0
XRECORD
  5
271
330
269
100
AcDbXrecord
280
1
1000
DejaVu Sans
  0
XRECORD
  5
272
330
269
100
AcDbXrecord
280
1
1000
By Layer
  0
XRECORD
  5
273
330
269
100
AcDbXrecord
280
1
290
0
  0
XRECORD
  5
274
330
269
100
AcDbXrecord
280
1
 90
2
  0
XRECORD
  5
275
330
269
100
AcDbXrecord
280
1
 90
4
  0
XRECORD
  5
276
330
269
100
AcDbXrecord
280
1
290
1
  0
XRECORD
  5
277
330
269
100
AcDbXrecord
280
1
290
1
  0
XRECORD
  5
278
330
269
100
AcDbXrecord
280
1
290
1
  0
XRECORD
  5
279
330
269
100
AcDbXrecord
280
1
290
1
  0
XRECORD
  5
27A
330
269
100
AcDbXrecord
280
1
1000
auto
  0
XRECORD
  5
27B
330
269
100
AcDbXrecord
280
1
1000
auto
  0
XRECORD
  5
27C
330
269
100
AcDbXrecord
280
1
1000
auto
  0
XRECORD
  5
27D
330
269
100
AcDbXrecord
280
1
1000
auto
  0
XRECORD
  5
27E
330
269
100
AcDbXrecord
280
1
1000
auto
  0
XRECORD
  5
27F
330
269
100
AcDbXrecord
280
1
1000
auto
  0
XRECORD
  5
280
330
269
100
AcDbXrecord
280
1
1000
auto
  0
XRECORD
  5
281
330
269
100
AcDbXrecord
280
1
1000
auto
  0
XRECORD
  5
282
330
269
100
AcDbXrecord
280
1
290
0
  0
XRECORD
  5
283
330
269
100
AcDbXrecord
280
1
290
0
  0
XRECORD
  5
284
330
269
100
AcDbXrecord
280
1
290
0
  0
XRECORD
  5
285
330
269
100
AcDbXrecord
280
1
290
0
  0
XRECORD
  5
286
330
269
100
AcDbXrecord
280
1
 90
65537
  0
XRECORD
  5
287
330
269
100
AcDbXrecord
280
1
 90
65537
  0
XRECORD
  5
288
330
269
100
AcDbXrecord
280
1
 90
65537
  0
XRECORD
  5
289
330
269
100
AcDbXrecord
280
1
 90
65537
  0
XRECORD
  5
28A
330
269
100
AcDbXrecord
280
1
1000
auto
  0
XRECORD
  5
28B
330
269
100
AcDbXrecord
280
1
1000
auto
  0
XRECORD
  5
28C
330
269
100
AcDbXrecord
280
1
1000
auto
  0
XRECORD
  5
28D
330
269
100
AcDbXrecord
280
1
1000
auto
  0
XRECORD
  5
28E
330
269
100
AcDbXrecord
280
1
1000
auto
  0
XRECORD
  5
28F
330
269
100
AcDbXrecord
280
1
1000
auto
  0
XRECORD
  5
290
330
269
100
AcDbXrecord
280
1
1000
auto
  0
XRECORD
  5
291
330
269
100
AcDbXrecord
280
1
1000
auto
  0
XRECORD
  5
292
330
269
100
AcDbXrecord
280
1
 90
1
  0
XRECORD
  5
293
330
269
100
AcDbXrecord
280
1
 40
0.3937007874015748
  0
XRECORD
  5
294
330
269
100
AcDbXrecord
280
1
 40
0.3937007874015748
  0
XRECORD
  5
295
330
269
100
AcDbXrecord
280
1
 40
0.3937007874015748
  0
XRECORD
  5
296
330
269
100
AcDbXrecord
280
1
 40
0.3937007874015748
  0
XRECORD
  5
297
330
269
100
AcDbXrecord
280
1
290
0
  0
XRECORD
  5
298
330
269
100
AcDbXrecord
280
1
 90
1
  0
XRECORD
  5
299
330
269
100
AcDbXrecord
280
1
 40
-59.8185903334218878
  0
XRECORD
  5
29A
330
269
100
AcDbXrecord
280
1
 40
-351.538542432557449
  0
XRECORD
  5
29B
330
269
100
AcDbXrecord
280
1
1000
Portrait
  0
XRECORD
  5
29C
330
269
100
AcDbXrecord
280
1
 40
11.6929133858267722
  0
XRECORD
  5
29D
330
269
100
AcDbXrecord
280
1
1000
Custom
  0
XRECORD
  5
29E
330
269
100
AcDbXrecord
280
1
 40
8.2677165354330704
  0
XRECORD
  5
29F
330
269
100
AcDbXrecord
280
1
1000
0.5
  0
XRECORD
  5
2A0
330
269
100
AcDbXrecord
280
1
1000
0.0255
  0
XRECORD
  5
2A1
330
269
100
AcDbXrecord
280
1
290
1
  0
XRECORD
  5
2A2
330
269
100
AcDbXrecord
280
1
290
0
  0
XRECORD
  5
2A3
330
269
100
AcDbXrecord
280
1
1000
Inside
  0
XRECORD
  5
2A4
330
269
100
AcDbXrecord
280
1
1000
Arial,10,-1,5,50,0,0,0,0,0
  0
XRECORD
  5
2A5
330
269
100
AcDbXrecord
280
1
1000
TopLeft
  0
XRECORD
  5
2A6
330
269
100
AcDbXrecord
280
1
1000
3.32.6
  0
XRECORD
  5
2A7
330
269
100
AcDbXrecord
280
1
 90
1
  0
XRECORD
  5
2A8
330
269
100
AcDbXrecord
280
1
 90
1
  0
XRECORD
  5
2AA
330
269
100
AcDbXrecord
280
1
 40
459.6724520682651018
  0
XRECORD
  5
2AB
330
269
100
AcDbXrecord
280
1
 40
397.0229578085648541
  0
IMAGEDEF
  5
98
100
AcDbRasterImageDef
 90
0
  1
../../common/clipart/Screw.png
 10
3.0
 20
9.0
 11
1.0
 21
1.0
280
1
281
0
  0
IMAGEDEF
  5
9A
100
AcDbRasterImageDef
 90
0
  1
../../common/clipart/Screw.png
 10
3.0
 20
9.0
 11
1.0
 21
1.0
280
1
281
0
  0
IMAGEDEF
  5
9C
100
AcDbRasterImageDef
 90
0
  1
../../common/clipart/Screw.png
 10
3.0
 20
9.0
 11
1.0
 21
1.0
280
1
281
0
  0
IMAGEDEF
  5
9E
100
AcDbRasterImageDef
 90
0
  1
../../common/clipart/Screw.png
 10
3.0
 20
9.0
 11
1.0
 21
1.0
280
1
281
0
  0
IMAGEDEF
  5
A0
100
AcDbRasterImageDef
 90
0
  1
../../common/clipart/Screw.png
 10
3.0
 20
9.0
 11
1.0
 21
1.0
280
1
281
0
  0
IMAGEDEF
  5
A2
100
AcDbRasterImageDef
 90
0
  1
../../common/clipart/Screw.png
 10
3.0
 20
9.0
 11
1.0
 21
1.0
280
1
281
0
  0
IMAGEDEF
  5
A4
100
AcDbRasterImageDef
 90
0
  1
../../common/clipart/Screw.png
 10
3.0
 20
9.0
 11
1.0
 21
1.0
280
1
281
0
  0
IMAGEDEF
  5
A6
100
AcDbRasterImageDef
 90
0
  1
../../common/clipart/Screw.png
 10
3.0
 20
9.0
 11
1.0
 21
1.0
280
1
281
0
  0
IMAGEDEF
  5
A8
100
AcDbRasterImageDef
 90
0
  1
../../common/clipart/Screw.png
 10
3.0
 20
9.0
 11
1.0
 21
1.0
280
1
281
0
  0
IMAGEDEF
  5
AA
100
AcDbRasterImageDef
 90
0
  1
../../common/clipart/Screw.png
 10
3.0
 20
9.0
 11
1.0
 21
1.0
280
1
281
0
  0
IMAGEDEF
  5
AC
100
AcDbRasterImageDef
 90
0
  1
../../common/clipart/Screw.png
 10
3.0
 20
9.0
 11
1.0
 21
1.0
280
1
281
0
  0
IMAGEDEF
  5
AE
100
AcDbRasterImageDef
 90
0
  1
../../common/clipart/Screw.png
 10
3.0
 20
9.0
 11
1.0
 21
1.0
280
1
281
0
  0
IMAGEDEF
  5
B0
100
AcDbRasterImageDef
 90
0
  1
../../common/clipart/Screw.png
 10
3.0
 20
9.0
 11
1.0
 21
1.0
280
1
281
0
  0
IMAGEDEF
  5
B2
100
AcDbRasterImageDef
 90
0
  1
../../common/clipart/Screw.png
 10
3.0
 20
9.0
 11
1.0
 21
1.0
280
1
281
0
  0
IMAGEDEF
  5
B4
100
AcDbRasterImageDef
 90
0
  1
../../common/clipart/Screw.png
 10
3.0
 20
9.0
 11
1.0
 21
1.0
280
1
281
0
  0
IMAGEDEF
  5
B6
100
AcDbRasterImageDef
 90
0
  1
../../common/clipart/Screw.png
 10
3.0
 20
9.0
 11
1.0
 21
1.0
280
1
281
0
  0
IMAGEDEF
  5
B8
100
AcDbRasterImageDef
 90
0
  1
../../common/clipart/Screw.png
 10
3.0
 20
9.0
 11
1.0
 21
1.0
280
1
281
0
  0
IMAGEDEF
  5
BA
100
AcDbRasterImageDef
 90
0
  1
../../common/clipart/Screw.png
 10
3.0
 20
9.0
 11
1.0
 21
1.0
280
1
281
0
  0
IMAGEDEF
  5
BC
100
AcDbRasterImageDef
 90
0
  1
../../common/clipart/Screw.png
 10
3.0
 20
9.0
 11
1.0
 21
1.0
280
1
281
0
  0
IMAGEDEF
  5
BE
100
AcDbRasterImageDef
 90
0
  1
../../common/clipart/Screw.png
 10
3.0
 20
9.0
 11
1.0
 21
1.0
280
1
281
0
  0
IMAGEDEF
  5
C0
100
AcDbRasterImageDef
 90
0
  1
../../common/clipart/Screw.png
 10
3.0
 20
9.0
 11
1.0
 21
1.0
280
1
281
0
  0
IMAGEDEF
  5
C2
100
AcDbRasterImageDef
 90
0
  1
../../common/clipart/Screw.png
 10
3.0
 20
9.0
 11
1.0
 21
1.0
280
1
281
0
  0
IMAGEDEF
  5
C4
100
AcDbRasterImageDef
 90
0
  1
../../common/clipart/Screw.png
 10
3.0
 20
9.0
 11
1.0
 21
1.0
280
1
281
0
  0
IMAGEDEF
  5
C6
100
AcDbRasterImageDef
 90
0
  1
../../common/clipart/Screw.png
 10
3.0
 20
9.0
 11
1.0
 21
1.0
280
1
281
0
  0
ENDSEC
  0
EOF
