999
dxflib 3.26.4.0
  0
SECTION
  2
HEADER
  9
$ACADVER
  1
AC1015
  9
$HANDSEED
  5
FFFF
  9
$DIMADEC
 70
0
  9
$DIMASZ
 40
1.5
  9
$DIMATFIT
 70
0
  9
$DIMAUNIT
 70
0
  9
$DIMAZIN
 70
2
  9
$DIMBLK
  1
0
  9
$DIMBLK1
  1
0
  9
$DIMBLK2
  1
0
  9
$DIMDEC
 70
4
  9
$DIMDLI
 40
5.0
  9
$DIMDSEP
 70
46
  9
$DIMEXE
 40
1.25
  9
$DIMEXO
 40
0.625
  9
$DIMGAP
 40
0.625
  9
$DIMLFAC
 40
0.0
  9
$DIMLUNIT
 70
2
  9
$DIMSCALE
 40
1.0
  9
$DIMTAD
 70
1
  9
$DIMTIH
 70
0
  9
$DIMTSZ
 40
0.0
  9
$DIMTXT
 40
2.5
  9
$DIMZIN
 70
8
  9
$DWGCODEPAGE
  3
ANSI_1252
  9
$INSUNITS
 70
1
  9
$LTSCALE
 40
1.0
  9
$MAXACTVP
 70
64
  9
$MEASUREMENT
 70
1
  9
$MIRRTEXT
 70
0
  9
$PDMODE
 70
0
  9
$PDSIZE
 40
0.0
  0
ENDSEC
  0
SECTION
  2
TABLES
  0
TABLE
  2
VPORT
  5
8
100
AcDbSymbolTable
 70
1
  0
VPORT
  5
30
100
AcDbSymbolTableRecord
100
AcDbViewportTableRecord
  2
*Active
 70
0
 10
0.0
 20
0.0
 11
1.0
 21
1.0
 12
286.3055555555554861
 22
148.5
 13
0.0
 23
0.0
 14
10.0
 24
10.0
 15
10.0
 25
10.0
 16
0.0
 26
0.0
 36
1.0
 17
0.0
 27
0.0
 37
0.0
 40
297.0
 41
1.92798353909465
 42
50.0
 43
0.0
 44
0.0
 50
0.0
 51
0.0
 71
0
 72
100
 73
1
 74
3
 75
1
 76
1
 77
0
 78
0
281
0
 65
1
110
0.0
120
0.0
130
0.0
111
1.0
121
0.0
131
0.0
112
0.0
122
1.0
132
0.0
 79
0
146
0.0
  0
ENDTAB
  0
TABLE
  2
LTYPE
  5
5
100
AcDbSymbolTable
 70
41
  0
LTYPE
  5
16
100
AcDbSymbolTableRecord
100
AcDbLinetypeTableRecord
  2
Continuous
 70
0
  3
Solid line
 72
65
 73
0
 40
0.0
  0
LTYPE
  5
31
100
AcDbSymbolTableRecord
100
AcDbLinetypeTableRecord
  2
ACAD_ISO05W100
 70
0
  3
ISO long-dash double-dot ____ .. ____ .. ____ . 
 72
65
 73
6
 40
33.0000000000000071
 49
24.0
 74
0
 49
-2.9500000000000002
 74
0
 49
0.1
 74
0
 49
-2.9000000000000004
 74
0
 49
0.1
 74
0
 49
-2.9500000000000002
 74
0
  0
LTYPE
  5
32
100
AcDbSymbolTableRecord
100
AcDbLinetypeTableRecord
  2
ACAD_ISO06W100
 70
0
  3
ISO long-dash triple-dot ____ ... ____ ... ____
 72
65
 73
8
 40
36.0000000000000071
 49
24.0
 74
0
 49
-2.9500000000000002
 74
0
 49
0.1
 74
0
 49
-2.9000000000000004
 74
0
 49
0.1
 74
0
 49
-2.9000000000000004
 74
0
 49
0.1
 74
0
 49
-2.9500000000000002
 74
0
  0
LTYPE
  5
33
100
AcDbSymbolTableRecord
100
AcDbLinetypeTableRecord
  2
CENTERX2
 70
0
  3
Center (2x) ________  __  ________  __  _____
 72
65
 73
4
 40
4.0
 49
2.5
 74
0
 49
-0.5
 74
0
 49
0.5
 74
0
 49
-0.5
 74
0
  0
LTYPE
  5
34
100
AcDbSymbolTableRecord
100
AcDbLinetypeTableRecord
  2
DOTX2
 70
0
  3
Dot (2x) .  .  .  .  .  .  .  .  .  .  .  .  .  .
 72
65
 73
2
 40
0.5
 49
0.1
 74
0
 49
-0.4
 74
0
  0
LTYPE
  5
35
100
AcDbSymbolTableRecord
100
AcDbLinetypeTableRecord
  2
ACAD_ISO07W100
 70
0
  3
ISO dot . . . . . . . . . . . . . . . . . . . . 
 72
65
 73
2
 40
3.0
 49
0.1
 74
0
 49
-2.8999999999999999
 74
0
  0
LTYPE
  5
36
100
AcDbSymbolTableRecord
100
AcDbLinetypeTableRecord
  2
ACAD_ISO15W100
 70
0
  3
ISO double-dash triple-dot __ __ . . . __ __ . .
 72
65
 73
10
 40
39.0000000000000071
 49
12.0
 74
0
 49
-3.0
 74
0
 49
12.0
 74
0
 49
-2.9500000000000002
 74
0
 49
0.1
 74
0
 49
-2.9000000000000004
 74
0
 49
0.1
 74
0
 49
-2.9000000000000004
 74
0
 49
0.1
 74
0
 49
-2.9500000000000002
 74
0
  0
LTYPE
  5
37
100
AcDbSymbolTableRecord
100
AcDbLinetypeTableRecord
  2
DIVIDE2
 70
0
  3
Divide (.5x) __..__..__..__..__..__..__..__.._
 72
65
 73
6
 40
0.625
 49
0.25
 74
0
 49
-0.075
 74
0
 49
0.1
 74
0
 49
-0.025
 74
0
 49
0.1
 74
0
 49
-0.075
 74
0
  0
LTYPE
  5
38
100
AcDbSymbolTableRecord
100
AcDbLinetypeTableRecord
  2
ACAD_ISO10W100
 70
0
  3
ISO dash dot __ . __ . __ . __ . __ . __ . __ . 
 72
65
 73
4
 40
18.0
 49
12.0
 74
0
 49
-2.9500000000000002
 74
0
 49
0.1
 74
0
 49
-2.9500000000000002
 74
0
  0
LTYPE
  5
39
100
AcDbSymbolTableRecord
100
AcDbLinetypeTableRecord
  2
HIDDEN2
 70
0
  3
Hidden (.5x) _ _ _ _ _ _ _ _ _ _ _ _ _ _ _ _ _ 
 72
65
 73
2
 40
0.1875
 49
0.125
 74
0
 49
-0.0625
 74
0
  0
LTYPE
  5
3A
100
AcDbSymbolTableRecord
100
AcDbLinetypeTableRecord
  2
ACAD_ISO09W100
 70
0
  3
ISO long-dash double-short-dash ____ __ __ ____
 72
65
 73
6
 40
45.0
 49
24.0
 74
0
 49
-3.0
 74
0
 49
6.0
 74
0
 49
-3.0
 74
0
 49
6.0
 74
0
 49
-3.0
 74
0
  0
LTYPE
  5
3B
100
AcDbSymbolTableRecord
100
AcDbLinetypeTableRecord
  2
ACAD_ISO14W100
 70
0
  3
ISO dash triple-dot __ . . . __ . . . __ . . . _
 72
65
 73
8
 40
24.0000000000000036
 49
12.0
 74
0
 49
-2.9500000000000002
 74
0
 49
0.1
 74
0
 49
-2.9000000000000004
 74
0
 49
0.1
 74
0
 49
-2.9000000000000004
 74
0
 49
0.1
 74
0
 49
-2.9500000000000002
 74
0
  0
LTYPE
  5
3C
100
AcDbSymbolTableRecord
100
AcDbLinetypeTableRecord
  2
DIVIDEX2
 70
0
  3
Divide (2x) ________  .  .  ________  .  .  _
 72
65
 73
6
 40
2.5000000000000004
 49
1.0
 74
0
 49
-0.45
 74
0
 49
0.1
 74
0
 49
-0.4
 74
0
 49
0.1
 74
0
 49
-0.45
 74
0
  0
LTYPE
  5
14
100
AcDbSymbolTableRecord
100
AcDbLinetypeTableRecord
  2
BYBLOCK
 70
0
  3

 72
65
 73
0
 40
0.0
  0
LTYPE
  5
3D
100
AcDbSymbolTableRecord
100
AcDbLinetypeTableRecord
  2
BORDERX2
 70
0
  3
Border (2x) ____  ____  .  ____  ____  .  ___
 72
65
 73
6
 40
3.5000000000000004
 49
1.0
 74
0
 49
-0.5
 74
0
 49
1.0
 74
0
 49
-0.45
 74
0
 49
0.1
 74
0
 49
-0.45
 74
0
  0
LTYPE
  5
3E
100
AcDbSymbolTableRecord
100
AcDbLinetypeTableRecord
  2
DASHDOTX2
 70
0
  3
Dash dot (2x) ____  .  ____  .  ____  .  ___
 72
65
 73
4
 40
2.0
 49
1.0
 74
0
 49
-0.45
 74
0
 49
0.1
 74
0
 49
-0.45
 74
0
  0
LTYPE
  5
3F
100
AcDbSymbolTableRecord
100
AcDbLinetypeTableRecord
  2
PHANTOM
 70
0
  3
Phantom ______  __  __  ______  __  __  ______ 
 72
65
 73
6
 40
2.5
 49
1.25
 74
0
 49
-0.25
 74
0
 49
0.25
 74
0
 49
-0.25
 74
0
 49
0.25
 74
0
 49
-0.25
 74
0
  0
LTYPE
  5
40
100
AcDbSymbolTableRecord
100
AcDbLinetypeTableRecord
  2
ACAD_ISO03W100
 70
0
  3
ISO dash space __    __    __    __    __    __
 72
65
 73
2
 40
30.0
 49
12.0
 74
0
 49
-18.0
 74
0
  0
LTYPE
  5
41
100
AcDbSymbolTableRecord
100
AcDbLinetypeTableRecord
  2
DASHDOT2
 70
0
  3
Dash dot (.5x) _._._._._._._._._._._._._._._.
 72
65
 73
4
 40
0.5
 49
0.25
 74
0
 49
-0.075
 74
0
 49
0.1
 74
0
 49
-0.075
 74
0
  0
LTYPE
  5
42
100
AcDbSymbolTableRecord
100
AcDbLinetypeTableRecord
  2
HIDDENX2
 70
0
  3
Hidden (2x) ____ ____ ____ ____ ____ ____ ____ 
 72
65
 73
2
 40
0.75
 49
0.5
 74
0
 49
-0.25
 74
0
  0
LTYPE
  5
43
100
AcDbSymbolTableRecord
100
AcDbLinetypeTableRecord
  2
ACAD_ISO02W100
 70
0
  3
ISO dash __ __ __ __ __ __ __ __ __ __ __ __ __
 72
65
 73
2
 40
15.0
 49
12.0
 74
0
 49
-3.0
 74
0
  0
LTYPE
  5
44
100
AcDbSymbolTableRecord
100
AcDbLinetypeTableRecord
  2
PHANTOMX2
 70
0
  3
Phantom (2x) ____________    ____    ____   _
 72
65
 73
6
 40
5.0
 49
2.5
 74
0
 49
-0.5
 74
0
 49
0.5
 74
0
 49
-0.5
 74
0
 49
0.5
 74
0
 49
-0.5
 74
0
  0
LTYPE
  5
45
100
AcDbSymbolTableRecord
100
AcDbLinetypeTableRecord
  2
ACAD_ISO13W100
 70
0
  3
ISO double-dash double-dot __ __ . . __ __ . . _
 72
65
 73
8
 40
36.0000000000000071
 49
12.0
 74
0
 49
-3.0
 74
0
 49
12.0
 74
0
 49
-2.9500000000000002
 74
0
 49
0.1
 74
0
 49
-2.9000000000000004
 74
0
 49
0.1
 74
0
 49
-2.9500000000000002
 74
0
  0
LTYPE
  5
46
100
AcDbSymbolTableRecord
100
AcDbLinetypeTableRecord
  2
ACAD_ISO12W100
 70
0
  3
ISO dash double-dot __ . . __ . . __ . . __ . . 
 72
65
 73
6
 40
21.0
 49
12.0
 74
0
 49
-2.9500000000000002
 74
0
 49
0.1
 74
0
 49
-2.9000000000000004
 74
0
 49
0.1
 74
0
 49
-2.9500000000000002
 74
0
  0
LTYPE
  5
47
100
AcDbSymbolTableRecord
100
AcDbLinetypeTableRecord
  2
DOT
 70
0
  3
Dot . . . . . . . . . . . . . . . . . . . . . . . .
 72
65
 73
2
 40
0.25
 49
0.1
 74
0
 49
-0.15
 74
0
  0
LTYPE
  5
15
100
AcDbSymbolTableRecord
100
AcDbLinetypeTableRecord
  2
BYLAYER
 70
0
  3

 72
65
 73
0
 40
0.0
  0
LTYPE
  5
48
100
AcDbSymbolTableRecord
100
AcDbLinetypeTableRecord
  2
HIDDEN
 70
0
  3
Hidden __ __ __ __ __ __ __ __ __ __ __ __ __ __
 72
65
 73
2
 40
0.375
 49
0.25
 74
0
 49
-0.125
 74
0
  0
LTYPE
  5
49
100
AcDbSymbolTableRecord
100
AcDbLinetypeTableRecord
  2
ACAD_ISO04W100
 70
0
  3
ISO long-dash dot ____ . ____ . ____ . ____ . _
 72
65
 73
4
 40
30.0
 49
24.0
 74
0
 49
-2.9500000000000002
 74
0
 49
0.1
 74
0
 49
-2.9500000000000002
 74
0
  0
LTYPE
  5
4A
100
AcDbSymbolTableRecord
100
AcDbLinetypeTableRecord
  2
DOT2
 70
0
  3
Dot (.5x) ........................................
 72
65
 73
2
 40
0.125
 49
0.1
 74
0
 49
-0.025
 74
0
  0
LTYPE
  5
4B
100
AcDbSymbolTableRecord
100
AcDbLinetypeTableRecord
  2
ACAD_ISO08W100
 70
0
  3
ISO long-dash short-dash ____ __ ____ __ ____ _
 72
65
 73
4
 40
36.0
 49
24.0
 74
0
 49
-3.0
 74
0
 49
6.0
 74
0
 49
-3.0
 74
0
  0
LTYPE
  5
4C
100
AcDbSymbolTableRecord
100
AcDbLinetypeTableRecord
  2
DIVIDE
 70
0
  3
Divide ____ . . ____ . . ____ . . ____ . . ____
 72
65
 73
6
 40
1.25
 49
0.5
 74
0
 49
-0.2
 74
0
 49
0.1
 74
0
 49
-0.15
 74
0
 49
0.1
 74
0
 49
-0.2
 74
0
  0
LTYPE
  5
4D
100
AcDbSymbolTableRecord
100
AcDbLinetypeTableRecord
  2
DASHEDX2
 70
0
  3
Dashed (2x) ____  ____  ____  ____  ____  ___
 72
65
 73
2
 40
1.5
 49
1.0
 74
0
 49
-0.5
 74
0
  0
LTYPE
  5
4E
100
AcDbSymbolTableRecord
100
AcDbLinetypeTableRecord
  2
CENTER2
 70
0
  3
Center (.5x) ___ _ ___ _ ___ _ ___ _ ___ _ ___
 72
65
 73
4
 40
1.125
 49
0.75
 74
0
 49
-0.125
 74
0
 49
0.125
 74
0
 49
-0.125
 74
0
  0
LTYPE
  5
4F
100
AcDbSymbolTableRecord
100
AcDbLinetypeTableRecord
  2
BORDER
 70
0
  3
Border __ __ . __ __ . __ __ . __ __ . __ __ .
 72
65
 73
6
 40
1.75
 49
0.5
 74
0
 49
-0.25
 74
0
 49
0.5
 74
0
 49
-0.2
 74
0
 49
0.1
 74
0
 49
-0.2
 74
0
  0
LTYPE
  5
50
100
AcDbSymbolTableRecord
100
AcDbLinetypeTableRecord
  2
DASHED
 70
0
  3
Dashed __ __ __ __ __ __ __ __ __ __ __ __ __ _
 72
65
 73
2
 40
0.75
 49
0.5
 74
0
 49
-0.25
 74
0
  0
LTYPE
  5
51
100
AcDbSymbolTableRecord
100
AcDbLinetypeTableRecord
  2
ACAD_ISO11W100
 70
0
  3
ISO double-dash dot __ __ . __ __ . __ __ . __ _
 72
65
 73
6
 40
33.0
 49
12.0
 74
0
 49
-3.0
 74
0
 49
12.0
 74
0
 49
-2.9500000000000002
 74
0
 49
0.1
 74
0
 49
-2.9500000000000002
 74
0
  0
LTYPE
  5
52
100
AcDbSymbolTableRecord
100
AcDbLinetypeTableRecord
  2
PHANTOM2
 70
0
  3
Phantom (.5x) ___ _ _ ___ _ _ ___ _ _ ___ _ _
 72
65
 73
6
 40
1.25
 49
0.625
 74
0
 49
-0.125
 74
0
 49
0.125
 74
0
 49
-0.125
 74
0
 49
0.125
 74
0
 49
-0.125
 74
0
  0
LTYPE
  5
53
100
AcDbSymbolTableRecord
100
AcDbLinetypeTableRecord
  2
BORDER2
 70
0
  3
Border (.5x) __.__.__.__.__.__.__.__.__.__.__.
 72
65
 73
6
 40
0.8749999999999999
 49
0.25
 74
0
 49
-0.125
 74
0
 49
0.25
 74
0
 49
-0.075
 74
0
 49
0.1
 74
0
 49
-0.075
 74
0
  0
LTYPE
  5
54
100
AcDbSymbolTableRecord
100
AcDbLinetypeTableRecord
  2
DASHDOT
 70
0
  3
Dash dot __ . __ . __ . __ . __ . __ . __ . __
 72
65
 73
4
 40
1.0
 49
0.5
 74
0
 49
-0.2
 74
0
 49
0.1
 74
0
 49
-0.2
 74
0
  0
LTYPE
  5
55
100
AcDbSymbolTableRecord
100
AcDbLinetypeTableRecord
  2
DASHED2
 70
0
  3
Dashed (.5x) _ _ _ _ _ _ _ _ _ _ _ _ _ _ _ _ _ 
 72
65
 73
2
 40
0.375
 49
0.25
 74
0
 49
-0.125
 74
0
  0
LTYPE
  5
56
100
AcDbSymbolTableRecord
100
AcDbLinetypeTableRecord
  2
CENTER
 70
0
  3
Center ____ _ ____ _ ____ _ ____ _ ____ _ ____
 72
65
 73
4
 40
2.0
 49
1.25
 74
0
 49
-0.25
 74
0
 49
0.25
 74
0
 49
-0.25
 74
0
  0
ENDTAB
  0
TABLE
  2
LAYER
  5
2
100
AcDbSymbolTable
 70
5
  0
LAYER
  5
57
100
AcDbSymbolTableRecord
100
AcDbLayerTableRecord
  2
01_Side_Panels
 70
1
 62
7
420
0
  6
Continuous
370
25
390
F
  0
LAYER
  5
58
100
AcDbSymbolTableRecord
100
AcDbLayerTableRecord
  2
02_Rear_Panels
 70
1
 62
7
420
0
  6
Continuous
370
25
390
F
  0
LAYER
  5
59
100
AcDbSymbolTableRecord
100
AcDbLayerTableRecord
  2
03_Front_Panels
 70
0
 62
7
420
0
  6
Continuous
370
25
390
F
  0
LAYER
  5
5A
100
AcDbSymbolTableRecord
100
AcDbLayerTableRecord
  2
04_Triangle_Panels
 70
1
 62
7
420
0
  6
Continuous
370
25
390
F
  0
LAYER
  5
10
100
AcDbSymbolTableRecord
100
AcDbLayerTableRecord
  2
0
 70
1
 62
7
420
16777215
  6
Continuous
370
25
390
F
  0
ENDTAB
  0
TABLE
  2
STYLE
  5
3
100
AcDbSymbolTable
 70
33
  0
STYLE
  5
5B
100
AcDbSymbolTableRecord
100
AcDbTextStyleTableRecord
  2
Standard
 70
0
 40
0.0
 41
1.0
 50
0.0
 71
0
 42
2.5
  3

  4

1001
ACAD
1000
txt
1071
0
  0
STYLE
  5
5C
100
AcDbSymbolTableRecord
100
AcDbTextStyleTableRecord
  2
textstyle0
 70
0
 40
0.0
 41
1.0
 50
0.0
 71
0
 42
0.11811023625
  3

  4

1001
ACAD
1000
Liberation Sans
1071
0
  0
STYLE
  5
5D
100
AcDbSymbolTableRecord
100
AcDbTextStyleTableRecord
  2
textstyle1
 70
0
 40
0.0
 41
1.0
 50
0.0
 71
0
 42
0.11811023625
  3

  4

1001
ACAD
1000
Liberation Sans
1071
0
  0
STYLE
  5
5E
100
AcDbSymbolTableRecord
100
AcDbTextStyleTableRecord
  2
textstyle2
 70
0
 40
0.0
 41
1.0
 50
0.0
 71
0
 42
3.0
  3

  4

1001
ACAD
1000
Liberation Sans
1071
0
  0
STYLE
  5
5F
100
AcDbSymbolTableRecord
100
AcDbTextStyleTableRecord
  2
textstyle3
 70
0
 40
0.0
 41
1.0
 50
0.0
 71
0
 42
3.0
  3

  4

1001
ACAD
1000
Liberation Sans
1071
0
  0
STYLE
  5
60
100
AcDbSymbolTableRecord
100
AcDbTextStyleTableRecord
  2
textstyle4
 70
0
 40
0.0
 41
1.0
 50
0.0
 71
0
 42
3.0
  3

  4

1001
ACAD
1000
Liberation Sans
1071
0
  0
STYLE
  5
61
100
AcDbSymbolTableRecord
100
AcDbTextStyleTableRecord
  2
textstyle5
 70
0
 40
0.0
 41
1.0
 50
0.0
 71
0
 42
3.0
  3

  4

1001
ACAD
1000
Liberation Sans
1071
0
  0
STYLE
  5
62
100
AcDbSymbolTableRecord
100
AcDbTextStyleTableRecord
  2
textstyle6
 70
0
 40
0.0
 41
1.0
 50
0.0
 71
0
 42
3.0
  3

  4

1001
ACAD
1000
Liberation Sans
1071
0
  0
STYLE
  5
63
100
AcDbSymbolTableRecord
100
AcDbTextStyleTableRecord
  2
textstyle7
 70
0
 40
0.0
 41
1.0
 50
0.0
 71
0
 42
3.0
  3

  4

1001
ACAD
1000
Liberation Sans
1071
0
  0
STYLE
  5
64
100
AcDbSymbolTableRecord
100
AcDbTextStyleTableRecord
  2
textstyle8
 70
0
 40
0.0
 41
1.0
 50
0.0
 71
0
 42
3.0
  3

  4

1001
ACAD
1000
Liberation Sans
1071
0
  0
STYLE
  5
65
100
AcDbSymbolTableRecord
100
AcDbTextStyleTableRecord
  2
textstyle9
 70
0
 40
0.0
 41
1.0
 50
0.0
 71
0
 42
3.0
  3

  4

1001
ACAD
1000
Liberation Sans
1071
0
  0
STYLE
  5
66
100
AcDbSymbolTableRecord
100
AcDbTextStyleTableRecord
  2
textstyle10
 70
0
 40
0.0
 41
1.0
 50
0.0
 71
0
 42
3.0
  3

  4

1001
ACAD
1000
Liberation Sans
1071
0
  0
STYLE
  5
67
100
AcDbSymbolTableRecord
100
AcDbTextStyleTableRecord
  2
textstyle11
 70
0
 40
0.0
 41
1.0
 50
0.0
 71
0
 42
3.0
  3

  4

1001
ACAD
1000
Liberation Sans
1071
0
  0
STYLE
  5
68
100
AcDbSymbolTableRecord
100
AcDbTextStyleTableRecord
  2
textstyle12
 70
0
 40
0.0
 41
1.0
 50
0.0
 71
0
 42
3.0
  3

  4

1001
ACAD
1000
Liberation Sans
1071
0
  0
STYLE
  5
69
100
AcDbSymbolTableRecord
100
AcDbTextStyleTableRecord
  2
textstyle13
 70
0
 40
0.0
 41
1.0
 50
0.0
 71
0
 42
3.0
  3

  4

1001
ACAD
1000
Liberation Sans
1071
0
  0
STYLE
  5
6A
100
AcDbSymbolTableRecord
100
AcDbTextStyleTableRecord
  2
textstyle14
 70
0
 40
0.0
 41
1.0
 50
0.0
 71
0
 42
3.0
  3

  4

1001
ACAD
1000
Liberation Sans
1071
0
  0
STYLE
  5
6B
100
AcDbSymbolTableRecord
100
AcDbTextStyleTableRecord
  2
textstyle15
 70
0
 40
0.0
 41
1.0
 50
0.0
 71
0
 42
3.0
  3

  4

1001
ACAD
1000
Liberation Sans
1071
0
  0
STYLE
  5
6C
100
AcDbSymbolTableRecord
100
AcDbTextStyleTableRecord
  2
textstyle16
 70
0
 40
0.0
 41
1.0
 50
0.0
 71
0
 42
3.0
  3

  4

1001
ACAD
1000
Liberation Sans
1071
0
  0
STYLE
  5
6D
100
AcDbSymbolTableRecord
100
AcDbTextStyleTableRecord
  2
textstyle17
 70
0
 40
0.0
 41
1.0
 50
0.0
 71
0
 42
3.0
  3

  4

1001
ACAD
1000
Liberation Sans
1071
0
  0
STYLE
  5
6E
100
AcDbSymbolTableRecord
100
AcDbTextStyleTableRecord
  2
textstyle18
 70
0
 40
0.0
 41
1.0
 50
0.0
 71
0
 42
3.0
  3

  4

1001
ACAD
1000
Liberation Sans
1071
0
  0
STYLE
  5
6F
100
AcDbSymbolTableRecord
100
AcDbTextStyleTableRecord
  2
textstyle19
 70
0
 40
0.0
 41
1.0
 50
0.0
 71
0
 42
3.0
  3

  4

1001
ACAD
1000
Liberation Sans
1071
0
  0
STYLE
  5
70
100
AcDbSymbolTableRecord
100
AcDbTextStyleTableRecord
  2
textstyle20
 70
0
 40
0.0
 41
1.0
 50
0.0
 71
0
 42
3.0
  3

  4

1001
ACAD
1000
Liberation Sans
1071
0
  0
STYLE
  5
71
100
AcDbSymbolTableRecord
100
AcDbTextStyleTableRecord
  2
textstyle21
 70
0
 40
0.0
 41
1.0
 50
0.0
 71
0
 42
3.0
  3

  4

1001
ACAD
1000
Liberation Sans
1071
0
  0
STYLE
  5
72
100
AcDbSymbolTableRecord
100
AcDbTextStyleTableRecord
  2
textstyle22
 70
0
 40
0.0
 41
1.0
 50
0.0
 71
0
 42
0.11811023625
  3

  4

1001
ACAD
1000
Liberation Sans
1071
0
  0
STYLE
  5
73
100
AcDbSymbolTableRecord
100
AcDbTextStyleTableRecord
  2
textstyle23
 70
0
 40
0.0
 41
1.0
 50
0.0
 71
0
 42
0.11811023625
  3

  4

1001
ACAD
1000
Liberation Sans
1071
0
  0
STYLE
  5
74
100
AcDbSymbolTableRecord
100
AcDbTextStyleTableRecord
  2
textstyle24
 70
0
 40
0.0
 41
1.0
 50
0.0
 71
0
 42
3.0
  3

  4

1001
ACAD
1000
Liberation Sans
1071
0
  0
STYLE
  5
75
100
AcDbSymbolTableRecord
100
AcDbTextStyleTableRecord
  2
textstyle25
 70
0
 40
0.0
 41
1.0
 50
0.0
 71
0
 42
3.0
  3

  4

1001
ACAD
1000
Liberation Sans
1071
0
  0
STYLE
  5
76
100
AcDbSymbolTableRecord
100
AcDbTextStyleTableRecord
  2
textstyle26
 70
0
 40
0.0
 41
1.0
 50
0.0
 71
0
 42
3.0
  3

  4

1001
ACAD
1000
Liberation Sans
1071
0
  0
STYLE
  5
77
100
AcDbSymbolTableRecord
100
AcDbTextStyleTableRecord
  2
textstyle27
 70
0
 40
0.0
 41
1.0
 50
0.0
 71
0
 42
3.0
  3

  4

1001
ACAD
1000
Liberation Sans
1071
0
  0
STYLE
  5
78
100
AcDbSymbolTableRecord
100
AcDbTextStyleTableRecord
  2
textstyle28
 70
0
 40
0.0
 41
1.0
 50
0.0
 71
0
 42
3.0
  3

  4

1001
ACAD
1000
Liberation Sans
1071
0
  0
STYLE
  5
79
100
AcDbSymbolTableRecord
100
AcDbTextStyleTableRecord
  2
textstyle29
 70
0
 40
0.0
 41
1.0
 50
0.0
 71
0
 42
3.0
  3

  4

1001
ACAD
1000
Liberation Sans
1071
0
  0
STYLE
  5
7A
100
AcDbSymbolTableRecord
100
AcDbTextStyleTableRecord
  2
textstyle30
 70
0
 40
0.0
 41
1.0
 50
0.0
 71
0
 42
3.0
  3

  4

1001
ACAD
1000
Liberation Sans
1071
0
  0
STYLE
  5
7B
100
AcDbSymbolTableRecord
100
AcDbTextStyleTableRecord
  2
textstyle31
 70
0
 40
0.0
 41
1.0
 50
0.0
 71
0
 42
3.0
  3

  4

1001
ACAD
1000
Liberation Sans
1071
0
  0
ENDTAB
  0
TABLE
  2
VIEW
  5
6
100
AcDbSymbolTable
 70
0
  0
ENDTAB
  0
TABLE
  2
UCS
  5
7
100
AcDbSymbolTable
 70
0
  0
ENDTAB
  0
TABLE
  2
APPID
  5
9
100
AcDbSymbolTable
 70
1
  0
APPID
  5
12
100
AcDbSymbolTableRecord
100
AcDbRegAppTableRecord
  2
ACAD
 70
0
  0
APPID
  5
7C
100
AcDbSymbolTableRecord
100
AcDbRegAppTableRecord
  2
QCAD
 70
0
  0
ENDTAB
  0
TABLE
  2
DIMSTYLE
  5
A
100
AcDbSymbolTable
 70
1
100
AcDbDimStyleTable
 71
0
  0
DIMSTYLE
105
27
100
AcDbSymbolTableRecord
100
AcDbDimStyleTableRecord
  2
Standard
 41
1.5
 42
0.625
 43
3.75
 44
1.25
 70
0
 73
0
 74
0
 77
1
 78
8
140
2.5
141
2.5
143
0.03937007874016
147
0.625
171
3
172
1
271
2
272
2
274
3
278
44
283
0
284
8
340
5B
  0
ENDTAB
  0
TABLE
  2
BLOCK_RECORD
  5
1
100
AcDbSymbolTable
 70
1
  0
BLOCK_RECORD
  5
1F
100
AcDbSymbolTableRecord
100
AcDbBlockTableRecord
  2
*Model_Space
340
22
  0
BLOCK_RECORD
  5
1B
100
AcDbSymbolTableRecord
100
AcDbBlockTableRecord
  2
*Paper_Space
340
1E
  0
BLOCK_RECORD
  5
23
100
AcDbSymbolTableRecord
100
AcDbBlockTableRecord
  2
*Paper_Space0
340
26
  0
BLOCK_RECORD
  5
7D
100
AcDbSymbolTableRecord
100
AcDbBlockTableRecord
  2
noNail
340
0
  0
ENDTAB
  0
ENDSEC
  0
SECTION
  2
BLOCKS
  0
BLOCK
  5
20
100
AcDbEntity
  8
0
100
AcDbBlockBegin
  2
*Model_Space
 70
0
 10
0.0
 20
0.0
 30
0.0
  3
*Model_Space
  1

  0
ENDBLK
  5
21
100
AcDbEntity
  8
0
100
AcDbBlockEnd
  0
BLOCK
  5
1C
100
AcDbEntity
 67
1
  8
0
100
AcDbBlockBegin
  2
*Paper_Space
 70
0
 10
0.0
 20
0.0
 30
0.0
  3
*Paper_Space
  1

  0
ENDBLK
  5
1D
100
AcDbEntity
 67
1
  8
0
100
AcDbBlockEnd
  0
BLOCK
  5
24
100
AcDbEntity
  8
0
100
AcDbBlockBegin
  2
*Paper_Space0
 70
0
 10
0.0
 20
0.0
 30
0.0
  3
*Paper_Space0
  1

  0
ENDBLK
  5
25
100
AcDbEntity
  8
0
100
AcDbBlockEnd
  0
BLOCK
  5
7E
100
AcDbEntity
  8
0
100
AcDbBlockBegin
  2
noNail
 70
0
 10
0.0
 20
0.0
 30
0.0
  3
noNail
  1

  0
ENDBLK
  5
7F
100
AcDbEntity
  8
0
100
AcDbBlockEnd
  0
ENDSEC
  0
SECTION
  2
ENTITIES
  0
HATCH
  5
80
100
AcDbEntity
  8
03_Front_Panels
 62
252
420
10526884
370
-1
 48
1.0
  6
BYLAYER
100
AcDbHatch
 10
0.0
 20
0.0
 30
0.0
210
0.0
220
0.0
230
1.0
  2
SOLID
 70
1
 71
0
 91
1
 92
1
 93
4
 72
1
 10
135.4957083734509808
 20
-116.7166540680197926
 11
135.4957083734509808
 21
-68.7166540680197926
 72
1
 10
135.4957083734509808
 20
-68.7166540680197926
 11
47.4957083734509951
 21
-68.7166540680197926
 72
1
 10
47.4957083734509951
 20
-68.7166540680197926
 11
47.4957083734509951
 21
-116.7166540680197926
 72
1
 10
47.4957083734509951
 20
-116.7166540680197926
 11
135.4957083734509808
 21
-116.7166540680197926
 97
0
 75
0
 76
1
 98
0
1001
ACAD
1010
0.0
1020
0.0
1030
0
  0
HATCH
  5
81
100
AcDbEntity
  8
03_Front_Panels
 62
252
420
10526884
370
-1
 48
1.0
  6
BYLAYER
100
AcDbHatch
 10
0.0
 20
0.0
 30
0.0
210
0.0
220
0.0
230
1.0
  2
SOLID
 70
1
 71
0
 91
1
 92
1
 93
4
 72
1
 10
88.9957083734509524
 20
-154.7166540680198068
 11
88.9957083734509524
 21
-116.7166540680198068
 72
1
 10
88.9957083734509524
 20
-116.7166540680198068
 11
135.4957083734509524
 21
-116.7166540680198068
 72
1
 10
135.4957083734509524
 20
-116.7166540680198068
 11
135.4957083734509524
 21
-154.7166540680198068
 72
1
 10
135.4957083734509524
 20
-154.7166540680198068
 11
88.9957083734509524
 21
-154.7166540680198068
 97
0
 75
0
 76
1
 98
0
1001
ACAD
1010
0.0
1020
0.0
1030
0
  0
HATCH
  5
82
100
AcDbEntity
  8
02_Rear_Panels
 62
252
420
10526884
370
-1
 48
1.0
  6
BYLAYER
100
AcDbHatch
 10
0.0
 20
0.0
 30
0.0
210
0.0
220
0.0
230
1.0
  2
SOLID
 70
1
 71
0
 91
1
 92
1
 93
4
 72
1
 10
47.5
 20
-105.0
 11
135.5
 21
-105.0
 72
1
 10
135.5
 20
-105.0
 11
135.5
 21
-57.0
 72
1
 10
135.5
 20
-57.0
 11
47.5
 21
-57.0
 72
1
 10
47.5
 20
-57.0
 11
47.5
 21
-105.0
 97
0
 75
0
 76
1
 98
0
1001
ACAD
1010
0.0
1020
0.0
1030
0
  0
HATCH
  5
83
100
AcDbEntity
  8
02_Rear_Panels
 62
252
420
10526884
370
-1
 48
1.0
  6
BYLAYER
100
AcDbHatch
 10
0.0
 20
0.0
 30
0.0
210
0.0
220
0.0
230
1.0
  2
SOLID
 70
1
 71
0
 91
1
 92
1
 93
4
 72
1
 10
135.5
 20
-105.0
 11
135.5
 21
-143.0
 72
1
 10
135.5
 20
-143.0
 11
47.5
 21
-143.0
 72
1
 10
47.5
 20
-143.0
 11
47.5
 21
-105.0
 72
1
 10
47.5
 20
-105.0
 11
135.5
 21
-105.0
 97
0
 75
0
 76
1
 98
0
1001
ACAD
1010
0.0
1020
0.0
1030
0
  0
HATCH
  5
84
100
AcDbEntity
  8
01_Side_Panels
 62
9
420
12632256
370
-1
 48
1.0
  6
BYLAYER
100
AcDbHatch
 10
0.0
 20
0.0
 30
0.0
210
0.0
220
0.0
230
1.0
  2
SOLID
 70
1
 71
0
 91
1
 92
1
 93
4
 72
1
 10
115.9999999999999858
 20
-166.4999999999999432
 11
115.9999999999999858
 21
-80.4999999999999432
 72
1
 10
115.9999999999999858
 20
-80.4999999999999716
 11
160.0
 21
-80.4999999999999716
 72
1
 10
160.0
 20
-80.4999999999999716
 11
160.0
 21
-166.4999999999999716
 72
1
 10
160.0
 20
-166.4999999999999716
 11
115.9999999999999858
 21
-166.4999999999999716
 97
0
 75
0
 76
1
 98
0
1001
ACAD
1010
0.0
1020
0.0
1030
0
  0
HATCH
  5
85
100
AcDbEntity
  8
01_Side_Panels
 62
9
420
12632256
370
-1
 48
1.0
  6
BYLAYER
100
AcDbHatch
 10
0.0
 20
0.0
 30
0.0
210
0.0
220
0.0
230
1.0
  2
SOLID
 70
1
 71
0
 91
1
 92
1
 93
4
 72
1
 10
115.9999999999999858
 20
-128.4999999999999716
 11
115.9999999999999858
 21
-166.4999999999999716
 72
1
 10
115.9999999999999858
 20
-166.4999999999999716
 11
23.9999999999999858
 21
-166.4999999999999716
 72
1
 10
23.9999999999999858
 20
-166.4999999999999716
 11
23.9999999999999858
 21
-128.4999999999999716
 72
1
 10
23.9999999999999858
 20
-128.4999999999999716
 11
115.9999999999999858
 21
-128.4999999999999716
 97
0
 75
0
 76
1
 98
0
1001
ACAD
1010
0.0
1020
0.0
1030
0
  0
HATCH
  5
86
100
AcDbEntity
  8
01_Side_Panels
 62
9
420
12632256
370
-1
 48
1.0
  6
BYLAYER
100
AcDbHatch
 10
0.0
 20
0.0
 30
0.0
210
0.0
220
0.0
230
1.0
  2
SOLID
 70
1
 71
0
 91
1
 92
1
 93
4
 72
1
 10
23.9999999999999858
 20
-128.4999999999999716
 11
115.9999999999999858
 21
-128.4999999999999716
 72
1
 10
115.9999999999999858
 20
-128.4999999999999716
 11
115.9999999999999858
 21
-80.4999999999999716
 72
1
 10
115.9999999999999858
 20
-80.4999999999999716
 11
23.9999999999999858
 21
-80.4999999999999716
 72
1
 10
23.9999999999999858
 20
-80.4999999999999716
 11
23.9999999999999858
 21
-128.4999999999999716
 97
0
 75
0
 76
1
 98
0
1001
ACAD
1010
0.0
1020
0.0
1030
0
  0
LINE
  5
87
100
AcDbEntity
  8
01_Side_Panels
 62
256
370
-1
 48
1.0
  6
BYLAYER
100
AcDbLine
 10
115.9999999999999858
 20
-166.4999999999999432
 30
0.0
 11
115.9999999999999858
 21
-80.4999999999999432
 31
0.0
  0
LINE
  5
88
100
AcDbEntity
  8
01_Side_Panels
 62
256
370
-1
 48
1.0
  6
BYLAYER
100
AcDbLine
 10
0.0
 20
0.0
 30
0.0
 11
92.0
 21
0.0
 31
0.0
  0
LINE
  5
89
100
AcDbEntity
  8
01_Side_Panels
 62
256
370
-1
 48
1.0
  6
BYLAYER
100
AcDbLine
 10
23.9999999999999858
 20
-128.4999999999999716
 30
0.0
 11
115.9999999999999858
 21
-128.4999999999999716
 31
0.0
  0
LINE
  5
8A
100
AcDbEntity
  8
01_Side_Panels
 62
256
370
-1
 48
1.0
  6
BYLAYER
100
AcDbLine
 10
92.0
 20
0.0
 30
0.0
 11
92.0
 21
48.0
 31
0.0
  0
LINE
  5
8B
100
AcDbEntity
  8
01_Side_Panels
 62
256
370
-1
 48
1.0
  6
BYLAYER
100
AcDbLine
 10
115.9999999999999858
 20
-128.4999999999999716
 30
0.0
 11
115.9999999999999858
 21
-80.4999999999999716
 31
0.0
  0
LINE
  5
8C
100
AcDbEntity
  8
01_Side_Panels
 62
256
370
-1
 48
1.0
  6
BYLAYER
100
AcDbLine
 10
92.0
 20
48.0
 30
0.0
 11
0.0
 21
48.0
 31
0.0
  0
LINE
  5
8D
100
AcDbEntity
  8
01_Side_Panels
 62
256
370
-1
 48
1.0
  6
BYLAYER
100
AcDbLine
 10
115.9999999999999858
 20
-80.4999999999999716
 30
0.0
 11
23.9999999999999858
 21
-80.4999999999999716
 31
0.0
  0
LINE
  5
8E
100
AcDbEntity
  8
01_Side_Panels
 62
256
370
-1
 48
1.0
  6
BYLAYER
100
AcDbLine
 10
0.0
 20
48.0
 30
0.0
 11
0.0
 21
0.0
 31
0.0
  0
LINE
  5
8F
100
AcDbEntity
  8
01_Side_Panels
 62
256
370
-1
 48
1.0
  6
BYLAYER
100
AcDbLine
 10
23.9999999999999858
 20
-80.4999999999999716
 30
0.0
 11
23.9999999999999858
 21
-128.4999999999999716
 31
0.0
  0
IMAGE
  5
90
100
AcDbEntity
  8
01_Side_Panels
 62
256
370
-1
 48
1.0
  6
BYLAYER
100
AcDbRasterImage
 90
0
 10
90.1597719014089307
 20
0.0003190895278176
 30
0.0
 11
0.1
 21
0.1732050807568877
 31
0.0
 12
-0.1732050807568877
 22
0.1000000000000001
 32
0.0
 13
3.0
 23
9.0
340
91
 70
15
280
0
281
50
282
50
283
0
  0
IMAGE
  5
92
100
AcDbEntity
  8
02_Rear_Panels
 62
256
370
-1
 48
1.0
  6
BYLAYER
100
AcDbRasterImage
 90
0
 10
134.2149087962713168
 20
11.5895491119245371
 30
0.0
 11
0.1
 21
0.1732050807568877
 31
0.0
 12
-0.1732050807568877
 22
0.1000000000000001
 32
0.0
 13
3.0
 23
9.0
340
93
 70
15
280
0
281
50
282
50
283
0
  0
IMAGE
  5
94
100
AcDbEntity
  8
02_Rear_Panels
 62
256
370
-1
 48
1.0
  6
BYLAYER
100
AcDbRasterImage
 90
0
 10
48.5503806408494114
 20
11.5895491119245335
 30
0.0
 11
-0.1000000000000001
 21
0.1732050807568876
 31
0.0
 12
0.1732050807568878
 22
0.1
 32
0.0
 13
3.0
 23
9.0
340
95
 70
15
280
0
281
50
282
50
283
0
  0
IMAGE
  5
96
100
AcDbEntity
  8
03_Front_Panels
 62
256
370
-1
 48
1.0
  6
BYLAYER
100
AcDbRasterImage
 90
0
 10
134.2149087962713168
 20
11.5895491119246845
 30
0.0
 11
0.1
 21
0.1732050807568877
 31
0.0
 12
-0.1732050807568877
 22
0.1000000000000001
 32
0.0
 13
3.0
 23
9.0
340
97
 70
15
280
0
281
50
282
50
283
0
  0
IMAGE
  5
98
100
AcDbEntity
  8
03_Front_Panels
 62
256
370
-1
 48
1.0
  6
BYLAYER
100
AcDbRasterImage
 90
0
 10
48.5503806408494114
 20
11.5895491119245246
 30
0.0
 11
-0.1000000000000001
 21
0.1732050807568877
 31
0.0
 12
0.1732050807568878
 22
0.1
 32
0.0
 13
4.0
 23
9.0
340
99
 70
15
280
0
281
50
282
50
283
0
  0
IMAGE
  5
9A
100
AcDbEntity
  8
01_Side_Panels
 62
256
370
-1
 48
1.0
  6
BYLAYER
100
AcDbRasterImage
 90
0
 10
-0.8306990774887026
 20
3.2568319999999353
 30
0.0
 11
0.1
 21
-0.1732050807568877
 31
0.0
 12
0.1732050807568877
 22
0.1
 32
0.0
 13
3.0
 23
9.0
340
9B
 70
15
280
0
281
50
282
50
283
0
  0
IMAGE
  5
9C
100
AcDbEntity
  8
01_Side_Panels
 62
256
370
-1
 48
1.0
  6
BYLAYER
100
AcDbRasterImage
 90
0
 10
90.1597719014089307
 20
7.3336490883636856
 30
0.0
 11
0.1
 21
0.1732050807568877
 31
0.0
 12
-0.1732050807568877
 22
0.1000000000000001
 32
0.0
 13
3.0
 23
9.0
340
9D
 70
15
280
0
281
50
282
50
283
0
  0
IMAGE
  5
9E
100
AcDbEntity
  8
02_Rear_Panels
 62
256
370
-1
 48
1.0
  6
BYLAYER
100
AcDbRasterImage
 90
0
 10
134.2149087962713168
 20
18.9228791119246935
 30
0.0
 11
0.1
 21
0.1732050807568877
 31
0.0
 12
-0.1732050807568877
 22
0.1000000000000001
 32
0.0
 13
3.0
 23
9.0
340
9F
 70
15
280
0
281
50
282
50
283
0
  0
IMAGE
  5
A0
100
AcDbEntity
  8
02_Rear_Panels
 62
256
370
-1
 48
1.0
  6
BYLAYER
100
AcDbRasterImage
 90
0
 10
48.550380640849383
 20
18.9228791119247077
 30
0.0
 11
-0.1000000000000001
 21
0.1732050807568876
 31
0.0
 12
0.1732050807568878
 22
0.1
 32
0.0
 13
3.0
 23
9.0
340
A1
 70
15
280
0
281
50
282
50
283
0
  0
IMAGE
  5
A2
100
AcDbEntity
  8
03_Front_Panels
 62
256
370
-1
 48
1.0
  6
BYLAYER
100
AcDbRasterImage
 90
0
 10
134.2149087962713168
 20
18.9228791119247717
 30
0.0
 11
0.1
 21
0.1732050807568877
 31
0.0
 12
-0.1732050807568877
 22
0.1000000000000001
 32
0.0
 13
3.0
 23
9.0
340
A3
 70
15
280
0
281
50
282
50
283
0
  0
IMAGE
  5
A4
100
AcDbEntity
  8
03_Front_Panels
 62
256
370
-1
 48
1.0
  6
BYLAYER
100
AcDbRasterImage
 90
0
 10
48.550380640849383
 20
18.9228791119247042
 30
0.0
 11
-0.1000000000000001
 21
0.1732050807568877
 31
0.0
 12
0.1732050807568878
 22
0.1
 32
0.0
 13
4.0
 23
9.0
340
A5
 70
15
280
0
281
50
282
50
283
0
  0
IMAGE
  5
A6
100
AcDbEntity
  8
01_Side_Panels
 62
256
370
-1
 48
1.0
  6
BYLAYER
100
AcDbRasterImage
 90
0
 10
-0.8306990774887024
 20
10.5901619999999355
 30
0.0
 11
0.1
 21
-0.1732050807568877
 31
0.0
 12
0.1732050807568877
 22
0.1
 32
0.0
 13
3.0
 23
9.0
340
A7
 70
15
280
0
281
50
282
50
283
0
  0
IMAGE
  5
A8
100
AcDbEntity
  8
01_Side_Panels
 62
256
370
-1
 48
1.0
  6
BYLAYER
100
AcDbRasterImage
 90
0
 10
90.1597719014089307
 20
14.6669790883636857
 30
0.0
 11
0.1
 21
0.1732050807568877
 31
0.0
 12
-0.1732050807568877
 22
0.1000000000000001
 32
0.0
 13
3.0
 23
9.0
340
A9
 70
15
280
0
281
50
282
50
283
0
  0
IMAGE
  5
AA
100
AcDbEntity
  8
02_Rear_Panels
 62
256
370
-1
 48
1.0
  6
BYLAYER
100
AcDbRasterImage
 90
0
 10
134.2149087962713168
 20
26.2562091119245054
 30
0.0
 11
0.1
 21
0.1732050807568877
 31
0.0
 12
-0.1732050807568877
 22
0.1000000000000001
 32
0.0
 13
3.0
 23
9.0
340
AB
 70
15
280
0
281
50
282
50
283
0
  0
IMAGE
  5
AC
100
AcDbEntity
  8
02_Rear_Panels
 62
256
370
-1
 48
1.0
  6
BYLAYER
100
AcDbRasterImage
 90
0
 10
48.5503806408493759
 20
26.2562091119245338
 30
0.0
 11
-0.1000000000000001
 21
0.1732050807568876
 31
0.0
 12
0.1732050807568878
 22
0.1
 32
0.0
 13
3.0
 23
9.0
340
AD
 70
15
280
0
281
50
282
50
283
0
  0
IMAGE
  5
AE
100
AcDbEntity
  8
03_Front_Panels
 62
256
370
-1
 48
1.0
  6
BYLAYER
100
AcDbRasterImage
 90
0
 10
134.2149087962713168
 20
26.2562091119244094
 30
0.0
 11
0.1
 21
0.1732050807568877
 31
0.0
 12
-0.1732050807568877
 22
0.1000000000000001
 32
0.0
 13
3.0
 23
9.0
340
AF
 70
15
280
0
281
50
282
50
283
0
  0
IMAGE
  5
B0
100
AcDbEntity
  8
03_Front_Panels
 62
256
370
-1
 48
1.0
  6
BYLAYER
100
AcDbRasterImage
 90
0
 10
48.5503806408493759
 20
26.2562091119245409
 30
0.0
 11
-0.1000000000000001
 21
0.1732050807568877
 31
0.0
 12
0.1732050807568878
 22
0.1
 32
0.0
 13
4.0
 23
9.0
340
B1
 70
15
280
0
281
50
282
50
283
0
  0
IMAGE
  5
B2
100
AcDbEntity
  8
01_Side_Panels
 62
256
370
-1
 48
1.0
  6
BYLAYER
100
AcDbRasterImage
 90
0
 10
-0.8306990774887024
 20
17.9234919999999356
 30
0.0
 11
0.1
 21
-0.1732050807568877
 31
0.0
 12
0.1732050807568877
 22
0.1
 32
0.0
 13
3.0
 23
9.0
340
B3
 70
15
280
0
281
50
282
50
283
0
  0
IMAGE
  5
B4
100
AcDbEntity
  8
01_Side_Panels
 62
256
370
-1
 48
1.0
  6
BYLAYER
100
AcDbRasterImage
 90
0
 10
90.1597719014089307
 20
22.0003090883636858
 30
0.0
 11
0.1
 21
0.1732050807568877
 31
0.0
 12
-0.1732050807568877
 22
0.1000000000000001
 32
0.0
 13
3.0
 23
9.0
340
B5
 70
15
280
0
281
50
282
50
283
0
  0
IMAGE
  5
B6
100
AcDbEntity
  8
02_Rear_Panels
 62
256
370
-1
 48
1.0
  6
BYLAYER
100
AcDbRasterImage
 90
0
 10
134.2149087962713168
 20
33.5895391119245446
 30
0.0
 11
0.1
 21
0.1732050807568877
 31
0.0
 12
-0.1732050807568877
 22
0.1000000000000001
 32
0.0
 13
3.0
 23
9.0
340
B7
 70
15
280
0
281
50
282
50
283
0
  0
IMAGE
  5
B8
100
AcDbEntity
  8
02_Rear_Panels
 62
256
370
-1
 48
1.0
  6
BYLAYER
100
AcDbRasterImage
 90
0
 10
48.5503806408493972
 20
33.5895391119245517
 30
0.0
 11
-0.1000000000000001
 21
0.1732050807568876
 31
0.0
 12
0.1732050807568878
 22
0.1
 32
0.0
 13
3.0
 23
9.0
340
B9
 70
15
280
0
281
50
282
50
283
0
  0
IMAGE
  5
BA
100
AcDbEntity
  8
03_Front_Panels
 62
256
370
-1
 48
1.0
  6
BYLAYER
100
AcDbRasterImage
 90
0
 10
134.2149087962713168
 20
33.5895391119245303
 30
0.0
 11
0.1
 21
0.1732050807568877
 31
0.0
 12
-0.1732050807568877
 22
0.1000000000000001
 32
0.0
 13
3.0
 23
9.0
340
BB
 70
15
280
0
281
50
282
50
283
0
  0
IMAGE
  5
BC
100
AcDbEntity
  8
03_Front_Panels
 62
256
370
-1
 48
1.0
  6
BYLAYER
100
AcDbRasterImage
 90
0
 10
48.5503806408493972
 20
33.5895391119245446
 30
0.0
 11
-0.1000000000000001
 21
0.1732050807568877
 31
0.0
 12
0.1732050807568878
 22
0.1
 32
0.0
 13
4.0
 23
9.0
340
BD
 70
15
280
0
281
50
282
50
283
0
  0
IMAGE
  5
BE
100
AcDbEntity
  8
01_Side_Panels
 62
256
370
-1
 48
1.0
  6
BYLAYER
100
AcDbRasterImage
 90
0
 10
-0.8306990774887024
 20
25.2568219999999357
 30
0.0
 11
0.1
 21
-0.1732050807568877
 31
0.0
 12
0.1732050807568877
 22
0.1
 32
0.0
 13
3.0
 23
9.0
340
BF
 70
15
280
0
281
50
282
50
283
0
  0
IMAGE
  5
C0
100
AcDbEntity
  8
01_Side_Panels
 62
256
370
-1
 48
1.0
  6
BYLAYER
100
AcDbRasterImage
 90
0
 10
90.1597719014089307
 20
29.3336390883636859
 30
0.0
 11
0.1
 21
0.1732050807568877
 31
0.0
 12
-0.1732050807568877
 22
0.1000000000000001
 32
0.0
 13
3.0
 23
9.0
340
C1
 70
15
280
0
281
50
282
50
283
0
  0
IMAGE
  5
C2
100
AcDbEntity
  8
02_Rear_Panels
 62
256
370
-1
 48
1.0
  6
BYLAYER
100
AcDbRasterImage
 90
0
 10
134.2149087962713168
 20
40.9228691119245411
 30
0.0
 11
0.1
 21
0.1732050807568877
 31
0.0
 12
-0.1732050807568877
 22
0.1000000000000001
 32
0.0
 13
3.0
 23
9.0
340
C3
 70
15
280
0
281
50
282
50
283
0
  0
IMAGE
  5
C4
100
AcDbEntity
  8
02_Rear_Panels
 62
256
370
-1
 48
1.0
  6
BYLAYER
100
AcDbRasterImage
 90
0
 10
48.5503806408493901
 20
40.9228691119245411
 30
0.0
 11
-0.1000000000000001
 21
0.1732050807568876
 31
0.0
 12
0.1732050807568878
 22
0.1
 32
0.0
 13
3.0
 23
9.0
340
C5
 70
15
280
0
281
50
282
50
283
0
  0
IMAGE
  5
C6
100
AcDbEntity
  8
03_Front_Panels
 62
256
370
-1
 48
1.0
  6
BYLAYER
100
AcDbRasterImage
 90
0
 10
134.2149087962713168
 20
40.9228691119244914
 30
0.0
 11
0.1
 21
0.1732050807568877
 31
0.0
 12
-0.1732050807568877
 22
0.1000000000000001
 32
0.0
 13
3.0
 23
9.0
340
C7
 70
15
280
0
281
50
282
50
283
0
  0
IMAGE
  5
C8
100
AcDbEntity
  8
03_Front_Panels
 62
256
370
-1
 48
1.0
  6
BYLAYER
100
AcDbRasterImage
 90
0
 10
48.5503806408493901
 20
40.9228691119245411
 30
0.0
 11
-0.1000000000000001
 21
0.1732050807568877
 31
0.0
 12
0.1732050807568878
 22
0.1
 32
0.0
 13
4.0
 23
9.0
340
C9
 70
15
280
0
281
50
282
50
283
0
  0
IMAGE
  5
CA
100
AcDbEntity
  8
01_Side_Panels
 62
256
370
-1
 48
1.0
  6
BYLAYER
100
AcDbRasterImage
 90
0
 10
-0.8306990774887024
 20
32.5901519999999323
 30
0.0
 11
0.1
 21
-0.1732050807568877
 31
0.0
 12
0.1732050807568877
 22
0.1
 32
0.0
 13
3.0
 23
9.0
340
CB
 70
15
280
0
281
50
282
50
283
0
  0
IMAGE
  5
CC
100
AcDbEntity
  8
01_Side_Panels
 62
256
370
-1
 48
1.0
  6
BYLAYER
100
AcDbRasterImage
 90
0
 10
90.1597719014089307
 20
36.6669690883636861
 30
0.0
 11
0.1
 21
0.1732050807568877
 31
0.0
 12
-0.1732050807568877
 22
0.1000000000000001
 32
0.0
 13
3.0
 23
9.0
340
CD
 70
15
280
0
281
50
282
50
283
0
  0
IMAGE
  5
CE
100
AcDbEntity
  8
02_Rear_Panels
 62
256
370
-1
 48
1.0
  6
BYLAYER
100
AcDbRasterImage
 90
0
 10
134.2149087962713168
 20
48.2561991119245448
 30
0.0
 11
0.1
 21
0.1732050807568877
 31
0.0
 12
-0.1732050807568877
 22
0.1000000000000001
 32
0.0
 13
3.0
 23
9.0
340
CF
 70
15
280
0
281
50
282
50
283
0
  0
IMAGE
  5
D0
100
AcDbEntity
  8
02_Rear_Panels
 62
256
370
-1
 48
1.0
  6
BYLAYER
100
AcDbRasterImage
 90
0
 10
48.5503806408493972
 20
48.2561991119245519
 30
0.0
 11
-0.1000000000000001
 21
0.1732050807568876
 31
0.0
 12
0.1732050807568878
 22
0.1
 32
0.0
 13
3.0
 23
9.0
340
D1
 70
15
280
0
281
50
282
50
283
0
  0
IMAGE
  5
D2
100
AcDbEntity
  8
03_Front_Panels
 62
256
370
-1
 48
1.0
  6
BYLAYER
100
AcDbRasterImage
 90
0
 10
134.2149087962713168
 20
48.2561991119245519
 30
0.0
 11
0.1
 21
0.1732050807568877
 31
0.0
 12
-0.1732050807568877
 22
0.1000000000000001
 32
0.0
 13
3.0
 23
9.0
340
D3
 70
15
280
0
281
50
282
50
283
0
  0
IMAGE
  5
D4
100
AcDbEntity
  8
03_Front_Panels
 62
256
370
-1
 48
1.0
  6
BYLAYER
100
AcDbRasterImage
 90
0
 10
48.5503806408493972
 20
48.2561991119245377
 30
0.0
 11
-0.1000000000000001
 21
0.1732050807568877
 31
0.0
 12
0.1732050807568878
 22
0.1
 32
0.0
 13
4.0
 23
9.0
340
D5
 70
15
280
0
281
50
282
50
283
0
  0
IMAGE
  5
D6
100
AcDbEntity
  8
01_Side_Panels
 62
256
370
-1
 48
1.0
  6
BYLAYER
100
AcDbRasterImage
 90
0
 10
-0.8306990774887024
 20
39.923481999999936
 30
0.0
 11
0.1
 21
-0.1732050807568877
 31
0.0
 12
0.1732050807568877
 22
0.1
 32
0.0
 13
3.0
 23
9.0
340
D7
 70
15
280
0
281
50
282
50
283
0
  0
IMAGE
  5
D8
100
AcDbEntity
  8
01_Side_Panels
 62
256
370
-1
 48
1.0
  6
BYLAYER
100
AcDbRasterImage
 90
0
 10
90.1597719014089307
 20
44.0002990883636826
 30
0.0
 11
0.1
 21
0.1732050807568877
 31
0.0
 12
-0.1732050807568877
 22
0.1000000000000001
 32
0.0
 13
3.0
 23
9.0
340
D9
 70
15
280
0
281
50
282
50
283
0
  0
IMAGE
  5
DA
100
AcDbEntity
  8
02_Rear_Panels
 62
256
370
-1
 48
1.0
  6
BYLAYER
100
AcDbRasterImage
 90
0
 10
134.2149087962713168
 20
55.5895291119245485
 30
0.0
 11
0.1
 21
0.1732050807568877
 31
0.0
 12
-0.1732050807568877
 22
0.1000000000000001
 32
0.0
 13
3.0
 23
9.0
340
DB
 70
15
280
0
281
50
282
50
283
0
  0
IMAGE
  5
DC
100
AcDbEntity
  8
02_Rear_Panels
 62
256
370
-1
 48
1.0
  6
BYLAYER
100
AcDbRasterImage
 90
0
 10
48.5503806408493901
 20
55.5895291119245769
 30
0.0
 11
-0.1000000000000001
 21
0.1732050807568876
 31
0.0
 12
0.1732050807568878
 22
0.1
 32
0.0
 13
3.0
 23
9.0
340
DD
 70
15
280
0
281
50
282
50
283
0
  0
IMAGE
  5
DE
100
AcDbEntity
  8
03_Front_Panels
 62
256
370
-1
 48
1.0
  6
BYLAYER
100
AcDbRasterImage
 90
0
 10
134.2149087962713168
 20
55.5895291119245556
 30
0.0
 11
0.1
 21
0.1732050807568877
 31
0.0
 12
-0.1732050807568877
 22
0.1000000000000001
 32
0.0
 13
3.0
 23
9.0
340
DF
 70
15
280
0
281
50
282
50
283
0
  0
IMAGE
  5
E0
100
AcDbEntity
  8
03_Front_Panels
 62
256
370
-1
 48
1.0
  6
BYLAYER
100
AcDbRasterImage
 90
0
 10
48.5503806408493901
 20
55.5895291119245911
 30
0.0
 11
-0.1000000000000001
 21
0.1732050807568877
 31
0.0
 12
0.1732050807568878
 22
0.1
 32
0.0
 13
4.0
 23
9.0
340
E1
 70
15
280
0
281
50
282
50
283
0
  0
IMAGE
  5
E2
100
AcDbEntity
  8
01_Side_Panels
 62
256
370
-1
 48
1.0
  6
BYLAYER
100
AcDbRasterImage
 90
0
 10
-0.8306990774887024
 20
47.2568119999999396
 30
0.0
 11
0.1
 21
-0.1732050807568877
 31
0.0
 12
0.1732050807568877
 22
0.1
 32
0.0
 13
3.0
 23
9.0
340
E3
 70
15
280
0
281
50
282
50
283
0
  0
IMAGE
  5
E4
100
AcDbEntity
  8
01_Side_Panels
 62
256
370
-1
 48
1.0
  6
BYLAYER
100
AcDbRasterImage
 90
0
 10
90.1597719014089307
 20
-52.9996809116363181
 30
0.0
 11
0.1
 21
0.1732050807568877
 31
0.0
 12
-0.1732050807568877
 22
0.1000000000000001
 32
0.0
 13
3.0
 23
9.0
340
E5
 70
15
280
0
281
50
282
50
283
0
  0
IMAGE
  5
E6
100
AcDbEntity
  8
02_Rear_Panels
 62
256
370
-1
 48
1.0
  6
BYLAYER
100
AcDbRasterImage
 90
0
 10
134.1346647162051511
 20
-38.9288226052190041
 30
0.0
 11
0.1
 21
0.1732050807568877
 31
0.0
 12
-0.1732050807568877
 22
0.1000000000000001
 32
0.0
 13
3.0
 23
9.0
340
E7
 70
15
280
0
281
50
282
50
283
0
  0
IMAGE
  5
E8
100
AcDbEntity
  8
02_Rear_Panels
 62
256
370
-1
 48
1.0
  6
BYLAYER
100
AcDbRasterImage
 90
0
 10
48.9999999999999503
 20
-39.0000000000000568
 30
0.0
 11
-0.1000000000000001
 21
0.1732050807568877
 31
0.0
 12
0.1732050807568878
 22
0.1
 32
0.0
 13
4.0
 23
9.0
340
E9
 70
15
280
0
281
50
282
50
283
0
  0
IMAGE
  5
EA
100
AcDbEntity
  8
03_Front_Panels
 62
256
370
-1
 48
1.0
  6
BYLAYER
100
AcDbRasterImage
 90
0
 10
134.1346647162051511
 20
-38.9288226052190325
 30
0.0
 11
0.1
 21
0.1732050807568877
 31
0.0
 12
-0.1732050807568877
 22
0.1000000000000001
 32
0.0
 13
3.0
 23
9.0
340
EB
 70
15
280
0
281
50
282
50
283
0
  0
IMAGE
  5
EC
100
AcDbEntity
  8
03_Front_Panels
 62
256
370
-1
 48
1.0
  6
BYLAYER
100
AcDbRasterImage
 90
0
 10
90.4999999999999432
 20
-39.0000000000000497
 30
0.0
 11
-0.1000000000000001
 21
0.1732050807568877
 31
0.0
 12
0.1732050807568878
 22
0.1
 32
0.0
 13
4.0
 23
9.0
340
ED
 70
15
280
0
281
50
282
50
283
0
  0
LINE
  5
EE
100
AcDbEntity
  8
04_Triangle_Panels
 62
256
370
-1
 48
1.0
  6
BYLAYER
100
AcDbLine
 10
49.7432914831738131
 20
-26.2589498223184421
 30
0.0
 11
138.7432914831738344
 21
-26.2589498223184421
 31
0.0
  0
LINE
  5
EF
100
AcDbEntity
  8
04_Triangle_Panels
 62
256
370
-1
 48
1.0
  6
BYLAYER
100
AcDbLine
 10
38.5000000007500276
 20
12.0000000105000026
 30
0.0
 11
83.0000000007500347
 21
12.0000000105000026
 31
0.0
  0
LINE
  5
F0
100
AcDbEntity
  8
04_Triangle_Panels
 62
256
370
-1
 48
1.0
  6
BYLAYER
100
AcDbLine
 10
157.1010883694690961
 20
12.3838127848523598
 30
0.0
 11
112.6010883694690818
 21
12.3838127848523456
 31
0.0
  0
LINE
  5
F1
100
AcDbEntity
  8
04_Triangle_Panels
 62
256
370
-1
 48
1.0
  6
BYLAYER
100
AcDbLine
 10
49.7434454126781631
 20
-26.0012947176065552
 30
0.0
 11
94.2434454126781702
 21
-26.0012947176065552
 31
0.0
  0
LINE
  5
F2
100
AcDbEntity
  8
04_Triangle_Panels
 62
256
370
-1
 48
1.0
  6
BYLAYER
100
AcDbLine
 10
138.7434454126781702
 20
-26.0012947176066405
 30
0.0
 11
94.2434454126781702
 21
-26.0012947176065552
 31
0.0
  0
IMAGE
  5
F3
100
AcDbEntity
  8
01_Side_Panels
 62
256
370
-1
 48
1.0
  6
BYLAYER
100
AcDbRasterImage
 90
0
 10
-0.8306990774887024
 20
-49.7431680000000682
 30
0.0
 11
0.1
 21
-0.1732050807568877
 31
0.0
 12
0.1732050807568877
 22
0.1
 32
0.0
 13
3.0
 23
9.0
340
F4
 70
15
280
0
281
50
282
50
283
0
  0
LINE
  5
F5
100
AcDbEntity
  8
04_Triangle_Panels
 62
256
370
-1
 48
1.0
  6
BYLAYER
100
AcDbLine
 10
54.2263189272881405
 20
-24.7589498223184421
 30
0.0
 11
134.2602640390594502
 21
-24.7589498223184421
 31
0.0
  0
IMAGE
  5
F6
100
AcDbEntity
  8
01_Side_Panels
 62
256
370
-1
 48
1.0
  6
BYLAYER
100
AcDbRasterImage
 90
0
 10
90.1597719014088881
 20
-44.499680911636375
 30
0.0
 11
0.1
 21
0.1732050807568877
 31
0.0
 12
-0.1732050807568877
 22
0.1000000000000001
 32
0.0
 13
3.0
 23
9.0
340
F7
 70
15
280
0
281
50
282
50
283
0
  0
LINE
  5
F8
100
AcDbEntity
  8
04_Triangle_Panels
 62
256
370
-1
 48
1.0
  6
BYLAYER
100
AcDbLine
 10
49.7432914831738131
 20
-26.2589498223184421
 30
0.0
 11
54.2263189272881547
 21
-24.7589498223184421
 31
0.0
  0
IMAGE
  5
F9
100
AcDbEntity
  8
02_Rear_Panels
 62
256
370
-1
 48
1.0
  6
BYLAYER
100
AcDbRasterImage
 90
0
 10
134.1346647162051227
 20
-30.428822605219068
 30
0.0
 11
0.1
 21
0.1732050807568877
 31
0.0
 12
-0.1732050807568877
 22
0.1000000000000001
 32
0.0
 13
3.0
 23
9.0
340
FA
 70
15
280
0
281
50
282
50
283
0
  0
LINE
  5
FB
100
AcDbEntity
  8
04_Triangle_Panels
 62
256
370
-1
 48
1.0
  6
BYLAYER
100
AcDbLine
 10
138.7432914831738344
 20
-26.2589498223184421
 30
0.0
 11
134.2602640390594502
 21
-24.7589498223184421
 31
0.0
  0
IMAGE
  5
FC
100
AcDbEntity
  8
02_Rear_Panels
 62
256
370
-1
 48
1.0
  6
BYLAYER
100
AcDbRasterImage
 90
0
 10
48.9999999999999929
 20
-30.5000000000001279
 30
0.0
 11
-0.1000000000000001
 21
0.1732050807568877
 31
0.0
 12
0.1732050807568878
 22
0.1
 32
0.0
 13
4.0
 23
9.0
340
FD
 70
15
280
0
281
50
282
50
283
0
  0
LINE
  5
FE
100
AcDbEntity
  8
04_Triangle_Panels
 62
256
370
-1
 48
1.0
  6
BYLAYER
100
AcDbLine
 10
134.2602640390594502
 20
-24.7589498223184421
 30
0.0
 11
95.3771740135621684
 21
-11.7488498920093036
 31
0.0
  0
IMAGE
  5
FF
100
AcDbEntity
  8
03_Front_Panels
 62
256
370
-1
 48
1.0
  6
BYLAYER
100
AcDbRasterImage
 90
0
 10
134.1346647162050942
 20
-30.4288226052191426
 30
0.0
 11
0.1
 21
0.1732050807568877
 31
0.0
 12
-0.1732050807568877
 22
0.1000000000000001
 32
0.0
 13
3.0
 23
9.0
340
100
 70
15
280
0
281
50
282
50
283
0
  0
IMAGE
  5
101
100
AcDbEntity
  8
03_Front_Panels
 62
256
370
-1
 48
1.0
  6
BYLAYER
100
AcDbRasterImage
 90
0
 10
90.4999999999999716
 20
-30.5000000000001492
 30
0.0
 11
-0.1000000000000001
 21
0.1732050807568877
 31
0.0
 12
0.1732050807568878
 22
0.1
 32
0.0
 13
4.0
 23
9.0
340
102
 70
15
280
0
281
50
282
50
283
0
  0
IMAGE
  5
103
100
AcDbEntity
  8
04_Triangle_Panels
 62
256
370
-1
 48
1.0
  6
BYLAYER
100
AcDbRasterImage
 90
0
 10
82.4963187397929261
 20
15.894342570761534
 30
0.0
 11
-0.0750000000000001
 21
0.1299038105676657
 31
0.0
 12
0.1299038105676658
 22
0.0749999999999999
 32
0.0
 13
2.0
 23
7.0
340
104
 70
15
280
0
281
50
282
50
283
0
  0
IMAGE
  5
105
100
AcDbEntity
  8
04_Triangle_Panels
 62
256
370
-1
 48
1.0
  6
BYLAYER
100
AcDbRasterImage
 90
0
 10
82.8129126102885635
 20
21.0289748084055823
 30
0.0
 11
-0.0750000000000001
 21
0.1299038105676657
 31
0.0
 12
0.1299038105676658
 22
0.0749999999999999
 32
0.0
 13
2.0
 23
7.0
340
106
 70
15
280
0
281
50
282
50
283
0
  0
IMAGE
  5
107
100
AcDbEntity
  8
04_Triangle_Panels
 62
256
370
-1
 48
1.0
  6
BYLAYER
100
AcDbRasterImage
 90
0
 10
82.8129126102885635
 20
11.0289748084055965
 30
0.0
 11
-0.0750000000000001
 21
0.1299038105676657
 31
0.0
 12
0.1299038105676658
 22
0.0749999999999999
 32
0.0
 13
2.0
 23
7.0
340
108
 70
15
280
0
281
50
282
50
283
0
  0
IMAGE
  5
109
100
AcDbEntity
  8
04_Triangle_Panels
 62
256
370
-1
 48
1.0
  6
BYLAYER
100
AcDbRasterImage
 90
0
 10
43.9969878433843249
 20
13.8838127848523669
 30
0.0
 11
-0.1299038105676659
 21
-0.0749999999999999
 31
0.0
 12
0.075
 22
-0.1299038105676658
 32
0.0
 13
3.0
 23
7.0
340
10A
 70
15
280
0
281
50
282
50
283
0
  0
IMAGE
  5
10B
100
AcDbEntity
  8
04_Triangle_Panels
 62
256
370
-1
 48
1.0
  6
BYLAYER
100
AcDbRasterImage
 90
0
 10
51.9969878433843178
 20
13.8838127848523669
 30
0.0
 11
-0.1299038105676659
 21
-0.0749999999999999
 31
0.0
 12
0.075
 22
-0.1299038105676658
 32
0.0
 13
3.0
 23
7.0
340
10C
 70
15
280
0
281
50
282
50
283
0
  0
IMAGE
  5
10D
100
AcDbEntity
  8
04_Triangle_Panels
 62
256
370
-1
 48
1.0
  6
BYLAYER
100
AcDbRasterImage
 90
0
 10
59.9969878433843107
 20
13.8838127848523385
 30
0.0
 11
-0.1299038105676659
 21
-0.0749999999999999
 31
0.0
 12
0.075
 22
-0.1299038105676658
 32
0.0
 13
3.0
 23
7.0
340
10E
 70
15
280
0
281
50
282
50
283
0
  0
IMAGE
  5
10F
100
AcDbEntity
  8
04_Triangle_Panels
 62
256
370
-1
 48
1.0
  6
BYLAYER
100
AcDbRasterImage
 90
0
 10
67.9969878433843036
 20
13.8838127848523314
 30
0.0
 11
-0.1299038105676659
 21
-0.0749999999999999
 31
0.0
 12
0.075
 22
-0.1299038105676658
 32
0.0
 13
3.0
 23
7.0
340
110
 70
15
280
0
281
50
282
50
283
0
  0
IMAGE
  5
111
100
AcDbEntity
  8
04_Triangle_Panels
 62
256
370
-1
 48
1.0
  6
BYLAYER
100
AcDbRasterImage
 90
0
 10
75.9969878433843178
 20
13.8838127848523634
 30
0.0
 11
-0.1299038105676659
 21
-0.0749999999999999
 31
0.0
 12
0.075
 22
-0.1299038105676658
 32
0.0
 13
3.0
 23
7.0
340
112
 70
15
280
0
281
50
282
50
283
0
  0
IMAGE
  5
113
100
AcDbEntity
  8
04_Triangle_Panels
 62
256
370
-1
 48
1.0
  6
BYLAYER
100
AcDbRasterImage
 90
0
 10
47.7876481356640639
 20
13.6115274938912059
 30
0.0
 11
0.1299038105676658
 21
0.075
 31
0.0
 12
-0.075
 22
0.1299038105676658
 32
0.0
 13
3.0
 23
7.0
340
114
 70
15
280
0
281
50
282
50
283
0
  0
IMAGE
  5
115
100
AcDbEntity
  8
04_Triangle_Panels
 62
256
370
-1
 48
1.0
  6
BYLAYER
100
AcDbRasterImage
 90
0
 10
55.3742373773136904
 20
16.1499647451320314
 30
0.0
 11
0.1299038105676658
 21
0.075
 31
0.0
 12
-0.075
 22
0.1299038105676658
 32
0.0
 13
3.0
 23
7.0
340
116
 70
15
280
0
281
50
282
50
283
0
  0
IMAGE
  5
117
100
AcDbEntity
  8
04_Triangle_Panels
 62
256
370
-1
 48
1.0
  6
BYLAYER
100
AcDbRasterImage
 90
0
 10
62.9608266189632673
 20
18.6884019963726935
 30
0.0
 11
0.1299038105676658
 21
0.075
 31
0.0
 12
-0.075
 22
0.1299038105676658
 32
0.0
 13
3.0
 23
7.0
340
118
 70
15
280
0
281
50
282
50
283
0
  0
IMAGE
  5
119
100
AcDbEntity
  8
04_Triangle_Panels
 62
256
370
-1
 48
1.0
  6
BYLAYER
100
AcDbRasterImage
 90
0
 10
70.5474158606128583
 20
21.2268392476134693
 30
0.0
 11
0.1299038105676658
 21
0.075
 31
0.0
 12
-0.075
 22
0.1299038105676658
 32
0.0
 13
3.0
 23
7.0
340
11A
 70
15
280
0
281
50
282
50
283
0
  0
IMAGE
  5
11B
100
AcDbEntity
  8
04_Triangle_Panels
 62
256
370
-1
 48
1.0
  6
BYLAYER
100
AcDbRasterImage
 90
0
 10
78.1340051022624635
 20
23.7652764988541954
 30
0.0
 11
0.1299038105676658
 21
0.075
 31
0.0
 12
-0.075
 22
0.1299038105676658
 32
0.0
 13
3.0
 23
7.0
340
11C
 70
15
280
0
281
50
282
50
283
0
  0
IMAGE
  5
11D
100
AcDbEntity
  8
04_Triangle_Panels
 62
256
370
-1
 48
1.0
  6
BYLAYER
100
AcDbRasterImage
 90
0
 10
113.1047696304261621
 20
16.2781553451137952
 30
0.0
 11
0.0750000000000001
 21
0.1299038105676657
 31
0.0
 12
-0.1299038105676658
 22
0.0749999999999999
 32
0.0
 13
2.0
 23
7.0
340
11E
 70
15
280
0
281
50
282
50
283
0
  0
IMAGE
  5
11F
100
AcDbEntity
  8
04_Triangle_Panels
 62
256
370
-1
 48
1.0
  6
BYLAYER
100
AcDbRasterImage
 90
0
 10
112.7881757599305388
 20
21.4127875827579537
 30
0.0
 11
0.0750000000000001
 21
0.1299038105676657
 31
0.0
 12
-0.1299038105676658
 22
0.0749999999999999
 32
0.0
 13
2.0
 23
7.0
340
120
 70
15
280
0
281
50
282
50
283
0
  0
IMAGE
  5
121
100
AcDbEntity
  8
04_Triangle_Panels
 62
256
370
-1
 48
1.0
  6
BYLAYER
100
AcDbRasterImage
 90
0
 10
112.7881757599305246
 20
11.4127875827579288
 30
0.0
 11
0.0750000000000001
 21
0.1299038105676657
 31
0.0
 12
-0.1299038105676658
 22
0.0749999999999999
 32
0.0
 13
2.0
 23
7.0
340
122
 70
15
280
0
281
50
282
50
283
0
  0
IMAGE
  5
123
100
AcDbEntity
  8
04_Triangle_Panels
 62
256
370
-1
 48
1.0
  6
BYLAYER
100
AcDbRasterImage
 90
0
 10
151.6041005268347703
 20
14.2676255592047028
 30
0.0
 11
0.1299038105676658
 21
-0.075
 31
0.0
 12
-0.0750000000000002
 22
-0.1299038105676657
 32
0.0
 13
3.0
 23
7.0
340
124
 70
15
280
0
281
50
282
50
283
0
  0
IMAGE
  5
125
100
AcDbEntity
  8
04_Triangle_Panels
 62
256
370
-1
 48
1.0
  6
BYLAYER
100
AcDbRasterImage
 90
0
 10
143.6041005268348272
 20
14.2676255592046033
 30
0.0
 11
0.1299038105676658
 21
-0.075
 31
0.0
 12
-0.0750000000000002
 22
-0.1299038105676657
 32
0.0
 13
3.0
 23
7.0
340
126
 70
15
280
0
281
50
282
50
283
0
  0
IMAGE
  5
127
100
AcDbEntity
  8
04_Triangle_Panels
 62
256
370
-1
 48
1.0
  6
BYLAYER
100
AcDbRasterImage
 90
0
 10
135.6041005268347135
 20
14.2676255592045926
 30
0.0
 11
0.1299038105676658
 21
-0.075
 31
0.0
 12
-0.0750000000000002
 22
-0.1299038105676657
 32
0.0
 13
3.0
 23
7.0
340
128
 70
15
280
0
281
50
282
50
283
0
  0
IMAGE
  5
129
100
AcDbEntity
  8
04_Triangle_Panels
 62
256
370
-1
 48
1.0
  6
BYLAYER
100
AcDbRasterImage
 90
0
 10
127.6041005268347845
 20
14.267625559204582
 30
0.0
 11
0.1299038105676658
 21
-0.075
 31
0.0
 12
-0.0750000000000002
 22
-0.1299038105676657
 32
0.0
 13
3.0
 23
7.0
340
12A
 70
15
280
0
281
50
282
50
283
0
  0
IMAGE
  5
12B
100
AcDbEntity
  8
04_Triangle_Panels
 62
256
370
-1
 48
1.0
  6
BYLAYER
100
AcDbRasterImage
 90
0
 10
119.6041005268347988
 20
14.2676255592046033
 30
0.0
 11
0.1299038105676658
 21
-0.075
 31
0.0
 12
-0.0750000000000002
 22
-0.1299038105676657
 32
0.0
 13
3.0
 23
7.0
340
12C
 70
15
280
0
281
50
282
50
283
0
  0
IMAGE
  5
12D
100
AcDbEntity
  8
04_Triangle_Panels
 62
256
370
-1
 48
1.0
  6
BYLAYER
100
AcDbRasterImage
 90
0
 10
147.8134402345550598
 20
13.9953402682434032
 30
0.0
 11
-0.1299038105676658
 21
0.0750000000000001
 31
0.0
 12
0.075
 22
0.1299038105676658
 32
0.0
 13
3.0
 23
7.0
340
12E
 70
15
280
0
281
50
282
50
283
0
  0
IMAGE
  5
12F
100
AcDbEntity
  8
04_Triangle_Panels
 62
256
370
-1
 48
1.0
  6
BYLAYER
100
AcDbRasterImage
 90
0
 10
140.2268509929054403
 20
16.5337775194845129
 30
0.0
 11
-0.1299038105676658
 21
0.0750000000000001
 31
0.0
 12
0.075
 22
0.1299038105676658
 32
0.0
 13
3.0
 23
7.0
340
130
 70
15
280
0
281
50
282
50
283
0
  0
IMAGE
  5
131
100
AcDbEntity
  8
04_Triangle_Panels
 62
256
370
-1
 48
1.0
  6
BYLAYER
100
AcDbRasterImage
 90
0
 10
132.6402617512558777
 20
19.0722147707250791
 30
0.0
 11
-0.1299038105676658
 21
0.0750000000000001
 31
0.0
 12
0.075
 22
0.1299038105676658
 32
0.0
 13
3.0
 23
7.0
340
132
 70
15
280
0
281
50
282
50
283
0
  0
IMAGE
  5
133
100
AcDbEntity
  8
04_Triangle_Panels
 62
256
370
-1
 48
1.0
  6
BYLAYER
100
AcDbRasterImage
 90
0
 10
125.0536725096062582
 20
21.6106520219657554
 30
0.0
 11
-0.1299038105676658
 21
0.0750000000000001
 31
0.0
 12
0.075
 22
0.1299038105676658
 32
0.0
 13
3.0
 23
7.0
340
134
 70
15
280
0
281
50
282
50
283
0
  0
IMAGE
  5
135
100
AcDbEntity
  8
04_Triangle_Panels
 62
256
370
-1
 48
1.0
  6
BYLAYER
100
AcDbRasterImage
 90
0
 10
117.4670832679566388
 20
24.1490892732065099
 30
0.0
 11
-0.1299038105676658
 21
0.0750000000000001
 31
0.0
 12
0.075
 22
0.1299038105676658
 32
0.0
 13
3.0
 23
7.0
340
136
 70
15
280
0
281
50
282
50
283
0
  0
LINE
  5
137
100
AcDbEntity
  8
04_Triangle_Panels
 62
256
370
-1
 48
1.0
  6
BYLAYER
100
AcDbLine
 10
95.3771740135621684
 20
-11.7555000295363499
 30
0.0
 11
95.3771740135621684
 21
-13.4284766270466918
 31
0.0
  0
IMAGE
  5
138
100
AcDbEntity
  8
01_Side_Panels
 62
256
370
-1
 48
1.0
  6
BYLAYER
100
AcDbRasterImage
 90
0
 10
-0.8306990774887395
 20
-41.2431680000000611
 30
0.0
 11
0.1
 21
-0.1732050807568877
 31
0.0
 12
0.1732050807568877
 22
0.1
 32
0.0
 13
3.0
 23
9.0
340
139
 70
15
280
0
281
50
282
50
283
0
  0
LINE
  5
13A
100
AcDbEntity
  8
04_Triangle_Panels
 62
256
370
-1
 48
1.0
  6
BYLAYER
100
AcDbLine
 10
134.2602640390594502
 20
-24.7589498223184421
 30
0.0
 11
129.2602640390594502
 21
-24.7589498223184421
 31
0.0
  0
IMAGE
  5
13B
100
AcDbEntity
  8
01_Side_Panels
 62
256
370
-1
 48
1.0
  6
BYLAYER
100
AcDbRasterImage
 90
0
 10
90.1597719014088881
 20
-35.999680911636375
 30
0.0
 11
0.1
 21
0.1732050807568877
 31
0.0
 12
-0.1732050807568877
 22
0.1000000000000001
 32
0.0
 13
3.0
 23
9.0
340
13C
 70
15
280
0
281
50
282
50
283
0
  0
LINE
  5
13D
100
AcDbEntity
  8
04_Triangle_Panels
 62
256
370
-1
 48
1.0
  6
BYLAYER
100
AcDbLine
 10
129.2602640390594502
 20
-24.7589498223184421
 30
0.0
 11
95.3771740135621684
 21
-13.4218264895196384
 31
0.0
  0
IMAGE
  5
13E
100
AcDbEntity
  8
02_Rear_Panels
 62
256
370
-1
 48
1.0
  6
BYLAYER
100
AcDbRasterImage
 90
0
 10
134.1346647162051511
 20
-21.9288226052190041
 30
0.0
 11
0.1
 21
0.1732050807568877
 31
0.0
 12
-0.1732050807568877
 22
0.1000000000000001
 32
0.0
 13
3.0
 23
9.0
340
13F
 70
15
280
0
281
50
282
50
283
0
  0
LINE
  5
140
100
AcDbEntity
  8
04_Triangle_Panels
 62
256
370
-1
 48
1.0
  6
BYLAYER
100
AcDbLine
 10
59.2263189272881405
 20
-24.7589498223184279
 30
0.0
 11
93.1075644836261773
 21
-13.4224436402672751
 31
0.0
  0
IMAGE
  5
141
100
AcDbEntity
  8
02_Rear_Panels
 62
256
370
-1
 48
1.0
  6
BYLAYER
100
AcDbRasterImage
 90
0
 10
48.9999999999999716
 20
-22.0000000000000497
 30
0.0
 11
-0.1000000000000001
 21
0.1732050807568877
 31
0.0
 12
0.1732050807568878
 22
0.1
 32
0.0
 13
4.0
 23
9.0
340
142
 70
15
280
0
281
50
282
50
283
0
  0
LINE
  5
143
100
AcDbEntity
  8
04_Triangle_Panels
 62
256
370
-1
 48
1.0
  6
BYLAYER
100
AcDbLine
 10
54.2263189272881405
 20
-24.7589498223184421
 30
0.0
 11
93.1075644836261773
 21
-11.7494670427569474
 31
0.0
  0
LINE
  5
144
100
AcDbEntity
  8
04_Triangle_Panels
 62
256
370
-1
 48
1.0
  6
BYLAYER
100
AcDbLine
 10
38.500000000749985
 20
12.0000000104999955
 30
0.0
 11
81.8642730012023918
 21
26.5094827900614973
 31
0.0
  0
LINE
  5
145
100
AcDbEntity
  8
04_Triangle_Panels
 62
256
370
-1
 48
1.0
  6
BYLAYER
100
AcDbLine
 10
157.1010883694691529
 20
12.3838127848523456
 30
0.0
 11
113.7368153690167247
 21
26.8932955644138438
 31
0.0
  0
LINE
  5
146
100
AcDbEntity
  8
04_Triangle_Panels
 62
256
370
-1
 48
1.0
  6
BYLAYER
100
AcDbLine
 10
49.7434454126781205
 20
-26.0012947176065694
 30
0.0
 11
93.2432914844685996
 21
-11.4464498229248335
 31
0.0
  0
LINE
  5
147
100
AcDbEntity
  8
04_Triangle_Panels
 62
256
370
-1
 48
1.0
  6
BYLAYER
100
AcDbLine
 10
138.7434454126781702
 20
-26.0012947176066405
 30
0.0
 11
95.2435993408877408
 21
-11.4464498229248335
 31
0.0
  0
IMAGE
  5
148
100
AcDbEntity
  8
03_Front_Panels
 62
256
370
-1
 48
1.0
  6
BYLAYER
100
AcDbRasterImage
 90
0
 10
134.1346647162051511
 20
-21.9288226052189863
 30
0.0
 11
0.1
 21
0.1732050807568877
 31
0.0
 12
-0.1732050807568877
 22
0.1000000000000001
 32
0.0
 13
3.0
 23
9.0
340
149
 70
15
280
0
281
50
282
50
283
0
  0
IMAGE
  5
14A
100
AcDbEntity
  8
03_Front_Panels
 62
256
370
-1
 48
1.0
  6
BYLAYER
100
AcDbRasterImage
 90
0
 10
90.4999999999999716
 20
-22.0000000000000711
 30
0.0
 11
-0.1000000000000001
 21
0.1732050807568877
 31
0.0
 12
0.1732050807568878
 22
0.1
 32
0.0
 13
4.0
 23
9.0
340
14B
 70
15
280
0
281
50
282
50
283
0
  0
LINE
  5
14C
100
AcDbEntity
  8
04_Triangle_Panels
 62
256
370
-1
 48
1.0
  6
BYLAYER
100
AcDbLine
 10
54.2263189272881405
 20
-24.7589498223184421
 30
0.0
 11
59.2263189272881405
 21
-24.7589498223184279
 31
0.0
  0
IMAGE
  5
14D
100
AcDbEntity
  8
01_Side_Panels
 62
256
370
-1
 48
1.0
  6
BYLAYER
100
AcDbRasterImage
 90
0
 10
-0.8306990774887395
 20
-32.7431680000000611
 30
0.0
 11
0.1
 21
-0.1732050807568877
 31
0.0
 12
0.1732050807568877
 22
0.1
 32
0.0
 13
3.0
 23
9.0
340
14E
 70
15
280
0
281
50
282
50
283
0
  0
LINE
  5
14F
100
AcDbEntity
  8
04_Triangle_Panels
 62
256
370
-1
 48
1.0
  6
BYLAYER
100
AcDbLine
 10
93.1075644836261489
 20
-11.7494670427569616
 30
0.0
 11
93.1075644836261489
 21
-13.4224436402672751
 31
0.0
  0
IMAGE
  5
150
100
AcDbEntity
  8
01_Side_Panels
 62
256
370
-1
 48
1.0
  6
BYLAYER
100
AcDbRasterImage
 90
0
 10
90.1597719014088881
 20
-27.499680911636375
 30
0.0
 11
0.1
 21
0.1732050807568877
 31
0.0
 12
-0.1732050807568877
 22
0.1000000000000001
 32
0.0
 13
3.0
 23
9.0
340
151
 70
15
280
0
281
50
282
50
283
0
  0
LINE
  5
152
100
AcDbEntity
  8
04_Triangle_Panels
 62
256
370
-1
 48
1.0
  6
BYLAYER
100
AcDbLine
 10
93.4932914831738202
 20
-24.7589498223184421
 30
0.0
 11
94.9932914831738202
 21
-24.7589498223184421
 31
0.0
  0
IMAGE
  5
153
100
AcDbEntity
  8
02_Rear_Panels
 62
256
370
-1
 48
1.0
  6
BYLAYER
100
AcDbRasterImage
 90
0
 10
134.1346647162051227
 20
-13.4288226052190396
 30
0.0
 11
0.1
 21
0.1732050807568877
 31
0.0
 12
-0.1732050807568877
 22
0.1000000000000001
 32
0.0
 13
3.0
 23
9.0
340
154
 70
15
280
0
281
50
282
50
283
0
  0
LINE
  5
155
100
AcDbEntity
  8
04_Triangle_Panels
 62
256
370
-1
 48
1.0
  6
BYLAYER
100
AcDbLine
 10
94.9932914831738202
 20
-24.7589498223184421
 30
0.0
 11
94.9932914831738202
 21
-13.4464498223184421
 31
0.0
  0
IMAGE
  5
156
100
AcDbEntity
  8
02_Rear_Panels
 62
256
370
-1
 48
1.0
  6
BYLAYER
100
AcDbRasterImage
 90
0
 10
49.0
 20
-13.5000000000000906
 30
0.0
 11
-0.1000000000000001
 21
0.1732050807568877
 31
0.0
 12
0.1732050807568878
 22
0.1
 32
0.0
 13
4.0
 23
9.0
340
157
 70
15
280
0
281
50
282
50
283
0
  0
LINE
  5
158
100
AcDbEntity
  8
04_Triangle_Panels
 62
256
370
-1
 48
1.0
  6
BYLAYER
100
AcDbLine
 10
94.9932914831738202
 20
-13.4464498223184421
 30
0.0
 11
93.4932914831738202
 21
-13.4464498223184421
 31
0.0
  0
IMAGE
  5
159
100
AcDbEntity
  8
03_Front_Panels
 62
256
370
-1
 48
1.0
  6
BYLAYER
100
AcDbRasterImage
 90
0
 10
134.1346647162051227
 20
-13.428822605219084
 30
0.0
 11
0.1
 21
0.1732050807568877
 31
0.0
 12
-0.1732050807568877
 22
0.1000000000000001
 32
0.0
 13
3.0
 23
9.0
340
15A
 70
15
280
0
281
50
282
50
283
0
  0
LINE
  5
15B
100
AcDbEntity
  8
04_Triangle_Panels
 62
256
370
-1
 48
1.0
  6
BYLAYER
100
AcDbLine
 10
93.4932914831738202
 20
-13.4464498223184421
 30
0.0
 11
93.4932914831738202
 21
-24.7589498223184421
 31
0.0
  0
IMAGE
  5
15C
100
AcDbEntity
  8
03_Front_Panels
 62
256
370
-1
 48
1.0
  6
BYLAYER
100
AcDbRasterImage
 90
0
 10
90.5
 20
-13.5000000000001261
 30
0.0
 11
-0.1000000000000001
 21
0.1732050807568877
 31
0.0
 12
0.1732050807568878
 22
0.1
 32
0.0
 13
4.0
 23
9.0
340
15D
 70
15
280
0
281
50
282
50
283
0
  0
LINE
  5
15E
100
AcDbEntity
  8
04_Triangle_Panels
 62
256
370
-1
 48
1.0
  6
BYLAYER
100
AcDbLine
 10
112.1418700351766375
 20
-24.7454477102344299
 30
0.0
 11
110.6418700351766375
 21
-24.7454477102344299
 31
0.0
  0
IMAGE
  5
15F
100
AcDbEntity
  8
01_Side_Panels
 62
256
370
-1
 48
1.0
  6
BYLAYER
100
AcDbRasterImage
 90
0
 10
-0.8306990774887395
 20
-24.2431680000000611
 30
0.0
 11
0.1
 21
-0.1732050807568877
 31
0.0
 12
0.1732050807568877
 22
0.1
 32
0.0
 13
3.0
 23
9.0
340
160
 70
15
280
0
281
50
282
50
283
0
  0
LINE
  5
161
100
AcDbEntity
  8
04_Triangle_Panels
 62
256
370
-1
 48
1.0
  6
BYLAYER
100
AcDbLine
 10
110.6418700351766375
 20
-24.7454477102344299
 30
0.0
 11
110.6418700351766375
 21
-18.557947710234437
 31
0.0
  0
IMAGE
  5
162
100
AcDbEntity
  8
01_Side_Panels
 62
256
370
-1
 48
1.0
  6
BYLAYER
100
AcDbRasterImage
 90
0
 10
90.1597719014088881
 20
-18.999680911636375
 30
0.0
 11
0.1
 21
0.1732050807568877
 31
0.0
 12
-0.1732050807568877
 22
0.1000000000000001
 32
0.0
 13
3.0
 23
9.0
340
163
 70
15
280
0
281
50
282
50
283
0
  0
LINE
  5
164
100
AcDbEntity
  8
04_Triangle_Panels
 62
256
370
-1
 48
1.0
  6
BYLAYER
100
AcDbLine
 10
110.6418700351766375
 20
-18.557947710234437
 30
0.0
 11
112.1418700351766375
 21
-19.0598406894875438
 31
0.0
  0
IMAGE
  5
165
100
AcDbEntity
  8
02_Rear_Panels
 62
256
370
-1
 48
1.0
  6
BYLAYER
100
AcDbRasterImage
 90
0
 10
134.1346647162051227
 20
-4.9288226052190041
 30
0.0
 11
0.1
 21
0.1732050807568877
 31
0.0
 12
-0.1732050807568877
 22
0.1000000000000001
 32
0.0
 13
3.0
 23
9.0
340
166
 70
15
280
0
281
50
282
50
283
0
  0
LINE
  5
167
100
AcDbEntity
  8
04_Triangle_Panels
 62
256
370
-1
 48
1.0
  6
BYLAYER
100
AcDbLine
 10
112.1418700351766375
 20
-24.7454477102344299
 30
0.0
 11
112.1418700351766375
 21
-19.0598406894875438
 31
0.0
  0
IMAGE
  5
168
100
AcDbEntity
  8
02_Rear_Panels
 62
256
370
-1
 48
1.0
  6
BYLAYER
100
AcDbRasterImage
 90
0
 10
49.0
 20
-4.9999999999999822
 30
0.0
 11
-0.1000000000000001
 21
0.1732050807568877
 31
0.0
 12
0.1732050807568878
 22
0.1
 32
0.0
 13
4.0
 23
9.0
340
169
 70
15
280
0
281
50
282
50
283
0
  0
LINE
  5
16A
100
AcDbEntity
  8
04_Triangle_Panels
 62
256
370
-1
 48
1.0
  6
BYLAYER
100
AcDbLine
 10
76.2616845992758243
 20
-24.7603497774390888
 30
0.0
 11
77.7616845992758243
 21
-24.7603497774390888
 31
0.0
  0
IMAGE
  5
16B
100
AcDbEntity
  8
03_Front_Panels
 62
256
370
-1
 48
1.0
  6
BYLAYER
100
AcDbRasterImage
 90
0
 10
134.1346647162051227
 20
-4.9288226052187696
 30
0.0
 11
0.1
 21
0.1732050807568877
 31
0.0
 12
-0.1732050807568877
 22
0.1000000000000001
 32
0.0
 13
3.0
 23
9.0
340
16C
 70
15
280
0
281
50
282
50
283
0
  0
LINE
  5
16D
100
AcDbEntity
  8
04_Triangle_Panels
 62
256
370
-1
 48
1.0
  6
BYLAYER
100
AcDbLine
 10
77.7616845992758243
 20
-24.7603497774390888
 30
0.0
 11
77.7616845992758243
 21
-18.5728497774390888
 31
0.0
  0
IMAGE
  5
16E
100
AcDbEntity
  8
03_Front_Panels
 62
256
370
-1
 48
1.0
  6
BYLAYER
100
AcDbRasterImage
 90
0
 10
90.4999999999999858
 20
-5.0000000000000622
 30
0.0
 11
-0.1000000000000001
 21
0.1732050807568877
 31
0.0
 12
0.1732050807568878
 22
0.1
 32
0.0
 13
4.0
 23
9.0
340
16F
 70
15
280
0
281
50
282
50
283
0
  0
LINE
  5
170
100
AcDbEntity
  8
04_Triangle_Panels
 62
256
370
-1
 48
1.0
  6
BYLAYER
100
AcDbLine
 10
77.7616845992758243
 20
-18.5728497774390888
 30
0.0
 11
76.2616845992758243
 21
-19.0747427566921957
 31
0.0
  0
IMAGE
  5
171
100
AcDbEntity
  8
01_Side_Panels
 62
256
370
-1
 48
1.0
  6
BYLAYER
100
AcDbRasterImage
 90
0
 10
-0.8306990774887395
 20
-15.7431680000000611
 30
0.0
 11
0.1
 21
-0.1732050807568877
 31
0.0
 12
0.1732050807568877
 22
0.1
 32
0.0
 13
3.0
 23
9.0
340
172
 70
15
280
0
281
50
282
50
283
0
  0
LINE
  5
173
100
AcDbEntity
  8
04_Triangle_Panels
 62
256
370
-1
 48
1.0
  6
BYLAYER
100
AcDbLine
 10
76.2616845992758243
 20
-24.7603497774390888
 30
0.0
 11
76.2616845992758243
 21
-19.0747427566921957
 31
0.0
  0
IMAGE
  5
174
100
AcDbEntity
  8
01_Side_Panels
 62
256
370
-1
 48
1.0
  6
BYLAYER
100
AcDbRasterImage
 90
0
 10
119.1693009225112263
 20
-50.7431680000001819
 30
0.0
 11
0.1
 21
-0.1732050807568877
 31
0.0
 12
0.1732050807568877
 22
0.1
 32
0.0
 13
3.0
 23
9.0
340
175
 70
15
280
0
281
50
282
50
283
0
  0
LINE
  5
176
100
AcDbEntity
  8
04_Triangle_Panels
 62
256
370
-1
 48
1.0
  6
BYLAYER
100
AcDbLine
 10
91.9932914831738202
 20
-24.7589498223184421
 30
0.0
 11
93.4932914831738202
 21
-24.7589498223184421
 31
0.0
  0
IMAGE
  5
177
100
AcDbEntity
  8
01_Side_Panels
 62
256
370
-1
 48
1.0
  6
BYLAYER
100
AcDbRasterImage
 90
0
 10
161.9999999999999147
 20
-54.0000000000000995
 30
0.0
 11
0.1
 21
0.1732050807568877
 31
0.0
 12
-0.1732050807568877
 22
0.1000000000000001
 32
0.0
 13
3.0
 23
9.0
340
178
 70
15
280
0
281
50
282
50
283
0
  0
LINE
  5
179
100
AcDbEntity
  8
04_Triangle_Panels
 62
256
370
-1
 48
1.0
  6
BYLAYER
100
AcDbLine
 10
93.4932914831738202
 20
-24.7589498223184421
 30
0.0
 11
93.4932914831738202
 21
-13.4464498223184421
 31
0.0
  0
LINE
  5
17A
100
AcDbEntity
  8
04_Triangle_Panels
 62
256
370
-1
 48
1.0
  6
BYLAYER
100
AcDbLine
 10
81.9998460725404641
 20
24.5548449057881228
 30
0.0
 11
81.9998460725404641
 21
26.5548449051817315
 31
0.0
  0
LINE
  5
17B
100
AcDbEntity
  8
04_Triangle_Panels
 62
256
370
-1
 48
1.0
  6
BYLAYER
100
AcDbLine
 10
113.6012422976786524
 20
24.9386576801404658
 30
0.0
 11
113.6012422976786524
 21
26.9386576795340709
 31
0.0
  0
LINE
  5
17C
100
AcDbEntity
  8
04_Triangle_Panels
 62
256
370
-1
 48
1.0
  6
BYLAYER
100
AcDbLine
 10
93.2432914844685996
 20
-13.4464498223184421
 30
0.0
 11
93.2432914844685996
 21
-11.4464498229248335
 31
0.0
  0
LINE
  5
17D
100
AcDbEntity
  8
04_Triangle_Panels
 62
256
370
-1
 48
1.0
  6
BYLAYER
100
AcDbLine
 10
95.2435993408877408
 20
-13.4464498223184421
 30
0.0
 11
95.2435993408877408
 21
-11.4464498229248335
 31
0.0
  0
IMAGE
  5
17E
100
AcDbEntity
  8
01_Side_Panels
 62
256
370
-1
 48
1.0
  6
BYLAYER
100
AcDbRasterImage
 90
0
 10
119.1693009225111979
 20
-42.5431680000002785
 30
0.0
 11
0.1
 21
-0.1732050807568877
 31
0.0
 12
0.1732050807568877
 22
0.1
 32
0.0
 13
3.0
 23
9.0
340
17F
 70
15
280
0
281
50
282
50
283
0
  0
LINE
  5
180
100
AcDbEntity
  8
04_Triangle_Panels
 62
256
370
-1
 48
1.0
  6
BYLAYER
100
AcDbLine
 10
91.9932914831738202
 20
-24.7589498223184421
 30
0.0
 11
91.9921031157602584
 21
-13.7689729607756419
 31
0.0
  0
IMAGE
  5
181
100
AcDbEntity
  8
01_Side_Panels
 62
256
370
-1
 48
1.0
  6
BYLAYER
100
AcDbRasterImage
 90
0
 10
161.9999999999998863
 20
-45.8000000000002174
 30
0.0
 11
0.1
 21
0.1732050807568877
 31
0.0
 12
-0.1732050807568877
 22
0.1000000000000001
 32
0.0
 13
3.0
 23
9.0
340
182
 70
15
280
0
281
50
282
50
283
0
  0
LINE
  5
183
100
AcDbEntity
  8
04_Triangle_Panels
 62
256
370
-1
 48
1.0
  6
BYLAYER
100
AcDbLine
 10
91.9921031157602584
 20
-13.7689729607756419
 30
0.0
 11
92.9540778585755305
 21
-13.4471007143504409
 31
0.0
  0
IMAGE
  5
184
100
AcDbEntity
  8
01_Side_Panels
 62
256
370
-1
 48
1.0
  6
BYLAYER
100
AcDbRasterImage
 90
0
 10
119.1693009225111837
 20
-34.3431680000003396
 30
0.0
 11
0.1
 21
-0.1732050807568877
 31
0.0
 12
0.1732050807568877
 22
0.1
 32
0.0
 13
3.0
 23
9.0
340
185
 70
15
280
0
281
50
282
50
283
0
  0
LINE
  5
186
100
AcDbEntity
  8
04_Triangle_Panels
 62
256
370
-1
 48
1.0
  6
BYLAYER
100
AcDbLine
 10
96.494479850587382
 20
-13.7689729607756419
 30
0.0
 11
95.5305597965436988
 21
-13.4464498223184421
 31
0.0
  0
IMAGE
  5
187
100
AcDbEntity
  8
01_Side_Panels
 62
256
370
-1
 48
1.0
  6
BYLAYER
100
AcDbRasterImage
 90
0
 10
161.9999999999998579
 20
-37.6000000000003496
 30
0.0
 11
0.1
 21
0.1732050807568877
 31
0.0
 12
-0.1732050807568877
 22
0.1000000000000001
 32
0.0
 13
3.0
 23
9.0
340
188
 70
15
280
0
281
50
282
50
283
0
  0
LINE
  5
189
100
AcDbEntity
  8
04_Triangle_Panels
 62
256
370
-1
 48
1.0
  6
BYLAYER
100
AcDbLine
 10
96.4932914831738202
 20
-24.7589498223184421
 30
0.0
 11
96.494479850587382
 21
-13.7689729607756419
 31
0.0
  0
IMAGE
  5
18A
100
AcDbEntity
  8
01_Side_Panels
 62
256
370
-1
 48
1.0
  6
BYLAYER
100
AcDbRasterImage
 90
0
 10
119.1693009225111837
 20
-26.1431680000003368
 30
0.0
 11
0.1
 21
-0.1732050807568877
 31
0.0
 12
0.1732050807568877
 22
0.1
 32
0.0
 13
3.0
 23
9.0
340
18B
 70
15
280
0
281
50
282
50
283
0
  0
LINE
  5
18C
100
AcDbEntity
  8
04_Triangle_Panels
 62
256
370
-1
 48
1.0
  6
BYLAYER
100
AcDbLine
 10
96.4932914831738202
 20
-24.7589498223184421
 30
0.0
 11
94.9932914831738202
 21
-24.7589498223184421
 31
0.0
  0
IMAGE
  5
18D
100
AcDbEntity
  8
01_Side_Panels
 62
256
370
-1
 48
1.0
  6
BYLAYER
100
AcDbRasterImage
 90
0
 10
161.9999999999998863
 20
-29.4000000000001549
 30
0.0
 11
0.1
 21
0.1732050807568877
 31
0.0
 12
-0.1732050807568877
 22
0.1000000000000001
 32
0.0
 13
3.0
 23
9.0
340
18E
 70
15
280
0
281
50
282
50
283
0
  0
LINE
  5
18F
100
AcDbEntity
  8
04_Triangle_Panels
 62
256
370
-1
 48
1.0
  6
BYLAYER
100
AcDbLine
 10
94.9932914831738202
 20
-24.7589498223184421
 30
0.0
 11
94.9932914831738202
 21
-13.4464498223184421
 31
0.0
  0
IMAGE
  5
190
100
AcDbEntity
  8
01_Side_Panels
 62
256
370
-1
 48
1.0
  6
BYLAYER
100
AcDbRasterImage
 90
0
 10
119.1693009225111837
 20
-17.943168000000334
 30
0.0
 11
0.1
 21
-0.1732050807568877
 31
0.0
 12
0.1732050807568877
 22
0.1
 32
0.0
 13
3.0
 23
9.0
340
191
 70
15
280
0
281
50
282
50
283
0
  0
IMAGE
  5
192
100
AcDbEntity
  8
01_Side_Panels
 62
256
370
-1
 48
1.0
  6
BYLAYER
100
AcDbRasterImage
 90
0
 10
161.9999999999998579
 20
-21.2000000000002373
 30
0.0
 11
0.1
 21
0.1732050807568877
 31
0.0
 12
-0.1732050807568877
 22
0.1000000000000001
 32
0.0
 13
3.0
 23
9.0
340
193
 70
15
280
0
281
50
282
50
283
0
  0
IMAGE
  5
194
100
AcDbEntity
  8
01_Side_Panels
 62
256
370
-1
 48
1.0
  6
BYLAYER
100
AcDbRasterImage
 90
0
 10
119.1693009225111837
 20
-9.7431680000003311
 30
0.0
 11
0.1
 21
-0.1732050807568877
 31
0.0
 12
0.1732050807568877
 22
0.1
 32
0.0
 13
3.0
 23
9.0
340
195
 70
15
280
0
281
50
282
50
283
0
  0
IMAGE
  5
196
100
AcDbEntity
  8
01_Side_Panels
 62
256
370
-1
 48
1.0
  6
BYLAYER
100
AcDbRasterImage
 90
0
 10
161.9999999999998863
 20
-13.0000000000001421
 30
0.0
 11
0.1
 21
0.1732050807568877
 31
0.0
 12
-0.1732050807568877
 22
0.1000000000000001
 32
0.0
 13
3.0
 23
9.0
340
197
 70
15
280
0
281
50
282
50
283
0
  0
IMAGE
  5
198
100
AcDbEntity
  8
01_Side_Panels
 62
256
370
-1
 48
1.0
  6
BYLAYER
100
AcDbRasterImage
 90
0
 10
119.1693009225111837
 20
-1.5431680000003283
 30
0.0
 11
0.1
 21
-0.1732050807568877
 31
0.0
 12
0.1732050807568877
 22
0.1
 32
0.0
 13
3.0
 23
9.0
340
199
 70
15
280
0
281
50
282
50
283
0
  0
IMAGE
  5
19A
100
AcDbEntity
  8
01_Side_Panels
 62
256
370
-1
 48
1.0
  6
BYLAYER
100
AcDbRasterImage
 90
0
 10
161.9999999999998863
 20
-4.8000000000000567
 30
0.0
 11
0.1
 21
0.1732050807568877
 31
0.0
 12
-0.1732050807568877
 22
0.1000000000000001
 32
0.0
 13
3.0
 23
9.0
340
19B
 70
15
280
0
281
50
282
50
283
0
  0
IMAGE
  5
19C
100
AcDbEntity
  8
01_Side_Panels
 62
256
370
-1
 48
1.0
  6
BYLAYER
100
AcDbRasterImage
 90
0
 10
119.1693009225111837
 20
6.6568319999996746
 30
0.0
 11
0.1
 21
-0.1732050807568877
 31
0.0
 12
0.1732050807568877
 22
0.1
 32
0.0
 13
3.0
 23
9.0
340
19D
 70
15
280
0
281
50
282
50
283
0
  0
IMAGE
  5
19E
100
AcDbEntity
  8
01_Side_Panels
 62
256
370
-1
 48
1.0
  6
BYLAYER
100
AcDbRasterImage
 90
0
 10
161.9999999999998863
 20
3.3999999999993675
 30
0.0
 11
0.1
 21
0.1732050807568877
 31
0.0
 12
-0.1732050807568877
 22
0.1000000000000001
 32
0.0
 13
3.0
 23
9.0
340
19F
 70
15
280
0
281
50
282
50
283
0
  0
IMAGE
  5
1A0
100
AcDbEntity
  8
01_Side_Panels
 62
256
370
-1
 48
1.0
  6
BYLAYER
100
AcDbRasterImage
 90
0
 10
119.1693009225111837
 20
14.8568319999996774
 30
0.0
 11
0.1
 21
-0.1732050807568877
 31
0.0
 12
0.1732050807568877
 22
0.1
 32
0.0
 13
3.0
 23
9.0
340
1A1
 70
15
280
0
281
50
282
50
283
0
  0
IMAGE
  5
1A2
100
AcDbEntity
  8
01_Side_Panels
 62
256
370
-1
 48
1.0
  6
BYLAYER
100
AcDbRasterImage
 90
0
 10
161.9999999999998863
 20
11.5999999999999623
 30
0.0
 11
0.1
 21
0.1732050807568877
 31
0.0
 12
-0.1732050807568877
 22
0.1000000000000001
 32
0.0
 13
3.0
 23
9.0
340
1A3
 70
15
280
0
281
50
282
50
283
0
  0
IMAGE
  5
1A4
100
AcDbEntity
  8
01_Side_Panels
 62
256
370
-1
 48
1.0
  6
BYLAYER
100
AcDbRasterImage
 90
0
 10
119.1693009225111837
 20
23.0568319999996802
 30
0.0
 11
0.1
 21
-0.1732050807568877
 31
0.0
 12
0.1732050807568877
 22
0.1
 32
0.0
 13
3.0
 23
9.0
340
1A5
 70
15
280
0
281
50
282
50
283
0
  0
IMAGE
  5
1A6
100
AcDbEntity
  8
01_Side_Panels
 62
256
370
-1
 48
1.0
  6
BYLAYER
100
AcDbRasterImage
 90
0
 10
161.9999999999998863
 20
19.7999999999999154
 30
0.0
 11
0.1
 21
0.1732050807568877
 31
0.0
 12
-0.1732050807568877
 22
0.1000000000000001
 32
0.0
 13
3.0
 23
9.0
340
1A7
 70
15
280
0
281
50
282
50
283
0
  0
IMAGE
  5
1A8
100
AcDbEntity
  8
01_Side_Panels
 62
256
370
-1
 48
1.0
  6
BYLAYER
100
AcDbRasterImage
 90
0
 10
119.1693009225111837
 20
31.2568319999996831
 30
0.0
 11
0.1
 21
-0.1732050807568877
 31
0.0
 12
0.1732050807568877
 22
0.1
 32
0.0
 13
3.0
 23
9.0
340
1A9
 70
15
280
0
281
50
282
50
283
0
  0
IMAGE
  5
1AA
100
AcDbEntity
  8
01_Side_Panels
 62
256
370
-1
 48
1.0
  6
BYLAYER
100
AcDbRasterImage
 90
0
 10
161.9999999999998863
 20
27.9999999999997584
 30
0.0
 11
0.1
 21
0.1732050807568877
 31
0.0
 12
-0.1732050807568877
 22
0.1000000000000001
 32
0.0
 13
3.0
 23
9.0
340
1AB
 70
15
280
0
281
50
282
50
283
0
  0
MTEXT
  5
1AC
100
AcDbEntity
  8
03_Front_Panels
 62
256
370
-1
 48
1.0
  6
BYLAYER
100
AcDbMText
 10
104.1662703044207205
 20
-105.8964968208646127
 30
0.0
 40
0.11811023625
 41
0.0
 71
3
 72
1
  1
\H0.074;Interior Wall Panels
  7
textstyle0
 50
0.0
 73
2
 44
1.0
  0
MTEXT
  5
1AD
100
AcDbEntity
  8
04_Triangle_Panels
 62
256
370
-1
 48
1.0
  6
BYLAYER
100
AcDbMText
 10
107.1662703051707553
 20
-63.8964968103645958
 30
0.0
 40
0.11811023625
 41
0.0
 71
3
 72
1
  1
\H0.074;Interior Wall Panels
  7
textstyle1
 50
0.0
 73
2
 44
1.0
  0
MTEXT
  5
1AE
100
AcDbEntity
  8
01_Side_Panels
 62
256
370
-1
 48
1.0
  6
BYLAYER
100
AcDbMText
 10
20.0
 20
40.0
 30
0.0
 40
3.0
 41
0.0
 71
1
 72
1
  1
\H7.99999;A
  7
textstyle2
 50
0.0
 73
2
 44
1.0
  0
MTEXT
  5
1AF
100
AcDbEntity
  8
01_Side_Panels
 62
256
370
-1
 48
1.0
  6
BYLAYER
100
AcDbMText
 10
19.5333119999999951
 20
-22.6127974925876174
 30
0.0
 40
3.0
 41
0.0
 71
1
 72
1
  1
\H7.99999;B
  7
textstyle3
 50
0.0
 73
2
 44
1.0
  0
LEADER
  5
1B0
100
AcDbEntity
  8
01_Side_Panels
 62
256
370
-1
 48
1.0
  6
BYLAYER
100
AcDbLeader
  3
Standard
 71
1
 72
0
 73
3
 74
0
 75
0
 40
1.0
 41
10.0
 76
3
 10
92.0
 20
39.9905909637119805
 10
102.6492697524906106
 20
55.9940319313920227
 10
108.0240409524906084
 20
55.9940319313920227
1001
ACAD
1000
DSTYLE
1002
{
1070
40
1040
1.0
1002
}
  0
LEADER
  5
1B1
100
AcDbEntity
  8
01_Side_Panels
 62
256
370
-1
 48
1.0
  6
BYLAYER
100
AcDbLeader
  3
Standard
 71
1
 72
0
 73
3
 74
0
 75
0
 40
1.0
 41
10.0
 76
3
 10
92.2463472715092649
 20
-42.7704691507199186
 10
102.8956170239998755
 20
-58.7739101183999679
 10
108.2703882239998734
 20
-58.7739101183999679
1001
ACAD
1000
DSTYLE
1002
{
1070
40
1040
1.0
1002
}
  0
MTEXT
  5
1B2
100
AcDbEntity
  8
01_Side_Panels
 62
256
370
-1
 48
1.0
  6
BYLAYER
100
AcDbMText
 10
109.3104134042183802
 20
57.7379874168757325
 30
0.0
 40
3.0
 41
0.0
 71
1
 72
1
  1
Factory edge (paint mark)
  7
textstyle4
 50
0.0
 73
2
 44
1.0
  0
MTEXT
  5
1B3
100
AcDbEntity
  8
01_Side_Panels
 62
256
370
-1
 48
1.0
  6
BYLAYER
100
AcDbMText
 10
109.8543882239998766
 20
-57.1899101183999647
 30
0.0
 40
3.0
 41
0.0
 71
1
 72
1
  1
Factory edge (paint mark)
  7
textstyle5
 50
0.0
 73
2
 44
1.0
  0
LINE
  5
1B4
100
AcDbEntity
  8
01_Side_Panels
 62
256
370
-1
 48
1.0
  6
BYLAYER
100
AcDbLine
 10
0.0
 20
-15.0
 30
0.0
 11
92.0
 21
-15.0
 31
0.0
  0
LINE
  5
1B5
100
AcDbEntity
  8
01_Side_Panels
 62
256
370
-1
 48
1.0
  6
BYLAYER
100
AcDbLine
 10
23.9999999999999858
 20
-128.4999999999999716
 30
0.0
 11
115.9999999999999858
 21
-128.4999999999999716
 31
0.0
  0
LINE
  5
1B6
100
AcDbEntity
  8
01_Side_Panels
 62
256
370
-1
 48
1.0
  6
BYLAYER
100
AcDbLine
 10
92.0
 20
-15.0
 30
0.0
 11
54.0
 21
-15.0
 31
0.0
  0
LINE
  5
1B7
100
AcDbEntity
  8
01_Side_Panels
 62
256
370
-1
 48
1.0
  6
BYLAYER
100
AcDbLine
 10
92.0
 20
-15.0
 30
0.0
 11
92.0
 21
-53.0
 31
0.0
  0
LINE
  5
1B8
100
AcDbEntity
  8
01_Side_Panels
 62
256
370
-1
 48
1.0
  6
BYLAYER
100
AcDbLine
 10
115.9999999999999858
 20
-128.4999999999999716
 30
0.0
 11
115.9999999999999858
 21
-166.4999999999999716
 31
0.0
  0
LINE
  5
1B9
100
AcDbEntity
  8
01_Side_Panels
 62
256
370
-1
 48
1.0
  6
BYLAYER
100
AcDbLine
 10
92.0
 20
-53.0
 30
0.0
 11
0.0
 21
-53.0
 31
0.0
  0
LINE
  5
1BA
100
AcDbEntity
  8
01_Side_Panels
 62
256
370
-1
 48
1.0
  6
BYLAYER
100
AcDbLine
 10
115.9999999999999858
 20
-166.4999999999999716
 30
0.0
 11
23.9999999999999858
 21
-166.4999999999999716
 31
0.0
  0
LINE
  5
1BB
100
AcDbEntity
  8
01_Side_Panels
 62
256
370
-1
 48
1.0
  6
BYLAYER
100
AcDbLine
 10
0.0
 20
-53.0
 30
0.0
 11
0.0
 21
-15.0
 31
0.0
  0
LINE
  5
1BC
100
AcDbEntity
  8
01_Side_Panels
 62
256
370
-1
 48
1.0
  6
BYLAYER
100
AcDbLine
 10
23.9999999999999858
 20
-166.4999999999999716
 30
0.0
 11
23.9999999999999858
 21
-128.4999999999999716
 31
0.0
  0
LINE
  5
1BD
100
AcDbEntity
  8
01_Side_Panels
 62
256
370
-1
 48
1.0
  6
BYLAYER
100
AcDbLine
 10
120.0
 20
-53.0
 30
0.0
 11
120.0
 21
33.0
 31
0.0
  0
LINE
  5
1BE
100
AcDbEntity
  8
01_Side_Panels
 62
256
370
-1
 48
1.0
  6
BYLAYER
100
AcDbLine
 10
120.0
 20
33.0
 30
0.0
 11
163.9999999999999716
 21
33.0
 31
0.0
  0
LINE
  5
1BF
100
AcDbEntity
  8
01_Side_Panels
 62
256
370
-1
 48
1.0
  6
BYLAYER
100
AcDbLine
 10
115.9999999999999858
 20
-80.4999999999999716
 30
0.0
 11
160.0
 21
-80.4999999999999716
 31
0.0
  0
LINE
  5
1C0
100
AcDbEntity
  8
01_Side_Panels
 62
256
370
-1
 48
1.0
  6
BYLAYER
100
AcDbLine
 10
164.0
 20
33.0
 30
0.0
 11
163.9999999999999716
 21
-53.0
 31
0.0
  0
LINE
  5
1C1
100
AcDbEntity
  8
01_Side_Panels
 62
256
370
-1
 48
1.0
  6
BYLAYER
100
AcDbLine
 10
160.0
 20
-80.4999999999999716
 30
0.0
 11
160.0
 21
-166.4999999999999716
 31
0.0
  0
LINE
  5
1C2
100
AcDbEntity
  8
01_Side_Panels
 62
256
370
-1
 48
1.0
  6
BYLAYER
100
AcDbLine
 10
163.9999999999999432
 20
-53.0
 30
0.0
 11
120.0
 21
-53.0
 31
0.0
  0
LINE
  5
1C3
100
AcDbEntity
  8
01_Side_Panels
 62
256
370
-1
 48
1.0
  6
BYLAYER
100
AcDbLine
 10
160.0
 20
-166.4999999999999716
 30
0.0
 11
115.9999999999999858
 21
-166.4999999999999716
 31
0.0
  0
MTEXT
  5
1C4
100
AcDbEntity
  8
01_Side_Panels
 62
256
370
-1
 48
1.0
  6
BYLAYER
100
AcDbMText
 10
135.193940203899075
 20
20.3212799999999802
 30
0.0
 40
3.0
 41
0.0
 71
1
 72
1
  1
\H7.99999;C
  7
textstyle12
 50
0.0
 73
2
 44
1.0
  0
LINE
  5
1C5
100
AcDbEntity
  8
01_Side_Panels
 62
256
370
-1
 48
1.0
  6
BYLAYER
100
AcDbLine
 10
164.0
 20
-167.0
 30
0.0
 11
19.9999999999999858
 21
-166.9999999999999716
 31
0.0
  0
LINE
  5
1C6
100
AcDbEntity
  8
01_Side_Panels
 62
256
370
-1
 48
1.0
  6
BYLAYER
100
AcDbLine
 10
164.0
 20
-81.5000000000000284
 30
0.0
 11
20.0000000000000142
 21
-81.4999999999999716
 31
0.0
  0
LINE
  5
1C7
100
AcDbEntity
  8
01_Side_Panels
 62
256
370
-1
 48
1.0
  6
BYLAYER
100
AcDbLine
 10
19.9999999999999858
 20
-166.9999999999999716
 30
0.0
 11
19.9999999999999858
 21
-165.4999999999999716
 31
0.0
  0
LINE
  5
1C8
100
AcDbEntity
  8
01_Side_Panels
 62
256
370
-1
 48
1.0
  6
BYLAYER
100
AcDbLine
 10
20.0000000000000142
 20
-81.4999999999999716
 30
0.0
 11
20.0
 21
-80.0
 31
0.0
  0
LINE
  5
1C9
100
AcDbEntity
  8
01_Side_Panels
 62
256
370
-1
 48
1.0
  6
BYLAYER
100
AcDbLine
 10
19.9999999999999858
 20
-165.4999999999999716
 30
0.0
 11
164.0
 21
-165.5000000000000284
 31
0.0
  0
LINE
  5
1CA
100
AcDbEntity
  8
01_Side_Panels
 62
256
370
-1
 48
1.0
  6
BYLAYER
100
AcDbLine
 10
20.0
 20
-80.0
 30
0.0
 11
164.0
 21
-80.0
 31
0.0
  0
LINE
  5
1CB
100
AcDbEntity
  8
01_Side_Panels
 62
256
370
-1
 48
1.0
  6
BYLAYER
100
AcDbLine
 10
164.0
 20
-165.5000000000000284
 30
0.0
 11
164.0
 21
-167.0
 31
0.0
  0
LINE
  5
1CC
100
AcDbEntity
  8
01_Side_Panels
 62
256
370
-1
 48
1.0
  6
BYLAYER
100
AcDbLine
 10
164.0
 20
-80.0
 30
0.0
 11
164.0
 21
-81.5000000000000284
 31
0.0
  0
LINE
  5
1CD
100
AcDbEntity
  8
01_Side_Panels
 62
256
370
-1
 48
1.0
  6
BYLAYER
100
AcDbLine
 10
164.0
 20
-165.5000000000000284
 30
0.0
 11
162.5
 21
-165.5
 31
0.0
  0
LINE
  5
1CE
100
AcDbEntity
  8
01_Side_Panels
 62
256
370
-1
 48
1.0
  6
BYLAYER
100
AcDbLine
 10
140.75
 20
-165.5
 30
0.0
 11
139.25
 21
-165.5
 31
0.0
  0
LINE
  5
1CF
100
AcDbEntity
  8
01_Side_Panels
 62
256
370
-1
 48
1.0
  6
BYLAYER
100
AcDbLine
 10
116.7499999999999858
 20
-165.5
 30
0.0
 11
115.2500000000000142
 21
-165.5
 31
0.0
  0
LINE
  5
1D0
100
AcDbEntity
  8
01_Side_Panels
 62
256
370
-1
 48
1.0
  6
BYLAYER
100
AcDbLine
 10
92.7499999999999716
 20
-165.5
 30
0.0
 11
91.2499999999999716
 21
-165.5
 31
0.0
  0
LINE
  5
1D1
100
AcDbEntity
  8
01_Side_Panels
 62
256
370
-1
 48
1.0
  6
BYLAYER
100
AcDbLine
 10
68.7499999999999716
 20
-165.4999999999999716
 30
0.0
 11
67.2500000000000142
 21
-165.5
 31
0.0
  0
LINE
  5
1D2
100
AcDbEntity
  8
01_Side_Panels
 62
256
370
-1
 48
1.0
  6
BYLAYER
100
AcDbLine
 10
44.7500000000000142
 20
-165.5
 30
0.0
 11
43.2499999999999929
 21
-165.5
 31
0.0
  0
LINE
  5
1D3
100
AcDbEntity
  8
01_Side_Panels
 62
256
370
-1
 48
1.0
  6
BYLAYER
100
AcDbLine
 10
21.4999999999999858
 20
-165.5
 30
0.0
 11
19.9999999999999858
 21
-165.4999999999999716
 31
0.0
  0
LINE
  5
1D4
100
AcDbEntity
  8
01_Side_Panels
 62
256
370
-1
 48
1.0
  6
BYLAYER
100
AcDbLine
 10
139.25
 20
-165.5
 30
0.0
 11
139.25
 21
-81.5
 31
0.0
  0
LINE
  5
1D5
100
AcDbEntity
  8
01_Side_Panels
 62
256
370
-1
 48
1.0
  6
BYLAYER
100
AcDbLine
 10
115.2500000000000142
 20
-165.5
 30
0.0
 11
115.2500000000000426
 21
-81.5
 31
0.0
  0
LINE
  5
1D6
100
AcDbEntity
  8
01_Side_Panels
 62
256
370
-1
 48
1.0
  6
BYLAYER
100
AcDbLine
 10
91.2499999999999716
 20
-165.5
 30
0.0
 11
91.2500000000000142
 21
-81.5
 31
0.0
  0
LINE
  5
1D7
100
AcDbEntity
  8
01_Side_Panels
 62
256
370
-1
 48
1.0
  6
BYLAYER
100
AcDbLine
 10
67.2500000000000142
 20
-165.5
 30
0.0
 11
67.25
 21
-81.5
 31
0.0
  0
LINE
  5
1D8
100
AcDbEntity
  8
01_Side_Panels
 62
256
370
-1
 48
1.0
  6
BYLAYER
100
AcDbLine
 10
43.2499999999999929
 20
-165.5
 30
0.0
 11
43.25
 21
-81.5
 31
0.0
  0
LINE
  5
1D9
100
AcDbEntity
  8
01_Side_Panels
 62
256
370
-1
 48
1.0
  6
BYLAYER
100
AcDbLine
 10
25.0
 20
-165.5
 30
0.0
 11
25.0
 21
-81.5
 31
0.0
  0
LINE
  5
1DA
100
AcDbEntity
  8
01_Side_Panels
 62
256
370
-1
 48
1.0
  6
BYLAYER
100
AcDbLine
 10
162.5
 20
-81.5
 30
0.0
 11
164.0
 21
-81.5000000000000284
 31
0.0
  0
LINE
  5
1DB
100
AcDbEntity
  8
01_Side_Panels
 62
256
370
-1
 48
1.0
  6
BYLAYER
100
AcDbLine
 10
139.25
 20
-81.5
 30
0.0
 11
140.75
 21
-81.5
 31
0.0
  0
LINE
  5
1DC
100
AcDbEntity
  8
01_Side_Panels
 62
256
370
-1
 48
1.0
  6
BYLAYER
100
AcDbLine
 10
115.2500000000000426
 20
-81.5
 30
0.0
 11
116.7499999999999858
 21
-81.5
 31
0.0
  0
LINE
  5
1DD
100
AcDbEntity
  8
01_Side_Panels
 62
256
370
-1
 48
1.0
  6
BYLAYER
100
AcDbLine
 10
91.2500000000000142
 20
-81.5
 30
0.0
 11
92.7499999999999858
 21
-81.5
 31
0.0
  0
LINE
  5
1DE
100
AcDbEntity
  8
01_Side_Panels
 62
256
370
-1
 48
1.0
  6
BYLAYER
100
AcDbLine
 10
67.25
 20
-81.5
 30
0.0
 11
68.7500000000000142
 21
-81.5
 31
0.0
  0
LINE
  5
1DF
100
AcDbEntity
  8
01_Side_Panels
 62
256
370
-1
 48
1.0
  6
BYLAYER
100
AcDbLine
 10
43.25
 20
-81.5
 30
0.0
 11
44.7499999999999858
 21
-81.5
 31
0.0
  0
LINE
  5
1E0
100
AcDbEntity
  8
01_Side_Panels
 62
256
370
-1
 48
1.0
  6
BYLAYER
100
AcDbLine
 10
20.0000000000000142
 20
-81.4999999999999716
 30
0.0
 11
21.5000000000000142
 21
-81.4999999999999716
 31
0.0
  0
LINE
  5
1E1
100
AcDbEntity
  8
01_Side_Panels
 62
256
370
-1
 48
1.0
  6
BYLAYER
100
AcDbLine
 10
164.0
 20
-81.5000000000000284
 30
0.0
 11
164.0
 21
-165.5000000000000284
 31
0.0
  0
LINE
  5
1E2
100
AcDbEntity
  8
01_Side_Panels
 62
256
370
-1
 48
1.0
  6
BYLAYER
100
AcDbLine
 10
140.75
 20
-81.5
 30
0.0
 11
140.75
 21
-165.5
 31
0.0
  0
LINE
  5
1E3
100
AcDbEntity
  8
01_Side_Panels
 62
256
370
-1
 48
1.0
  6
BYLAYER
100
AcDbLine
 10
116.7499999999999858
 20
-81.5
 30
0.0
 11
116.7499999999999858
 21
-165.5
 31
0.0
  0
LINE
  5
1E4
100
AcDbEntity
  8
01_Side_Panels
 62
256
370
-1
 48
1.0
  6
BYLAYER
100
AcDbLine
 10
92.7499999999999858
 20
-81.5
 30
0.0
 11
92.7499999999999716
 21
-165.5
 31
0.0
  0
LINE
  5
1E5
100
AcDbEntity
  8
01_Side_Panels
 62
256
370
-1
 48
1.0
  6
BYLAYER
100
AcDbLine
 10
68.7500000000000142
 20
-81.5
 30
0.0
 11
68.7499999999999716
 21
-165.4999999999999716
 31
0.0
  0
LINE
  5
1E6
100
AcDbEntity
  8
01_Side_Panels
 62
256
370
-1
 48
1.0
  6
BYLAYER
100
AcDbLine
 10
44.7499999999999858
 20
-81.5
 30
0.0
 11
44.7500000000000142
 21
-165.5
 31
0.0
  0
LINE
  5
1E7
100
AcDbEntity
  8
01_Side_Panels
 62
256
370
-1
 48
1.0
  6
BYLAYER
100
AcDbLine
 10
23.4999999999999858
 20
-81.4999999999999716
 30
0.0
 11
23.4999999999999858
 21
-165.5
 31
0.0
  0
LINE
  5
1E8
100
AcDbEntity
  8
01_Side_Panels
 62
256
370
-1
 48
1.0
  6
BYLAYER
100
AcDbLine
 10
162.5
 20
-165.5
 30
0.0
 11
159.0000000000000568
 21
-165.4999999999999716
 31
0.0
  0
LINE
  5
1E9
100
AcDbEntity
  8
01_Side_Panels
 62
256
370
-1
 48
1.0
  6
BYLAYER
100
AcDbLine
 10
25.0
 20
-165.5
 30
0.0
 11
21.4999999999999858
 21
-165.5
 31
0.0
  0
LINE
  5
1EA
100
AcDbEntity
  8
01_Side_Panels
 62
256
370
-1
 48
1.0
  6
BYLAYER
100
AcDbLine
 10
159.0000000000000568
 20
-165.4999999999999716
 30
0.0
 11
159.0
 21
-81.5000000000000284
 31
0.0
  0
LINE
  5
1EB
100
AcDbEntity
  8
01_Side_Panels
 62
256
370
-1
 48
1.0
  6
BYLAYER
100
AcDbLine
 10
159.0
 20
-81.5000000000000284
 30
0.0
 11
162.5
 21
-81.5
 31
0.0
  0
LINE
  5
1EC
100
AcDbEntity
  8
01_Side_Panels
 62
256
370
-1
 48
1.0
  6
BYLAYER
100
AcDbLine
 10
21.5000000000000142
 20
-81.4999999999999716
 30
0.0
 11
25.0
 21
-81.5
 31
0.0
  0
LINE
  5
1ED
100
AcDbEntity
  8
01_Side_Panels
 62
256
370
-1
 48
1.0
  6
BYLAYER
100
AcDbLine
 10
160.5
 20
-81.5
 30
0.0
 11
160.5
 21
-165.5
 31
0.0
  0
LINE
  5
1EE
100
AcDbEntity
  8
01_Side_Panels
 62
256
370
-1
 48
1.0
  6
BYLAYER
100
AcDbLine
 10
19.9999999999999858
 20
-165.4999999999999716
 30
0.0
 11
20.0000000000000142
 21
-81.4999999999999716
 31
0.0
  0
LINE
  5
1EF
100
AcDbEntity
  8
02_Rear_Panels
 62
256
370
-1
 48
1.0
  6
BYLAYER
100
AcDbLine
 10
135.9999999999999716
 20
-142.0
 30
0.0
 11
136.0
 21
-58.0000000000000071
 31
0.0
  0
MTEXT
  5
1F0
100
AcDbEntity
  8
01_Side_Panels
 62
256
370
-1
 48
1.0
  6
BYLAYER
100
AcDbMText
 10
125.4605427802467403
 20
-89.0018302741884497
 30
0.0
 40
3.0
 41
0.0
 71
1
 72
1
  1
\H7.99999;C
  7
textstyle13
 50
0.0
 73
2
 44
1.0
  0
LINE
  5
1F1
100
AcDbEntity
  8
02_Rear_Panels
 62
256
370
-1
 48
1.0
  6
BYLAYER
100
AcDbLine
 10
134.5000000000000568
 20
-141.9999999999999716
 30
0.0
 11
134.5
 21
-58.0000000000000071
 31
0.0
  0
MTEXT
  5
1F2
100
AcDbEntity
  8
01_Side_Panels
 62
256
370
-1
 48
1.0
  6
BYLAYER
100
AcDbMText
 10
49.9999999999999574
 20
-86.9999999999999716
 30
0.0
 40
3.0
 41
0.0
 71
1
 72
1
  1
\H7.99999;A
  7
textstyle14
 50
0.0
 73
2
 44
1.0
  0
LINE
  5
1F3
100
AcDbEntity
  8
02_Rear_Panels
 62
256
370
-1
 48
1.0
  6
BYLAYER
100
AcDbLine
 10
134.5000000000000568
 20
-141.9999999999999716
 30
0.0
 11
134.5000000000000568
 21
-141.9999999999999716
 31
0.0
  0
MTEXT
  5
1F4
100
AcDbEntity
  8
01_Side_Panels
 62
256
370
-1
 48
1.0
  6
BYLAYER
100
AcDbMText
 10
49.0193523802467723
 20
-133.7915902741884224
 30
0.0
 40
3.0
 41
0.0
 71
1
 72
1
  1
\H7.99999;B
  7
textstyle15
 50
0.0
 73
2
 44
1.0
  0
LINE
  5
1F5
100
AcDbEntity
  8
02_Rear_Panels
 62
256
370
-1
 48
1.0
  6
BYLAYER
100
AcDbLine
 10
134.5000000000000568
 20
-141.9999999999999716
 30
0.0
 11
135.9999999999999716
 21
-142.0
 31
0.0
  0
MTEXT
  5
1F6
100
AcDbEntity
  8
01_Side_Panels
 62
256
370
-1
 48
1.0
  6
BYLAYER
100
AcDbMText
 10
169.9999999999998863
 20
-117.0000000000000853
 30
0.0
 40
3.0
 41
0.0
 71
1
 72
1
  1
Front
  7
textstyle16
 50
0.0
 73
2
 44
1.0
  0
LINE
  5
1F7
100
AcDbEntity
  8
02_Rear_Panels
 62
252
420
10526884
370
-1
 48
1.0
  6
BYLAYER
100
AcDbLine
 10
136.0
 20
-58.0000000000000071
 30
0.0
 11
134.5
 21
-58.0000000000000071
 31
0.0
  0
MTEXT
  5
1F8
100
AcDbEntity
  8
01_Side_Panels
 62
256
370
-1
 48
1.0
  6
BYLAYER
100
AcDbMText
 10
-0.0000000000000675
 20
-116.9999999999999716
 30
0.0
 40
3.0
 41
0.0
 71
1
 72
1
  1
Rear
  7
textstyle17
 50
0.0
 73
2
 44
1.0
  0
LINE
  5
1F9
100
AcDbEntity
  8
02_Rear_Panels
 62
256
370
-1
 48
1.0
  6
BYLAYER
100
AcDbLine
 10
93.7499999999999716
 20
-142.0
 30
0.0
 11
93.75
 21
-57.9999999999999929
 31
0.0
  0
LEADER
  5
1FA
100
AcDbEntity
  8
01_Side_Panels
 62
256
370
-1
 48
1.0
  6
BYLAYER
100
AcDbLeader
  3
Standard
 71
1
 72
0
 73
3
 74
0
 75
0
 40
1.0
 41
10.0
 76
3
 10
115.9999999999999858
 20
-80.4999999999999716
 10
122.2383882239998627
 20
-68.4219101183999641
 10
129.7263882239998622
 20
-68.4219101183999641
1001
ACAD
1000
DSTYLE
1002
{
1070
40
1040
1.0
1002
}
  0
LINE
  5
1FB
100
AcDbEntity
  8
02_Rear_Panels
 62
256
370
-1
 48
1.0
  6
BYLAYER
100
AcDbLine
 10
94.4999999999999574
 20
-142.0
 30
0.0
 11
94.4999999999999574
 21
-142.0
 31
0.0
  0
MTEXT
  5
1FC
100
AcDbEntity
  8
01_Side_Panels
 62
256
370
-1
 48
1.0
  6
BYLAYER
100
AcDbMText
 10
132.1743882239998698
 20
-66.9819101183999663
 30
0.0
 40
3.0
 41
0.0
 71
1
 72
1
  1
Line up factory edges of A and B\Pwith centerline of stud
  7
textstyle18
 50
0.0
 73
2
 44
1.0
  0
LINE
  5
1FD
100
AcDbEntity
  8
02_Rear_Panels
 62
256
370
-1
 48
1.0
  6
BYLAYER
100
AcDbLine
 10
94.4999999999999574
 20
-142.0
 30
0.0
 11
96.0
 21
-142.0
 31
0.0
  0
MTEXT
  5
1FE
100
AcDbEntity
  8
01_Side_Panels
 62
256
370
-1
 48
1.0
  6
BYLAYER
100
AcDbMText
 10
80.0
 20
-140.0
 30
0.0
 40
3.0
 41
0.0
 71
1
 72
1
  1
\H6;1
  7
textstyle19
 50
0.0
 73
2
 44
1.0
  0
LINE
  5
1FF
100
AcDbEntity
  8
02_Rear_Panels
 62
256
370
-1
 48
1.0
  6
BYLAYER
100
AcDbLine
 10
92.9999999999999716
 20
-142.0
 30
0.0
 11
92.9999999999999716
 21
-142.0
 31
0.0
  0
MTEXT
  5
200
100
AcDbEntity
  8
01_Side_Panels
 62
256
370
-1
 48
1.0
  6
BYLAYER
100
AcDbMText
 10
78.9483882712667224
 20
-99.1037008174485976
 30
0.0
 40
3.0
 41
0.0
 71
1
 72
1
  1
\H6;2
  7
textstyle20
 50
0.0
 73
2
 44
1.0
  0
LINE
  5
201
100
AcDbEntity
  8
02_Rear_Panels
 62
256
370
-1
 48
1.0
  6
BYLAYER
100
AcDbLine
 10
90.75
 20
-142.0
 30
0.0
 11
92.2499999999999574
 21
-142.0
 31
0.0
  0
MTEXT
  5
202
100
AcDbEntity
  8
01_Side_Panels
 62
256
370
-1
 48
1.0
  6
BYLAYER
100
AcDbMText
 10
148.2303956783862304
 20
-100.2232756223909576
 30
0.0
 40
3.0
 41
0.0
 71
1
 72
1
  1
\H6;3
  7
textstyle21
 50
0.0
 73
2
 44
1.0
  0
LINE
  5
203
100
AcDbEntity
  8
02_Rear_Panels
 62
256
370
-1
 48
1.0
  6
BYLAYER
100
AcDbLine
 10
68.75
 20
-142.0
 30
0.0
 11
70.2499999999999858
 21
-141.9999999999999716
 31
0.0
  0
CIRCLE
  5
204
100
AcDbEntity
  8
01_Side_Panels
 62
256
370
-1
 48
1.0
  6
BYLAYER
100
AcDbCircle
 10
82.0
 20
-143.0
 30
0.0
 40
4.4721359549995796
  0
LINE
  5
205
100
AcDbEntity
  8
02_Rear_Panels
 62
256
370
-1
 48
1.0
  6
BYLAYER
100
AcDbLine
 10
92.25
 20
-57.9999999999999929
 30
0.0
 11
90.75
 21
-57.9999999999999929
 31
0.0
  0
CIRCLE
  5
206
100
AcDbEntity
  8
01_Side_Panels
 62
256
370
-1
 48
1.0
  6
BYLAYER
100
AcDbCircle
 10
80.9483882712668077
 20
-102.1037008174485408
 30
0.0
 40
4.4721359549995796
  0
LINE
  5
207
100
AcDbEntity
  8
02_Rear_Panels
 62
256
370
-1
 48
1.0
  6
BYLAYER
100
AcDbLine
 10
70.25
 20
-57.9999999999999858
 30
0.0
 11
68.75
 21
-57.9999999999999858
 31
0.0
  0
CIRCLE
  5
208
100
AcDbEntity
  8
01_Side_Panels
 62
256
370
-1
 48
1.0
  6
BYLAYER
100
AcDbCircle
 10
150.2303956783862873
 20
-103.2232756223909007
 30
0.0
 40
4.4721359549995796
  0
LINE
  5
209
100
AcDbEntity
  8
02_Rear_Panels
 62
256
370
-1
 48
1.0
  6
BYLAYER
100
AcDbLine
 10
51.2499999999999716
 20
-141.9999999999999716
 30
0.0
 11
52.7499999999999929
 21
-142.0
 31
0.0
  0
MTEXT
  5
20A
100
AcDbEntity
  8
03_Front_Panels
 62
256
370
-1
 48
1.0
  6
BYLAYER
100
AcDbMText
 10
99.9497338654475982
 20
-116.116624076299459
 30
0.0
 40
0.11811023625
 41
0.0
 71
3
 72
1
  1
\H0.025;Revised 2023-01-18
  7
textstyle22
 50
0.0
 73
2
 44
1.0
  0
MTEXT
  5
20B
100
AcDbEntity
  8
04_Triangle_Panels
 62
256
370
-1
 48
1.0
  6
BYLAYER
100
AcDbMText
 10
102.9497338661976187
 20
-74.1166240657994422
 30
0.0
 40
0.11811023625
 41
0.0
 71
3
 72
1
  1
\H0.025;Revised 2023-01-18
  7
textstyle23
 50
0.0
 73
2
 44
1.0
  0
LINE
  5
20C
100
AcDbEntity
  8
02_Rear_Panels
 62
256
370
-1
 48
1.0
  6
BYLAYER
100
AcDbLine
 10
135.9999999999999716
 20
-142.0
 30
0.0
 11
47.0
 21
-142.0
 31
0.0
  0
LINE
  5
20D
100
AcDbEntity
  8
02_Rear_Panels
 62
256
370
-1
 48
1.0
  6
BYLAYER
100
AcDbLine
 10
135.9999999999999432
 20
-143.5000000000000284
 30
0.0
 11
47.0000000000000071
 21
-143.5
 31
0.0
  0
LINE
  5
20E
100
AcDbEntity
  8
02_Rear_Panels
 62
256
370
-1
 48
1.0
  6
BYLAYER
100
AcDbLine
 10
135.9999999999999432
 20
-143.5000000000000284
 30
0.0
 11
135.9999999999999432
 21
-143.5000000000000284
 31
0.0
  0
LINE
  5
20F
100
AcDbEntity
  8
02_Rear_Panels
 62
256
370
-1
 48
1.0
  6
BYLAYER
100
AcDbLine
 10
135.9999999999999432
 20
-143.5000000000000284
 30
0.0
 11
135.9999999999999716
 21
-142.0
 31
0.0
  0
LINE
  5
210
100
AcDbEntity
  8
02_Rear_Panels
 62
256
370
-1
 48
1.0
  6
BYLAYER
100
AcDbLine
 10
136.0
 20
-56.5000000000000639
 30
0.0
 11
47.0
 21
-56.5
 31
0.0
  0
LINE
  5
211
100
AcDbEntity
  8
02_Rear_Panels
 62
256
370
-1
 48
1.0
  6
BYLAYER
100
AcDbLine
 10
136.0
 20
-58.0000000000000071
 30
0.0
 11
136.0
 21
-56.5000000000000639
 31
0.0
  0
LINE
  5
212
100
AcDbEntity
  8
02_Rear_Panels
 62
256
370
-1
 48
1.0
  6
BYLAYER
100
AcDbLine
 10
119.25
 20
-142.0
 30
0.0
 11
119.25
 21
-58.0
 31
0.0
  0
LINE
  5
213
100
AcDbEntity
  8
02_Rear_Panels
 62
256
370
-1
 48
1.0
  6
BYLAYER
100
AcDbLine
 10
118.5
 20
-142.0
 30
0.0
 11
118.5
 21
-142.0
 31
0.0
  0
LINE
  5
214
100
AcDbEntity
  8
02_Rear_Panels
 62
256
370
-1
 48
1.0
  6
BYLAYER
100
AcDbLine
 10
117.75
 20
-142.0
 30
0.0
 11
119.25
 21
-142.0
 31
0.0
  0
LINE
  5
215
100
AcDbEntity
  8
02_Rear_Panels
 62
256
370
-1
 48
1.0
  6
BYLAYER
100
AcDbLine
 10
119.25
 20
-58.0
 30
0.0
 11
117.75
 21
-58.0
 31
0.0
  0
LINE
  5
216
100
AcDbEntity
  8
02_Rear_Panels
 62
256
370
-1
 48
1.0
  6
BYLAYER
100
AcDbLine
 10
47.0
 20
-142.0
 30
0.0
 11
47.0
 21
-142.0
 31
0.0
  0
LINE
  5
217
100
AcDbEntity
  8
02_Rear_Panels
 62
256
370
-1
 48
1.0
  6
BYLAYER
100
AcDbLine
 10
48.5
 20
-141.9999999999999716
 30
0.0
 11
48.5
 21
-58.1000000000008754
 31
0.0
  0
LINE
  5
218
100
AcDbEntity
  8
02_Rear_Panels
 62
256
370
-1
 48
1.0
  6
BYLAYER
100
AcDbLine
 10
47.0
 20
-142.0
 30
0.0
 11
47.0
 21
-58.0999999999974506
 31
0.0
  0
LINE
  5
219
100
AcDbEntity
  8
02_Rear_Panels
 62
256
370
-1
 48
1.0
  6
BYLAYER
100
AcDbLine
 10
47.0
 20
-142.0
 30
0.0
 11
48.5
 21
-141.9999999999999716
 31
0.0
  0
LINE
  5
21A
100
AcDbEntity
  8
02_Rear_Panels
 62
256
370
-1
 48
1.0
  6
BYLAYER
100
AcDbLine
 10
48.5
 20
-57.9999999999999787
 30
0.0
 11
47.0
 21
-57.9999999999999787
 31
0.0
  0
LINE
  5
21B
100
AcDbEntity
  8
02_Rear_Panels
 62
256
370
-1
 48
1.0
  6
BYLAYER
100
AcDbLine
 10
47.0
 20
-56.5
 30
0.0
 11
47.0
 21
-57.9999999999999787
 31
0.0
  0
LINE
  5
21C
100
AcDbEntity
  8
02_Rear_Panels
 62
256
370
-1
 48
1.0
  6
BYLAYER
100
AcDbLine
 10
93.7499999999999716
 20
-142.0
 30
0.0
 11
92.2499999999999574
 21
-142.0
 31
0.0
  0
LINE
  5
21D
100
AcDbEntity
  8
02_Rear_Panels
 62
256
370
-1
 48
1.0
  6
BYLAYER
100
AcDbLine
 10
92.2499999999999574
 20
-142.0
 30
0.0
 11
92.25
 21
-57.9999999999999929
 31
0.0
  0
LINE
  5
21E
100
AcDbEntity
  8
02_Rear_Panels
 62
256
370
-1
 48
1.0
  6
BYLAYER
100
AcDbLine
 10
70.2499999999999858
 20
-141.9999999999999716
 30
0.0
 11
70.25
 21
-57.9999999999999858
 31
0.0
  0
LINE
  5
21F
100
AcDbEntity
  8
02_Rear_Panels
 62
256
370
-1
 48
1.0
  6
BYLAYER
100
AcDbLine
 10
90.75
 20
-142.0
 30
0.0
 11
90.75
 21
-58.0000000000000071
 31
0.0
  0
LINE
  5
220
100
AcDbEntity
  8
02_Rear_Panels
 62
256
370
-1
 48
1.0
  6
BYLAYER
100
AcDbLine
 10
68.75
 20
-142.0
 30
0.0
 11
68.75
 21
-57.9999999999999929
 31
0.0
  0
LINE
  5
221
100
AcDbEntity
  8
02_Rear_Panels
 62
256
370
-1
 48
1.0
  6
BYLAYER
100
AcDbLine
 10
94.4999999999999574
 20
-142.0
 30
0.0
 11
92.9999999999999716
 21
-142.0
 31
0.0
  0
LINE
  5
222
100
AcDbEntity
  8
02_Rear_Panels
 62
256
370
-1
 48
1.0
  6
BYLAYER
100
AcDbLine
 10
119.25
 20
-58.0
 30
0.0
 11
134.5
 21
-58.0000000000000071
 31
0.0
  0
LINE
  5
223
100
AcDbEntity
  8
02_Rear_Panels
 62
256
370
-1
 48
1.0
  6
BYLAYER
100
AcDbLine
 10
117.75
 20
-58.0
 30
0.0
 11
117.75
 21
-59.4999999999999645
 31
0.0
  0
LINE
  5
224
100
AcDbEntity
  8
02_Rear_Panels
 62
256
370
-1
 48
1.0
  6
BYLAYER
100
AcDbLine
 10
117.75
 20
-59.4999999999999645
 30
0.0
 11
93.75
 21
-59.4999999999999929
 31
0.0
  0
LINE
  5
225
100
AcDbEntity
  8
02_Rear_Panels
 62
256
370
-1
 48
1.0
  6
BYLAYER
100
AcDbLine
 10
93.75
 20
-59.4999999999999929
 30
0.0
 11
93.75
 21
-57.9999999999999929
 31
0.0
  0
LINE
  5
226
100
AcDbEntity
  8
02_Rear_Panels
 62
256
370
-1
 48
1.0
  6
BYLAYER
100
AcDbLine
 10
117.75
 20
-142.0
 30
0.0
 11
117.75
 21
-58.0
 31
0.0
  0
LINE
  5
227
100
AcDbEntity
  8
02_Rear_Panels
 62
256
370
-1
 48
1.0
  6
BYLAYER
100
AcDbLine
 10
93.75
 20
-60.9999999999999929
 30
0.0
 11
93.75
 21
-59.4999999999999929
 31
0.0
  0
LINE
  5
228
100
AcDbEntity
  8
02_Rear_Panels
 62
256
370
-1
 48
1.0
  6
BYLAYER
100
AcDbLine
 10
117.75
 20
-62.5000000000000284
 30
0.0
 11
93.75
 21
-62.4999999999999929
 31
0.0
  0
LINE
  5
229
100
AcDbEntity
  8
02_Rear_Panels
 62
256
370
-1
 48
1.0
  6
BYLAYER
100
AcDbLine
 10
93.75
 20
-62.4999999999999929
 30
0.0
 11
93.75
 21
-60.9999999999999929
 31
0.0
  0
LINE
  5
22A
100
AcDbEntity
  8
02_Rear_Panels
 62
256
370
-1
 48
1.0
  6
BYLAYER
100
AcDbLine
 10
93.75
 20
-60.9999999999999929
 30
0.0
 11
117.75
 21
-60.9999999999999787
 31
0.0
  0
LINE
  5
22B
100
AcDbEntity
  8
02_Rear_Panels
 62
256
370
-1
 48
1.0
  6
BYLAYER
100
AcDbLine
 10
117.75
 20
-100.0
 30
0.0
 11
93.7499999999999858
 21
-100.0
 31
0.0
  0
LINE
  5
22C
100
AcDbEntity
  8
02_Rear_Panels
 62
256
370
-1
 48
1.0
  6
BYLAYER
100
AcDbLine
 10
93.7499999999999858
 20
-100.0
 30
0.0
 11
93.7499999999999858
 21
-98.5
 31
0.0
  0
LINE
  5
22D
100
AcDbEntity
  8
02_Rear_Panels
 62
256
370
-1
 48
1.0
  6
BYLAYER
100
AcDbLine
 10
93.7499999999999858
 20
-98.5
 30
0.0
 11
117.7500000000000142
 21
-98.5
 31
0.0
  0
LINE
  5
22E
100
AcDbEntity
  8
02_Rear_Panels
 62
256
370
-1
 48
1.0
  6
BYLAYER
100
AcDbLine
 10
117.7499999999999716
 20
-98.5000000000000284
 30
0.0
 11
117.75
 21
-100.0
 31
0.0
  0
LINE
  5
22F
100
AcDbEntity
  8
02_Rear_Panels
 62
256
370
-1
 48
1.0
  6
BYLAYER
100
AcDbLine
 10
117.75
 20
-58.0
 30
0.0
 11
93.75
 21
-57.9999999999999929
 31
0.0
  0
LINE
  5
230
100
AcDbEntity
  8
02_Rear_Panels
 62
256
370
-1
 48
1.0
  6
BYLAYER
100
AcDbLine
 10
136.0
 20
-58.0000000000000071
 30
0.0
 11
47.0
 21
-57.9999999999999787
 31
0.0
  0
LINE
  5
231
100
AcDbEntity
  8
02_Rear_Panels
 62
256
370
-1
 48
1.0
  6
BYLAYER
100
AcDbLine
 10
47.0
 20
-142.0
 30
0.0
 11
47.0000000000000071
 21
-143.5
 31
0.0
  0
LINE
  5
232
100
AcDbEntity
  8
02_Rear_Panels
 62
256
370
-1
 48
1.0
  6
BYLAYER
100
AcDbLine
 10
93.75
 20
-57.9999999999999929
 30
0.0
 11
92.25
 21
-57.9999999999999929
 31
0.0
  0
LINE
  5
233
100
AcDbEntity
  8
02_Rear_Panels
 62
256
370
-1
 48
1.0
  6
BYLAYER
100
AcDbLine
 10
117.75
 20
-59.4999999999999645
 30
0.0
 11
117.75
 21
-60.9999999999999787
 31
0.0
  0
LINE
  5
234
100
AcDbEntity
  8
02_Rear_Panels
 62
256
370
-1
 48
1.0
  6
BYLAYER
100
AcDbLine
 10
117.75
 20
-60.9999999999999787
 30
0.0
 11
117.75
 21
-62.5000000000000284
 31
0.0
  0
LINE
  5
235
100
AcDbEntity
  8
02_Rear_Panels
 62
256
370
-1
 48
1.0
  6
BYLAYER
100
AcDbLine
 10
90.75
 20
-57.9999999999999929
 30
0.0
 11
52.75
 21
-57.9999999999999787
 31
0.0
  0
LINE
  5
236
100
AcDbEntity
  8
02_Rear_Panels
 62
256
370
-1
 48
1.0
  6
BYLAYER
100
AcDbLine
 10
47.5
 20
-143.0
 30
0.0
 11
47.5
 21
-105.0
 31
0.0
  0
LINE
  5
237
100
AcDbEntity
  8
02_Rear_Panels
 62
256
370
-1
 48
1.0
  6
BYLAYER
100
AcDbLine
 10
47.3826447185603712
 20
-37.8529537025164444
 30
0.0
 11
47.3826447185603712
 21
0.1470462974835556
 31
0.0
  0
LINE
  5
238
100
AcDbEntity
  8
03_Front_Panels
 62
256
370
-1
 48
1.0
  6
BYLAYER
100
AcDbLine
 10
89.0
 20
-37.8529537025164444
 30
0.0
 11
89.0
 21
0.1470462974835556
 31
0.0
  0
LINE
  5
239
100
AcDbEntity
  8
03_Front_Panels
 62
256
370
-1
 48
1.0
  6
BYLAYER
100
AcDbLine
 10
88.9957083734509524
 20
-154.7166540680198068
 30
0.0
 11
88.9957083734509524
 21
-116.7166540680198068
 31
0.0
  0
LINE
  5
23A
100
AcDbEntity
  8
02_Rear_Panels
 62
256
370
-1
 48
1.0
  6
BYLAYER
100
AcDbLine
 10
47.5
 20
-105.0
 30
0.0
 11
135.5
 21
-105.0
 31
0.0
  0
LINE
  5
23B
100
AcDbEntity
  8
02_Rear_Panels
 62
256
370
-1
 48
1.0
  6
BYLAYER
100
AcDbLine
 10
135.5
 20
-105.0
 30
0.0
 11
135.5
 21
-143.0
 31
0.0
  0
LINE
  5
23C
100
AcDbEntity
  8
02_Rear_Panels
 62
256
370
-1
 48
1.0
  6
BYLAYER
100
AcDbLine
 10
135.382644718560357
 20
0.1470462974835556
 30
0.0
 11
135.382644718560357
 21
-37.8529537025164444
 31
0.0
  0
LINE
  5
23D
100
AcDbEntity
  8
03_Front_Panels
 62
256
370
-1
 48
1.0
  6
BYLAYER
100
AcDbLine
 10
135.5
 20
0.1470462974835556
 30
0.0
 11
135.5
 21
-37.8529537025164444
 31
0.0
  0
LINE
  5
23E
100
AcDbEntity
  8
03_Front_Panels
 62
256
370
-1
 48
1.0
  6
BYLAYER
100
AcDbLine
 10
135.4957083734509524
 20
-116.7166540680198068
 30
0.0
 11
135.4957083734509524
 21
-154.7166540680198068
 31
0.0
  0
LINE
  5
23F
100
AcDbEntity
  8
02_Rear_Panels
 62
256
370
-1
 48
1.0
  6
BYLAYER
100
AcDbLine
 10
135.5
 20
-143.0
 30
0.0
 11
47.5
 21
-143.0
 31
0.0
  0
LINE
  5
240
100
AcDbEntity
  8
02_Rear_Panels
 62
256
370
-1
 48
1.0
  6
BYLAYER
100
AcDbLine
 10
135.382644718560357
 20
-37.8529537025164444
 30
0.0
 11
47.3826447185603712
 21
-37.8529537025164444
 31
0.0
  0
LINE
  5
241
100
AcDbEntity
  8
03_Front_Panels
 62
256
370
-1
 48
1.0
  6
BYLAYER
100
AcDbLine
 10
135.5
 20
-37.8529537025164444
 30
0.0
 11
89.0
 21
-37.8529537025164444
 31
0.0
  0
LINE
  5
242
100
AcDbEntity
  8
03_Front_Panels
 62
256
370
-1
 48
1.0
  6
BYLAYER
100
AcDbLine
 10
135.4957083734509524
 20
-154.7166540680198068
 30
0.0
 11
88.9957083734509524
 21
-154.7166540680198068
 31
0.0
  0
LINE
  5
243
100
AcDbEntity
  8
02_Rear_Panels
 62
256
370
-1
 48
1.0
  6
BYLAYER
100
AcDbLine
 10
47.5
 20
-105.0
 30
0.0
 11
135.5
 21
-105.0
 31
0.0
  0
LINE
  5
244
100
AcDbEntity
  8
02_Rear_Panels
 62
256
370
-1
 48
1.0
  6
BYLAYER
100
AcDbLine
 10
47.3826447185603712
 20
12.1470462974835556
 30
0.0
 11
135.382644718560357
 21
12.1470462974835556
 31
0.0
  0
LINE
  5
245
100
AcDbEntity
  8
02_Rear_Panels
 62
256
370
-1
 48
1.0
  6
BYLAYER
100
AcDbLine
 10
47.3826447185603712
 20
0.1470462974835556
 30
0.0
 11
135.382644718560357
 21
0.1470462974835556
 31
0.0
  0
LINE
  5
246
100
AcDbEntity
  8
03_Front_Panels
 62
256
370
-1
 48
1.0
  6
BYLAYER
100
AcDbLine
 10
47.3826447185603712
 20
12.1470462974835556
 30
0.0
 11
135.382644718560357
 21
12.1470462974835556
 31
0.0
  0
LINE
  5
247
100
AcDbEntity
  8
03_Front_Panels
 62
256
370
-1
 48
1.0
  6
BYLAYER
100
AcDbLine
 10
89.0
 20
0.1470462974835556
 30
0.0
 11
135.5
 21
0.1470462974835556
 31
0.0
  0
LINE
  5
248
100
AcDbEntity
  8
03_Front_Panels
 62
256
370
-1
 48
1.0
  6
BYLAYER
100
AcDbLine
 10
88.9957083734509524
 20
-116.7166540680198068
 30
0.0
 11
135.4957083734509524
 21
-116.7166540680198068
 31
0.0
  0
LINE
  5
249
100
AcDbEntity
  8
03_Front_Panels
 62
256
370
-1
 48
1.0
  6
BYLAYER
100
AcDbLine
 10
47.4957083734509951
 20
-116.7166540680197926
 30
0.0
 11
135.4957083734509808
 21
-116.7166540680197926
 31
0.0
  0
LINE
  5
24A
100
AcDbEntity
  8
02_Rear_Panels
 62
256
370
-1
 48
1.0
  6
BYLAYER
100
AcDbLine
 10
135.5
 20
-105.0
 30
0.0
 11
135.5
 21
-57.0
 31
0.0
  0
LINE
  5
24B
100
AcDbEntity
  8
02_Rear_Panels
 62
256
370
-1
 48
1.0
  6
BYLAYER
100
AcDbLine
 10
135.382644718560357
 20
12.1470462974835556
 30
0.0
 11
135.382644718560357
 21
60.1470462974835556
 31
0.0
  0
LINE
  5
24C
100
AcDbEntity
  8
03_Front_Panels
 62
256
370
-1
 48
1.0
  6
BYLAYER
100
AcDbLine
 10
135.382644718560357
 20
12.1470462974835556
 30
0.0
 11
135.382644718560357
 21
60.1470462974835556
 31
0.0
  0
LINE
  5
24D
100
AcDbEntity
  8
03_Front_Panels
 62
256
370
-1
 48
1.0
  6
BYLAYER
100
AcDbLine
 10
135.4957083734509808
 20
-116.7166540680197926
 30
0.0
 11
135.4957083734509808
 21
-68.7166540680197926
 31
0.0
  0
LINE
  5
24E
100
AcDbEntity
  8
02_Rear_Panels
 62
256
370
-1
 48
1.0
  6
BYLAYER
100
AcDbLine
 10
135.5
 20
-57.0
 30
0.0
 11
47.5
 21
-57.0
 31
0.0
  0
LINE
  5
24F
100
AcDbEntity
  8
02_Rear_Panels
 62
256
370
-1
 48
1.0
  6
BYLAYER
100
AcDbLine
 10
135.382644718560357
 20
60.1470462974835556
 30
0.0
 11
47.3826447185603712
 21
60.1470462974835556
 31
0.0
  0
LINE
  5
250
100
AcDbEntity
  8
03_Front_Panels
 62
256
370
-1
 48
1.0
  6
BYLAYER
100
AcDbLine
 10
135.382644718560357
 20
60.1470462974835556
 30
0.0
 11
47.3826447185603712
 21
60.1470462974835556
 31
0.0
  0
LINE
  5
251
100
AcDbEntity
  8
03_Front_Panels
 62
256
370
-1
 48
1.0
  6
BYLAYER
100
AcDbLine
 10
135.4957083734509808
 20
-68.7166540680197926
 30
0.0
 11
47.4957083734509951
 21
-68.7166540680197926
 31
0.0
  0
LINE
  5
252
100
AcDbEntity
  8
02_Rear_Panels
 62
256
370
-1
 48
1.0
  6
BYLAYER
100
AcDbLine
 10
47.5
 20
-57.0
 30
0.0
 11
47.5
 21
-105.0
 31
0.0
  0
LINE
  5
253
100
AcDbEntity
  8
02_Rear_Panels
 62
256
370
-1
 48
1.0
  6
BYLAYER
100
AcDbLine
 10
47.3826447185603712
 20
60.1470462974835556
 30
0.0
 11
47.3826447185603712
 21
12.1470462974835556
 31
0.0
  0
LINE
  5
254
100
AcDbEntity
  8
03_Front_Panels
 62
256
370
-1
 48
1.0
  6
BYLAYER
100
AcDbLine
 10
47.3826447185603712
 20
60.1470462974835556
 30
0.0
 11
47.3826447185603712
 21
12.1470462974835556
 31
0.0
  0
LINE
  5
255
100
AcDbEntity
  8
03_Front_Panels
 62
256
370
-1
 48
1.0
  6
BYLAYER
100
AcDbLine
 10
47.4957083734509951
 20
-68.7166540680197926
 30
0.0
 11
47.4957083734509951
 21
-116.7166540680197926
 31
0.0
  0
MTEXT
  5
256
100
AcDbEntity
  8
02_Rear_Panels
 62
256
370
-1
 48
1.0
  6
BYLAYER
100
AcDbMText
 10
90.0
 20
-10.0
 30
0.0
 40
3.0
 41
0.0
 71
1
 72
1
  1
\H7.99999;H
  7
textstyle24
 50
0.0
 73
2
 44
1.0
  0
MTEXT
  5
257
100
AcDbEntity
  8
03_Front_Panels
 62
256
370
-1
 48
1.0
  6
BYLAYER
100
AcDbMText
 10
110.0
 20
-10.0
 30
0.0
 40
3.0
 41
0.0
 71
1
 72
1
  1
\H7.99999;E
  7
textstyle25
 50
0.0
 73
2
 44
1.0
  0
MTEXT
  5
258
100
AcDbEntity
  8
03_Front_Panels
 62
256
370
-1
 48
1.0
  6
BYLAYER
100
AcDbMText
 10
103.165566368429694
 20
-128.9482771215212438
 30
0.0
 40
3.0
 41
0.0
 71
1
 72
1
  1
\H7.99999;E
  7
textstyle26
 50
0.0
 73
2
 44
1.0
  0
MTEXT
  5
259
100
AcDbEntity
  8
02_Rear_Panels
 62
256
370
-1
 48
1.0
  6
BYLAYER
100
AcDbMText
 10
89.3626075407298828
 20
46.059338133916313
 30
0.0
 40
3.0
 41
0.0
 71
1
 72
1
  1
\H7.99999;G
  7
textstyle27
 50
0.0
 73
2
 44
1.0
  0
MTEXT
  5
25A
100
AcDbEntity
  8
03_Front_Panels
 62
256
370
-1
 48
1.0
  6
BYLAYER
100
AcDbMText
 10
90.0
 20
40.0
 30
0.0
 40
3.0
 41
0.0
 71
1
 72
1
  1
\H7.99999;D
  7
textstyle28
 50
0.0
 73
2
 44
1.0
  0
MTEXT
  5
25B
100
AcDbEntity
  8
03_Front_Panels
 62
256
370
-1
 48
1.0
  6
BYLAYER
100
AcDbMText
 10
100.6460549768095945
 20
-86.5142458876000546
 30
0.0
 40
3.0
 41
0.0
 71
1
 72
1
  1
\H7.99999;D
  7
textstyle29
 50
0.0
 73
2
 44
1.0
  0
MTEXT
  5
25C
100
AcDbEntity
  8
02_Rear_Panels
 62
256
370
-1
 48
1.0
  6
BYLAYER
100
AcDbMText
 10
75.4268624814674808
 20
-75.8387932867161965
 30
0.0
 40
3.0
 41
0.0
 71
1
 72
1
  1
\H7.99999;G
  7
textstyle30
 50
0.0
 73
2
 44
1.0
  0
MTEXT
  5
25D
100
AcDbEntity
  8
02_Rear_Panels
 62
256
370
-1
 48
1.0
  6
BYLAYER
100
AcDbMText
 10
75.8404764060297083
 20
-118.2935824247981031
 30
0.0
 40
3.0
 41
0.0
 71
1
 72
1
  1
\H7.99999;H
  7
textstyle31
 50
0.0
 73
2
 44
1.0
  0
LINE
  5
25E
100
AcDbEntity
  8
03_Front_Panels
 62
256
370
-1
 48
1.0
  6
BYLAYER
100
AcDbLine
 10
135.7432915046737492
 20
-153.7589498541934745
 30
0.0
 11
135.7432915046737776
 21
-69.7589498331934834
 31
0.0
  0
LINE
  5
25F
100
AcDbEntity
  8
04_Triangle_Panels
 62
256
370
-1
 48
1.0
  6
BYLAYER
100
AcDbLine
 10
138.7432915054237696
 20
-111.7589498436934718
 30
0.0
 11
138.7432915054238265
 21
-27.7589498226934808
 31
0.0
  0
LINE
  5
260
100
AcDbEntity
  8
03_Front_Panels
 62
256
370
-1
 48
1.0
  6
BYLAYER
100
AcDbLine
 10
134.2432915042987531
 20
-153.7589498541934745
 30
0.0
 11
134.2432915042987531
 21
-69.7589498331934834
 31
0.0
  0
LINE
  5
261
100
AcDbEntity
  8
04_Triangle_Panels
 62
256
370
-1
 48
1.0
  6
BYLAYER
100
AcDbLine
 10
137.2432915050487736
 20
-111.7589498436934718
 30
0.0
 11
137.2432915050487736
 21
-27.7589498226934808
 31
0.0
  0
LINE
  5
262
100
AcDbEntity
  8
03_Front_Panels
 62
256
370
-1
 48
1.0
  6
BYLAYER
100
AcDbLine
 10
134.2432915042987531
 20
-153.7589498541934745
 30
0.0
 11
134.2432915042987531
 21
-153.7589498541934745
 31
0.0
  0
LINE
  5
263
100
AcDbEntity
  8
04_Triangle_Panels
 62
256
370
-1
 48
1.0
  6
BYLAYER
100
AcDbLine
 10
137.2432915050487736
 20
-111.7589498436934718
 30
0.0
 11
137.2432915050487736
 21
-111.7589498436934718
 31
0.0
  0
LINE
  5
264
100
AcDbEntity
  8
03_Front_Panels
 62
256
370
-1
 48
1.0
  6
BYLAYER
100
AcDbLine
 10
134.2432915042987531
 20
-153.7589498541934745
 30
0.0
 11
135.7432915046737492
 21
-153.7589498541934745
 31
0.0
  0
LINE
  5
265
100
AcDbEntity
  8
04_Triangle_Panels
 62
256
370
-1
 48
1.0
  6
BYLAYER
100
AcDbLine
 10
137.2432915050487736
 20
-111.7589498436934718
 30
0.0
 11
138.7432915054237696
 21
-111.7589498436934718
 31
0.0
  0
LINE
  5
266
100
AcDbEntity
  8
03_Front_Panels
 62
256
370
-1
 48
1.0
  6
BYLAYER
100
AcDbLine
 10
135.7432915046737776
 20
-69.7589498331934834
 30
0.0
 11
134.2432915042987531
 21
-69.7589498331934834
 31
0.0
  0
LINE
  5
267
100
AcDbEntity
  8
04_Triangle_Panels
 62
256
370
-1
 48
1.0
  6
BYLAYER
100
AcDbLine
 10
138.7432915054238265
 20
-27.7589498226934808
 30
0.0
 11
137.2432915050487736
 21
-27.7589498226934808
 31
0.0
  0
LINE
  5
268
100
AcDbEntity
  8
03_Front_Panels
 62
256
370
-1
 48
1.0
  6
BYLAYER
100
AcDbLine
 10
93.4932914941112472
 20
-153.7589498541934745
 30
0.0
 11
93.4932914941112756
 21
-69.7589498331934692
 31
0.0
  0
LINE
  5
269
100
AcDbEntity
  8
04_Triangle_Panels
 62
256
370
-1
 48
1.0
  6
BYLAYER
100
AcDbLine
 10
96.4932914948612819
 20
-111.7589498436934718
 30
0.0
 11
96.4932914948613103
 21
-27.7589498226934666
 31
0.0
  0
LINE
  5
26A
100
AcDbEntity
  8
03_Front_Panels
 62
256
370
-1
 48
1.0
  6
BYLAYER
100
AcDbLine
 10
94.2432914942987452
 20
-153.7589498541934745
 30
0.0
 11
94.2432914942987452
 21
-153.7589498541934745
 31
0.0
  0
LINE
  5
26B
100
AcDbEntity
  8
04_Triangle_Panels
 62
256
370
-1
 48
1.0
  6
BYLAYER
100
AcDbLine
 10
97.2432914950487799
 20
-111.7589498436934718
 30
0.0
 11
97.2432914950487799
 21
-111.7589498436934718
 31
0.0
  0
LINE
  5
26C
100
AcDbEntity
  8
03_Front_Panels
 62
256
370
-1
 48
1.0
  6
BYLAYER
100
AcDbLine
 10
94.2432914942987452
 20
-153.7589498541934745
 30
0.0
 11
95.7432914946737412
 21
-153.7589498541934745
 31
0.0
  0
LINE
  5
26D
100
AcDbEntity
  8
04_Triangle_Panels
 62
256
370
-1
 48
1.0
  6
BYLAYER
100
AcDbLine
 10
97.2432914950487799
 20
-111.7589498436934718
 30
0.0
 11
98.7432914954237759
 21
-111.7589498436934718
 31
0.0
  0
LINE
  5
26E
100
AcDbEntity
  8
03_Front_Panels
 62
256
370
-1
 48
1.0
  6
BYLAYER
100
AcDbLine
 10
90.4932914933612835
 20
-69.7589498331934692
 30
0.0
 11
88.9932914929862591
 21
-69.7589498331934834
 31
0.0
  0
LINE
  5
26F
100
AcDbEntity
  8
04_Triangle_Panels
 62
256
370
-1
 48
1.0
  6
BYLAYER
100
AcDbLine
 10
93.4932914941113182
 20
-27.7589498226934666
 30
0.0
 11
91.9932914937362938
 21
-27.7589498226934808
 31
0.0
  0
LINE
  5
270
100
AcDbEntity
  8
03_Front_Panels
 62
256
370
-1
 48
1.0
  6
BYLAYER
100
AcDbLine
 10
50.9932914834862814
 20
-153.7589498541934745
 30
0.0
 11
50.9932914834862672
 21
-69.7589498331934834
 31
0.0
  0
LINE
  5
271
100
AcDbEntity
  8
04_Triangle_Panels
 62
256
370
-1
 48
1.0
  6
BYLAYER
100
AcDbLine
 10
53.9932914842363161
 20
-111.7589498436934718
 30
0.0
 11
53.9932914842363019
 21
-27.7589498226934808
 31
0.0
  0
LINE
  5
272
100
AcDbEntity
  8
03_Front_Panels
 62
256
370
-1
 48
1.0
  6
BYLAYER
100
AcDbLine
 10
49.4932914831112285
 20
-153.7589498541934745
 30
0.0
 11
49.4932914831112356
 21
-69.758949833193455
 31
0.0
  0
LINE
  5
273
100
AcDbEntity
  8
04_Triangle_Panels
 62
256
370
-1
 48
1.0
  6
BYLAYER
100
AcDbLine
 10
52.4932914838612632
 20
-111.7589498436934718
 30
0.0
 11
52.4932914838612703
 21
-27.7589498226934523
 31
0.0
  0
LINE
  5
274
100
AcDbEntity
  8
03_Front_Panels
 62
256
370
-1
 48
1.0
  6
BYLAYER
100
AcDbLine
 10
49.4932914831112285
 20
-153.7589498541934745
 30
0.0
 11
50.9932914834862814
 21
-153.7589498541934745
 31
0.0
  0
LINE
  5
275
100
AcDbEntity
  8
04_Triangle_Panels
 62
256
370
-1
 48
1.0
  6
BYLAYER
100
AcDbLine
 10
52.4932914838612632
 20
-111.7589498436934718
 30
0.0
 11
53.9932914842363161
 21
-111.7589498436934718
 31
0.0
  0
LINE
  5
276
100
AcDbEntity
  8
03_Front_Panels
 62
256
370
-1
 48
1.0
  6
BYLAYER
100
AcDbLine
 10
135.7432915046737492
 20
-153.7589498541934745
 30
0.0
 11
46.7432914824237642
 21
-153.7589498541934745
 31
0.0
  0
LINE
  5
277
100
AcDbEntity
  8
04_Triangle_Panels
 62
256
370
-1
 48
1.0
  6
BYLAYER
100
AcDbLine
 10
138.7432915054237696
 20
-111.7589498436934718
 30
0.0
 11
49.7432914831737989
 21
-111.7589498436934718
 31
0.0
  0
LINE
  5
278
100
AcDbEntity
  8
03_Front_Panels
 62
256
370
-1
 48
1.0
  6
BYLAYER
100
AcDbLine
 10
135.7432915046737492
 20
-155.2589498545683853
 30
0.0
 11
46.7432914824237642
 21
-155.2589498545686126
 31
0.0
  0
LINE
  5
279
100
AcDbEntity
  8
04_Triangle_Panels
 62
256
370
-1
 48
1.0
  6
BYLAYER
100
AcDbLine
 10
138.7432915054237696
 20
-113.2589498440683826
 30
0.0
 11
49.7432914831737989
 21
-113.25894984406861
 31
0.0
  0
LINE
  5
27A
100
AcDbEntity
  8
03_Front_Panels
 62
256
370
-1
 48
1.0
  6
BYLAYER
100
AcDbLine
 10
135.7432915046737492
 20
-155.2589498545683853
 30
0.0
 11
135.7432915046737492
 21
-155.2589498545683853
 31
0.0
  0
LINE
  5
27B
100
AcDbEntity
  8
04_Triangle_Panels
 62
256
370
-1
 48
1.0
  6
BYLAYER
100
AcDbLine
 10
138.7432915054237696
 20
-113.2589498440683826
 30
0.0
 11
138.7432915054237696
 21
-113.2589498440683826
 31
0.0
  0
LINE
  5
27C
100
AcDbEntity
  8
03_Front_Panels
 62
256
370
-1
 48
1.0
  6
BYLAYER
100
AcDbLine
 10
135.7432915046737492
 20
-155.2589498545683853
 30
0.0
 11
135.7432915046737492
 21
-153.7589498541934745
 31
0.0
  0
LINE
  5
27D
100
AcDbEntity
  8
04_Triangle_Panels
 62
256
370
-1
 48
1.0
  6
BYLAYER
100
AcDbLine
 10
138.7432915054237696
 20
-113.2589498440683826
 30
0.0
 11
138.7432915054237696
 21
-111.7589498436934718
 31
0.0
  0
LINE
  5
27E
100
AcDbEntity
  8
03_Front_Panels
 62
256
370
-1
 48
1.0
  6
BYLAYER
100
AcDbLine
 10
135.7432915046737492
 20
-68.2589498328184732
 30
0.0
 11
91.2432914935487815
 21
-68.2589498328184874
 31
0.0
  0
LINE
  5
27F
100
AcDbEntity
  8
04_Triangle_Panels
 62
256
370
-1
 48
1.0
  6
BYLAYER
100
AcDbLine
 10
138.7432915054237696
 20
-26.2589498223184705
 30
0.0
 11
94.2432914942988162
 21
-26.2589498223184847
 31
0.0
  0
LINE
  5
280
100
AcDbEntity
  8
03_Front_Panels
 62
256
370
-1
 48
1.0
  6
BYLAYER
100
AcDbLine
 10
91.2432914935487815
 20
-68.2589498328184874
 30
0.0
 11
46.7432914824237926
 21
-68.2589498328184447
 31
0.0
  0
LINE
  5
281
100
AcDbEntity
  8
04_Triangle_Panels
 62
256
370
-1
 48
1.0
  6
BYLAYER
100
AcDbLine
 10
94.2432914942988162
 20
-26.2589498223184847
 30
0.0
 11
49.7432914831738273
 21
-26.2589498223184421
 31
0.0
  0
LINE
  5
282
100
AcDbEntity
  8
03_Front_Panels
 62
256
370
-1
 48
1.0
  6
BYLAYER
100
AcDbLine
 10
135.7432915046737776
 20
-69.7589498331934834
 30
0.0
 11
135.7432915046737492
 21
-68.2589498328184732
 31
0.0
  0
LINE
  5
283
100
AcDbEntity
  8
04_Triangle_Panels
 62
256
370
-1
 48
1.0
  6
BYLAYER
100
AcDbLine
 10
138.7432915054238265
 20
-27.7589498226934808
 30
0.0
 11
138.7432915054237696
 21
-26.2589498223184705
 31
0.0
  0
LINE
  5
284
100
AcDbEntity
  8
03_Front_Panels
 62
256
370
-1
 48
1.0
  6
BYLAYER
100
AcDbLine
 10
117.4932915001112406
 20
-153.7589498541934745
 30
0.0
 11
117.493291500111269
 21
-69.7589498331934692
 31
0.0
  0
LINE
  5
285
100
AcDbEntity
  8
04_Triangle_Panels
 62
256
370
-1
 48
1.0
  6
BYLAYER
100
AcDbLine
 10
120.4932915008612753
 20
-111.7589498436934718
 30
0.0
 11
120.4932915008613037
 21
-27.7589498226934666
 31
0.0
  0
LINE
  5
286
100
AcDbEntity
  8
03_Front_Panels
 62
256
370
-1
 48
1.0
  6
BYLAYER
100
AcDbLine
 10
118.2432915002987386
 20
-153.7589498541934745
 30
0.0
 11
118.2432915002987386
 21
-153.7589498541934745
 31
0.0
  0
LINE
  5
287
100
AcDbEntity
  8
04_Triangle_Panels
 62
256
370
-1
 48
1.0
  6
BYLAYER
100
AcDbLine
 10
121.2432915010487733
 20
-111.7589498436934718
 30
0.0
 11
121.2432915010487733
 21
-111.7589498436934718
 31
0.0
  0
LINE
  5
288
100
AcDbEntity
  8
03_Front_Panels
 62
256
370
-1
 48
1.0
  6
BYLAYER
100
AcDbLine
 10
117.4932915001112406
 20
-153.7589498541934745
 30
0.0
 11
118.9932915004862366
 21
-153.7589498541934745
 31
0.0
  0
LINE
  5
289
100
AcDbEntity
  8
04_Triangle_Panels
 62
256
370
-1
 48
1.0
  6
BYLAYER
100
AcDbLine
 10
120.4932915008612753
 20
-111.7589498436934718
 30
0.0
 11
121.9932915012362713
 21
-111.7589498436934718
 31
0.0
  0
LINE
  5
28A
100
AcDbEntity
  8
03_Front_Panels
 62
256
370
-1
 48
1.0
  6
BYLAYER
100
AcDbLine
 10
118.993291500486265
 20
-69.7589498331934692
 30
0.0
 11
117.493291500111269
 21
-69.7589498331934692
 31
0.0
  0
LINE
  5
28B
100
AcDbEntity
  8
04_Triangle_Panels
 62
256
370
-1
 48
1.0
  6
BYLAYER
100
AcDbLine
 10
121.9932915012362997
 20
-27.7589498226934666
 30
0.0
 11
120.4932915008613037
 21
-27.7589498226934666
 31
0.0
  0
LINE
  5
28C
100
AcDbEntity
  8
03_Front_Panels
 62
256
370
-1
 48
1.0
  6
BYLAYER
100
AcDbLine
 10
46.7432914824237642
 20
-153.7589498541934745
 30
0.0
 11
46.7432914824237642
 21
-153.7589498541934745
 31
0.0
  0
LINE
  5
28D
100
AcDbEntity
  8
04_Triangle_Panels
 62
256
370
-1
 48
1.0
  6
BYLAYER
100
AcDbLine
 10
49.7432914831737989
 20
-111.7589498436934718
 30
0.0
 11
49.7432914831737989
 21
-111.7589498436934718
 31
0.0
  0
LINE
  5
28E
100
AcDbEntity
  8
03_Front_Panels
 62
256
370
-1
 48
1.0
  6
BYLAYER
100
AcDbLine
 10
48.2432914827987602
 20
-153.7589498541934745
 30
0.0
 11
48.2432914827987815
 21
-69.8589498332184604
 31
0.0
  0
LINE
  5
28F
100
AcDbEntity
  8
04_Triangle_Panels
 62
256
370
-1
 48
1.0
  6
BYLAYER
100
AcDbLine
 10
51.2432914835487949
 20
-111.7589498436934718
 30
0.0
 11
51.2432914835488162
 21
-27.8589498227184578
 31
0.0
  0
LINE
  5
290
100
AcDbEntity
  8
03_Front_Panels
 62
256
370
-1
 48
1.0
  6
BYLAYER
100
AcDbLine
 10
46.7432914824237642
 20
-153.7589498541934745
 30
0.0
 11
46.7432914824237642
 21
-69.8589498332184746
 31
0.0
  0
LINE
  5
291
100
AcDbEntity
  8
04_Triangle_Panels
 62
256
370
-1
 48
1.0
  6
BYLAYER
100
AcDbLine
 10
49.7432914831737989
 20
-111.7589498436934718
 30
0.0
 11
49.7432914831737989
 21
-27.858949822718472
 31
0.0
  0
LINE
  5
292
100
AcDbEntity
  8
03_Front_Panels
 62
256
370
-1
 48
1.0
  6
BYLAYER
100
AcDbLine
 10
46.7432914824237642
 20
-153.7589498541934745
 30
0.0
 11
48.2432914827987602
 21
-153.7589498541934745
 31
0.0
  0
LINE
  5
293
100
AcDbEntity
  8
04_Triangle_Panels
 62
256
370
-1
 48
1.0
  6
BYLAYER
100
AcDbLine
 10
49.7432914831737989
 20
-111.7589498436934718
 30
0.0
 11
51.2432914835487949
 21
-111.7589498436934718
 31
0.0
  0
LINE
  5
294
100
AcDbEntity
  8
03_Front_Panels
 62
256
370
-1
 48
1.0
  6
BYLAYER
100
AcDbLine
 10
48.2432914827987958
 20
-69.7589498331934692
 30
0.0
 11
46.7432914824237926
 21
-69.758949833193455
 31
0.0
  0
LINE
  5
295
100
AcDbEntity
  8
04_Triangle_Panels
 62
256
370
-1
 48
1.0
  6
BYLAYER
100
AcDbLine
 10
51.2432914835488305
 20
-27.7589498226934666
 30
0.0
 11
49.7432914831738273
 21
-27.7589498226934523
 31
0.0
  0
LINE
  5
296
100
AcDbEntity
  8
03_Front_Panels
 62
256
370
-1
 48
1.0
  6
BYLAYER
100
AcDbLine
 10
46.7432914824237926
 20
-68.2589498328184447
 30
0.0
 11
46.7432914824237926
 21
-69.758949833193455
 31
0.0
  0
LINE
  5
297
100
AcDbEntity
  8
04_Triangle_Panels
 62
256
370
-1
 48
1.0
  6
BYLAYER
100
AcDbLine
 10
49.7432914831738273
 20
-26.2589498223184421
 30
0.0
 11
49.7432914831738273
 21
-27.7589498226934523
 31
0.0
  0
LINE
  5
298
100
AcDbEntity
  8
03_Front_Panels
 62
256
370
-1
 48
1.0
  6
BYLAYER
100
AcDbLine
 10
93.4932914941112472
 20
-153.7589498541934745
 30
0.0
 11
91.9932914937362511
 21
-153.7589498541934745
 31
0.0
  0
LINE
  5
299
100
AcDbEntity
  8
04_Triangle_Panels
 62
256
370
-1
 48
1.0
  6
BYLAYER
100
AcDbLine
 10
96.4932914948612819
 20
-111.7589498436934718
 30
0.0
 11
94.9932914944862858
 21
-111.7589498436934718
 31
0.0
  0
LINE
  5
29A
100
AcDbEntity
  8
03_Front_Panels
 62
256
370
-1
 48
1.0
  6
BYLAYER
100
AcDbLine
 10
90.4932914933612835
 20
-153.7589498541934745
 30
0.0
 11
90.4932914933612835
 21
-69.7589498331934692
 31
0.0
  0
LINE
  5
29B
100
AcDbEntity
  8
04_Triangle_Panels
 62
256
370
-1
 48
1.0
  6
BYLAYER
100
AcDbLine
 10
93.4932914941113182
 20
-111.7589498436934718
 30
0.0
 11
93.4932914941113182
 21
-27.7589498226934666
 31
0.0
  0
LINE
  5
29C
100
AcDbEntity
  8
03_Front_Panels
 62
256
370
-1
 48
1.0
  6
BYLAYER
100
AcDbLine
 10
91.9932914937362511
 20
-153.7589498541934745
 30
0.0
 11
91.9932914937362796
 21
-69.7589498331934834
 31
0.0
  0
LINE
  5
29D
100
AcDbEntity
  8
04_Triangle_Panels
 62
256
370
-1
 48
1.0
  6
BYLAYER
100
AcDbLine
 10
94.9932914944862858
 20
-111.7589498436934718
 30
0.0
 11
94.9932914944863143
 21
-27.7589498226934808
 31
0.0
  0
LINE
  5
29E
100
AcDbEntity
  8
03_Front_Panels
 62
256
370
-1
 48
1.0
  6
BYLAYER
100
AcDbLine
 10
88.9932914929862307
 20
-153.7589498541934745
 30
0.0
 11
88.9932914929862591
 21
-69.7589498331934976
 31
0.0
  0
LINE
  5
29F
100
AcDbEntity
  8
04_Triangle_Panels
 62
256
370
-1
 48
1.0
  6
BYLAYER
100
AcDbLine
 10
91.9932914937362654
 20
-111.7589498436934718
 30
0.0
 11
91.9932914937362938
 21
-27.758949822693495
 31
0.0
  0
LINE
  5
2A0
100
AcDbEntity
  8
03_Front_Panels
 62
256
370
-1
 48
1.0
  6
BYLAYER
100
AcDbLine
 10
94.2432914942987452
 20
-153.7589498541934745
 30
0.0
 11
92.7432914939237492
 21
-153.7589498541934745
 31
0.0
  0
LINE
  5
2A1
100
AcDbEntity
  8
04_Triangle_Panels
 62
256
370
-1
 48
1.0
  6
BYLAYER
100
AcDbLine
 10
97.2432914950487799
 20
-111.7589498436934718
 30
0.0
 11
95.7432914946737839
 21
-111.7589498436934718
 31
0.0
  0
LINE
  5
2A2
100
AcDbEntity
  8
03_Front_Panels
 62
256
370
-1
 48
1.0
  6
BYLAYER
100
AcDbLine
 10
118.993291500486265
 20
-69.7589498331934692
 30
0.0
 11
134.2432915042987531
 21
-69.7589498331934834
 31
0.0
  0
LINE
  5
2A3
100
AcDbEntity
  8
04_Triangle_Panels
 62
256
370
-1
 48
1.0
  6
BYLAYER
100
AcDbLine
 10
121.9932915012362997
 20
-27.7589498226934666
 30
0.0
 11
137.2432915050487736
 21
-27.7589498226934808
 31
0.0
  0
LINE
  5
2A4
100
AcDbEntity
  8
03_Front_Panels
 62
256
370
-1
 48
1.0
  6
BYLAYER
100
AcDbLine
 10
134.2432915042987531
 20
-71.2589498335684794
 30
0.0
 11
134.2432915042987531
 21
-72.7589498339434613
 31
0.0
  0
LINE
  5
2A5
100
AcDbEntity
  8
04_Triangle_Panels
 62
256
370
-1
 48
1.0
  6
BYLAYER
100
AcDbLine
 10
137.2432915050487736
 20
-29.2589498230684768
 30
0.0
 11
137.2432915050487736
 21
-30.7589498234434586
 31
0.0
  0
LINE
  5
2A6
100
AcDbEntity
  8
03_Front_Panels
 62
256
370
-1
 48
1.0
  6
BYLAYER
100
AcDbLine
 10
117.493291500111269
 20
-69.7589498331934692
 30
0.0
 11
117.493291500111269
 21
-71.2589498335684794
 31
0.0
  0
LINE
  5
2A7
100
AcDbEntity
  8
04_Triangle_Panels
 62
256
370
-1
 48
1.0
  6
BYLAYER
100
AcDbLine
 10
120.4932915008613037
 20
-27.7589498226934666
 30
0.0
 11
120.4932915008613037
 21
-29.2589498230684768
 31
0.0
  0
LINE
  5
2A8
100
AcDbEntity
  8
03_Front_Panels
 62
256
370
-1
 48
1.0
  6
BYLAYER
100
AcDbLine
 10
117.493291500111269
 20
-71.2589498335684794
 30
0.0
 11
93.4932914941112756
 21
-71.2589498335684652
 31
0.0
  0
LINE
  5
2A9
100
AcDbEntity
  8
04_Triangle_Panels
 62
256
370
-1
 48
1.0
  6
BYLAYER
100
AcDbLine
 10
120.4932915008613037
 20
-29.2589498230684768
 30
0.0
 11
96.4932914948613103
 21
-29.2589498230684626
 31
0.0
  0
LINE
  5
2AA
100
AcDbEntity
  8
03_Front_Panels
 62
256
370
-1
 48
1.0
  6
BYLAYER
100
AcDbLine
 10
93.4932914941112756
 20
-71.2589498335684652
 30
0.0
 11
93.4932914941112756
 21
-69.7589498331934692
 31
0.0
  0
LINE
  5
2AB
100
AcDbEntity
  8
04_Triangle_Panels
 62
256
370
-1
 48
1.0
  6
BYLAYER
100
AcDbLine
 10
96.4932914948613103
 20
-29.2589498230684626
 30
0.0
 11
96.4932914948613103
 21
-27.7589498226934666
 31
0.0
  0
LINE
  5
2AC
100
AcDbEntity
  8
03_Front_Panels
 62
256
370
-1
 48
1.0
  6
BYLAYER
100
AcDbLine
 10
117.4932915001112406
 20
-153.7589498541934745
 30
0.0
 11
117.4932915001112406
 21
-70.2589498333184679
 31
0.0
  0
LINE
  5
2AD
100
AcDbEntity
  8
04_Triangle_Panels
 62
256
370
-1
 48
1.0
  6
BYLAYER
100
AcDbLine
 10
120.4932915008612753
 20
-111.7589498436934718
 30
0.0
 11
120.4932915008612753
 21
-28.2589498228184652
 31
0.0
  0
LINE
  5
2AE
100
AcDbEntity
  8
03_Front_Panels
 62
256
370
-1
 48
1.0
  6
BYLAYER
100
AcDbLine
 10
118.993291500486265
 20
-153.7589498541934745
 30
0.0
 11
118.9932915004862934
 21
-69.7589498331934692
 31
0.0
  0
LINE
  5
2AF
100
AcDbEntity
  8
04_Triangle_Panels
 62
256
370
-1
 48
1.0
  6
BYLAYER
100
AcDbLine
 10
121.9932915012362997
 20
-111.7589498436934718
 30
0.0
 11
121.9932915012363281
 21
-27.7589498226934666
 31
0.0
  0
LINE
  5
2B0
100
AcDbEntity
  8
03_Front_Panels
 62
256
370
-1
 48
1.0
  6
BYLAYER
100
AcDbLine
 10
93.4932914941112756
 20
-72.7589498339434613
 30
0.0
 11
93.4932914941112756
 21
-71.2589498335684652
 31
0.0
  0
LINE
  5
2B1
100
AcDbEntity
  8
04_Triangle_Panels
 62
256
370
-1
 48
1.0
  6
BYLAYER
100
AcDbLine
 10
96.4932914948613103
 20
-30.7589498234434586
 30
0.0
 11
96.4932914948613103
 21
-29.2589498230684626
 31
0.0
  0
LINE
  5
2B2
100
AcDbEntity
  8
03_Front_Panels
 62
256
370
-1
 48
1.0
  6
BYLAYER
100
AcDbLine
 10
117.493291500111269
 20
-74.2589498343184857
 30
0.0
 11
93.4932914941112756
 21
-74.2589498343184715
 31
0.0
  0
LINE
  5
2B3
100
AcDbEntity
  8
04_Triangle_Panels
 62
256
370
-1
 48
1.0
  6
BYLAYER
100
AcDbLine
 10
120.4932915008613037
 20
-32.2589498238184831
 30
0.0
 11
96.4932914948613103
 21
-32.2589498238184689
 31
0.0
  0
LINE
  5
2B4
100
AcDbEntity
  8
03_Front_Panels
 62
256
370
-1
 48
1.0
  6
BYLAYER
100
AcDbLine
 10
93.4932914941112756
 20
-74.2589498343184715
 30
0.0
 11
93.4932914941112756
 21
-72.7589498339434613
 31
0.0
  0
LINE
  5
2B5
100
AcDbEntity
  8
04_Triangle_Panels
 62
256
370
-1
 48
1.0
  6
BYLAYER
100
AcDbLine
 10
96.4932914948613103
 20
-32.2589498238184689
 30
0.0
 11
96.4932914948613103
 21
-30.7589498234434586
 31
0.0
  0
LINE
  5
2B6
100
AcDbEntity
  8
03_Front_Panels
 62
256
370
-1
 48
1.0
  6
BYLAYER
100
AcDbLine
 10
93.4932914941112756
 20
-72.7589498339434613
 30
0.0
 11
117.493291500111269
 21
-72.7589498339434613
 31
0.0
  0
LINE
  5
2B7
100
AcDbEntity
  8
04_Triangle_Panels
 62
256
370
-1
 48
1.0
  6
BYLAYER
100
AcDbLine
 10
96.4932914948613103
 20
-30.7589498234434586
 30
0.0
 11
120.4932915008613037
 21
-30.7589498234434586
 31
0.0
  0
LINE
  5
2B8
100
AcDbEntity
  8
03_Front_Panels
 62
256
370
-1
 48
1.0
  6
BYLAYER
100
AcDbLine
 10
117.493291500111269
 20
-111.7589498436934718
 30
0.0
 11
93.4932914941112472
 21
-111.7589498436934718
 31
0.0
  0
LINE
  5
2B9
100
AcDbEntity
  8
04_Triangle_Panels
 62
256
370
-1
 48
1.0
  6
BYLAYER
100
AcDbLine
 10
120.4932915008613037
 20
-69.7589498331934692
 30
0.0
 11
96.4932914948612819
 21
-69.7589498331934692
 31
0.0
  0
LINE
  5
2BA
100
AcDbEntity
  8
03_Front_Panels
 62
256
370
-1
 48
1.0
  6
BYLAYER
100
AcDbLine
 10
93.4932914941112472
 20
-111.7589498436934718
 30
0.0
 11
93.4932914941112472
 21
-110.2589498433184758
 31
0.0
  0
LINE
  5
2BB
100
AcDbEntity
  8
04_Triangle_Panels
 62
256
370
-1
 48
1.0
  6
BYLAYER
100
AcDbLine
 10
96.4932914948612819
 20
-69.7589498331934692
 30
0.0
 11
96.4932914948612819
 21
-68.2589498328184732
 31
0.0
  0
LINE
  5
2BC
100
AcDbEntity
  8
03_Front_Panels
 62
256
370
-1
 48
1.0
  6
BYLAYER
100
AcDbLine
 10
93.4932914941112472
 20
-110.2589498433184758
 30
0.0
 11
117.493291500111269
 21
-110.2589498433184758
 31
0.0
  0
LINE
  5
2BD
100
AcDbEntity
  8
04_Triangle_Panels
 62
256
370
-1
 48
1.0
  6
BYLAYER
100
AcDbLine
 10
96.4932914948612819
 20
-68.2589498328184732
 30
0.0
 11
120.4932915008613037
 21
-68.2589498328184732
 31
0.0
  0
LINE
  5
2BE
100
AcDbEntity
  8
03_Front_Panels
 62
256
370
-1
 48
1.0
  6
BYLAYER
100
AcDbLine
 10
117.493291500111269
 20
-110.2589498433184758
 30
0.0
 11
117.493291500111269
 21
-111.7589498436934718
 31
0.0
  0
LINE
  5
2BF
100
AcDbEntity
  8
04_Triangle_Panels
 62
256
370
-1
 48
1.0
  6
BYLAYER
100
AcDbLine
 10
120.4932915008613037
 20
-68.2589498328184732
 30
0.0
 11
120.4932915008613037
 21
-69.7589498331934692
 31
0.0
  0
LINE
  5
2C0
100
AcDbEntity
  8
03_Front_Panels
 62
256
370
-1
 48
1.0
  6
BYLAYER
100
AcDbLine
 10
117.493291500111269
 20
-69.7589498331934692
 30
0.0
 11
93.4932914941112756
 21
-69.7589498331934692
 31
0.0
  0
LINE
  5
2C1
100
AcDbEntity
  8
04_Triangle_Panels
 62
256
370
-1
 48
1.0
  6
BYLAYER
100
AcDbLine
 10
120.4932915008613037
 20
-27.7589498226934666
 30
0.0
 11
96.4932914948613103
 21
-27.7589498226934666
 31
0.0
  0
LINE
  5
2C2
100
AcDbEntity
  8
03_Front_Panels
 62
256
370
-1
 48
1.0
  6
BYLAYER
100
AcDbLine
 10
135.7432915046737776
 20
-69.7589498331934834
 30
0.0
 11
46.7432914824237926
 21
-69.758949833193455
 31
0.0
  0
LINE
  5
2C3
100
AcDbEntity
  8
04_Triangle_Panels
 62
256
370
-1
 48
1.0
  6
BYLAYER
100
AcDbLine
 10
138.7432915054238265
 20
-27.7589498226934808
 30
0.0
 11
49.7432914831738273
 21
-27.7589498226934523
 31
0.0
  0
LINE
  5
2C4
100
AcDbEntity
  8
03_Front_Panels
 62
256
370
-1
 48
1.0
  6
BYLAYER
100
AcDbLine
 10
46.7432914824237642
 20
-153.7589498541934745
 30
0.0
 11
46.7432914824237642
 21
-155.2589498545686126
 31
0.0
  0
LINE
  5
2C5
100
AcDbEntity
  8
04_Triangle_Panels
 62
256
370
-1
 48
1.0
  6
BYLAYER
100
AcDbLine
 10
49.7432914831737989
 20
-111.7589498436934718
 30
0.0
 11
49.7432914831737989
 21
-113.25894984406861
 31
0.0
  0
LINE
  5
2C6
100
AcDbEntity
  8
03_Front_Panels
 62
256
370
-1
 48
1.0
  6
BYLAYER
100
AcDbLine
 10
93.4932914941112756
 20
-69.7589498331934692
 30
0.0
 11
91.9932914937362796
 21
-69.7589498331934834
 31
0.0
  0
LINE
  5
2C7
100
AcDbEntity
  8
04_Triangle_Panels
 62
256
370
-1
 48
1.0
  6
BYLAYER
100
AcDbLine
 10
96.4932914948613103
 20
-27.7589498226934666
 30
0.0
 11
94.9932914944863143
 21
-27.7589498226934808
 31
0.0
  0
LINE
  5
2C8
100
AcDbEntity
  8
03_Front_Panels
 62
256
370
-1
 48
1.0
  6
BYLAYER
100
AcDbLine
 10
117.493291500111269
 20
-71.2589498335684794
 30
0.0
 11
117.493291500111269
 21
-72.7589498339434613
 31
0.0
  0
LINE
  5
2C9
100
AcDbEntity
  8
04_Triangle_Panels
 62
256
370
-1
 48
1.0
  6
BYLAYER
100
AcDbLine
 10
120.4932915008613037
 20
-29.2589498230684768
 30
0.0
 11
120.4932915008613037
 21
-30.7589498234434586
 31
0.0
  0
LINE
  5
2CA
100
AcDbEntity
  8
03_Front_Panels
 62
256
370
-1
 48
1.0
  6
BYLAYER
100
AcDbLine
 10
117.493291500111269
 20
-72.7589498339434613
 30
0.0
 11
117.493291500111269
 21
-74.2589498343184857
 31
0.0
  0
LINE
  5
2CB
100
AcDbEntity
  8
04_Triangle_Panels
 62
256
370
-1
 48
1.0
  6
BYLAYER
100
AcDbLine
 10
120.4932915008613037
 20
-30.7589498234434586
 30
0.0
 11
120.4932915008613037
 21
-32.2589498238184831
 31
0.0
  0
LINE
  5
2CC
100
AcDbEntity
  8
03_Front_Panels
 62
256
370
-1
 48
1.0
  6
BYLAYER
100
AcDbLine
 10
50.9932914834862672
 20
-69.7589498331934834
 30
0.0
 11
48.2432914827987958
 21
-69.7589498331934692
 31
0.0
  0
LINE
  5
2CD
100
AcDbEntity
  8
04_Triangle_Panels
 62
256
370
-1
 48
1.0
  6
BYLAYER
100
AcDbLine
 10
53.9932914842363019
 20
-27.7589498226934808
 30
0.0
 11
51.2432914835488305
 21
-27.7589498226934666
 31
0.0
  0
LINE
  5
2CE
100
AcDbEntity
  8
03_Front_Panels
 62
256
370
-1
 48
1.0
  6
BYLAYER
100
AcDbLine
 10
50.9932914834862814
 20
-153.7589498541934745
 30
0.0
 11
48.2432914827987602
 21
-153.7589498541934745
 31
0.0
  0
LINE
  5
2CF
100
AcDbEntity
  8
04_Triangle_Panels
 62
256
370
-1
 48
1.0
  6
BYLAYER
100
AcDbLine
 10
53.9932914842363161
 20
-111.7589498436934718
 30
0.0
 11
51.2432914835487949
 21
-111.7589498436934718
 31
0.0
  0
LINE
  5
2D0
100
AcDbEntity
  8
03_Front_Panels
 62
256
370
-1
 48
1.0
  6
BYLAYER
100
AcDbLine
 10
48.2432914827987886
 20
-82.7662652247369834
 30
0.0
 11
48.2432914827987958
 21
-69.7589498331934692
 31
0.0
  0
LINE
  5
2D1
100
AcDbEntity
  8
04_Triangle_Panels
 62
256
370
-1
 48
1.0
  6
BYLAYER
100
AcDbLine
 10
51.2432914835488234
 20
-40.7662652142369808
 30
0.0
 11
51.2432914835488305
 21
-27.7589498226934666
 31
0.0
  0
LINE
  5
2D2
100
AcDbEntity
  8
03_Front_Panels
 62
256
370
-1
 48
1.0
  6
BYLAYER
100
AcDbLine
 10
88.9932914929862591
 20
-71.2589498335684652
 30
0.0
 11
50.9932914834863027
 21
-71.258949833568451
 31
0.0
  0
LINE
  5
2D3
100
AcDbEntity
  8
04_Triangle_Panels
 62
256
370
-1
 48
1.0
  6
BYLAYER
100
AcDbLine
 10
91.9932914937362938
 20
-29.2589498230684626
 30
0.0
 11
53.9932914842363374
 21
-29.2589498230684484
 31
0.0
  0
LINE
  5
2D4
100
AcDbEntity
  8
03_Front_Panels
 62
256
370
-1
 48
1.0
  6
BYLAYER
100
AcDbLine
 10
50.9932914834863169
 20
-72.7589498339434328
 30
0.0
 11
88.9932914929862307
 21
-72.7589498339434613
 31
0.0
  0
LINE
  5
2D5
100
AcDbEntity
  8
04_Triangle_Panels
 62
256
370
-1
 48
1.0
  6
BYLAYER
100
AcDbLine
 10
53.9932914842363516
 20
-30.7589498234434302
 30
0.0
 11
91.9932914937362654
 21
-30.7589498234434586
 31
0.0
  0
LINE
  5
2D6
100
AcDbEntity
  8
03_Front_Panels
 62
256
370
-1
 48
1.0
  6
BYLAYER
100
AcDbLine
 10
88.9932914929862591
 20
-69.7589498331934834
 30
0.0
 11
88.9932914929862591
 21
-71.2589498335684652
 31
0.0
  0
LINE
  5
2D7
100
AcDbEntity
  8
04_Triangle_Panels
 62
256
370
-1
 48
1.0
  6
BYLAYER
100
AcDbLine
 10
91.9932914937362938
 20
-27.7589498226934808
 30
0.0
 11
91.9932914937362938
 21
-29.2589498230684626
 31
0.0
  0
LINE
  5
2D8
100
AcDbEntity
  8
03_Front_Panels
 62
256
370
-1
 48
1.0
  6
BYLAYER
100
AcDbLine
 10
88.9932914929862591
 20
-71.2589498335684652
 30
0.0
 11
88.9932914929862307
 21
-72.7589498339434613
 31
0.0
  0
LINE
  5
2D9
100
AcDbEntity
  8
04_Triangle_Panels
 62
256
370
-1
 48
1.0
  6
BYLAYER
100
AcDbLine
 10
91.9932914937362938
 20
-29.2589498230684626
 30
0.0
 11
91.9932914937362654
 21
-30.7589498234434586
 31
0.0
  0
LINE
  5
2DA
100
AcDbEntity
  8
03_Front_Panels
 62
256
370
-1
 48
1.0
  6
BYLAYER
100
AcDbLine
 10
50.9932914834862672
 20
-69.7589498331934834
 30
0.0
 11
50.9932914834863027
 21
-71.258949833568451
 31
0.0
  0
LINE
  5
2DB
100
AcDbEntity
  8
04_Triangle_Panels
 62
256
370
-1
 48
1.0
  6
BYLAYER
100
AcDbLine
 10
53.9932914842363019
 20
-27.7589498226934808
 30
0.0
 11
53.9932914842363374
 21
-29.2589498230684484
 31
0.0
  0
LINE
  5
2DC
100
AcDbEntity
  8
03_Front_Panels
 62
256
370
-1
 48
1.0
  6
BYLAYER
100
AcDbLine
 10
50.9932914834863027
 20
-71.258949833568451
 30
0.0
 11
50.9932914834863169
 21
-72.7589498339434328
 31
0.0
  0
LINE
  5
2DD
100
AcDbEntity
  8
04_Triangle_Panels
 62
256
370
-1
 48
1.0
  6
BYLAYER
100
AcDbLine
 10
53.9932914842363374
 20
-29.2589498230684484
 30
0.0
 11
53.9932914842363516
 21
-30.7589498234434302
 31
0.0
  0
LINE
  5
2DE
100
AcDbEntity
  8
03_Front_Panels
 62
256
370
-1
 48
1.0
  6
BYLAYER
100
AcDbLine
 10
52.4932914838612348
 20
-72.7589498339434471
 30
0.0
 11
52.4932914838612348
 21
-72.7589498339434471
 31
0.0
  0
LINE
  5
2DF
100
AcDbEntity
  8
04_Triangle_Panels
 62
256
370
-1
 48
1.0
  6
BYLAYER
100
AcDbLine
 10
55.4932914846112695
 20
-30.7589498234434444
 30
0.0
 11
55.4932914846112695
 21
-30.7589498234434444
 31
0.0
  0
LINE
  5
2E0
100
AcDbEntity
  8
03_Front_Panels
 62
256
370
-1
 48
1.0
  6
BYLAYER
100
AcDbLine
 10
90.4932914933612835
 20
-69.7589498331934692
 30
0.0
 11
52.4932914838612206
 21
-69.7589498331934692
 31
0.0
  0
LINE
  5
2E1
100
AcDbEntity
  8
04_Triangle_Panels
 62
256
370
-1
 48
1.0
  6
BYLAYER
100
AcDbLine
 10
93.4932914941113182
 20
-27.7589498226934666
 30
0.0
 11
55.4932914846112553
 21
-27.7589498226934666
 31
0.0
  0
LINE
  5
2E2
100
AcDbEntity
  8
03_Front_Panels
 62
256
370
-1
 48
1.0
  6
BYLAYER
100
AcDbLine
 10
93.4932914941112756
 20
-74.2589498343184715
 30
0.0
 11
93.4932914941112472
 21
-110.2589498433184758
 31
0.0
  0
LINE
  5
2E3
100
AcDbEntity
  8
04_Triangle_Panels
 62
256
370
-1
 48
1.0
  6
BYLAYER
100
AcDbLine
 10
96.4932914948613103
 20
-32.2589498238184689
 30
0.0
 11
96.4932914948612819
 21
-68.2589498328184732
 31
0.0
  0
LINE
  5
2E4
100
AcDbEntity
  8
03_Front_Panels
 62
256
370
-1
 48
1.0
  6
BYLAYER
100
AcDbLine
 10
117.493291500111269
 20
-74.2589498343184857
 30
0.0
 11
117.493291500111269
 21
-110.2589498433184758
 31
0.0
  0
LINE
  5
2E5
100
AcDbEntity
  8
04_Triangle_Panels
 62
256
370
-1
 48
1.0
  6
BYLAYER
100
AcDbLine
 10
120.4932915008613037
 20
-32.2589498238184831
 30
0.0
 11
120.4932915008613037
 21
-68.2589498328184732
 31
0.0
  0
LINE
  5
2E6
100
AcDbEntity
  8
03_Front_Panels
 62
256
370
-1
 48
1.0
  6
BYLAYER
100
AcDbLine
 10
117.493291500111269
 20
-110.2589498433184758
 30
0.0
 11
117.493291500111269
 21
-110.2589498433184758
 31
0.0
  0
LINE
  5
2E7
100
AcDbEntity
  8
04_Triangle_Panels
 62
256
370
-1
 48
1.0
  6
BYLAYER
100
AcDbLine
 10
120.4932915008613037
 20
-68.2589498328184732
 30
0.0
 11
120.4932915008613037
 21
-68.2589498328184732
 31
0.0
  0
LINE
  5
2E8
100
AcDbEntity
  8
03_Front_Panels
 62
256
370
-1
 48
1.0
  6
BYLAYER
100
AcDbLine
 10
50.9932914834862672
 20
-69.7589498331934834
 30
0.0
 11
49.4932914831112356
 21
-69.758949833193455
 31
0.0
  0
LINE
  5
2E9
100
AcDbEntity
  8
04_Triangle_Panels
 62
256
370
-1
 48
1.0
  6
BYLAYER
100
AcDbLine
 10
53.9932914842363019
 20
-27.7589498226934808
 30
0.0
 11
52.4932914838612703
 21
-27.7589498226934523
 31
0.0
  0
LINE
  5
2EA
100
AcDbEntity
  8
03_Front_Panels
 62
256
370
-1
 48
1.0
  6
BYLAYER
100
AcDbLine
 10
88.9932914929862591
 20
-69.7589498331934834
 30
0.0
 11
50.9932914834862672
 21
-69.7589498331934834
 31
0.0
  0
LINE
  5
2EB
100
AcDbEntity
  8
04_Triangle_Panels
 62
256
370
-1
 48
1.0
  6
BYLAYER
100
AcDbLine
 10
91.9932914937362938
 20
-27.7589498226934808
 30
0.0
 11
53.9932914842363019
 21
-27.7589498226934808
 31
0.0
  0
LINE
  5
2EC
100
AcDbEntity
  8
03_Front_Panels
 62
256
370
-1
 48
1.0
  6
BYLAYER
100
AcDbLine
 10
90.4932914933612835
 20
-153.7589498541934745
 30
0.0
 11
88.9932914929862307
 21
-153.7589498541934745
 31
0.0
  0
LINE
  5
2ED
100
AcDbEntity
  8
04_Triangle_Panels
 62
256
370
-1
 48
1.0
  6
BYLAYER
100
AcDbLine
 10
93.4932914941113182
 20
-111.7589498436934718
 30
0.0
 11
91.9932914937362654
 21
-111.7589498436934718
 31
0.0
  0
MTEXT
  5
2EE
100
AcDbEntity
  8
01_Side_Panels
 62
256
370
-1
 48
1.0
  6
BYLAYER
100
AcDbMText
 10
64.3089691747401844
 20
-184.8655866937129701
 30
0.0
 40
3.0
 41
0.0
 71
1
 72
1
  1
\H6;Side Wall Panels
  7
textstyle6
 50
0.0
 73
2
 44
1.0
  0
MTEXT
  5
2EF
100
AcDbEntity
  8
02_Rear_Panels
 62
256
370
-1
 48
1.0
  6
BYLAYER
100
AcDbMText
 10
64.3089691747400423
 20
-184.865586693713027
 30
0.0
 40
3.0
 41
0.0
 71
1
 72
1
  1
\H6;Rear Wall Panels
  7
textstyle7
 50
0.0
 73
2
 44
1.0
  0
MTEXT
  5
2F0
100
AcDbEntity
  8
03_Front_Panels
 62
256
370
-1
 48
1.0
  6
BYLAYER
100
AcDbMText
 10
64.3089691747400423
 20
-184.865586693713027
 30
0.0
 40
3.0
 41
0.0
 71
1
 72
1
  1
\H6;Front Wall Panels
  7
textstyle8
 50
0.0
 73
2
 44
1.0
  0
LEADER
  5
2F1
100
AcDbEntity
  8
01_Side_Panels
 62
256
370
-1
 48
1.0
  6
BYLAYER
100
AcDbLeader
  3
Standard
 71
1
 72
0
 73
3
 74
0
 75
0
 40
1.0
 41
10.0
 76
3
 10
92.0
 20
8.25
 10
107.0
 20
40.0
 10
115.0
 20
40.0
1001
ACAD
1000
DSTYLE
1002
{
1070
40
1040
1.0
1002
}
  0
LEADER
  5
2F2
100
AcDbEntity
  8
01_Side_Panels
 62
256
370
-1
 48
1.0
  6
BYLAYER
100
AcDbLeader
  3
Standard
 71
1
 72
0
 73
3
 74
0
 75
0
 40
1.0
 41
10.0
 76
2
 10
92.0
 20
-20.0
 10
107.0
 20
40.0
1001
ACAD
1000
DSTYLE
1002
{
1070
40
1040
1.0
1002
}
  0
MTEXT
  5
2F3
100
AcDbEntity
  8
01_Side_Panels
 62
256
370
-1
 48
1.0
  6
BYLAYER
100
AcDbMText
 10
117.2235630043965671
 20
42.513626910631956
 30
0.0
 40
3.0
 41
0.0
 71
1
 72
1
  1
\H2.50001;8" spacing
  7
textstyle9
 50
0.0
 73
2
 44
1.0
  0
LEADER
  5
2F4
100
AcDbEntity
  8
01_Side_Panels
 62
256
370
-1
 48
1.0
  6
BYLAYER
100
AcDbLeader
  3
Standard
 71
1
 72
0
 73
3
 74
0
 75
0
 40
1.0
 41
10.0
 76
2
 10
120.0483776296580345
 20
26.7176246000781248
 10
107.0
 20
40.0
1001
ACAD
1000
DSTYLE
1002
{
1070
40
1040
1.0
1002
}
  0
LEADER
  5
2F5
100
AcDbEntity
  8
02_Rear_Panels
 62
256
370
-1
 48
1.0
  6
BYLAYER
100
AcDbLeader
  3
Standard
 71
1
 72
0
 73
3
 74
0
 75
0
 40
1.0
 41
10.0
 76
3
 10
135.5
 20
22.0
 10
143.0
 20
5.0
 10
149.0
 20
5.0
1001
ACAD
1000
DSTYLE
1002
{
1070
40
1040
1.0
1002
}
  0
LEADER
  5
2F6
100
AcDbEntity
  8
03_Front_Panels
 62
256
370
-1
 48
1.0
  6
BYLAYER
100
AcDbLeader
  3
Standard
 71
1
 72
0
 73
3
 74
0
 75
0
 40
1.0
 41
10.0
 76
3
 10
135.5
 20
22.0
 10
143.0
 20
5.0
 10
149.0
 20
5.0
1001
ACAD
1000
DSTYLE
1002
{
1070
40
1040
1.0
1002
}
  0
LEADER
  5
2F7
100
AcDbEntity
  8
02_Rear_Panels
 62
256
370
-1
 48
1.0
  6
BYLAYER
100
AcDbLeader
  3
Standard
 71
1
 72
0
 73
3
 74
0
 75
0
 40
1.0
 41
10.0
 76
2
 10
135.1252345567745863
 20
-6.5003115291272202
 10
143.0
 20
5.0
1001
ACAD
1000
DSTYLE
1002
{
1070
40
1040
1.0
1002
}
  0
LEADER
  5
2F8
100
AcDbEntity
  8
03_Front_Panels
 62
256
370
-1
 48
1.0
  6
BYLAYER
100
AcDbLeader
  3
Standard
 71
1
 72
0
 73
3
 74
0
 75
0
 40
1.0
 41
10.0
 76
2
 10
135.1252345567745863
 20
-6.5003115291272202
 10
143.0
 20
5.0
1001
ACAD
1000
DSTYLE
1002
{
1070
40
1040
1.0
1002
}
  0
MTEXT
  5
2F9
100
AcDbEntity
  8
02_Rear_Panels
 62
256
370
-1
 48
1.0
  6
BYLAYER
100
AcDbMText
 10
150.9467475238955672
 20
6.5003115291272167
 30
0.0
 40
3.0
 41
0.0
 71
1
 72
1
  1
8" spacing
  7
textstyle10
 50
0.0
 73
2
 44
1.0
  0
MTEXT
  5
2FA
100
AcDbEntity
  8
03_Front_Panels
 62
256
370
-1
 48
1.0
  6
BYLAYER
100
AcDbMText
 10
150.9467475238955672
 20
6.50031152912723
 30
0.0
 40
3.0
 41
0.0
 71
1
 72
1
  1
8" spacing
  7
textstyle11
 50
0.0
 73
2
 44
1.0
  0
LINE
  5
2FB
100
AcDbEntity
  8
04_Triangle_Panels
 62
256
370
-1
 48
1.0
  6
BYLAYER
100
AcDbLine
 10
81.9998460712456847
 20
24.5548449057881228
 30
0.0
 11
82.9998460712456847
 21
24.5548449057881228
 31
0.0
  0
LINE
  5
2FC
100
AcDbEntity
  8
04_Triangle_Panels
 62
256
370
-1
 48
1.0
  6
BYLAYER
100
AcDbLine
 10
113.6012422989734318
 20
24.9386576801404658
 30
0.0
 11
112.6012422989734318
 21
24.9386576801404658
 31
0.0
  0
LINE
  5
2FD
100
AcDbEntity
  8
04_Triangle_Panels
 62
256
370
-1
 48
1.0
  6
BYLAYER
100
AcDbLine
 10
93.2432914831738202
 20
-13.4464498223184421
 30
0.0
 11
94.2432914831738202
 21
-13.4464498223184421
 31
0.0
  0
LINE
  5
2FE
100
AcDbEntity
  8
04_Triangle_Panels
 62
256
370
-1
 48
1.0
  6
BYLAYER
100
AcDbLine
 10
95.2435993421825202
 20
-13.4464498223184421
 30
0.0
 11
94.2435993421825202
 21
-13.4464498223184421
 31
0.0
  0
LINE
  5
2FF
100
AcDbEntity
  8
04_Triangle_Panels
 62
256
370
-1
 48
1.0
  6
BYLAYER
100
AcDbLine
 10
83.0000000007500347
 20
12.0000000105000026
 30
0.0
 11
83.0000000007500347
 21
24.5548449057881228
 31
0.0
  0
LINE
  5
300
100
AcDbEntity
  8
04_Triangle_Panels
 62
256
370
-1
 48
1.0
  6
BYLAYER
100
AcDbLine
 10
112.6010883694690818
 20
12.3838127848523456
 30
0.0
 11
112.6010883694690818
 21
24.9386576801404622
 31
0.0
  0
LINE
  5
301
100
AcDbEntity
  8
04_Triangle_Panels
 62
256
370
-1
 48
1.0
  6
BYLAYER
100
AcDbLine
 10
94.2434454126781702
 20
-26.0012947176065552
 30
0.0
 11
94.2434454126781702
 21
-13.4464498223184421
 31
0.0
  0
LINE
  5
302
100
AcDbEntity
  8
04_Triangle_Panels
 62
256
370
-1
 48
1.0
  6
BYLAYER
100
AcDbLine
 10
94.2434454126781702
 20
-26.0012947176065552
 30
0.0
 11
94.2434454126781702
 21
-13.4464498223184421
 31
0.0
  0
HATCH
  5
303
100
AcDbEntity
  8
04_Triangle_Panels
 62
256
370
-1
 48
1.0
  6
BYLAYER
100
AcDbHatch
 10
0.0
 20
0.0
 30
0.0
210
0.0
220
0.0
230
1.0
  2
SOLID
 70
1
 71
0
 91
1
 92
1
 93
6
 72
1
 10
93.2432914831738202
 20
-13.4464498223184421
 11
94.2432914831738202
 21
-13.4464498223184421
 72
1
 10
94.2432914831738202
 20
-13.4464498223184421
 11
94.2434454126781702
 21
-13.4464498223184421
 72
1
 10
94.2434454126781702
 20
-13.4464498223184421
 11
94.2434454126781702
 21
-26.0012947176065552
 72
1
 10
94.2434454126781702
 20
-26.0012947176065552
 11
49.7434454126781631
 21
-26.0012947176065552
 72
1
 10
49.7434454126781205
 20
-26.0012947176065694
 11
93.2432914844685996
 21
-11.4464498229248335
 72
1
 10
93.2432914844685996
 20
-11.4464498229248335
 11
93.2432914844685996
 21
-13.4464498223184421
 97
0
 75
0
 76
1
 98
0
1001
ACAD
1010
0.0
1020
0.0
1030
0
  0
HATCH
  5
304
100
AcDbEntity
  8
04_Triangle_Panels
 62
256
370
-1
 48
1.0
  6
BYLAYER
100
AcDbHatch
 10
0.0
 20
0.0
 30
0.0
210
0.0
220
0.0
230
1.0
  2
SOLID
 70
1
 71
0
 91
1
 92
1
 93
6
 72
1
 10
95.2435993421825202
 20
-13.4464498223184421
 11
94.2435993421825202
 21
-13.4464498223184421
 72
1
 10
94.2435993421825202
 20
-13.4464498223184421
 11
94.2434454126781702
 21
-13.4464498223184421
 72
1
 10
94.2434454126781702
 20
-13.4464498223184421
 11
94.2434454126781702
 21
-26.0012947176065552
 72
1
 10
94.2434454126781702
 20
-26.0012947176065552
 11
138.7434454126781702
 21
-26.0012947176066405
 72
1
 10
138.7434454126781702
 20
-26.0012947176066405
 11
95.2435993408877408
 21
-11.4464498229248335
 72
1
 10
95.2435993408877408
 20
-11.4464498229248335
 11
95.2435993408877408
 21
-13.4464498223184421
 97
0
 75
0
 76
1
 98
0
1001
ACAD
1010
0.0
1020
0.0
1030
0
  0
ENDSEC
  0
SECTION
  2
OBJECTS
  0
DICTIONARY
  5
C
100
AcDbDictionary
280
0
281
1
  3
ACAD_GROUP
350
D
  3
ACAD_LAYOUT
350
1A
  3
ACAD_MLINESTYLE
350
17
  3
ACAD_PLOTSETTINGS
350
19
  3
ACAD_PLOTSTYLENAME
350
E
  3
AcDbVariableDictionary
350
305
  3
QCAD_OBJECTS
350
306
  0
DICTIONARY
  5
D
100
AcDbDictionary
280
0
281
1
  0
ACDBDICTIONARYWDFLT
  5
E
100
AcDbDictionary
281
1
  3
Normal
350
F
100
AcDbDictionaryWithDefault
340
F
  0
ACDBPLACEHOLDER
  5
F
  0
DICTIONARY
  5
17
100
AcDbDictionary
280
0
281
1
  3
Standard
350
18
  0
MLINESTYLE
  5
18
100
AcDbMlineStyle
  2
STANDARD
 70
0
  3

 62
256
 51
90.0
 52
90.0
 71
2
 49
0.5
 62
256
  6
BYLAYER
 49
-0.5
 62
256
  6
BYLAYER
  0
DICTIONARY
  5
19
100
AcDbDictionary
280
0
281
1
  0
DICTIONARY
  5
1A
100
AcDbDictionary
281
1
  3
Layout1
350
1E
  3
Layout2
350
26
  3
Model
350
22
  0
LAYOUT
  5
1E
100
AcDbPlotSettings
  1

  2
none_device
  4

  6

 40
0.0
 41
0.0
 42
0.0
 43
0.0
 44
0.0
 45
0.0
 46
0.0
 47
0.0
 48
0.0
 49
0.0
140
0.0
141
0.0
142
1.0
143
1.0
 70
688
 72
0
 73
0
 74
5
  7

 75
16
147
1.0
148
0.0
149
0.0
100
AcDbLayout
  1
Layout1
 70
1
 71
1
 10
0.0
 20
0.0
 11
420.0
 21
297.0
 12
0.0
 22
0.0
 32
0.0
 14
100000000000000000000.0
 24
100000000000000000000.0
 34
100000000000000000000.0
 15
-100000000000000000000.0
 25
-100000000000000000000.0
 35
-100000000000000000000.0
146
0.0
 13
0.0
 23
0.0
 33
0.0
 16
1.0
 26
0.0
 36
0.0
 17
0.0
 27
1.0
 37
0.0
 76
0
330
1B
  0
LAYOUT
  5
22
100
AcDbPlotSettings
  1

  2
none_device
  4

  6

 40
0.0
 41
0.0
 42
0.0
 43
0.0
 44
0.0
 45
0.0
 46
0.0
 47
0.0
 48
0.0
 49
0.0
140
0.0
141
0.0
142
1.0
143
1.0
 70
1712
 72
0
 73
0
 74
0
  7

 75
0
147
1.0
148
0.0
149
0.0
100
AcDbLayout
  1
Model
 70
1
 71
0
 10
0.0
 20
0.0
 11
12.0
 21
9.0
 12
0.0
 22
0.0
 32
0.0
 14
0.0
 24
0.0
 34
0.0
 15
0.0
 25
0.0
 35
0.0
146
0.0
 13
0.0
 23
0.0
 33
0.0
 16
1.0
 26
0.0
 36
0.0
 17
0.0
 27
1.0
 37
0.0
 76
0
330
1F
  0
LAYOUT
  5
26
100
AcDbPlotSettings
  1

  2
none_device
  4

  6

 40
0.0
 41
0.0
 42
0.0
 43
0.0
 44
0.0
 45
0.0
 46
0.0
 47
0.0
 48
0.0
 49
0.0
140
0.0
141
0.0
142
1.0
143
1.0
 70
688
 72
0
 73
0
 74
5
  7

 75
16
147
1.0
148
0.0
149
0.0
100
AcDbLayout
  1
Layout2
 70
1
 71
2
 10
0.0
 20
0.0
 11
12.0
 21
9.0
 12
0.0
 22
0.0
 32
0.0
 14
0.0
 24
0.0
 34
0.0
 15
0.0
 25
0.0
 35
0.0
146
0.0
 13
0.0
 23
0.0
 33
0.0
 16
1.0
 26
0.0
 36
0.0
 17
0.0
 27
1.0
 37
0.0
 76
0
330
23
  0
DICTIONARY
  5
305
100
AcDbDictionary
281
1
  3
DIMASSOC
350
308
  3
HIDETEXT
350
307
  0
DICTIONARYVAR
  5
307
100
DictionaryVariables
280
0
  1
2
  0
DICTIONARYVAR
  5
308
100
DictionaryVariables
280
0
  1
1
  0
DICTIONARY
  5
306
100
AcDbDictionary
281
1
  3
ColorSettings/BackgroundColor
350
309
  3
ColorSettings/ColorMode
350
30A
  3
DimensionSettings/AngularFormat
350
30B
  3
DimensionSettings/AngularPrecision
350
30C
  3
DimensionSettings/DecimalPoint
350
30D
  3
DimensionSettings/DimensionFont
350
30E
  3
DimensionSettings/DimensionTextColor
350
30F
  3
DimensionSettings/KeepProportions
350
310
  3
DimensionSettings/LinearFormat
350
311
  3
DimensionSettings/LinearPrecision
350
312
  3
Grid/DisplayGrid00
350
313
  3
Grid/DisplayGrid01
350
314
  3
Grid/DisplayGrid02
350
315
  3
Grid/DisplayGrid03
350
316
  3
Grid/GridSpacingX00
350
317
  3
Grid/GridSpacingX01
350
318
  3
Grid/GridSpacingX02
350
319
  3
Grid/GridSpacingX03
350
31A
  3
Grid/GridSpacingY00
350
31B
  3
Grid/GridSpacingY01
350
31C
  3
Grid/GridSpacingY02
350
31D
  3
Grid/GridSpacingY03
350
31E
  3
Grid/IsometricGrid00
350
31F
  3
Grid/IsometricGrid01
350
320
  3
Grid/IsometricGrid02
350
321
  3
Grid/IsometricGrid03
350
322
  3
Grid/IsometricProjection00
350
323
  3
Grid/IsometricProjection01
350
324
  3
Grid/IsometricProjection02
350
325
  3
Grid/IsometricProjection03
350
326
  3
Grid/MetaGridSpacingX00
350
327
  3
Grid/MetaGridSpacingX01
350
328
  3
Grid/MetaGridSpacingX02
350
329
  3
Grid/MetaGridSpacingX03
350
32A
  3
Grid/MetaGridSpacingY00
350
32B
  3
Grid/MetaGridSpacingY01
350
32C
  3
Grid/MetaGridSpacingY02
350
32D
  3
Grid/MetaGridSpacingY03
350
32E
  3
MultiPageSettings/Columns
350
32F
  3
MultiPageSettings/GlueMarginsBottom
350
330
  3
MultiPageSettings/GlueMarginsLeft
350
331
  3
MultiPageSettings/GlueMarginsRight
350
332
  3
MultiPageSettings/GlueMarginsTop
350
333
  3
MultiPageSettings/PrintCropMarks
350
334
  3
MultiPageSettings/Rows
350
335
  3
PageSettings/OffsetX
350
336
  3
PageSettings/OffsetY
350
337
  3
PageSettings/PageOrientation
350
338
  3
PageSettings/PaperHeight
350
339
  3
PageSettings/PaperSizeAccepted
350
33A
  3
PageSettings/PaperSizeName
350
33B
  3
PageSettings/PaperWidth
350
33C
  3
PageSettings/PointSize
350
33D
  3
PageSettings/Scale
350
33E
  3
PageSettings/ShowPaperBorders
350
33F
  3
PageTagSettings/EnablePageTags
350
340
  3
PageTagSettings/TagAlignment
350
341
  3
PageTagSettings/TagFont
350
342
  3
PageTagSettings/TagPosition
350
343
  3
QCADVersion
350
344
  3
UnitSettings/Measurement
350
345
  3
UnitSettings/PaperUnit
350
346
  3
ViewportCenter
350
347
  3
ViewportHeight
350
348
  3
ViewportWidth
350
349
  0
XRECORD
  5
309
330
306
100
AcDbXrecord
280
1
1000
White
  0
XRECORD
  5
30A
330
306
100
AcDbXrecord
280
1
1000
FullColor
  0
XRECORD
  5
30B
330
306
100
AcDbXrecord
280
1
 90
0
  0
XRECORD
  5
30C
330
306
100
AcDbXrecord
280
1
 90
0
  0
XRECORD
  5
30D
330
306
100
AcDbXrecord
280
1
 90
46
  0
XRECORD
  5
30E
330
306
100
AcDbXrecord
280
1
1000
DejaVu Sans
  0
XRECORD
  5
30F
330
306
100
AcDbXrecord
280
1
1000
By Layer
  0
XRECORD
  5
310
330
306
100
AcDbXrecord
280
1
290
0
  0
XRECORD
  5
311
330
306
100
AcDbXrecord
280
1
 90
2
  0
XRECORD
  5
312
330
306
100
AcDbXrecord
280
1
 90
4
  0
XRECORD
  5
313
330
306
100
AcDbXrecord
280
1
290
1
  0
XRECORD
  5
314
330
306
100
AcDbXrecord
280
1
290
1
  0
XRECORD
  5
315
330
306
100
AcDbXrecord
280
1
290
1
  0
XRECORD
  5
316
330
306
100
AcDbXrecord
280
1
290
1
  0
XRECORD
  5
317
330
306
100
AcDbXrecord
280
1
1000
auto
  0
XRECORD
  5
318
330
306
100
AcDbXrecord
280
1
1000
auto
  0
XRECORD
  5
319
330
306
100
AcDbXrecord
280
1
1000
auto
  0
XRECORD
  5
31A
330
306
100
AcDbXrecord
280
1
1000
auto
  0
XRECORD
  5
31B
330
306
100
AcDbXrecord
280
1
1000
auto
  0
XRECORD
  5
31C
330
306
100
AcDbXrecord
280
1
1000
auto
  0
XRECORD
  5
31D
330
306
100
AcDbXrecord
280
1
1000
auto
  0
XRECORD
  5
31E
330
306
100
AcDbXrecord
280
1
1000
auto
  0
XRECORD
  5
31F
330
306
100
AcDbXrecord
280
1
290
0
  0
XRECORD
  5
320
330
306
100
AcDbXrecord
280
1
290
0
  0
XRECORD
  5
321
330
306
100
AcDbXrecord
280
1
290
0
  0
XRECORD
  5
322
330
306
100
AcDbXrecord
280
1
290
0
  0
XRECORD
  5
323
330
306
100
AcDbXrecord
280
1
 90
65537
  0
XRECORD
  5
324
330
306
100
AcDbXrecord
280
1
 90
65537
  0
XRECORD
  5
325
330
306
100
AcDbXrecord
280
1
 90
65537
  0
XRECORD
  5
326
330
306
100
AcDbXrecord
280
1
 90
65537
  0
XRECORD
  5
327
330
306
100
AcDbXrecord
280
1
1000
auto
  0
XRECORD
  5
328
330
306
100
AcDbXrecord
280
1
1000
auto
  0
XRECORD
  5
329
330
306
100
AcDbXrecord
280
1
1000
auto
  0
XRECORD
  5
32A
330
306
100
AcDbXrecord
280
1
1000
auto
  0
XRECORD
  5
32B
330
306
100
AcDbXrecord
280
1
1000
auto
  0
XRECORD
  5
32C
330
306
100
AcDbXrecord
280
1
1000
auto
  0
XRECORD
  5
32D
330
306
100
AcDbXrecord
280
1
1000
auto
  0
XRECORD
  5
32E
330
306
100
AcDbXrecord
280
1
1000
auto
  0
XRECORD
  5
32F
330
306
100
AcDbXrecord
280
1
 90
1
  0
XRECORD
  5
330
330
306
100
AcDbXrecord
280
1
 40
0.0
  0
XRECORD
  5
331
330
306
100
AcDbXrecord
280
1
 40
0.0
  0
XRECORD
  5
332
330
306
100
AcDbXrecord
280
1
 40
0.0
  0
XRECORD
  5
333
330
306
100
AcDbXrecord
280
1
 40
0.0
  0
XRECORD
  5
334
330
306
100
AcDbXrecord
280
1
290
0
  0
XRECORD
  5
335
330
306
100
AcDbXrecord
280
1
 90
1
  0
XRECORD
  5
336
330
306
100
AcDbXrecord
280
1
 40
-4.6981259783490845
  0
XRECORD
  5
337
330
306
100
AcDbXrecord
280
1
 40
-194.9848689510551196
  0
XRECORD
  5
338
330
306
100
AcDbXrecord
280
1
1000
Portrait
  0
XRECORD
  5
339
330
306
100
AcDbXrecord
280
1
1000
9
  0
XRECORD
  5
33A
330
306
100
AcDbXrecord
280
1
290
1
  0
XRECORD
  5
33B
330
306
100
AcDbXrecord
280
1
1000
Custom
  0
XRECORD
  5
33C
330
306
100
AcDbXrecord
280
1
1000
6.5
  0
XRECORD
  5
33D
330
306
100
AcDbXrecord
280
1
1000
0.5
  0
XRECORD
  5
33E
330
306
100
AcDbXrecord
280
1
1000
0.033
  0
XRECORD
  5
33F
330
306
100
AcDbXrecord
280
1
290
1
  0
XRECORD
  5
340
330
306
100
AcDbXrecord
280
1
290
0
  0
XRECORD
  5
341
330
306
100
AcDbXrecord
280
1
1000
Inside
  0
XRECORD
  5
342
330
306
100
AcDbXrecord
280
1
1000
Arial,10,-1,5,50,0,0,0,0,0
  0
XRECORD
  5
343
330
306
100
AcDbXrecord
280
1
1000
TopLeft
  0
XRECORD
  5
344
330
306
100
AcDbXrecord
280
1
1000
3.32.6
  0
XRECORD
  5
345
330
306
100
AcDbXrecord
280
1
 90
1
  0
XRECORD
  5
346
330
306
100
AcDbXrecord
280
1
 90
1
  0
XRECORD
  5
348
330
306
100
AcDbXrecord
280
1
 40
272.410455687674812
  0
XRECORD
  5
349
330
306
100
AcDbXrecord
280
1
 40
235.2831986525876005
  0
IMAGEDEF
  5
91
100
AcDbRasterImageDef
 90
0
  1
../../common/clipart/Screw.png
 10
3.0
 20
9.0
 11
1.0
 21
1.0
280
1
281
0
  0
IMAGEDEF
  5
93
100
AcDbRasterImageDef
 90
0
  1
../../common/clipart/Screw.png
 10
3.0
 20
9.0
 11
1.0
 21
1.0
280
1
281
0
  0
IMAGEDEF
  5
95
100
AcDbRasterImageDef
 90
0
  1
../../common/clipart/Screw.png
 10
3.0
 20
9.0
 11
1.0
 21
1.0
280
1
281
0
  0
IMAGEDEF
  5
97
100
AcDbRasterImageDef
 90
0
  1
../../common/clipart/Screw.png
 10
3.0
 20
9.0
 11
1.0
 21
1.0
280
1
281
0
  0
IMAGEDEF
  5
99
100
AcDbRasterImageDef
 90
0
  1
../../common/clipart/Screw.png
 10
4.0
 20
9.0
 11
1.0
 21
1.0
280
1
281
0
  0
IMAGEDEF
  5
9B
100
AcDbRasterImageDef
 90
0
  1
../../common/clipart/Screw.png
 10
3.0
 20
9.0
 11
1.0
 21
1.0
280
1
281
0
  0
IMAGEDEF
  5
9D
100
AcDbRasterImageDef
 90
0
  1
../../common/clipart/Screw.png
 10
3.0
 20
9.0
 11
1.0
 21
1.0
280
1
281
0
  0
IMAGEDEF
  5
9F
100
AcDbRasterImageDef
 90
0
  1
../../common/clipart/Screw.png
 10
3.0
 20
9.0
 11
1.0
 21
1.0
280
1
281
0
  0
IMAGEDEF
  5
A1
100
AcDbRasterImageDef
 90
0
  1
../../common/clipart/Screw.png
 10
3.0
 20
9.0
 11
1.0
 21
1.0
280
1
281
0
  0
IMAGEDEF
  5
A3
100
AcDbRasterImageDef
 90
0
  1
../../common/clipart/Screw.png
 10
3.0
 20
9.0
 11
1.0
 21
1.0
280
1
281
0
  0
IMAGEDEF
  5
A5
100
AcDbRasterImageDef
 90
0
  1
../../common/clipart/Screw.png
 10
4.0
 20
9.0
 11
1.0
 21
1.0
280
1
281
0
  0
IMAGEDEF
  5
A7
100
AcDbRasterImageDef
 90
0
  1
../../common/clipart/Screw.png
 10
3.0
 20
9.0
 11
1.0
 21
1.0
280
1
281
0
  0
IMAGEDEF
  5
A9
100
AcDbRasterImageDef
 90
0
  1
../../common/clipart/Screw.png
 10
3.0
 20
9.0
 11
1.0
 21
1.0
280
1
281
0
  0
IMAGEDEF
  5
AB
100
AcDbRasterImageDef
 90
0
  1
../../common/clipart/Screw.png
 10
3.0
 20
9.0
 11
1.0
 21
1.0
280
1
281
0
  0
IMAGEDEF
  5
AD
100
AcDbRasterImageDef
 90
0
  1
../../common/clipart/Screw.png
 10
3.0
 20
9.0
 11
1.0
 21
1.0
280
1
281
0
  0
IMAGEDEF
  5
AF
100
AcDbRasterImageDef
 90
0
  1
../../common/clipart/Screw.png
 10
3.0
 20
9.0
 11
1.0
 21
1.0
280
1
281
0
  0
IMAGEDEF
  5
B1
100
AcDbRasterImageDef
 90
0
  1
../../common/clipart/Screw.png
 10
4.0
 20
9.0
 11
1.0
 21
1.0
280
1
281
0
  0
IMAGEDEF
  5
B3
100
AcDbRasterImageDef
 90
0
  1
../../common/clipart/Screw.png
 10
3.0
 20
9.0
 11
1.0
 21
1.0
280
1
281
0
  0
IMAGEDEF
  5
B5
100
AcDbRasterImageDef
 90
0
  1
../../common/clipart/Screw.png
 10
3.0
 20
9.0
 11
1.0
 21
1.0
280
1
281
0
  0
IMAGEDEF
  5
B7
100
AcDbRasterImageDef
 90
0
  1
../../common/clipart/Screw.png
 10
3.0
 20
9.0
 11
1.0
 21
1.0
280
1
281
0
  0
IMAGEDEF
  5
B9
100
AcDbRasterImageDef
 90
0
  1
../../common/clipart/Screw.png
 10
3.0
 20
9.0
 11
1.0
 21
1.0
280
1
281
0
  0
IMAGEDEF
  5
BB
100
AcDbRasterImageDef
 90
0
  1
../../common/clipart/Screw.png
 10
3.0
 20
9.0
 11
1.0
 21
1.0
280
1
281
0
  0
IMAGEDEF
  5
BD
100
AcDbRasterImageDef
 90
0
  1
../../common/clipart/Screw.png
 10
4.0
 20
9.0
 11
1.0
 21
1.0
280
1
281
0
  0
IMAGEDEF
  5
BF
100
AcDbRasterImageDef
 90
0
  1
../../common/clipart/Screw.png
 10
3.0
 20
9.0
 11
1.0
 21
1.0
280
1
281
0
  0
IMAGEDEF
  5
C1
100
AcDbRasterImageDef
 90
0
  1
../../common/clipart/Screw.png
 10
3.0
 20
9.0
 11
1.0
 21
1.0
280
1
281
0
  0
IMAGEDEF
  5
C3
100
AcDbRasterImageDef
 90
0
  1
../../common/clipart/Screw.png
 10
3.0
 20
9.0
 11
1.0
 21
1.0
280
1
281
0
  0
IMAGEDEF
  5
C5
100
AcDbRasterImageDef
 90
0
  1
../../common/clipart/Screw.png
 10
3.0
 20
9.0
 11
1.0
 21
1.0
280
1
281
0
  0
IMAGEDEF
  5
C7
100
AcDbRasterImageDef
 90
0
  1
../../common/clipart/Screw.png
 10
3.0
 20
9.0
 11
1.0
 21
1.0
280
1
281
0
  0
IMAGEDEF
  5
C9
100
AcDbRasterImageDef
 90
0
  1
../../common/clipart/Screw.png
 10
4.0
 20
9.0
 11
1.0
 21
1.0
280
1
281
0
  0
IMAGEDEF
  5
CB
100
AcDbRasterImageDef
 90
0
  1
../../common/clipart/Screw.png
 10
3.0
 20
9.0
 11
1.0
 21
1.0
280
1
281
0
  0
IMAGEDEF
  5
CD
100
AcDbRasterImageDef
 90
0
  1
../../common/clipart/Screw.png
 10
3.0
 20
9.0
 11
1.0
 21
1.0
280
1
281
0
  0
IMAGEDEF
  5
CF
100
AcDbRasterImageDef
 90
0
  1
../../common/clipart/Screw.png
 10
3.0
 20
9.0
 11
1.0
 21
1.0
280
1
281
0
  0
IMAGEDEF
  5
D1
100
AcDbRasterImageDef
 90
0
  1
../../common/clipart/Screw.png
 10
3.0
 20
9.0
 11
1.0
 21
1.0
280
1
281
0
  0
IMAGEDEF
  5
D3
100
AcDbRasterImageDef
 90
0
  1
../../common/clipart/Screw.png
 10
3.0
 20
9.0
 11
1.0
 21
1.0
280
1
281
0
  0
IMAGEDEF
  5
D5
100
AcDbRasterImageDef
 90
0
  1
../../common/clipart/Screw.png
 10
4.0
 20
9.0
 11
1.0
 21
1.0
280
1
281
0
  0
IMAGEDEF
  5
D7
100
AcDbRasterImageDef
 90
0
  1
../../common/clipart/Screw.png
 10
3.0
 20
9.0
 11
1.0
 21
1.0
280
1
281
0
  0
IMAGEDEF
  5
D9
100
AcDbRasterImageDef
 90
0
  1
../../common/clipart/Screw.png
 10
3.0
 20
9.0
 11
1.0
 21
1.0
280
1
281
0
  0
IMAGEDEF
  5
DB
100
AcDbRasterImageDef
 90
0
  1
../../common/clipart/Screw.png
 10
3.0
 20
9.0
 11
1.0
 21
1.0
280
1
281
0
  0
IMAGEDEF
  5
DD
100
AcDbRasterImageDef
 90
0
  1
../../common/clipart/Screw.png
 10
3.0
 20
9.0
 11
1.0
 21
1.0
280
1
281
0
  0
IMAGEDEF
  5
DF
100
AcDbRasterImageDef
 90
0
  1
../../common/clipart/Screw.png
 10
3.0
 20
9.0
 11
1.0
 21
1.0
280
1
281
0
  0
IMAGEDEF
  5
E1
100
AcDbRasterImageDef
 90
0
  1
../../common/clipart/Screw.png
 10
4.0
 20
9.0
 11
1.0
 21
1.0
280
1
281
0
  0
IMAGEDEF
  5
E3
100
AcDbRasterImageDef
 90
0
  1
../../common/clipart/Screw.png
 10
3.0
 20
9.0
 11
1.0
 21
1.0
280
1
281
0
  0
IMAGEDEF
  5
E5
100
AcDbRasterImageDef
 90
0
  1
../../common/clipart/Screw.png
 10
3.0
 20
9.0
 11
1.0
 21
1.0
280
1
281
0
  0
IMAGEDEF
  5
E7
100
AcDbRasterImageDef
 90
0
  1
../../common/clipart/Screw.png
 10
3.0
 20
9.0
 11
1.0
 21
1.0
280
1
281
0
  0
IMAGEDEF
  5
E9
100
AcDbRasterImageDef
 90
0
  1
../../common/clipart/Screw.png
 10
4.0
 20
9.0
 11
1.0
 21
1.0
280
1
281
0
  0
IMAGEDEF
  5
EB
100
AcDbRasterImageDef
 90
0
  1
../../common/clipart/Screw.png
 10
3.0
 20
9.0
 11
1.0
 21
1.0
280
1
281
0
  0
IMAGEDEF
  5
ED
100
AcDbRasterImageDef
 90
0
  1
../../common/clipart/Screw.png
 10
4.0
 20
9.0
 11
1.0
 21
1.0
280
1
281
0
  0
IMAGEDEF
  5
F4
100
AcDbRasterImageDef
 90
0
  1
../../common/clipart/Screw.png
 10
3.0
 20
9.0
 11
1.0
 21
1.0
280
1
281
0
  0
IMAGEDEF
  5
F7
100
AcDbRasterImageDef
 90
0
  1
../../common/clipart/Screw.png
 10
3.0
 20
9.0
 11
1.0
 21
1.0
280
1
281
0
  0
IMAGEDEF
  5
FA
100
AcDbRasterImageDef
 90
0
  1
../../common/clipart/Screw.png
 10
3.0
 20
9.0
 11
1.0
 21
1.0
280
1
281
0
  0
IMAGEDEF
  5
FD
100
AcDbRasterImageDef
 90
0
  1
../../common/clipart/Screw.png
 10
4.0
 20
9.0
 11
1.0
 21
1.0
280
1
281
0
  0
IMAGEDEF
  5
100
100
AcDbRasterImageDef
 90
0
  1
../../common/clipart/Screw.png
 10
3.0
 20
9.0
 11
1.0
 21
1.0
280
1
281
0
  0
IMAGEDEF
  5
102
100
AcDbRasterImageDef
 90
0
  1
../../common/clipart/Screw.png
 10
4.0
 20
9.0
 11
1.0
 21
1.0
280
1
281
0
  0
IMAGEDEF
  5
104
100
AcDbRasterImageDef
 90
0
  1
../../common/clipart/Screw.png
 10
2.0
 20
7.0
 11
1.0
 21
1.0
280
1
281
0
  0
IMAGEDEF
  5
106
100
AcDbRasterImageDef
 90
0
  1
../../common/clipart/Screw.png
 10
2.0
 20
7.0
 11
1.0
 21
1.0
280
1
281
0
  0
IMAGEDEF
  5
108
100
AcDbRasterImageDef
 90
0
  1
../../common/clipart/Screw.png
 10
2.0
 20
7.0
 11
1.0
 21
1.0
280
1
281
0
  0
IMAGEDEF
  5
10A
100
AcDbRasterImageDef
 90
0
  1
../../common/clipart/Screw.png
 10
3.0
 20
7.0
 11
1.0
 21
1.0
280
1
281
0
  0
IMAGEDEF
  5
10C
100
AcDbRasterImageDef
 90
0
  1
../../common/clipart/Screw.png
 10
3.0
 20
7.0
 11
1.0
 21
1.0
280
1
281
0
  0
IMAGEDEF
  5
10E
100
AcDbRasterImageDef
 90
0
  1
../../common/clipart/Screw.png
 10
3.0
 20
7.0
 11
1.0
 21
1.0
280
1
281
0
  0
IMAGEDEF
  5
110
100
AcDbRasterImageDef
 90
0
  1
../../common/clipart/Screw.png
 10
3.0
 20
7.0
 11
1.0
 21
1.0
280
1
281
0
  0
IMAGEDEF
  5
112
100
AcDbRasterImageDef
 90
0
  1
../../common/clipart/Screw.png
 10
3.0
 20
7.0
 11
1.0
 21
1.0
280
1
281
0
  0
IMAGEDEF
  5
114
100
AcDbRasterImageDef
 90
0
  1
../../common/clipart/Screw.png
 10
3.0
 20
7.0
 11
1.0
 21
1.0
280
1
281
0
  0
IMAGEDEF
  5
116
100
AcDbRasterImageDef
 90
0
  1
../../common/clipart/Screw.png
 10
3.0
 20
7.0
 11
1.0
 21
1.0
280
1
281
0
  0
IMAGEDEF
  5
118
100
AcDbRasterImageDef
 90
0
  1
../../common/clipart/Screw.png
 10
3.0
 20
7.0
 11
1.0
 21
1.0
280
1
281
0
  0
IMAGEDEF
  5
11A
100
AcDbRasterImageDef
 90
0
  1
../../common/clipart/Screw.png
 10
3.0
 20
7.0
 11
1.0
 21
1.0
280
1
281
0
  0
IMAGEDEF
  5
11C
100
AcDbRasterImageDef
 90
0
  1
../../common/clipart/Screw.png
 10
3.0
 20
7.0
 11
1.0
 21
1.0
280
1
281
0
  0
IMAGEDEF
  5
11E
100
AcDbRasterImageDef
 90
0
  1
../../common/clipart/Screw.png
 10
2.0
 20
7.0
 11
1.0
 21
1.0
280
1
281
0
  0
IMAGEDEF
  5
120
100
AcDbRasterImageDef
 90
0
  1
../../common/clipart/Screw.png
 10
2.0
 20
7.0
 11
1.0
 21
1.0
280
1
281
0
  0
IMAGEDEF
  5
122
100
AcDbRasterImageDef
 90
0
  1
../../common/clipart/Screw.png
 10
2.0
 20
7.0
 11
1.0
 21
1.0
280
1
281
0
  0
IMAGEDEF
  5
124
100
AcDbRasterImageDef
 90
0
  1
../../common/clipart/Screw.png
 10
3.0
 20
7.0
 11
1.0
 21
1.0
280
1
281
0
  0
IMAGEDEF
  5
126
100
AcDbRasterImageDef
 90
0
  1
../../common/clipart/Screw.png
 10
3.0
 20
7.0
 11
1.0
 21
1.0
280
1
281
0
  0
IMAGEDEF
  5
128
100
AcDbRasterImageDef
 90
0
  1
../../common/clipart/Screw.png
 10
3.0
 20
7.0
 11
1.0
 21
1.0
280
1
281
0
  0
IMAGEDEF
  5
12A
100
AcDbRasterImageDef
 90
0
  1
../../common/clipart/Screw.png
 10
3.0
 20
7.0
 11
1.0
 21
1.0
280
1
281
0
  0
IMAGEDEF
  5
12C
100
AcDbRasterImageDef
 90
0
  1
../../common/clipart/Screw.png
 10
3.0
 20
7.0
 11
1.0
 21
1.0
280
1
281
0
  0
IMAGEDEF
  5
12E
100
AcDbRasterImageDef
 90
0
  1
../../common/clipart/Screw.png
 10
3.0
 20
7.0
 11
1.0
 21
1.0
280
1
281
0
  0
IMAGEDEF
  5
130
100
AcDbRasterImageDef
 90
0
  1
../../common/clipart/Screw.png
 10
3.0
 20
7.0
 11
1.0
 21
1.0
280
1
281
0
  0
IMAGEDEF
  5
132
100
AcDbRasterImageDef
 90
0
  1
../../common/clipart/Screw.png
 10
3.0
 20
7.0
 11
1.0
 21
1.0
280
1
281
0
  0
IMAGEDEF
  5
134
100
AcDbRasterImageDef
 90
0
  1
../../common/clipart/Screw.png
 10
3.0
 20
7.0
 11
1.0
 21
1.0
280
1
281
0
  0
IMAGEDEF
  5
136
100
AcDbRasterImageDef
 90
0
  1
../../common/clipart/Screw.png
 10
3.0
 20
7.0
 11
1.0
 21
1.0
280
1
281
0
  0
IMAGEDEF
  5
139
100
AcDbRasterImageDef
 90
0
  1
../../common/clipart/Screw.png
 10
3.0
 20
9.0
 11
1.0
 21
1.0
280
1
281
0
  0
IMAGEDEF
  5
13C
100
AcDbRasterImageDef
 90
0
  1
../../common/clipart/Screw.png
 10
3.0
 20
9.0
 11
1.0
 21
1.0
280
1
281
0
  0
IMAGEDEF
  5
13F
100
AcDbRasterImageDef
 90
0
  1
../../common/clipart/Screw.png
 10
3.0
 20
9.0
 11
1.0
 21
1.0
280
1
281
0
  0
IMAGEDEF
  5
142
100
AcDbRasterImageDef
 90
0
  1
../../common/clipart/Screw.png
 10
4.0
 20
9.0
 11
1.0
 21
1.0
280
1
281
0
  0
IMAGEDEF
  5
149
100
AcDbRasterImageDef
 90
0
  1
../../common/clipart/Screw.png
 10
3.0
 20
9.0
 11
1.0
 21
1.0
280
1
281
0
  0
IMAGEDEF
  5
14B
100
AcDbRasterImageDef
 90
0
  1
../../common/clipart/Screw.png
 10
4.0
 20
9.0
 11
1.0
 21
1.0
280
1
281
0
  0
IMAGEDEF
  5
14E
100
AcDbRasterImageDef
 90
0
  1
../../common/clipart/Screw.png
 10
3.0
 20
9.0
 11
1.0
 21
1.0
280
1
281
0
  0
IMAGEDEF
  5
151
100
AcDbRasterImageDef
 90
0
  1
../../common/clipart/Screw.png
 10
3.0
 20
9.0
 11
1.0
 21
1.0
280
1
281
0
  0
IMAGEDEF
  5
154
100
AcDbRasterImageDef
 90
0
  1
../../common/clipart/Screw.png
 10
3.0
 20
9.0
 11
1.0
 21
1.0
280
1
281
0
  0
IMAGEDEF
  5
157
100
AcDbRasterImageDef
 90
0
  1
../../common/clipart/Screw.png
 10
4.0
 20
9.0
 11
1.0
 21
1.0
280
1
281
0
  0
IMAGEDEF
  5
15A
100
AcDbRasterImageDef
 90
0
  1
../../common/clipart/Screw.png
 10
3.0
 20
9.0
 11
1.0
 21
1.0
280
1
281
0
  0
IMAGEDEF
  5
15D
100
AcDbRasterImageDef
 90
0
  1
../../common/clipart/Screw.png
 10
4.0
 20
9.0
 11
1.0
 21
1.0
280
1
281
0
  0
IMAGEDEF
  5
160
100
AcDbRasterImageDef
 90
0
  1
../../common/clipart/Screw.png
 10
3.0
 20
9.0
 11
1.0
 21
1.0
280
1
281
0
  0
IMAGEDEF
  5
163
100
AcDbRasterImageDef
 90
0
  1
../../common/clipart/Screw.png
 10
3.0
 20
9.0
 11
1.0
 21
1.0
280
1
281
0
  0
IMAGEDEF
  5
166
100
AcDbRasterImageDef
 90
0
  1
../../common/clipart/Screw.png
 10
3.0
 20
9.0
 11
1.0
 21
1.0
280
1
281
0
  0
IMAGEDEF
  5
169
100
AcDbRasterImageDef
 90
0
  1
../../common/clipart/Screw.png
 10
4.0
 20
9.0
 11
1.0
 21
1.0
280
1
281
0
  0
IMAGEDEF
  5
16C
100
AcDbRasterImageDef
 90
0
  1
../../common/clipart/Screw.png
 10
3.0
 20
9.0
 11
1.0
 21
1.0
280
1
281
0
  0
IMAGEDEF
  5
16F
100
AcDbRasterImageDef
 90
0
  1
../../common/clipart/Screw.png
 10
4.0
 20
9.0
 11
1.0
 21
1.0
280
1
281
0
  0
IMAGEDEF
  5
172
100
AcDbRasterImageDef
 90
0
  1
../../common/clipart/Screw.png
 10
3.0
 20
9.0
 11
1.0
 21
1.0
280
1
281
0
  0
IMAGEDEF
  5
175
100
AcDbRasterImageDef
 90
0
  1
../../common/clipart/Screw.png
 10
3.0
 20
9.0
 11
1.0
 21
1.0
280
1
281
0
  0
IMAGEDEF
  5
178
100
AcDbRasterImageDef
 90
0
  1
../../common/clipart/Screw.png
 10
3.0
 20
9.0
 11
1.0
 21
1.0
280
1
281
0
  0
IMAGEDEF
  5
17F
100
AcDbRasterImageDef
 90
0
  1
../../common/clipart/Screw.png
 10
3.0
 20
9.0
 11
1.0
 21
1.0
280
1
281
0
  0
IMAGEDEF
  5
182
100
AcDbRasterImageDef
 90
0
  1
../../common/clipart/Screw.png
 10
3.0
 20
9.0
 11
1.0
 21
1.0
280
1
281
0
  0
IMAGEDEF
  5
185
100
AcDbRasterImageDef
 90
0
  1
../../common/clipart/Screw.png
 10
3.0
 20
9.0
 11
1.0
 21
1.0
280
1
281
0
  0
IMAGEDEF
  5
188
100
AcDbRasterImageDef
 90
0
  1
../../common/clipart/Screw.png
 10
3.0
 20
9.0
 11
1.0
 21
1.0
280
1
281
0
  0
IMAGEDEF
  5
18B
100
AcDbRasterImageDef
 90
0
  1
../../common/clipart/Screw.png
 10
3.0
 20
9.0
 11
1.0
 21
1.0
280
1
281
0
  0
IMAGEDEF
  5
18E
100
AcDbRasterImageDef
 90
0
  1
../../common/clipart/Screw.png
 10
3.0
 20
9.0
 11
1.0
 21
1.0
280
1
281
0
  0
IMAGEDEF
  5
191
100
AcDbRasterImageDef
 90
0
  1
../../common/clipart/Screw.png
 10
3.0
 20
9.0
 11
1.0
 21
1.0
280
1
281
0
  0
IMAGEDEF
  5
193
100
AcDbRasterImageDef
 90
0
  1
../../common/clipart/Screw.png
 10
3.0
 20
9.0
 11
1.0
 21
1.0
280
1
281
0
  0
IMAGEDEF
  5
195
100
AcDbRasterImageDef
 90
0
  1
../../common/clipart/Screw.png
 10
3.0
 20
9.0
 11
1.0
 21
1.0
280
1
281
0
  0
IMAGEDEF
  5
197
100
AcDbRasterImageDef
 90
0
  1
../../common/clipart/Screw.png
 10
3.0
 20
9.0
 11
1.0
 21
1.0
280
1
281
0
  0
IMAGEDEF
  5
199
100
AcDbRasterImageDef
 90
0
  1
../../common/clipart/Screw.png
 10
3.0
 20
9.0
 11
1.0
 21
1.0
280
1
281
0
  0
IMAGEDEF
  5
19B
100
AcDbRasterImageDef
 90
0
  1
../../common/clipart/Screw.png
 10
3.0
 20
9.0
 11
1.0
 21
1.0
280
1
281
0
  0
IMAGEDEF
  5
19D
100
AcDbRasterImageDef
 90
0
  1
../../common/clipart/Screw.png
 10
3.0
 20
9.0
 11
1.0
 21
1.0
280
1
281
0
  0
IMAGEDEF
  5
19F
100
AcDbRasterImageDef
 90
0
  1
../../common/clipart/Screw.png
 10
3.0
 20
9.0
 11
1.0
 21
1.0
280
1
281
0
  0
IMAGEDEF
  5
1A1
100
AcDbRasterImageDef
 90
0
  1
../../common/clipart/Screw.png
 10
3.0
 20
9.0
 11
1.0
 21
1.0
280
1
281
0
  0
IMAGEDEF
  5
1A3
100
AcDbRasterImageDef
 90
0
  1
../../common/clipart/Screw.png
 10
3.0
 20
9.0
 11
1.0
 21
1.0
280
1
281
0
  0
IMAGEDEF
  5
1A5
100
AcDbRasterImageDef
 90
0
  1
../../common/clipart/Screw.png
 10
3.0
 20
9.0
 11
1.0
 21
1.0
280
1
281
0
  0
IMAGEDEF
  5
1A7
100
AcDbRasterImageDef
 90
0
  1
../../common/clipart/Screw.png
 10
3.0
 20
9.0
 11
1.0
 21
1.0
280
1
281
0
  0
IMAGEDEF
  5
1A9
100
AcDbRasterImageDef
 90
0
  1
../../common/clipart/Screw.png
 10
3.0
 20
9.0
 11
1.0
 21
1.0
280
1
281
0
  0
IMAGEDEF
  5
1AB
100
AcDbRasterImageDef
 90
0
  1
../../common/clipart/Screw.png
 10
3.0
 20
9.0
 11
1.0
 21
1.0
280
1
281
0
  0
ENDSEC
  0
EOF
