999
dxflib 3.26.4.0
  0
SECTION
  2
HEADER
  9
$ACADVER
  1
AC1015
  9
$HANDSEED
  5
FFFF
  9
$DIMADEC
 70
0
  9
$DIMASZ
 40
3.0
  9
$DIMATFIT
 70
0
  9
$DIMAUNIT
 70
0
  9
$DIMAZIN
 70
2
  9
$DIMBLK
  1
0
  9
$DIMBLK1
  1
0
  9
$DIMBLK2
  1
0
  9
$DIMDEC
 70
4
  9
$DIMDLI
 40
0.25
  9
$DIMDSEP
 70
46
  9
$DIMEXE
 40
0.0625
  9
$DIMEXO
 40
0.03125
  9
$DIMGAP
 40
0.03125
  9
$DIMLFAC
 40
1.0
  9
$DIMLUNIT
 70
2
  9
$DIMSCALE
 40
1.0
  9
$DIMTAD
 70
1
  9
$DIMTIH
 70
0
  9
$DIMTSZ
 40
0.0
  9
$DIMTXT
 40
2.0
  9
$DIMZIN
 70
8
  9
$DWGCODEPAGE
  3
ANSI_1252
  9
$INSUNITS
 70
1
  9
$LTSCALE
 40
1.0
  9
$MAXACTVP
 70
64
  9
$MEASUREMENT
 70
1
  9
$MIRRTEXT
 70
0
  9
$PDMODE
 70
0
  9
$PDSIZE
 40
0.0
  0
ENDSEC
  0
SECTION
  2
TABLES
  0
TABLE
  2
VPORT
  5
8
100
AcDbSymbolTable
 70
1
  0
VPORT
  5
30
100
AcDbSymbolTableRecord
100
AcDbViewportTableRecord
  2
*Active
 70
0
 10
0.0
 20
0.0
 11
1.0
 21
1.0
 12
286.3055555555554861
 22
148.5
 13
0.0
 23
0.0
 14
10.0
 24
10.0
 15
10.0
 25
10.0
 16
0.0
 26
0.0
 36
1.0
 17
0.0
 27
0.0
 37
0.0
 40
297.0
 41
1.92798353909465
 42
50.0
 43
0.0
 44
0.0
 50
0.0
 51
0.0
 71
0
 72
100
 73
1
 74
3
 75
1
 76
1
 77
0
 78
0
281
0
 65
1
110
0.0
120
0.0
130
0.0
111
1.0
121
0.0
131
0.0
112
0.0
122
1.0
132
0.0
 79
0
146
0.0
  0
ENDTAB
  0
TABLE
  2
LTYPE
  5
5
100
AcDbSymbolTable
 70
41
  0
LTYPE
  5
16
100
AcDbSymbolTableRecord
100
AcDbLinetypeTableRecord
  2
Continuous
 70
0
  3
Solid line
 72
65
 73
0
 40
0.0
  0
LTYPE
  5
31
100
AcDbSymbolTableRecord
100
AcDbLinetypeTableRecord
  2
HIDDEN
 70
0
  3
Hidden __ __ __ __ __ __ __ __ __ __ __ __ __ __
 72
65
 73
2
 40
0.375
 49
0.25
 74
0
 49
-0.125
 74
0
  0
LTYPE
  5
32
100
AcDbSymbolTableRecord
100
AcDbLinetypeTableRecord
  2
DIVIDE2
 70
0
  3
Divide (.5x) __..__..__..__..__..__..__..__.._
 72
65
 73
6
 40
0.625
 49
0.25
 74
0
 49
-0.075
 74
0
 49
0.1
 74
0
 49
-0.025
 74
0
 49
0.1
 74
0
 49
-0.075
 74
0
  0
LTYPE
  5
33
100
AcDbSymbolTableRecord
100
AcDbLinetypeTableRecord
  2
ACAD_ISO05W100
 70
0
  3
ISO long-dash double-dot ____ .. ____ .. ____ . 
 72
65
 73
6
 40
33.0000000000000071
 49
24.0
 74
0
 49
-2.9500000000000002
 74
0
 49
0.1
 74
0
 49
-2.9000000000000004
 74
0
 49
0.1
 74
0
 49
-2.9500000000000002
 74
0
  0
LTYPE
  5
34
100
AcDbSymbolTableRecord
100
AcDbLinetypeTableRecord
  2
ACAD_ISO11W100
 70
0
  3
ISO double-dash dot __ __ . __ __ . __ __ . __ _
 72
65
 73
6
 40
33.0
 49
12.0
 74
0
 49
-3.0
 74
0
 49
12.0
 74
0
 49
-2.9500000000000002
 74
0
 49
0.1
 74
0
 49
-2.9500000000000002
 74
0
  0
LTYPE
  5
35
100
AcDbSymbolTableRecord
100
AcDbLinetypeTableRecord
  2
PHANTOM
 70
0
  3
Phantom ______  __  __  ______  __  __  ______ 
 72
65
 73
6
 40
2.5
 49
1.25
 74
0
 49
-0.25
 74
0
 49
0.25
 74
0
 49
-0.25
 74
0
 49
0.25
 74
0
 49
-0.25
 74
0
  0
LTYPE
  5
15
100
AcDbSymbolTableRecord
100
AcDbLinetypeTableRecord
  2
BYLAYER
 70
0
  3

 72
65
 73
0
 40
0.0
  0
LTYPE
  5
36
100
AcDbSymbolTableRecord
100
AcDbLinetypeTableRecord
  2
DASHDOT2
 70
0
  3
Dash dot (.5x) _._._._._._._._._._._._._._._.
 72
65
 73
4
 40
0.5
 49
0.25
 74
0
 49
-0.075
 74
0
 49
0.1
 74
0
 49
-0.075
 74
0
  0
LTYPE
  5
37
100
AcDbSymbolTableRecord
100
AcDbLinetypeTableRecord
  2
BORDERX2
 70
0
  3
Border (2x) ____  ____  .  ____  ____  .  ___
 72
65
 73
6
 40
3.5000000000000004
 49
1.0
 74
0
 49
-0.5
 74
0
 49
1.0
 74
0
 49
-0.45
 74
0
 49
0.1
 74
0
 49
-0.45
 74
0
  0
LTYPE
  5
38
100
AcDbSymbolTableRecord
100
AcDbLinetypeTableRecord
  2
ACAD_ISO14W100
 70
0
  3
ISO dash triple-dot __ . . . __ . . . __ . . . _
 72
65
 73
8
 40
24.0000000000000036
 49
12.0
 74
0
 49
-2.9500000000000002
 74
0
 49
0.1
 74
0
 49
-2.9000000000000004
 74
0
 49
0.1
 74
0
 49
-2.9000000000000004
 74
0
 49
0.1
 74
0
 49
-2.9500000000000002
 74
0
  0
LTYPE
  5
39
100
AcDbSymbolTableRecord
100
AcDbLinetypeTableRecord
  2
DASHED2
 70
0
  3
Dashed (.5x) _ _ _ _ _ _ _ _ _ _ _ _ _ _ _ _ _ 
 72
65
 73
2
 40
0.375
 49
0.25
 74
0
 49
-0.125
 74
0
  0
LTYPE
  5
3A
100
AcDbSymbolTableRecord
100
AcDbLinetypeTableRecord
  2
CENTERX2
 70
0
  3
Center (2x) ________  __  ________  __  _____
 72
65
 73
4
 40
4.0
 49
2.5
 74
0
 49
-0.5
 74
0
 49
0.5
 74
0
 49
-0.5
 74
0
  0
LTYPE
  5
3B
100
AcDbSymbolTableRecord
100
AcDbLinetypeTableRecord
  2
HIDDENX2
 70
0
  3
Hidden (2x) ____ ____ ____ ____ ____ ____ ____ 
 72
65
 73
2
 40
0.75
 49
0.5
 74
0
 49
-0.25
 74
0
  0
LTYPE
  5
3C
100
AcDbSymbolTableRecord
100
AcDbLinetypeTableRecord
  2
DASHEDX2
 70
0
  3
Dashed (2x) ____  ____  ____  ____  ____  ___
 72
65
 73
2
 40
1.5
 49
1.0
 74
0
 49
-0.5
 74
0
  0
LTYPE
  5
3D
100
AcDbSymbolTableRecord
100
AcDbLinetypeTableRecord
  2
HIDDEN2
 70
0
  3
Hidden (.5x) _ _ _ _ _ _ _ _ _ _ _ _ _ _ _ _ _ 
 72
65
 73
2
 40
0.1875
 49
0.125
 74
0
 49
-0.0625
 74
0
  0
LTYPE
  5
3E
100
AcDbSymbolTableRecord
100
AcDbLinetypeTableRecord
  2
ACAD_ISO13W100
 70
0
  3
ISO double-dash double-dot __ __ . . __ __ . . _
 72
65
 73
8
 40
36.0000000000000071
 49
12.0
 74
0
 49
-3.0
 74
0
 49
12.0
 74
0
 49
-2.9500000000000002
 74
0
 49
0.1
 74
0
 49
-2.9000000000000004
 74
0
 49
0.1
 74
0
 49
-2.9500000000000002
 74
0
  0
LTYPE
  5
3F
100
AcDbSymbolTableRecord
100
AcDbLinetypeTableRecord
  2
DASHDOTX2
 70
0
  3
Dash dot (2x) ____  .  ____  .  ____  .  ___
 72
65
 73
4
 40
2.0
 49
1.0
 74
0
 49
-0.45
 74
0
 49
0.1
 74
0
 49
-0.45
 74
0
  0
LTYPE
  5
40
100
AcDbSymbolTableRecord
100
AcDbLinetypeTableRecord
  2
ACAD_ISO02W100
 70
0
  3
ISO dash __ __ __ __ __ __ __ __ __ __ __ __ __
 72
65
 73
2
 40
15.0
 49
12.0
 74
0
 49
-3.0
 74
0
  0
LTYPE
  5
41
100
AcDbSymbolTableRecord
100
AcDbLinetypeTableRecord
  2
ACAD_ISO07W100
 70
0
  3
ISO dot . . . . . . . . . . . . . . . . . . . . 
 72
65
 73
2
 40
3.0
 49
0.1
 74
0
 49
-2.8999999999999999
 74
0
  0
LTYPE
  5
14
100
AcDbSymbolTableRecord
100
AcDbLinetypeTableRecord
  2
BYBLOCK
 70
0
  3

 72
65
 73
0
 40
0.0
  0
LTYPE
  5
42
100
AcDbSymbolTableRecord
100
AcDbLinetypeTableRecord
  2
DASHDOT
 70
0
  3
Dash dot __ . __ . __ . __ . __ . __ . __ . __
 72
65
 73
4
 40
1.0
 49
0.5
 74
0
 49
-0.2
 74
0
 49
0.1
 74
0
 49
-0.2
 74
0
  0
LTYPE
  5
43
100
AcDbSymbolTableRecord
100
AcDbLinetypeTableRecord
  2
ACAD_ISO06W100
 70
0
  3
ISO long-dash triple-dot ____ ... ____ ... ____
 72
65
 73
8
 40
36.0000000000000071
 49
24.0
 74
0
 49
-2.9500000000000002
 74
0
 49
0.1
 74
0
 49
-2.9000000000000004
 74
0
 49
0.1
 74
0
 49
-2.9000000000000004
 74
0
 49
0.1
 74
0
 49
-2.9500000000000002
 74
0
  0
LTYPE
  5
44
100
AcDbSymbolTableRecord
100
AcDbLinetypeTableRecord
  2
DOT2
 70
0
  3
Dot (.5x) ........................................
 72
65
 73
2
 40
0.125
 49
0.1
 74
0
 49
-0.025
 74
0
  0
LTYPE
  5
45
100
AcDbSymbolTableRecord
100
AcDbLinetypeTableRecord
  2
BORDER
 70
0
  3
Border __ __ . __ __ . __ __ . __ __ . __ __ .
 72
65
 73
6
 40
1.75
 49
0.5
 74
0
 49
-0.25
 74
0
 49
0.5
 74
0
 49
-0.2
 74
0
 49
0.1
 74
0
 49
-0.2
 74
0
  0
LTYPE
  5
46
100
AcDbSymbolTableRecord
100
AcDbLinetypeTableRecord
  2
PHANTOMX2
 70
0
  3
Phantom (2x) ____________    ____    ____   _
 72
65
 73
6
 40
5.0
 49
2.5
 74
0
 49
-0.5
 74
0
 49
0.5
 74
0
 49
-0.5
 74
0
 49
0.5
 74
0
 49
-0.5
 74
0
  0
LTYPE
  5
47
100
AcDbSymbolTableRecord
100
AcDbLinetypeTableRecord
  2
CENTER
 70
0
  3
Center ____ _ ____ _ ____ _ ____ _ ____ _ ____
 72
65
 73
4
 40
2.0
 49
1.25
 74
0
 49
-0.25
 74
0
 49
0.25
 74
0
 49
-0.25
 74
0
  0
LTYPE
  5
48
100
AcDbSymbolTableRecord
100
AcDbLinetypeTableRecord
  2
DIVIDEX2
 70
0
  3
Divide (2x) ________  .  .  ________  .  .  _
 72
65
 73
6
 40
2.5000000000000004
 49
1.0
 74
0
 49
-0.45
 74
0
 49
0.1
 74
0
 49
-0.4
 74
0
 49
0.1
 74
0
 49
-0.45
 74
0
  0
LTYPE
  5
49
100
AcDbSymbolTableRecord
100
AcDbLinetypeTableRecord
  2
ACAD_ISO08W100
 70
0
  3
ISO long-dash short-dash ____ __ ____ __ ____ _
 72
65
 73
4
 40
36.0
 49
24.0
 74
0
 49
-3.0
 74
0
 49
6.0
 74
0
 49
-3.0
 74
0
  0
LTYPE
  5
4A
100
AcDbSymbolTableRecord
100
AcDbLinetypeTableRecord
  2
ACAD_ISO10W100
 70
0
  3
ISO dash dot __ . __ . __ . __ . __ . __ . __ . 
 72
65
 73
4
 40
18.0
 49
12.0
 74
0
 49
-2.9500000000000002
 74
0
 49
0.1
 74
0
 49
-2.9500000000000002
 74
0
  0
LTYPE
  5
4B
100
AcDbSymbolTableRecord
100
AcDbLinetypeTableRecord
  2
DOT
 70
0
  3
Dot . . . . . . . . . . . . . . . . . . . . . . . .
 72
65
 73
2
 40
0.25
 49
0.1
 74
0
 49
-0.15
 74
0
  0
LTYPE
  5
4C
100
AcDbSymbolTableRecord
100
AcDbLinetypeTableRecord
  2
DOTX2
 70
0
  3
Dot (2x) .  .  .  .  .  .  .  .  .  .  .  .  .  .
 72
65
 73
2
 40
0.5
 49
0.1
 74
0
 49
-0.4
 74
0
  0
LTYPE
  5
4D
100
AcDbSymbolTableRecord
100
AcDbLinetypeTableRecord
  2
ACAD_ISO09W100
 70
0
  3
ISO long-dash double-short-dash ____ __ __ ____
 72
65
 73
6
 40
45.0
 49
24.0
 74
0
 49
-3.0
 74
0
 49
6.0
 74
0
 49
-3.0
 74
0
 49
6.0
 74
0
 49
-3.0
 74
0
  0
LTYPE
  5
4E
100
AcDbSymbolTableRecord
100
AcDbLinetypeTableRecord
  2
ACAD_ISO15W100
 70
0
  3
ISO double-dash triple-dot __ __ . . . __ __ . .
 72
65
 73
10
 40
39.0000000000000071
 49
12.0
 74
0
 49
-3.0
 74
0
 49
12.0
 74
0
 49
-2.9500000000000002
 74
0
 49
0.1
 74
0
 49
-2.9000000000000004
 74
0
 49
0.1
 74
0
 49
-2.9000000000000004
 74
0
 49
0.1
 74
0
 49
-2.9500000000000002
 74
0
  0
LTYPE
  5
4F
100
AcDbSymbolTableRecord
100
AcDbLinetypeTableRecord
  2
ACAD_ISO12W100
 70
0
  3
ISO dash double-dot __ . . __ . . __ . . __ . . 
 72
65
 73
6
 40
21.0
 49
12.0
 74
0
 49
-2.9500000000000002
 74
0
 49
0.1
 74
0
 49
-2.9000000000000004
 74
0
 49
0.1
 74
0
 49
-2.9500000000000002
 74
0
  0
LTYPE
  5
50
100
AcDbSymbolTableRecord
100
AcDbLinetypeTableRecord
  2
ACAD_ISO04W100
 70
0
  3
ISO long-dash dot ____ . ____ . ____ . ____ . _
 72
65
 73
4
 40
30.0
 49
24.0
 74
0
 49
-2.9500000000000002
 74
0
 49
0.1
 74
0
 49
-2.9500000000000002
 74
0
  0
LTYPE
  5
51
100
AcDbSymbolTableRecord
100
AcDbLinetypeTableRecord
  2
BORDER2
 70
0
  3
Border (.5x) __.__.__.__.__.__.__.__.__.__.__.
 72
65
 73
6
 40
0.8749999999999999
 49
0.25
 74
0
 49
-0.125
 74
0
 49
0.25
 74
0
 49
-0.075
 74
0
 49
0.1
 74
0
 49
-0.075
 74
0
  0
LTYPE
  5
52
100
AcDbSymbolTableRecord
100
AcDbLinetypeTableRecord
  2
PHANTOM2
 70
0
  3
Phantom (.5x) ___ _ _ ___ _ _ ___ _ _ ___ _ _
 72
65
 73
6
 40
1.25
 49
0.625
 74
0
 49
-0.125
 74
0
 49
0.125
 74
0
 49
-0.125
 74
0
 49
0.125
 74
0
 49
-0.125
 74
0
  0
LTYPE
  5
53
100
AcDbSymbolTableRecord
100
AcDbLinetypeTableRecord
  2
DIVIDE
 70
0
  3
Divide ____ . . ____ . . ____ . . ____ . . ____
 72
65
 73
6
 40
1.25
 49
0.5
 74
0
 49
-0.2
 74
0
 49
0.1
 74
0
 49
-0.15
 74
0
 49
0.1
 74
0
 49
-0.2
 74
0
  0
LTYPE
  5
54
100
AcDbSymbolTableRecord
100
AcDbLinetypeTableRecord
  2
CENTER2
 70
0
  3
Center (.5x) ___ _ ___ _ ___ _ ___ _ ___ _ ___
 72
65
 73
4
 40
1.125
 49
0.75
 74
0
 49
-0.125
 74
0
 49
0.125
 74
0
 49
-0.125
 74
0
  0
LTYPE
  5
55
100
AcDbSymbolTableRecord
100
AcDbLinetypeTableRecord
  2
ACAD_ISO03W100
 70
0
  3
ISO dash space __    __    __    __    __    __
 72
65
 73
2
 40
30.0
 49
12.0
 74
0
 49
-18.0
 74
0
  0
LTYPE
  5
56
100
AcDbSymbolTableRecord
100
AcDbLinetypeTableRecord
  2
DASHED
 70
0
  3
Dashed __ __ __ __ __ __ __ __ __ __ __ __ __ _
 72
65
 73
2
 40
0.75
 49
0.5
 74
0
 49
-0.25
 74
0
  0
ENDTAB
  0
TABLE
  2
LAYER
  5
2
100
AcDbSymbolTable
 70
11
  0
LAYER
  5
10
100
AcDbSymbolTableRecord
100
AcDbLayerTableRecord
  2
0
 70
1
 62
7
420
16777215
  6
Continuous
370
25
390
F
  0
LAYER
  5
57
100
AcDbSymbolTableRecord
100
AcDbLayerTableRecord
  2
step_07
 70
1
 62
7
420
0
  6
Continuous
370
25
390
F
  0
LAYER
  5
58
100
AcDbSymbolTableRecord
100
AcDbLayerTableRecord
  2
step_04
 70
1
 62
7
420
0
  6
Continuous
370
25
390
F
  0
LAYER
  5
59
100
AcDbSymbolTableRecord
100
AcDbLayerTableRecord
  2
step_03
 70
1
 62
7
420
0
  6
Continuous
370
25
390
F
  0
LAYER
  5
5A
100
AcDbSymbolTableRecord
100
AcDbLayerTableRecord
  2
step_06
 70
1
 62
7
420
0
  6
Continuous
370
25
390
F
  0
LAYER
  5
5B
100
AcDbSymbolTableRecord
100
AcDbLayerTableRecord
  2
step_04b
 70
1
 62
7
420
0
  6
Continuous
370
25
390
F
  0
LAYER
  5
5C
100
AcDbSymbolTableRecord
100
AcDbLayerTableRecord
  2
step_01
 70
0
 62
7
420
0
  6
Continuous
370
25
390
F
  0
LAYER
  5
5D
100
AcDbSymbolTableRecord
100
AcDbLayerTableRecord
  2
step_02
 70
1
 62
7
420
0
  6
Continuous
370
25
390
F
  0
LAYER
  5
5E
100
AcDbSymbolTableRecord
100
AcDbLayerTableRecord
  2
Framing
 70
0
 62
7
420
0
  6
Continuous
370
25
390
F
  0
LAYER
  5
5F
100
AcDbSymbolTableRecord
100
AcDbLayerTableRecord
  2
step_08
 70
1
 62
7
420
0
  6
Continuous
370
25
390
F
  0
LAYER
  5
60
100
AcDbSymbolTableRecord
100
AcDbLayerTableRecord
  2
step_05
 70
1
 62
7
420
0
  6
Continuous
370
25
390
F
  0
ENDTAB
  0
TABLE
  2
STYLE
  5
3
100
AcDbSymbolTable
 70
53
  0
STYLE
  5
61
100
AcDbSymbolTableRecord
100
AcDbTextStyleTableRecord
  2
Standard
 70
0
 40
0.0
 41
1.0
 50
0.0
 71
0
 42
2.5
  3

  4

1001
ACAD
1000
txt
1071
0
  0
STYLE
  5
62
100
AcDbSymbolTableRecord
100
AcDbTextStyleTableRecord
  2
textstyle0
 70
0
 40
0.0
 41
1.0
 50
0.0
 71
0
 42
2.0
  3

  4

1001
ACAD
1000
Liberation Sans
1071
0
  0
STYLE
  5
63
100
AcDbSymbolTableRecord
100
AcDbTextStyleTableRecord
  2
textstyle1
 70
0
 40
0.0
 41
1.0
 50
0.0
 71
0
 42
2.5
  3

  4

1001
ACAD
1000
textstyle37
1071
0
  0
STYLE
  5
64
100
AcDbSymbolTableRecord
100
AcDbTextStyleTableRecord
  2
textstyle2
 70
0
 40
0.0
 41
1.0
 50
0.0
 71
0
 42
2.5
  3

  4

1001
ACAD
1000
textstyle38
1071
0
  0
STYLE
  5
65
100
AcDbSymbolTableRecord
100
AcDbTextStyleTableRecord
  2
textstyle3
 70
0
 40
0.0
 41
1.0
 50
0.0
 71
0
 42
2.5
  3

  4

1001
ACAD
1000
textstyle6
1071
0
  0
STYLE
  5
66
100
AcDbSymbolTableRecord
100
AcDbTextStyleTableRecord
  2
textstyle4
 70
0
 40
0.0
 41
1.0
 50
0.0
 71
0
 42
2.5
  3

  4

1001
ACAD
1000
textstyle50
1071
0
  0
STYLE
  5
67
100
AcDbSymbolTableRecord
100
AcDbTextStyleTableRecord
  2
textstyle5
 70
0
 40
0.0
 41
1.0
 50
0.0
 71
0
 42
2.5
  3

  4

1001
ACAD
1000
Liberation Sans
1071
0
  0
STYLE
  5
68
100
AcDbSymbolTableRecord
100
AcDbTextStyleTableRecord
  2
textstyle6
 70
0
 40
0.0
 41
1.0
 50
0.0
 71
0
 42
2.5
  3

  4

1001
ACAD
1000
Liberation Sans
1071
0
  0
STYLE
  5
69
100
AcDbSymbolTableRecord
100
AcDbTextStyleTableRecord
  2
textstyle7
 70
0
 40
0.0
 41
1.0
 50
0.0
 71
0
 42
2.0
  3

  4

1001
ACAD
1000
Liberation Sans
1071
0
  0
STYLE
  5
6A
100
AcDbSymbolTableRecord
100
AcDbTextStyleTableRecord
  2
textstyle8
 70
0
 40
0.0
 41
1.0
 50
0.0
 71
0
 42
2.5
  3

  4

1001
ACAD
1000
Liberation Sans
1071
0
  0
STYLE
  5
6B
100
AcDbSymbolTableRecord
100
AcDbTextStyleTableRecord
  2
textstyle9
 70
0
 40
0.0
 41
1.0
 50
0.0
 71
0
 42
2.5
  3

  4

1001
ACAD
1000
textstyle39
1071
0
  0
STYLE
  5
6C
100
AcDbSymbolTableRecord
100
AcDbTextStyleTableRecord
  2
textstyle10
 70
0
 40
0.0
 41
1.0
 50
0.0
 71
0
 42
2.5
  3

  4

1001
ACAD
1000
textstyle43
1071
0
  0
STYLE
  5
6D
100
AcDbSymbolTableRecord
100
AcDbTextStyleTableRecord
  2
textstyle11
 70
0
 40
0.0
 41
1.0
 50
0.0
 71
0
 42
3.0
  3

  4

1001
ACAD
1000
Liberation Sans
1071
0
  0
STYLE
  5
6E
100
AcDbSymbolTableRecord
100
AcDbTextStyleTableRecord
  2
textstyle12
 70
0
 40
0.0
 41
1.0
 50
0.0
 71
0
 42
3.0
  3

  4

1001
ACAD
1000
DejaVu Sans
1071
0
  0
STYLE
  5
6F
100
AcDbSymbolTableRecord
100
AcDbTextStyleTableRecord
  2
textstyle13
 70
0
 40
0.0
 41
1.0
 50
0.0
 71
0
 42
3.0
  3

  4

1001
ACAD
1000
Liberation Sans
1071
0
  0
STYLE
  5
70
100
AcDbSymbolTableRecord
100
AcDbTextStyleTableRecord
  2
textstyle14
 70
0
 40
0.0
 41
1.0
 50
0.0
 71
0
 42
3.0
  3

  4

1001
ACAD
1000
Liberation Sans
1071
0
  0
STYLE
  5
71
100
AcDbSymbolTableRecord
100
AcDbTextStyleTableRecord
  2
textstyle15
 70
0
 40
0.0
 41
1.0
 50
0.0
 71
0
 42
3.0
  3

  4

1001
ACAD
1000
Liberation Sans
1071
0
  0
STYLE
  5
72
100
AcDbSymbolTableRecord
100
AcDbTextStyleTableRecord
  2
textstyle16
 70
0
 40
0.0
 41
1.0
 50
0.0
 71
0
 42
3.0
  3

  4

1001
ACAD
1000
Liberation Sans
1071
0
  0
STYLE
  5
73
100
AcDbSymbolTableRecord
100
AcDbTextStyleTableRecord
  2
textstyle17
 70
0
 40
0.0
 41
1.0
 50
0.0
 71
0
 42
3.0
  3

  4

1001
ACAD
1000
textstyle13
1071
0
  0
STYLE
  5
74
100
AcDbSymbolTableRecord
100
AcDbTextStyleTableRecord
  2
textstyle18
 70
0
 40
0.0
 41
1.0
 50
0.0
 71
0
 42
3.0
  3

  4

1001
ACAD
1000
DejaVu Sans
1071
0
  0
STYLE
  5
75
100
AcDbSymbolTableRecord
100
AcDbTextStyleTableRecord
  2
textstyle19
 70
0
 40
0.0
 41
1.0
 50
0.0
 71
0
 42
3.0
  3

  4

1001
ACAD
1000
Liberation Sans
1071
0
  0
STYLE
  5
76
100
AcDbSymbolTableRecord
100
AcDbTextStyleTableRecord
  2
textstyle20
 70
0
 40
0.0
 41
1.0
 50
0.0
 71
0
 42
3.0
  3

  4

1001
ACAD
1000
Liberation Sans
1071
0
  0
STYLE
  5
77
100
AcDbSymbolTableRecord
100
AcDbTextStyleTableRecord
  2
textstyle21
 70
0
 40
0.0
 41
1.0
 50
0.0
 71
0
 42
3.0
  3

  4

1001
ACAD
1000
Liberation Sans
1071
0
  0
STYLE
  5
78
100
AcDbSymbolTableRecord
100
AcDbTextStyleTableRecord
  2
textstyle22
 70
0
 40
0.0
 41
1.0
 50
0.0
 71
0
 42
3.0
  3

  4

1001
ACAD
1000
textstyle7
1071
0
  0
STYLE
  5
79
100
AcDbSymbolTableRecord
100
AcDbTextStyleTableRecord
  2
textstyle23
 70
0
 40
0.0
 41
1.0
 50
0.0
 71
0
 42
3.0
  3

  4

1001
ACAD
1000
Liberation Sans
1071
0
  0
STYLE
  5
7A
100
AcDbSymbolTableRecord
100
AcDbTextStyleTableRecord
  2
textstyle24
 70
0
 40
0.0
 41
1.0
 50
0.0
 71
0
 42
3.0
  3

  4

1001
ACAD
1000
Nimbus Sans [UKWN]
1071
0
  0
STYLE
  5
7B
100
AcDbSymbolTableRecord
100
AcDbTextStyleTableRecord
  2
textstyle25
 70
0
 40
0.0
 41
1.0
 50
0.0
 71
0
 42
4.0
  3

  4

1001
ACAD
1000
Nimbus Sans [UKWN]
1071
0
  0
STYLE
  5
7C
100
AcDbSymbolTableRecord
100
AcDbTextStyleTableRecord
  2
textstyle26
 70
0
 40
0.0
 41
1.0
 50
0.0
 71
0
 42
4.0
  3

  4

1001
ACAD
1000
Nimbus Sans [UKWN]
1071
0
  0
STYLE
  5
7D
100
AcDbSymbolTableRecord
100
AcDbTextStyleTableRecord
  2
textstyle27
 70
0
 40
0.0
 41
1.0
 50
0.0
 71
0
 42
4.0
  3

  4

1001
ACAD
1000
Nimbus Sans [UKWN]
1071
0
  0
STYLE
  5
7E
100
AcDbSymbolTableRecord
100
AcDbTextStyleTableRecord
  2
textstyle28
 70
0
 40
0.0
 41
1.0
 50
0.0
 71
0
 42
4.0
  3

  4

1001
ACAD
1000
Nimbus Sans [UKWN]
1071
0
  0
STYLE
  5
7F
100
AcDbSymbolTableRecord
100
AcDbTextStyleTableRecord
  2
textstyle29
 70
0
 40
0.0
 41
1.0
 50
0.0
 71
0
 42
1.0
  3

  4

1001
ACAD
1000
SansNS
1071
0
  0
STYLE
  5
80
100
AcDbSymbolTableRecord
100
AcDbTextStyleTableRecord
  2
textstyle30
 70
0
 40
0.0
 41
1.0
 50
0.0
 71
0
 42
2.0
  3

  4

1001
ACAD
1000
SansNS
1071
0
  0
STYLE
  5
81
100
AcDbSymbolTableRecord
100
AcDbTextStyleTableRecord
  2
textstyle31
 70
0
 40
0.0
 41
1.0
 50
0.0
 71
0
 42
2.0
  3

  4

1001
ACAD
1000
SansNS
1071
0
  0
STYLE
  5
82
100
AcDbSymbolTableRecord
100
AcDbTextStyleTableRecord
  2
textstyle32
 70
0
 40
0.0
 41
1.0
 50
0.0
 71
0
 42
3.0
  3

  4

1001
ACAD
1000
textstyle44
1071
0
  0
STYLE
  5
83
100
AcDbSymbolTableRecord
100
AcDbTextStyleTableRecord
  2
textstyle33
 70
0
 40
0.0
 41
1.0
 50
0.0
 71
0
 42
3.0
  3

  4

1001
ACAD
1000
Liberation Sans
1071
0
  0
STYLE
  5
84
100
AcDbSymbolTableRecord
100
AcDbTextStyleTableRecord
  2
textstyle34
 70
0
 40
0.0
 41
1.0
 50
0.0
 71
0
 42
3.0
  3

  4

1001
ACAD
1000
Liberation Sans
1071
0
  0
STYLE
  5
85
100
AcDbSymbolTableRecord
100
AcDbTextStyleTableRecord
  2
textstyle35
 70
0
 40
0.0
 41
1.0
 50
0.0
 71
0
 42
3.0
  3

  4

1001
ACAD
1000
Liberation Sans
1071
0
  0
STYLE
  5
86
100
AcDbSymbolTableRecord
100
AcDbTextStyleTableRecord
  2
textstyle36
 70
0
 40
0.0
 41
1.0
 50
0.0
 71
0
 42
3.0
  3

  4

1001
ACAD
1000
Liberation Sans
1071
0
  0
STYLE
  5
87
100
AcDbSymbolTableRecord
100
AcDbTextStyleTableRecord
  2
textstyle37
 70
0
 40
0.0
 41
1.0
 50
0.0
 71
0
 42
3.0
  3

  4

1001
ACAD
1000
Liberation Sans
1071
0
  0
STYLE
  5
88
100
AcDbSymbolTableRecord
100
AcDbTextStyleTableRecord
  2
textstyle38
 70
0
 40
0.0
 41
1.0
 50
0.0
 71
0
 42
3.0
  3

  4

1001
ACAD
1000
DejaVu Sans
1071
0
  0
STYLE
  5
89
100
AcDbSymbolTableRecord
100
AcDbTextStyleTableRecord
  2
textstyle39
 70
0
 40
0.0
 41
1.0
 50
0.0
 71
0
 42
3.0
  3

  4

1001
ACAD
1000
Liberation Sans
1071
0
  0
STYLE
  5
8A
100
AcDbSymbolTableRecord
100
AcDbTextStyleTableRecord
  2
textstyle40
 70
0
 40
0.0
 41
1.0
 50
0.0
 71
0
 42
3.0
  3

  4

1001
ACAD
1000
Liberation Sans
1071
0
  0
STYLE
  5
8B
100
AcDbSymbolTableRecord
100
AcDbTextStyleTableRecord
  2
textstyle41
 70
0
 40
0.0
 41
1.0
 50
0.0
 71
0
 42
3.0
  3

  4

1001
ACAD
1000
Liberation Sans
1071
0
  0
STYLE
  5
8C
100
AcDbSymbolTableRecord
100
AcDbTextStyleTableRecord
  2
textstyle42
 70
0
 40
0.0
 41
1.0
 50
0.0
 71
0
 42
3.0
  3

  4

1001
ACAD
1000
Liberation Sans
1071
0
  0
STYLE
  5
8D
100
AcDbSymbolTableRecord
100
AcDbTextStyleTableRecord
  2
textstyle43
 70
0
 40
0.0
 41
1.0
 50
0.0
 71
0
 42
3.0
  3

  4

1001
ACAD
1000
Liberation Sans
1071
0
  0
STYLE
  5
8E
100
AcDbSymbolTableRecord
100
AcDbTextStyleTableRecord
  2
textstyle44
 70
0
 40
0.0
 41
1.0
 50
0.0
 71
0
 42
3.0
  3

  4

1001
ACAD
1000
Liberation Sans
1071
0
  0
STYLE
  5
8F
100
AcDbSymbolTableRecord
100
AcDbTextStyleTableRecord
  2
textstyle45
 70
0
 40
0.0
 41
1.0
 50
0.0
 71
0
 42
3.0
  3

  4

1001
ACAD
1000
Liberation Sans
1071
0
  0
STYLE
  5
90
100
AcDbSymbolTableRecord
100
AcDbTextStyleTableRecord
  2
textstyle46
 70
0
 40
0.0
 41
1.0
 50
0.0
 71
0
 42
3.0
  3

  4

1001
ACAD
1000
Liberation Sans
1071
0
  0
STYLE
  5
91
100
AcDbSymbolTableRecord
100
AcDbTextStyleTableRecord
  2
textstyle47
 70
0
 40
0.0
 41
1.0
 50
0.0
 71
0
 42
3.0
  3

  4

1001
ACAD
1000
Liberation Sans
1071
0
  0
STYLE
  5
92
100
AcDbSymbolTableRecord
100
AcDbTextStyleTableRecord
  2
textstyle48
 70
0
 40
0.0
 41
1.0
 50
0.0
 71
0
 42
3.0
  3

  4

1001
ACAD
1000
Liberation Sans
1071
0
  0
STYLE
  5
93
100
AcDbSymbolTableRecord
100
AcDbTextStyleTableRecord
  2
textstyle49
 70
0
 40
0.0
 41
1.0
 50
0.0
 71
0
 42
3.0
  3

  4

1001
ACAD
1000
Liberation Sans
1071
0
  0
STYLE
  5
94
100
AcDbSymbolTableRecord
100
AcDbTextStyleTableRecord
  2
textstyle50
 70
0
 40
0.0
 41
1.0
 50
0.0
 71
0
 42
3.0
  3

  4

1001
ACAD
1000
Liberation Sans
1071
0
  0
STYLE
  5
95
100
AcDbSymbolTableRecord
100
AcDbTextStyleTableRecord
  2
textstyle51
 70
0
 40
0.0
 41
1.0
 50
0.0
 71
0
 42
3.0
  3

  4

1001
ACAD
1000
Liberation Sans
1071
0
  0
ENDTAB
  0
TABLE
  2
VIEW
  5
6
100
AcDbSymbolTable
 70
0
  0
ENDTAB
  0
TABLE
  2
UCS
  5
7
100
AcDbSymbolTable
 70
0
  0
ENDTAB
  0
TABLE
  2
APPID
  5
9
100
AcDbSymbolTable
 70
1
  0
APPID
  5
12
100
AcDbSymbolTableRecord
100
AcDbRegAppTableRecord
  2
ACAD
 70
0
  0
APPID
  5
96
100
AcDbSymbolTableRecord
100
AcDbRegAppTableRecord
  2
QCAD
 70
0
  0
ENDTAB
  0
TABLE
  2
DIMSTYLE
  5
A
100
AcDbSymbolTable
 70
1
100
AcDbDimStyleTable
 71
0
  0
DIMSTYLE
105
27
100
AcDbSymbolTableRecord
100
AcDbDimStyleTableRecord
  2
Standard
 41
3.0
 42
0.03125
 43
3.75
 44
0.0625
 70
0
 73
0
 74
0
 77
1
 78
8
140
2.0
141
2.5
143
0.03937007874016
147
0.03125
171
3
172
1
271
2
272
2
274
3
278
44
283
0
284
8
340
61
  0
ENDTAB
  0
TABLE
  2
BLOCK_RECORD
  5
1
100
AcDbSymbolTable
 70
1
  0
BLOCK_RECORD
  5
1F
100
AcDbSymbolTableRecord
100
AcDbBlockTableRecord
  2
*Model_Space
340
22
  0
BLOCK_RECORD
  5
1B
100
AcDbSymbolTableRecord
100
AcDbBlockTableRecord
  2
*Paper_Space
340
1E
  0
BLOCK_RECORD
  5
23
100
AcDbSymbolTableRecord
100
AcDbBlockTableRecord
  2
*Paper_Space0
340
26
  0
BLOCK_RECORD
  5
97
100
AcDbSymbolTableRecord
100
AcDbBlockTableRecord
  2
blk6_5
340
0
  0
BLOCK_RECORD
  5
98
100
AcDbSymbolTableRecord
100
AcDbBlockTableRecord
  2
noNail
340
0
  0
ENDTAB
  0
ENDSEC
  0
SECTION
  2
BLOCKS
  0
BLOCK
  5
20
100
AcDbEntity
  8
0
100
AcDbBlockBegin
  2
*Model_Space
 70
0
 10
0.0
 20
0.0
 30
0.0
  3
*Model_Space
  1

  0
ENDBLK
  5
21
100
AcDbEntity
  8
0
100
AcDbBlockEnd
  0
BLOCK
  5
1C
100
AcDbEntity
 67
1
  8
0
100
AcDbBlockBegin
  2
*Paper_Space
 70
0
 10
0.0
 20
0.0
 30
0.0
  3
*Paper_Space
  1

  0
ENDBLK
  5
1D
100
AcDbEntity
 67
1
  8
0
100
AcDbBlockEnd
  0
BLOCK
  5
24
100
AcDbEntity
  8
0
100
AcDbBlockBegin
  2
*Paper_Space0
 70
0
 10
0.0
 20
0.0
 30
0.0
  3
*Paper_Space0
  1

  0
ENDBLK
  5
25
100
AcDbEntity
  8
0
100
AcDbBlockEnd
  0
BLOCK
  5
99
100
AcDbEntity
  8
0
100
AcDbBlockBegin
  2
blk6_5
 70
0
 10
0.0
 20
0.0
 30
0.0
  3
blk6_5
  1

  0
LINE
  5
9A
100
AcDbEntity
  8
Framing
 62
256
370
-1
 48
1.0
  6
BYLAYER
100
AcDbLine
 10
0.0
 20
6.5
 30
0.0
 11
0.0
 21
0.0
 31
0.0
  0
LINE
  5
9B
100
AcDbEntity
  8
Framing
 62
256
370
-1
 48
1.0
  6
BYLAYER
100
AcDbLine
 10
0.0
 20
0.0
 30
0.0
 11
1.5
 21
0.0
 31
0.0
  0
LINE
  5
9C
100
AcDbEntity
  8
Framing
 62
256
370
-1
 48
1.0
  6
BYLAYER
100
AcDbLine
 10
1.5
 20
0.0
 30
0.0
 11
1.5
 21
6.5
 31
0.0
  0
LINE
  5
9D
100
AcDbEntity
  8
Framing
 62
256
370
-1
 48
1.0
  6
BYLAYER
100
AcDbLine
 10
1.5
 20
6.5
 30
0.0
 11
0.0
 21
6.5
 31
0.0
  0
ENDBLK
  5
9E
100
AcDbEntity
  8
0
100
AcDbBlockEnd
  0
BLOCK
  5
9F
100
AcDbEntity
  8
0
100
AcDbBlockBegin
  2
noNail
 70
0
 10
0.0
 20
0.0
 30
0.0
  3
noNail
  1

  0
IMAGE
  5
A0
100
AcDbEntity
  8
step_03
 62
256
370
-1
 48
1.0
  6
BYLAYER
100
AcDbRasterImage
 90
0
 10
0.0
 20
0.0
 30
0.0
 11
0.25
 21
0.0
 31
0.0
 12
0.0
 22
0.25
 32
0.0
 13
14.0
 23
14.0
340
A1
 70
15
280
0
281
50
282
50
283
0
  0
CIRCLE
  5
A2
100
AcDbEntity
  8
step_03
 62
256
370
90
 48
1.0
  6
BYLAYER
100
AcDbCircle
 10
8.0
 20
7.5
 30
0.0
 40
8.5
  0
LINE
  5
A3
100
AcDbEntity
  8
step_03
 62
256
370
90
 48
1.0
  6
BYLAYER
100
AcDbLine
 10
13.8817169767504627
 20
13.0141096657035575
 30
0.0
 11
2.1182830232495391
 21
1.9858903342964425
 31
0.0
  0
ENDBLK
  5
A4
100
AcDbEntity
  8
0
100
AcDbBlockEnd
  0
ENDSEC
  0
SECTION
  2
ENTITIES
  0
HATCH
  5
A5
100
AcDbEntity
  8
step_08
 62
252
420
10526884
370
-1
 48
1.0
  6
BYLAYER
100
AcDbHatch
 10
0.0
 20
0.0
 30
0.0
210
0.0
220
0.0
230
1.0
  2
SOLID
 70
1
 71
0
 91
1
 92
1
 93
4
 72
1
 10
44.5
 20
87.0
 11
44.5
 21
-5.0
 72
1
 10
44.5
 20
-5.0
 11
92.5
 21
-5.0
 72
1
 10
92.5
 20
-5.0
 11
92.5
 21
87.0
 72
1
 10
92.5
 20
87.0
 11
44.5
 21
87.0
 97
0
 75
0
 76
1
 98
0
1001
ACAD
1010
0.0
1020
0.0
1030
0
  0
LINE
  5
A6
100
AcDbEntity
  8
step_08
 62
256
370
-1
 48
1.0
  6
BYLAYER
100
AcDbLine
 10
44.5
 20
87.0
 30
0.0
 11
92.5
 21
87.0
 31
0.0
  0
LINE
  5
A7
100
AcDbEntity
  8
step_08
 62
256
370
-1
 48
1.0
  6
BYLAYER
100
AcDbLine
 10
92.5
 20
87.0
 30
0.0
 11
92.5
 21
-5.0
 31
0.0
  0
LINE
  5
A8
100
AcDbEntity
  8
step_08
 62
256
370
-1
 48
1.0
  6
BYLAYER
100
AcDbLine
 10
44.5
 20
-5.0
 30
0.0
 11
92.5
 21
-5.0
 31
0.0
  0
LINE
  5
A9
100
AcDbEntity
  8
step_08
 62
256
370
-1
 48
1.0
  6
BYLAYER
100
AcDbLine
 10
44.5
 20
87.0
 30
0.0
 11
44.5
 21
-5.0
 31
0.0
  0
HATCH
  5
AA
100
AcDbEntity
  8
step_06
 62
9
420
12632256
370
-1
 48
1.0
  6
BYLAYER
100
AcDbHatch
 10
0.0
 20
0.0
 30
0.0
210
0.0
220
0.0
230
1.0
  2
SOLID
 70
1
 71
0
 91
2
 92
1
 93
4
 72
1
 10
18.25
 20
81.0
 11
42.25
 21
81.0
 72
1
 10
42.2499999999999929
 20
81.0000000000000142
 11
42.2499999999999929
 21
45.0
 72
1
 10
42.2499999999999929
 20
45.0
 11
18.25
 21
45.0
 72
1
 10
18.25
 20
45.0
 11
18.2500000000000036
 21
81.0
 97
0
 92
1
 93
4
 72
1
 10
-3.0
 20
-5.0
 11
93.0
 21
-5.0
 72
1
 10
93.0
 20
-5.0
 11
93.0
 21
87.0
 72
1
 10
93.0
 20
87.0
 11
-3.0
 21
87.0
 72
1
 10
-3.0
 20
87.0
 11
-3.0
 21
-5.0
 97
0
 75
0
 76
1
 98
0
1001
ACAD
1010
0.0
1020
0.0
1030
0
  0
LINE
  5
AB
100
AcDbEntity
  8
Framing
 62
256
370
-1
 48
1.0
  6
BYLAYER
100
AcDbLine
 10
45.25
 20
85.5
 30
0.0
 11
65.75
 21
85.5
 31
0.0
  0
LINE
  5
AC
100
AcDbEntity
  8
step_06
 62
256
370
-1
 48
1.0
  6
BYLAYER
100
AcDbLine
 10
42.2499999999999929
 20
45.0
 30
0.0
 11
18.25
 21
45.0
 31
0.0
  0
LINE
  5
AD
100
AcDbEntity
  8
step_06
 62
256
370
-1
 48
1.0
  6
BYLAYER
100
AcDbLine
 10
-3.0
 20
-5.0
 30
0.0
 11
-3.0
 21
87.0
 31
0.0
  0
LINE
  5
AE
100
AcDbEntity
  8
step_06
 62
256
370
-1
 48
1.0
  6
BYLAYER
100
AcDbLine
 10
-3.0
 20
87.0
 30
0.0
 11
93.0
 21
87.0
 31
0.0
  0
LINE
  5
AF
100
AcDbEntity
  8
step_06
 62
256
370
-1
 48
1.0
  6
BYLAYER
100
AcDbLine
 10
93.0
 20
87.0
 30
0.0
 11
93.0
 21
-5.0
 31
0.0
  0
LINE
  5
B0
100
AcDbEntity
  8
step_06
 62
256
370
-1
 48
1.0
  6
BYLAYER
100
AcDbLine
 10
-3.0
 20
-5.0
 30
0.0
 11
93.0
 21
-5.0
 31
0.0
  0
LINE
  5
B1
100
AcDbEntity
  8
step_06
 62
256
370
-1
 48
1.0
  6
BYLAYER
100
AcDbLine
 10
18.2500000000000036
 20
81.0
 30
0.0
 11
18.25
 21
45.0
 31
0.0
  0
LINE
  5
B2
100
AcDbEntity
  8
step_06
 62
256
370
-1
 48
1.0
  6
BYLAYER
100
AcDbLine
 10
42.2499999999999929
 20
45.0
 30
0.0
 11
42.2499999999999929
 21
81.0000000000000142
 31
0.0
  0
LINE
  5
B3
100
AcDbEntity
  8
step_06
 62
256
370
-1
 48
1.0
  6
BYLAYER
100
AcDbLine
 10
18.25
 20
81.0000000000000142
 30
0.0
 11
42.25
 21
81.0
 31
0.0
  0
HATCH
  5
B4
100
AcDbEntity
  8
step_05
 62
9
420
12632256
370
-1
 48
1.0
  6
BYLAYER
100
AcDbHatch
 10
0.0
 20
0.0
 30
0.0
210
0.0
220
0.0
230
1.0
  2
SOLID
 70
1
 71
0
 91
1
 92
1
 93
4
 72
1
 10
93.0
 20
87.0
 11
93.0
 21
-5.0
 72
1
 10
93.0
 20
-5.0
 11
-3.0
 21
-5.0
 72
1
 10
-3.0
 20
-5.0
 11
-3.0
 21
87.0
 72
1
 10
-3.0
 20
87.0
 11
93.0
 21
87.0
 97
0
 75
0
 76
1
 98
0
1001
ACAD
1010
0.0
1020
0.0
1030
0
  0
HATCH
  5
B5
100
AcDbEntity
  8
step_07
 62
252
420
10526884
370
-1
 48
1.0
  6
BYLAYER
100
AcDbHatch
 10
0.0
 20
0.0
 30
0.0
210
0.0
220
0.0
230
1.0
  2
SOLID
 70
1
 71
0
 91
2
 92
1
 93
4
 72
1
 10
18.2500000000000036
 20
81.0
 11
18.25
 21
45.0
 72
1
 10
18.2499999999999929
 20
45.0
 11
42.25
 21
45.0
 72
1
 10
42.2499999999999929
 20
45.0
 11
42.2499999999999929
 21
81.0000000000000142
 72
1
 10
42.25
 20
81.0
 11
18.25
 21
81.0
 97
0
 92
1
 93
4
 72
1
 10
-3.5
 20
-5.0
 11
44.5
 21
-5.0
 72
1
 10
44.5
 20
-5.0
 11
44.5
 21
87.0
 72
1
 10
44.5
 20
87.0
 11
-3.5
 21
87.0
 72
1
 10
-3.5
 20
87.0
 11
-3.5
 21
-5.0
 97
0
 75
0
 76
1
 98
0
1001
ACAD
1010
0.0
1020
0.0
1030
0
  0
HATCH
  5
B6
100
AcDbEntity
  8
step_07
 62
252
420
10526884
370
-1
 48
1.0
  6
BYLAYER
100
AcDbHatch
 10
0.0
 20
0.0
 30
0.0
210
0.0
220
0.0
230
1.0
  2
SOLID
 70
1
 71
0
 91
1
 92
1
 93
4
 72
1
 10
92.5
 20
87.0
 11
92.5
 21
-5.0
 72
1
 10
92.5
 20
-5.0
 11
44.5
 21
-5.0
 72
1
 10
44.5
 20
-5.0
 11
44.5
 21
87.0
 72
1
 10
44.5
 20
87.0
 11
92.5
 21
87.0
 97
0
 75
0
 76
1
 98
0
1001
ACAD
1010
0.0
1020
0.0
1030
0
  0
HATCH
  5
B7
100
AcDbEntity
  8
step_08
 62
252
420
10526884
370
-1
 48
1.0
  6
BYLAYER
100
AcDbHatch
 10
0.0
 20
0.0
 30
0.0
210
0.0
220
0.0
230
1.0
  2
SOLID
 70
1
 71
0
 91
2
 92
1
 93
4
 72
1
 10
18.2500000000000036
 20
81.0
 11
18.25
 21
45.0
 72
1
 10
18.2499999999999929
 20
45.0
 11
42.25
 21
45.0
 72
1
 10
42.2499999999999929
 20
45.0
 11
42.2499999999999929
 21
81.0000000000000142
 72
1
 10
42.25
 20
81.0
 11
18.25
 21
81.0
 97
0
 92
1
 93
4
 72
1
 10
-3.5
 20
-5.0
 11
44.5
 21
-5.0
 72
1
 10
44.5
 20
-5.0
 11
44.5
 21
87.0
 72
1
 10
44.5
 20
87.0
 11
-3.5
 21
87.0
 72
1
 10
-3.5
 20
87.0
 11
-3.5
 21
-5.0
 97
0
 75
0
 76
1
 98
0
1001
ACAD
1010
0.0
1020
0.0
1030
0
  0
LINE
  5
B8
100
AcDbEntity
  8
Framing
 62
256
370
-1
 48
1.0
  6
BYLAYER
100
AcDbLine
 10
65.75
 20
1.5
 30
0.0
 11
65.75
 21
70.25
 31
0.0
  0
LINE
  5
B9
100
AcDbEntity
  8
step_06
 62
256
370
-1
 48
1.0
  6
BYLAYER
100
AcDbLine
 10
43.2500000000000071
 20
45.0
 30
0.0
 11
43.2500000000000071
 21
81.0
 31
0.0
  0
HATCH
  5
BA
100
AcDbEntity
  8
step_01
 62
7
420
0
370
-1
 48
1.0
  6
BYLAYER
100
AcDbHatch
 10
0.0
 20
0.0
 30
0.0
210
0.0
220
0.0
230
1.0
  2
SOLID
 70
1
 71
0
 91
1
 92
1
 93
4
 72
1
 10
0.0000000000000051
 20
85.5
 11
89.0
 21
85.5
 72
1
 10
89.0
 20
85.5
 11
89.0
 21
87.0
 72
1
 10
89.0
 20
87.0
 11
0.0
 21
87.0
 72
1
 10
0.0
 20
87.0
 11
0.0000000000000001
 21
85.5
 97
0
 75
0
 76
1
 98
0
1001
ACAD
1010
0.0
1020
0.0
1030
0
  0
HATCH
  5
BB
100
AcDbEntity
  8
step_01
 62
7
420
0
370
-1
 48
1.0
  6
BYLAYER
100
AcDbHatch
 10
0.0
 20
0.0
 30
0.0
210
0.0
220
0.0
230
1.0
  2
SOLID
 70
1
 71
0
 91
1
 92
1
 93
4
 72
1
 10
87.5
 20
1.5
 11
87.5
 21
85.4000000000000057
 72
1
 10
87.5
 20
85.4000000000000057
 11
89.0
 21
85.4000000000000057
 72
1
 10
89.0
 20
85.4000000000000057
 11
89.0
 21
1.5
 72
1
 10
89.0
 20
1.5
 11
87.5
 21
1.5
 97
0
 75
0
 76
1
 98
0
1001
ACAD
1010
0.0
1020
0.0
1030
0
  0
HATCH
  5
BC
100
AcDbEntity
  8
step_01
 62
7
420
0
370
-1
 48
1.0
  6
BYLAYER
100
AcDbHatch
 10
0.0
 20
0.0
 30
0.0
210
0.0
220
0.0
230
1.0
  2
SOLID
 70
1
 71
0
 91
1
 92
1
 93
4
 72
1
 10
89.0
 20
1.5
 11
89.0
 21
-0.0000000000000082
 72
1
 10
89.0
 20
-0.0000000000000082
 11
0.0000000000000001
 21
0.0
 72
1
 10
0.0000000000000001
 20
0.0
 11
0.0
 21
1.5
 72
1
 10
0.0
 20
1.5
 11
89.0
 21
1.5
 97
0
 75
0
 76
1
 98
0
1001
ACAD
1010
0.0
1020
0.0
1030
0
  0
HATCH
  5
BD
100
AcDbEntity
  8
step_01
 62
7
420
0
370
-1
 48
1.0
  6
BYLAYER
100
AcDbHatch
 10
0.0
 20
0.0
 30
0.0
210
0.0
220
0.0
230
1.0
  2
SOLID
 70
1
 71
0
 91
1
 92
1
 93
4
 72
1
 10
0.0
 20
1.5
 11
0.0000000000000051
 21
85.5
 72
1
 10
0.0000000000000051
 20
85.5
 11
1.5000000000000049
 21
85.5
 72
1
 10
1.5000000000000053
 20
85.5
 11
1.5
 21
1.5
 72
1
 10
1.5
 20
1.5
 11
0.0
 21
1.5
 97
0
 75
0
 76
1
 98
0
1001
ACAD
1010
0.0
1020
0.0
1030
0
  0
MTEXT
  5
BE
100
AcDbEntity
  8
step_01
 62
256
370
-1
 48
1.0
  6
BYLAYER
100
AcDbMText
 10
49.6498035791033345
 20
92.836575262401027
 30
0.0
 40
2.0
 41
0.0
 71
1
 72
1
  1
89" Top Plate
  7
textstyle0
 50
0.0
 73
2
 44
1.0
  0
LEADER
  5
BF
100
AcDbEntity
  8
step_01
 62
256
370
-1
 48
1.0
  6
BYLAYER
100
AcDbLeader
  3
Standard
 71
1
 72
0
 73
3
 74
0
 75
0
 40
1.0
 41
10.0
 76
3
 10
25.0000000000000142
 20
-0.0000000000000041
 10
29.5917632321944311
 20
-4.2874968121957551
 10
37.2237578170319878
 20
-4.2874968121957551
1001
ACAD
1000
DSTYLE
1002
{
1070
40
1040
1.0
1002
}
  0
MTEXT
  5
C0
100
AcDbEntity
  8
step_01
 62
256
370
-1
 48
1.0
  6
BYLAYER
100
AcDbMText
 10
40.3882433765987727
 20
-3.5429119746506008
 30
0.0
 40
2.0
 41
0.0
 71
1
 72
1
  1
89" Bottom Plate
  7
textstyle7
 50
0.0
 73
2
 44
1.0
  0
MTEXT
  5
C1
100
AcDbEntity
  8
step_01
 62
256
370
-1
 48
1.0
  6
BYLAYER
100
AcDbMText
 10
37.0802151890791336
 20
-18.0494749483875765
 30
0.0
 40
2.5
 41
0.0
 71
1
 72
1
  1
Step 1
  7
textstyle8
 50
0.0
 73
2
 44
1.0
  0
MTEXT
  5
C2
100
AcDbEntity
  8
step_02
 62
256
370
-1
 48
1.0
  6
BYLAYER
100
AcDbMText
 10
37.007652012183847
 20
-18.3174302437062479
 30
0.0
 40
2.5
 41
0.0
 71
1
 72
1
  1
Step 2
  7
textstyle5
 50
0.0
 73
2
 44
1.0
  0
MTEXT
  5
C3
100
AcDbEntity
  8
step_03
 62
256
370
-1
 48
1.0
  6
BYLAYER
100
AcDbMText
 10
37.007652012183847
 20
-18.3174302437062479
 30
0.0
 40
2.5
 41
0.0
 71
1
 72
1
  1
Step 3
  7
textstyle6
 50
0.0
 73
2
 44
1.0
  0
MTEXT
  5
C4
100
AcDbEntity
  8
step_04
 62
256
370
-1
 48
1.0
  6
BYLAYER
100
AcDbMText
 10
37.007652012183847
 20
-18.3174302437062551
 30
0.0
 40
2.5
 41
0.0
 71
1
 72
1
  1
\fDejaVu Sans|b0|i0|c0|p0;Step 4
  7
textstyle3
 50
0.0
 73
2
 44
1.0
  0
MTEXT
  5
C5
100
AcDbEntity
  8
step_04b
 62
256
370
-1
 48
1.0
  6
BYLAYER
100
AcDbMText
 10
37.007652012183847
 20
-18.3174302437062551
 30
0.0
 40
2.5
 41
0.0
 71
1
 72
1
  1
\fDejaVu Sans|b0|i0|c0|p0;Step 4b
  7
textstyle4
 50
0.0
 73
2
 44
1.0
  0
MTEXT
  5
C6
100
AcDbEntity
  8
step_05
 62
256
370
-1
 48
1.0
  6
BYLAYER
100
AcDbMText
 10
37.007652012183847
 20
-18.3174302437062479
 30
0.0
 40
2.5
 41
0.0
 71
1
 72
1
  1
\fDejaVu Sans|b0|i0|c0|p0;Step 5\P
  7
textstyle1
 50
0.0
 73
2
 44
1.0
  0
MTEXT
  5
C7
100
AcDbEntity
  8
step_06
 62
256
370
-1
 48
1.0
  6
BYLAYER
100
AcDbMText
 10
37.007652012183847
 20
-18.3174302437062479
 30
0.0
 40
2.5
 41
0.0
 71
1
 72
1
  1
Step \fDejaVu Sans|b0|i0|c0|p0;6
  7
textstyle2
 50
0.0
 73
2
 44
1.0
  0
MTEXT
  5
C8
100
AcDbEntity
  8
step_07
 62
256
370
-1
 48
1.0
  6
BYLAYER
100
AcDbMText
 10
37.007652012183847
 20
-18.3174302437062479
 30
0.0
 40
2.5
 41
0.0
 71
1
 72
1
  1
Step \fDejaVu Sans|b0|i0|c0|p0;7
  7
textstyle9
 50
0.0
 73
2
 44
1.0
  0
MTEXT
  5
C9
100
AcDbEntity
  8
step_08
 62
256
370
-1
 48
1.0
  6
BYLAYER
100
AcDbMText
 10
37.007652012183847
 20
-18.3174302437062479
 30
0.0
 40
2.5
 41
0.0
 71
1
 72
1
  1
Step \fDejaVu Sans|b0|i0|c0|p0;8
  7
textstyle10
 50
0.0
 73
2
 44
1.0
  0
LINE
  5
CA
100
AcDbEntity
  8
step_02
 62
256
370
-1
 48
1.0
  6
BYLAYER
100
AcDbLine
 10
40.0
 20
85.5
 30
0.0
 11
41.5
 21
85.5
 31
0.0
  0
HATCH
  5
CB
100
AcDbEntity
  8
step_02
 62
252
420
10526884
370
-1
 48
1.0
  6
BYLAYER
100
AcDbHatch
 10
0.0
 20
0.0
 30
0.0
210
0.0
220
0.0
230
1.0
  2
SOLID
 70
1
 71
0
 91
1
 92
1
 93
4
 72
1
 10
0.0
 20
85.5
 11
89.0
 21
85.5
 72
1
 10
89.0
 20
85.5
 11
89.0
 21
87.0
 72
1
 10
89.0
 20
87.0
 11
0.0
 21
87.0
 72
1
 10
0.0
 20
87.0
 11
0.0000000000000001
 21
85.5
 97
0
 75
0
 76
1
 98
0
1001
ACAD
1010
0.0
1020
0.0
1030
0
  0
LINE
  5
CC
100
AcDbEntity
  8
step_02
 62
256
370
-1
 48
1.0
  6
BYLAYER
100
AcDbLine
 10
87.5000000000000142
 20
1.5000000000000002
 30
0.0
 11
89.0
 21
1.5
 31
0.0
  0
HATCH
  5
CD
100
AcDbEntity
  8
step_02
 62
252
420
10526884
370
-1
 48
1.0
  6
BYLAYER
100
AcDbHatch
 10
0.0
 20
0.0
 30
0.0
210
0.0
220
0.0
230
1.0
  2
SOLID
 70
1
 71
0
 91
1
 92
1
 93
4
 72
1
 10
87.5000000000000142
 20
1.5000000000000002
 11
89.0
 21
1.5
 72
1
 10
89.0
 20
1.5
 11
89.0
 21
85.4000000000000057
 72
1
 10
89.0
 20
85.4000000000000057
 11
87.5
 21
85.4000000000000057
 72
1
 10
87.5
 20
85.4000000000000057
 11
87.5
 21
1.5
 97
0
 75
0
 76
1
 98
0
1001
ACAD
1010
0.0
1020
0.0
1030
0
  0
HATCH
  5
CE
100
AcDbEntity
  8
step_02
 62
252
420
10526884
370
-1
 48
1.0
  6
BYLAYER
100
AcDbHatch
 10
0.0
 20
0.0
 30
0.0
210
0.0
220
0.0
230
1.0
  2
SOLID
 70
1
 71
0
 91
1
 92
1
 93
4
 72
1
 10
0.0
 20
1.5
 11
0.0000000000000051
 21
85.5
 72
1
 10
0.0000000000000051
 20
85.5
 11
1.5000000000000049
 21
85.5
 72
1
 10
1.5000000000000053
 20
85.5
 11
1.5
 21
1.5
 72
1
 10
1.5
 20
1.5
 11
0.0
 21
1.5
 97
0
 75
0
 76
1
 98
0
1001
ACAD
1010
0.0
1020
0.0
1030
0
  0
HATCH
  5
CF
100
AcDbEntity
  8
step_02
 62
252
420
10526884
370
-1
 48
1.0
  6
BYLAYER
100
AcDbHatch
 10
0.0
 20
0.0
 30
0.0
210
0.0
220
0.0
230
1.0
  2
SOLID
 70
1
 71
0
 91
1
 92
1
 93
4
 72
1
 10
89.0
 20
1.5
 11
89.0
 21
-0.0000000000000082
 72
1
 10
89.0
 20
-0.0000000000000082
 11
0.0000000000000001
 21
0.0
 72
1
 10
0.0000000000000001
 20
0.0
 11
0.0
 21
1.5
 72
1
 10
0.0
 20
1.5
 11
89.0
 21
1.5
 97
0
 75
0
 76
1
 98
0
1001
ACAD
1010
0.0
1020
0.0
1030
0
  0
HATCH
  5
D0
100
AcDbEntity
  8
step_03
 62
252
420
10526884
370
-1
 48
1.0
  6
BYLAYER
100
AcDbHatch
 10
0.0
 20
0.0
 30
0.0
210
0.0
220
0.0
230
1.0
  2
SOLID
 70
1
 71
0
 91
1
 92
1
 93
4
 72
1
 10
0.0
 20
85.5
 11
89.0
 21
85.5
 72
1
 10
89.0
 20
85.5
 11
89.0
 21
87.0
 72
1
 10
89.0
 20
87.0
 11
0.0
 21
87.0
 72
1
 10
0.0
 20
87.0
 11
0.0000000000000001
 21
85.5
 97
0
 75
0
 76
1
 98
0
1001
ACAD
1010
0.0
1020
0.0
1030
0
  0
HATCH
  5
D1
100
AcDbEntity
  8
step_04
 62
252
420
10526884
370
-1
 48
1.0
  6
BYLAYER
100
AcDbHatch
 10
0.0
 20
0.0
 30
0.0
210
0.0
220
0.0
230
1.0
  2
SOLID
 70
1
 71
0
 91
1
 92
1
 93
4
 72
1
 10
0.0
 20
85.5
 11
89.0
 21
85.5
 72
1
 10
89.0
 20
85.5
 11
89.0
 21
87.0
 72
1
 10
89.0
 20
87.0
 11
0.0
 21
87.0
 72
1
 10
0.0
 20
87.0
 11
0.0000000000000001
 21
85.5
 97
0
 75
0
 76
1
 98
0
1001
ACAD
1010
0.0
1020
0.0
1030
0
  0
HATCH
  5
D2
100
AcDbEntity
  8
step_04b
 62
252
420
10526884
370
-1
 48
1.0
  6
BYLAYER
100
AcDbHatch
 10
0.0
 20
0.0
 30
0.0
210
0.0
220
0.0
230
1.0
  2
SOLID
 70
1
 71
0
 91
1
 92
1
 93
4
 72
1
 10
0.0
 20
85.5
 11
89.0
 21
85.5
 72
1
 10
89.0
 20
85.5
 11
89.0
 21
87.0
 72
1
 10
89.0
 20
87.0
 11
0.0
 21
87.0
 72
1
 10
0.0
 20
87.0
 11
0.0000000000000001
 21
85.5
 97
0
 75
0
 76
1
 98
0
1001
ACAD
1010
0.0
1020
0.0
1030
0
  0
HATCH
  5
D3
100
AcDbEntity
  8
step_03
 62
252
420
10526884
370
-1
 48
1.0
  6
BYLAYER
100
AcDbHatch
 10
0.0
 20
0.0
 30
0.0
210
0.0
220
0.0
230
1.0
  2
SOLID
 70
1
 71
0
 91
1
 92
1
 93
4
 72
1
 10
0.0
 20
1.5
 11
0.0000000000000051
 21
85.5
 72
1
 10
0.0000000000000051
 20
85.5
 11
1.5000000000000049
 21
85.5
 72
1
 10
1.5000000000000053
 20
85.5
 11
1.5
 21
1.5
 72
1
 10
1.5
 20
1.5
 11
0.0
 21
1.5
 97
0
 75
0
 76
1
 98
0
1001
ACAD
1010
0.0
1020
0.0
1030
0
  0
HATCH
  5
D4
100
AcDbEntity
  8
step_04
 62
252
420
10526884
370
-1
 48
1.0
  6
BYLAYER
100
AcDbHatch
 10
0.0
 20
0.0
 30
0.0
210
0.0
220
0.0
230
1.0
  2
SOLID
 70
1
 71
0
 91
1
 92
1
 93
4
 72
1
 10
0.0
 20
1.5
 11
0.0000000000000051
 21
85.5
 72
1
 10
0.0000000000000051
 20
85.5
 11
1.5000000000000049
 21
85.5
 72
1
 10
1.5000000000000053
 20
85.5
 11
1.5
 21
1.5
 72
1
 10
1.5
 20
1.5
 11
0.0
 21
1.5
 97
0
 75
0
 76
1
 98
0
1001
ACAD
1010
0.0
1020
0.0
1030
0
  0
HATCH
  5
D5
100
AcDbEntity
  8
step_04b
 62
252
420
10526884
370
-1
 48
1.0
  6
BYLAYER
100
AcDbHatch
 10
0.0
 20
0.0
 30
0.0
210
0.0
220
0.0
230
1.0
  2
SOLID
 70
1
 71
0
 91
1
 92
1
 93
4
 72
1
 10
0.0
 20
1.5
 11
0.0000000000000051
 21
85.5
 72
1
 10
0.0000000000000051
 20
85.5
 11
1.5000000000000049
 21
85.5
 72
1
 10
1.5000000000000053
 20
85.5
 11
1.5
 21
1.5
 72
1
 10
1.5
 20
1.5
 11
0.0
 21
1.5
 97
0
 75
0
 76
1
 98
0
1001
ACAD
1010
0.0
1020
0.0
1030
0
  0
HATCH
  5
D6
100
AcDbEntity
  8
step_03
 62
252
420
10526884
370
-1
 48
1.0
  6
BYLAYER
100
AcDbHatch
 10
0.0
 20
0.0
 30
0.0
210
0.0
220
0.0
230
1.0
  2
SOLID
 70
1
 71
0
 91
1
 92
1
 93
4
 72
1
 10
89.0
 20
1.5
 11
89.0
 21
-0.0000000000000082
 72
1
 10
89.0
 20
-0.0000000000000082
 11
0.0000000000000001
 21
0.0
 72
1
 10
0.0000000000000001
 20
0.0
 11
0.0
 21
1.5
 72
1
 10
0.0
 20
1.5
 11
89.0
 21
1.5
 97
0
 75
0
 76
1
 98
0
1001
ACAD
1010
0.0
1020
0.0
1030
0
  0
HATCH
  5
D7
100
AcDbEntity
  8
step_04
 62
252
420
10526884
370
-1
 48
1.0
  6
BYLAYER
100
AcDbHatch
 10
0.0
 20
0.0
 30
0.0
210
0.0
220
0.0
230
1.0
  2
SOLID
 70
1
 71
0
 91
1
 92
1
 93
4
 72
1
 10
89.0
 20
1.5
 11
89.0
 21
-0.0000000000000082
 72
1
 10
89.0
 20
-0.0000000000000082
 11
0.0000000000000001
 21
0.0
 72
1
 10
0.0000000000000001
 20
0.0
 11
0.0
 21
1.5
 72
1
 10
0.0
 20
1.5
 11
89.0
 21
1.5
 97
0
 75
0
 76
1
 98
0
1001
ACAD
1010
0.0
1020
0.0
1030
0
  0
HATCH
  5
D8
100
AcDbEntity
  8
step_04b
 62
252
420
10526884
370
-1
 48
1.0
  6
BYLAYER
100
AcDbHatch
 10
0.0
 20
0.0
 30
0.0
210
0.0
220
0.0
230
1.0
  2
SOLID
 70
1
 71
0
 91
1
 92
1
 93
4
 72
1
 10
89.0
 20
1.5
 11
89.0
 21
-0.0000000000000082
 72
1
 10
89.0
 20
-0.0000000000000082
 11
0.0000000000000001
 21
0.0
 72
1
 10
0.0000000000000001
 20
0.0
 11
0.0
 21
1.5
 72
1
 10
0.0
 20
1.5
 11
89.0
 21
1.5
 97
0
 75
0
 76
1
 98
0
1001
ACAD
1010
0.0
1020
0.0
1030
0
  0
LINE
  5
D9
100
AcDbEntity
  8
step_03
 62
256
370
-1
 48
1.0
  6
BYLAYER
100
AcDbLine
 10
87.5000000000000142
 20
1.5
 30
0.0
 11
89.0
 21
1.5000000000000002
 31
0.0
  0
HATCH
  5
DA
100
AcDbEntity
  8
step_03
 62
252
420
10526884
370
-1
 48
1.0
  6
BYLAYER
100
AcDbHatch
 10
0.0
 20
0.0
 30
0.0
210
0.0
220
0.0
230
1.0
  2
SOLID
 70
1
 71
0
 91
1
 92
1
 93
4
 72
1
 10
87.5
 20
1.5
 11
87.5
 21
85.4000000000000057
 72
1
 10
87.5
 20
85.4000000000000057
 11
89.0
 21
85.4000000000000057
 72
1
 10
89.0
 20
85.4000000000000057
 11
89.0
 21
1.5
 72
1
 10
89.0
 20
1.5000000000000002
 11
87.5000000000000142
 21
1.5
 97
0
 75
0
 76
1
 98
0
1001
ACAD
1010
0.0
1020
0.0
1030
0
  0
HATCH
  5
DB
100
AcDbEntity
  8
step_04
 62
252
420
10526884
370
-1
 48
1.0
  6
BYLAYER
100
AcDbHatch
 10
0.0
 20
0.0
 30
0.0
210
0.0
220
0.0
230
1.0
  2
SOLID
 70
1
 71
0
 91
1
 92
1
 93
4
 72
1
 10
87.5
 20
1.5
 11
87.5
 21
85.4000000000000057
 72
1
 10
87.5
 20
85.4000000000000057
 11
89.0
 21
85.4000000000000057
 72
1
 10
89.0
 20
85.4000000000000057
 11
89.0
 21
1.5
 72
1
 10
89.0
 20
1.5000000000000002
 11
87.5000000000000142
 21
1.5
 97
0
 75
0
 76
1
 98
0
1001
ACAD
1010
0.0
1020
0.0
1030
0
  0
HATCH
  5
DC
100
AcDbEntity
  8
step_04b
 62
252
420
10526884
370
-1
 48
1.0
  6
BYLAYER
100
AcDbHatch
 10
0.0
 20
0.0
 30
0.0
210
0.0
220
0.0
230
1.0
  2
SOLID
 70
1
 71
0
 91
1
 92
1
 93
4
 72
1
 10
87.5
 20
1.5
 11
87.5
 21
85.4000000000000057
 72
1
 10
87.5
 20
85.4000000000000057
 11
89.0
 21
85.4000000000000057
 72
1
 10
89.0
 20
85.4000000000000057
 11
89.0
 21
1.5
 72
1
 10
89.0
 20
1.5000000000000002
 11
87.5000000000000142
 21
1.5
 97
0
 75
0
 76
1
 98
0
1001
ACAD
1010
0.0
1020
0.0
1030
0
  0
HATCH
  5
DD
100
AcDbEntity
  8
step_04
 62
256
370
-1
 48
1.0
  6
BYLAYER
100
AcDbHatch
 10
0.0
 20
0.0
 30
0.0
210
0.0
220
0.0
230
1.0
  2
SOLID
 70
1
 71
0
 91
1
 92
1
 93
4
 72
1
 10
65.75
 20
1.5
 11
65.75
 21
85.4000000000000057
 72
1
 10
65.75
 20
85.4000000000000057
 11
67.25
 21
85.4000000000000057
 72
1
 10
67.25
 20
85.4000000000000057
 11
67.25
 21
1.5
 72
1
 10
67.25
 20
1.5000000000000002
 11
65.7500000000000142
 21
1.5
 97
0
 75
0
 76
1
 98
0
1001
ACAD
1010
0.0
1020
0.0
1030
0
  0
HATCH
  5
DE
100
AcDbEntity
  8
step_04b
 62
252
420
10526884
370
-1
 48
1.0
  6
BYLAYER
100
AcDbHatch
 10
0.0
 20
0.0
 30
0.0
210
0.0
220
0.0
230
1.0
  2
SOLID
 70
1
 71
0
 91
1
 92
1
 93
4
 72
1
 10
65.75
 20
1.5999999999999801
 11
65.75
 21
85.4999999999999858
 72
1
 10
65.75
 20
85.4999999999999858
 11
67.25
 21
85.4999999999999858
 72
1
 10
67.25
 20
85.4999999999999858
 11
67.25
 21
1.5999999999999801
 72
1
 10
67.25
 20
1.5999999999999803
 11
65.7500000000000142
 21
1.5999999999999801
 97
0
 75
0
 76
1
 98
0
1001
ACAD
1010
0.0
1020
0.0
1030
0
  0
HATCH
  5
DF
100
AcDbEntity
  8
step_02
 62
256
370
-1
 48
1.0
  6
BYLAYER
100
AcDbHatch
 10
0.0
 20
0.0
 30
0.0
210
0.0
220
0.0
230
1.0
  2
SOLID
 70
1
 71
0
 91
1
 92
1
 93
5
 72
1
 10
16.7500000000000071
 20
1.5
 11
16.7500000000000071
 21
85.5
 72
1
 10
16.7500000000000071
 20
85.5
 11
18.2500000000000071
 21
85.5
 72
1
 10
18.2500000000000071
 20
85.5
 11
18.2500000000000071
 21
84.0
 72
1
 10
18.2500000000000071
 20
84.0
 11
18.2500000000000071
 21
1.5
 72
1
 10
18.2500000000000071
 20
1.5
 11
16.7500000000000071
 21
1.5
 97
0
 75
0
 76
1
 98
0
1001
ACAD
1010
0.0
1020
0.0
1030
0
  0
HATCH
  5
E0
100
AcDbEntity
  8
step_03
 62
252
420
10526884
370
-1
 48
1.0
  6
BYLAYER
100
AcDbHatch
 10
0.0
 20
0.0
 30
0.0
210
0.0
220
0.0
230
1.0
  2
SOLID
 70
1
 71
0
 91
1
 92
1
 93
5
 72
1
 10
16.7500000000000071
 20
1.5
 11
16.7500000000000071
 21
85.5
 72
1
 10
16.7500000000000071
 20
85.5
 11
18.2500000000000071
 21
85.5
 72
1
 10
18.2500000000000071
 20
85.5
 11
18.2500000000000071
 21
84.0
 72
1
 10
18.2500000000000071
 20
84.0
 11
18.2500000000000071
 21
1.5
 72
1
 10
18.2500000000000071
 20
1.5
 11
16.7500000000000071
 21
1.5
 97
0
 75
0
 76
1
 98
0
1001
ACAD
1010
0.0
1020
0.0
1030
0
  0
HATCH
  5
E1
100
AcDbEntity
  8
step_04
 62
252
420
10526884
370
-1
 48
1.0
  6
BYLAYER
100
AcDbHatch
 10
0.0
 20
0.0
 30
0.0
210
0.0
220
0.0
230
1.0
  2
SOLID
 70
1
 71
0
 91
1
 92
1
 93
5
 72
1
 10
16.7500000000000071
 20
1.5
 11
16.7500000000000071
 21
85.5
 72
1
 10
16.7500000000000071
 20
85.5
 11
18.2500000000000071
 21
85.5
 72
1
 10
18.2500000000000071
 20
85.5
 11
18.2500000000000071
 21
84.0
 72
1
 10
18.2500000000000071
 20
84.0
 11
18.2500000000000071
 21
1.5
 72
1
 10
18.2500000000000071
 20
1.5
 11
16.7500000000000071
 21
1.5
 97
0
 75
0
 76
1
 98
0
1001
ACAD
1010
0.0
1020
0.0
1030
0
  0
HATCH
  5
E2
100
AcDbEntity
  8
step_04b
 62
252
420
10526884
370
-1
 48
1.0
  6
BYLAYER
100
AcDbHatch
 10
0.0
 20
0.0
 30
0.0
210
0.0
220
0.0
230
1.0
  2
SOLID
 70
1
 71
0
 91
1
 92
1
 93
5
 72
1
 10
16.7500000000000071
 20
1.5
 11
16.7500000000000071
 21
85.5
 72
1
 10
16.7500000000000071
 20
85.5
 11
18.2500000000000071
 21
85.5
 72
1
 10
18.2500000000000071
 20
85.5
 11
18.2500000000000071
 21
84.0
 72
1
 10
18.2500000000000071
 20
84.0
 11
18.2500000000000071
 21
1.5
 72
1
 10
18.2500000000000071
 20
1.5
 11
16.7500000000000071
 21
1.5
 97
0
 75
0
 76
1
 98
0
1001
ACAD
1010
0.0
1020
0.0
1030
0
  0
HATCH
  5
E3
100
AcDbEntity
  8
step_02
 62
256
370
-1
 48
1.0
  6
BYLAYER
100
AcDbHatch
 10
0.0
 20
0.0
 30
0.0
210
0.0
220
0.0
230
1.0
  2
SOLID
 70
1
 71
0
 91
1
 92
1
 93
4
 72
1
 10
42.25
 20
1.5
 11
43.75
 21
1.5
 72
1
 10
43.75
 20
1.5
 11
43.75
 21
85.5
 72
1
 10
43.75
 20
85.5
 11
42.25
 21
85.5
 72
1
 10
42.25
 20
85.5
 11
42.25
 21
1.5
 97
0
 75
0
 76
1
 98
0
1001
ACAD
1010
0.0
1020
0.0
1030
0
  0
HATCH
  5
E4
100
AcDbEntity
  8
step_03
 62
252
420
10526884
370
-1
 48
1.0
  6
BYLAYER
100
AcDbHatch
 10
0.0
 20
0.0
 30
0.0
210
0.0
220
0.0
230
1.0
  2
SOLID
 70
1
 71
0
 91
1
 92
1
 93
4
 72
1
 10
42.25
 20
1.5
 11
43.75
 21
1.5
 72
1
 10
43.75
 20
1.5
 11
43.75
 21
85.5
 72
1
 10
43.75
 20
85.5
 11
42.25
 21
85.5
 72
1
 10
42.25
 20
85.5
 11
42.25
 21
1.5
 97
0
 75
0
 76
1
 98
0
1001
ACAD
1010
0.0
1020
0.0
1030
0
  0
HATCH
  5
E5
100
AcDbEntity
  8
step_04
 62
252
420
10526884
370
-1
 48
1.0
  6
BYLAYER
100
AcDbHatch
 10
0.0
 20
0.0
 30
0.0
210
0.0
220
0.0
230
1.0
  2
SOLID
 70
1
 71
0
 91
1
 92
1
 93
4
 72
1
 10
42.25
 20
1.5
 11
43.75
 21
1.5
 72
1
 10
43.75
 20
1.5
 11
43.75
 21
85.5
 72
1
 10
43.75
 20
85.5
 11
42.25
 21
85.5
 72
1
 10
42.25
 20
85.5
 11
42.25
 21
1.5
 97
0
 75
0
 76
1
 98
0
1001
ACAD
1010
0.0
1020
0.0
1030
0
  0
HATCH
  5
E6
100
AcDbEntity
  8
step_04b
 62
252
420
10526884
370
-1
 48
1.0
  6
BYLAYER
100
AcDbHatch
 10
0.0
 20
0.0
 30
0.0
210
0.0
220
0.0
230
1.0
  2
SOLID
 70
1
 71
0
 91
1
 92
1
 93
4
 72
1
 10
42.25
 20
1.5
 11
43.75
 21
1.5
 72
1
 10
43.75
 20
1.5
 11
43.75
 21
85.5
 72
1
 10
43.75
 20
85.5
 11
42.25
 21
85.5
 72
1
 10
42.25
 20
85.5
 11
42.25
 21
1.5
 97
0
 75
0
 76
1
 98
0
1001
ACAD
1010
0.0
1020
0.0
1030
0
  0
LINE
  5
E7
100
AcDbEntity
  8
step_03
 62
256
370
-1
 48
1.0
  6
BYLAYER
100
AcDbLine
 10
84.0
 20
85.5
 30
0.0
 11
85.5
 21
85.5
 31
0.0
  0
HATCH
  5
E8
100
AcDbEntity
  8
step_03
 62
256
370
-1
 48
1.0
  6
BYLAYER
100
AcDbHatch
 10
0.0
 20
0.0
 30
0.0
210
0.0
220
0.0
230
1.0
  2
SOLID
 70
1
 71
0
 91
1
 92
1
 93
4
 72
1
 10
43.75
 20
1.5
 11
43.75
 21
85.5
 72
1
 10
43.75
 20
85.5
 11
45.25
 21
85.5
 72
1
 10
45.25
 20
85.5
 11
45.25
 21
1.5
 72
1
 10
45.25
 20
1.5
 11
43.75
 21
1.5
 97
0
 75
0
 76
1
 98
0
1001
ACAD
1010
0.0
1020
0.0
1030
0
  0
HATCH
  5
E9
100
AcDbEntity
  8
step_04
 62
252
420
10526884
370
-1
 48
1.0
  6
BYLAYER
100
AcDbHatch
 10
0.0
 20
0.0
 30
0.0
210
0.0
220
0.0
230
1.0
  2
SOLID
 70
1
 71
0
 91
1
 92
1
 93
4
 72
1
 10
43.75
 20
1.5
 11
43.75
 21
85.5
 72
1
 10
43.75
 20
85.5
 11
45.25
 21
85.5
 72
1
 10
45.25
 20
85.5
 11
45.25
 21
1.5
 72
1
 10
45.25
 20
1.5
 11
43.75
 21
1.5
 97
0
 75
0
 76
1
 98
0
1001
ACAD
1010
0.0
1020
0.0
1030
0
  0
HATCH
  5
EA
100
AcDbEntity
  8
step_04b
 62
252
420
10526884
370
-1
 48
1.0
  6
BYLAYER
100
AcDbHatch
 10
0.0
 20
0.0
 30
0.0
210
0.0
220
0.0
230
1.0
  2
SOLID
 70
1
 71
0
 91
1
 92
1
 93
4
 72
1
 10
43.75
 20
1.5
 11
43.75
 21
85.5
 72
1
 10
43.75
 20
85.5
 11
45.25
 21
85.5
 72
1
 10
45.25
 20
85.5
 11
45.25
 21
1.5
 72
1
 10
45.25
 20
1.5
 11
43.75
 21
1.5
 97
0
 75
0
 76
1
 98
0
1001
ACAD
1010
0.0
1020
0.0
1030
0
  0
LINE
  5
EB
100
AcDbEntity
  8
step_05
 62
256
370
-1
 48
1.0
  6
BYLAYER
100
AcDbLine
 10
-3.0
 20
-5.0
 30
0.0
 11
-3.0
 21
87.0
 31
0.0
  0
LINE
  5
EC
100
AcDbEntity
  8
step_07
 62
256
370
-1
 48
1.0
  6
BYLAYER
100
AcDbLine
 10
-3.5
 20
-5.0
 30
0.0
 11
-3.5
 21
87.0
 31
0.0
  0
LINE
  5
ED
100
AcDbEntity
  8
step_08
 62
256
370
-1
 48
1.0
  6
BYLAYER
100
AcDbLine
 10
-3.5
 20
-5.0
 30
0.0
 11
-3.5
 21
87.0
 31
0.0
  0
LINE
  5
EE
100
AcDbEntity
  8
step_05
 62
256
370
-1
 48
1.0
  6
BYLAYER
100
AcDbLine
 10
-3.0
 20
87.0
 30
0.0
 11
93.0
 21
87.0
 31
0.0
  0
LINE
  5
EF
100
AcDbEntity
  8
step_07
 62
256
370
-1
 48
1.0
  6
BYLAYER
100
AcDbLine
 10
-3.5
 20
87.0
 30
0.0
 11
44.5
 21
87.0
 31
0.0
  0
LINE
  5
F0
100
AcDbEntity
  8
step_07
 62
256
370
-1
 48
1.0
  6
BYLAYER
100
AcDbLine
 10
44.5
 20
87.0
 30
0.0
 11
92.5
 21
87.0
 31
0.0
  0
LINE
  5
F1
100
AcDbEntity
  8
step_08
 62
256
370
-1
 48
1.0
  6
BYLAYER
100
AcDbLine
 10
-3.5
 20
87.0
 30
0.0
 11
44.5
 21
87.0
 31
0.0
  0
LINE
  5
F2
100
AcDbEntity
  8
step_05
 62
256
370
-1
 48
1.0
  6
BYLAYER
100
AcDbLine
 10
93.0
 20
87.0
 30
0.0
 11
93.0
 21
-5.0
 31
0.0
  0
LINE
  5
F3
100
AcDbEntity
  8
step_07
 62
256
370
-1
 48
1.0
  6
BYLAYER
100
AcDbLine
 10
92.5
 20
87.0
 30
0.0
 11
92.5
 21
-5.0
 31
0.0
  0
LINE
  5
F4
100
AcDbEntity
  8
step_05
 62
256
370
-1
 48
1.0
  6
BYLAYER
100
AcDbLine
 10
-3.0
 20
-5.0
 30
0.0
 11
93.0
 21
-5.0
 31
0.0
  0
LINE
  5
F5
100
AcDbEntity
  8
step_07
 62
256
370
-1
 48
1.0
  6
BYLAYER
100
AcDbLine
 10
-3.5
 20
-5.0
 30
0.0
 11
44.5
 21
-5.0
 31
0.0
  0
LINE
  5
F6
100
AcDbEntity
  8
step_07
 62
256
370
-1
 48
1.0
  6
BYLAYER
100
AcDbLine
 10
44.5
 20
-5.0
 30
0.0
 11
92.5
 21
-5.0
 31
0.0
  0
LINE
  5
F7
100
AcDbEntity
  8
step_08
 62
256
370
-1
 48
1.0
  6
BYLAYER
100
AcDbLine
 10
-3.5
 20
-5.0
 30
0.0
 11
44.5
 21
-5.0
 31
0.0
  0
LEADER
  5
F8
100
AcDbEntity
  8
step_05
 62
256
370
-1
 48
1.0
  6
BYLAYER
100
AcDbLeader
  3
Standard
 71
1
 72
0
 73
3
 74
0
 75
0
 40
1.0
 41
10.0
 76
3
 10
20.0
 20
87.0
 10
15.0
 20
95.0
 10
23.0
 20
95.0
1001
ACAD
1000
DSTYLE
1002
{
1070
40
1040
1.0
1002
}
  0
MTEXT
  5
F9
100
AcDbEntity
  8
step_05
 62
256
370
-1
 48
1.0
  6
BYLAYER
100
AcDbMText
 10
23.9999999999999893
 20
95.9999999999999858
 30
0.0
 40
3.0
 41
0.0
 71
1
 72
1
  1
\fDejaVu Sans|b0|i0|c0|p0;\H1.5;Align Tyvek roll to top of wall, even on both sides\PRoll out Tyvek, and staple to frame.
  7
textstyle32
 50
0.0
 73
2
 44
1.0
  0
LINE
  5
FA
100
AcDbEntity
  8
step_06
 62
256
370
-1
 48
1.0
  6
BYLAYER
100
AcDbLine
 10
18.25
 20
44.0
 30
0.0
 11
42.25
 21
44.0
 31
0.0
  0
LINE
  5
FB
100
AcDbEntity
  8
step_06
 62
256
370
-1
 48
1.0
  6
BYLAYER
100
AcDbLine
 10
42.2499999999999929
 20
81.0
 30
0.0
 11
42.2499999999999929
 21
82.0
 31
0.0
  0
LINE
  5
FC
100
AcDbEntity
  8
step_06
 62
256
370
-1
 48
1.0
  6
BYLAYER
100
AcDbLine
 10
42.2499999999999929
 20
44.0
 30
0.0
 11
42.2499999999999929
 21
45.0
 31
0.0
  0
LINE
  5
FD
100
AcDbEntity
  8
step_06
 62
256
370
-1
 48
1.0
  6
BYLAYER
100
AcDbLine
 10
18.25
 20
82.0
 30
0.0
 11
18.25
 21
81.0
 31
0.0
  0
LINE
  5
FE
100
AcDbEntity
  8
step_06
 62
256
370
-1
 48
1.0
  6
BYLAYER
100
AcDbLine
 10
18.25
 20
44.9999999999999858
 30
0.0
 11
18.25
 21
43.9999999999999858
 31
0.0
  0
LINE
  5
FF
100
AcDbEntity
  8
step_06
 62
256
370
-1
 48
1.0
  6
BYLAYER
100
AcDbLine
 10
18.2499999999999964
 20
45.0
 30
0.0
 11
17.2499999999999964
 21
45.0
 31
0.0
  0
LINE
  5
100
100
AcDbEntity
  8
step_06
 62
256
370
-1
 48
1.0
  6
BYLAYER
100
AcDbLine
 10
43.25
 20
45.0
 30
0.0
 11
42.25
 21
45.0
 31
0.0
  0
LINE
  5
101
100
AcDbEntity
  8
step_06
 62
256
370
-1
 48
1.0
  6
BYLAYER
100
AcDbLine
 10
17.2499999999999964
 20
45.0
 30
0.0
 11
17.25
 21
81.0000000000000284
 31
0.0
  0
LINE
  5
102
100
AcDbEntity
  8
step_06
 62
256
370
-1
 48
1.0
  6
BYLAYER
100
AcDbLine
 10
42.25
 20
81.0
 30
0.0
 11
43.2500000000000071
 21
81.0
 31
0.0
  0
LINE
  5
103
100
AcDbEntity
  8
step_06
 62
256
370
-1
 48
1.0
  6
BYLAYER
100
AcDbLine
 10
17.25
 20
81.0000000000000284
 30
0.0
 11
18.25
 21
81.0000000000000142
 31
0.0
  0
LEADER
  5
104
100
AcDbEntity
  8
step_06
 62
256
370
-1
 48
1.0
  6
BYLAYER
100
AcDbLeader
  3
Standard
 71
1
 72
0
 73
3
 74
0
 75
0
 40
1.0
 41
10.0
 76
3
 10
43.2500000000000213
 20
62.0
 10
48.2500000000000213
 20
67.0
 10
50.2500000000000213
 20
67.0
1001
ACAD
1000
DSTYLE
1002
{
1070
40
1040
1.0
1002
}
  0
MTEXT
  5
105
100
AcDbEntity
  8
step_06
 62
7
420
0
370
-1
 48
1.0
  6
BYLAYER
100
AcDbMText
 10
51.2500000000000213
 20
68.0
 30
0.0
 40
3.0
 41
0.0
 71
1
 72
1
  1
\H1.5;Apply peel-and-stick\P \fLiberation Sans|b1|i0|c0|p0;ABOVE\fLiberation Sans|b0|i0|c0|p0; (not on) jig brackets\P to all 4 sides of window opening.
  7
textstyle40
 50
0.0
 73
2
 44
1.0
  0
IMAGE
  5
106
100
AcDbEntity
  8
step_01
 62
256
370
-1
 48
1.0
  6
BYLAYER
100
AcDbRasterImage
 90
0
 10
-7.5572452598386679
 20
88.3137372105979637
 30
0.0
 11
0.2
 21
0.0
 31
0.0
 12
0.0
 22
0.2
 32
0.0
 13
11.0
 23
11.0
340
107
 70
15
280
0
281
50
282
50
283
0
  0
IMAGE
  5
108
100
AcDbEntity
  8
step_01
 62
256
370
-1
 48
1.0
  6
BYLAYER
100
AcDbRasterImage
 90
0
 10
78.3999999999999915
 20
88.0
 30
0.0
 11
0.2
 21
0.0
 31
0.0
 12
0.0
 22
0.2
 32
0.0
 13
11.0
 23
11.0
340
109
 70
15
280
0
281
50
282
50
283
0
  0
IMAGE
  5
10A
100
AcDbEntity
  8
step_01
 62
256
370
-1
 48
1.0
  6
BYLAYER
100
AcDbRasterImage
 90
0
 10
78.7823630415855547
 20
-0.6266162016476575
 30
0.0
 11
0.2
 21
-0.0
 31
0.0
 12
-0.0
 22
-0.2
 32
0.0
 13
11.0
 23
11.0
340
10B
 70
15
280
0
281
50
282
50
283
0
  0
IMAGE
  5
10C
100
AcDbEntity
  8
step_01
 62
256
370
-1
 48
1.0
  6
BYLAYER
100
AcDbRasterImage
 90
0
 10
10.0070711906671761
 20
-0.3941951372553515
 30
0.0
 11
-0.2
 21
0.0
 31
0.0
 12
-0.0
 22
-0.2
 32
0.0
 13
11.0
 23
11.0
340
10D
 70
15
280
0
281
50
282
50
283
0
  0
IMAGE
  5
10E
100
AcDbEntity
  8
step_03
 62
256
370
-1
 48
1.0
  6
BYLAYER
100
AcDbRasterImage
 90
0
 10
8.3623295496278622
 20
87.0
 30
0.0
 11
0.2
 21
0.0
 31
0.0
 12
0.0
 22
0.2
 32
0.0
 13
11.0
 23
11.0
340
10F
 70
15
280
0
281
50
282
50
283
0
  0
IMAGE
  5
110
100
AcDbEntity
  8
step_04
 62
256
370
-1
 48
1.0
  6
BYLAYER
100
AcDbRasterImage
 90
0
 10
75.5324316363093544
 20
87.5029826854385391
 30
0.0
 11
-0.1999739871236262
 21
-0.0032255966703508
 31
0.0
 12
-0.0032255966703508
 22
0.1999739871236262
 32
0.0
 13
11.0
 23
11.0
340
111
 70
15
280
0
281
50
282
50
283
0
  0
IMAGE
  5
112
100
AcDbEntity
  8
step_04
 62
256
370
-1
 48
1.0
  6
BYLAYER
100
AcDbRasterImage
 90
0
 10
67.6031899707524531
 20
60.3704368505756719
 30
0.0
 11
-0.0032255966703518
 21
0.1999739871236262
 31
0.0
 12
0.1999739871236263
 22
0.0032255966703518
 32
0.0
 13
11.0
 23
11.0
340
113
 70
15
280
0
281
50
282
50
283
0
  0
IMAGE
  5
114
100
AcDbEntity
  8
step_04
 62
256
370
-1
 48
1.0
  6
BYLAYER
100
AcDbRasterImage
 90
0
 10
55.1469525090547137
 20
68.4243846116159062
 30
0.0
 11
-0.1999956962475495
 21
0.0013120527649036
 31
0.0
 12
-0.0013120527649061
 22
-0.1999956962475496
 32
0.0
 13
11.0
 23
11.0
340
115
 70
15
280
0
281
50
282
50
283
0
  0
IMAGE
  5
116
100
AcDbEntity
  8
step_03
 62
256
370
-1
 48
1.0
  6
BYLAYER
100
AcDbRasterImage
 90
0
 10
33.6788756007933472
 20
87.0048984378479133
 30
0.0
 11
0.2
 21
0.0
 31
0.0
 12
0.0
 22
0.2
 32
0.0
 13
11.0
 23
11.0
340
117
 70
15
280
0
281
50
282
50
283
0
  0
IMAGE
  5
118
100
AcDbEntity
  8
step_02
 62
256
370
-1
 48
1.0
  6
BYLAYER
100
AcDbRasterImage
 90
0
 10
26.2623988556110639
 20
87.1402824730208323
 30
0.0
 11
-0.12
 21
0.0
 31
0.0
 12
0.0
 22
0.12
 32
0.0
 13
6.0
 23
6.0
340
119
 70
15
280
0
281
50
282
50
283
0
  0
IMAGE
  5
11A
100
AcDbEntity
  8
step_02
 62
256
370
-1
 48
1.0
  6
BYLAYER
100
AcDbRasterImage
 90
0
 10
33.671923190420344
 20
87.143668138666655
 30
0.0
 11
-0.12
 21
0.0
 31
0.0
 12
0.0
 22
0.12
 32
0.0
 13
6.0
 23
6.0
340
11B
 70
15
280
0
281
50
282
50
283
0
  0
IMAGE
  5
11C
100
AcDbEntity
  8
step_02
 62
256
370
-1
 48
1.0
  6
BYLAYER
100
AcDbRasterImage
 90
0
 10
41.0814475252296205
 20
87.1470538043124776
 30
0.0
 11
-0.12
 21
0.0
 31
0.0
 12
0.0
 22
0.12
 32
0.0
 13
6.0
 23
6.0
340
11D
 70
15
280
0
281
50
282
50
283
0
  0
IMAGE
  5
11E
100
AcDbEntity
  8
step_02
 62
256
370
-1
 48
1.0
  6
BYLAYER
100
AcDbRasterImage
 90
0
 10
27.4309513303814434
 20
80.8597175269791819
 30
0.0
 11
-0.12
 21
0.0
 31
0.0
 12
-0.0
 22
-0.12
 32
0.0
 13
6.0
 23
6.0
340
11F
 70
15
280
0
281
50
282
50
283
0
  0
IMAGE
  5
120
100
AcDbEntity
  8
step_02
 62
256
370
-1
 48
1.0
  6
BYLAYER
100
AcDbRasterImage
 90
0
 10
42.25
 20
80.8529461956875224
 30
0.0
 11
-0.12
 21
0.0
 31
0.0
 12
-0.0
 22
-0.12
 32
0.0
 13
6.0
 23
6.0
340
121
 70
15
280
0
281
50
282
50
283
0
  0
IMAGE
  5
122
100
AcDbEntity
  8
step_02
 62
256
370
-1
 48
1.0
  6
BYLAYER
100
AcDbRasterImage
 90
0
 10
34.8404756651907377
 20
80.8563318613333593
 30
0.0
 11
-0.12
 21
0.0
 31
0.0
 12
-0.0
 22
-0.12
 32
0.0
 13
6.0
 23
6.0
340
123
 70
15
280
0
281
50
282
50
283
0
  0
IMAGE
  5
124
100
AcDbEntity
  8
step_02
 62
256
370
-1
 48
1.0
  6
BYLAYER
100
AcDbRasterImage
 90
0
 10
16.5654958844217788
 20
34.989926580043381
 30
0.0
 11
0.0
 21
0.2
 31
0.0
 12
-0.2
 22
0.0
 32
0.0
 13
11.0
 23
11.0
340
125
 70
15
280
0
281
50
282
50
283
0
  0
IMAGE
  5
126
100
AcDbEntity
  8
step_03
 62
256
370
-1
 48
1.0
  6
BYLAYER
100
AcDbRasterImage
 90
0
 10
33.6464511978378198
 20
-0.0000000000001572
 30
0.0
 11
0.2
 21
0.0
 31
0.0
 12
-0.0
 22
-0.2
 32
0.0
 13
11.0
 23
11.0
340
127
 70
15
280
0
281
50
282
50
283
0
  0
IMAGE
  5
128
100
AcDbEntity
  8
step_03
 62
256
370
-1
 48
1.0
  6
BYLAYER
100
AcDbRasterImage
 90
0
 10
8.5510103523593592
 20
-0.0000000000000044
 30
0.0
 11
0.2
 21
0.0
 31
0.0
 12
-0.0
 22
-0.2
 32
0.0
 13
11.0
 23
11.0
340
129
 70
15
280
0
281
50
282
50
283
0
  0
IMAGE
  5
12A
100
AcDbEntity
  8
step_04
 62
256
370
-1
 48
1.0
  6
BYLAYER
100
AcDbRasterImage
 90
0
 10
57.590592128563415
 20
-0.4444675085456588
 30
0.0
 11
0.2
 21
0.0
 31
0.0
 12
-0.0
 22
-0.2
 32
0.0
 13
11.0
 23
11.0
340
12B
 70
15
280
0
281
50
282
50
283
0
  0
MTEXT
  5
12C
100
AcDbEntity
  8
step_01
 62
256
370
-1
 48
1.0
  6
BYLAYER
100
AcDbMText
 10
4.5848375451263559
 20
95.1353790613718786
 30
0.0
 40
3.0
 41
0.0
 71
1
 72
1
  1
\H2;x2
  7
textstyle39
 50
0.0
 73
2
 44
1.0
  0
MTEXT
  5
12D
100
AcDbEntity
  8
step_01
 62
256
370
-1
 48
1.0
  6
BYLAYER
100
AcDbMText
 10
90.7415764139591232
 20
94.7533092659446936
 30
0.0
 40
3.0
 41
0.0
 71
1
 72
1
  1
\H2;x2
  7
textstyle37
 50
0.0
 73
2
 44
1.0
  0
MTEXT
  5
12E
100
AcDbEntity
  8
step_03
 62
256
370
-1
 48
1.0
  6
BYLAYER
100
AcDbMText
 10
31.8754577011586875
 20
100.5177558700223699
 30
0.0
 40
3.0
 41
0.0
 71
1
 72
1
  1
\H1.8;x2 into both studs
  7
textstyle38
 50
0.0
 73
2
 44
1.0
  0
MTEXT
  5
12F
100
AcDbEntity
  8
step_03
 62
256
370
-1
 48
1.0
  6
BYLAYER
100
AcDbMText
 10
5.0983350687482911
 20
93.7137358085291083
 30
0.0
 40
3.0
 41
0.0
 71
1
 72
1
  1
\H2;x2
  7
textstyle35
 50
0.0
 73
2
 44
1.0
  0
MTEXT
  5
130
100
AcDbEntity
  8
step_04
 62
256
370
-1
 48
1.0
  6
BYLAYER
100
AcDbMText
 10
75.7009363091974166
 20
93.3516318389799125
 30
0.0
 40
3.0
 41
0.0
 71
1
 72
1
  1
\H2;x2
  7
textstyle36
 50
0.0
 73
2
 44
1.0
  0
MTEXT
  5
131
100
AcDbEntity
  8
step_04
 62
256
370
-1
 48
1.0
  6
BYLAYER
100
AcDbMText
 10
71.1201733838787646
 20
60.2554595598618405
 30
0.0
 40
3.0
 41
0.0
 71
1
 72
1
  1
\H2;x2
  7
textstyle33
 50
0.0
 73
2
 44
1.0
  0
MTEXT
  5
132
100
AcDbEntity
  8
step_04
 62
256
370
-1
 48
1.0
  6
BYLAYER
100
AcDbMText
 10
47.0
 20
55.5000000000000071
 30
0.0
 40
3.0
 41
0.0
 71
1
 72
1
  1
\H2;x2
  7
textstyle34
 50
0.0
 73
2
 44
1.0
  0
MTEXT
  5
133
100
AcDbEntity
  8
step_02
 62
256
370
-1
 48
1.0
  6
BYLAYER
100
AcDbMText
 10
56.0510148659630474
 20
45.5432666460235538
 30
0.0
 40
3.0
 41
0.0
 71
1
 72
1
  1
\H2;x2
  7
textstyle47
 50
0.0
 73
2
 44
1.0
  0
MTEXT
  5
134
100
AcDbEntity
  8
step_02
 62
256
370
-1
 48
1.0
  6
BYLAYER
100
AcDbMText
 10
2.3146862926273966
 20
44.4967881089803896
 30
0.0
 40
3.0
 41
0.0
 71
1
 72
1
  1
\H2;x2
  7
textstyle48
 50
0.0
 73
2
 44
1.0
  0
MTEXT
  5
135
100
AcDbEntity
  8
step_03
 62
256
370
-1
 48
1.0
  6
BYLAYER
100
AcDbMText
 10
32.0546249081656924
 20
-11.0014597715220575
 30
0.0
 40
3.0
 41
0.0
 71
1
 72
1
  1
\H2;x2 into both studs
  7
textstyle45
 50
0.0
 73
2
 44
1.0
  0
MTEXT
  5
136
100
AcDbEntity
  8
step_03
 62
256
370
-1
 48
1.0
  6
BYLAYER
100
AcDbMText
 10
21.2565690820992295
 20
-6.496410899761992
 30
0.0
 40
3.0
 41
0.0
 71
1
 72
1
  1
\H2;x2
  7
textstyle46
 50
0.0
 73
2
 44
1.0
  0
MTEXT
  5
137
100
AcDbEntity
  8
step_04
 62
256
370
-1
 48
1.0
  6
BYLAYER
100
AcDbMText
 10
70.2961508583032924
 20
-6.9408784083076478
 30
0.0
 40
3.0
 41
0.0
 71
1
 72
1
  1
\H2;x2
  7
textstyle43
 50
0.0
 73
2
 44
1.0
  0
MTEXT
  5
138
100
AcDbEntity
  8
step_02
 62
256
370
-1
 48
1.0
  6
BYLAYER
100
AcDbMText
 10
56.0510148659630403
 20
82.2301858751705055
 30
0.0
 40
3.0
 41
0.0
 71
1
 72
1
  1
\H2;x1 into each header\Pboth ends
  7
textstyle44
 50
0.0
 73
2
 44
1.0
  0
MTEXT
  5
139
100
AcDbEntity
  8
step_03
 62
256
370
-1
 48
1.0
  6
BYLAYER
100
AcDbMText
 10
54.2319804417451863
 20
37.5273951466799289
 30
0.0
 40
3.0
 41
0.0
 71
1
 72
1
  1
\H2;x1
  7
textstyle41
 50
0.0
 73
2
 44
1.0
  0
MTEXT
  5
13A
100
AcDbEntity
  8
step_03
 62
256
370
-1
 48
1.0
  6
BYLAYER
100
AcDbMText
 10
54.0
 20
27.0
 30
0.0
 40
3.0
 41
0.0
 71
1
 72
1
  1
\H2;x1
  7
textstyle42
 50
0.0
 73
2
 44
1.0
  0
MTEXT
  5
13B
100
AcDbEntity
  8
step_03
 62
256
370
-1
 48
1.0
  6
BYLAYER
100
AcDbMText
 10
53.896226248461268
 20
11.3053180792976455
 30
0.0
 40
3.0
 41
0.0
 71
1
 72
1
  1
\H2;x1
  7
textstyle50
 50
0.0
 73
2
 44
1.0
  0
MTEXT
  5
13C
100
AcDbEntity
  8
step_01
 62
256
370
-1
 48
1.0
  6
BYLAYER
100
AcDbMText
 10
91.0
 20
-7.0
 30
0.0
 40
3.0
 41
0.0
 71
1
 72
1
  1
\H2;x2
  7
textstyle51
 50
0.0
 73
2
 44
1.0
  0
MTEXT
  5
13D
100
AcDbEntity
  8
step_01
 62
256
370
-1
 48
1.0
  6
BYLAYER
100
AcDbMText
 10
-4.6166766947452906
 20
-6.6862214199759364
 30
0.0
 40
3.0
 41
0.0
 71
1
 72
1
  1
\H2;x2
  7
textstyle49
 50
0.0
 73
2
 44
1.0
  0
HATCH
  5
13E
100
AcDbEntity
  8
step_02
 62
256
370
-1
 48
1.0
  6
BYLAYER
100
AcDbHatch
 10
0.0
 20
0.0
 30
0.0
210
0.0
220
0.0
230
1.0
  2
SOLID
 70
1
 71
0
 91
1
 92
1
 93
4
 72
1
 10
18.2500000000000071
 20
43.5
 11
42.2500000000000071
 21
43.5
 72
1
 10
42.2500000000000071
 20
43.5
 11
42.2500000000000071
 21
45.0
 72
1
 10
42.2500000000000071
 20
45.0
 11
18.2500000000000071
 21
45.0
 72
1
 10
18.2500000000000071
 20
45.0
 11
18.2500000000000071
 21
43.5
 97
0
 75
0
 76
1
 98
0
1001
ACAD
1010
0.0
1020
0.0
1030
0
  0
HATCH
  5
13F
100
AcDbEntity
  8
step_03
 62
252
420
10526884
370
-1
 48
1.0
  6
BYLAYER
100
AcDbHatch
 10
0.0
 20
0.0
 30
0.0
210
0.0
220
0.0
230
1.0
  2
SOLID
 70
1
 71
0
 91
1
 92
1
 93
4
 72
1
 10
18.2499999999999929
 20
43.5
 11
42.2499999999999929
 21
43.5
 72
1
 10
42.2499999999999929
 20
43.5
 11
42.2499999999999929
 21
45.0
 72
1
 10
42.2499999999999929
 20
45.0
 11
18.2499999999999929
 21
45.0
 72
1
 10
18.2499999999999929
 20
45.0
 11
18.2499999999999929
 21
43.5
 97
0
 75
0
 76
1
 98
0
1001
ACAD
1010
0.0
1020
0.0
1030
0
  0
HATCH
  5
140
100
AcDbEntity
  8
step_04
 62
252
420
10526884
370
-1
 48
1.0
  6
BYLAYER
100
AcDbHatch
 10
0.0
 20
0.0
 30
0.0
210
0.0
220
0.0
230
1.0
  2
SOLID
 70
1
 71
0
 91
1
 92
1
 93
4
 72
1
 10
18.2499999999999929
 20
43.5
 11
42.2499999999999929
 21
43.5
 72
1
 10
42.2499999999999929
 20
43.5
 11
42.2499999999999929
 21
45.0
 72
1
 10
42.2499999999999929
 20
45.0
 11
18.2499999999999929
 21
45.0
 72
1
 10
18.2499999999999929
 20
45.0
 11
18.2499999999999929
 21
43.5
 97
0
 75
0
 76
1
 98
0
1001
ACAD
1010
0.0
1020
0.0
1030
0
  0
HATCH
  5
141
100
AcDbEntity
  8
step_04b
 62
252
420
10526884
370
-1
 48
1.0
  6
BYLAYER
100
AcDbHatch
 10
0.0
 20
0.0
 30
0.0
210
0.0
220
0.0
230
1.0
  2
SOLID
 70
1
 71
0
 91
1
 92
1
 93
4
 72
1
 10
18.2499999999999929
 20
43.5
 11
42.2499999999999929
 21
43.5
 72
1
 10
42.2499999999999929
 20
43.5
 11
42.2499999999999929
 21
45.0
 72
1
 10
42.2499999999999929
 20
45.0
 11
18.2499999999999929
 21
45.0
 72
1
 10
18.2499999999999929
 20
45.0
 11
18.2499999999999929
 21
43.5
 97
0
 75
0
 76
1
 98
0
1001
ACAD
1010
0.0
1020
0.0
1030
0
  0
HATCH
  5
142
100
AcDbEntity
  8
step_02
 62
256
370
-1
 48
1.0
  6
BYLAYER
100
AcDbHatch
 10
0.0
 20
0.0
 30
0.0
210
0.0
220
0.0
230
1.0
  2
SOLID
 70
1
 71
0
 91
1
 92
1
 93
8
 72
1
 10
42.25
 20
84.0
 11
42.25
 21
85.5
 72
1
 10
42.25
 20
85.5
 11
18.25
 21
85.5
 72
1
 10
18.25
 20
85.5
 11
18.25
 21
84.0
 72
1
 10
18.25
 20
84.0
 11
18.25
 21
82.5
 72
1
 10
18.25
 20
82.5
 11
18.25
 21
81.0
 72
1
 10
18.25
 20
81.0
 11
42.25
 21
81.0
 72
1
 10
42.25
 20
81.0
 11
42.25
 21
82.5
 72
1
 10
42.25
 20
82.5
 11
42.25
 21
84.0
 97
0
 75
0
 76
1
 98
0
1001
ACAD
1010
0.0
1020
0.0
1030
0
  0
HATCH
  5
143
100
AcDbEntity
  8
step_03
 62
252
420
10526884
370
-1
 48
1.0
  6
BYLAYER
100
AcDbHatch
 10
0.0
 20
0.0
 30
0.0
210
0.0
220
0.0
230
1.0
  2
SOLID
 70
1
 71
0
 91
1
 92
1
 93
8
 72
1
 10
42.25
 20
84.0
 11
42.25
 21
85.5
 72
1
 10
42.25
 20
85.5
 11
18.25
 21
85.5
 72
1
 10
18.25
 20
85.5
 11
18.25
 21
84.0
 72
1
 10
18.25
 20
84.0
 11
18.25
 21
82.5
 72
1
 10
18.25
 20
82.5
 11
18.25
 21
81.0
 72
1
 10
18.25
 20
81.0
 11
42.25
 21
81.0
 72
1
 10
42.25
 20
81.0
 11
42.25
 21
82.5
 72
1
 10
42.25
 20
82.5
 11
42.25
 21
84.0
 97
0
 75
0
 76
1
 98
0
1001
ACAD
1010
0.0
1020
0.0
1030
0
  0
HATCH
  5
144
100
AcDbEntity
  8
step_04
 62
252
420
10526884
370
-1
 48
1.0
  6
BYLAYER
100
AcDbHatch
 10
0.0
 20
0.0
 30
0.0
210
0.0
220
0.0
230
1.0
  2
SOLID
 70
1
 71
0
 91
1
 92
1
 93
8
 72
1
 10
42.25
 20
84.0
 11
42.25
 21
85.5
 72
1
 10
42.25
 20
85.5
 11
18.25
 21
85.5
 72
1
 10
18.25
 20
85.5
 11
18.25
 21
84.0
 72
1
 10
18.25
 20
84.0
 11
18.25
 21
82.5
 72
1
 10
18.25
 20
82.5
 11
18.25
 21
81.0
 72
1
 10
18.25
 20
81.0
 11
42.25
 21
81.0
 72
1
 10
42.25
 20
81.0
 11
42.25
 21
82.5
 72
1
 10
42.25
 20
82.5
 11
42.25
 21
84.0
 97
0
 75
0
 76
1
 98
0
1001
ACAD
1010
0.0
1020
0.0
1030
0
  0
HATCH
  5
145
100
AcDbEntity
  8
step_04b
 62
252
420
10526884
370
-1
 48
1.0
  6
BYLAYER
100
AcDbHatch
 10
0.0
 20
0.0
 30
0.0
210
0.0
220
0.0
230
1.0
  2
SOLID
 70
1
 71
0
 91
1
 92
1
 93
8
 72
1
 10
42.25
 20
84.0
 11
42.25
 21
85.5
 72
1
 10
42.25
 20
85.5
 11
18.25
 21
85.5
 72
1
 10
18.25
 20
85.5
 11
18.25
 21
84.0
 72
1
 10
18.25
 20
84.0
 11
18.25
 21
82.5
 72
1
 10
18.25
 20
82.5
 11
18.25
 21
81.0
 72
1
 10
18.25
 20
81.0
 11
42.25
 21
81.0
 72
1
 10
42.25
 20
81.0
 11
42.25
 21
82.5
 72
1
 10
42.25
 20
82.5
 11
42.25
 21
84.0
 97
0
 75
0
 76
1
 98
0
1001
ACAD
1010
0.0
1020
0.0
1030
0
  0
IMAGE
  5
146
100
AcDbEntity
  8
step_02
 62
256
370
-1
 48
1.0
  6
BYLAYER
100
AcDbRasterImage
 90
0
 10
16.8000000000000078
 20
72.6000000000000085
 30
0.0
 11
0.0
 21
0.2
 31
0.0
 12
-0.2
 22
0.0
 32
0.0
 13
11.0
 23
11.0
340
147
 70
15
280
0
281
50
282
50
283
0
  0
IMAGE
  5
148
100
AcDbEntity
  8
step_02
 62
256
370
-1
 48
1.0
  6
BYLAYER
100
AcDbRasterImage
 90
0
 10
44.3880317548105197
 20
72.7957803980549727
 30
0.0
 11
0.0000000000000001
 21
0.2
 31
0.0
 12
0.2
 22
-0.0
 32
0.0
 13
11.0
 23
11.0
340
149
 70
15
280
0
281
50
282
50
283
0
  0
IMAGE
  5
14A
100
AcDbEntity
  8
step_02
 62
256
370
-1
 48
1.0
  6
BYLAYER
100
AcDbRasterImage
 90
0
 10
44.1686066844263507
 20
35.3080830090969329
 30
0.0
 11
0.0000000000000001
 21
0.2
 31
0.0
 12
0.2
 22
0.0
 32
0.0
 13
11.0
 23
11.0
340
14B
 70
15
280
0
281
50
282
50
283
0
  0
IMAGE
  5
14C
100
AcDbEntity
  8
step_03
 62
256
370
-1
 48
1.0
  6
BYLAYER
100
AcDbRasterImage
 90
0
 10
45.25
 20
19.9861295656301117
 30
0.0
 11
0.0
 21
0.15
 31
0.0
 12
0.15
 22
0.0
 32
0.0
 13
8.0
 23
8.0
340
14D
 70
15
280
0
281
50
282
50
283
0
  0
IMAGE
  5
14E
100
AcDbEntity
  8
step_03
 62
256
370
-1
 48
1.0
  6
BYLAYER
100
AcDbRasterImage
 90
0
 10
45.3172330925059086
 20
34.2999999999999972
 30
0.0
 11
0.0
 21
0.15
 31
0.0
 12
0.15
 22
0.0
 32
0.0
 13
8.0
 23
8.0
340
14F
 70
15
280
0
281
50
282
50
283
0
  0
IMAGE
  5
150
100
AcDbEntity
  8
step_03
 62
256
370
-1
 48
1.0
  6
BYLAYER
100
AcDbRasterImage
 90
0
 10
45.4962262484612623
 20
2.6053180792976462
 30
0.0
 11
0.0
 21
0.15
 31
0.0
 12
0.15
 22
0.0
 32
0.0
 13
8.0
 23
8.0
340
151
 70
15
280
0
281
50
282
50
283
0
  0
LINE
  5
152
100
AcDbEntity
  8
step_06
 62
256
370
-1
 48
1.0
  6
BYLAYER
100
AcDbLine
 10
18.25
 20
82.0
 30
0.0
 11
42.25
 21
82.0
 31
0.0
  0
LINE
  5
153
100
AcDbEntity
  8
Framing
 62
256
370
-1
 48
1.0
  6
BYLAYER
100
AcDbLine
 10
0.0
 20
1.5
 30
0.0
 11
0.0000000000000051
 21
85.5
 31
0.0
  0
LINE
  5
154
100
AcDbEntity
  8
Framing
 62
256
370
-1
 48
1.0
  6
BYLAYER
100
AcDbLine
 10
1.5
 20
1.5
 30
0.0
 11
1.5000000000000053
 21
85.5
 31
0.0
  0
LINE
  5
155
100
AcDbEntity
  8
Framing
 62
256
370
-1
 48
1.0
  6
BYLAYER
100
AcDbLine
 10
1.5
 20
1.5
 30
0.0
 11
1.5
 21
1.5
 31
0.0
  0
LINE
  5
156
100
AcDbEntity
  8
Framing
 62
256
370
-1
 48
1.0
  6
BYLAYER
100
AcDbLine
 10
1.5
 20
1.5
 30
0.0
 11
0.0
 21
1.5
 31
0.0
  0
LINE
  5
157
100
AcDbEntity
  8
Framing
 62
252
420
10526884
370
-1
 48
1.0
  6
BYLAYER
100
AcDbLine
 10
0.0000000000000051
 20
85.5
 30
0.0
 11
1.5000000000000049
 21
85.5
 31
0.0
  0
LINE
  5
158
100
AcDbEntity
  8
Framing
 62
256
370
-1
 48
1.0
  6
BYLAYER
100
AcDbLine
 10
41.5
 20
1.5
 30
0.0
 11
41.5
 21
1.5
 31
0.0
  0
LINE
  5
159
100
AcDbEntity
  8
Framing
 62
256
370
-1
 48
1.0
  6
BYLAYER
100
AcDbLine
 10
41.5
 20
1.5
 30
0.0
 11
40.0
 21
1.5
 31
0.0
  0
LINE
  5
15A
100
AcDbEntity
  8
Framing
 62
256
370
-1
 48
1.0
  6
BYLAYER
100
AcDbLine
 10
43.0
 20
1.5
 30
0.0
 11
43.0
 21
1.5
 31
0.0
  0
LINE
  5
15B
100
AcDbEntity
  8
Framing
 62
256
370
-1
 48
1.0
  6
BYLAYER
100
AcDbLine
 10
45.25
 20
1.5
 30
0.0
 11
43.75
 21
1.5
 31
0.0
  0
LINE
  5
15C
100
AcDbEntity
  8
Framing
 62
256
370
-1
 48
1.0
  6
BYLAYER
100
AcDbLine
 10
67.25
 20
1.5
 30
0.0
 11
65.75
 21
1.5
 31
0.0
  0
LINE
  5
15D
100
AcDbEntity
  8
Framing
 62
256
370
-1
 48
1.0
  6
BYLAYER
100
AcDbLine
 10
43.75
 20
85.5
 30
0.0
 11
45.25
 21
85.5
 31
0.0
  0
LINE
  5
15E
100
AcDbEntity
  8
Framing
 62
256
370
-1
 48
1.0
  6
BYLAYER
100
AcDbLine
 10
65.75
 20
85.5
 30
0.0
 11
67.25
 21
85.5
 31
0.0
  0
LINE
  5
15F
100
AcDbEntity
  8
Framing
 62
256
370
-1
 48
1.0
  6
BYLAYER
100
AcDbLine
 10
84.75
 20
1.5
 30
0.0
 11
83.25
 21
1.5
 31
0.0
  0
LINE
  5
160
100
AcDbEntity
  8
Framing
 62
256
370
-1
 48
1.0
  6
BYLAYER
100
AcDbLine
 10
0.0
 20
1.5
 30
0.0
 11
89.0
 21
1.5
 31
0.0
  0
LINE
  5
161
100
AcDbEntity
  8
Framing
 62
256
370
-1
 48
1.0
  6
BYLAYER
100
AcDbLine
 10
0.0000000000000001
 20
0.0
 30
0.0
 11
89.0
 21
-0.0000000000000082
 31
0.0
  0
LINE
  5
162
100
AcDbEntity
  8
Framing
 62
256
370
-1
 48
1.0
  6
BYLAYER
100
AcDbLine
 10
0.0000000000000001
 20
0.0
 30
0.0
 11
0.0000000000000001
 21
0.0
 31
0.0
  0
LINE
  5
163
100
AcDbEntity
  8
Framing
 62
256
370
-1
 48
1.0
  6
BYLAYER
100
AcDbLine
 10
0.0000000000000001
 20
0.0
 30
0.0
 11
0.0
 21
1.5
 31
0.0
  0
LINE
  5
164
100
AcDbEntity
  8
Framing
 62
256
370
-1
 48
1.0
  6
BYLAYER
100
AcDbLine
 10
0.0
 20
87.0
 30
0.0
 11
89.0
 21
87.0
 31
0.0
  0
LINE
  5
165
100
AcDbEntity
  8
Framing
 62
256
370
-1
 48
1.0
  6
BYLAYER
100
AcDbLine
 10
0.0000000000000001
 20
85.5
 30
0.0
 11
0.0
 21
87.0
 31
0.0
  0
LINE
  5
166
100
AcDbEntity
  8
Framing
 62
256
370
-1
 48
1.0
  6
BYLAYER
100
AcDbLine
 10
16.75
 20
1.5
 30
0.0
 11
16.75
 21
85.5
 31
0.0
  0
LINE
  5
167
100
AcDbEntity
  8
Framing
 62
256
370
-1
 48
1.0
  6
BYLAYER
100
AcDbLine
 10
17.5
 20
1.5
 30
0.0
 11
17.5
 21
1.5
 31
0.0
  0
LINE
  5
168
100
AcDbEntity
  8
Framing
 62
256
370
-1
 48
1.0
  6
BYLAYER
100
AcDbLine
 10
18.25
 20
1.5
 30
0.0
 11
16.75
 21
1.5
 31
0.0
  0
LINE
  5
169
100
AcDbEntity
  8
Framing
 62
256
370
-1
 48
1.0
  6
BYLAYER
100
AcDbLine
 10
16.75
 20
85.5
 30
0.0
 11
18.25
 21
85.5
 31
0.0
  0
LINE
  5
16A
100
AcDbEntity
  8
Framing
 62
256
370
-1
 48
1.0
  6
BYLAYER
100
AcDbLine
 10
89.0
 20
1.4999999999999998
 30
0.0
 11
89.0
 21
1.4999999999999998
 31
0.0
  0
LINE
  5
16B
100
AcDbEntity
  8
Framing
 62
256
370
-1
 48
1.0
  6
BYLAYER
100
AcDbLine
 10
87.5
 20
1.5
 30
0.0
 11
87.5
 21
85.4000000000000057
 31
0.0
  0
LINE
  5
16C
100
AcDbEntity
  8
Framing
 62
256
370
-1
 48
1.0
  6
BYLAYER
100
AcDbLine
 10
89.0
 20
1.5
 30
0.0
 11
89.0
 21
85.4000000000000057
 31
0.0
  0
LINE
  5
16D
100
AcDbEntity
  8
Framing
 62
256
370
-1
 48
1.0
  6
BYLAYER
100
AcDbLine
 10
89.0
 20
1.5
 30
0.0
 11
87.5
 21
1.5
 31
0.0
  0
LINE
  5
16E
100
AcDbEntity
  8
Framing
 62
256
370
-1
 48
1.0
  6
BYLAYER
100
AcDbLine
 10
87.5
 20
85.5
 30
0.0
 11
89.0
 21
85.5
 31
0.0
  0
LINE
  5
16F
100
AcDbEntity
  8
Framing
 62
256
370
-1
 48
1.0
  6
BYLAYER
100
AcDbLine
 10
89.0
 20
87.0
 30
0.0
 11
89.0
 21
85.5
 31
0.0
  0
LINE
  5
170
100
AcDbEntity
  8
Framing
 62
256
370
-1
 48
1.0
  6
BYLAYER
100
AcDbLine
 10
42.25
 20
1.5
 30
0.0
 11
43.75
 21
1.5
 31
0.0
  0
LINE
  5
171
100
AcDbEntity
  8
Framing
 62
256
370
-1
 48
1.0
  6
BYLAYER
100
AcDbLine
 10
43.75
 20
1.5
 30
0.0
 11
43.75
 21
85.5
 31
0.0
  0
LINE
  5
172
100
AcDbEntity
  8
Framing
 62
256
370
-1
 48
1.0
  6
BYLAYER
100
AcDbLine
 10
41.5
 20
1.5
 30
0.0
 11
43.0
 21
1.5
 31
0.0
  0
LINE
  5
173
100
AcDbEntity
  8
Framing
 62
256
370
-1
 48
1.0
  6
BYLAYER
100
AcDbLine
 10
16.75
 20
85.5
 30
0.0
 11
1.5000000000000036
 21
85.5
 31
0.0
  0
LINE
  5
174
100
AcDbEntity
  8
Framing
 62
256
370
-1
 48
1.0
  6
BYLAYER
100
AcDbLine
 10
18.25
 20
85.5
 30
0.0
 11
18.25
 21
84.0
 31
0.0
  0
LINE
  5
175
100
AcDbEntity
  8
Framing
 62
256
370
-1
 48
1.0
  6
BYLAYER
100
AcDbLine
 10
18.25
 20
84.0
 30
0.0
 11
42.25
 21
84.0
 31
0.0
  0
LINE
  5
176
100
AcDbEntity
  8
Framing
 62
256
370
-1
 48
1.0
  6
BYLAYER
100
AcDbLine
 10
42.25
 20
84.0
 30
0.0
 11
42.25
 21
85.5
 31
0.0
  0
LINE
  5
177
100
AcDbEntity
  8
Framing
 62
256
370
-1
 48
1.0
  6
BYLAYER
100
AcDbLine
 10
18.25
 20
1.5
 30
0.0
 11
18.25
 21
85.5
 31
0.0
  0
LINE
  5
178
100
AcDbEntity
  8
Framing
 62
256
370
-1
 48
1.0
  6
BYLAYER
100
AcDbLine
 10
42.25
 20
82.5
 30
0.0
 11
42.25
 21
84.0
 31
0.0
  0
LINE
  5
179
100
AcDbEntity
  8
Framing
 62
256
370
-1
 48
1.0
  6
BYLAYER
100
AcDbLine
 10
18.25
 20
81.0
 30
0.0
 11
42.25
 21
81.0
 31
0.0
  0
LINE
  5
17A
100
AcDbEntity
  8
Framing
 62
256
370
-1
 48
1.0
  6
BYLAYER
100
AcDbLine
 10
42.25
 20
81.0
 30
0.0
 11
42.25
 21
82.5
 31
0.0
  0
LINE
  5
17B
100
AcDbEntity
  8
Framing
 62
256
370
-1
 48
1.0
  6
BYLAYER
100
AcDbLine
 10
42.25
 20
82.5
 30
0.0
 11
18.25
 21
82.5
 31
0.0
  0
LINE
  5
17C
100
AcDbEntity
  8
Framing
 62
256
370
-1
 48
1.0
  6
BYLAYER
100
AcDbLine
 10
18.25
 20
43.5
 30
0.0
 11
42.25
 21
43.5
 31
0.0
  0
LINE
  5
17D
100
AcDbEntity
  8
Framing
 62
256
370
-1
 48
1.0
  6
BYLAYER
100
AcDbLine
 10
42.25
 20
43.5
 30
0.0
 11
42.25
 21
45.0
 31
0.0
  0
LINE
  5
17E
100
AcDbEntity
  8
Framing
 62
256
370
-1
 48
1.0
  6
BYLAYER
100
AcDbLine
 10
42.25
 20
45.0
 30
0.0
 11
18.2499999999999929
 21
45.0
 31
0.0
  0
LINE
  5
17F
100
AcDbEntity
  8
Framing
 62
256
370
-1
 48
1.0
  6
BYLAYER
100
AcDbLine
 10
18.25
 20
45.0
 30
0.0
 11
18.25
 21
43.5
 31
0.0
  0
LINE
  5
180
100
AcDbEntity
  8
Framing
 62
256
370
-1
 48
1.0
  6
BYLAYER
100
AcDbLine
 10
18.25
 20
85.5
 30
0.0
 11
42.25
 21
85.5
 31
0.0
  0
LINE
  5
181
100
AcDbEntity
  8
Framing
 62
256
370
-1
 48
1.0
  6
BYLAYER
100
AcDbLine
 10
0.0000000000000051
 20
85.5
 30
0.0
 11
89.0
 21
85.5
 31
0.0
  0
LINE
  5
182
100
AcDbEntity
  8
Framing
 62
256
370
-1
 48
1.0
  6
BYLAYER
100
AcDbLine
 10
89.0
 20
1.5
 30
0.0
 11
89.0
 21
-0.0000000000000082
 31
0.0
  0
MTEXT
  5
183
100
AcDbEntity
  8
Framing
 62
256
370
-1
 48
1.0
  6
BYLAYER
100
AcDbMText
 10
33.5659283946492906
 20
-21.9801444043321368
 30
0.0
 40
3.0
 41
0.0
 71
1
 72
1
  1
\fDejaVu Sans|b0|i0|c0|p0;Rear Wall
  7
textstyle17
 50
0.0
 73
2
 44
1.0
  0
LINE
  5
184
100
AcDbEntity
  8
Framing
 62
256
370
-1
 48
1.0
  6
BYLAYER
100
AcDbLine
 10
42.25
 20
85.5
 30
0.0
 11
43.75
 21
85.5
 31
0.0
  0
LINE
  5
185
100
AcDbEntity
  8
Framing
 62
256
370
-1
 48
1.0
  6
BYLAYER
100
AcDbLine
 10
18.25
 20
84.0
 30
0.0
 11
18.25
 21
82.5
 31
0.0
  0
LINE
  5
186
100
AcDbEntity
  8
Framing
 62
256
370
-1
 48
1.0
  6
BYLAYER
100
AcDbLine
 10
18.25
 20
82.5
 30
0.0
 11
18.25
 21
81.0
 31
0.0
  0
LINE
  5
187
100
AcDbEntity
  8
step_07
 62
256
370
-1
 48
1.0
  6
BYLAYER
100
AcDbLine
 10
44.5
 20
87.0
 30
0.0
 11
44.5
 21
-5.0
 31
0.0
  0
LEADER
  5
188
100
AcDbEntity
  8
step_07
 62
256
370
-1
 48
1.0
  6
BYLAYER
100
AcDbLeader
  3
Standard
 71
1
 72
0
 73
3
 74
0
 75
0
 40
1.0
 41
10.0
 76
3
 10
44.5
 20
87.0
 10
39.185785510749966
 20
96.2073556752934849
 10
47.9831819596640941
 20
96.2223005583132505
1001
ACAD
1000
DSTYLE
1002
{
1070
40
1040
1.0
1002
}
  0
MTEXT
  5
189
100
AcDbEntity
  8
step_07
 62
256
370
-1
 48
1.0
  6
BYLAYER
100
AcDbMText
 10
49.0
 20
98.0
 30
0.0
 40
3.0
 41
0.0
 71
1
 72
1
  1
\H2;Exterior caulk between panels
  7
textstyle12
 50
0.0
 73
2
 44
1.0
  0
LEADER
  5
18A
100
AcDbEntity
  8
step_06
 62
256
370
-1
 48
1.0
  6
BYLAYER
100
AcDbLeader
  3
Standard
 71
1
 72
0
 73
3
 74
0
 75
0
 40
1.0
 41
10.0
 76
3
 10
17.2499999999999964
 20
71.6646786984213975
 10
-9.0
 20
98.0
 10
-2.0
 20
98.0
1001
ACAD
1000
DSTYLE
1002
{
1070
40
1040
1.0
1002
}
  0
MTEXT
  5
18B
100
AcDbEntity
  8
step_06
 62
256
370
-1
 48
1.0
  6
BYLAYER
100
AcDbMText
 10
-1.0
 20
100.0
 30
0.0
 40
3.0
 41
0.0
 71
1
 72
1
  1
\H2;Trim Tyvek flush with inside of window opening
  7
textstyle11
 50
0.0
 73
2
 44
1.0
  0
LINE
  5
18C
100
AcDbEntity
  8
step_08
 62
256
370
-1
 48
1.0
  6
BYLAYER
100
AcDbLine
 10
18.75
 20
80.5
 30
0.0
 11
41.75
 21
80.5
 31
0.0
  0
LINE
  5
18D
100
AcDbEntity
  8
step_08
 62
256
370
-1
 48
1.0
  6
BYLAYER
100
AcDbLine
 10
41.75
 20
45.5
 30
0.0
 11
18.75
 21
45.5
 31
0.0
  0
LINE
  5
18E
100
AcDbEntity
  8
step_08
 62
256
370
-1
 48
1.0
  6
BYLAYER
100
AcDbLine
 10
18.75
 20
67.0
 30
0.0
 11
18.75
 21
67.0
 31
0.0
  0
LINE
  5
18F
100
AcDbEntity
  8
step_08
 62
256
370
-1
 48
1.0
  6
BYLAYER
100
AcDbLine
 10
18.75
 20
67.0
 30
0.0
 11
41.75
 21
67.0
 31
0.0
  0
LINE
  5
190
100
AcDbEntity
  8
step_08
 62
256
370
-1
 48
1.0
  6
BYLAYER
100
AcDbLine
 10
18.7467300188974022
 20
67.4093086989282568
 30
0.0
 11
41.75
 21
67.4093086989282568
 31
0.0
  0
LEADER
  5
191
100
AcDbEntity
  8
step_08
 62
256
370
-1
 48
1.0
  6
BYLAYER
100
AcDbLeader
  3
Standard
 71
1
 72
0
 73
3
 74
0
 75
0
 40
1.0
 41
10.0
 76
3
 10
17.3921271564194484
 20
67.3309405782862314
 10
-1.4272046872971238
 20
102.0861764285156283
 10
4.8999999999999995
 20
102.0999999999999943
1001
ACAD
1000
DSTYLE
1002
{
1070
40
1040
1.0
1002
}
  0
MTEXT
  5
192
100
AcDbEntity
  8
step_08
 62
256
370
-1
 48
1.0
  6
BYLAYER
100
AcDbMText
 10
6.5873309487552696
 20
103.0436354120394071
 30
0.0
 40
3.0
 41
0.0
 71
1
 72
1
  1
\H2;Install window unit
  7
textstyle16
 50
0.0
 73
2
 44
1.0
  0
LEADER
  5
193
100
AcDbEntity
  8
step_08
 62
256
370
-1
 48
1.0
  6
BYLAYER
100
AcDbLeader
  3
Standard
 71
1
 72
0
 73
3
 74
0
 75
0
 40
1.0
 41
10.0
 76
3
 10
17.0
 20
74.0
 10
3.0
 20
99.0
 10
10.0
 20
99.0
1001
ACAD
1000
DSTYLE
1002
{
1070
40
1040
1.0
1002
}
  0
MTEXT
  5
194
100
AcDbEntity
  8
step_08
 62
256
370
-1
 48
1.0
  6
BYLAYER
100
AcDbMText
 10
10.3458254157568721
 20
99.7614815954362371
 30
0.0
 40
3.0
 41
0.0
 71
1
 72
1
  1
\H2;Peel-and-stick first
  7
textstyle15
 50
0.0
 73
2
 44
1.0
  0
LEADER
  5
195
100
AcDbEntity
  8
step_08
 62
256
370
-1
 48
1.0
  6
BYLAYER
100
AcDbLeader
  3
Standard
 71
1
 72
0
 73
3
 74
0
 75
0
 40
1.0
 41
10.0
 76
3
 10
29.0
 20
82.0
 10
36.0
 20
94.0
 10
41.0
 20
94.0
1001
ACAD
1000
DSTYLE
1002
{
1070
40
1040
1.0
1002
}
  0
MTEXT
  5
196
100
AcDbEntity
  8
step_08
 62
256
370
-1
 48
1.0
  6
BYLAYER
100
AcDbMText
 10
41.4834484569871478
 20
94.9792661957391573
 30
0.0
 40
3.0
 41
0.0
 71
1
 72
1
  1
\H2;Peel-and-stick last,\Poverlapping side strips
  7
textstyle14
 50
0.0
 73
2
 44
1.0
  0
MTEXT
  5
197
100
AcDbEntity
  8
step_07
 62
256
370
-1
 48
1.0
  6
BYLAYER
100
AcDbMText
 10
27.9758406383285063
 20
18.3064356272156346
 30
0.0
 40
3.0
 41
0.0
 71
1
 72
1
  1
\fLiberation Sans|b1|i0|c0|p0;\H2.50001;Use Panel Nails
  7
textstyle13
 50
0.0
 73
2
 44
1.0
  0
LEADER
  5
198
100
AcDbEntity
  8
step_02
 62
256
370
-1
 48
1.0
  6
BYLAYER
100
AcDbLeader
  3
Standard
 71
1
 72
0
 73
3
 74
0
 75
0
 40
1.0
 41
10.0
 76
3
 10
26.7119231904203431
 20
87.143668138666655
 10
26.7124481758416685
 20
102.7637394561033943
 10
31.6340832072642471
 20
102.7637394561033943
1001
ACAD
1000
DSTYLE
1002
{
1070
40
1040
1.0
1002
}
  0
MTEXT
  5
199
100
AcDbEntity
  8
step_02
 62
256
370
-1
 48
1.0
  6
BYLAYER
100
AcDbMText
 10
32.4582930205264759
 20
103.7559410784381839
 30
0.0
 40
3.0
 41
0.0
 71
1
 72
1
  1
\H2;Clamp 3 header boards to top plate
  7
textstyle23
 50
0.0
 73
2
 44
1.0
  0
LINE
  5
19A
100
AcDbEntity
  8
step_08
 62
256
370
-1
 48
1.0
  6
BYLAYER
100
AcDbLine
 10
18.75
 20
45.5
 30
0.0
 11
18.75
 21
67.0
 31
0.0
  0
LINE
  5
19B
100
AcDbEntity
  8
step_08
 62
256
370
-1
 48
1.0
  6
BYLAYER
100
AcDbLine
 10
18.75
 20
67.0
 30
0.0
 11
18.75
 21
67.0
 31
0.0
  0
LINE
  5
19C
100
AcDbEntity
  8
step_08
 62
256
370
-1
 48
1.0
  6
BYLAYER
100
AcDbLine
 10
18.75
 20
67.0
 30
0.0
 11
18.75
 21
80.5
 31
0.0
  0
LINE
  5
19D
100
AcDbEntity
  8
step_08
 62
256
370
-1
 48
1.0
  6
BYLAYER
100
AcDbLine
 10
41.75
 20
80.5
 30
0.0
 11
41.75
 21
67.4093086989282568
 31
0.0
  0
LINE
  5
19E
100
AcDbEntity
  8
step_08
 62
256
370
-1
 48
1.0
  6
BYLAYER
100
AcDbLine
 10
41.75
 20
67.4093086989282568
 30
0.0
 11
41.75
 21
67.4093086989282568
 31
0.0
  0
LINE
  5
19F
100
AcDbEntity
  8
step_08
 62
256
370
-1
 48
1.0
  6
BYLAYER
100
AcDbLine
 10
41.75
 20
67.0
 30
0.0
 11
41.75
 21
45.5
 31
0.0
  0
LINE
  5
1A0
100
AcDbEntity
  8
step_08
 62
256
370
-1
 48
1.0
  6
BYLAYER
100
AcDbLine
 10
41.75
 20
67.0
 30
0.0
 11
41.75
 21
67.4093086989282568
 31
0.0
  0
LINE
  5
1A1
100
AcDbEntity
  8
step_08
 62
256
370
-1
 48
1.0
  6
BYLAYER
100
AcDbLine
 10
41.75
 20
67.4093086989282568
 30
0.0
 11
41.75
 21
67.4093086989282568
 31
0.0
  0
LINE
  5
1A2
100
AcDbEntity
  8
step_08
 62
256
370
-1
 48
1.0
  6
BYLAYER
100
AcDbLine
 10
44.0
 20
81.0
 30
0.0
 11
44.0
 21
82.0
 31
0.0
  0
LINE
  5
1A3
100
AcDbEntity
  8
step_08
 62
256
370
-1
 48
1.0
  6
BYLAYER
100
AcDbLine
 10
44.0
 20
82.0
 30
0.0
 11
16.5969625947733128
 21
81.9738625996774886
 31
0.0
  0
LINE
  5
1A4
100
AcDbEntity
  8
step_08
 62
256
370
-1
 48
1.0
  6
BYLAYER
100
AcDbLine
 10
16.5969625947733128
 20
81.9738625996774886
 30
0.0
 11
16.5979164083249842
 21
80.9738630545577394
 31
0.0
  0
LEADER
  5
1A5
100
AcDbEntity
  8
step_08
 62
256
370
-1
 48
1.0
  6
BYLAYER
100
AcDbLeader
  3
Standard
 71
1
 72
0
 73
3
 74
0
 75
0
 40
1.0
 41
10.0
 76
2
 10
42.2483517871851788
 20
70.746505125139862
 10
3.0
 20
99.0
1001
ACAD
1000
DSTYLE
1002
{
1070
40
1040
1.0
1002
}
  0
LINE
  5
1A6
100
AcDbEntity
  8
step_08
 62
256
370
-1
 48
1.0
  6
BYLAYER
100
AcDbLine
 10
16.5979164083249842
 20
80.9738630545577394
 30
0.0
 11
44.0
 21
81.0
 31
0.0
  0
HATCH
  5
1A7
100
AcDbEntity
  8
step_08
 62
256
370
-1
 48
1.0
  6
BYLAYER
100
AcDbHatch
 10
0.0
 20
0.0
 30
0.0
210
0.0
220
0.0
230
1.0
  2
SOLID
 70
1
 71
0
 91
1
 92
1
 93
4
 72
1
 10
44.0
 20
82.0
 11
16.5969625947733128
 21
81.9738625996774886
 72
1
 10
16.5969625947733128
 20
81.9738625996774886
 11
16.5979164083249842
 21
80.9738630545577394
 72
1
 10
16.5979164083249842
 20
80.9738630545577394
 11
44.0
 21
81.0
 72
1
 10
44.0
 20
81.0
 11
44.0
 21
82.0
 97
0
 75
0
 76
1
 98
0
1001
ACAD
1010
0.0
1020
0.0
1030
0
  0
HATCH
  5
1A8
100
AcDbEntity
  8
step_06
 62
256
370
-1
 48
1.0
  6
BYLAYER
100
AcDbHatch
 10
0.0
 20
0.0
 30
0.0
210
0.0
220
0.0
230
1.0
  2
SOLID
 70
1
 71
0
 91
1
 92
1
 93
4
 72
1
 10
18.25
 20
82.0
 11
18.25
 21
81.0
 72
1
 10
18.25
 20
81.0000000000000142
 11
42.25
 21
81.0
 72
1
 10
42.2499999999999929
 20
81.0
 11
42.2499999999999929
 21
82.0
 72
1
 10
42.25
 20
82.0
 11
18.25
 21
82.0
 97
0
 75
0
 76
1
 98
0
1001
ACAD
1010
0.0
1020
0.0
1030
0
  0
HATCH
  5
1A9
100
AcDbEntity
  8
step_06
 62
256
370
-1
 48
1.0
  6
BYLAYER
100
AcDbHatch
 10
0.0
 20
0.0
 30
0.0
210
0.0
220
0.0
230
1.0
  2
SOLID
 70
1
 71
0
 91
1
 92
1
 93
4
 72
1
 10
18.2499999999999964
 20
45.0
 11
17.2499999999999964
 21
45.0
 72
1
 10
17.2499999999999964
 20
45.0
 11
17.25
 21
81.0000000000000284
 72
1
 10
17.25
 20
81.0000000000000284
 11
18.25
 21
81.0000000000000142
 72
1
 10
18.2500000000000036
 20
81.0
 11
18.25
 21
45.0
 97
0
 75
0
 76
1
 98
0
1001
ACAD
1010
0.0
1020
0.0
1030
0
  0
HATCH
  5
1AA
100
AcDbEntity
  8
step_08
 62
256
370
-1
 48
1.0
  6
BYLAYER
100
AcDbHatch
 10
0.0
 20
0.0
 30
0.0
210
0.0
220
0.0
230
1.0
  2
SOLID
 70
1
 71
0
 91
1
 92
1
 93
4
 72
1
 10
18.2499999999999964
 20
45.0
 11
17.2499999999999964
 21
45.0
 72
1
 10
17.2499999999999964
 20
45.0
 11
17.25
 21
81.0000000000000284
 72
1
 10
17.25
 20
81.0000000000000284
 11
18.25
 21
81.0000000000000142
 72
1
 10
18.2500000000000036
 20
81.0
 11
18.25
 21
45.0
 97
0
 75
0
 76
1
 98
0
1001
ACAD
1010
0.0
1020
0.0
1030
0
  0
HATCH
  5
1AB
100
AcDbEntity
  8
step_08
 62
256
370
-1
 48
1.0
  6
BYLAYER
100
AcDbHatch
 10
0.0
 20
0.0
 30
0.0
210
0.0
220
0.0
230
1.0
  2
SOLID
 70
1
 71
0
 91
1
 92
1
 93
4
 72
1
 10
43.25
 20
44.9999999999999929
 11
42.25
 21
44.9999999999999929
 72
1
 10
42.25
 20
44.9999999999999929
 11
42.25
 21
81.0000000000000284
 72
1
 10
42.25
 20
81.0000000000000284
 11
43.25
 21
81.0
 72
1
 10
43.2500000000000071
 20
81.0
 11
43.25
 21
44.9999999999999929
 97
0
 75
0
 76
1
 98
0
1001
ACAD
1010
0.0
1020
0.0
1030
0
  0
HATCH
  5
1AC
100
AcDbEntity
  8
step_06
 62
256
370
-1
 48
1.0
  6
BYLAYER
100
AcDbHatch
 10
0.0
 20
0.0
 30
0.0
210
0.0
220
0.0
230
1.0
  2
SOLID
 70
1
 71
0
 91
1
 92
1
 93
4
 72
1
 10
42.25
 20
81.0
 11
43.2500000000000071
 21
81.0
 72
1
 10
43.2500000000000071
 20
81.0
 11
43.2500000000000071
 21
45.0
 72
1
 10
43.25
 20
45.0
 11
42.25
 21
45.0
 72
1
 10
42.2499999999999929
 20
45.0
 11
42.2499999999999929
 21
81.0000000000000142
 97
0
 75
0
 76
1
 98
0
1001
ACAD
1010
0.0
1020
0.0
1030
0
  0
HATCH
  5
1AD
100
AcDbEntity
  8
step_06
 62
256
370
-1
 48
1.0
  6
BYLAYER
100
AcDbHatch
 10
0.0
 20
0.0
 30
0.0
210
0.0
220
0.0
230
1.0
  2
SOLID
 70
1
 71
0
 91
1
 92
1
 93
4
 72
1
 10
18.25
 20
44.0
 11
42.25
 21
44.0
 72
1
 10
42.2499999999999929
 20
44.0
 11
42.2499999999999929
 21
45.0
 72
1
 10
42.2499999999999929
 20
45.0
 11
18.25
 21
45.0
 72
1
 10
18.25
 20
44.9999999999999858
 11
18.25
 21
43.9999999999999858
 97
0
 75
0
 76
1
 98
0
1001
ACAD
1010
0.0
1020
0.0
1030
0
  0
HATCH
  5
1AE
100
AcDbEntity
  8
step_08
 62
256
370
-1
 48
1.0
  6
BYLAYER
100
AcDbHatch
 10
0.0
 20
0.0
 30
0.0
210
0.0
220
0.0
230
1.0
  2
JIS_WOOD
 70
0
 71
0
 91
1
 92
1
 93
4
 72
1
 10
41.75
 20
45.5
 11
18.75
 21
45.5
 72
1
 10
18.75
 20
45.5
 11
18.75
 21
67.0
 72
1
 10
18.75
 20
67.0
 11
41.75
 21
67.0
 72
1
 10
41.75
 20
67.0
 11
41.75
 21
45.5
 97
0
 75
0
 76
1
 52
0.0
 41
1.0
 77
0
 78
1
 53
45.0
 43
0.0
 44
0.0
 45
-0.0883883476483184
 46
0.0883883476483185
 79
0
 98
0
1001
ACAD
1010
0.0
1020
0.0
1030
0
  0
LEADER
  5
1AF
100
AcDbEntity
  8
step_03
 62
256
370
-1
 48
1.0
  6
BYLAYER
100
AcDbLeader
  3
Standard
 71
0
 72
0
 73
3
 74
0
 75
0
 40
1.0
 41
10.0
 76
2
 10
41.9999999999999929
 20
30.0
 10
36.9999999999999929
 20
30.0
1001
ACAD
1000
DSTYLE
1002
{
1070
40
1040
1.0
1002
}
  0
LEADER
  5
1B0
100
AcDbEntity
  8
step_03
 62
256
370
-1
 48
1.0
  6
BYLAYER
100
AcDbLeader
  3
Standard
 71
1
 72
0
 73
3
 74
0
 75
0
 40
1.0
 41
10.0
 76
3
 10
45.2499999999999929
 20
30.0
 10
51.9999999999999929
 20
30.0
 10
51.9999999999999929
 20
30.0
1001
ACAD
1000
DSTYLE
1002
{
1070
40
1040
1.0
1002
}
  0
MTEXT
  5
1B1
100
AcDbEntity
  8
step_03
 62
256
370
-1
 48
1.0
  6
BYLAYER
100
AcDbMText
 10
20.9999999999999929
 20
32.0
 30
0.0
 40
3.0
 41
0.0
 71
1
 72
1
  1
CLAMP
  7
textstyle21
 50
0.0
 73
2
 44
1.0
  0
MTEXT
  5
1B2
100
AcDbEntity
  8
step_05
 62
256
370
-1
 48
1.0
  6
BYLAYER
100
AcDbMText
 10
47.9325685290696129
 20
46.5312546823907098
 30
0.0
 40
3.0
 41
0.0
 71
1
 72
1
  1
\fDejaVu Sans|b0|i0|c0|p0;TYVEK
  7
textstyle22
 50
0.0
 73
2
 44
1.0
  0
MTEXT
  5
1B3
100
AcDbEntity
  8
step_06
 62
256
370
-1
 48
1.0
  6
BYLAYER
100
AcDbMText
 10
47.9325685290696129
 20
46.5312546823907098
 30
0.0
 40
3.0
 41
0.0
 71
1
 72
1
  1
TYVEK
  7
textstyle19
 50
0.0
 73
2
 44
1.0
  0
MTEXT
  5
1B4
100
AcDbEntity
  8
step_07
 62
256
370
-1
 48
1.0
  6
BYLAYER
100
AcDbMText
 10
22.0
 20
40.0
 30
0.0
 40
3.0
 41
0.0
 71
1
 72
1
  1
PANEL 1
  7
textstyle20
 50
0.0
 73
2
 44
1.0
  0
MTEXT
  5
1B5
100
AcDbEntity
  8
step_07
 62
256
370
-1
 48
1.0
  6
BYLAYER
100
AcDbMText
 10
47.0
 20
40.0
 30
0.0
 40
3.0
 41
0.0
 71
1
 72
1
  1
PANEL 2
  7
textstyle18
 50
0.0
 73
2
 44
1.0
  0
DIMENSION
  5
1B6
100
AcDbEntity
  8
step_01
 62
256
370
-1
 48
1.0
  6
BYLAYER
100
AcDbDimension
 10
-4.0
 20
85.4999999999999858
 30
0.0
 11
-6.0
 21
43.0
 31
0.0
 70
128
 71
8
 72
2
 74
0
 75
0
 41
1.0
 42
0.0
  1

  3
Standard
100
AcDbAlignedDimension
 13
0.0000000000000001
 23
85.4999999999999858
 33
0.0
 14
0.0
 24
1.5
 34
0.0
 50
90.0
100
AcDbRotatedDimension
1001
ACAD
1000
DSTYLE
1002
{
1070
279
1070
2
1070
144
1040
1.0
1070
40
1040
1.0
1002
}
  0
LINE
  5
1B7
100
AcDbEntity
  8
Framing
 62
256
370
-1
 48
1.0
  6
BYLAYER
100
AcDbLine
 10
45.25
 20
70.25
 30
0.0
 11
46.75
 21
70.25
 31
0.0
  0
LINE
  5
1B8
100
AcDbEntity
  8
Framing
 62
256
370
-1
 48
1.0
  6
BYLAYER
100
AcDbLine
 10
45.25
 20
84.0
 30
0.0
 11
46.75
 21
84.0
 31
0.0
  0
LINE
  5
1B9
100
AcDbEntity
  8
Framing
 62
256
370
-1
 48
1.0
  6
BYLAYER
100
AcDbLine
 10
65.75
 20
84.0
 30
0.0
 11
65.75
 21
84.0
 31
0.0
  0
LINE
  5
1BA
100
AcDbEntity
  8
Framing
 62
256
370
-1
 48
1.0
  6
BYLAYER
100
AcDbLine
 10
45.25
 20
84.0
 30
0.0
 11
46.75
 21
84.0
 31
0.0
  0
LINE
  5
1BB
100
AcDbEntity
  8
Framing
 62
256
370
-1
 48
1.0
  6
BYLAYER
100
AcDbLine
 10
45.25
 20
70.25
 30
0.0
 11
46.75
 21
70.25
 31
0.0
  0
LINE
  5
1BC
100
AcDbEntity
  8
Framing
 62
256
370
-1
 48
1.0
  6
BYLAYER
100
AcDbLine
 10
45.25
 20
70.25
 30
0.0
 11
45.25
 21
68.75
 31
0.0
  0
LINE
  5
1BD
100
AcDbEntity
  8
Framing
 62
256
370
-1
 48
1.0
  6
BYLAYER
100
AcDbLine
 10
45.25
 20
85.5
 30
0.0
 11
45.25
 21
84.0
 31
0.0
  0
LINE
  5
1BE
100
AcDbEntity
  8
Framing
 62
256
370
-1
 48
1.0
  6
BYLAYER
100
AcDbLine
 10
65.75
 20
85.5
 30
0.0
 11
65.75
 21
84.0
 31
0.0
  0
HATCH
  5
1BF
100
AcDbEntity
  8
step_04
 62
256
370
-1
 48
1.0
  6
BYLAYER
100
AcDbHatch
 10
0.0
 20
0.0
 30
0.0
210
0.0
220
0.0
230
1.0
  2
SOLID
 70
1
 71
0
 91
1
 92
1
 93
4
 72
1
 10
65.75
 20
70.25
 11
65.75
 21
68.75
 72
1
 10
65.75
 20
68.75
 11
45.25
 21
68.75
 72
1
 10
45.25
 20
68.75
 11
45.25
 21
70.25
 72
1
 10
45.25
 20
70.25
 11
65.75
 21
70.25
 97
0
 75
0
 76
1
 98
0
1001
ACAD
1010
0.0
1020
0.0
1030
0
  0
HATCH
  5
1C0
100
AcDbEntity
  8
step_04b
 62
252
420
10526884
370
-1
 48
1.0
  6
BYLAYER
100
AcDbHatch
 10
0.0
 20
0.0
 30
0.0
210
0.0
220
0.0
230
1.0
  2
SOLID
 70
1
 71
0
 91
1
 92
1
 93
4
 72
1
 10
65.75
 20
70.25
 11
65.75
 21
68.75
 72
1
 10
65.75
 20
68.75
 11
45.25
 21
68.75
 72
1
 10
45.25
 20
68.75
 11
45.25
 21
70.25
 72
1
 10
45.25
 20
70.25
 11
65.75
 21
70.25
 97
0
 75
0
 76
1
 98
0
1001
ACAD
1010
0.0
1020
0.0
1030
0
  0
HATCH
  5
1C1
100
AcDbEntity
  8
step_04
 62
256
370
-1
 48
1.0
  6
BYLAYER
100
AcDbHatch
 10
0.0
 20
0.0
 30
0.0
210
0.0
220
0.0
230
1.0
  2
SOLID
 70
1
 71
0
 91
1
 92
1
 93
4
 72
1
 10
65.75
 20
85.5
 11
65.75
 21
84.0
 72
1
 10
65.75
 20
84.0
 11
45.25
 21
84.0
 72
1
 10
45.25
 20
84.0
 11
45.25
 21
85.5
 72
1
 10
45.25
 20
85.5
 11
65.75
 21
85.5
 97
0
 75
0
 76
1
 98
0
1001
ACAD
1010
0.0
1020
0.0
1030
0
  0
HATCH
  5
1C2
100
AcDbEntity
  8
step_04b
 62
252
420
10526884
370
-1
 48
1.0
  6
BYLAYER
100
AcDbHatch
 10
0.0
 20
0.0
 30
0.0
210
0.0
220
0.0
230
1.0
  2
SOLID
 70
1
 71
0
 91
1
 92
1
 93
4
 72
1
 10
65.75
 20
85.5
 11
65.75
 21
84.0
 72
1
 10
65.75
 20
84.0
 11
45.25
 21
84.0
 72
1
 10
45.25
 20
84.0
 11
45.25
 21
85.5
 72
1
 10
45.25
 20
85.5
 11
65.75
 21
85.5
 97
0
 75
0
 76
1
 98
0
1001
ACAD
1010
0.0
1020
0.0
1030
0
  0
HATCH
  5
1C3
100
AcDbEntity
  8
step_04
 62
256
370
-1
 48
1.0
  6
BYLAYER
100
AcDbHatch
 10
0.0
 20
0.0
 30
0.0
210
0.0
220
0.0
230
1.0
  2
SOLID
 70
1
 71
0
 91
1
 92
1
 93
4
 72
1
 10
45.25
 20
70.25
 11
46.75
 21
70.25
 72
1
 10
46.75
 20
70.25
 11
46.75
 21
84.0
 72
1
 10
46.75
 20
84.0
 11
45.25
 21
84.0
 72
1
 10
45.25
 20
84.0
 11
45.25
 21
70.25
 97
0
 75
0
 76
1
 98
0
1001
ACAD
1010
0.0
1020
0.0
1030
0
  0
HATCH
  5
1C4
100
AcDbEntity
  8
step_04b
 62
252
420
10526884
370
-1
 48
1.0
  6
BYLAYER
100
AcDbHatch
 10
0.0
 20
0.0
 30
0.0
210
0.0
220
0.0
230
1.0
  2
SOLID
 70
1
 71
0
 91
1
 92
1
 93
4
 72
1
 10
45.25
 20
70.25
 11
46.75
 21
70.25
 72
1
 10
46.75
 20
70.25
 11
46.75
 21
84.0
 72
1
 10
46.75
 20
84.0
 11
45.25
 21
84.0
 72
1
 10
45.25
 20
84.0
 11
45.25
 21
70.25
 97
0
 75
0
 76
1
 98
0
1001
ACAD
1010
0.0
1020
0.0
1030
0
  0
MTEXT
  5
1C5
100
AcDbEntity
  8
step_07
 62
256
370
-1
 48
1.0
  6
BYLAYER
100
AcDbMText
 10
51.0
 20
93.0
 30
0.0
 40
1.0
 41
0.0
 71
1
 72
1
  1
\fDejaVu Sans|b0|i0|c0|p0;\H2;Panel nails, using A/C template
  7
textstyle29
 50
0.0
 73
2
 44
1.0
  0
LEADER
  5
1C6
100
AcDbEntity
  8
step_07
 62
256
370
-1
 48
1.0
  6
BYLAYER
100
AcDbLeader
  3
Standard
 71
1
 72
0
 73
3
 74
0
 75
0
 40
1.0
 41
10.0
 76
3
 10
46.0
 20
80.0
 10
47.0
 20
92.0
 10
50.0
 20
92.0
1001
ACAD
1000
DSTYLE
1002
{
1070
40
1040
1.0
1002
}
  0
LEADER
  5
1C7
100
AcDbEntity
  8
step_07
 62
256
370
-1
 48
1.0
  6
BYLAYER
100
AcDbLeader
  3
Standard
 71
1
 72
0
 73
3
 74
0
 75
0
 40
1.0
 41
10.0
 76
2
 10
56.0
 20
71.0
 10
47.0
 20
92.0
1001
ACAD
1000
DSTYLE
1002
{
1070
40
1040
1.0
1002
}
  0
LINE
  5
1C8
100
AcDbEntity
  8
Framing
 62
256
370
-1
 48
1.0
  6
BYLAYER
100
AcDbLine
 10
42.25
 20
1.5
 30
0.0
 11
42.25
 21
85.5
 31
0.0
  0
LEADER
  5
1C9
100
AcDbEntity
  8
step_04
 62
256
370
-1
 48
1.0
  6
BYLAYER
100
AcDbLeader
  3
Standard
 71
1
 72
0
 73
3
 74
0
 75
0
 40
1.0
 41
10.0
 76
2
 10
55.5
 20
85.5
 10
55.5
 20
94.0
1001
ACAD
1000
DSTYLE
1002
{
1070
40
1040
1.0
1002
}
  0
LEADER
  5
1CA
100
AcDbEntity
  8
step_04
 62
256
370
-1
 48
1.0
  6
BYLAYER
100
AcDbLeader
  3
Standard
 71
1
 72
0
 73
3
 74
0
 75
0
 40
1.0
 41
10.0
 76
2
 10
55.5
 20
83.9999999999999858
 10
55.5
 20
75.4999999999999858
1001
ACAD
1000
DSTYLE
1002
{
1070
40
1040
1.0
1002
}
  0
MTEXT
  5
1CB
100
AcDbEntity
  8
step_04
 62
256
370
-1
 48
1.0
  6
BYLAYER
100
AcDbMText
 10
49.2563622506752807
 20
97.7341719386371466
 30
0.0
 40
3.0
 41
0.0
 71
1
 72
1
  1
\H2.50001;CLAMP
  7
textstyle24
 50
0.0
 73
2
 44
1.0
  0
IMAGE
  5
1CC
100
AcDbEntity
  8
step_04
 62
256
370
-1
 48
1.0
  6
BYLAYER
100
AcDbRasterImage
 90
0
 10
46.9008410707610608
 20
77.0273241319847841
 30
0.0
 11
-0.0
 21
-0.07
 31
0.0
 12
0.07
 22
0.0
 32
0.0
 13
4.0
 23
3.0
340
1CD
 70
15
280
0
281
50
282
50
283
0
  0
IMAGE
  5
1CE
100
AcDbEntity
  8
step_04
 62
256
370
-1
 48
1.0
  6
BYLAYER
100
AcDbRasterImage
 90
0
 10
46.9062737540352117
 20
83.6561372913452885
 30
0.0
 11
-0.0
 21
-0.07
 31
0.0
 12
0.07
 22
0.0
 32
0.0
 13
4.0
 23
3.0
340
1CF
 70
15
280
0
281
50
282
50
283
0
  0
IMAGE
  5
1D0
100
AcDbEntity
  8
step_04
 62
256
370
-1
 48
1.0
  6
BYLAYER
100
AcDbRasterImage
 90
0
 10
54.4753262751978653
 20
83.9565326012873498
 30
0.0
 11
-0.07
 21
0.0
 31
0.0
 12
-0.0
 22
-0.07
 32
0.0
 13
4.0
 23
3.0
340
1D1
 70
15
280
0
281
50
282
50
283
0
  0
IMAGE
  5
1D2
100
AcDbEntity
  8
step_04
 62
256
370
-1
 48
1.0
  6
BYLAYER
100
AcDbRasterImage
 90
0
 10
64.0599999999999881
 20
83.9565326012873641
 30
0.0
 11
-0.07
 21
0.0
 31
0.0
 12
-0.0
 22
-0.07
 32
0.0
 13
4.0
 23
3.0
340
1D3
 70
15
280
0
281
50
282
50
283
0
  0
CIRCLE
  5
1D4
100
AcDbEntity
  8
step_04
 62
256
370
-1
 48
1.0
  6
BYLAYER
100
AcDbCircle
 10
44.3600848372455516
 20
93.931547936843387
 30
0.0
 40
4.3737874653303681
  0
CIRCLE
  5
1D5
100
AcDbEntity
  8
step_04
 62
256
370
-1
 48
1.0
  6
BYLAYER
100
AcDbCircle
 10
29.1682749614765271
 20
74.4860312958590356
 30
0.0
 40
4.3737874653303681
  0
CIRCLE
  5
1D6
100
AcDbEntity
  8
step_04
 62
256
370
-1
 48
1.0
  6
BYLAYER
100
AcDbCircle
 10
61.0
 20
55.0
 30
0.0
 40
4.3737874653303681
  0
CIRCLE
  5
1D7
100
AcDbEntity
  8
step_04
 62
256
370
-1
 48
1.0
  6
BYLAYER
100
AcDbCircle
 10
76.0975075055532812
 20
27.7215285233872777
 30
0.0
 40
4.3737874653303681
  0
LEADER
  5
1D8
100
AcDbEntity
  8
step_04
 62
256
370
-1
 48
1.0
  6
BYLAYER
100
AcDbLeader
  3
Standard
 71
1
 72
0
 73
3
 74
0
 75
0
 40
1.0
 41
10.0
 76
2
 10
51.3483173800993029
 20
85.6266918714229917
 10
47.1761407054218438
 20
90.5849308181411459
1001
ACAD
1000
DSTYLE
1002
{
1070
40
1040
1.0
1002
}
  0
MTEXT
  5
1D9
100
AcDbEntity
  8
step_04
 62
256
370
-1
 48
1.0
  6
BYLAYER
100
AcDbMText
 10
42.7516378062848119
 20
96.63573949830635
 30
0.0
 40
4.0
 41
0.0
 71
1
 72
1
  1
\H5;2
  7
textstyle27
 50
0.0
 73
2
 44
1.0
  0
MTEXT
  5
1DA
100
AcDbEntity
  8
step_04
 62
256
370
-1
 48
1.0
  6
BYLAYER
100
AcDbMText
 10
27.4626238093585648
 20
77.0125735513883711
 30
0.0
 40
4.0
 41
0.0
 71
1
 72
1
  1
\H5;3
  7
textstyle28
 50
0.0
 73
2
 44
1.0
  0
MTEXT
  5
1DB
100
AcDbEntity
  8
step_04
 62
256
370
-1
 48
1.0
  6
BYLAYER
100
AcDbMText
 10
59.2943488478820342
 20
57.5265422555293497
 30
0.0
 40
4.0
 41
0.0
 71
1
 72
1
  1
\H5;4
  7
textstyle25
 50
0.0
 73
2
 44
1.0
  0
MTEXT
  5
1DC
100
AcDbEntity
  8
step_04
 62
256
370
-1
 48
1.0
  6
BYLAYER
100
AcDbMText
 10
75.0847201805020177
 20
30.1522181035103216
 30
0.0
 40
4.0
 41
0.0
 71
1
 72
1
  1
\H5;1
  7
textstyle26
 50
0.0
 73
2
 44
1.0
  0
LEADER
  5
1DD
100
AcDbEntity
  8
step_04
 62
256
370
-1
 48
1.0
  6
BYLAYER
100
AcDbLeader
  3
Standard
 71
1
 72
0
 73
3
 74
0
 75
0
 40
1.0
 41
10.0
 76
2
 10
45.2715934297916931
 20
79.3474104561051234
 10
33.3554229031288685
 20
75.7500759574899263
1001
ACAD
1000
DSTYLE
1002
{
1070
40
1040
1.0
1002
}
  0
LEADER
  5
1DE
100
AcDbEntity
  8
step_04
 62
256
370
-1
 48
1.0
  6
BYLAYER
100
AcDbLeader
  3
Standard
 71
1
 72
0
 73
3
 74
0
 75
0
 40
1.0
 41
10.0
 76
2
 10
54.0
 20
69.0
 10
59.0439827816769593
 20
58.9120344366460813
1001
ACAD
1000
DSTYLE
1002
{
1070
40
1040
1.0
1002
}
  0
LEADER
  5
1DF
100
AcDbEntity
  8
step_04
 62
256
370
-1
 48
1.0
  6
BYLAYER
100
AcDbLeader
  3
Standard
 71
1
 72
0
 73
3
 74
0
 75
0
 40
1.0
 41
10.0
 76
2
 10
67.0
 20
37.0
 10
73.035378011493691
 20
30.84456866938147
1001
ACAD
1000
DSTYLE
1002
{
1070
40
1040
1.0
1002
}
  0
HATCH
  5
1E0
100
AcDbEntity
  8
step_06
 62
256
370
-1
 48
1.0
  6
BYLAYER
100
AcDbHatch
 10
0.0
 20
0.0
 30
0.0
210
0.0
220
0.0
230
1.0
  2
SOLID
 70
1
 71
0
 91
1
 92
1
 93
4
 72
1
 10
43.4805883254459289
 20
42.3313037314743994
 11
41.3592679818862905
 21
44.4526240750340449
 72
1
 10
41.3592679818862905
 20
44.4526240750340449
 11
42.7734815442593828
 21
45.8668376374071372
 72
1
 10
42.7734815442593828
 20
45.8668376374071372
 11
44.8948018878190283
 21
43.7455172938474988
 72
1
 10
44.8948018878190283
 20
43.7455172938474988
 11
43.4805883254459289
 21
42.3313037314743994
 97
0
 75
0
 76
1
 98
0
1001
ACAD
1010
0.0
1020
0.0
1030
0
  0
HATCH
  5
1E1
100
AcDbEntity
  8
step_06
 62
256
370
-1
 48
1.0
  6
BYLAYER
100
AcDbHatch
 10
0.0
 20
0.0
 30
0.0
210
0.0
220
0.0
230
1.0
  2
SOLID
 70
1
 71
0
 91
1
 92
1
 93
4
 72
1
 10
17.7474730707936352
 20
80.0998723875291603
 11
15.6261527272339968
 21
82.2211927310887916
 72
1
 10
15.6261527272339968
 20
82.2211927310887916
 11
17.0403662896070891
 21
83.635406293461898
 72
1
 10
17.0403662896070891
 20
83.635406293461898
 11
19.1616866331667346
 21
81.5140859499022525
 72
1
 10
19.1616866331667346
 20
81.5140859499022525
 11
17.7474730707936352
 21
80.0998723875291603
 97
0
 75
0
 76
1
 98
0
1001
ACAD
1010
0.0
1020
0.0
1030
0
  0
HATCH
  5
1E2
100
AcDbEntity
  8
step_06
 62
256
370
-1
 48
1.0
  6
BYLAYER
100
AcDbHatch
 10
0.0
 20
0.0
 30
0.0
210
0.0
220
0.0
230
1.0
  2
SOLID
 70
1
 71
0
 91
1
 92
1
 93
4
 72
1
 10
41.327235816170699
 20
81.4639288231742142
 11
43.4485561597303303
 21
83.5852491667338597
 72
1
 10
43.4485561597303303
 20
83.5852491667338597
 11
44.8627697221034367
 21
82.1710356043607675
 72
1
 10
44.8627697221034367
 20
82.1710356043607675
 11
42.7414493785437912
 21
80.049715260801122
 72
1
 10
42.7414493785437912
 20
80.049715260801122
 11
41.327235816170699
 21
81.4639288231742142
 97
0
 75
0
 76
1
 98
0
1001
ACAD
1010
0.0
1020
0.0
1030
0
  0
HATCH
  5
1E3
100
AcDbEntity
  8
step_06
 62
256
370
-1
 48
1.0
  6
BYLAYER
100
AcDbHatch
 10
0.0
 20
0.0
 30
0.0
210
0.0
220
0.0
230
1.0
  2
SOLID
 70
1
 71
0
 91
1
 92
1
 93
4
 72
1
 10
15.6140497112190921
 20
43.7716859288105766
 11
17.7353700547787234
 21
45.8930062723702221
 72
1
 10
17.7353700547787234
 20
45.8930062723702221
 11
19.1495836171518299
 21
44.4787927099971299
 72
1
 10
19.1495836171518299
 20
44.4787927099971299
 11
17.0282632735921844
 21
42.3574723664374844
 72
1
 10
17.0282632735921844
 20
42.3574723664374844
 11
15.6140497112190921
 21
43.7716859288105766
 97
0
 75
0
 76
1
 98
0
1001
ACAD
1010
0.0
1020
0.0
1030
0
  0
INSERT
  5
1E4
100
AcDbEntity
  8
Framing
 62
256
370
-1
 48
1.0
  6
BYLAYER
100
AcDbBlockReference
  2
blk6_5
 10
45.25
 20
62.25
 30
0.0
  0
INSERT
  5
1E5
100
AcDbEntity
  8
Framing
 62
256
370
-1
 48
1.0
  6
BYLAYER
100
AcDbBlockReference
  2
blk6_5
 10
64.1831554074544641
 20
62.142886980847365
 30
0.0
  0
INSERT
  5
1E6
100
AcDbEntity
  8
Framing
 62
256
370
-1
 48
1.0
  6
BYLAYER
100
AcDbBlockReference
  2
blk6_5
 10
46.75
 20
62.25
 30
0.0
  0
IMAGE
  5
1E7
100
AcDbEntity
  8
step_04b
 62
256
370
-1
 48
1.0
  6
BYLAYER
100
AcDbRasterImage
 90
0
 10
64.1353588486565798
 20
60.8026849573416968
 30
0.0
 11
0.0
 21
0.1
 31
0.0
 12
-0.1
 22
0.0
 32
0.0
 13
5.0
 23
5.0
340
1E8
 70
15
280
0
281
50
282
50
283
0
  0
IMAGE
  5
1E9
100
AcDbEntity
  8
step_04b
 62
256
370
-1
 48
1.0
  6
BYLAYER
100
AcDbRasterImage
 90
0
 10
48.3328663957852811
 20
60.9193695627241922
 30
0.0
 11
0.0
 21
0.1
 31
0.0
 12
0.1
 22
-0.0
 32
0.0
 13
5.0
 23
5.0
340
1EA
 70
15
280
0
281
50
282
50
283
0
  0
MTEXT
  5
1EB
100
AcDbEntity
  8
step_04b
 62
256
370
-1
 48
1.0
  6
BYLAYER
100
AcDbMText
 10
62.0
 20
60.0
 30
0.0
 40
2.0
 41
0.0
 71
1
 72
1
  1
\fDejaVu Sans|b0|i0|c0|p0;\H1.5;x2
  7
textstyle30
 50
0.0
 73
2
 44
1.0
  0
MTEXT
  5
1EC
100
AcDbEntity
  8
step_04b
 62
256
370
-1
 48
1.0
  6
BYLAYER
100
AcDbMText
 10
47.0
 20
59.9999999999999929
 30
0.0
 40
2.0
 41
0.0
 71
1
 72
1
  1
\fDejaVu Sans|b0|i0|c0|p0;\H1.5;x2 into\Peach block
  7
textstyle31
 50
0.0
 73
2
 44
1.0
  0
HATCH
  5
1ED
100
AcDbEntity
  8
step_04b
 62
256
370
-1
 48
1.0
  6
BYLAYER
100
AcDbHatch
 10
0.0
 20
0.0
 30
0.0
210
0.0
220
0.0
230
1.0
  2
SOLID
 70
1
 71
0
 91
1
 92
1
 93
4
 72
1
 10
64.1831554074544641
 20
62.142886980847365
 11
65.6831554074544641
 21
62.142886980847365
 72
1
 10
65.6831554074544641
 20
62.142886980847365
 11
65.6831554074544641
 21
68.642886980847365
 72
1
 10
65.6831554074544641
 20
68.642886980847365
 11
64.1831554074544641
 21
68.642886980847365
 72
1
 10
64.1831554074544641
 20
68.642886980847365
 11
64.1831554074544641
 21
62.142886980847365
 97
0
 75
0
 76
1
 98
0
1001
ACAD
1010
0.0
1020
0.0
1030
0
  0
HATCH
  5
1EE
100
AcDbEntity
  8
step_04b
 62
256
370
-1
 48
1.0
  6
BYLAYER
100
AcDbHatch
 10
0.0
 20
0.0
 30
0.0
210
0.0
220
0.0
230
1.0
  2
SOLID
 70
1
 71
0
 91
1
 92
1
 93
4
 72
1
 10
46.75
 20
62.25
 11
48.25
 21
62.25
 72
1
 10
48.25
 20
62.25
 11
48.25
 21
68.75
 72
1
 10
48.25
 20
68.75
 11
46.75
 21
68.75
 72
1
 10
46.75
 20
68.75
 11
46.75
 21
62.25
 97
0
 75
0
 76
1
 98
0
1001
ACAD
1010
0.0
1020
0.0
1030
0
  0
HATCH
  5
1EF
100
AcDbEntity
  8
step_04b
 62
256
370
-1
 48
1.0
  6
BYLAYER
100
AcDbHatch
 10
0.0
 20
0.0
 30
0.0
210
0.0
220
0.0
230
1.0
  2
SOLID
 70
1
 71
0
 91
1
 92
1
 93
4
 72
1
 10
45.25
 20
62.25
 11
46.75
 21
62.25
 72
1
 10
46.75
 20
62.25
 11
46.75
 21
68.75
 72
1
 10
46.75
 20
68.75
 11
45.25
 21
68.75
 72
1
 10
45.25
 20
68.75
 11
45.25
 21
62.25
 97
0
 75
0
 76
1
 98
0
1001
ACAD
1010
0.0
1020
0.0
1030
0
  0
LINE
  5
1F0
100
AcDbEntity
  8
Framing
 62
256
370
-1
 48
1.0
  6
BYLAYER
100
AcDbLine
 10
45.25
 20
1.4999999999999858
 30
0.0
 11
45.25
 21
85.4999999999999858
 31
0.0
  0
LINE
  5
1F1
100
AcDbEntity
  8
Framing
 62
256
370
-1
 48
1.0
  6
BYLAYER
100
AcDbLine
 10
45.25
 20
84.0
 30
0.0
 11
45.25
 21
70.25
 31
0.0
  0
LINE
  5
1F2
100
AcDbEntity
  8
Framing
 62
256
370
-1
 48
1.0
  6
BYLAYER
100
AcDbLine
 10
45.25
 20
70.25
 30
0.0
 11
46.75
 21
70.25
 31
0.0
  0
LINE
  5
1F3
100
AcDbEntity
  8
Framing
 62
256
370
-1
 48
1.0
  6
BYLAYER
100
AcDbLine
 10
46.75
 20
70.25
 30
0.0
 11
46.75
 21
84.0
 31
0.0
  0
LINE
  5
1F4
100
AcDbEntity
  8
Framing
 62
256
370
-1
 48
1.0
  6
BYLAYER
100
AcDbLine
 10
46.75
 20
84.0
 30
0.0
 11
45.25
 21
84.0
 31
0.0
  0
LINE
  5
1F5
100
AcDbEntity
  8
Framing
 62
256
370
-1
 48
1.0
  6
BYLAYER
100
AcDbLine
 10
46.75
 20
70.25
 30
0.0
 11
65.75
 21
70.25
 31
0.0
  0
LINE
  5
1F6
100
AcDbEntity
  8
Framing
 62
256
370
-1
 48
1.0
  6
BYLAYER
100
AcDbLine
 10
46.75
 20
84.0
 30
0.0
 11
65.75
 21
84.0
 31
0.0
  0
LINE
  5
1F7
100
AcDbEntity
  8
Framing
 62
256
370
-1
 48
1.0
  6
BYLAYER
100
AcDbLine
 10
65.75
 20
70.25
 30
0.0
 11
65.75
 21
84.0
 31
0.0
  0
LINE
  5
1F8
100
AcDbEntity
  8
Framing
 62
256
370
-1
 48
1.0
  6
BYLAYER
100
AcDbLine
 10
45.25
 20
68.75
 30
0.0
 11
65.75
 21
68.75
 31
0.0
  0
LINE
  5
1F9
100
AcDbEntity
  8
Framing
 62
256
370
-1
 48
1.0
  6
BYLAYER
100
AcDbLine
 10
67.25
 20
1.4999999999999858
 30
0.0
 11
67.25
 21
85.4999999999999858
 31
0.0
  0
LINE
  5
1FA
100
AcDbEntity
  8
Framing
 62
256
370
-1
 48
1.0
  6
BYLAYER
100
AcDbLine
 10
45.25
 20
85.5
 30
0.0
 11
83.25
 21
85.5
 31
0.0
  0
LINE
  5
1FB
100
AcDbEntity
  8
Framing
 62
256
370
-1
 48
1.0
  6
BYLAYER
100
AcDbLine
 10
65.75
 20
70.25
 30
0.0
 11
65.75
 21
68.75
 31
0.0
  0
LINE
  5
1FC
100
AcDbEntity
  8
Framing
 62
256
370
-1
 48
1.0
  6
BYLAYER
100
AcDbLine
 10
65.75
 20
84.0
 30
0.0
 11
65.75
 21
85.5
 31
0.0
  0
LEADER
  5
1FD
100
AcDbEntity
  8
step_01
 62
256
370
-1
 48
1.0
  6
BYLAYER
100
AcDbLeader
  3
Standard
 71
1
 72
0
 73
3
 74
0
 75
0
 40
1.0
 41
10.0
 76
3
 10
26.5
 20
87.0
 10
31.0
 20
91.0
 10
48.0
 20
91.0
1001
ACAD
1000
DSTYLE
1002
{
1070
40
1040
1.0
1002
}
  0
ENDSEC
  0
SECTION
  2
OBJECTS
  0
DICTIONARY
  5
C
100
AcDbDictionary
280
0
281
1
  3
ACAD_GROUP
350
D
  3
ACAD_LAYOUT
350
1A
  3
ACAD_MLINESTYLE
350
17
  3
ACAD_PLOTSETTINGS
350
19
  3
ACAD_PLOTSTYLENAME
350
E
  3
AcDbVariableDictionary
350
1FE
  3
QCAD_OBJECTS
350
1FF
  0
DICTIONARY
  5
D
100
AcDbDictionary
280
0
281
1
  0
ACDBDICTIONARYWDFLT
  5
E
100
AcDbDictionary
281
1
  3
Normal
350
F
100
AcDbDictionaryWithDefault
340
F
  0
ACDBPLACEHOLDER
  5
F
  0
DICTIONARY
  5
17
100
AcDbDictionary
280
0
281
1
  3
Standard
350
18
  0
MLINESTYLE
  5
18
100
AcDbMlineStyle
  2
STANDARD
 70
0
  3

 62
256
 51
90.0
 52
90.0
 71
2
 49
0.5
 62
256
  6
BYLAYER
 49
-0.5
 62
256
  6
BYLAYER
  0
DICTIONARY
  5
19
100
AcDbDictionary
280
0
281
1
  0
DICTIONARY
  5
1A
100
AcDbDictionary
281
1
  3
Layout1
350
1E
  3
Layout2
350
26
  3
Model
350
22
  0
LAYOUT
  5
1E
100
AcDbPlotSettings
  1

  2
none_device
  4

  6

 40
0.0
 41
0.0
 42
0.0
 43
0.0
 44
0.0
 45
0.0
 46
0.0
 47
0.0
 48
0.0
 49
0.0
140
0.0
141
0.0
142
1.0
143
1.0
 70
688
 72
0
 73
0
 74
5
  7

 75
16
147
1.0
148
0.0
149
0.0
100
AcDbLayout
  1
Layout1
 70
1
 71
1
 10
0.0
 20
0.0
 11
420.0
 21
297.0
 12
0.0
 22
0.0
 32
0.0
 14
100000000000000000000.0
 24
100000000000000000000.0
 34
100000000000000000000.0
 15
-100000000000000000000.0
 25
-100000000000000000000.0
 35
-100000000000000000000.0
146
0.0
 13
0.0
 23
0.0
 33
0.0
 16
1.0
 26
0.0
 36
0.0
 17
0.0
 27
1.0
 37
0.0
 76
0
330
1B
  0
LAYOUT
  5
22
100
AcDbPlotSettings
  1

  2
none_device
  4

  6

 40
0.0
 41
0.0
 42
0.0
 43
0.0
 44
0.0
 45
0.0
 46
0.0
 47
0.0
 48
0.0
 49
0.0
140
0.0
141
0.0
142
1.0
143
1.0
 70
1712
 72
0
 73
0
 74
0
  7

 75
0
147
1.0
148
0.0
149
0.0
100
AcDbLayout
  1
Model
 70
1
 71
0
 10
0.0
 20
0.0
 11
12.0
 21
9.0
 12
0.0
 22
0.0
 32
0.0
 14
0.0
 24
0.0
 34
0.0
 15
0.0
 25
0.0
 35
0.0
146
0.0
 13
0.0
 23
0.0
 33
0.0
 16
1.0
 26
0.0
 36
0.0
 17
0.0
 27
1.0
 37
0.0
 76
0
330
1F
  0
LAYOUT
  5
26
100
AcDbPlotSettings
  1

  2
none_device
  4

  6

 40
0.0
 41
0.0
 42
0.0
 43
0.0
 44
0.0
 45
0.0
 46
0.0
 47
0.0
 48
0.0
 49
0.0
140
0.0
141
0.0
142
1.0
143
1.0
 70
688
 72
0
 73
0
 74
5
  7

 75
16
147
1.0
148
0.0
149
0.0
100
AcDbLayout
  1
Layout2
 70
1
 71
2
 10
0.0
 20
0.0
 11
12.0
 21
9.0
 12
0.0
 22
0.0
 32
0.0
 14
0.0
 24
0.0
 34
0.0
 15
0.0
 25
0.0
 35
0.0
146
0.0
 13
0.0
 23
0.0
 33
0.0
 16
1.0
 26
0.0
 36
0.0
 17
0.0
 27
1.0
 37
0.0
 76
0
330
23
  0
DICTIONARY
  5
1FE
100
AcDbDictionary
281
1
  3
DIMASSOC
350
201
  3
HIDETEXT
350
200
  0
DICTIONARYVAR
  5
200
100
DictionaryVariables
280
0
  1
2
  0
DICTIONARYVAR
  5
201
100
DictionaryVariables
280
0
  1
1
  0
DICTIONARY
  5
1FF
100
AcDbDictionary
281
1
  3
ColorSettings/BackgroundColor
350
202
  3
ColorSettings/ColorMode
350
203
  3
DimensionSettings/AngularFormat
350
204
  3
DimensionSettings/AngularPrecision
350
205
  3
DimensionSettings/DecimalPoint
350
206
  3
DimensionSettings/DimensionFont
350
207
  3
DimensionSettings/DimensionTextColor
350
208
  3
DimensionSettings/KeepProportions
350
209
  3
DimensionSettings/LinearFormat
350
20A
  3
DimensionSettings/LinearPrecision
350
20B
  3
Grid/DisplayGrid00
350
20C
  3
Grid/DisplayGrid01
350
20D
  3
Grid/DisplayGrid02
350
20E
  3
Grid/DisplayGrid03
350
20F
  3
Grid/GridSpacingX00
350
210
  3
Grid/GridSpacingX01
350
211
  3
Grid/GridSpacingX02
350
212
  3
Grid/GridSpacingX03
350
213
  3
Grid/GridSpacingY00
350
214
  3
Grid/GridSpacingY01
350
215
  3
Grid/GridSpacingY02
350
216
  3
Grid/GridSpacingY03
350
217
  3
Grid/IsometricGrid00
350
218
  3
Grid/IsometricGrid01
350
219
  3
Grid/IsometricGrid02
350
21A
  3
Grid/IsometricGrid03
350
21B
  3
Grid/IsometricProjection00
350
21C
  3
Grid/IsometricProjection01
350
21D
  3
Grid/IsometricProjection02
350
21E
  3
Grid/IsometricProjection03
350
21F
  3
Grid/MetaGridSpacingX00
350
220
  3
Grid/MetaGridSpacingX01
350
221
  3
Grid/MetaGridSpacingX02
350
222
  3
Grid/MetaGridSpacingX03
350
223
  3
Grid/MetaGridSpacingY00
350
224
  3
Grid/MetaGridSpacingY01
350
225
  3
Grid/MetaGridSpacingY02
350
226
  3
Grid/MetaGridSpacingY03
350
227
  3
LinetypeSettings/PSLTSCALE
350
228
  3
MultiPageSettings/Columns
350
229
  3
MultiPageSettings/GlueMarginsBottom
350
22A
  3
MultiPageSettings/GlueMarginsLeft
350
22B
  3
MultiPageSettings/GlueMarginsRight
350
22C
  3
MultiPageSettings/GlueMarginsTop
350
22D
  3
MultiPageSettings/PrintCropMarks
350
22E
  3
MultiPageSettings/Rows
350
22F
  3
PageSettings/OffsetX
350
230
  3
PageSettings/OffsetY
350
231
  3
PageSettings/PageOrientation
350
232
  3
PageSettings/PaperHeight
350
233
  3
PageSettings/PaperSizeAccepted
350
234
  3
PageSettings/PaperSizeName
350
235
  3
PageSettings/PaperWidth
350
236
  3
PageSettings/PointSize
350
237
  3
PageSettings/Scale
350
238
  3
PageSettings/ShowPaperBorders
350
239
  3
PageTagSettings/EnablePageTags
350
23A
  3
PageTagSettings/TagAlignment
350
23B
  3
PageTagSettings/TagFont
350
23C
  3
PageTagSettings/TagPosition
350
23D
  3
QCADVersion
350
23E
  3
UnitSettings/Measurement
350
23F
  3
UnitSettings/PaperUnit
350
240
  3
ViewportCenter
350
241
  3
ViewportHeight
350
242
  3
ViewportWidth
350
243
  0
XRECORD
  5
202
330
1FF
100
AcDbXrecord
280
1
1000
White
  0
XRECORD
  5
203
330
1FF
100
AcDbXrecord
280
1
1000
FullColor
  0
XRECORD
  5
204
330
1FF
100
AcDbXrecord
280
1
 90
0
  0
XRECORD
  5
205
330
1FF
100
AcDbXrecord
280
1
 90
0
  0
XRECORD
  5
206
330
1FF
100
AcDbXrecord
280
1
 90
46
  0
XRECORD
  5
207
330
1FF
100
AcDbXrecord
280
1
1000
DejaVu Sans
  0
XRECORD
  5
208
330
1FF
100
AcDbXrecord
280
1
1000
By Layer
  0
XRECORD
  5
209
330
1FF
100
AcDbXrecord
280
1
290
0
  0
XRECORD
  5
20A
330
1FF
100
AcDbXrecord
280
1
 90
2
  0
XRECORD
  5
20B
330
1FF
100
AcDbXrecord
280
1
 90
4
  0
XRECORD
  5
20C
330
1FF
100
AcDbXrecord
280
1
290
1
  0
XRECORD
  5
20D
330
1FF
100
AcDbXrecord
280
1
290
1
  0
XRECORD
  5
20E
330
1FF
100
AcDbXrecord
280
1
290
1
  0
XRECORD
  5
20F
330
1FF
100
AcDbXrecord
280
1
290
1
  0
XRECORD
  5
210
330
1FF
100
AcDbXrecord
280
1
1000
auto
  0
XRECORD
  5
211
330
1FF
100
AcDbXrecord
280
1
1000
auto
  0
XRECORD
  5
212
330
1FF
100
AcDbXrecord
280
1
1000
auto
  0
XRECORD
  5
213
330
1FF
100
AcDbXrecord
280
1
1000
auto
  0
XRECORD
  5
214
330
1FF
100
AcDbXrecord
280
1
1000
auto
  0
XRECORD
  5
215
330
1FF
100
AcDbXrecord
280
1
1000
auto
  0
XRECORD
  5
216
330
1FF
100
AcDbXrecord
280
1
1000
auto
  0
XRECORD
  5
217
330
1FF
100
AcDbXrecord
280
1
1000
auto
  0
XRECORD
  5
218
330
1FF
100
AcDbXrecord
280
1
290
0
  0
XRECORD
  5
219
330
1FF
100
AcDbXrecord
280
1
290
0
  0
XRECORD
  5
21A
330
1FF
100
AcDbXrecord
280
1
290
0
  0
XRECORD
  5
21B
330
1FF
100
AcDbXrecord
280
1
290
0
  0
XRECORD
  5
21C
330
1FF
100
AcDbXrecord
280
1
 90
65537
  0
XRECORD
  5
21D
330
1FF
100
AcDbXrecord
280
1
 90
65537
  0
XRECORD
  5
21E
330
1FF
100
AcDbXrecord
280
1
 90
65537
  0
XRECORD
  5
21F
330
1FF
100
AcDbXrecord
280
1
 90
65537
  0
XRECORD
  5
220
330
1FF
100
AcDbXrecord
280
1
1000
auto
  0
XRECORD
  5
221
330
1FF
100
AcDbXrecord
280
1
1000
auto
  0
XRECORD
  5
222
330
1FF
100
AcDbXrecord
280
1
1000
auto
  0
XRECORD
  5
223
330
1FF
100
AcDbXrecord
280
1
1000
auto
  0
XRECORD
  5
224
330
1FF
100
AcDbXrecord
280
1
1000
auto
  0
XRECORD
  5
225
330
1FF
100
AcDbXrecord
280
1
1000
auto
  0
XRECORD
  5
226
330
1FF
100
AcDbXrecord
280
1
1000
auto
  0
XRECORD
  5
227
330
1FF
100
AcDbXrecord
280
1
1000
auto
  0
XRECORD
  5
228
330
1FF
100
AcDbXrecord
280
1
290
0
  0
XRECORD
  5
229
330
1FF
100
AcDbXrecord
280
1
 90
1
  0
XRECORD
  5
22A
330
1FF
100
AcDbXrecord
280
1
 40
0.0
  0
XRECORD
  5
22B
330
1FF
100
AcDbXrecord
280
1
 40
0.0
  0
XRECORD
  5
22C
330
1FF
100
AcDbXrecord
280
1
 40
0.0
  0
XRECORD
  5
22D
330
1FF
100
AcDbXrecord
280
1
 40
0.0
  0
XRECORD
  5
22E
330
1FF
100
AcDbXrecord
280
1
290
0
  0
XRECORD
  5
22F
330
1FF
100
AcDbXrecord
280
1
 90
1
  0
XRECORD
  5
230
330
1FF
100
AcDbXrecord
280
1
 40
-10.5448420143505075
  0
XRECORD
  5
231
330
1FF
100
AcDbXrecord
280
1
 40
-32.8382593114647321
  0
XRECORD
  5
232
330
1FF
100
AcDbXrecord
280
1
1000
Portrait
  0
XRECORD
  5
233
330
1FF
100
AcDbXrecord
280
1
1000
9
  0
XRECORD
  5
234
330
1FF
100
AcDbXrecord
280
1
290
1
  0
XRECORD
  5
235
330
1FF
100
AcDbXrecord
280
1
1000
Custom
  0
XRECORD
  5
236
330
1FF
100
AcDbXrecord
280
1
1000
6.5
  0
XRECORD
  5
237
330
1FF
100
AcDbXrecord
280
1
1000
0.5
  0
XRECORD
  5
238
330
1FF
100
AcDbXrecord
280
1
1000
0.06
  0
XRECORD
  5
239
330
1FF
100
AcDbXrecord
280
1
290
1
  0
XRECORD
  5
23A
330
1FF
100
AcDbXrecord
280
1
290
0
  0
XRECORD
  5
23B
330
1FF
100
AcDbXrecord
280
1
1000
Inside
  0
XRECORD
  5
23C
330
1FF
100
AcDbXrecord
280
1
1000
Arial,10,-1,5,50,0,0,0,0,0
  0
XRECORD
  5
23D
330
1FF
100
AcDbXrecord
280
1
1000
TopLeft
  0
XRECORD
  5
23E
330
1FF
100
AcDbXrecord
280
1
1000
3.32.6
  0
XRECORD
  5
23F
330
1FF
100
AcDbXrecord
280
1
 90
1
  0
XRECORD
  5
240
330
1FF
100
AcDbXrecord
280
1
 90
1
  0
XRECORD
  5
242
330
1FF
100
AcDbXrecord
280
1
 40
162.503327190443315
  0
XRECORD
  5
243
330
1FF
100
AcDbXrecord
280
1
 40
140.3554886193210791
  0
IMAGEDEF
  5
A1
100
AcDbRasterImageDef
 90
0
  1
../../common/clipart/NailGun.png
 10
14.0
 20
14.0
 11
1.0
 21
1.0
280
1
281
0
  0
IMAGEDEF
  5
107
100
AcDbRasterImageDef
 90
0
  1
../../common/clipart/NailGun.png
 10
11.0
 20
11.0
 11
1.0
 21
1.0
280
1
281
0
  0
IMAGEDEF
  5
109
100
AcDbRasterImageDef
 90
0
  1
../../common/clipart/NailGun.png
 10
11.0
 20
11.0
 11
1.0
 21
1.0
280
1
281
0
  0
IMAGEDEF
  5
10B
100
AcDbRasterImageDef
 90
0
  1
../../common/clipart/NailGun.png
 10
11.0
 20
11.0
 11
1.0
 21
1.0
280
1
281
0
  0
IMAGEDEF
  5
10D
100
AcDbRasterImageDef
 90
0
  1
../../common/clipart/NailGun.png
 10
11.0
 20
11.0
 11
1.0
 21
1.0
280
1
281
0
  0
IMAGEDEF
  5
10F
100
AcDbRasterImageDef
 90
0
  1
../../common/clipart/NailGun.png
 10
11.0
 20
11.0
 11
1.0
 21
1.0
280
1
281
0
  0
IMAGEDEF
  5
111
100
AcDbRasterImageDef
 90
0
  1
../../common/clipart/NailGun.png
 10
11.0
 20
11.0
 11
1.0
 21
1.0
280
1
281
0
  0
IMAGEDEF
  5
113
100
AcDbRasterImageDef
 90
0
  1
../../common/clipart/NailGun.png
 10
11.0
 20
11.0
 11
1.0
 21
1.0
280
1
281
0
  0
IMAGEDEF
  5
115
100
AcDbRasterImageDef
 90
0
  1
../../common/clipart/NailGun.png
 10
11.0
 20
11.0
 11
1.0
 21
1.0
280
1
281
0
  0
IMAGEDEF
  5
117
100
AcDbRasterImageDef
 90
0
  1
../../common/clipart/NailGun.png
 10
11.0
 20
11.0
 11
1.0
 21
1.0
280
1
281
0
  0
IMAGEDEF
  5
119
100
AcDbRasterImageDef
 90
0
  1
../../common/clipart/NailGun.png
 10
6.0
 20
6.0
 11
1.0
 21
1.0
280
1
281
0
  0
IMAGEDEF
  5
11B
100
AcDbRasterImageDef
 90
0
  1
../../common/clipart/NailGun.png
 10
6.0
 20
6.0
 11
1.0
 21
1.0
280
1
281
0
  0
IMAGEDEF
  5
11D
100
AcDbRasterImageDef
 90
0
  1
../../common/clipart/NailGun.png
 10
6.0
 20
6.0
 11
1.0
 21
1.0
280
1
281
0
  0
IMAGEDEF
  5
11F
100
AcDbRasterImageDef
 90
0
  1
../../common/clipart/NailGun.png
 10
6.0
 20
6.0
 11
1.0
 21
1.0
280
1
281
0
  0
IMAGEDEF
  5
121
100
AcDbRasterImageDef
 90
0
  1
../../common/clipart/NailGun.png
 10
6.0
 20
6.0
 11
1.0
 21
1.0
280
1
281
0
  0
IMAGEDEF
  5
123
100
AcDbRasterImageDef
 90
0
  1
../../common/clipart/NailGun.png
 10
6.0
 20
6.0
 11
1.0
 21
1.0
280
1
281
0
  0
IMAGEDEF
  5
125
100
AcDbRasterImageDef
 90
0
  1
../../common/clipart/NailGun.png
 10
11.0
 20
11.0
 11
1.0
 21
1.0
280
1
281
0
  0
IMAGEDEF
  5
127
100
AcDbRasterImageDef
 90
0
  1
../../common/clipart/NailGun.png
 10
11.0
 20
11.0
 11
1.0
 21
1.0
280
1
281
0
  0
IMAGEDEF
  5
129
100
AcDbRasterImageDef
 90
0
  1
../../common/clipart/NailGun.png
 10
11.0
 20
11.0
 11
1.0
 21
1.0
280
1
281
0
  0
IMAGEDEF
  5
12B
100
AcDbRasterImageDef
 90
0
  1
../../common/clipart/NailGun.png
 10
11.0
 20
11.0
 11
1.0
 21
1.0
280
1
281
0
  0
IMAGEDEF
  5
147
100
AcDbRasterImageDef
 90
0
  1
../../common/clipart/NailGun.png
 10
11.0
 20
11.0
 11
1.0
 21
1.0
280
1
281
0
  0
IMAGEDEF
  5
149
100
AcDbRasterImageDef
 90
0
  1
../../common/clipart/NailGun.png
 10
11.0
 20
11.0
 11
1.0
 21
1.0
280
1
281
0
  0
IMAGEDEF
  5
14B
100
AcDbRasterImageDef
 90
0
  1
../../common/clipart/NailGun.png
 10
11.0
 20
11.0
 11
1.0
 21
1.0
280
1
281
0
  0
IMAGEDEF
  5
14D
100
AcDbRasterImageDef
 90
0
  1
../../common/clipart/NailGun.png
 10
8.0
 20
8.0
 11
1.0
 21
1.0
280
1
281
0
  0
IMAGEDEF
  5
14F
100
AcDbRasterImageDef
 90
0
  1
../../common/clipart/NailGun.png
 10
8.0
 20
8.0
 11
1.0
 21
1.0
280
1
281
0
  0
IMAGEDEF
  5
151
100
AcDbRasterImageDef
 90
0
  1
../../common/clipart/NailGun.png
 10
8.0
 20
8.0
 11
1.0
 21
1.0
280
1
281
0
  0
IMAGEDEF
  5
1CD
100
AcDbRasterImageDef
 90
0
  1
../../common/clipart/NailGun.png
 10
4.0
 20
3.0
 11
1.0
 21
1.0
280
1
281
0
  0
IMAGEDEF
  5
1CF
100
AcDbRasterImageDef
 90
0
  1
../../common/clipart/NailGun.png
 10
4.0
 20
3.0
 11
1.0
 21
1.0
280
1
281
0
  0
IMAGEDEF
  5
1D1
100
AcDbRasterImageDef
 90
0
  1
../../common/clipart/NailGun.png
 10
4.0
 20
3.0
 11
1.0
 21
1.0
280
1
281
0
  0
IMAGEDEF
  5
1D3
100
AcDbRasterImageDef
 90
0
  1
../../common/clipart/NailGun.png
 10
4.0
 20
3.0
 11
1.0
 21
1.0
280
1
281
0
  0
IMAGEDEF
  5
1E8
100
AcDbRasterImageDef
 90
0
  1
../../common/clipart/NailGun.png
 10
5.0
 20
5.0
 11
1.0
 21
1.0
280
1
281
0
  0
IMAGEDEF
  5
1EA
100
AcDbRasterImageDef
 90
0
  1
../../common/clipart/NailGun.png
 10
5.0
 20
5.0
 11
1.0
 21
1.0
280
1
281
0
  0
ENDSEC
  0
EOF
