999
dxflib 3.26.4.0
  0
SECTION
  2
HEADER
  9
$ACADVER
  1
AC1015
  9
$HANDSEED
  5
FFFF
  9
$DIMADEC
 70
0
  9
$DIMASZ
 40
2.0
  9
$DIMATFIT
 70
0
  9
$DIMAUNIT
 70
0
  9
$DIMAZIN
 70
2
  9
$DIMBLK
  1
0
  9
$DIMBLK1
  1
0
  9
$DIMBLK2
  1
0
  9
$DIMDEC
 70
4
  9
$DIMDLI
 40
0.25
  9
$DIMDSEP
 70
46
  9
$DIMEXE
 40
0.0625
  9
$DIMEXO
 40
0.03125
  9
$DIMGAP
 40
0.03125
  9
$DIMLFAC
 40
0.0
  9
$DIMLUNIT
 70
3
  9
$DIMSCALE
 40
1.0
  9
$DIMTAD
 70
1
  9
$DIMTIH
 70
0
  9
$DIMTSZ
 40
0.0
  9
$DIMTXT
 40
0.125
  9
$DIMZIN
 70
8
  9
$DWGCODEPAGE
  3
ANSI_1252
  9
$INSUNITS
 70
1
  9
$LTSCALE
 40
1.0
  9
$MAXACTVP
 70
64
  9
$MEASUREMENT
 70
0
  9
$MIRRTEXT
 70
0
  9
$PDMODE
 70
0
  9
$PDSIZE
 40
0.0
  0
ENDSEC
  0
SECTION
  2
TABLES
  0
TABLE
  2
VPORT
  5
8
100
AcDbSymbolTable
 70
1
  0
VPORT
  5
30
100
AcDbSymbolTableRecord
100
AcDbViewportTableRecord
  2
*Active
 70
0
 10
0.0
 20
0.0
 11
1.0
 21
1.0
 12
286.3055555555554861
 22
148.5
 13
0.0
 23
0.0
 14
10.0
 24
10.0
 15
10.0
 25
10.0
 16
0.0
 26
0.0
 36
1.0
 17
0.0
 27
0.0
 37
0.0
 40
297.0
 41
1.92798353909465
 42
50.0
 43
0.0
 44
0.0
 50
0.0
 51
0.0
 71
0
 72
100
 73
1
 74
3
 75
1
 76
1
 77
0
 78
0
281
0
 65
1
110
0.0
120
0.0
130
0.0
111
1.0
121
0.0
131
0.0
112
0.0
122
1.0
132
0.0
 79
0
146
0.0
  0
ENDTAB
  0
TABLE
  2
LTYPE
  5
5
100
AcDbSymbolTable
 70
41
  0
LTYPE
  5
16
100
AcDbSymbolTableRecord
100
AcDbLinetypeTableRecord
  2
Continuous
 70
0
  3
Solid line
 72
65
 73
0
 40
0.0
  0
LTYPE
  5
31
100
AcDbSymbolTableRecord
100
AcDbLinetypeTableRecord
  2
ACAD_ISO09W100
 70
0
  3
ISO long-dash double-short-dash ____ __ __ ____
 72
65
 73
6
 40
45.0
 49
24.0
 74
0
 49
-3.0
 74
0
 49
6.0
 74
0
 49
-3.0
 74
0
 49
6.0
 74
0
 49
-3.0
 74
0
  0
LTYPE
  5
32
100
AcDbSymbolTableRecord
100
AcDbLinetypeTableRecord
  2
PHANTOM2
 70
0
  3
Phantom (.5x) ___ _ _ ___ _ _ ___ _ _ ___ _ _
 72
65
 73
6
 40
31.7500000000000036
 49
15.875
 74
0
 49
-3.1749999999999998
 74
0
 49
3.1749999999999998
 74
0
 49
-3.1749999999999998
 74
0
 49
3.1749999999999998
 74
0
 49
-3.1749999999999998
 74
0
  0
LTYPE
  5
33
100
AcDbSymbolTableRecord
100
AcDbLinetypeTableRecord
  2
ACAD_ISO02W100
 70
0
  3
ISO dash __ __ __ __ __ __ __ __ __ __ __ __ __
 72
65
 73
2
 40
15.0
 49
12.0
 74
0
 49
-3.0
 74
0
  0
LTYPE
  5
34
100
AcDbSymbolTableRecord
100
AcDbLinetypeTableRecord
  2
ACAD_ISO06W100
 70
0
  3
ISO long-dash triple-dot ____ ... ____ ... ____
 72
65
 73
8
 40
36.0000000000000071
 49
24.0
 74
0
 49
-2.9500000000000002
 74
0
 49
0.1
 74
0
 49
-2.9000000000000004
 74
0
 49
0.1
 74
0
 49
-2.9000000000000004
 74
0
 49
0.1
 74
0
 49
-2.9500000000000002
 74
0
  0
LTYPE
  5
35
100
AcDbSymbolTableRecord
100
AcDbLinetypeTableRecord
  2
CENTER
 70
0
  3
Center ____ _ ____ _ ____ _ ____ _ ____ _ ____
 72
65
 73
4
 40
50.8000000000000043
 49
31.75
 74
0
 49
-6.3499999999999996
 74
0
 49
6.3499999999999996
 74
0
 49
-6.3499999999999996
 74
0
  0
LTYPE
  5
36
100
AcDbSymbolTableRecord
100
AcDbLinetypeTableRecord
  2
BORDER
 70
0
  3
Border __ __ . __ __ . __ __ . __ __ . __ __ .
 72
65
 73
6
 40
44.4499999999999957
 49
12.6999999999999993
 74
0
 49
-6.3499999999999996
 74
0
 49
12.6999999999999993
 74
0
 49
-6.2999999999999998
 74
0
 49
0.1
 74
0
 49
-6.2999999999999998
 74
0
  0
LTYPE
  5
37
100
AcDbSymbolTableRecord
100
AcDbLinetypeTableRecord
  2
HIDDEN
 70
0
  3
Hidden __ __ __ __ __ __ __ __ __ __ __ __ __ __
 72
65
 73
2
 40
9.5249999999999986
 49
6.3499999999999996
 74
0
 49
-3.1749999999999998
 74
0
  0
LTYPE
  5
38
100
AcDbSymbolTableRecord
100
AcDbLinetypeTableRecord
  2
ACAD_ISO07W100
 70
0
  3
ISO dot . . . . . . . . . . . . . . . . . . . . 
 72
65
 73
2
 40
3.0
 49
0.1
 74
0
 49
-2.8999999999999999
 74
0
  0
LTYPE
  5
39
100
AcDbSymbolTableRecord
100
AcDbLinetypeTableRecord
  2
DIVIDE2
 70
0
  3
Divide (.5x) __..__..__..__..__..__..__..__.._
 72
65
 73
6
 40
15.8749999999999982
 49
6.3499999999999996
 74
0
 49
-3.125
 74
0
 49
0.1
 74
0
 49
-3.0750000000000002
 74
0
 49
0.1
 74
0
 49
-3.125
 74
0
  0
LTYPE
  5
3A
100
AcDbSymbolTableRecord
100
AcDbLinetypeTableRecord
  2
DOTX2
 70
0
  3
Dot (2x) .  .  .  .  .  .  .  .  .  .  .  .  .  .
 72
65
 73
2
 40
12.6999999999999993
 49
0.1
 74
0
 49
-12.5999999999999996
 74
0
  0
LTYPE
  5
3B
100
AcDbSymbolTableRecord
100
AcDbLinetypeTableRecord
  2
ACAD_ISO11W100
 70
0
  3
ISO double-dash dot __ __ . __ __ . __ __ . __ _
 72
65
 73
6
 40
33.0
 49
12.0
 74
0
 49
-3.0
 74
0
 49
12.0
 74
0
 49
-2.9500000000000002
 74
0
 49
0.1
 74
0
 49
-2.9500000000000002
 74
0
  0
LTYPE
  5
3C
100
AcDbSymbolTableRecord
100
AcDbLinetypeTableRecord
  2
ACAD_ISO14W100
 70
0
  3
ISO dash triple-dot __ . . . __ . . . __ . . . _
 72
65
 73
8
 40
24.0000000000000036
 49
12.0
 74
0
 49
-2.9500000000000002
 74
0
 49
0.1
 74
0
 49
-2.9000000000000004
 74
0
 49
0.1
 74
0
 49
-2.9000000000000004
 74
0
 49
0.1
 74
0
 49
-2.9500000000000002
 74
0
  0
LTYPE
  5
3D
100
AcDbSymbolTableRecord
100
AcDbLinetypeTableRecord
  2
CENTER2
 70
0
  3
Center (.5x) ___ _ ___ _ ___ _ ___ _ ___ _ ___
 72
65
 73
4
 40
28.5750000000000028
 49
19.0500000000000007
 74
0
 49
-3.1749999999999998
 74
0
 49
3.1749999999999998
 74
0
 49
-3.1749999999999998
 74
0
  0
LTYPE
  5
3E
100
AcDbSymbolTableRecord
100
AcDbLinetypeTableRecord
  2
DASHED2
 70
0
  3
Dashed (.5x) _ _ _ _ _ _ _ _ _ _ _ _ _ _ _ _ _ 
 72
65
 73
2
 40
9.5249999999999986
 49
6.3499999999999996
 74
0
 49
-3.1749999999999998
 74
0
  0
LTYPE
  5
3F
100
AcDbSymbolTableRecord
100
AcDbLinetypeTableRecord
  2
DASHDOT
 70
0
  3
Dash dot __ . __ . __ . __ . __ . __ . __ . __
 72
65
 73
4
 40
25.4000000000000021
 49
12.6999999999999993
 74
0
 49
-6.2999999999999998
 74
0
 49
0.1
 74
0
 49
-6.2999999999999998
 74
0
  0
LTYPE
  5
40
100
AcDbSymbolTableRecord
100
AcDbLinetypeTableRecord
  2
DASHDOTX2
 70
0
  3
Dash dot (2x) ____  .  ____  .  ____  .  ___
 72
65
 73
4
 40
50.7999999999999972
 49
25.3999999999999986
 74
0
 49
-12.6499999999999986
 74
0
 49
0.1
 74
0
 49
-12.6499999999999986
 74
0
  0
LTYPE
  5
14
100
AcDbSymbolTableRecord
100
AcDbLinetypeTableRecord
  2
BYBLOCK
 70
0
  3

 72
65
 73
0
 40
0.0
  0
LTYPE
  5
41
100
AcDbSymbolTableRecord
100
AcDbLinetypeTableRecord
  2
ACAD_ISO15W100
 70
0
  3
ISO double-dash triple-dot __ __ . . . __ __ . .
 72
65
 73
10
 40
39.0000000000000071
 49
12.0
 74
0
 49
-3.0
 74
0
 49
12.0
 74
0
 49
-2.9500000000000002
 74
0
 49
0.1
 74
0
 49
-2.9000000000000004
 74
0
 49
0.1
 74
0
 49
-2.9000000000000004
 74
0
 49
0.1
 74
0
 49
-2.9500000000000002
 74
0
  0
LTYPE
  5
42
100
AcDbSymbolTableRecord
100
AcDbLinetypeTableRecord
  2
ACAD_ISO12W100
 70
0
  3
ISO dash double-dot __ . . __ . . __ . . __ . . 
 72
65
 73
6
 40
21.0
 49
12.0
 74
0
 49
-2.9500000000000002
 74
0
 49
0.1
 74
0
 49
-2.9000000000000004
 74
0
 49
0.1
 74
0
 49
-2.9500000000000002
 74
0
  0
LTYPE
  5
43
100
AcDbSymbolTableRecord
100
AcDbLinetypeTableRecord
  2
DOT2
 70
0
  3
Dot (.5x) ........................................
 72
65
 73
2
 40
3.1749999999999998
 49
0.1
 74
0
 49
-3.0749999999999997
 74
0
  0
LTYPE
  5
44
100
AcDbSymbolTableRecord
100
AcDbLinetypeTableRecord
  2
ACAD_ISO13W100
 70
0
  3
ISO double-dash double-dot __ __ . . __ __ . . _
 72
65
 73
8
 40
36.0000000000000071
 49
12.0
 74
0
 49
-3.0
 74
0
 49
12.0
 74
0
 49
-2.9500000000000002
 74
0
 49
0.1
 74
0
 49
-2.9000000000000004
 74
0
 49
0.1
 74
0
 49
-2.9500000000000002
 74
0
  0
LTYPE
  5
45
100
AcDbSymbolTableRecord
100
AcDbLinetypeTableRecord
  2
BORDER2
 70
0
  3
Border (.5x) __.__.__.__.__.__.__.__.__.__.__.
 72
65
 73
6
 40
22.2250000000000014
 49
6.3499999999999996
 74
0
 49
-3.1749999999999998
 74
0
 49
6.3499999999999996
 74
0
 49
-3.125
 74
0
 49
0.1
 74
0
 49
-3.125
 74
0
  0
LTYPE
  5
15
100
AcDbSymbolTableRecord
100
AcDbLinetypeTableRecord
  2
BYLAYER
 70
0
  3

 72
65
 73
0
 40
0.0
  0
LTYPE
  5
46
100
AcDbSymbolTableRecord
100
AcDbLinetypeTableRecord
  2
ACAD_ISO04W100
 70
0
  3
ISO long-dash dot ____ . ____ . ____ . ____ . _
 72
65
 73
4
 40
30.0
 49
24.0
 74
0
 49
-2.9500000000000002
 74
0
 49
0.1
 74
0
 49
-2.9500000000000002
 74
0
  0
LTYPE
  5
47
100
AcDbSymbolTableRecord
100
AcDbLinetypeTableRecord
  2
ACAD_ISO08W100
 70
0
  3
ISO long-dash short-dash ____ __ ____ __ ____ _
 72
65
 73
4
 40
36.0
 49
24.0
 74
0
 49
-3.0
 74
0
 49
6.0
 74
0
 49
-3.0
 74
0
  0
LTYPE
  5
48
100
AcDbSymbolTableRecord
100
AcDbLinetypeTableRecord
  2
DASHDOT2
 70
0
  3
Dash dot (.5x) _._._._._._._._._._._._._._._.
 72
65
 73
4
 40
12.6999999999999993
 49
6.3499999999999996
 74
0
 49
-3.125
 74
0
 49
0.1
 74
0
 49
-3.125
 74
0
  0
LTYPE
  5
49
100
AcDbSymbolTableRecord
100
AcDbLinetypeTableRecord
  2
DASHEDX2
 70
0
  3
Dashed (2x) ____  ____  ____  ____  ____  ___
 72
65
 73
2
 40
38.0999999999999943
 49
25.3999999999999986
 74
0
 49
-12.6999999999999993
 74
0
  0
LTYPE
  5
4A
100
AcDbSymbolTableRecord
100
AcDbLinetypeTableRecord
  2
PHANTOM
 70
0
  3
Phantom ______  __  __  ______  __  __  ______ 
 72
65
 73
6
 40
63.5000000000000071
 49
31.75
 74
0
 49
-6.3499999999999996
 74
0
 49
6.3499999999999996
 74
0
 49
-6.3499999999999996
 74
0
 49
6.3499999999999996
 74
0
 49
-6.3499999999999996
 74
0
  0
LTYPE
  5
4B
100
AcDbSymbolTableRecord
100
AcDbLinetypeTableRecord
  2
DIVIDEX2
 70
0
  3
Divide (2x) ________  .  .  ________  .  .  _
 72
65
 73
6
 40
63.5
 49
25.3999999999999986
 74
0
 49
-12.6499999999999986
 74
0
 49
0.1
 74
0
 49
-12.5999999999999979
 74
0
 49
0.1
 74
0
 49
-12.6499999999999986
 74
0
  0
LTYPE
  5
4C
100
AcDbSymbolTableRecord
100
AcDbLinetypeTableRecord
  2
HIDDEN2
 70
0
  3
Hidden (.5x) _ _ _ _ _ _ _ _ _ _ _ _ _ _ _ _ _ 
 72
65
 73
2
 40
4.7624999999999993
 49
3.1749999999999998
 74
0
 49
-1.5874999999999999
 74
0
  0
LTYPE
  5
4D
100
AcDbSymbolTableRecord
100
AcDbLinetypeTableRecord
  2
DOT
 70
0
  3
Dot . . . . . . . . . . . . . . . . . . . . . . . .
 72
65
 73
2
 40
6.3499999999999996
 49
0.1
 74
0
 49
-6.25
 74
0
  0
LTYPE
  5
4E
100
AcDbSymbolTableRecord
100
AcDbLinetypeTableRecord
  2
PHANTOMX2
 70
0
  3
Phantom (2x) ____________    ____    ____   _
 72
65
 73
6
 40
127.0000000000000142
 49
63.5
 74
0
 49
-12.6999999999999993
 74
0
 49
12.6999999999999993
 74
0
 49
-12.6999999999999993
 74
0
 49
12.6999999999999993
 74
0
 49
-12.6999999999999993
 74
0
  0
LTYPE
  5
4F
100
AcDbSymbolTableRecord
100
AcDbLinetypeTableRecord
  2
DIVIDE
 70
0
  3
Divide ____ . . ____ . . ____ . . ____ . . ____
 72
65
 73
6
 40
31.7500000000000036
 49
12.6999999999999993
 74
0
 49
-6.2999999999999998
 74
0
 49
0.1
 74
0
 49
-6.25
 74
0
 49
0.1
 74
0
 49
-6.2999999999999998
 74
0
  0
LTYPE
  5
50
100
AcDbSymbolTableRecord
100
AcDbLinetypeTableRecord
  2
ACAD_ISO05W100
 70
0
  3
ISO long-dash double-dot ____ .. ____ .. ____ . 
 72
65
 73
6
 40
33.0000000000000071
 49
24.0
 74
0
 49
-2.9500000000000002
 74
0
 49
0.1
 74
0
 49
-2.9000000000000004
 74
0
 49
0.1
 74
0
 49
-2.9500000000000002
 74
0
  0
LTYPE
  5
51
100
AcDbSymbolTableRecord
100
AcDbLinetypeTableRecord
  2
HIDDENX2
 70
0
  3
Hidden (2x) ____ ____ ____ ____ ____ ____ ____ 
 72
65
 73
2
 40
19.0499999999999972
 49
12.6999999999999993
 74
0
 49
-6.3499999999999996
 74
0
  0
LTYPE
  5
52
100
AcDbSymbolTableRecord
100
AcDbLinetypeTableRecord
  2
ACAD_ISO03W100
 70
0
  3
ISO dash space __    __    __    __    __    __
 72
65
 73
2
 40
30.0
 49
12.0
 74
0
 49
-18.0
 74
0
  0
LTYPE
  5
53
100
AcDbSymbolTableRecord
100
AcDbLinetypeTableRecord
  2
ACAD_ISO10W100
 70
0
  3
ISO dash dot __ . __ . __ . __ . __ . __ . __ . 
 72
65
 73
4
 40
18.0
 49
12.0
 74
0
 49
-2.9500000000000002
 74
0
 49
0.1
 74
0
 49
-2.9500000000000002
 74
0
  0
LTYPE
  5
54
100
AcDbSymbolTableRecord
100
AcDbLinetypeTableRecord
  2
CENTERX2
 70
0
  3
Center (2x) ________  __  ________  __  _____
 72
65
 73
4
 40
101.6000000000000085
 49
63.5
 74
0
 49
-12.6999999999999993
 74
0
 49
12.6999999999999993
 74
0
 49
-12.6999999999999993
 74
0
  0
LTYPE
  5
55
100
AcDbSymbolTableRecord
100
AcDbLinetypeTableRecord
  2
DASHED
 70
0
  3
Dashed __ __ __ __ __ __ __ __ __ __ __ __ __ _
 72
65
 73
2
 40
19.0499999999999972
 49
12.6999999999999993
 74
0
 49
-6.3499999999999996
 74
0
  0
LTYPE
  5
56
100
AcDbSymbolTableRecord
100
AcDbLinetypeTableRecord
  2
BORDERX2
 70
0
  3
Border (2x) ____  ____  .  ____  ____  .  ___
 72
65
 73
6
 40
88.8999999999999773
 49
25.3999999999999986
 74
0
 49
-12.6999999999999993
 74
0
 49
25.3999999999999986
 74
0
 49
-12.6499999999999986
 74
0
 49
0.1
 74
0
 49
-12.6499999999999986
 74
0
  0
ENDTAB
  0
TABLE
  2
LAYER
  5
2
100
AcDbSymbolTable
 70
4
  0
LAYER
  5
57
100
AcDbSymbolTableRecord
100
AcDbLayerTableRecord
  2
Step_3_4
 70
0
 62
7
420
0
  6
Continuous
370
25
390
F
  0
LAYER
  5
10
100
AcDbSymbolTableRecord
100
AcDbLayerTableRecord
  2
0
 70
0
 62
7
420
16777215
  6
Continuous
370
25
390
F
  0
LAYER
  5
58
100
AcDbSymbolTableRecord
100
AcDbLayerTableRecord
  2
Framing
 70
0
 62
7
420
0
  6
Continuous
370
25
390
F
  0
LAYER
  5
59
100
AcDbSymbolTableRecord
100
AcDbLayerTableRecord
  2
Step_1_2
 70
1
 62
7
420
0
  6
Continuous
370
25
390
F
  0
ENDTAB
  0
TABLE
  2
STYLE
  5
3
100
AcDbSymbolTable
 70
8
  0
STYLE
  5
5A
100
AcDbSymbolTableRecord
100
AcDbTextStyleTableRecord
  2
Standard
 70
0
 40
0.0
 41
1.0
 50
0.0
 71
0
 42
2.5
  3

  4

1001
ACAD
1000
txt
1071
0
  0
STYLE
  5
5B
100
AcDbSymbolTableRecord
100
AcDbTextStyleTableRecord
  2
textstyle0
 70
0
 40
0.0
 41
1.0
 50
0.0
 71
0
 42
3.0
  3

  4

1001
ACAD
1000
Liberation Sans
1071
0
  0
STYLE
  5
5C
100
AcDbSymbolTableRecord
100
AcDbTextStyleTableRecord
  2
textstyle1
 70
0
 40
0.0
 41
1.0
 50
0.0
 71
0
 42
3.0
  3

  4

1001
ACAD
1000
Liberation Sans
1071
0
  0
STYLE
  5
5D
100
AcDbSymbolTableRecord
100
AcDbTextStyleTableRecord
  2
textstyle2
 70
0
 40
0.0
 41
1.0
 50
0.0
 71
0
 42
3.0
  3

  4

1001
ACAD
1000
Liberation Sans
1071
0
  0
STYLE
  5
5E
100
AcDbSymbolTableRecord
100
AcDbTextStyleTableRecord
  2
textstyle3
 70
0
 40
0.0
 41
1.0
 50
0.0
 71
0
 42
3.0
  3

  4

1001
ACAD
1000
Liberation Sans
1071
0
  0
STYLE
  5
5F
100
AcDbSymbolTableRecord
100
AcDbTextStyleTableRecord
  2
textstyle4
 70
0
 40
0.0
 41
1.0
 50
0.0
 71
0
 42
3.0
  3

  4

1001
ACAD
1000
Liberation Sans
1071
0
  0
STYLE
  5
60
100
AcDbSymbolTableRecord
100
AcDbTextStyleTableRecord
  2
textstyle5
 70
0
 40
0.0
 41
1.0
 50
0.0
 71
0
 42
3.0
  3

  4

1001
ACAD
1000
Nimbus Sans [UKWN]
1071
0
  0
STYLE
  5
61
100
AcDbSymbolTableRecord
100
AcDbTextStyleTableRecord
  2
textstyle6
 70
0
 40
0.0
 41
1.0
 50
0.0
 71
0
 42
3.0
  3

  4

1001
ACAD
1000
Nimbus Sans [UKWN]
1071
0
  0
ENDTAB
  0
TABLE
  2
VIEW
  5
6
100
AcDbSymbolTable
 70
0
  0
ENDTAB
  0
TABLE
  2
UCS
  5
7
100
AcDbSymbolTable
 70
0
  0
ENDTAB
  0
TABLE
  2
APPID
  5
9
100
AcDbSymbolTable
 70
1
  0
APPID
  5
12
100
AcDbSymbolTableRecord
100
AcDbRegAppTableRecord
  2
ACAD
 70
0
  0
APPID
  5
62
100
AcDbSymbolTableRecord
100
AcDbRegAppTableRecord
  2
QCAD
 70
0
  0
ENDTAB
  0
TABLE
  2
DIMSTYLE
  5
A
100
AcDbSymbolTable
 70
1
100
AcDbDimStyleTable
 71
0
  0
DIMSTYLE
105
27
100
AcDbSymbolTableRecord
100
AcDbDimStyleTableRecord
  2
Standard
 41
2.0
 42
0.03125
 43
3.75
 44
0.0625
 70
0
 73
0
 74
0
 77
1
 78
8
140
0.125
141
2.5
143
0.03937007874016
147
0.03125
171
3
172
1
271
2
272
2
274
3
278
44
283
0
284
8
340
5A
  0
ENDTAB
  0
TABLE
  2
BLOCK_RECORD
  5
1
100
AcDbSymbolTable
 70
1
  0
BLOCK_RECORD
  5
1F
100
AcDbSymbolTableRecord
100
AcDbBlockTableRecord
  2
*Model_Space
340
22
  0
BLOCK_RECORD
  5
1B
100
AcDbSymbolTableRecord
100
AcDbBlockTableRecord
  2
*Paper_Space
340
1E
  0
BLOCK_RECORD
  5
23
100
AcDbSymbolTableRecord
100
AcDbBlockTableRecord
  2
*Paper_Space0
340
26
  0
ENDTAB
  0
ENDSEC
  0
SECTION
  2
BLOCKS
  0
BLOCK
  5
20
100
AcDbEntity
  8
0
100
AcDbBlockBegin
  2
*Model_Space
 70
0
 10
0.0
 20
0.0
 30
0.0
  3
*Model_Space
  1

  0
ENDBLK
  5
21
100
AcDbEntity
  8
0
100
AcDbBlockEnd
  0
BLOCK
  5
1C
100
AcDbEntity
 67
1
  8
0
100
AcDbBlockBegin
  2
*Paper_Space
 70
0
 10
0.0
 20
0.0
 30
0.0
  3
*Paper_Space
  1

  0
ENDBLK
  5
1D
100
AcDbEntity
 67
1
  8
0
100
AcDbBlockEnd
  0
BLOCK
  5
24
100
AcDbEntity
  8
0
100
AcDbBlockBegin
  2
*Paper_Space0
 70
0
 10
0.0
 20
0.0
 30
0.0
  3
*Paper_Space0
  1

  0
ENDBLK
  5
25
100
AcDbEntity
  8
0
100
AcDbBlockEnd
  0
ENDSEC
  0
SECTION
  2
ENTITIES
  0
LINE
  5
63
100
AcDbEntity
  8
Framing
 62
256
370
-1
 48
1.0
  6
BYLAYER
100
AcDbLine
 10
-44.5
 20
18.0
 30
0.0
 11
44.5
 21
18.0
 31
0.0
  0
LINE
  5
64
100
AcDbEntity
  8
Framing
 62
256
370
-1
 48
1.0
  6
BYLAYER
100
AcDbLine
 10
-40.0169725558856726
 20
19.4999999999999964
 30
0.0
 11
40.0169725558856442
 21
19.4999999999999964
 31
0.0
  0
LINE
  5
65
100
AcDbEntity
  8
Framing
 62
256
370
-1
 48
1.0
  6
BYLAYER
100
AcDbLine
 10
-44.5
 20
18.0
 30
0.0
 11
-40.0169725558856584
 21
19.5
 31
0.0
  0
LINE
  5
66
100
AcDbEntity
  8
Framing
 62
256
370
-1
 48
1.0
  6
BYLAYER
100
AcDbLine
 10
44.5
 20
18.0
 30
0.0
 11
40.0169725558856584
 21
19.5000000000000036
 31
0.0
  0
LINE
  5
67
100
AcDbEntity
  8
Framing
 62
256
370
-1
 48
1.0
  6
BYLAYER
100
AcDbLine
 10
40.0169725558856584
 20
19.5
 30
0.0
 11
0.9583661689079293
 21
32.5688268833565289
 31
0.0
  0
LINE
  5
68
100
AcDbEntity
  8
Framing
 62
256
370
-1
 48
1.0
  6
BYLAYER
100
AcDbLine
 10
0.9583661689079293
 20
32.5688268833565289
 30
0.0
 11
0.9583661689079435
 21
30.895850285846187
 31
0.0
  0
LINE
  5
69
100
AcDbEntity
  8
Framing
 62
256
370
-1
 48
1.0
  6
BYLAYER
100
AcDbLine
 10
40.0169725558856584
 20
19.5
 30
0.0
 11
35.0169725558856584
 21
19.4999999999999964
 31
0.0
  0
LINE
  5
6A
100
AcDbEntity
  8
Framing
 62
256
370
-1
 48
1.0
  6
BYLAYER
100
AcDbLine
 10
35.0169725558856584
 20
19.4999999999999964
 30
0.0
 11
0.9583661689079364
 21
30.8958502858461905
 31
0.0
  0
LINE
  5
6B
100
AcDbEntity
  8
Framing
 62
256
370
-1
 48
1.0
  6
BYLAYER
100
AcDbLine
 10
-35.0169725558856726
 20
19.5000000000000213
 30
0.0
 11
-0.9583661689079506
 21
30.8958502858462154
 31
0.0
  0
LINE
  5
6C
100
AcDbEntity
  8
Framing
 62
256
370
-1
 48
1.0
  6
BYLAYER
100
AcDbLine
 10
-40.0169725558856726
 20
19.4999999999999964
 30
0.0
 11
-0.9583661689079435
 21
32.5688268833565431
 31
0.0
  0
LINE
  5
6D
100
AcDbEntity
  8
Framing
 62
256
370
-1
 48
1.0
  6
BYLAYER
100
AcDbLine
 10
-40.0169725558856726
 20
19.4999999999999964
 30
0.0
 11
-35.0169725558856726
 21
19.5000000000000213
 31
0.0
  0
LINE
  5
6E
100
AcDbEntity
  8
Framing
 62
256
370
-1
 48
1.0
  6
BYLAYER
100
AcDbLine
 10
-0.9583661689079435
 20
32.5688268833565431
 30
0.0
 11
-0.9583661689079577
 21
30.8958502858462012
 31
0.0
  0
LINE
  5
6F
100
AcDbEntity
  8
Framing
 62
256
370
-1
 48
1.0
  6
BYLAYER
100
AcDbLine
 10
-0.75
 20
19.5
 30
0.0
 11
0.75
 21
19.5
 31
0.0
  0
LINE
  5
70
100
AcDbEntity
  8
Framing
 62
256
370
-1
 48
1.0
  6
BYLAYER
100
AcDbLine
 10
0.75
 20
19.5
 30
0.0
 11
0.75
 21
30.8125
 31
0.0
  0
LINE
  5
71
100
AcDbEntity
  8
Framing
 62
256
370
-1
 48
1.0
  6
BYLAYER
100
AcDbLine
 10
0.75
 20
30.8125
 30
0.0
 11
-0.75
 21
30.8125
 31
0.0
  0
LINE
  5
72
100
AcDbEntity
  8
Framing
 62
256
370
-1
 48
1.0
  6
BYLAYER
100
AcDbLine
 10
-0.75
 20
30.8125
 30
0.0
 11
-0.75
 21
19.5
 31
0.0
  0
LINE
  5
73
100
AcDbEntity
  8
Framing
 62
256
370
-1
 48
1.0
  6
BYLAYER
100
AcDbLine
 10
17.8985785520028209
 20
19.5135021120840086
 30
0.0
 11
16.3985785520028209
 21
19.5135021120840086
 31
0.0
  0
LINE
  5
74
100
AcDbEntity
  8
Framing
 62
256
370
-1
 48
1.0
  6
BYLAYER
100
AcDbLine
 10
16.3985785520028209
 20
19.5135021120840086
 30
0.0
 11
16.3985785520028209
 21
25.7010021120840086
 31
0.0
  0
LINE
  5
75
100
AcDbEntity
  8
Framing
 62
256
370
-1
 48
1.0
  6
BYLAYER
100
AcDbLine
 10
16.3985785520028209
 20
25.7010021120840086
 30
0.0
 11
17.8985785520028209
 21
25.1991091328308983
 31
0.0
  0
LINE
  5
76
100
AcDbEntity
  8
Framing
 62
256
370
-1
 48
1.0
  6
BYLAYER
100
AcDbLine
 10
17.8985785520028209
 20
19.5135021120840086
 30
0.0
 11
17.8985785520028209
 21
25.1991091328308983
 31
0.0
  0
LINE
  5
77
100
AcDbEntity
  8
Framing
 62
256
370
-1
 48
1.0
  6
BYLAYER
100
AcDbLine
 10
-17.981606883898003
 20
19.4986000448793568
 30
0.0
 11
-16.481606883898003
 21
19.4986000448793568
 31
0.0
  0
LINE
  5
78
100
AcDbEntity
  8
Framing
 62
256
370
-1
 48
1.0
  6
BYLAYER
100
AcDbLine
 10
-16.481606883898003
 20
19.4986000448793568
 30
0.0
 11
-16.481606883898003
 21
25.6861000448793568
 31
0.0
  0
LINE
  5
79
100
AcDbEntity
  8
Framing
 62
256
370
-1
 48
1.0
  6
BYLAYER
100
AcDbLine
 10
-16.481606883898003
 20
25.6861000448793568
 30
0.0
 11
-17.981606883898003
 21
25.1842070656262464
 31
0.0
  0
LINE
  5
7A
100
AcDbEntity
  8
Framing
 62
256
370
-1
 48
1.0
  6
BYLAYER
100
AcDbLine
 10
-17.981606883898003
 20
19.4986000448793568
 30
0.0
 11
-17.981606883898003
 21
25.1842070656262464
 31
0.0
  0
LINE
  5
7B
100
AcDbEntity
  8
Framing
 62
256
370
-1
 48
1.0
  6
BYLAYER
100
AcDbLine
 10
-2.25
 20
19.5
 30
0.0
 11
-0.75
 21
19.5
 31
0.0
  0
LINE
  5
7C
100
AcDbEntity
  8
Framing
 62
256
370
-1
 48
1.0
  6
BYLAYER
100
AcDbLine
 10
-0.75
 20
19.5
 30
0.0
 11
-0.75
 21
30.9922674629703323
 31
0.0
  0
LINE
  5
7D
100
AcDbEntity
  8
Framing
 62
256
370
-1
 48
1.0
  6
BYLAYER
100
AcDbLine
 10
-2.2511883674135547
 20
30.4899768615428002
 30
0.0
 11
-0.75
 21
30.9922674629703323
 31
0.0
  0
LINE
  5
7E
100
AcDbEntity
  8
Framing
 62
256
370
-1
 48
1.0
  6
BYLAYER
100
AcDbLine
 10
2.2511883674135555
 20
30.4899768615428002
 30
0.0
 11
0.7500000000000014
 21
30.9922674629703323
 31
0.0
  0
LINE
  5
7F
100
AcDbEntity
  8
Framing
 62
256
370
-1
 48
1.0
  6
BYLAYER
100
AcDbLine
 10
2.25
 20
19.5
 30
0.0
 11
2.2511883674135555
 21
30.4899768615428002
 31
0.0
  0
LINE
  5
80
100
AcDbEntity
  8
Framing
 62
256
370
-1
 48
1.0
  6
BYLAYER
100
AcDbLine
 10
2.25
 20
19.5
 30
0.0
 11
0.75
 21
19.5
 31
0.0
  0
LINE
  5
81
100
AcDbEntity
  8
Framing
 62
256
370
-1
 48
1.0
  6
BYLAYER
100
AcDbLine
 10
0.75
 20
19.5
 30
0.0
 11
0.7500000000000014
 21
30.9922674629703323
 31
0.0
  0
LINE
  5
82
100
AcDbEntity
  8
Framing
 62
256
370
-1
 48
1.0
  6
BYLAYER
100
AcDbLine
 10
-50.5619221621592558
 20
15.9747535568032433
 30
0.0
 11
-0.750000000000031
 21
32.6458502858462154
 31
0.0
  0
LINE
  5
83
100
AcDbEntity
  8
Framing
 62
256
370
-1
 48
1.0
  6
BYLAYER
100
AcDbLine
 10
-51.6684304922990023
 20
19.2817583642416324
 30
0.0
 11
-0.7500000000000168
 21
36.318826883356536
 31
0.0
  0
LINE
  5
84
100
AcDbEntity
  8
Framing
 62
256
370
-1
 48
1.0
  6
BYLAYER
100
AcDbLine
 10
-0.7499999999999998
 20
36.318826883356536
 30
0.0
 11
-0.750000000000031
 21
32.6458502858461941
 31
0.0
  0
LINE
  5
85
100
AcDbEntity
  8
Framing
 62
256
370
-1
 48
1.0
  6
BYLAYER
100
AcDbLine
 10
-50.5332136054899479
 20
15.888952725183632
 30
0.0
 11
-51.6437799029077667
 21
19.2080855184053299
 31
0.0
  0
LINE
  5
86
100
AcDbEntity
  8
Framing
 62
256
370
-1
 48
1.0
  6
BYLAYER
100
AcDbLine
 10
0.75
 20
36.318826883356536
 30
0.0
 11
0.7500000000000341
 21
32.6458502858461941
 31
0.0
  0
LINE
  5
87
100
AcDbEntity
  8
Framing
 62
256
370
-1
 48
1.0
  6
BYLAYER
100
AcDbLine
 10
50.5619221621592487
 20
15.9747535568032131
 30
0.0
 11
0.7500000000000324
 21
32.6458502858462083
 31
0.0
  0
LINE
  5
88
100
AcDbEntity
  8
Framing
 62
256
370
-1
 48
1.0
  6
BYLAYER
100
AcDbLine
 10
51.6684304922990165
 20
19.2817583642416253
 30
0.0
 11
0.7500000000000177
 21
36.318826883356536
 31
0.0
  0
LINE
  5
89
100
AcDbEntity
  8
Framing
 62
256
370
-1
 48
1.0
  6
BYLAYER
100
AcDbLine
 10
50.5332136054899479
 20
15.8889527251836125
 30
0.0
 11
51.6437799029077738
 21
19.2080855184053476
 31
0.0
  0
LINE
  5
8A
100
AcDbEntity
  8
Framing
 62
256
370
-1
 48
1.0
  6
BYLAYER
100
AcDbLine
 10
-0.75
 20
36.3188268833565431
 30
0.0
 11
-0.75
 21
30.8188268833565431
 31
0.0
  0
LINE
  5
8B
100
AcDbEntity
  8
Framing
 62
256
370
-1
 48
1.0
  6
BYLAYER
100
AcDbLine
 10
-0.7083661689079265
 20
30.8188268833565431
 30
0.0
 11
0.7916338310920735
 21
30.8188268833565431
 31
0.0
  0
LINE
  5
8C
100
AcDbEntity
  8
Framing
 62
256
370
-1
 48
1.0
  6
BYLAYER
100
AcDbLine
 10
0.75
 20
30.8188268833565431
 30
0.0
 11
0.75
 21
36.3188268833565431
 31
0.0
  0
LINE
  5
8D
100
AcDbEntity
  8
Framing
 62
256
370
-1
 48
1.0
  6
BYLAYER
100
AcDbLine
 10
0.75
 20
36.3188268833565431
 30
0.0
 11
-0.75
 21
36.3188268833565431
 31
0.0
  0
LINE
  5
8E
100
AcDbEntity
  8
Framing
 62
256
370
-1
 48
1.0
  6
BYLAYER
100
AcDbLine
 10
0.0
 20
36.3188268833565431
 30
0.0
 11
0.0
 21
30.8125
 31
0.0
  0
LINE
  5
8F
100
AcDbEntity
  8
Framing
 62
256
370
-1
 48
1.0
  6
BYLAYER
100
AcDbLine
 10
-44.5
 20
18.0
 30
0.0
 11
-44.5
 21
-6.0
 31
0.0
  0
LINE
  5
90
100
AcDbEntity
  8
Framing
 62
256
370
-1
 48
1.0
  6
BYLAYER
100
AcDbLine
 10
44.5
 20
18.0
 30
0.0
 11
44.5
 21
-6.0
 31
0.0
  0
LINE
  5
91
100
AcDbEntity
  8
Framing
 62
256
370
-1
 48
1.0
  6
BYLAYER
100
AcDbLine
 10
-44.3509749857662001
 20
-59.5259337388197949
 30
0.0
 11
44.6490250142337999
 21
-59.5259337388197949
 31
0.0
  0
LINE
  5
92
100
AcDbEntity
  8
Framing
 62
256
370
-1
 48
1.0
  6
BYLAYER
100
AcDbLine
 10
-39.8679475416518727
 20
-58.025933738819802
 30
0.0
 11
40.165997570119444
 21
-58.025933738819802
 31
0.0
  0
LINE
  5
93
100
AcDbEntity
  8
Framing
 62
256
370
-1
 48
1.0
  6
BYLAYER
100
AcDbLine
 10
-44.3509749857662001
 20
-59.5259337388197949
 30
0.0
 11
-39.8679475416518585
 21
-58.0259337388197949
 31
0.0
  0
LINE
  5
94
100
AcDbEntity
  8
Framing
 62
256
370
-1
 48
1.0
  6
BYLAYER
100
AcDbLine
 10
44.6490250142337999
 20
-59.5259337388197949
 30
0.0
 11
40.1659975701194583
 21
-58.0259337388197949
 31
0.0
  0
LINE
  5
95
100
AcDbEntity
  8
Framing
 62
256
370
-1
 48
1.0
  6
BYLAYER
100
AcDbLine
 10
40.1659975701194583
 20
-58.0259337388197949
 30
0.0
 11
1.1073911831417291
 21
-44.957106855463266
 31
0.0
  0
LINE
  5
96
100
AcDbEntity
  8
Framing
 62
256
370
-1
 48
1.0
  6
BYLAYER
100
AcDbLine
 10
1.1073911831417291
 20
-44.957106855463266
 30
0.0
 11
1.1073911831417433
 21
-46.6300834529736079
 31
0.0
  0
LINE
  5
97
100
AcDbEntity
  8
Framing
 62
256
370
-1
 48
1.0
  6
BYLAYER
100
AcDbLine
 10
40.1659975701194583
 20
-58.0259337388197949
 30
0.0
 11
35.1659975701194583
 21
-58.025933738819802
 31
0.0
  0
LINE
  5
98
100
AcDbEntity
  8
Framing
 62
256
370
-1
 48
1.0
  6
BYLAYER
100
AcDbLine
 10
35.1659975701194583
 20
-58.025933738819802
 30
0.0
 11
1.1073911831417362
 21
-46.6300834529736079
 31
0.0
  0
LINE
  5
99
100
AcDbEntity
  8
Framing
 62
256
370
-1
 48
1.0
  6
BYLAYER
100
AcDbLine
 10
-34.8679475416518727
 20
-58.0259337388197736
 30
0.0
 11
-0.8093411546741507
 21
-46.6300834529735795
 31
0.0
  0
LINE
  5
9A
100
AcDbEntity
  8
Framing
 62
256
370
-1
 48
1.0
  6
BYLAYER
100
AcDbLine
 10
-50.412897147925456
 20
-61.5511801820165516
 30
0.0
 11
-0.6009749857662311
 21
-44.8800834529735795
 31
0.0
  0
LINE
  5
9B
100
AcDbEntity
  8
Framing
 62
256
370
-1
 48
1.0
  6
BYLAYER
100
AcDbLine
 10
50.7109471763930486
 20
-61.55118018201658
 30
0.0
 11
0.8990250142338323
 21
-44.8800834529735795
 31
0.0
  0
LINE
  5
9C
100
AcDbEntity
  8
Framing
 62
256
370
-1
 48
1.0
  6
BYLAYER
100
AcDbLine
 10
-39.8679475416518727
 20
-58.025933738819802
 30
0.0
 11
-0.8093411546741436
 21
-44.9571068554632518
 31
0.0
  0
LINE
  5
9D
100
AcDbEntity
  8
Framing
 62
256
370
-1
 48
1.0
  6
BYLAYER
100
AcDbLine
 10
-51.5194054780652024
 20
-58.2441753745781625
 30
0.0
 11
-0.6009749857662169
 21
-41.2071068554632518
 31
0.0
  0
LINE
  5
9E
100
AcDbEntity
  8
Framing
 62
256
370
-1
 48
1.0
  6
BYLAYER
100
AcDbLine
 10
51.8174555065328164
 20
-58.2441753745781696
 30
0.0
 11
0.8990250142338175
 21
-41.207106855463266
 31
0.0
  0
LINE
  5
9F
100
AcDbEntity
  8
Framing
 62
256
370
-1
 48
1.0
  6
BYLAYER
100
AcDbLine
 10
-39.8679475416518727
 20
-58.025933738819802
 30
0.0
 11
-34.8679475416518727
 21
-58.0259337388197736
 31
0.0
  0
LINE
  5
A0
100
AcDbEntity
  8
Framing
 62
256
370
-1
 48
1.0
  6
BYLAYER
100
AcDbLine
 10
-0.8093411546741436
 20
-44.9571068554632518
 30
0.0
 11
-0.8093411546741578
 21
-46.6300834529735937
 31
0.0
  0
LINE
  5
A1
100
AcDbEntity
  8
Framing
 62
256
370
-1
 48
1.0
  6
BYLAYER
100
AcDbLine
 10
-0.6009749857661999
 20
-41.2071068554632518
 30
0.0
 11
-0.6009749857662311
 21
-44.8800834529736008
 31
0.0
  0
LINE
  5
A2
100
AcDbEntity
  8
Framing
 62
256
370
-1
 48
1.0
  6
BYLAYER
100
AcDbLine
 10
0.8990250142337999
 20
-41.2071068554632518
 30
0.0
 11
0.899025014233834
 21
-44.8800834529736008
 31
0.0
  0
LINE
  5
A3
100
AcDbEntity
  8
Framing
 62
256
370
-1
 48
1.0
  6
BYLAYER
100
AcDbLine
 10
-0.6009749857662001
 20
-58.0259337388197949
 30
0.0
 11
0.8990250142337999
 21
-58.0259337388197949
 31
0.0
  0
LINE
  5
A4
100
AcDbEntity
  8
Framing
 62
256
370
-1
 48
1.0
  6
BYLAYER
100
AcDbLine
 10
0.8990250142337999
 20
-58.0259337388197949
 30
0.0
 11
0.8990250142337999
 21
-46.7134337388197949
 31
0.0
  0
LINE
  5
A5
100
AcDbEntity
  8
Framing
 62
256
370
-1
 48
1.0
  6
BYLAYER
100
AcDbLine
 10
0.8990250142337999
 20
-46.7134337388197949
 30
0.0
 11
-0.6009749857662001
 21
-46.7134337388197949
 31
0.0
  0
LINE
  5
A6
100
AcDbEntity
  8
Framing
 62
256
370
-1
 48
1.0
  6
BYLAYER
100
AcDbLine
 10
-0.6009749857662001
 20
-46.7134337388197949
 30
0.0
 11
-0.6009749857662001
 21
-58.0259337388197949
 31
0.0
  0
LINE
  5
A7
100
AcDbEntity
  8
Framing
 62
256
370
-1
 48
1.0
  6
BYLAYER
100
AcDbLine
 10
18.0476035662366208
 20
-58.0124316267357898
 30
0.0
 11
16.5476035662366208
 21
-58.0124316267357898
 31
0.0
  0
LINE
  5
A8
100
AcDbEntity
  8
Framing
 62
256
370
-1
 48
1.0
  6
BYLAYER
100
AcDbLine
 10
16.5476035662366208
 20
-58.0124316267357898
 30
0.0
 11
16.5476035662366208
 21
-51.8249316267357898
 31
0.0
  0
LINE
  5
A9
100
AcDbEntity
  8
Framing
 62
256
370
-1
 48
1.0
  6
BYLAYER
100
AcDbLine
 10
16.5476035662366208
 20
-51.8249316267357898
 30
0.0
 11
18.0476035662366208
 21
-52.3268246059888966
 31
0.0
  0
LINE
  5
AA
100
AcDbEntity
  8
Framing
 62
256
370
-1
 48
1.0
  6
BYLAYER
100
AcDbLine
 10
18.0476035662366208
 20
-58.0124316267357898
 30
0.0
 11
18.0476035662366208
 21
-52.3268246059888966
 31
0.0
  0
LINE
  5
AB
100
AcDbEntity
  8
Framing
 62
256
370
-1
 48
1.0
  6
BYLAYER
100
AcDbLine
 10
-17.8325818696642031
 20
-58.0273336939404345
 30
0.0
 11
-16.3325818696642031
 21
-58.0273336939404345
 31
0.0
  0
LINE
  5
AC
100
AcDbEntity
  8
Framing
 62
256
370
-1
 48
1.0
  6
BYLAYER
100
AcDbLine
 10
-16.3325818696642031
 20
-58.0273336939404345
 30
0.0
 11
-16.3325818696642031
 21
-51.8398336939404345
 31
0.0
  0
LINE
  5
AD
100
AcDbEntity
  8
Framing
 62
256
370
-1
 48
1.0
  6
BYLAYER
100
AcDbLine
 10
-16.3325818696642031
 20
-51.8398336939404345
 30
0.0
 11
-17.8325818696642031
 21
-52.3417266731935484
 31
0.0
  0
LINE
  5
AE
100
AcDbEntity
  8
Framing
 62
256
370
-1
 48
1.0
  6
BYLAYER
100
AcDbLine
 10
-17.8325818696642031
 20
-58.0273336939404345
 30
0.0
 11
-17.8325818696642031
 21
-52.3417266731935484
 31
0.0
  0
LINE
  5
AF
100
AcDbEntity
  8
Framing
 62
256
370
-1
 48
1.0
  6
BYLAYER
100
AcDbLine
 10
-2.1009749857662001
 20
-58.0259337388197949
 30
0.0
 11
-0.6009749857662001
 21
-58.0259337388197949
 31
0.0
  0
LINE
  5
B0
100
AcDbEntity
  8
Framing
 62
256
370
-1
 48
1.0
  6
BYLAYER
100
AcDbLine
 10
-0.6009749857662001
 20
-58.0259337388197949
 30
0.0
 11
-0.6009749857662001
 21
-46.5336662758494626
 31
0.0
  0
LINE
  5
B1
100
AcDbEntity
  8
Framing
 62
256
370
-1
 48
1.0
  6
BYLAYER
100
AcDbLine
 10
-2.1009749857662001
 20
-58.0259337388197949
 30
0.0
 11
-2.1021633531797548
 21
-47.0359568772769947
 31
0.0
  0
LINE
  5
B2
100
AcDbEntity
  8
Framing
 62
256
370
-1
 48
1.0
  6
BYLAYER
100
AcDbLine
 10
-2.1021633531797548
 20
-47.0359568772769947
 30
0.0
 11
-0.6009749857662001
 21
-46.5336662758494626
 31
0.0
  0
LINE
  5
B3
100
AcDbEntity
  8
Framing
 62
256
370
-1
 48
1.0
  6
BYLAYER
100
AcDbLine
 10
2.4002133816473554
 20
-47.0359568772769947
 30
0.0
 11
0.8990250142338013
 21
-46.5336662758494626
 31
0.0
  0
LINE
  5
B4
100
AcDbEntity
  8
Framing
 62
256
370
-1
 48
1.0
  6
BYLAYER
100
AcDbLine
 10
2.3990250142337999
 20
-58.0259337388197949
 30
0.0
 11
2.4002133816473554
 21
-47.0359568772769947
 31
0.0
  0
LINE
  5
B5
100
AcDbEntity
  8
Framing
 62
256
370
-1
 48
1.0
  6
BYLAYER
100
AcDbLine
 10
2.3990250142337999
 20
-58.0259337388197949
 30
0.0
 11
0.8990250142337999
 21
-58.0259337388197949
 31
0.0
  0
LINE
  5
B6
100
AcDbEntity
  8
Framing
 62
256
370
-1
 48
1.0
  6
BYLAYER
100
AcDbLine
 10
0.8990250142337999
 20
-58.0259337388197949
 30
0.0
 11
0.8990250142338013
 21
-46.5336662758494626
 31
0.0
  0
LINE
  5
B7
100
AcDbEntity
  8
Framing
 62
256
370
-1
 48
1.0
  6
BYLAYER
100
AcDbLine
 10
-50.384188591256148
 20
-61.6369810136361593
 30
0.0
 11
-51.4947548886739668
 21
-58.3178482204144615
 31
0.0
  0
LINE
  5
B8
100
AcDbEntity
  8
Framing
 62
256
370
-1
 48
1.0
  6
BYLAYER
100
AcDbLine
 10
50.6822386197237478
 20
-61.6369810136361806
 30
0.0
 11
51.7928049171415736
 21
-58.3178482204144473
 31
0.0
  0
LINE
  5
B9
100
AcDbEntity
  8
Framing
 62
256
370
-1
 48
1.0
  6
BYLAYER
100
AcDbLine
 10
-0.6009749857662001
 20
-41.2071068554632518
 30
0.0
 11
-0.6009749857662001
 21
-46.7071068554632518
 31
0.0
  0
LINE
  5
BA
100
AcDbEntity
  8
Framing
 62
256
370
-1
 48
1.0
  6
BYLAYER
100
AcDbLine
 10
-0.5593411546741266
 20
-46.7071068554632518
 30
0.0
 11
0.9406588453258734
 21
-46.7071068554632518
 31
0.0
  0
LINE
  5
BB
100
AcDbEntity
  8
Framing
 62
256
370
-1
 48
1.0
  6
BYLAYER
100
AcDbLine
 10
0.8990250142337999
 20
-46.7071068554632518
 30
0.0
 11
0.8990250142337999
 21
-41.2071068554632518
 31
0.0
  0
LINE
  5
BC
100
AcDbEntity
  8
Framing
 62
256
370
-1
 48
1.0
  6
BYLAYER
100
AcDbLine
 10
0.8990250142337999
 20
-41.2071068554632518
 30
0.0
 11
-0.6009749857662001
 21
-41.2071068554632518
 31
0.0
  0
LINE
  5
BD
100
AcDbEntity
  8
Framing
 62
256
370
-1
 48
1.0
  6
BYLAYER
100
AcDbLine
 10
0.1490250142337999
 20
-41.2071068554632518
 30
0.0
 11
0.1490250142337999
 21
-46.7134337388197949
 31
0.0
  0
LINE
  5
BE
100
AcDbEntity
  8
Framing
 62
256
370
-1
 48
1.0
  6
BYLAYER
100
AcDbLine
 10
-44.3509749857662001
 20
-59.5259337388197949
 30
0.0
 11
-44.3509749857662001
 21
-83.5259337388197878
 31
0.0
  0
LINE
  5
BF
100
AcDbEntity
  8
Framing
 62
256
370
-1
 48
1.0
  6
BYLAYER
100
AcDbLine
 10
44.6490250142337999
 20
-59.5259337388197949
 30
0.0
 11
44.6490250142337999
 21
-83.5259337388197878
 31
0.0
  0
MTEXT
  5
C0
100
AcDbEntity
  8
Framing
 62
256
370
-1
 48
1.0
  6
BYLAYER
100
AcDbMText
 10
-18.3892598011837158
 20
2.297783053827386
 30
0.0
 40
3.0
 41
0.0
 71
1
 72
1
  1
Existing T1-11 Siding
  7
textstyle0
 50
0.0
 73
2
 44
1.0
  0
MTEXT
  5
C1
100
AcDbEntity
  8
Framing
 62
256
370
-1
 48
1.0
  6
BYLAYER
100
AcDbMText
 10
-20.2616324230577725
 20
-70.6314952726031891
 30
0.0
 40
3.0
 41
0.0
 71
1
 72
1
  1
Existing T1-11 Siding
  7
textstyle1
 50
0.0
 73
2
 44
1.0
  0
MTEXT
  5
C2
100
AcDbEntity
  8
Framing
 62
256
370
-1
 48
1.0
  6
BYLAYER
100
AcDbMText
 10
-25.6912297700634866
 20
-110.9037138613190905
 30
0.0
 40
3.0
 41
0.0
 71
1
 72
1
  1
\H4.00001;Front & Rear Triangles
  7
textstyle2
 50
0.0
 73
2
 44
1.0
  0
LINE
  5
C3
100
AcDbEntity
  8
Framing
 62
256
370
-1
 48
1.0
  6
BYLAYER
100
AcDbLine
 10
-44.3403294628766673
 20
-59.5259337388153114
 30
0.0
 11
44.6596705371233327
 21
-59.5259337388153114
 31
0.0
  0
LINE
  5
C4
100
AcDbEntity
  8
Framing
 62
256
370
-1
 48
1.0
  6
BYLAYER
100
AcDbLine
 10
-44.3403294628766673
 20
-59.5259337388153114
 30
0.0
 11
-39.8573020187623257
 21
-58.0259337388153114
 31
0.0
  0
LINE
  5
C5
100
AcDbEntity
  8
Framing
 62
256
370
-1
 48
1.0
  6
BYLAYER
100
AcDbLine
 10
44.6596705371233327
 20
-59.5259337388153114
 30
0.0
 11
40.1766430930089911
 21
-58.0259337388153114
 31
0.0
  0
LINE
  5
C6
100
AcDbEntity
  8
Step_3_4
 62
256
370
-1
 48
1.0
  6
BYLAYER
100
AcDbLine
 10
-44.3403294628766673
 20
-59.5259337388153114
 30
0.0
 11
-39.8573020187623257
 21
-58.0259337388153114
 31
0.0
  0
LINE
  5
C7
100
AcDbEntity
  8
Step_3_4
 62
256
370
-1
 48
1.0
  6
BYLAYER
100
AcDbLine
 10
-44.4893544764558513
 20
18.000000000223622
 30
0.0
 11
-40.0063270323415097
 21
19.500000000223622
 31
0.0
  0
LINE
  5
C8
100
AcDbEntity
  8
Step_3_4
 62
256
370
-1
 48
1.0
  6
BYLAYER
100
AcDbLine
 10
-44.4999999993453841
 20
18.0000000002191385
 30
0.0
 11
44.5000000006546159
 21
18.0000000002191385
 31
0.0
  0
LINE
  5
C9
100
AcDbEntity
  8
Step_3_4
 62
256
370
-1
 48
1.0
  6
BYLAYER
100
AcDbLine
 10
44.6490250142337999
 20
-59.5259337388197949
 30
0.0
 11
40.1659975701194583
 21
-58.0259337388197949
 31
0.0
  0
LINE
  5
CA
100
AcDbEntity
  8
Step_3_4
 62
256
370
-1
 48
1.0
  6
BYLAYER
100
AcDbLine
 10
44.5000000006546159
 20
18.0000000002191385
 30
0.0
 11
40.0169725565402743
 21
19.5000000002191385
 31
0.0
  0
HATCH
  5
CB
100
AcDbEntity
  8
Step_1_2
 62
9
420
12632256
370
-1
 48
1.0
  6
BYLAYER
100
AcDbHatch
 10
0.0
 20
0.0
 30
0.0
210
0.0
220
0.0
230
1.0
  2
SOLID
 70
1
 71
0
 91
1
 92
1
 93
6
 72
1
 10
-0.7499999999999999
 20
30.8188268833565431
 11
0.7499999999999999
 21
30.8188268833565431
 72
1
 10
0.75
 20
30.8188268833565431
 11
0.75
 21
32.6458502858462225
 72
1
 10
0.7500000000000071
 20
32.6458502858462225
 11
44.5106455228748672
 21
18.0
 72
1
 10
44.5106455228748814
 20
18.0
 11
-44.5106455228749454
 21
18.0
 72
1
 10
-44.5106455228749454
 20
18.0
 11
-0.750000000000031
 21
32.6458502858462154
 72
1
 10
-0.75
 20
32.6458502858462225
 11
-0.75
 21
30.8188268833565431
 97
0
 75
0
 76
1
 98
0
1001
ACAD
1010
0.0
1020
0.0
1030
0
  0
HATCH
  5
CC
100
AcDbEntity
  8
Step_1_2
 62
9
420
12632256
370
-1
 48
1.0
  6
BYLAYER
100
AcDbHatch
 10
0.0
 20
0.0
 30
0.0
210
0.0
220
0.0
230
1.0
  2
SOLID
 70
1
 71
0
 91
1
 92
1
 93
6
 72
1
 10
-0.5903294635312973
 20
-46.7071068556779139
 11
0.9096705364687024
 21
-46.7071068556779139
 72
1
 10
0.9096705364687026
 20
-46.7071068556779139
 11
0.9096705364687026
 21
-44.8800834531882344
 72
1
 10
0.9096705364687097
 20
-44.8800834531882344
 11
44.6703160593435697
 21
-59.5259337390344569
 72
1
 10
44.670316059343584
 20
-59.5259337390344569
 11
-44.3509749864062428
 21
-59.5259337390344569
 72
1
 10
-44.3509749864062428
 20
-59.5259337390344569
 11
-0.5903294635313284
 21
-44.8800834531882415
 72
1
 10
-0.5903294635312974
 20
-44.8800834531882344
 11
-0.5903294635312974
 21
-46.7071068556779139
 97
0
 75
0
 76
1
 98
0
1001
ACAD
1010
0.0
1020
0.0
1030
0
  0
HATCH
  5
CD
100
AcDbEntity
  8
Step_3_4
 62
9
420
12632256
370
-1
 48
1.0
  6
BYLAYER
100
AcDbHatch
 10
0.0
 20
0.0
 30
0.0
210
0.0
220
0.0
230
1.0
  2
SOLID
 70
1
 71
0
 91
1
 92
1
 93
6
 72
1
 10
-0.5903294635312973
 20
-46.7071068556779139
 11
0.9096705364687024
 21
-46.7071068556779139
 72
1
 10
0.9096705364687026
 20
-46.7071068556779139
 11
0.9096705364687026
 21
-44.8800834531882344
 72
1
 10
0.9096705364687097
 20
-44.8800834531882344
 11
44.6703160593435697
 21
-59.5259337390344569
 72
1
 10
44.670316059343584
 20
-59.5259337390344569
 11
-44.3509749864062428
 21
-59.5259337390344569
 72
1
 10
-44.3509749864062428
 20
-59.5259337390344569
 11
-0.5903294635313284
 21
-44.8800834531882415
 72
1
 10
-0.5903294635312974
 20
-44.8800834531882344
 11
-0.5903294635312974
 21
-46.7071068556779139
 97
0
 75
0
 76
1
 98
0
1001
ACAD
1010
0.0
1020
0.0
1030
0
  0
LINE
  5
CE
100
AcDbEntity
  8
Step_1_2
 62
256
370
-1
 48
1.0
  6
BYLAYER
100
AcDbLine
 10
-44.5106455228749454
 20
18.0
 30
0.0
 11
44.5106455228748814
 21
18.0
 31
0.0
  0
LINE
  5
CF
100
AcDbEntity
  8
Step_1_2
 62
256
370
-1
 48
1.0
  6
BYLAYER
100
AcDbLine
 10
-44.3509749857516127
 20
-59.5259337388153114
 30
0.0
 11
44.6703160599982141
 21
-59.5259337388153114
 31
0.0
  0
LINE
  5
D0
100
AcDbEntity
  8
Step_1_2
 62
256
370
-1
 48
1.0
  6
BYLAYER
100
AcDbLine
 10
-44.5106455228749454
 20
18.0
 30
0.0
 11
-0.750000000000031
 21
32.6458502858462154
 31
0.0
  0
LINE
  5
D1
100
AcDbEntity
  8
Step_1_2
 62
256
370
-1
 48
1.0
  6
BYLAYER
100
AcDbLine
 10
44.5106455228748601
 20
18.0
 30
0.0
 11
0.75
 21
32.6458502858462225
 31
0.0
  0
LINE
  5
D2
100
AcDbEntity
  8
Step_1_2
 62
256
370
-1
 48
1.0
  6
BYLAYER
100
AcDbLine
 10
-0.75
 20
32.6458502858462225
 30
0.0
 11
-0.75
 21
30.8188268833565431
 31
0.0
  0
LINE
  5
D3
100
AcDbEntity
  8
Step_1_2
 62
256
370
-1
 48
1.0
  6
BYLAYER
100
AcDbLine
 10
-0.7499999999999999
 20
30.8188268833565431
 30
0.0
 11
0.7499999999999999
 21
30.8188268833565431
 31
0.0
  0
LINE
  5
D4
100
AcDbEntity
  8
Step_1_2
 62
256
370
-1
 48
1.0
  6
BYLAYER
100
AcDbLine
 10
0.75
 20
30.8188268833565431
 30
0.0
 11
0.75
 21
32.6458502858462225
 31
0.0
  0
LINE
  5
D5
100
AcDbEntity
  8
Step_1_2
 62
256
370
-1
 48
1.0
  6
BYLAYER
100
AcDbLine
 10
-44.5
 20
17.5
 30
0.0
 11
44.5
 21
17.5
 31
0.0
  0
LINE
  5
D6
100
AcDbEntity
  8
Step_1_2
 62
256
370
-1
 48
1.0
  6
BYLAYER
100
AcDbLine
 10
-44.3403294628766673
 20
-60.0259337388153114
 30
0.0
 11
44.6596705371233327
 21
-60.0259337388153114
 31
0.0
  0
LINE
  5
D7
100
AcDbEntity
  8
Step_3_4
 62
256
370
-1
 48
1.0
  6
BYLAYER
100
AcDbLine
 10
-44.3403294628766673
 20
-60.0259337388153114
 30
0.0
 11
44.6596705371233327
 21
-60.0259337388153114
 31
0.0
  0
LINE
  5
D8
100
AcDbEntity
  8
Step_3_4
 62
256
370
-1
 48
1.0
  6
BYLAYER
100
AcDbLine
 10
-44.4893544764558513
 20
17.500000000223622
 30
0.0
 11
44.5106455235441487
 21
17.500000000223622
 31
0.0
  0
LINE
  5
D9
100
AcDbEntity
  8
Step_1_2
 62
256
370
-1
 48
1.0
  6
BYLAYER
100
AcDbLine
 10
-38.5226300745142112
 20
20.0
 30
0.0
 11
38.5348032646530498
 21
20.0
 31
0.0
  0
LINE
  5
DA
100
AcDbEntity
  8
Step_1_2
 62
256
370
-1
 48
1.0
  6
BYLAYER
100
AcDbLine
 10
-38.3629595373908785
 20
-57.5259337388153114
 30
0.0
 11
38.6944738017763825
 21
-57.5259337388153114
 31
0.0
  0
LINE
  5
DB
100
AcDbEntity
  8
Step_3_4
 62
256
370
-1
 48
1.0
  6
BYLAYER
100
AcDbLine
 10
-38.5119845509700625
 20
20.000000000223622
 30
0.0
 11
38.5454487881971986
 21
20.000000000223622
 31
0.0
  0
LINE
  5
DC
100
AcDbEntity
  8
Step_1_2
 62
256
370
-1
 48
1.0
  6
BYLAYER
100
AcDbLine
 10
-44.5
 20
17.5
 30
0.0
 11
-44.5106455228749383
 21
18.0
 31
0.0
  0
LINE
  5
DD
100
AcDbEntity
  8
Step_1_2
 62
256
370
-1
 48
1.0
  6
BYLAYER
100
AcDbLine
 10
-44.3403294628766673
 20
-60.0259337388153114
 30
0.0
 11
-44.3509749857516056
 21
-59.5259337388153114
 31
0.0
  0
LINE
  5
DE
100
AcDbEntity
  8
Step_3_4
 62
256
370
-1
 48
1.0
  6
BYLAYER
100
AcDbLine
 10
-44.3403294628766673
 20
-60.0259337388153114
 30
0.0
 11
-44.3509749857516056
 21
-59.5259337388153114
 31
0.0
  0
LINE
  5
DF
100
AcDbEntity
  8
Step_3_4
 62
256
370
-1
 48
1.0
  6
BYLAYER
100
AcDbLine
 10
-44.4893544764558513
 20
17.500000000223622
 30
0.0
 11
-44.4999999993307895
 21
18.000000000223622
 31
0.0
  0
LINE
  5
E0
100
AcDbEntity
  8
Step_1_2
 62
256
370
-1
 48
1.0
  6
BYLAYER
100
AcDbLine
 10
-44.5106455228749383
 20
18.0
 30
0.0
 11
-38.5226300745142112
 21
20.0
 31
0.0
  0
LINE
  5
E1
100
AcDbEntity
  8
Step_1_2
 62
256
370
-1
 48
1.0
  6
BYLAYER
100
AcDbLine
 10
-44.3509749857516056
 20
-59.5259337388153114
 30
0.0
 11
-38.3629595373908785
 21
-57.5259337388153114
 31
0.0
  0
LINE
  5
E2
100
AcDbEntity
  8
Step_1_2
 62
256
370
-1
 48
1.0
  6
BYLAYER
100
AcDbLine
 10
44.5
 20
17.5
 30
0.0
 11
44.5106455228748601
 21
18.0
 31
0.0
  0
LINE
  5
E3
100
AcDbEntity
  8
Step_1_2
 62
256
370
-1
 48
1.0
  6
BYLAYER
100
AcDbLine
 10
44.6596705371233327
 20
-60.0259337388153114
 30
0.0
 11
44.6703160599981928
 21
-59.5259337388153114
 31
0.0
  0
LINE
  5
E4
100
AcDbEntity
  8
Step_3_4
 62
256
370
-1
 48
1.0
  6
BYLAYER
100
AcDbLine
 10
44.6596705371233327
 20
-60.0259337388153114
 30
0.0
 11
44.6703160599981928
 21
-59.5259337388153114
 31
0.0
  0
LINE
  5
E5
100
AcDbEntity
  8
Step_3_4
 62
256
370
-1
 48
1.0
  6
BYLAYER
100
AcDbLine
 10
44.5106455235441487
 20
17.500000000223622
 30
0.0
 11
44.5212910464190088
 21
18.000000000223622
 31
0.0
  0
LINE
  5
E6
100
AcDbEntity
  8
Step_1_2
 62
256
370
-1
 48
1.0
  6
BYLAYER
100
AcDbLine
 10
44.5106455228748601
 20
18.0
 30
0.0
 11
38.5348032646530712
 21
20.0
 31
0.0
  0
LINE
  5
E7
100
AcDbEntity
  8
Step_1_2
 62
256
370
-1
 48
1.0
  6
BYLAYER
100
AcDbLine
 10
44.6703160599981928
 20
-59.5259337388153114
 30
0.0
 11
38.6944738017764038
 21
-57.5259337388153114
 31
0.0
  0
LEADER
  5
E8
100
AcDbEntity
  8
Step_1_2
 62
256
370
-1
 48
1.0
  6
BYLAYER
100
AcDbLeader
  3
Standard
 71
1
 72
0
 73
3
 74
0
 75
0
 40
1.0
 41
10.0
 76
3
 10
5.0000000000000089
 20
-60.0000000000000142
 10
11.3136050840626705
 20
-66.437930077625083
 10
14.3136050840626705
 20
-66.437930077625083
1001
ACAD
1000
DSTYLE
1002
{
1070
40
1040
1.0
1002
}
  0
MTEXT
  5
E9
100
AcDbEntity
  8
Step_1_2
 62
256
370
-1
 48
1.0
  6
BYLAYER
100
AcDbMText
 10
15.7774626130146096
 20
-64.9143089329856622
 30
0.0
 40
3.0
 41
0.0
 71
1
 72
1
  1
Z-flashing
  7
textstyle3
 50
0.0
 73
2
 44
1.0
  0
MTEXT
  5
EA
100
AcDbEntity
  8
Step_1_2
 62
256
370
-1
 48
1.0
  6
BYLAYER
100
AcDbMText
 10
-5.552150816759891
 20
28.5492110133532506
 30
0.0
 40
3.0
 41
0.0
 71
1
 72
1
  1
Tyvek
  7
textstyle4
 50
0.0
 73
2
 44
1.0
  0
HATCH
  5
EB
100
AcDbEntity
  8
Step_1_2
 62
252
420
10526884
370
-1
 48
1.0
  6
BYLAYER
100
AcDbHatch
 10
0.0
 20
0.0
 30
0.0
210
0.0
220
0.0
230
1.0
  2
SOLID
 70
1
 71
0
 91
1
 92
1
 93
6
 72
1
 10
44.6703160599981928
 20
-59.5259337388153114
 11
38.6944738017764038
 21
-57.5259337388153114
 72
1
 10
38.6944738017763825
 20
-57.5259337388153114
 11
-38.3629595373908785
 21
-57.5259337388153114
 72
1
 10
-38.3629595373908785
 20
-57.5259337388153114
 11
-44.3509749857516056
 21
-59.5259337388153114
 72
1
 10
-44.3509749857516056
 20
-59.5259337388153114
 11
-44.3403294628766673
 21
-60.0259337388153114
 72
1
 10
-44.3403294628766673
 20
-60.0259337388153114
 11
44.6596705371233327
 21
-60.0259337388153114
 72
1
 10
44.6596705371233327
 20
-60.0259337388153114
 11
44.6703160599981928
 21
-59.5259337388153114
 97
0
 75
0
 76
1
 98
0
1001
ACAD
1010
0.0
1020
0.0
1030
0
  0
HATCH
  5
EC
100
AcDbEntity
  8
Step_3_4
 62
252
420
10526884
370
-1
 48
1.0
  6
BYLAYER
100
AcDbHatch
 10
0.0
 20
0.0
 30
0.0
210
0.0
220
0.0
230
1.0
  2
SOLID
 70
1
 71
0
 91
1
 92
1
 93
6
 72
1
 10
44.5212910464190088
 20
18.000000000223622
 11
38.5454487881972199
 21
20.000000000223622
 72
1
 10
38.5454487881971986
 20
20.000000000223622
 11
-38.5119845509700625
 21
20.000000000223622
 72
1
 10
-38.5119845509700625
 20
20.000000000223622
 11
-44.4999999993307895
 21
18.000000000223622
 72
1
 10
-44.4999999993307895
 20
18.000000000223622
 11
-44.4893544764558513
 21
17.500000000223622
 72
1
 10
-44.4893544764558513
 20
17.500000000223622
 11
44.5106455235441487
 21
17.500000000223622
 72
1
 10
44.5106455235441487
 20
17.500000000223622
 11
44.5212910464190088
 21
18.000000000223622
 97
0
 75
0
 76
1
 98
0
1001
ACAD
1010
0.0
1020
0.0
1030
0
  0
HATCH
  5
ED
100
AcDbEntity
  8
Step_3_4
 62
252
420
10526884
370
-1
 48
1.0
  6
BYLAYER
100
AcDbHatch
 10
0.0
 20
0.0
 30
0.0
210
0.0
220
0.0
230
1.0
  2
SOLID
 70
1
 71
0
 91
1
 92
1
 93
6
 72
1
 10
44.6703160599981928
 20
-59.5259337388153114
 11
38.6944738017764038
 21
-57.5259337388153114
 72
1
 10
38.6944738017763825
 20
-57.5259337388153114
 11
-38.3629595373908785
 21
-57.5259337388153114
 72
1
 10
-38.3629595373908785
 20
-57.5259337388153114
 11
-44.3509749857516056
 21
-59.5259337388153114
 72
1
 10
-44.3509749857516056
 20
-59.5259337388153114
 11
-44.3403294628766673
 21
-60.0259337388153114
 72
1
 10
-44.3403294628766673
 20
-60.0259337388153114
 11
44.6596705371233327
 21
-60.0259337388153114
 72
1
 10
44.6596705371233327
 20
-60.0259337388153114
 11
44.6703160599981928
 21
-59.5259337388153114
 97
0
 75
0
 76
1
 98
0
1001
ACAD
1010
0.0
1020
0.0
1030
0
  0
LINE
  5
EE
100
AcDbEntity
  8
Step_3_4
 62
256
370
-1
 48
1.0
  6
BYLAYER
100
AcDbLine
 10
-2.8760007856607785
 20
-58.3292394295656536
 30
0.0
 11
3.1239992143392215
 21
-58.3292394295656536
 31
0.0
  0
LINE
  5
EF
100
AcDbEntity
  8
Step_3_4
 62
256
370
-1
 48
1.0
  6
BYLAYER
100
AcDbLine
 10
3.1239992143392215
 20
-58.3292394295656536
 30
0.0
 11
3.123999214339221
 21
-46.6923070788110834
 31
0.0
  0
LINE
  5
F0
100
AcDbEntity
  8
Step_3_4
 62
256
370
-1
 48
1.0
  6
BYLAYER
100
AcDbLine
 10
3.123999214339221
 20
-46.6923070788110834
 30
0.0
 11
-2.876000785660779
 21
-46.6923070788110834
 31
0.0
  0
LINE
  5
F1
100
AcDbEntity
  8
Step_3_4
 62
256
370
-1
 48
1.0
  6
BYLAYER
100
AcDbLine
 10
-2.876000785660779
 20
-46.6923070788110834
 30
0.0
 11
-2.8760007856607785
 21
-58.3292394295656536
 31
0.0
  0
LINE
  5
F2
100
AcDbEntity
  8
Step_3_4
 62
256
370
-1
 48
1.0
  6
BYLAYER
100
AcDbLine
 10
-2.9856170265009832
 20
30.7829504255209727
 30
0.0
 11
-2.9856170265009827
 21
19.1460180747664026
 31
0.0
  0
HATCH
  5
F3
100
AcDbEntity
  8
Step_3_4
 62
256
370
-1
 48
1.0
  6
BYLAYER
100
AcDbHatch
 10
0.0
 20
0.0
 30
0.0
210
0.0
220
0.0
230
1.0
  2
ACAD_ISO02W100
 70
0
 71
0
 91
1
 92
1
 93
4
 72
1
 10
-2.876000785660779
 20
-46.6923070788110834
 11
-2.8760007856607785
 21
-58.3292394295656536
 72
1
 10
-2.8760007856607785
 20
-58.3292394295656536
 11
3.1239992143392215
 21
-58.3292394295656536
 72
1
 10
3.1239992143392215
 20
-58.3292394295656536
 11
3.123999214339221
 21
-46.6923070788110834
 72
1
 10
3.123999214339221
 20
-46.6923070788110834
 11
-2.876000785660779
 21
-46.6923070788110834
 97
0
 75
0
 76
1
 52
45.0
 41
0.2
 77
0
 78
1
 53
45.0
 43
0.0
 44
0.0
 45
-0.0883883476483184
 46
0.0883883476483185
 79
0
 98
0
1001
ACAD
1010
0.0
1020
0.0
1030
0
  0
LINE
  5
F4
100
AcDbEntity
  8
Step_3_4
 62
256
370
-1
 48
1.0
  6
BYLAYER
100
AcDbLine
 10
-44.5
 20
18.0000000316552544
 30
0.0
 11
44.5212157262588235
 21
17.9964623552874343
 31
0.0
  0
LINE
  5
F5
100
AcDbEntity
  8
Step_3_4
 62
256
370
-1
 48
1.0
  6
BYLAYER
100
AcDbLine
 10
-44.3509749857662001
 20
-59.5259337388197949
 30
0.0
 11
44.6490250142337999
 21
-59.5259337388197949
 31
0.0
  0
LINE
  5
F6
100
AcDbEntity
  8
Step_3_4
 62
256
370
-1
 48
1.0
  6
BYLAYER
100
AcDbLine
 10
-38.3629595373908785
 20
-57.5259337388153114
 30
0.0
 11
38.6944738017763825
 21
-57.5259337388153114
 31
0.0
  0
HATCH
  5
F7
100
AcDbEntity
  8
Step_3_4
 62
256
370
-1
 48
1.0
  6
BYLAYER
100
AcDbHatch
 10
0.0
 20
0.0
 30
0.0
210
0.0
220
0.0
230
1.0
  2
SOLID
 70
1
 71
0
 91
1
 92
1
 93
5
 72
1
 10
-42.4975247809447154
 20
-59.1183494977453066
 11
-1.0572917377293303
 21
-45.249096845970513
 72
1
 10
-1.057291737729332
 20
-45.249096845970513
 11
-1.057291737729332
 21
-47.278816992025412
 72
1
 10
-1.0572917377293323
 20
-47.278816992025412
 11
0.1178533036776699
 21
-47.2788169920254191
 72
1
 10
0.1178533036776699
 20
-47.278816992025412
 11
0.1178533036776699
 21
-59.1183494977453066
 72
1
 10
0.117853303677669
 20
-59.1183494977453066
 11
-42.4975247809447154
 21
-59.1183494977453066
 97
0
 75
0
 76
1
 98
0
1001
ACAD
1010
0.0
1020
0.0
1030
0
  0
HATCH
  5
F8
100
AcDbEntity
  8
Step_3_4
 62
256
370
-1
 48
1.0
  6
BYLAYER
100
AcDbHatch
 10
0.0
 20
0.0
 30
0.0
210
0.0
220
0.0
230
1.0
  2
SOLID
 70
1
 71
0
 91
1
 92
1
 93
5
 72
1
 10
42.7332313883000552
 20
-59.1183494977453137
 11
1.2929983450846725
 21
-45.249096845970513
 72
1
 10
1.2929983450846725
 20
-45.249096845970513
 11
1.2929983450846732
 21
-47.278816992025412
 72
1
 10
1.2929983450846732
 20
-47.278816992025412
 11
0.1178533036776699
 21
-47.2788169920254191
 72
1
 10
0.1178533036776699
 20
-47.278816992025412
 11
0.1178533036776699
 21
-59.1183494977453066
 72
1
 10
0.117853303677669
 20
-59.1183494977453066
 11
42.7332313883000552
 21
-59.1183494977453137
 97
0
 75
0
 76
1
 98
0
1001
ACAD
1010
0.0
1020
0.0
1030
0
  0
LINE
  5
F9
100
AcDbEntity
  8
Step_3_4
 62
256
370
-1
 48
1.0
  6
BYLAYER
100
AcDbLine
 10
-36.0022668102034942
 20
20.7033425041940475
 30
0.0
 11
-1.2002583170332883
 21
32.3509084837973901
 31
0.0
  0
LINE
  5
FA
100
AcDbEntity
  8
Step_3_4
 62
256
370
-1
 48
1.0
  6
BYLAYER
100
AcDbLine
 10
42.0784556646050092
 20
18.4816558320226001
 30
0.0
 11
1.2064856881113788
 21
32.3460093683266194
 31
0.0
  0
LINE
  5
FB
100
AcDbEntity
  8
Step_3_4
 62
256
370
-1
 48
1.0
  6
BYLAYER
100
AcDbLine
 10
-36.0192430946010091
 20
18.481655832022593
 30
0.0
 11
42.0784556646050163
 21
18.4816558320226001
 31
0.0
  0
LINE
  5
FC
100
AcDbEntity
  8
Step_3_4
 62
256
370
-1
 48
1.0
  6
BYLAYER
100
AcDbLine
 10
-1.2002583170332901
 20
32.3509084837973901
 30
0.0
 11
-1.2002583170332901
 21
30.3211883377424911
 31
0.0
  0
LINE
  5
FD
100
AcDbEntity
  8
Step_3_4
 62
256
370
-1
 48
1.0
  6
BYLAYER
100
AcDbLine
 10
1.2064856881113823
 20
32.3460093683266194
 30
0.0
 11
1.1982422911243802
 21
30.3211883377424769
 31
0.0
  0
LINE
  5
FE
100
AcDbEntity
  8
Step_3_4
 62
256
370
-1
 48
1.0
  6
BYLAYER
100
AcDbLine
 10
-1.2002583170332903
 20
30.3211883377424911
 30
0.0
 11
1.19824229112438
 21
30.321188337742484
 31
0.0
  0
LINE
  5
FF
100
AcDbEntity
  8
Step_3_4
 62
256
370
-1
 48
1.0
  6
BYLAYER
100
AcDbLine
 10
-42.4975247809447154
 20
-59.1183494977453066
 30
0.0
 11
-1.0572917377293303
 21
-45.249096845970513
 31
0.0
  0
LINE
  5
100
100
AcDbEntity
  8
Step_3_4
 62
256
370
-1
 48
1.0
  6
BYLAYER
100
AcDbLine
 10
-42.4975247809447154
 20
-59.1183494977453066
 30
0.0
 11
0.117853303677669
 21
-59.1183494977453066
 31
0.0
  0
LINE
  5
101
100
AcDbEntity
  8
Step_3_4
 62
256
370
-1
 48
1.0
  6
BYLAYER
100
AcDbLine
 10
-1.057291737729332
 20
-45.249096845970513
 30
0.0
 11
-1.057291737729332
 21
-47.278816992025412
 31
0.0
  0
LINE
  5
102
100
AcDbEntity
  8
Step_3_4
 62
256
370
-1
 48
1.0
  6
BYLAYER
100
AcDbLine
 10
-1.0572917377293323
 20
-47.278816992025412
 30
0.0
 11
0.1178533036776699
 21
-47.2788169920254191
 31
0.0
  0
LINE
  5
103
100
AcDbEntity
  8
Step_3_4
 62
7
420
16777215
370
-1
 48
1.0
  6
BYLAYER
100
AcDbLine
 10
0.1178533036776699
 20
-59.1183494977453066
 30
0.0
 11
0.1178533036776699
 21
-47.278816992025412
 31
0.0
  0
LINE
  5
104
100
AcDbEntity
  8
Step_3_4
 62
256
370
-1
 48
1.0
  6
BYLAYER
100
AcDbLine
 10
1.2929983450846725
 20
-45.249096845970513
 30
0.0
 11
1.2929983450846732
 21
-47.278816992025412
 31
0.0
  0
LINE
  5
105
100
AcDbEntity
  8
Step_3_4
 62
256
370
-1
 48
1.0
  6
BYLAYER
100
AcDbLine
 10
1.2929983450846732
 20
-47.278816992025412
 30
0.0
 11
0.1178533036776699
 21
-47.2788169920254191
 31
0.0
  0
LINE
  5
106
100
AcDbEntity
  8
Step_3_4
 62
256
370
-1
 48
1.0
  6
BYLAYER
100
AcDbLine
 10
42.7332313883000552
 20
-59.1183494977453137
 30
0.0
 11
1.2929983450846725
 21
-45.249096845970513
 31
0.0
  0
LINE
  5
107
100
AcDbEntity
  8
Step_3_4
 62
256
370
-1
 48
1.0
  6
BYLAYER
100
AcDbLine
 10
42.7332313883000552
 20
-59.1183494977453137
 30
0.0
 11
0.117853303677669
 21
-59.1183494977453066
 31
0.0
  0
LINE
  5
108
100
AcDbEntity
  8
Step_3_4
 62
7
420
16777215
370
-1
 48
1.0
  6
BYLAYER
100
AcDbLine
 10
0.1178533036776699
 20
-59.1183494977453066
 30
0.0
 11
0.1178533036776699
 21
-47.278816992025412
 31
0.0
  0
LINE
  5
109
100
AcDbEntity
  8
Step_3_4
 62
256
370
-1
 48
1.0
  6
BYLAYER
100
AcDbLine
 10
-36.0192430946010163
 20
18.481655832022593
 30
0.0
 11
-36.0022668102035013
 21
20.7033425041940475
 31
0.0
  0
HATCH
  5
10A
100
AcDbEntity
  8
Step_3_4
 62
256
370
-1
 48
1.0
  6
BYLAYER
100
AcDbHatch
 10
0.0
 20
0.0
 30
0.0
210
0.0
220
0.0
230
1.0
  2
SOLID
 70
1
 71
0
 91
1
 92
1
 93
7
 72
1
 10
-1.2002583170332903
 20
30.3211883377424911
 11
1.19824229112438
 21
30.321188337742484
 72
1
 10
1.1982422911243802
 20
30.3211883377424769
 11
1.2064856881113823
 21
32.3460093683266194
 72
1
 10
1.2064856881113788
 20
32.3460093683266194
 11
42.0784556646050092
 21
18.4816558320226001
 72
1
 10
42.0784556646050163
 20
18.4816558320226001
 11
-36.0192430946010091
 21
18.481655832022593
 72
1
 10
-36.0192430946010163
 20
18.481655832022593
 11
-36.0022668102035013
 21
20.7033425041940475
 72
1
 10
-36.0022668102034942
 20
20.7033425041940475
 11
-1.2002583170332883
 21
32.3509084837973901
 72
1
 10
-1.2002583170332901
 20
32.3509084837973901
 11
-1.2002583170332901
 21
30.3211883377424911
 97
0
 75
0
 76
1
 98
0
1001
ACAD
1010
0.0
1020
0.0
1030
0
  0
MTEXT
  5
10B
100
AcDbEntity
  8
Step_3_4
 62
256
370
-1
 48
1.0
  6
BYLAYER
100
AcDbMText
 10
23.0545670094486042
 20
11.8557764428746495
 30
0.0
 40
3.0
 41
0.0
 71
1
 72
1
  1
\fDejaVu Sans|b0|i0|c0|p0;\H4;3.1
  7
textstyle5
 50
0.0
 73
2
 44
1.0
  0
MTEXT
  5
10C
100
AcDbEntity
  8
Step_3_4
 62
256
370
-1
 48
1.0
  6
BYLAYER
100
AcDbMText
 10
-32.7117924253089427
 20
-65.3299255066268074
 30
0.0
 40
3.0
 41
0.0
 71
1
 72
1
  1
\fDejaVu Sans|b0|i0|c0|p0;\H4;3.2
  7
textstyle6
 50
0.0
 73
2
 44
1.0
  0
CIRCLE
  5
10D
100
AcDbEntity
  8
Step_3_4
 62
256
370
-1
 48
1.0
  6
BYLAYER
100
AcDbCircle
 10
26.6815582394269661
 20
9.5285328645543874
 30
0.0
 40
5.8519665448695806
  0
CIRCLE
  5
10E
100
AcDbEntity
  8
Step_3_4
 62
256
370
-1
 48
1.0
  6
BYLAYER
100
AcDbCircle
 10
-29.0848011953305807
 20
-67.6571690849470713
 30
0.0
 40
5.8519665448695806
  0
LEADER
  5
10F
100
AcDbEntity
  8
Step_3_4
 62
256
370
-1
 48
1.0
  6
BYLAYER
100
AcDbLeader
  3
Standard
 71
1
 72
0
 73
3
 74
0
 75
0
 40
1.0
 41
10.0
 76
3
 10
11.0
 20
18.5
 10
17.4685136336365083
 20
9.4499999999999993
 10
20.8300379424273352
 20
9.4499999999999993
1001
ACAD
1000
DSTYLE
1002
{
1070
40
1040
1.0
1002
}
  0
LEADER
  5
110
100
AcDbEntity
  8
Step_3_4
 62
256
370
-1
 48
1.0
  6
BYLAYER
100
AcDbLeader
  3
Standard
 71
1
 72
0
 73
3
 74
0
 75
0
 40
1.0
 41
10.0
 76
3
 10
-40.0
 20
-59.1183494977453066
 10
-37.0
 20
-67.625
 10
-34.9366839324600065
 20
-67.625
1001
ACAD
1000
DSTYLE
1002
{
1070
40
1040
1.0
1002
}
  0
ENDSEC
  0
SECTION
  2
OBJECTS
  0
DICTIONARY
  5
C
100
AcDbDictionary
280
0
281
1
  3
ACAD_GROUP
350
D
  3
ACAD_LAYOUT
350
1A
  3
ACAD_MLINESTYLE
350
17
  3
ACAD_PLOTSETTINGS
350
19
  3
ACAD_PLOTSTYLENAME
350
E
  3
AcDbVariableDictionary
350
111
  3
QCAD_OBJECTS
350
112
  0
DICTIONARY
  5
D
100
AcDbDictionary
280
0
281
1
  0
ACDBDICTIONARYWDFLT
  5
E
100
AcDbDictionary
281
1
  3
Normal
350
F
100
AcDbDictionaryWithDefault
340
F
  0
ACDBPLACEHOLDER
  5
F
  0
DICTIONARY
  5
17
100
AcDbDictionary
280
0
281
1
  3
Standard
350
18
  0
MLINESTYLE
  5
18
100
AcDbMlineStyle
  2
STANDARD
 70
0
  3

 62
256
 51
90.0
 52
90.0
 71
2
 49
0.5
 62
256
  6
BYLAYER
 49
-0.5
 62
256
  6
BYLAYER
  0
DICTIONARY
  5
19
100
AcDbDictionary
280
0
281
1
  0
DICTIONARY
  5
1A
100
AcDbDictionary
281
1
  3
Layout1
350
1E
  3
Layout2
350
26
  3
Model
350
22
  0
LAYOUT
  5
1E
100
AcDbPlotSettings
  1

  2
none_device
  4

  6

 40
0.0
 41
0.0
 42
0.0
 43
0.0
 44
0.0
 45
0.0
 46
0.0
 47
0.0
 48
0.0
 49
0.0
140
0.0
141
0.0
142
1.0
143
1.0
 70
688
 72
0
 73
0
 74
5
  7

 75
16
147
1.0
148
0.0
149
0.0
100
AcDbLayout
  1
Layout1
 70
1
 71
1
 10
0.0
 20
0.0
 11
420.0
 21
297.0
 12
0.0
 22
0.0
 32
0.0
 14
100000000000000000000.0
 24
100000000000000000000.0
 34
100000000000000000000.0
 15
-100000000000000000000.0
 25
-100000000000000000000.0
 35
-100000000000000000000.0
146
0.0
 13
0.0
 23
0.0
 33
0.0
 16
1.0
 26
0.0
 36
0.0
 17
0.0
 27
1.0
 37
0.0
 76
0
330
1B
  0
LAYOUT
  5
22
100
AcDbPlotSettings
  1

  2
none_device
  4

  6

 40
0.0
 41
0.0
 42
0.0
 43
0.0
 44
0.0
 45
0.0
 46
0.0
 47
0.0
 48
0.0
 49
0.0
140
0.0
141
0.0
142
1.0
143
1.0
 70
1712
 72
0
 73
0
 74
0
  7

 75
0
147
1.0
148
0.0
149
0.0
100
AcDbLayout
  1
Model
 70
1
 71
0
 10
0.0
 20
0.0
 11
12.0
 21
9.0
 12
0.0
 22
0.0
 32
0.0
 14
0.0
 24
0.0
 34
0.0
 15
0.0
 25
0.0
 35
0.0
146
0.0
 13
0.0
 23
0.0
 33
0.0
 16
1.0
 26
0.0
 36
0.0
 17
0.0
 27
1.0
 37
0.0
 76
0
330
1F
  0
LAYOUT
  5
26
100
AcDbPlotSettings
  1

  2
none_device
  4

  6

 40
0.0
 41
0.0
 42
0.0
 43
0.0
 44
0.0
 45
0.0
 46
0.0
 47
0.0
 48
0.0
 49
0.0
140
0.0
141
0.0
142
1.0
143
1.0
 70
688
 72
0
 73
0
 74
5
  7

 75
16
147
1.0
148
0.0
149
0.0
100
AcDbLayout
  1
Layout2
 70
1
 71
2
 10
0.0
 20
0.0
 11
12.0
 21
9.0
 12
0.0
 22
0.0
 32
0.0
 14
0.0
 24
0.0
 34
0.0
 15
0.0
 25
0.0
 35
0.0
146
0.0
 13
0.0
 23
0.0
 33
0.0
 16
1.0
 26
0.0
 36
0.0
 17
0.0
 27
1.0
 37
0.0
 76
0
330
23
  0
DICTIONARY
  5
111
100
AcDbDictionary
281
1
  3
DIMASSOC
350
114
  3
HIDETEXT
350
113
  0
DICTIONARYVAR
  5
113
100
DictionaryVariables
280
0
  1
2
  0
DICTIONARYVAR
  5
114
100
DictionaryVariables
280
0
  1
1
  0
DICTIONARY
  5
112
100
AcDbDictionary
281
1
  3
ColorSettings/BackgroundColor
350
115
  3
ColorSettings/ColorMode
350
116
  3
DimensionSettings/AngularFormat
350
117
  3
DimensionSettings/AngularPrecision
350
118
  3
DimensionSettings/DecimalPoint
350
119
  3
DimensionSettings/DimensionFont
350
11A
  3
DimensionSettings/DimensionTextColor
350
11B
  3
DimensionSettings/KeepProportions
350
11C
  3
DimensionSettings/LinearFormat
350
11D
  3
DimensionSettings/LinearPrecision
350
11E
  3
Grid/DisplayGrid00
350
11F
  3
Grid/DisplayGrid01
350
120
  3
Grid/DisplayGrid02
350
121
  3
Grid/DisplayGrid03
350
122
  3
Grid/GridSpacingX00
350
123
  3
Grid/GridSpacingX01
350
124
  3
Grid/GridSpacingX02
350
125
  3
Grid/GridSpacingX03
350
126
  3
Grid/GridSpacingY00
350
127
  3
Grid/GridSpacingY01
350
128
  3
Grid/GridSpacingY02
350
129
  3
Grid/GridSpacingY03
350
12A
  3
Grid/IsometricGrid00
350
12B
  3
Grid/IsometricGrid01
350
12C
  3
Grid/IsometricGrid02
350
12D
  3
Grid/IsometricGrid03
350
12E
  3
Grid/IsometricProjection00
350
12F
  3
Grid/IsometricProjection01
350
130
  3
Grid/IsometricProjection02
350
131
  3
Grid/IsometricProjection03
350
132
  3
Grid/MetaGridSpacingX00
350
133
  3
Grid/MetaGridSpacingX01
350
134
  3
Grid/MetaGridSpacingX02
350
135
  3
Grid/MetaGridSpacingX03
350
136
  3
Grid/MetaGridSpacingY00
350
137
  3
Grid/MetaGridSpacingY01
350
138
  3
Grid/MetaGridSpacingY02
350
139
  3
Grid/MetaGridSpacingY03
350
13A
  3
MultiPageSettings/Columns
350
13B
  3
MultiPageSettings/GlueMarginsBottom
350
13C
  3
MultiPageSettings/GlueMarginsLeft
350
13D
  3
MultiPageSettings/GlueMarginsRight
350
13E
  3
MultiPageSettings/GlueMarginsTop
350
13F
  3
MultiPageSettings/PrintCropMarks
350
140
  3
MultiPageSettings/Rows
350
141
  3
PageSettings/OffsetX
350
142
  3
PageSettings/OffsetY
350
143
  3
PageSettings/PageOrientation
350
144
  3
PageSettings/PaperHeight
350
145
  3
PageSettings/PaperSizeAccepted
350
146
  3
PageSettings/PaperSizeName
350
147
  3
PageSettings/PaperWidth
350
148
  3
PageSettings/PointSize
350
149
  3
PageSettings/Scale
350
14A
  3
PageSettings/ShowPaperBorders
350
14B
  3
PageTagSettings/EnablePageTags
350
14C
  3
PageTagSettings/TagAlignment
350
14D
  3
PageTagSettings/TagFont
350
14E
  3
PageTagSettings/TagPosition
350
14F
  3
QCADVersion
350
150
  3
UnitSettings/PaperUnit
350
151
  3
ViewportCenter
350
152
  3
ViewportHeight
350
153
  3
ViewportWidth
350
154
  0
XRECORD
  5
115
330
112
100
AcDbXrecord
280
1
1000
White
  0
XRECORD
  5
116
330
112
100
AcDbXrecord
280
1
1000
FullColor
  0
XRECORD
  5
117
330
112
100
AcDbXrecord
280
1
 90
0
  0
XRECORD
  5
118
330
112
100
AcDbXrecord
280
1
 90
0
  0
XRECORD
  5
119
330
112
100
AcDbXrecord
280
1
 90
46
  0
XRECORD
  5
11A
330
112
100
AcDbXrecord
280
1
1000
DejaVu Sans
  0
XRECORD
  5
11B
330
112
100
AcDbXrecord
280
1
1000
By Layer
  0
XRECORD
  5
11C
330
112
100
AcDbXrecord
280
1
290
0
  0
XRECORD
  5
11D
330
112
100
AcDbXrecord
280
1
 90
3
  0
XRECORD
  5
11E
330
112
100
AcDbXrecord
280
1
 90
4
  0
XRECORD
  5
11F
330
112
100
AcDbXrecord
280
1
290
1
  0
XRECORD
  5
120
330
112
100
AcDbXrecord
280
1
290
1
  0
XRECORD
  5
121
330
112
100
AcDbXrecord
280
1
290
1
  0
XRECORD
  5
122
330
112
100
AcDbXrecord
280
1
290
1
  0
XRECORD
  5
123
330
112
100
AcDbXrecord
280
1
1000
auto
  0
XRECORD
  5
124
330
112
100
AcDbXrecord
280
1
1000
auto
  0
XRECORD
  5
125
330
112
100
AcDbXrecord
280
1
1000
auto
  0
XRECORD
  5
126
330
112
100
AcDbXrecord
280
1
1000
auto
  0
XRECORD
  5
127
330
112
100
AcDbXrecord
280
1
1000
auto
  0
XRECORD
  5
128
330
112
100
AcDbXrecord
280
1
1000
auto
  0
XRECORD
  5
129
330
112
100
AcDbXrecord
280
1
1000
auto
  0
XRECORD
  5
12A
330
112
100
AcDbXrecord
280
1
1000
auto
  0
XRECORD
  5
12B
330
112
100
AcDbXrecord
280
1
290
0
  0
XRECORD
  5
12C
330
112
100
AcDbXrecord
280
1
290
0
  0
XRECORD
  5
12D
330
112
100
AcDbXrecord
280
1
290
0
  0
XRECORD
  5
12E
330
112
100
AcDbXrecord
280
1
290
0
  0
XRECORD
  5
12F
330
112
100
AcDbXrecord
280
1
 90
65537
  0
XRECORD
  5
130
330
112
100
AcDbXrecord
280
1
 90
65537
  0
XRECORD
  5
131
330
112
100
AcDbXrecord
280
1
 90
65537
  0
XRECORD
  5
132
330
112
100
AcDbXrecord
280
1
 90
65537
  0
XRECORD
  5
133
330
112
100
AcDbXrecord
280
1
1000
auto
  0
XRECORD
  5
134
330
112
100
AcDbXrecord
280
1
1000
auto
  0
XRECORD
  5
135
330
112
100
AcDbXrecord
280
1
1000
auto
  0
XRECORD
  5
136
330
112
100
AcDbXrecord
280
1
1000
auto
  0
XRECORD
  5
137
330
112
100
AcDbXrecord
280
1
1000
auto
  0
XRECORD
  5
138
330
112
100
AcDbXrecord
280
1
1000
auto
  0
XRECORD
  5
139
330
112
100
AcDbXrecord
280
1
1000
auto
  0
XRECORD
  5
13A
330
112
100
AcDbXrecord
280
1
1000
auto
  0
XRECORD
  5
13B
330
112
100
AcDbXrecord
280
1
 90
1
  0
XRECORD
  5
13C
330
112
100
AcDbXrecord
280
1
 40
0.5
  0
XRECORD
  5
13D
330
112
100
AcDbXrecord
280
1
 40
0.5
  0
XRECORD
  5
13E
330
112
100
AcDbXrecord
280
1
 40
0.5
  0
XRECORD
  5
13F
330
112
100
AcDbXrecord
280
1
 40
0.5
  0
XRECORD
  5
140
330
112
100
AcDbXrecord
280
1
290
0
  0
XRECORD
  5
141
330
112
100
AcDbXrecord
280
1
 90
1
  0
XRECORD
  5
142
330
112
100
AcDbXrecord
280
1
 40
-64.3341842378874844
  0
XRECORD
  5
143
330
112
100
AcDbXrecord
280
1
 40
-125.8627129715251982
  0
XRECORD
  5
144
330
112
100
AcDbXrecord
280
1
1000
Portrait
  0
XRECORD
  5
145
330
112
100
AcDbXrecord
280
1
1000
9
  0
XRECORD
  5
146
330
112
100
AcDbXrecord
280
1
290
1
  0
XRECORD
  5
147
330
112
100
AcDbXrecord
280
1
1000
Custom
  0
XRECORD
  5
148
330
112
100
AcDbXrecord
280
1
1000
6.5
  0
XRECORD
  5
149
330
112
100
AcDbXrecord
280
1
1000
0.5
  0
XRECORD
  5
14A
330
112
100
AcDbXrecord
280
1
1000
0.05
  0
XRECORD
  5
14B
330
112
100
AcDbXrecord
280
1
290
1
  0
XRECORD
  5
14C
330
112
100
AcDbXrecord
280
1
290
0
  0
XRECORD
  5
14D
330
112
100
AcDbXrecord
280
1
1000
Inside
  0
XRECORD
  5
14E
330
112
100
AcDbXrecord
280
1
1000
Arial,10,-1,5,50,0,0,0,0,0
  0
XRECORD
  5
14F
330
112
100
AcDbXrecord
280
1
1000
TopLeft
  0
XRECORD
  5
150
330
112
100
AcDbXrecord
280
1
1000
3.32.6
  0
XRECORD
  5
151
330
112
100
AcDbXrecord
280
1
 90
1
  0
XRECORD
  5
153
330
112
100
AcDbXrecord
280
1
 40
202.7535168464721096
  0
XRECORD
  5
154
330
112
100
AcDbXrecord
280
1
 40
216.2439661082725877
  0
ENDSEC
  0
EOF
