999
dxflib 3.26.4.0
  0
SECTION
  2
HEADER
  9
$ACADVER
  1
AC1015
  9
$HANDSEED
  5
FFFF
  9
$DIMADEC
 70
0
  9
$DIMASZ
 40
2.5
  9
$DIMATFIT
 70
0
  9
$DIMAUNIT
 70
0
  9
$DIMAZIN
 70
2
  9
$DIMBLK
  1
0
  9
$DIMBLK1
  1
0
  9
$DIMBLK2
  1
0
  9
$DIMDEC
 70
4
  9
$DIMDLI
 40
5.0
  9
$DIMDSEP
 70
46
  9
$DIMEXE
 40
1.25
  9
$DIMEXO
 40
0.625
  9
$DIMGAP
 40
0.625
  9
$DIMLFAC
 40
0.0
  9
$DIMLUNIT
 70
2
  9
$DIMSCALE
 40
1.0
  9
$DIMTAD
 70
1
  9
$DIMTIH
 70
0
  9
$DIMTSZ
 40
0.0
  9
$DIMTXT
 40
2.5
  9
$DIMZIN
 70
8
  9
$DWGCODEPAGE
  3
ANSI_1252
  9
$INSUNITS
 70
1
  9
$LTSCALE
 40
1.0
  9
$MAXACTVP
 70
64
  9
$MEASUREMENT
 70
1
  9
$MIRRTEXT
 70
0
  9
$PDMODE
 70
0
  9
$PDSIZE
 40
0.0
  0
ENDSEC
  0
SECTION
  2
TABLES
  0
TABLE
  2
VPORT
  5
8
100
AcDbSymbolTable
 70
1
  0
VPORT
  5
30
100
AcDbSymbolTableRecord
100
AcDbViewportTableRecord
  2
*Active
 70
0
 10
0.0
 20
0.0
 11
1.0
 21
1.0
 12
286.3055555555554861
 22
148.5
 13
0.0
 23
0.0
 14
10.0
 24
10.0
 15
10.0
 25
10.0
 16
0.0
 26
0.0
 36
1.0
 17
0.0
 27
0.0
 37
0.0
 40
297.0
 41
1.92798353909465
 42
50.0
 43
0.0
 44
0.0
 50
0.0
 51
0.0
 71
0
 72
100
 73
1
 74
3
 75
1
 76
1
 77
0
 78
0
281
0
 65
1
110
0.0
120
0.0
130
0.0
111
1.0
121
0.0
131
0.0
112
0.0
122
1.0
132
0.0
 79
0
146
0.0
  0
ENDTAB
  0
TABLE
  2
LTYPE
  5
5
100
AcDbSymbolTable
 70
41
  0
LTYPE
  5
16
100
AcDbSymbolTableRecord
100
AcDbLinetypeTableRecord
  2
Continuous
 70
0
  3
Solid line
 72
65
 73
0
 40
0.0
  0
LTYPE
  5
31
100
AcDbSymbolTableRecord
100
AcDbLinetypeTableRecord
  2
CENTERX2
 70
0
  3
Center (2x) ________  __  ________  __  _____
 72
65
 73
4
 40
4.0
 49
2.5
 74
0
 49
-0.5
 74
0
 49
0.5
 74
0
 49
-0.5
 74
0
  0
LTYPE
  5
32
100
AcDbSymbolTableRecord
100
AcDbLinetypeTableRecord
  2
ACAD_ISO14W100
 70
0
  3
ISO dash triple-dot __ . . . __ . . . __ . . . _
 72
65
 73
8
 40
24.0000000000000036
 49
12.0
 74
0
 49
-2.9500000000000002
 74
0
 49
0.1
 74
0
 49
-2.9000000000000004
 74
0
 49
0.1
 74
0
 49
-2.9000000000000004
 74
0
 49
0.1
 74
0
 49
-2.9500000000000002
 74
0
  0
LTYPE
  5
33
100
AcDbSymbolTableRecord
100
AcDbLinetypeTableRecord
  2
ACAD_ISO08W100
 70
0
  3
ISO long-dash short-dash ____ __ ____ __ ____ _
 72
65
 73
4
 40
36.0
 49
24.0
 74
0
 49
-3.0
 74
0
 49
6.0
 74
0
 49
-3.0
 74
0
  0
LTYPE
  5
14
100
AcDbSymbolTableRecord
100
AcDbLinetypeTableRecord
  2
BYBLOCK
 70
0
  3

 72
65
 73
0
 40
0.0
  0
LTYPE
  5
34
100
AcDbSymbolTableRecord
100
AcDbLinetypeTableRecord
  2
ACAD_ISO05W100
 70
0
  3
ISO long-dash double-dot ____ .. ____ .. ____ . 
 72
65
 73
6
 40
33.0000000000000071
 49
24.0
 74
0
 49
-2.9500000000000002
 74
0
 49
0.1
 74
0
 49
-2.9000000000000004
 74
0
 49
0.1
 74
0
 49
-2.9500000000000002
 74
0
  0
LTYPE
  5
35
100
AcDbSymbolTableRecord
100
AcDbLinetypeTableRecord
  2
PHANTOMX2
 70
0
  3
Phantom (2x) ____________    ____    ____   _
 72
65
 73
6
 40
5.0
 49
2.5
 74
0
 49
-0.5
 74
0
 49
0.5
 74
0
 49
-0.5
 74
0
 49
0.5
 74
0
 49
-0.5
 74
0
  0
LTYPE
  5
36
100
AcDbSymbolTableRecord
100
AcDbLinetypeTableRecord
  2
HIDDEN2
 70
0
  3
Hidden (.5x) _ _ _ _ _ _ _ _ _ _ _ _ _ _ _ _ _ 
 72
65
 73
2
 40
0.1875
 49
0.125
 74
0
 49
-0.0625
 74
0
  0
LTYPE
  5
37
100
AcDbSymbolTableRecord
100
AcDbLinetypeTableRecord
  2
ACAD_ISO02W100
 70
0
  3
ISO dash __ __ __ __ __ __ __ __ __ __ __ __ __
 72
65
 73
2
 40
15.0
 49
12.0
 74
0
 49
-3.0
 74
0
  0
LTYPE
  5
38
100
AcDbSymbolTableRecord
100
AcDbLinetypeTableRecord
  2
DIVIDE
 70
0
  3
Divide ____ . . ____ . . ____ . . ____ . . ____
 72
65
 73
6
 40
1.25
 49
0.5
 74
0
 49
-0.2
 74
0
 49
0.1
 74
0
 49
-0.15
 74
0
 49
0.1
 74
0
 49
-0.2
 74
0
  0
LTYPE
  5
39
100
AcDbSymbolTableRecord
100
AcDbLinetypeTableRecord
  2
ACAD_ISO13W100
 70
0
  3
ISO double-dash double-dot __ __ . . __ __ . . _
 72
65
 73
8
 40
36.0000000000000071
 49
12.0
 74
0
 49
-3.0
 74
0
 49
12.0
 74
0
 49
-2.9500000000000002
 74
0
 49
0.1
 74
0
 49
-2.9000000000000004
 74
0
 49
0.1
 74
0
 49
-2.9500000000000002
 74
0
  0
LTYPE
  5
3A
100
AcDbSymbolTableRecord
100
AcDbLinetypeTableRecord
  2
DASHED2
 70
0
  3
Dashed (.5x) _ _ _ _ _ _ _ _ _ _ _ _ _ _ _ _ _ 
 72
65
 73
2
 40
0.375
 49
0.25
 74
0
 49
-0.125
 74
0
  0
LTYPE
  5
3B
100
AcDbSymbolTableRecord
100
AcDbLinetypeTableRecord
  2
ACAD_ISO06W100
 70
0
  3
ISO long-dash triple-dot ____ ... ____ ... ____
 72
65
 73
8
 40
36.0000000000000071
 49
24.0
 74
0
 49
-2.9500000000000002
 74
0
 49
0.1
 74
0
 49
-2.9000000000000004
 74
0
 49
0.1
 74
0
 49
-2.9000000000000004
 74
0
 49
0.1
 74
0
 49
-2.9500000000000002
 74
0
  0
LTYPE
  5
3C
100
AcDbSymbolTableRecord
100
AcDbLinetypeTableRecord
  2
DOT2
 70
0
  3
Dot (.5x) ........................................
 72
65
 73
2
 40
0.125
 49
0.1
 74
0
 49
-0.025
 74
0
  0
LTYPE
  5
3D
100
AcDbSymbolTableRecord
100
AcDbLinetypeTableRecord
  2
ACAD_ISO09W100
 70
0
  3
ISO long-dash double-short-dash ____ __ __ ____
 72
65
 73
6
 40
45.0
 49
24.0
 74
0
 49
-3.0
 74
0
 49
6.0
 74
0
 49
-3.0
 74
0
 49
6.0
 74
0
 49
-3.0
 74
0
  0
LTYPE
  5
3E
100
AcDbSymbolTableRecord
100
AcDbLinetypeTableRecord
  2
ACAD_ISO10W100
 70
0
  3
ISO dash dot __ . __ . __ . __ . __ . __ . __ . 
 72
65
 73
4
 40
18.0
 49
12.0
 74
0
 49
-2.9500000000000002
 74
0
 49
0.1
 74
0
 49
-2.9500000000000002
 74
0
  0
LTYPE
  5
3F
100
AcDbSymbolTableRecord
100
AcDbLinetypeTableRecord
  2
CENTER
 70
0
  3
Center ____ _ ____ _ ____ _ ____ _ ____ _ ____
 72
65
 73
4
 40
2.0
 49
1.25
 74
0
 49
-0.25
 74
0
 49
0.25
 74
0
 49
-0.25
 74
0
  0
LTYPE
  5
40
100
AcDbSymbolTableRecord
100
AcDbLinetypeTableRecord
  2
HIDDENX2
 70
0
  3
Hidden (2x) ____ ____ ____ ____ ____ ____ ____ 
 72
65
 73
2
 40
0.75
 49
0.5
 74
0
 49
-0.25
 74
0
  0
LTYPE
  5
41
100
AcDbSymbolTableRecord
100
AcDbLinetypeTableRecord
  2
DASHDOT
 70
0
  3
Dash dot __ . __ . __ . __ . __ . __ . __ . __
 72
65
 73
4
 40
1.0
 49
0.5
 74
0
 49
-0.2
 74
0
 49
0.1
 74
0
 49
-0.2
 74
0
  0
LTYPE
  5
42
100
AcDbSymbolTableRecord
100
AcDbLinetypeTableRecord
  2
DOTX2
 70
0
  3
Dot (2x) .  .  .  .  .  .  .  .  .  .  .  .  .  .
 72
65
 73
2
 40
0.5
 49
0.1
 74
0
 49
-0.4
 74
0
  0
LTYPE
  5
43
100
AcDbSymbolTableRecord
100
AcDbLinetypeTableRecord
  2
DASHDOTX2
 70
0
  3
Dash dot (2x) ____  .  ____  .  ____  .  ___
 72
65
 73
4
 40
2.0
 49
1.0
 74
0
 49
-0.45
 74
0
 49
0.1
 74
0
 49
-0.45
 74
0
  0
LTYPE
  5
44
100
AcDbSymbolTableRecord
100
AcDbLinetypeTableRecord
  2
BORDER2
 70
0
  3
Border (.5x) __.__.__.__.__.__.__.__.__.__.__.
 72
65
 73
6
 40
0.8749999999999999
 49
0.25
 74
0
 49
-0.125
 74
0
 49
0.25
 74
0
 49
-0.075
 74
0
 49
0.1
 74
0
 49
-0.075
 74
0
  0
LTYPE
  5
45
100
AcDbSymbolTableRecord
100
AcDbLinetypeTableRecord
  2
DASHEDX2
 70
0
  3
Dashed (2x) ____  ____  ____  ____  ____  ___
 72
65
 73
2
 40
1.5
 49
1.0
 74
0
 49
-0.5
 74
0
  0
LTYPE
  5
46
100
AcDbSymbolTableRecord
100
AcDbLinetypeTableRecord
  2
BORDERX2
 70
0
  3
Border (2x) ____  ____  .  ____  ____  .  ___
 72
65
 73
6
 40
3.5000000000000004
 49
1.0
 74
0
 49
-0.5
 74
0
 49
1.0
 74
0
 49
-0.45
 74
0
 49
0.1
 74
0
 49
-0.45
 74
0
  0
LTYPE
  5
47
100
AcDbSymbolTableRecord
100
AcDbLinetypeTableRecord
  2
PHANTOM2
 70
0
  3
Phantom (.5x) ___ _ _ ___ _ _ ___ _ _ ___ _ _
 72
65
 73
6
 40
1.25
 49
0.625
 74
0
 49
-0.125
 74
0
 49
0.125
 74
0
 49
-0.125
 74
0
 49
0.125
 74
0
 49
-0.125
 74
0
  0
LTYPE
  5
48
100
AcDbSymbolTableRecord
100
AcDbLinetypeTableRecord
  2
ACAD_ISO04W100
 70
0
  3
ISO long-dash dot ____ . ____ . ____ . ____ . _
 72
65
 73
4
 40
30.0
 49
24.0
 74
0
 49
-2.9500000000000002
 74
0
 49
0.1
 74
0
 49
-2.9500000000000002
 74
0
  0
LTYPE
  5
49
100
AcDbSymbolTableRecord
100
AcDbLinetypeTableRecord
  2
ACAD_ISO11W100
 70
0
  3
ISO double-dash dot __ __ . __ __ . __ __ . __ _
 72
65
 73
6
 40
33.0
 49
12.0
 74
0
 49
-3.0
 74
0
 49
12.0
 74
0
 49
-2.9500000000000002
 74
0
 49
0.1
 74
0
 49
-2.9500000000000002
 74
0
  0
LTYPE
  5
4A
100
AcDbSymbolTableRecord
100
AcDbLinetypeTableRecord
  2
ACAD_ISO12W100
 70
0
  3
ISO dash double-dot __ . . __ . . __ . . __ . . 
 72
65
 73
6
 40
21.0
 49
12.0
 74
0
 49
-2.9500000000000002
 74
0
 49
0.1
 74
0
 49
-2.9000000000000004
 74
0
 49
0.1
 74
0
 49
-2.9500000000000002
 74
0
  0
LTYPE
  5
4B
100
AcDbSymbolTableRecord
100
AcDbLinetypeTableRecord
  2
CENTER2
 70
0
  3
Center (.5x) ___ _ ___ _ ___ _ ___ _ ___ _ ___
 72
65
 73
4
 40
1.125
 49
0.75
 74
0
 49
-0.125
 74
0
 49
0.125
 74
0
 49
-0.125
 74
0
  0
LTYPE
  5
4C
100
AcDbSymbolTableRecord
100
AcDbLinetypeTableRecord
  2
DIVIDEX2
 70
0
  3
Divide (2x) ________  .  .  ________  .  .  _
 72
65
 73
6
 40
2.5000000000000004
 49
1.0
 74
0
 49
-0.45
 74
0
 49
0.1
 74
0
 49
-0.4
 74
0
 49
0.1
 74
0
 49
-0.45
 74
0
  0
LTYPE
  5
4D
100
AcDbSymbolTableRecord
100
AcDbLinetypeTableRecord
  2
DASHED
 70
0
  3
Dashed __ __ __ __ __ __ __ __ __ __ __ __ __ _
 72
65
 73
2
 40
0.75
 49
0.5
 74
0
 49
-0.25
 74
0
  0
LTYPE
  5
15
100
AcDbSymbolTableRecord
100
AcDbLinetypeTableRecord
  2
BYLAYER
 70
0
  3

 72
65
 73
0
 40
0.0
  0
LTYPE
  5
4E
100
AcDbSymbolTableRecord
100
AcDbLinetypeTableRecord
  2
HIDDEN
 70
0
  3
Hidden __ __ __ __ __ __ __ __ __ __ __ __ __ __
 72
65
 73
2
 40
0.375
 49
0.25
 74
0
 49
-0.125
 74
0
  0
LTYPE
  5
4F
100
AcDbSymbolTableRecord
100
AcDbLinetypeTableRecord
  2
PHANTOM
 70
0
  3
Phantom ______  __  __  ______  __  __  ______ 
 72
65
 73
6
 40
2.5
 49
1.25
 74
0
 49
-0.25
 74
0
 49
0.25
 74
0
 49
-0.25
 74
0
 49
0.25
 74
0
 49
-0.25
 74
0
  0
LTYPE
  5
50
100
AcDbSymbolTableRecord
100
AcDbLinetypeTableRecord
  2
ACAD_ISO15W100
 70
0
  3
ISO double-dash triple-dot __ __ . . . __ __ . .
 72
65
 73
10
 40
39.0000000000000071
 49
12.0
 74
0
 49
-3.0
 74
0
 49
12.0
 74
0
 49
-2.9500000000000002
 74
0
 49
0.1
 74
0
 49
-2.9000000000000004
 74
0
 49
0.1
 74
0
 49
-2.9000000000000004
 74
0
 49
0.1
 74
0
 49
-2.9500000000000002
 74
0
  0
LTYPE
  5
51
100
AcDbSymbolTableRecord
100
AcDbLinetypeTableRecord
  2
ACAD_ISO03W100
 70
0
  3
ISO dash space __    __    __    __    __    __
 72
65
 73
2
 40
30.0
 49
12.0
 74
0
 49
-18.0
 74
0
  0
LTYPE
  5
52
100
AcDbSymbolTableRecord
100
AcDbLinetypeTableRecord
  2
DOT
 70
0
  3
Dot . . . . . . . . . . . . . . . . . . . . . . . .
 72
65
 73
2
 40
0.25
 49
0.1
 74
0
 49
-0.15
 74
0
  0
LTYPE
  5
53
100
AcDbSymbolTableRecord
100
AcDbLinetypeTableRecord
  2
DIVIDE2
 70
0
  3
Divide (.5x) __..__..__..__..__..__..__..__.._
 72
65
 73
6
 40
0.625
 49
0.25
 74
0
 49
-0.075
 74
0
 49
0.1
 74
0
 49
-0.025
 74
0
 49
0.1
 74
0
 49
-0.075
 74
0
  0
LTYPE
  5
54
100
AcDbSymbolTableRecord
100
AcDbLinetypeTableRecord
  2
BORDER
 70
0
  3
Border __ __ . __ __ . __ __ . __ __ . __ __ .
 72
65
 73
6
 40
1.75
 49
0.5
 74
0
 49
-0.25
 74
0
 49
0.5
 74
0
 49
-0.2
 74
0
 49
0.1
 74
0
 49
-0.2
 74
0
  0
LTYPE
  5
55
100
AcDbSymbolTableRecord
100
AcDbLinetypeTableRecord
  2
DASHDOT2
 70
0
  3
Dash dot (.5x) _._._._._._._._._._._._._._._.
 72
65
 73
4
 40
0.5
 49
0.25
 74
0
 49
-0.075
 74
0
 49
0.1
 74
0
 49
-0.075
 74
0
  0
LTYPE
  5
56
100
AcDbSymbolTableRecord
100
AcDbLinetypeTableRecord
  2
ACAD_ISO07W100
 70
0
  3
ISO dot . . . . . . . . . . . . . . . . . . . . 
 72
65
 73
2
 40
3.0
 49
0.1
 74
0
 49
-2.8999999999999999
 74
0
  0
ENDTAB
  0
TABLE
  2
LAYER
  5
2
100
AcDbSymbolTable
 70
12
  0
LAYER
  5
57
100
AcDbSymbolTableRecord
100
AcDbLayerTableRecord
  2
7_Front_Trim_B
 70
1
 62
7
420
0
  6
Continuous
370
25
390
F
  0
LAYER
  5
58
100
AcDbSymbolTableRecord
100
AcDbLayerTableRecord
  2
4b_Triangle_Trim
 70
1
 62
7
420
0
  6
Continuous
370
25
390
F
  0
LAYER
  5
59
100
AcDbSymbolTableRecord
100
AcDbLayerTableRecord
  2
0_Panel_layer1-3
 70
1
 62
7
420
0
  6
Continuous
370
25
390
F
  0
LAYER
  5
5A
100
AcDbSymbolTableRecord
100
AcDbLayerTableRecord
  2
8_Panel_layer_9
 70
1
 62
7
420
0
  6
Continuous
370
25
390
F
  0
LAYER
  5
5B
100
AcDbSymbolTableRecord
100
AcDbLayerTableRecord
  2
4_Horizontal_Trim
 70
1
 62
7
420
0
  6
Continuous
370
25
390
F
  0
LAYER
  5
5C
100
AcDbSymbolTableRecord
100
AcDbLayerTableRecord
  2
5_Panel_layer_6&7
 70
0
 62
7
420
0
  6
Continuous
370
25
390
F
  0
LAYER
  5
5D
100
AcDbSymbolTableRecord
100
AcDbLayerTableRecord
  2
3_Vertical_Trim
 70
1
 62
7
420
0
  6
Continuous
370
25
390
F
  0
LAYER
  5
10
100
AcDbSymbolTableRecord
100
AcDbLayerTableRecord
  2
0
 70
0
 62
7
420
16777215
  6
Continuous
370
25
390
F
  0
LAYER
  5
5E
100
AcDbSymbolTableRecord
100
AcDbLayerTableRecord
  2
6_Front_Trim_A
 70
1
 62
7
420
0
  6
Continuous
370
25
390
F
  0
LAYER
  5
5F
100
AcDbSymbolTableRecord
100
AcDbLayerTableRecord
  2
9_Final_trim
 70
1
 62
7
420
0
  6
Continuous
370
25
390
F
  0
LAYER
  5
60
100
AcDbSymbolTableRecord
100
AcDbLayerTableRecord
  2
1_Baseboards
 70
1
 62
7
420
0
  6
Continuous
370
25
390
F
  0
LAYER
  5
61
100
AcDbSymbolTableRecord
100
AcDbLayerTableRecord
  2
2_Top_Trim
 70
1
 62
7
420
0
  6
Continuous
370
25
390
F
  0
ENDTAB
  0
TABLE
  2
STYLE
  5
3
100
AcDbSymbolTable
 70
73
  0
STYLE
  5
62
100
AcDbSymbolTableRecord
100
AcDbTextStyleTableRecord
  2
Standard
 70
0
 40
0.0
 41
1.0
 50
0.0
 71
0
 42
2.5
  3

  4

1001
ACAD
1000
txt
1071
0
  0
STYLE
  5
63
100
AcDbSymbolTableRecord
100
AcDbTextStyleTableRecord
  2
textstyle0
 70
0
 40
0.0
 41
1.0
 50
0.0
 71
0
 42
3.0
  3

  4

1001
ACAD
1000
Liberation Sans
1071
0
  0
STYLE
  5
64
100
AcDbSymbolTableRecord
100
AcDbTextStyleTableRecord
  2
textstyle1
 70
0
 40
0.0
 41
1.0
 50
0.0
 71
0
 42
3.0
  3

  4

1001
ACAD
1000
Liberation Sans
1071
0
  0
STYLE
  5
65
100
AcDbSymbolTableRecord
100
AcDbTextStyleTableRecord
  2
textstyle2
 70
0
 40
0.0
 41
1.0
 50
0.0
 71
0
 42
3.0
  3

  4

1001
ACAD
1000
Liberation Sans
1071
0
  0
STYLE
  5
66
100
AcDbSymbolTableRecord
100
AcDbTextStyleTableRecord
  2
textstyle3
 70
0
 40
0.0
 41
1.0
 50
0.0
 71
0
 42
3.0
  3

  4

1001
ACAD
1000
textstyle20
1071
0
  0
STYLE
  5
67
100
AcDbSymbolTableRecord
100
AcDbTextStyleTableRecord
  2
textstyle4
 70
0
 40
0.0
 41
1.0
 50
0.0
 71
0
 42
3.0
  3

  4

1001
ACAD
1000
Liberation Sans
1071
0
  0
STYLE
  5
68
100
AcDbSymbolTableRecord
100
AcDbTextStyleTableRecord
  2
textstyle5
 70
0
 40
0.0
 41
1.0
 50
0.0
 71
0
 42
3.0
  3

  4

1001
ACAD
1000
Liberation Sans
1071
0
  0
STYLE
  5
69
100
AcDbSymbolTableRecord
100
AcDbTextStyleTableRecord
  2
textstyle6
 70
0
 40
0.0
 41
1.0
 50
0.0
 71
0
 42
3.0
  3

  4

1001
ACAD
1000
textstyle22
1071
0
  0
STYLE
  5
6A
100
AcDbSymbolTableRecord
100
AcDbTextStyleTableRecord
  2
textstyle7
 70
0
 40
0.0
 41
1.0
 50
0.0
 71
0
 42
3.0
  3

  4

1001
ACAD
1000
Liberation Sans
1071
0
  0
STYLE
  5
6B
100
AcDbSymbolTableRecord
100
AcDbTextStyleTableRecord
  2
textstyle8
 70
0
 40
0.0
 41
1.0
 50
0.0
 71
0
 42
3.0
  3

  4

1001
ACAD
1000
Liberation Sans
1071
0
  0
STYLE
  5
6C
100
AcDbSymbolTableRecord
100
AcDbTextStyleTableRecord
  2
textstyle9
 70
0
 40
0.0
 41
1.0
 50
0.0
 71
0
 42
3.0
  3

  4

1001
ACAD
1000
textstyle31
1071
0
  0
STYLE
  5
6D
100
AcDbSymbolTableRecord
100
AcDbTextStyleTableRecord
  2
textstyle10
 70
0
 40
0.0
 41
1.0
 50
0.0
 71
0
 42
3.0
  3

  4

1001
ACAD
1000
Liberation Sans
1071
0
  0
STYLE
  5
6E
100
AcDbSymbolTableRecord
100
AcDbTextStyleTableRecord
  2
textstyle11
 70
0
 40
0.0
 41
1.0
 50
0.0
 71
0
 42
3.0
  3

  4

1001
ACAD
1000
Liberation Sans
1071
0
  0
STYLE
  5
6F
100
AcDbSymbolTableRecord
100
AcDbTextStyleTableRecord
  2
textstyle12
 70
0
 40
0.0
 41
1.0
 50
0.0
 71
0
 42
3.0
  3

  4

1001
ACAD
1000
Liberation Sans
1071
0
  0
STYLE
  5
70
100
AcDbSymbolTableRecord
100
AcDbTextStyleTableRecord
  2
textstyle13
 70
0
 40
0.0
 41
1.0
 50
0.0
 71
0
 42
3.0
  3

  4

1001
ACAD
1000
Liberation Sans
1071
0
  0
STYLE
  5
71
100
AcDbSymbolTableRecord
100
AcDbTextStyleTableRecord
  2
textstyle14
 70
0
 40
0.0
 41
1.0
 50
0.0
 71
0
 42
3.0
  3

  4

1001
ACAD
1000
Liberation Sans
1071
0
  0
STYLE
  5
72
100
AcDbSymbolTableRecord
100
AcDbTextStyleTableRecord
  2
textstyle15
 70
0
 40
0.0
 41
1.0
 50
0.0
 71
0
 42
3.0
  3

  4

1001
ACAD
1000
Liberation Sans
1071
0
  0
STYLE
  5
73
100
AcDbSymbolTableRecord
100
AcDbTextStyleTableRecord
  2
textstyle16
 70
0
 40
0.0
 41
1.0
 50
0.0
 71
0
 42
3.0
  3

  4

1001
ACAD
1000
Liberation Sans
1071
0
  0
STYLE
  5
74
100
AcDbSymbolTableRecord
100
AcDbTextStyleTableRecord
  2
textstyle17
 70
0
 40
0.0
 41
1.0
 50
0.0
 71
0
 42
3.0
  3

  4

1001
ACAD
1000
Liberation Sans
1071
0
  0
STYLE
  5
75
100
AcDbSymbolTableRecord
100
AcDbTextStyleTableRecord
  2
textstyle18
 70
0
 40
0.0
 41
1.0
 50
0.0
 71
0
 42
3.0
  3

  4

1001
ACAD
1000
textstyle37
1071
0
  0
STYLE
  5
76
100
AcDbSymbolTableRecord
100
AcDbTextStyleTableRecord
  2
textstyle19
 70
0
 40
0.0
 41
1.0
 50
0.0
 71
0
 42
3.0
  3

  4

1001
ACAD
1000
Liberation Sans
1071
0
  0
STYLE
  5
77
100
AcDbSymbolTableRecord
100
AcDbTextStyleTableRecord
  2
textstyle20
 70
0
 40
0.0
 41
1.0
 50
0.0
 71
0
 42
3.0
  3

  4

1001
ACAD
1000
textstyle40
1071
0
  0
STYLE
  5
78
100
AcDbSymbolTableRecord
100
AcDbTextStyleTableRecord
  2
textstyle21
 70
0
 40
0.0
 41
1.0
 50
0.0
 71
0
 42
3.0
  3

  4

1001
ACAD
1000
Liberation Sans
1071
0
  0
STYLE
  5
79
100
AcDbSymbolTableRecord
100
AcDbTextStyleTableRecord
  2
textstyle22
 70
0
 40
0.0
 41
1.0
 50
0.0
 71
0
 42
3.0
  3

  4

1001
ACAD
1000
Liberation Sans
1071
0
  0
STYLE
  5
7A
100
AcDbSymbolTableRecord
100
AcDbTextStyleTableRecord
  2
textstyle23
 70
0
 40
0.0
 41
1.0
 50
0.0
 71
0
 42
3.0
  3

  4

1001
ACAD
1000
textstyle34
1071
0
  0
STYLE
  5
7B
100
AcDbSymbolTableRecord
100
AcDbTextStyleTableRecord
  2
textstyle24
 70
0
 40
0.0
 41
1.0
 50
0.0
 71
0
 42
3.0
  3

  4

1001
ACAD
1000
textstyle48
1071
0
  0
STYLE
  5
7C
100
AcDbSymbolTableRecord
100
AcDbTextStyleTableRecord
  2
textstyle25
 70
0
 40
0.0
 41
1.0
 50
0.0
 71
0
 42
3.0
  3

  4

1001
ACAD
1000
textstyle44
1071
0
  0
STYLE
  5
7D
100
AcDbSymbolTableRecord
100
AcDbTextStyleTableRecord
  2
textstyle26
 70
0
 40
0.0
 41
1.0
 50
0.0
 71
0
 42
3.0
  3

  4

1001
ACAD
1000
Liberation Sans
1071
0
  0
STYLE
  5
7E
100
AcDbSymbolTableRecord
100
AcDbTextStyleTableRecord
  2
textstyle27
 70
0
 40
0.0
 41
1.0
 50
0.0
 71
0
 42
3.0
  3

  4

1001
ACAD
1000
Liberation Sans
1071
0
  0
STYLE
  5
7F
100
AcDbSymbolTableRecord
100
AcDbTextStyleTableRecord
  2
textstyle28
 70
0
 40
0.0
 41
1.0
 50
0.0
 71
0
 42
3.0
  3

  4

1001
ACAD
1000
Liberation Sans
1071
0
  0
STYLE
  5
80
100
AcDbSymbolTableRecord
100
AcDbTextStyleTableRecord
  2
textstyle29
 70
0
 40
0.0
 41
1.0
 50
0.0
 71
0
 42
3.0
  3

  4

1001
ACAD
1000
Liberation Sans
1071
0
  0
STYLE
  5
81
100
AcDbSymbolTableRecord
100
AcDbTextStyleTableRecord
  2
textstyle30
 70
0
 40
0.0
 41
1.0
 50
0.0
 71
0
 42
3.0
  3

  4

1001
ACAD
1000
Liberation Sans
1071
0
  0
STYLE
  5
82
100
AcDbSymbolTableRecord
100
AcDbTextStyleTableRecord
  2
textstyle31
 70
0
 40
0.0
 41
1.0
 50
0.0
 71
0
 42
3.0
  3

  4

1001
ACAD
1000
Liberation Sans
1071
0
  0
STYLE
  5
83
100
AcDbSymbolTableRecord
100
AcDbTextStyleTableRecord
  2
textstyle32
 70
0
 40
0.0
 41
1.0
 50
0.0
 71
0
 42
3.0
  3

  4

1001
ACAD
1000
Liberation Sans
1071
0
  0
STYLE
  5
84
100
AcDbSymbolTableRecord
100
AcDbTextStyleTableRecord
  2
textstyle33
 70
0
 40
0.0
 41
1.0
 50
0.0
 71
0
 42
3.0
  3

  4

1001
ACAD
1000
Liberation Sans
1071
0
  0
STYLE
  5
85
100
AcDbSymbolTableRecord
100
AcDbTextStyleTableRecord
  2
textstyle34
 70
0
 40
0.0
 41
1.0
 50
0.0
 71
0
 42
3.0
  3

  4

1001
ACAD
1000
Liberation Sans
1071
0
  0
STYLE
  5
86
100
AcDbSymbolTableRecord
100
AcDbTextStyleTableRecord
  2
textstyle35
 70
0
 40
0.0
 41
1.0
 50
0.0
 71
0
 42
3.0
  3

  4

1001
ACAD
1000
Liberation Sans
1071
0
  0
STYLE
  5
87
100
AcDbSymbolTableRecord
100
AcDbTextStyleTableRecord
  2
textstyle36
 70
0
 40
0.0
 41
1.0
 50
0.0
 71
0
 42
3.0
  3

  4

1001
ACAD
1000
textstyle58
1071
0
  0
STYLE
  5
88
100
AcDbSymbolTableRecord
100
AcDbTextStyleTableRecord
  2
textstyle37
 70
0
 40
0.0
 41
1.0
 50
0.0
 71
0
 42
3.0
  3

  4

1001
ACAD
1000
Liberation Sans
1071
0
  0
STYLE
  5
89
100
AcDbSymbolTableRecord
100
AcDbTextStyleTableRecord
  2
textstyle38
 70
0
 40
0.0
 41
1.0
 50
0.0
 71
0
 42
3.0
  3

  4

1001
ACAD
1000
Liberation Sans
1071
0
  0
STYLE
  5
8A
100
AcDbSymbolTableRecord
100
AcDbTextStyleTableRecord
  2
textstyle39
 70
0
 40
0.0
 41
1.0
 50
0.0
 71
0
 42
3.0
  3

  4

1001
ACAD
1000
textstyle59
1071
0
  0
STYLE
  5
8B
100
AcDbSymbolTableRecord
100
AcDbTextStyleTableRecord
  2
textstyle40
 70
0
 40
0.0
 41
1.0
 50
0.0
 71
0
 42
3.0
  3

  4

1001
ACAD
1000
Liberation Sans
1071
0
  0
STYLE
  5
8C
100
AcDbSymbolTableRecord
100
AcDbTextStyleTableRecord
  2
textstyle41
 70
0
 40
0.0
 41
1.0
 50
0.0
 71
0
 42
3.0
  3

  4

1001
ACAD
1000
Liberation Sans
1071
0
  0
STYLE
  5
8D
100
AcDbSymbolTableRecord
100
AcDbTextStyleTableRecord
  2
textstyle42
 70
0
 40
0.0
 41
1.0
 50
0.0
 71
0
 42
3.0
  3

  4

1001
ACAD
1000
Liberation Sans
1071
0
  0
STYLE
  5
8E
100
AcDbSymbolTableRecord
100
AcDbTextStyleTableRecord
  2
textstyle43
 70
0
 40
0.0
 41
1.0
 50
0.0
 71
0
 42
3.0
  3

  4

1001
ACAD
1000
textstyle65
1071
0
  0
STYLE
  5
8F
100
AcDbSymbolTableRecord
100
AcDbTextStyleTableRecord
  2
textstyle44
 70
0
 40
0.0
 41
1.0
 50
0.0
 71
0
 42
3.0
  3

  4

1001
ACAD
1000
Liberation Sans
1071
0
  0
STYLE
  5
90
100
AcDbSymbolTableRecord
100
AcDbTextStyleTableRecord
  2
textstyle45
 70
0
 40
0.0
 41
1.0
 50
0.0
 71
0
 42
3.0
  3

  4

1001
ACAD
1000
Liberation Sans
1071
0
  0
STYLE
  5
91
100
AcDbSymbolTableRecord
100
AcDbTextStyleTableRecord
  2
textstyle46
 70
0
 40
0.0
 41
1.0
 50
0.0
 71
0
 42
3.0
  3

  4

1001
ACAD
1000
Liberation Sans
1071
0
  0
STYLE
  5
92
100
AcDbSymbolTableRecord
100
AcDbTextStyleTableRecord
  2
textstyle47
 70
0
 40
0.0
 41
1.0
 50
0.0
 71
0
 42
3.0
  3

  4

1001
ACAD
1000
Liberation Sans
1071
0
  0
STYLE
  5
93
100
AcDbSymbolTableRecord
100
AcDbTextStyleTableRecord
  2
textstyle48
 70
0
 40
0.0
 41
1.0
 50
0.0
 71
0
 42
3.0
  3

  4

1001
ACAD
1000
textstyle14
1071
0
  0
STYLE
  5
94
100
AcDbSymbolTableRecord
100
AcDbTextStyleTableRecord
  2
textstyle49
 70
0
 40
0.0
 41
1.0
 50
0.0
 71
0
 42
1.0
  3

  4

1001
ACAD
1000
Liberation Sans
1071
0
  0
STYLE
  5
95
100
AcDbSymbolTableRecord
100
AcDbTextStyleTableRecord
  2
textstyle50
 70
0
 40
0.0
 41
1.0
 50
0.0
 71
0
 42
3.0
  3

  4

1001
ACAD
1000
Liberation Sans
1071
0
  0
STYLE
  5
96
100
AcDbSymbolTableRecord
100
AcDbTextStyleTableRecord
  2
textstyle51
 70
0
 40
0.0
 41
1.0
 50
0.0
 71
0
 42
3.0
  3

  4

1001
ACAD
1000
Liberation Sans
1071
0
  0
STYLE
  5
97
100
AcDbSymbolTableRecord
100
AcDbTextStyleTableRecord
  2
textstyle52
 70
0
 40
0.0
 41
1.0
 50
0.0
 71
0
 42
3.0
  3

  4

1001
ACAD
1000
Nimbus Sans [UKWN]
1071
0
  0
STYLE
  5
98
100
AcDbSymbolTableRecord
100
AcDbTextStyleTableRecord
  2
textstyle53
 70
0
 40
0.0
 41
1.0
 50
0.0
 71
0
 42
3.0
  3

  4

1001
ACAD
1000
Liberation Sans
1071
0
  0
STYLE
  5
99
100
AcDbSymbolTableRecord
100
AcDbTextStyleTableRecord
  2
textstyle54
 70
0
 40
0.0
 41
1.0
 50
0.0
 71
0
 42
3.0
  3

  4

1001
ACAD
1000
textstyle44
1071
0
  0
STYLE
  5
9A
100
AcDbSymbolTableRecord
100
AcDbTextStyleTableRecord
  2
textstyle55
 70
0
 40
0.0
 41
1.0
 50
0.0
 71
0
 42
3.0
  3

  4

1001
ACAD
1000
textstyle1
1071
0
  0
STYLE
  5
9B
100
AcDbSymbolTableRecord
100
AcDbTextStyleTableRecord
  2
textstyle56
 70
0
 40
0.0
 41
1.0
 50
0.0
 71
0
 42
3.0
  3

  4

1001
ACAD
1000
Liberation Sans
1071
0
  0
STYLE
  5
9C
100
AcDbSymbolTableRecord
100
AcDbTextStyleTableRecord
  2
textstyle57
 70
0
 40
0.0
 41
1.0
 50
0.0
 71
0
 42
3.0
  3

  4

1001
ACAD
1000
Liberation Sans
1071
0
  0
STYLE
  5
9D
100
AcDbSymbolTableRecord
100
AcDbTextStyleTableRecord
  2
textstyle58
 70
0
 40
0.0
 41
1.0
 50
0.0
 71
0
 42
3.0
  3

  4

1001
ACAD
1000
Liberation Sans
1071
0
  0
STYLE
  5
9E
100
AcDbSymbolTableRecord
100
AcDbTextStyleTableRecord
  2
textstyle59
 70
0
 40
0.0
 41
1.0
 50
0.0
 71
0
 42
3.0
  3

  4

1001
ACAD
1000
Liberation Sans
1071
0
  0
STYLE
  5
9F
100
AcDbSymbolTableRecord
100
AcDbTextStyleTableRecord
  2
textstyle60
 70
0
 40
0.0
 41
1.0
 50
0.0
 71
0
 42
3.0
  3

  4

1001
ACAD
1000
Liberation Sans
1071
0
  0
STYLE
  5
A0
100
AcDbSymbolTableRecord
100
AcDbTextStyleTableRecord
  2
textstyle61
 70
0
 40
0.0
 41
1.0
 50
0.0
 71
0
 42
3.0
  3

  4

1001
ACAD
1000
Liberation Sans
1071
0
  0
STYLE
  5
A1
100
AcDbSymbolTableRecord
100
AcDbTextStyleTableRecord
  2
textstyle62
 70
0
 40
0.0
 41
1.0
 50
0.0
 71
0
 42
3.0
  3

  4

1001
ACAD
1000
textstyle62
1071
0
  0
STYLE
  5
A2
100
AcDbSymbolTableRecord
100
AcDbTextStyleTableRecord
  2
textstyle63
 70
0
 40
0.0
 41
1.0
 50
0.0
 71
0
 42
3.0
  3

  4

1001
ACAD
1000
Liberation Sans
1071
0
  0
STYLE
  5
A3
100
AcDbSymbolTableRecord
100
AcDbTextStyleTableRecord
  2
textstyle64
 70
0
 40
0.0
 41
1.0
 50
0.0
 71
0
 42
3.0
  3

  4

1001
ACAD
1000
Liberation Sans
1071
0
  0
STYLE
  5
A4
100
AcDbSymbolTableRecord
100
AcDbTextStyleTableRecord
  2
textstyle65
 70
0
 40
0.0
 41
1.0
 50
0.0
 71
0
 42
3.0
  3

  4

1001
ACAD
1000
textstyle64
1071
0
  0
STYLE
  5
A5
100
AcDbSymbolTableRecord
100
AcDbTextStyleTableRecord
  2
textstyle66
 70
0
 40
0.0
 41
1.0
 50
0.0
 71
0
 42
3.0
  3

  4

1001
ACAD
1000
Liberation Sans
1071
0
  0
STYLE
  5
A6
100
AcDbSymbolTableRecord
100
AcDbTextStyleTableRecord
  2
textstyle67
 70
0
 40
0.0
 41
1.0
 50
0.0
 71
0
 42
3.0
  3

  4

1001
ACAD
1000
Liberation Sans
1071
0
  0
STYLE
  5
A7
100
AcDbSymbolTableRecord
100
AcDbTextStyleTableRecord
  2
textstyle68
 70
0
 40
0.0
 41
1.0
 50
0.0
 71
0
 42
3.0
  3

  4

1001
ACAD
1000
Liberation Sans
1071
0
  0
STYLE
  5
A8
100
AcDbSymbolTableRecord
100
AcDbTextStyleTableRecord
  2
textstyle69
 70
0
 40
0.0
 41
1.0
 50
0.0
 71
0
 42
3.0
  3

  4

1001
ACAD
1000
Liberation Sans
1071
0
  0
STYLE
  5
A9
100
AcDbSymbolTableRecord
100
AcDbTextStyleTableRecord
  2
textstyle70
 70
0
 40
0.0
 41
1.0
 50
0.0
 71
0
 42
3.0
  3

  4

1001
ACAD
1000
Liberation Sans
1071
0
  0
STYLE
  5
AA
100
AcDbSymbolTableRecord
100
AcDbTextStyleTableRecord
  2
textstyle71
 70
0
 40
0.0
 41
1.0
 50
0.0
 71
0
 42
3.0
  3

  4

1001
ACAD
1000
Liberation Sans
1071
0
  0
ENDTAB
  0
TABLE
  2
VIEW
  5
6
100
AcDbSymbolTable
 70
0
  0
ENDTAB
  0
TABLE
  2
UCS
  5
7
100
AcDbSymbolTable
 70
0
  0
ENDTAB
  0
TABLE
  2
APPID
  5
9
100
AcDbSymbolTable
 70
1
  0
APPID
  5
12
100
AcDbSymbolTableRecord
100
AcDbRegAppTableRecord
  2
ACAD
 70
0
  0
APPID
  5
AB
100
AcDbSymbolTableRecord
100
AcDbRegAppTableRecord
  2
QCAD
 70
0
  0
ENDTAB
  0
TABLE
  2
DIMSTYLE
  5
A
100
AcDbSymbolTable
 70
1
100
AcDbDimStyleTable
 71
0
  0
DIMSTYLE
105
27
100
AcDbSymbolTableRecord
100
AcDbDimStyleTableRecord
  2
Standard
 41
2.5
 42
0.625
 43
3.75
 44
1.25
 70
0
 73
0
 74
0
 77
1
 78
8
140
2.5
141
2.5
143
0.03937007874016
147
0.625
171
3
172
1
271
2
272
2
274
3
278
44
283
0
284
8
340
62
  0
ENDTAB
  0
TABLE
  2
BLOCK_RECORD
  5
1
100
AcDbSymbolTable
 70
1
  0
BLOCK_RECORD
  5
1F
100
AcDbSymbolTableRecord
100
AcDbBlockTableRecord
  2
*Model_Space
340
22
  0
BLOCK_RECORD
  5
1B
100
AcDbSymbolTableRecord
100
AcDbBlockTableRecord
  2
*Paper_Space
340
1E
  0
BLOCK_RECORD
  5
23
100
AcDbSymbolTableRecord
100
AcDbBlockTableRecord
  2
*Paper_Space0
340
26
  0
ENDTAB
  0
ENDSEC
  0
SECTION
  2
BLOCKS
  0
BLOCK
  5
20
100
AcDbEntity
  8
0
100
AcDbBlockBegin
  2
*Model_Space
 70
0
 10
0.0
 20
0.0
 30
0.0
  3
*Model_Space
  1

  0
ENDBLK
  5
21
100
AcDbEntity
  8
0
100
AcDbBlockEnd
  0
BLOCK
  5
1C
100
AcDbEntity
 67
1
  8
0
100
AcDbBlockBegin
  2
*Paper_Space
 70
0
 10
0.0
 20
0.0
 30
0.0
  3
*Paper_Space
  1

  0
ENDBLK
  5
1D
100
AcDbEntity
 67
1
  8
0
100
AcDbBlockEnd
  0
BLOCK
  5
24
100
AcDbEntity
  8
0
100
AcDbBlockBegin
  2
*Paper_Space0
 70
0
 10
0.0
 20
0.0
 30
0.0
  3
*Paper_Space0
  1

  0
ENDBLK
  5
25
100
AcDbEntity
  8
0
100
AcDbBlockEnd
  0
ENDSEC
  0
SECTION
  2
ENTITIES
  0
LINE
  5
AC
100
AcDbEntity
  8
4_Horizontal_Trim
 62
256
370
-1
 48
1.0
  6
BYLAYER
100
AcDbLine
 10
44.1714856894090673
 20
99.3711030965830844
 30
0.0
 11
44.1706741222187986
 21
185.3715183072982597
 31
0.0
  0
HATCH
  5
AD
100
AcDbEntity
  8
7_Front_Trim_B
 62
9
420
12632256
370
-1
 48
1.0
  6
BYLAYER
100
AcDbHatch
 10
0.0
 20
0.0
 30
0.0
210
0.0
220
0.0
230
1.0
  2
SOLID
 70
1
 71
0
 91
1
 92
1
 93
4
 72
1
 10
98.7776957580797728
 20
136.4471028449928838
 11
98.7776957580797728
 21
132.9471028449928838
 72
1
 10
98.7776957580797728
 20
132.9471028449928838
 11
51.916211915825663
 21
132.9471028449928838
 72
1
 10
51.916211915825663
 20
132.9471028449928838
 11
51.916211915825663
 21
136.4471028449928838
 72
1
 10
51.916211915825663
 20
136.4471028449928838
 11
98.7776957580797728
 21
136.4471028449928838
 97
0
 75
0
 76
1
 98
0
1001
ACAD
1010
0.0
1020
0.0
1030
0
  0
HATCH
  5
AE
100
AcDbEntity
  8
7_Front_Trim_B
 62
9
420
12632256
370
-1
 48
1.0
  6
BYLAYER
100
AcDbHatch
 10
0.0
 20
0.0
 30
0.0
210
0.0
220
0.0
230
1.0
  2
SOLID
 70
1
 71
0
 91
1
 92
1
 93
10
 72
1
 10
56.6457998122637605
 20
175.9471028449925711
 11
56.6457998122637605
 21
176.4471028449925711
 72
1
 10
56.6457998122637605
 20
176.4471028449925711
 11
57.1457998122637605
 21
176.4471028449925711
 72
1
 10
57.1457998122637605
 20
176.4471028449925711
 11
57.1457998122636468
 21
212.4471028449925711
 72
1
 10
57.1457998122636468
 20
212.4471028449925711
 11
57.1457998122636468
 21
216.4471028449927985
 72
1
 10
57.1457998122636468
 20
216.4471028449927985
 11
52.0207998122636397
 21
216.4471028449927985
 72
1
 10
52.0207998122636397
 20
216.4471028449925711
 11
52.0207998122636397
 21
136.4471028470206875
 72
1
 10
52.0207998122636397
 20
136.4471028470206875
 11
57.145799812263931
 21
136.4471028470206875
 72
1
 10
57.145799812263931
 20
136.4471028470206875
 11
57.1457998122637889
 21
172.4471028449925711
 72
1
 10
57.1457998122637889
 20
172.4471028449925711
 11
56.6457998122637889
 21
172.4471028449925711
 72
1
 10
56.6457998122637605
 20
172.4471028449925711
 11
56.6457998122637605
 21
175.9471028449925711
 97
0
 75
0
 76
1
 98
0
1001
ACAD
1010
0.0
1020
0.0
1030
0
  0
HATCH
  5
AF
100
AcDbEntity
  8
4_Horizontal_Trim
 62
9
420
12632256
370
-1
 48
1.0
  6
BYLAYER
100
AcDbHatch
 10
0.0
 20
0.0
 30
0.0
210
0.0
220
0.0
230
1.0
  2
SOLID
 70
1
 71
0
 91
1
 92
1
 93
4
 72
1
 10
45.1706929997015152
 20
183.3711030965832549
 11
45.1706929997015152
 21
103.3711030965832549
 72
1
 10
45.1706929997015152
 20
103.3711030965832549
 11
43.1706929997015152
 21
103.3711030965832549
 72
1
 10
43.1706929997015152
 20
103.3711030965832549
 11
43.1706929997015152
 21
183.3711030965832549
 72
1
 10
43.1706929997015152
 20
183.3711030965832549
 11
45.1706929997015152
 21
183.3711030965832549
 97
0
 75
0
 76
1
 98
0
1001
ACAD
1010
0.0
1020
0.0
1030
0
  0
HATCH
  5
B0
100
AcDbEntity
  8
4_Horizontal_Trim
 62
252
420
10526884
370
-1
 48
1.0
  6
BYLAYER
100
AcDbHatch
 10
0.0
 20
0.0
 30
0.0
210
0.0
220
0.0
230
1.0
  2
SOLID
 70
1
 71
0
 91
1
 92
1
 93
4
 72
1
 10
45.1706929997015152
 20
183.3711030965832549
 11
45.1706929997015152
 21
102.872461990000005
 72
1
 10
45.1706929997015152
 20
102.872461990000005
 11
43.1706929997015152
 21
102.872461990000005
 72
1
 10
43.1706929997015152
 20
102.872461990000005
 11
43.1706929997015152
 21
183.3711030965832549
 72
1
 10
43.1706929997015152
 20
183.3711030965832549
 11
45.1706929997015152
 21
183.3711030965832549
 97
0
 75
0
 76
1
 98
0
1001
ACAD
1010
0.0
1020
0.0
1030
0
  0
HATCH
  5
B1
100
AcDbEntity
  8
8_Panel_layer_9
 62
9
420
12632256
370
-1
 48
1.0
  6
BYLAYER
100
AcDbHatch
 10
0.0
 20
0.0
 30
0.0
210
0.0
220
0.0
230
1.0
  2
SOLID
 70
1
 71
0
 91
1
 92
1
 93
4
 72
1
 10
51.3178342422838156
 20
315.7616814653695201
 11
51.3178342422838156
 21
235.7616814653695485
 72
1
 10
51.3178342422838156
 20
235.7616814653695485
 11
49.3178342422838156
 21
235.7616814653695485
 72
1
 10
49.3178342422838156
 20
235.7616814653695485
 11
49.3178342422838156
 21
315.7616814653695201
 72
1
 10
49.3178342422838156
 20
315.7616814653695201
 11
51.3178342422838156
 21
315.7616814653695201
 97
0
 75
0
 76
1
 98
0
1001
ACAD
1010
0.0
1020
0.0
1030
0
  0
HATCH
  5
B2
100
AcDbEntity
  8
8_Panel_layer_9
 62
9
420
12632256
370
-1
 48
1.0
  6
BYLAYER
100
AcDbHatch
 10
0.0
 20
0.0
 30
0.0
210
0.0
220
0.0
230
1.0
  2
SOLID
 70
1
 71
0
 91
1
 92
1
 93
4
 72
1
 10
8.3186316503824855
 20
315.7616814653695201
 11
8.3186316503824855
 21
235.7616814653695485
 72
1
 10
8.3186316503824855
 20
235.7616814653695485
 11
6.3186316503824855
 21
235.7616814653695485
 72
1
 10
6.3186316503824855
 20
235.7616814653695485
 11
6.3186316503824855
 21
315.7616814653695201
 72
1
 10
6.3186316503824855
 20
315.7616814653695201
 11
8.3186316503824855
 21
315.7616814653695201
 97
0
 75
0
 76
1
 98
0
1001
ACAD
1010
0.0
1020
0.0
1030
0
  0
LINE
  5
B3
100
AcDbEntity
  8
0_Panel_layer1-3
 62
256
370
-1
 48
1.0
  6
BYLAYER
100
AcDbLine
 10
19.9999999999999964
 20
9.5
 30
0.0
 11
20.0000000000000036
 21
94.9999999999999716
 31
0.0
  0
LINE
  5
B4
100
AcDbEntity
  8
4_Horizontal_Trim
 62
256
370
-1
 48
1.0
  6
BYLAYER
100
AcDbLine
 10
29.9999999999999964
 20
200.0
 30
0.0
 11
30.0000000000000249
 21
285.5
 31
0.0
  0
LINE
  5
B5
100
AcDbEntity
  8
4b_Triangle_Trim
 62
256
370
-1
 48
1.0
  6
BYLAYER
100
AcDbLine
 10
23.672409001182853
 20
112.047523082896376
 30
0.0
 11
23.6724090011828601
 21
197.5475230828963618
 31
0.0
  0
LINE
  5
B6
100
AcDbEntity
  8
0_Panel_layer1-3
 62
256
370
-1
 48
1.0
  6
BYLAYER
100
AcDbLine
 10
19.9999999999999964
 20
9.5
 30
0.0
 11
106.5
 21
9.4999999999999716
 31
0.0
  0
LINE
  5
B7
100
AcDbEntity
  8
5_Panel_layer_6&7
 62
256
370
-1
 48
1.0
  6
BYLAYER
100
AcDbLine
 10
57.6457993472401711
 20
211.9138710176471818
 30
0.0
 11
80.6457993472401711
 21
211.9138710176471818
 31
0.0
  0
LINE
  5
B8
100
AcDbEntity
  8
8_Panel_layer_9
 62
256
370
-1
 48
1.0
  6
BYLAYER
100
AcDbLine
 10
77.0686311864391911
 20
128.2630406773870106
 30
0.0
 11
100.0686311864391911
 21
128.2630406773870106
 31
0.0
  0
LINE
  5
B9
100
AcDbEntity
  8
4_Horizontal_Trim
 62
256
370
-1
 48
1.0
  6
BYLAYER
100
AcDbLine
 10
29.9999999999999964
 20
200.0
 30
0.0
 11
116.5000000000000142
 21
200.0
 31
0.0
  0
LINE
  5
BA
100
AcDbEntity
  8
4b_Triangle_Trim
 62
256
370
-1
 48
1.0
  6
BYLAYER
100
AcDbLine
 10
23.672409001182853
 20
112.047523082896376
 30
0.0
 11
110.1724090011828565
 21
112.0475230828963475
 31
0.0
  0
LINE
  5
BB
100
AcDbEntity
  8
0_Panel_layer1-3
 62
256
370
-1
 48
1.0
  6
BYLAYER
100
AcDbLine
 10
106.5
 20
9.4999999999999716
 30
0.0
 11
106.5
 21
94.9999999999999716
 31
0.0
  0
LINE
  5
BC
100
AcDbEntity
  8
5_Panel_layer_6&7
 62
256
370
-1
 48
1.0
  6
BYLAYER
100
AcDbLine
 10
80.6457993472401711
 20
176.9138710176471818
 30
0.0
 11
57.6457993472401711
 21
176.9138710176471818
 31
0.0
  0
LINE
  5
BD
100
AcDbEntity
  8
8_Panel_layer_9
 62
256
370
-1
 48
1.0
  6
BYLAYER
100
AcDbLine
 10
100.0686311864391911
 20
93.2630406773870106
 30
0.0
 11
77.0686311864391911
 21
93.2630406773870106
 31
0.0
  0
LINE
  5
BE
100
AcDbEntity
  8
4_Horizontal_Trim
 62
256
370
-1
 48
1.0
  6
BYLAYER
100
AcDbLine
 10
116.5000000000000142
 20
200.0
 30
0.0
 11
116.5000000000000142
 21
285.5
 31
0.0
  0
LINE
  5
BF
100
AcDbEntity
  8
4b_Triangle_Trim
 62
256
370
-1
 48
1.0
  6
BYLAYER
100
AcDbLine
 10
110.1724090011828565
 20
112.0475230828963475
 30
0.0
 11
110.1724090011828565
 21
197.5475230828963618
 31
0.0
  0
LINE
  5
C0
100
AcDbEntity
  8
0_Panel_layer1-3
 62
256
370
-1
 48
1.0
  6
BYLAYER
100
AcDbLine
 10
67.25
 20
89.9999999999999716
 30
0.0
 11
90.25
 21
89.9999999999999716
 31
0.0
  0
LINE
  5
C1
100
AcDbEntity
  8
4_Horizontal_Trim
 62
256
370
-1
 48
1.0
  6
BYLAYER
100
AcDbLine
 10
77.2500000000000142
 20
280.5
 30
0.0
 11
100.2500000000000142
 21
280.5
 31
0.0
  0
LINE
  5
C2
100
AcDbEntity
  8
4b_Triangle_Trim
 62
256
370
-1
 48
1.0
  6
BYLAYER
100
AcDbLine
 10
70.9224090011828565
 20
192.5475230828963618
 30
0.0
 11
93.9224090011828565
 21
192.5475230828963618
 31
0.0
  0
LINE
  5
C3
100
AcDbEntity
  8
5_Panel_layer_6&7
 62
256
370
-1
 48
1.0
  6
BYLAYER
100
AcDbLine
 10
57.6457993472401711
 20
193.2766973382613855
 30
0.0
 11
80.6600630416991748
 21
193.2766973382613855
 31
0.0
  0
LINE
  5
C4
100
AcDbEntity
  8
8_Panel_layer_9
 62
256
370
-1
 48
1.0
  6
BYLAYER
100
AcDbLine
 10
77.0686311864391911
 20
109.6258669980012144
 30
0.0
 11
100.0828948808981949
 21
109.6258669980012144
 31
0.0
  0
LINE
  5
C5
100
AcDbEntity
  8
0_Panel_layer1-3
 62
256
370
-1
 48
1.0
  6
BYLAYER
100
AcDbLine
 10
90.25
 20
55.0
 30
0.0
 11
67.25
 21
55.0
 31
0.0
  0
LINE
  5
C6
100
AcDbEntity
  8
4_Horizontal_Trim
 62
256
370
-1
 48
1.0
  6
BYLAYER
100
AcDbLine
 10
100.2500000000000142
 20
245.5000000000000568
 30
0.0
 11
77.2500000000000142
 21
245.5000000000000568
 31
0.0
  0
LINE
  5
C7
100
AcDbEntity
  8
4b_Triangle_Trim
 62
256
370
-1
 48
1.0
  6
BYLAYER
100
AcDbLine
 10
93.9224090011828565
 20
157.5475230828963618
 30
0.0
 11
70.9224090011828565
 21
157.5475230828963618
 31
0.0
  0
LINE
  5
C8
100
AcDbEntity
  8
5_Panel_layer_6&7
 62
256
370
-1
 48
1.0
  6
BYLAYER
100
AcDbLine
 10
57.6567930605965842
 20
193.6860060371896566
 30
0.0
 11
80.6600630416991748
 21
193.6860060371896566
 31
0.0
  0
LINE
  5
C9
100
AcDbEntity
  8
8_Panel_layer_9
 62
256
370
-1
 48
1.0
  6
BYLAYER
100
AcDbLine
 10
77.0796248997956042
 20
110.0351756969294854
 30
0.0
 11
100.0828948808981949
 21
110.0351756969294854
 31
0.0
  0
LINE
  5
CA
100
AcDbEntity
  8
0_Panel_layer1-3
 62
256
370
-1
 48
1.0
  6
BYLAYER
100
AcDbLine
 10
67.25
 20
76.4999999999999716
 30
0.0
 11
67.25
 21
76.4999999999999716
 31
0.0
  0
LINE
  5
CB
100
AcDbEntity
  8
4_Horizontal_Trim
 62
256
370
-1
 48
1.0
  6
BYLAYER
100
AcDbLine
 10
77.2500000000000142
 20
267.0
 30
0.0
 11
77.2500000000000142
 21
267.0
 31
0.0
  0
LINE
  5
CC
100
AcDbEntity
  8
4b_Triangle_Trim
 62
256
370
-1
 48
1.0
  6
BYLAYER
100
AcDbLine
 10
70.9224090011828565
 20
179.0475230828963618
 30
0.0
 11
70.9224090011828565
 21
179.0475230828963618
 31
0.0
  0
LINE
  5
CD
100
AcDbEntity
  8
0_Panel_layer1-3
 62
256
370
-1
 48
1.0
  6
BYLAYER
100
AcDbLine
 10
67.25
 20
71.3628263206142037
 30
0.0
 11
90.2642636944590038
 21
71.3628263206142037
 31
0.0
  0
LINE
  5
CE
100
AcDbEntity
  8
4_Horizontal_Trim
 62
256
370
-1
 48
1.0
  6
BYLAYER
100
AcDbLine
 10
77.2500000000000142
 20
261.8628263206142606
 30
0.0
 11
100.264263694459018
 21
261.8628263206142606
 31
0.0
  0
LINE
  5
CF
100
AcDbEntity
  8
4b_Triangle_Trim
 62
256
370
-1
 48
1.0
  6
BYLAYER
100
AcDbLine
 10
70.9224090011828565
 20
173.9103494035105655
 30
0.0
 11
93.9366726956418603
 21
173.9103494035105655
 31
0.0
  0
LINE
  5
D0
100
AcDbEntity
  8
5_Panel_layer_6&7
 62
256
370
-1
 48
1.0
  6
BYLAYER
100
AcDbLine
 10
57.6457993472401711
 20
193.6860060371896566
 30
0.0
 11
57.6457993472401711
 21
211.9138710176471818
 31
0.0
  0
LINE
  5
D1
100
AcDbEntity
  8
8_Panel_layer_9
 62
256
370
-1
 48
1.0
  6
BYLAYER
100
AcDbLine
 10
77.0686311864391911
 20
110.0351756969294854
 30
0.0
 11
77.0686311864391911
 21
128.2630406773870106
 31
0.0
  0
LINE
  5
D2
100
AcDbEntity
  8
0_Panel_layer1-3
 62
256
370
-1
 48
1.0
  6
BYLAYER
100
AcDbLine
 10
67.2609937133564131
 20
71.7721350195424463
 30
0.0
 11
90.2642636944590038
 21
71.7721350195424463
 31
0.0
  0
LINE
  5
D3
100
AcDbEntity
  8
4_Horizontal_Trim
 62
256
370
-1
 48
1.0
  6
BYLAYER
100
AcDbLine
 10
77.2609937133564273
 20
262.2721350195424748
 30
0.0
 11
100.264263694459018
 21
262.2721350195424748
 31
0.0
  0
LINE
  5
D4
100
AcDbEntity
  8
4b_Triangle_Trim
 62
256
370
-1
 48
1.0
  6
BYLAYER
100
AcDbLine
 10
70.9334027145392696
 20
174.3196581024388365
 30
0.0
 11
93.9366726956418603
 21
174.3196581024388365
 31
0.0
  0
LINE
  5
D5
100
AcDbEntity
  8
5_Panel_layer_6&7
 62
256
370
-1
 48
1.0
  6
BYLAYER
100
AcDbLine
 10
80.6457993472401711
 20
211.9138710176471818
 30
0.0
 11
80.6457993472401711
 21
193.6860060371896566
 31
0.0
  0
LINE
  5
D6
100
AcDbEntity
  8
8_Panel_layer_9
 62
256
370
-1
 48
1.0
  6
BYLAYER
100
AcDbLine
 10
100.0686311864391911
 20
128.2630406773870106
 30
0.0
 11
100.0686311864391911
 21
110.0351756969294854
 31
0.0
  0
LINE
  5
D7
100
AcDbEntity
  8
0_Panel_layer1-3
 62
256
370
-1
 48
1.0
  6
BYLAYER
100
AcDbLine
 10
67.25
 20
76.4999999999999716
 30
0.0
 11
67.25
 21
76.4999999999999716
 31
0.0
  0
LINE
  5
D8
100
AcDbEntity
  8
4_Horizontal_Trim
 62
256
370
-1
 48
1.0
  6
BYLAYER
100
AcDbLine
 10
77.2500000000000142
 20
267.0
 30
0.0
 11
77.2500000000000142
 21
267.0
 31
0.0
  0
LINE
  5
D9
100
AcDbEntity
  8
4b_Triangle_Trim
 62
256
370
-1
 48
1.0
  6
BYLAYER
100
AcDbLine
 10
70.9224090011828565
 20
179.0475230828963618
 30
0.0
 11
70.9224090011828565
 21
179.0475230828963618
 31
0.0
  0
LINE
  5
DA
100
AcDbEntity
  8
0_Panel_layer1-3
 62
256
370
-1
 48
1.0
  6
BYLAYER
100
AcDbLine
 10
67.25
 20
71.7721350195424463
 30
0.0
 11
67.25
 21
89.9999999999999716
 31
0.0
  0
LINE
  5
DB
100
AcDbEntity
  8
4_Horizontal_Trim
 62
256
370
-1
 48
1.0
  6
BYLAYER
100
AcDbLine
 10
77.2500000000000142
 20
262.2721350195424748
 30
0.0
 11
77.2500000000000142
 21
280.5
 31
0.0
  0
LINE
  5
DC
100
AcDbEntity
  8
4b_Triangle_Trim
 62
256
370
-1
 48
1.0
  6
BYLAYER
100
AcDbLine
 10
70.9224090011828565
 20
174.3196581024388365
 30
0.0
 11
70.9224090011828565
 21
192.5475230828963618
 31
0.0
  0
LINE
  5
DD
100
AcDbEntity
  8
0_Panel_layer1-3
 62
256
370
-1
 48
1.0
  6
BYLAYER
100
AcDbLine
 10
90.25
 20
89.9999999999999716
 30
0.0
 11
90.25
 21
71.7721350195424463
 31
0.0
  0
HATCH
  5
DE
100
AcDbEntity
  8
2_Top_Trim
 62
256
370
-1
 48
1.0
  6
BYLAYER
100
AcDbHatch
 10
0.0
 20
0.0
 30
0.0
210
0.0
220
0.0
230
1.0
  2
SOLID
 70
1
 71
0
 91
1
 92
1
 93
4
 72
1
 10
42.0000000032579806
 20
306.4986410999999293
 11
42.0000000032579806
 21
304.4986410999999293
 72
1
 10
42.0000000032579806
 20
304.4986410999999293
 11
136.0
 21
304.4986410999999293
 72
1
 10
136.0
 20
304.4986410999999293
 11
136.0
 21
306.4986410999999293
 72
1
 10
136.0
 20
306.4986410999999293
 11
42.0000000032579806
 21
306.4986410999999293
 97
0
 75
0
 76
1
 98
0
1001
ACAD
1010
0.0
1020
0.0
1030
0
  0
LINE
  5
DF
100
AcDbEntity
  8
5_Panel_layer_6&7
 62
256
370
-1
 48
1.0
  6
BYLAYER
100
AcDbLine
 10
57.6457993472401711
 20
193.2766973382613855
 30
0.0
 11
57.6457993472401711
 21
176.9138710176471818
 31
0.0
  0
LINE
  5
E0
100
AcDbEntity
  8
8_Panel_layer_9
 62
256
370
-1
 48
1.0
  6
BYLAYER
100
AcDbLine
 10
77.0686311864391911
 20
109.6258669980012144
 30
0.0
 11
77.0686311864391911
 21
93.2630406773870106
 31
0.0
  0
HATCH
  5
E1
100
AcDbEntity
  8
4_Horizontal_Trim
 62
9
420
12632256
370
-1
 48
1.0
  6
BYLAYER
100
AcDbHatch
 10
0.0
 20
0.0
 30
0.0
210
0.0
220
0.0
230
1.0
  2
SOLID
 70
1
 71
0
 91
1
 92
1
 93
4
 72
1
 10
42.1714904078001638
 20
185.3724619965832119
 11
42.1714904078001638
 21
183.3724619965832119
 72
1
 10
42.1714904078001638
 20
183.3724619965832119
 11
136.1714904045421974
 21
183.3724619965832119
 72
1
 10
136.1714904045421974
 20
183.3724619965832119
 11
136.1714904045421974
 21
185.3724619965832119
 72
1
 10
136.1714904045421974
 20
185.3724619965832119
 11
42.1714904078001638
 21
185.3724619965832119
 97
0
 75
0
 76
1
 98
0
1001
ACAD
1010
0.0
1020
0.0
1030
0
  0
LINE
  5
E2
100
AcDbEntity
  8
5_Panel_layer_6&7
 62
256
370
-1
 48
1.0
  6
BYLAYER
100
AcDbLine
 10
80.6600630416991748
 20
193.2766973382613855
 30
0.0
 11
80.6457993472401711
 21
176.9138710176471818
 31
0.0
  0
LINE
  5
E3
100
AcDbEntity
  8
8_Panel_layer_9
 62
256
370
-1
 48
1.0
  6
BYLAYER
100
AcDbLine
 10
100.0828948808981949
 20
109.6258669980012144
 30
0.0
 11
100.0686311864391911
 21
93.2630406773870106
 31
0.0
  0
HATCH
  5
E4
100
AcDbEntity
  8
1_Baseboards
 62
256
370
-1
 48
1.0
  6
BYLAYER
100
AcDbHatch
 10
0.0
 20
0.0
 30
0.0
210
0.0
220
0.0
230
1.0
  2
SOLID
 70
1
 71
0
 91
1
 92
1
 93
4
 72
1
 10
0.0
 20
224.5
 11
0.0
 21
220.5
 72
1
 10
0.0
 20
220.5
 11
135.9999999967420194
 21
220.5000000009649739
 72
1
 10
135.9999999967420194
 20
220.5000000009649739
 11
135.9999999967420194
 21
224.5000000009649739
 72
1
 10
135.9999999967420194
 20
224.5000000009649739
 11
0.0
 21
224.5
 97
0
 75
0
 76
1
 98
0
1001
ACAD
1010
0.0
1020
0.0
1030
0
  0
HATCH
  5
E5
100
AcDbEntity
  8
5_Panel_layer_6&7
 62
256
370
-1
 48
1.0
  6
BYLAYER
100
AcDbHatch
 10
0.0
 20
0.0
 30
0.0
210
0.0
220
0.0
230
1.0
  2
JIS_WOOD
 70
0
 71
0
 91
1
 92
1
 93
4
 72
1
 10
57.6457993472401711
 20
193.2766973382613855
 11
80.6600630416991748
 21
193.2766973382613855
 72
1
 10
80.6600630416991748
 20
193.2766973382613855
 11
80.6457993472401711
 21
176.9138710176471818
 72
1
 10
80.6457993472401711
 20
176.9138710176471818
 11
57.6457993472401711
 21
176.9138710176471818
 72
1
 10
57.6457993472401711
 20
176.9138710176471818
 11
57.6457993472401711
 21
193.2766973382613855
 97
0
 75
0
 76
1
 52
0.0
 41
1.0
 77
0
 78
1
 53
45.0
 43
0.0
 44
0.0
 45
-0.0883883476483184
 46
0.0883883476483185
 79
0
 98
0
1001
ACAD
1010
0.0
1020
0.0
1030
0
  0
HATCH
  5
E6
100
AcDbEntity
  8
8_Panel_layer_9
 62
256
370
-1
 48
1.0
  6
BYLAYER
100
AcDbHatch
 10
0.0
 20
0.0
 30
0.0
210
0.0
220
0.0
230
1.0
  2
JIS_WOOD
 70
0
 71
0
 91
1
 92
1
 93
4
 72
1
 10
77.0686311864391911
 20
109.6258669980012144
 11
100.0828948808981949
 21
109.6258669980012144
 72
1
 10
100.0828948808981949
 20
109.6258669980012144
 11
100.0686311864391911
 21
93.2630406773870106
 72
1
 10
100.0686311864391911
 20
93.2630406773870106
 11
77.0686311864391911
 21
93.2630406773870106
 72
1
 10
77.0686311864391911
 20
93.2630406773870106
 11
77.0686311864391911
 21
109.6258669980012144
 97
0
 75
0
 76
1
 52
0.0
 41
1.0
 77
0
 78
1
 53
45.0
 43
0.0
 44
0.0
 45
-0.0883883476483184
 46
0.0883883476483185
 79
0
 98
0
1001
ACAD
1010
0.0
1020
0.0
1030
0
  0
HATCH
  5
E7
100
AcDbEntity
  8
2_Top_Trim
 62
256
370
-1
 48
1.0
  6
BYLAYER
100
AcDbHatch
 10
0.0
 20
0.0
 30
0.0
210
0.0
220
0.0
230
1.0
  2
ACAD_ISO02W100
 70
0
 71
0
 91
1
 92
1
 93
4
 72
1
 10
0.0000000049514548
 20
306.4986410999999293
 11
0.0000000049514406
 21
304.4986410999999293
 72
1
 10
0.0000000049514406
 20
304.4986410999999293
 11
41.9999999999999716
 21
304.4986410999999293
 72
1
 10
41.9999999999999716
 20
304.4986410999999293
 11
41.9999999999999716
 21
306.4986410999999293
 72
1
 10
41.9999999999999716
 20
306.4986410999999293
 11
0.0000000049514548
 21
306.4986410999999293
 97
0
 75
0
 76
1
 52
45.0
 41
0.25
 77
0
 78
1
 53
45.0
 43
0.0
 44
0.0
 45
-0.0883883476483184
 46
0.0883883476483185
 79
0
 98
0
1001
ACAD
1010
0.0
1020
0.0
1030
0
  0
HATCH
  5
E8
100
AcDbEntity
  8
4_Horizontal_Trim
 62
9
420
12632256
370
-1
 48
1.0
  6
BYLAYER
100
AcDbHatch
 10
0.0
 20
0.0
 30
0.0
210
0.0
220
0.0
230
1.0
  2
SOLID
 70
1
 71
0
 91
1
 92
1
 93
4
 72
1
 10
0.1714904127517052
 20
185.3711030965831412
 11
0.171490412751691
 21
183.3711030965831412
 72
1
 10
0.171490412751691
 20
183.3711030965831412
 11
42.1714904078002206
 21
183.3711030965831412
 72
1
 10
42.1714904078002206
 20
183.3711030965831412
 11
42.1714904078002206
 21
185.3711030965831412
 72
1
 10
42.1714904078002206
 20
185.3711030965831412
 11
0.1714904127517052
 21
185.3711030965831412
 97
0
 75
0
 76
1
 98
0
1001
ACAD
1010
0.0
1020
0.0
1030
0
  0
HATCH
  5
E9
100
AcDbEntity
  8
2_Top_Trim
 62
9
420
12632256
370
-1
 48
1.0
  6
BYLAYER
100
AcDbHatch
 10
0.0
 20
0.0
 30
0.0
210
0.0
220
0.0
230
1.0
  2
SOLID
 70
1
 71
0
 91
1
 92
1
 93
4
 72
1
 10
0.0000000000000166
 20
223.9999999966414066
 11
0.0000000000000166
 21
219.9999999966414066
 72
1
 10
0.0000000000000166
 20
219.9999999966414066
 11
135.9999999967420479
 21
219.9999999976063805
 72
1
 10
135.9999999967420479
 20
219.9999999976063805
 11
135.9999999967420479
 21
223.9999999976063805
 72
1
 10
135.9999999967420479
 20
223.9999999976063805
 11
0.0000000000000166
 21
223.9999999966414066
 97
0
 75
0
 76
1
 98
0
1001
ACAD
1010
0.0
1020
0.0
1030
0
  0
HATCH
  5
EA
100
AcDbEntity
  8
4_Horizontal_Trim
 62
9
420
12632256
370
-1
 48
1.0
  6
BYLAYER
100
AcDbHatch
 10
0.0
 20
0.0
 30
0.0
210
0.0
220
0.0
230
1.0
  2
SOLID
 70
1
 71
0
 91
1
 92
1
 93
4
 72
1
 10
0.1714904078002242
 20
102.872461990000005
 11
0.1714904078002242
 21
98.8724619932246185
 72
1
 10
0.1714904078002242
 20
98.8724619932246185
 11
136.1714904045422827
 21
98.8724619941895924
 72
1
 10
136.1714904045422827
 20
98.8724619941895924
 11
136.1714904045422827
 21
102.8724619941895924
 72
1
 10
136.1714904045422827
 20
102.8724619941895924
 11
0.1714904078002242
 21
102.872461990000005
 97
0
 75
0
 76
1
 98
0
1001
ACAD
1010
0.0
1020
0.0
1030
0
  0
LINE
  5
EB
100
AcDbEntity
  8
4_Horizontal_Trim
 62
256
370
-1
 48
1.0
  6
BYLAYER
100
AcDbLine
 10
100.2500000000000142
 20
280.5
 30
0.0
 11
100.2500000000000142
 21
262.2721350195424748
 31
0.0
  0
LINE
  5
EC
100
AcDbEntity
  8
4b_Triangle_Trim
 62
256
370
-1
 48
1.0
  6
BYLAYER
100
AcDbLine
 10
93.9224090011828565
 20
192.5475230828963618
 30
0.0
 11
93.9224090011828565
 21
174.3196581024388365
 31
0.0
  0
HATCH
  5
ED
100
AcDbEntity
  8
3_Vertical_Trim
 62
9
420
12632256
370
-1
 48
1.0
  6
BYLAYER
100
AcDbHatch
 10
0.0
 20
0.0
 30
0.0
210
0.0
220
0.0
230
1.0
  2
SOLID
 70
1
 71
0
 91
1
 92
1
 93
4
 72
1
 10
0.0
 20
306.4986410999999293
 11
-0.0000000000000142
 21
304.4986410999999293
 72
1
 10
-0.0000000000000142
 20
304.4986410999999293
 11
135.9999999999999716
 21
304.4986410999999293
 72
1
 10
135.9999999999999716
 20
304.4986410999999293
 11
135.9999999999999716
 21
306.4986410999999293
 72
1
 10
135.9999999999999716
 20
306.4986410999999293
 11
0.0
 21
306.4986410999999293
 97
0
 75
0
 76
1
 98
0
1001
ACAD
1010
0.0
1020
0.0
1030
0
  0
HATCH
  5
EE
100
AcDbEntity
  8
8_Panel_layer_9
 62
9
420
12632256
370
-1
 48
1.0
  6
BYLAYER
100
AcDbHatch
 10
0.0
 20
0.0
 30
0.0
210
0.0
220
0.0
230
1.0
  2
SOLID
 70
1
 71
0
 91
1
 92
1
 93
4
 72
1
 10
6.3186316553339674
 20
317.7616814653695201
 11
6.3186316553339532
 21
315.7616814653695201
 72
1
 10
6.3186316553339532
 20
315.7616814653695201
 11
142.3186316553339452
 21
315.7616814653695201
 72
1
 10
142.3186316553339452
 20
315.7616814653695201
 11
142.3186316553339452
 21
317.7616814653695201
 72
1
 10
142.3186316553339452
 20
317.7616814653695201
 11
6.3186316553339674
 21
317.7616814653695201
 97
0
 75
0
 76
1
 98
0
1001
ACAD
1010
0.0
1020
0.0
1030
0
  0
HATCH
  5
EF
100
AcDbEntity
  8
3_Vertical_Trim
 62
9
420
12632256
370
-1
 48
1.0
  6
BYLAYER
100
AcDbHatch
 10
0.0
 20
0.0
 30
0.0
210
0.0
220
0.0
230
1.0
  2
SOLID
 70
1
 71
0
 91
1
 92
1
 93
4
 72
1
 10
0.0000000049515265
 20
223.9999999966414066
 11
0.0000000049515123
 21
219.9999999966414634
 72
1
 10
0.0000000049515123
 20
219.9999999966414634
 11
136.0000000049515165
 21
219.9999999966414066
 72
1
 10
136.0000000049515165
 20
219.9999999966414066
 11
136.0000000049515165
 21
223.9999999966414066
 72
1
 10
136.0000000049515165
 20
223.9999999966414066
 11
0.0000000049515265
 21
223.9999999966414066
 97
0
 75
0
 76
1
 98
0
1001
ACAD
1010
0.0
1020
0.0
1030
0
  0
HATCH
  5
F0
100
AcDbEntity
  8
8_Panel_layer_9
 62
9
420
12632256
370
-1
 48
1.0
  6
BYLAYER
100
AcDbHatch
 10
0.0
 20
0.0
 30
0.0
210
0.0
220
0.0
230
1.0
  2
SOLID
 70
1
 71
0
 91
1
 92
1
 93
4
 72
1
 10
6.3186316553339958
 20
235.7616814687658859
 11
6.3186316553339816
 21
231.7616814687659428
 72
1
 10
6.3186316553339816
 20
231.7616814687659428
 11
142.3186316553339736
 21
231.7616814687658859
 72
1
 10
142.3186316553339736
 20
231.7616814687658859
 11
142.3186316553339736
 21
235.7616814687658859
 72
1
 10
142.3186316553339736
 20
235.7616814687658859
 11
6.3186316553339958
 21
235.7616814687658859
 97
0
 75
0
 76
1
 98
0
1001
ACAD
1010
0.0
1020
0.0
1030
0
  0
LINE
  5
F1
100
AcDbEntity
  8
0_Panel_layer1-3
 62
256
370
-1
 48
1.0
  6
BYLAYER
100
AcDbLine
 10
90.25
 20
76.9093086989282426
 30
0.0
 11
90.25
 21
76.9093086989282426
 31
0.0
  0
LINE
  5
F2
100
AcDbEntity
  8
4_Horizontal_Trim
 62
256
370
-1
 48
1.0
  6
BYLAYER
100
AcDbLine
 10
100.2500000000000142
 20
267.409308698928271
 30
0.0
 11
100.2500000000000142
 21
267.409308698928271
 31
0.0
  0
LINE
  5
F3
100
AcDbEntity
  8
4b_Triangle_Trim
 62
256
370
-1
 48
1.0
  6
BYLAYER
100
AcDbLine
 10
93.9224090011828565
 20
179.4568317818246328
 30
0.0
 11
93.9224090011828565
 21
179.4568317818246328
 31
0.0
  0
LINE
  5
F4
100
AcDbEntity
  8
0_Panel_layer1-3
 62
256
370
-1
 48
1.0
  6
BYLAYER
100
AcDbLine
 10
90.25
 20
76.4999999999999716
 30
0.0
 11
90.25
 21
76.9093086989282426
 31
0.0
  0
LINE
  5
F5
100
AcDbEntity
  8
4_Horizontal_Trim
 62
256
370
-1
 48
1.0
  6
BYLAYER
100
AcDbLine
 10
100.2500000000000142
 20
267.0
 30
0.0
 11
100.2500000000000142
 21
267.409308698928271
 31
0.0
  0
LINE
  5
F6
100
AcDbEntity
  8
4b_Triangle_Trim
 62
256
370
-1
 48
1.0
  6
BYLAYER
100
AcDbLine
 10
93.9224090011828565
 20
179.0475230828963618
 30
0.0
 11
93.9224090011828565
 21
179.4568317818246328
 31
0.0
  0
LINE
  5
F7
100
AcDbEntity
  8
0_Panel_layer1-3
 62
256
370
-1
 48
1.0
  6
BYLAYER
100
AcDbLine
 10
90.25
 20
76.9093086989282426
 30
0.0
 11
90.25
 21
76.9093086989282426
 31
0.0
  0
LINE
  5
F8
100
AcDbEntity
  8
4_Horizontal_Trim
 62
256
370
-1
 48
1.0
  6
BYLAYER
100
AcDbLine
 10
100.2500000000000142
 20
267.409308698928271
 30
0.0
 11
100.2500000000000142
 21
267.409308698928271
 31
0.0
  0
LINE
  5
F9
100
AcDbEntity
  8
4b_Triangle_Trim
 62
256
370
-1
 48
1.0
  6
BYLAYER
100
AcDbLine
 10
93.9224090011828565
 20
179.4568317818246328
 30
0.0
 11
93.9224090011828565
 21
179.4568317818246328
 31
0.0
  0
LINE
  5
FA
100
AcDbEntity
  8
0_Panel_layer1-3
 62
256
370
-1
 48
1.0
  6
BYLAYER
100
AcDbLine
 10
67.25
 20
71.3628263206142037
 30
0.0
 11
67.25
 21
55.0
 31
0.0
  0
LINE
  5
FB
100
AcDbEntity
  8
4_Horizontal_Trim
 62
256
370
-1
 48
1.0
  6
BYLAYER
100
AcDbLine
 10
77.2500000000000142
 20
261.8628263206142606
 30
0.0
 11
77.2500000000000142
 21
245.5000000000000568
 31
0.0
  0
LINE
  5
FC
100
AcDbEntity
  8
4b_Triangle_Trim
 62
256
370
-1
 48
1.0
  6
BYLAYER
100
AcDbLine
 10
70.9224090011828565
 20
173.9103494035105655
 30
0.0
 11
70.9224090011828565
 21
157.5475230828963618
 31
0.0
  0
LINE
  5
FD
100
AcDbEntity
  8
0_Panel_layer1-3
 62
256
370
-1
 48
1.0
  6
BYLAYER
100
AcDbLine
 10
90.2642636944590038
 20
71.3628263206141753
 30
0.0
 11
90.25
 21
55.0
 31
0.0
  0
LINE
  5
FE
100
AcDbEntity
  8
4_Horizontal_Trim
 62
256
370
-1
 48
1.0
  6
BYLAYER
100
AcDbLine
 10
100.264263694459018
 20
261.8628263206142037
 30
0.0
 11
100.2500000000000142
 21
245.5000000000000568
 31
0.0
  0
LINE
  5
FF
100
AcDbEntity
  8
4b_Triangle_Trim
 62
256
370
-1
 48
1.0
  6
BYLAYER
100
AcDbLine
 10
93.9366726956418603
 20
173.9103494035105655
 30
0.0
 11
93.9224090011828565
 21
157.5475230828963618
 31
0.0
  0
HATCH
  5
100
100
AcDbEntity
  8
0_Panel_layer1-3
 62
256
370
-1
 48
1.0
  6
BYLAYER
100
AcDbHatch
 10
0.0
 20
0.0
 30
0.0
210
0.0
220
0.0
230
1.0
  2
JIS_WOOD
 70
0
 71
0
 91
1
 92
1
 93
4
 72
1
 10
67.25
 20
71.3628263206142037
 11
90.2642636944590038
 21
71.3628263206142037
 72
1
 10
90.2642636944590038
 20
71.3628263206141753
 11
90.25
 21
55.0
 72
1
 10
90.25
 20
55.0
 11
67.25
 21
55.0
 72
1
 10
67.25
 20
55.0
 11
67.25
 21
71.3628263206142037
 97
0
 75
0
 76
1
 52
0.0
 41
1.0
 77
0
 78
1
 53
45.0
 43
0.0
 44
0.0
 45
-0.0883883476483184
 46
0.0883883476483185
 79
0
 98
0
1001
ACAD
1010
0.0
1020
0.0
1030
0
  0
HATCH
  5
101
100
AcDbEntity
  8
4b_Triangle_Trim
 62
256
370
-1
 48
1.0
  6
BYLAYER
100
AcDbHatch
 10
0.0
 20
0.0
 30
0.0
210
0.0
220
0.0
230
1.0
  2
JIS_WOOD
 70
0
 71
0
 91
1
 92
1
 93
4
 72
1
 10
70.9224090011828565
 20
173.9103494035105655
 11
93.9366726956418603
 21
173.9103494035105655
 72
1
 10
93.9366726956418603
 20
173.9103494035105655
 11
93.9224090011828565
 21
157.5475230828963618
 72
1
 10
93.9224090011828565
 20
157.5475230828963618
 11
70.9224090011828565
 21
157.5475230828963618
 72
1
 10
70.9224090011828565
 20
157.5475230828963618
 11
70.9224090011828565
 21
173.9103494035105655
 97
0
 75
0
 76
1
 52
0.0
 41
1.0
 77
0
 78
1
 53
45.0
 43
0.0
 44
0.0
 45
-0.0883883476483184
 46
0.0883883476483185
 79
0
 98
0
1001
ACAD
1010
0.0
1020
0.0
1030
0
  0
HATCH
  5
102
100
AcDbEntity
  8
4_Horizontal_Trim
 62
256
370
-1
 48
1.0
  6
BYLAYER
100
AcDbHatch
 10
0.0
 20
0.0
 30
0.0
210
0.0
220
0.0
230
1.0
  2
JIS_WOOD
 70
0
 71
0
 91
1
 92
1
 93
4
 72
1
 10
77.2500000000000142
 20
261.8628263206142606
 11
100.264263694459018
 21
261.8628263206142606
 72
1
 10
100.264263694459018
 20
261.8628263206142037
 11
100.2500000000000142
 21
245.5000000000000568
 72
1
 10
100.2500000000000142
 20
245.5000000000000568
 11
77.2500000000000142
 21
245.5000000000000568
 72
1
 10
77.2500000000000142
 20
245.5000000000000568
 11
77.2500000000000142
 21
261.8628263206142606
 97
0
 75
0
 76
1
 52
0.0
 41
1.0
 77
0
 78
1
 53
45.0
 43
0.0
 44
0.0
 45
-0.0883883476483184
 46
0.0883883476483185
 79
0
 98
0
1001
ACAD
1010
0.0
1020
0.0
1030
0
  0
LINE
  5
103
100
AcDbEntity
  8
0_Panel_layer1-3
 62
256
370
-1
 48
1.0
  6
BYLAYER
100
AcDbLine
 10
62.3075068257960396
 20
109.1558937637133511
 30
0.0
 11
62.3075068257960396
 21
107.5108850036768047
 31
0.0
  0
LINE
  5
104
100
AcDbEntity
  8
4_Horizontal_Trim
 62
256
370
-1
 48
1.0
  6
BYLAYER
100
AcDbLine
 10
72.3075068257960538
 20
299.6558937637133795
 30
0.0
 11
72.3075068257960538
 21
298.0108850036768331
 31
0.0
  0
LINE
  5
105
100
AcDbEntity
  8
4b_Triangle_Trim
 62
256
370
-1
 48
1.0
  6
BYLAYER
100
AcDbLine
 10
65.9799158269788961
 20
211.7034168466097412
 30
0.0
 11
65.9799158269788961
 21
210.0584080865731949
 31
0.0
  0
LINE
  5
106
100
AcDbEntity
  8
5_Panel_layer_6&7
 62
256
370
-1
 48
1.0
  6
BYLAYER
100
AcDbLine
 10
54.7033066380603259
 20
232.5697644737057317
 30
0.0
 11
54.7033066380603259
 21
230.9247557136691285
 31
0.0
  0
LINE
  5
107
100
AcDbEntity
  8
8_Panel_layer_9
 62
256
370
-1
 48
1.0
  6
BYLAYER
100
AcDbLine
 10
74.1261384772593317
 20
148.9189341334455037
 30
0.0
 11
74.1261384772593317
 21
147.2739253734089573
 31
0.0
  0
LINE
  5
108
100
AcDbEntity
  8
0_Panel_layer1-3
 62
256
370
-1
 48
1.0
  6
BYLAYER
100
AcDbLine
 10
62.3075068257960396
 20
107.5108850036768047
 30
0.0
 11
64.2242391636119123
 21
107.5108850036768047
 31
0.0
  0
LINE
  5
109
100
AcDbEntity
  8
4_Horizontal_Trim
 62
256
370
-1
 48
1.0
  6
BYLAYER
100
AcDbLine
 10
72.3075068257960538
 20
298.0108850036768331
 30
0.0
 11
74.2242391636119123
 21
298.0108850036768331
 31
0.0
  0
LINE
  5
10A
100
AcDbEntity
  8
4b_Triangle_Trim
 62
256
370
-1
 48
1.0
  6
BYLAYER
100
AcDbLine
 10
65.9799158269788961
 20
210.0584080865731949
 30
0.0
 11
67.8966481647947688
 21
210.0584080865731949
 31
0.0
  0
LINE
  5
10B
100
AcDbEntity
  8
5_Panel_layer_6&7
 62
256
370
-1
 48
1.0
  6
BYLAYER
100
AcDbLine
 10
54.7033066380603259
 20
230.9247557136691285
 30
0.0
 11
56.6200389758761844
 21
230.9247557136691285
 31
0.0
  0
LINE
  5
10C
100
AcDbEntity
  8
8_Panel_layer_9
 62
256
370
-1
 48
1.0
  6
BYLAYER
100
AcDbLine
 10
74.1261384772593317
 20
147.2739253734089573
 30
0.0
 11
76.0428708150752044
 21
147.2739253734089573
 31
0.0
  0
LINE
  5
10D
100
AcDbEntity
  8
0_Panel_layer1-3
 62
256
370
-1
 48
1.0
  6
BYLAYER
100
AcDbLine
 10
64.2242391636119123
 20
109.1452717042444931
 30
0.0
 11
64.2242391636119123
 21
107.5108850036768047
 31
0.0
  0
LINE
  5
10E
100
AcDbEntity
  8
4_Horizontal_Trim
 62
256
370
-1
 48
1.0
  6
BYLAYER
100
AcDbLine
 10
74.2242391636119123
 20
299.6452717042445215
 30
0.0
 11
74.2242391636119123
 21
298.0108850036768331
 31
0.0
  0
LINE
  5
10F
100
AcDbEntity
  8
4b_Triangle_Trim
 62
256
370
-1
 48
1.0
  6
BYLAYER
100
AcDbLine
 10
67.8966481647947688
 20
211.6927947871408833
 30
0.0
 11
67.8966481647947688
 21
210.0584080865731949
 31
0.0
  0
LINE
  5
110
100
AcDbEntity
  8
5_Panel_layer_6&7
 62
256
370
-1
 48
1.0
  6
BYLAYER
100
AcDbLine
 10
56.6200389758761844
 20
232.5591424142368169
 30
0.0
 11
56.6200389758761844
 21
230.9247557136691285
 31
0.0
  0
LINE
  5
111
100
AcDbEntity
  8
8_Panel_layer_9
 62
256
370
-1
 48
1.0
  6
BYLAYER
100
AcDbLine
 10
76.0428708150752044
 20
148.9083120739766457
 30
0.0
 11
76.0428708150752044
 21
147.2739253734089573
 31
0.0
  0
LINE
  5
112
100
AcDbEntity
  8
0_Panel_layer1-3
 62
256
370
-1
 48
1.0
  6
BYLAYER
100
AcDbLine
 10
66.75
 20
54.5
 30
0.0
 11
66.75
 21
90.4999999999999716
 31
0.0
  0
LINE
  5
113
100
AcDbEntity
  8
4_Horizontal_Trim
 62
256
370
-1
 48
1.0
  6
BYLAYER
100
AcDbLine
 10
76.7500000000000142
 20
245.0000000000000568
 30
0.0
 11
76.7500000000000142
 21
281.0
 31
0.0
  0
LINE
  5
114
100
AcDbEntity
  8
4b_Triangle_Trim
 62
256
370
-1
 48
1.0
  6
BYLAYER
100
AcDbLine
 10
70.4224090011828565
 20
157.0475230828963618
 30
0.0
 11
70.4224090011828565
 21
193.0475230828963618
 31
0.0
  0
LINE
  5
115
100
AcDbEntity
  8
0_Panel_layer1-3
 62
256
370
-1
 48
1.0
  6
BYLAYER
100
AcDbLine
 10
66.75
 20
90.4999999999999716
 30
0.0
 11
90.75
 21
90.4999999999999716
 31
0.0
  0
LINE
  5
116
100
AcDbEntity
  8
4_Horizontal_Trim
 62
256
370
-1
 48
1.0
  6
BYLAYER
100
AcDbLine
 10
76.7500000000000142
 20
281.0
 30
0.0
 11
100.7500000000000142
 21
281.0
 31
0.0
  0
LINE
  5
117
100
AcDbEntity
  8
4b_Triangle_Trim
 62
256
370
-1
 48
1.0
  6
BYLAYER
100
AcDbLine
 10
70.4224090011828565
 20
193.0475230828963618
 30
0.0
 11
94.4224090011828565
 21
193.0475230828963618
 31
0.0
  0
LINE
  5
118
100
AcDbEntity
  8
0_Panel_layer1-3
 62
256
370
-1
 48
1.0
  6
BYLAYER
100
AcDbLine
 10
90.75
 20
90.4999999999999716
 30
0.0
 11
90.75
 21
54.5
 31
0.0
  0
LINE
  5
119
100
AcDbEntity
  8
4_Horizontal_Trim
 62
256
370
-1
 48
1.0
  6
BYLAYER
100
AcDbLine
 10
100.7500000000000142
 20
281.0
 30
0.0
 11
100.7500000000000142
 21
245.0000000000000568
 31
0.0
  0
LINE
  5
11A
100
AcDbEntity
  8
4b_Triangle_Trim
 62
256
370
-1
 48
1.0
  6
BYLAYER
100
AcDbLine
 10
94.4224090011828565
 20
193.0475230828963618
 30
0.0
 11
94.4224090011828565
 21
157.0475230828963618
 31
0.0
  0
LINE
  5
11B
100
AcDbEntity
  8
0_Panel_layer1-3
 62
256
370
-1
 48
1.0
  6
BYLAYER
100
AcDbLine
 10
90.75
 20
54.5
 30
0.0
 11
66.75
 21
54.5
 31
0.0
  0
LINE
  5
11C
100
AcDbEntity
  8
4_Horizontal_Trim
 62
256
370
-1
 48
1.0
  6
BYLAYER
100
AcDbLine
 10
100.7500000000000142
 20
245.0000000000000568
 30
0.0
 11
76.7500000000000142
 21
245.0000000000000568
 31
0.0
  0
LINE
  5
11D
100
AcDbEntity
  8
4b_Triangle_Trim
 62
256
370
-1
 48
1.0
  6
BYLAYER
100
AcDbLine
 10
94.4224090011828565
 20
157.0475230828963618
 30
0.0
 11
70.4224090011828565
 21
157.0475230828963618
 31
0.0
  0
LINE
  5
11E
100
AcDbEntity
  8
0_Panel_layer1-3
 62
256
370
-1
 48
1.0
  6
BYLAYER
100
AcDbLine
 10
20.0000000000000036
 20
94.9999999999999716
 30
0.0
 11
62.3075068257960538
 21
109.1558937637133511
 31
0.0
  0
LINE
  5
11F
100
AcDbEntity
  8
4_Horizontal_Trim
 62
256
370
-1
 48
1.0
  6
BYLAYER
100
AcDbLine
 10
30.0000000000000249
 20
285.5
 30
0.0
 11
72.3075068257960538
 21
299.6558937637133795
 31
0.0
  0
LINE
  5
120
100
AcDbEntity
  8
4b_Triangle_Trim
 62
256
370
-1
 48
1.0
  6
BYLAYER
100
AcDbLine
 10
23.6724090011828601
 20
197.5475230828963618
 30
0.0
 11
65.9799158269789103
 21
211.7034168466097412
 31
0.0
  0
LINE
  5
121
100
AcDbEntity
  8
5_Panel_layer_6&7
 62
256
370
-1
 48
1.0
  6
BYLAYER
100
AcDbLine
 10
12.3957998122642721
 20
218.4138707099922385
 30
0.0
 11
54.7033066380603259
 21
232.5697644737057317
 31
0.0
  0
LINE
  5
122
100
AcDbEntity
  8
8_Panel_layer_9
 62
256
370
-1
 48
1.0
  6
BYLAYER
100
AcDbLine
 10
31.8186316514632885
 20
134.7630403697321242
 30
0.0
 11
74.1261384772593459
 21
148.9189341334455037
 31
0.0
  0
LINE
  5
123
100
AcDbEntity
  8
0_Panel_layer1-3
 62
256
370
-1
 48
1.0
  6
BYLAYER
100
AcDbLine
 10
106.5
 20
94.9999999999999716
 30
0.0
 11
64.2242391636119123
 21
109.1452717042444931
 31
0.0
  0
LINE
  5
124
100
AcDbEntity
  8
4_Horizontal_Trim
 62
256
370
-1
 48
1.0
  6
BYLAYER
100
AcDbLine
 10
116.5000000000000142
 20
285.5
 30
0.0
 11
74.2242391636119123
 21
299.6452717042445215
 31
0.0
  0
LINE
  5
125
100
AcDbEntity
  8
4b_Triangle_Trim
 62
256
370
-1
 48
1.0
  6
BYLAYER
100
AcDbLine
 10
110.1724090011828565
 20
197.5475230828963618
 30
0.0
 11
67.8966481647947688
 21
211.6927947871408833
 31
0.0
  0
LINE
  5
126
100
AcDbEntity
  8
5_Panel_layer_6&7
 62
256
370
-1
 48
1.0
  6
BYLAYER
100
AcDbLine
 10
98.8957998122642721
 20
218.4138707099922385
 30
0.0
 11
56.6200389758761844
 21
232.5591424142368169
 31
0.0
  0
LINE
  5
127
100
AcDbEntity
  8
8_Panel_layer_9
 62
256
370
-1
 48
1.0
  6
BYLAYER
100
AcDbLine
 10
118.3186316514632921
 20
134.7630403697321242
 30
0.0
 11
76.0428708150752044
 21
148.9083120739766457
 31
0.0
  0
LINE
  5
128
100
AcDbEntity
  8
0_Panel_layer1-3
 62
256
370
-1
 48
1.0
  6
BYLAYER
100
AcDbLine
 10
19.9999999999999964
 20
48.0
 30
0.0
 11
106.5
 21
48.0
 31
0.0
  0
LINE
  5
129
100
AcDbEntity
  8
4_Horizontal_Trim
 62
256
370
-1
 48
1.0
  6
BYLAYER
100
AcDbLine
 10
29.9999999999999964
 20
238.5000000000000568
 30
0.0
 11
116.5000000000000142
 21
238.5000000000000568
 31
0.0
  0
LINE
  5
12A
100
AcDbEntity
  8
4b_Triangle_Trim
 62
256
370
-1
 48
1.0
  6
BYLAYER
100
AcDbLine
 10
23.672409001182853
 20
150.5475230828963618
 30
0.0
 11
110.1724090011828565
 21
150.5475230828963618
 31
0.0
  0
LINE
  5
12B
100
AcDbEntity
  8
0_Panel_layer1-3
 62
256
370
-1
 48
1.0
  6
BYLAYER
100
AcDbLine
 10
19.9999999999999964
 20
10.0
 30
0.0
 11
106.5
 21
10.0
 31
0.0
  0
LINE
  5
12C
100
AcDbEntity
  8
4_Horizontal_Trim
 62
256
370
-1
 48
1.0
  6
BYLAYER
100
AcDbLine
 10
29.9999999999999964
 20
200.5
 30
0.0
 11
116.5000000000000142
 21
200.5
 31
0.0
  0
LINE
  5
12D
100
AcDbEntity
  8
4b_Triangle_Trim
 62
256
370
-1
 48
1.0
  6
BYLAYER
100
AcDbLine
 10
23.672409001182853
 20
112.547523082896376
 30
0.0
 11
110.1724090011828565
 21
112.547523082896376
 31
0.0
  0
HATCH
  5
12E
100
AcDbEntity
  8
2_Top_Trim
 62
9
420
12632256
370
-1
 48
1.0
  6
BYLAYER
100
AcDbHatch
 10
0.0
 20
0.0
 30
0.0
210
0.0
220
0.0
230
1.0
  2
SOLID
 70
1
 71
0
 91
1
 92
1
 93
4
 72
1
 10
106.5
 20
9.805054187419092
 11
19.9999999999999964
 21
9.805054187419092
 72
1
 10
19.9999999999999964
 20
9.805054187419092
 11
19.9999999999999964
 21
13.56505418741909
 72
1
 10
19.9999999999999964
 20
13.56505418741909
 11
106.5
 21
13.56505418741909
 72
1
 10
106.5
 20
13.56505418741909
 11
106.5
 21
9.805054187419092
 97
0
 75
0
 76
1
 98
0
1001
ACAD
1010
0.0
1020
0.0
1030
0
  0
HATCH
  5
12F
100
AcDbEntity
  8
1_Baseboards
 62
256
370
-1
 48
1.0
  6
BYLAYER
100
AcDbHatch
 10
0.0
 20
0.0
 30
0.0
210
0.0
220
0.0
230
1.0
  2
SOLID
 70
1
 71
0
 91
1
 92
1
 93
4
 72
1
 10
106.0
 20
9.805054187419092
 11
20.5
 21
9.805054187419092
 72
1
 10
20.5
 20
9.805054187419092
 11
20.5
 21
13.56505418741909
 72
1
 10
20.5
 20
13.56505418741909
 11
106.0
 21
13.56505418741909
 72
1
 10
106.0
 20
13.56505418741909
 11
106.0
 21
9.805054187419092
 97
0
 75
0
 76
1
 98
0
1001
ACAD
1010
0.0
1020
0.0
1030
0
  0
HATCH
  5
130
100
AcDbEntity
  8
2_Top_Trim
 62
256
370
-1
 48
1.0
  6
BYLAYER
100
AcDbHatch
 10
0.0
 20
0.0
 30
0.0
210
0.0
220
0.0
230
1.0
  2
SOLID
 70
1
 71
0
 91
1
 92
1
 93
4
 72
1
 10
106.0
 20
93.0
 11
20.5
 21
93.0
 72
1
 10
20.5
 20
93.0
 11
20.5
 21
95.0
 72
1
 10
20.5
 20
95.0
 11
106.0
 21
95.0
 72
1
 10
106.0
 20
95.0
 11
106.0
 21
93.0
 97
0
 75
0
 76
1
 98
0
1001
ACAD
1010
0.0
1020
0.0
1030
0
  0
HATCH
  5
131
100
AcDbEntity
  8
6_Front_Trim_A
 62
256
370
-1
 48
1.0
  6
BYLAYER
100
AcDbHatch
 10
0.0
 20
0.0
 30
0.0
210
0.0
220
0.0
230
1.0
  2
SOLID
 70
1
 71
0
 91
1
 92
1
 93
4
 72
1
 10
98.8957998122642721
 20
216.4138707099922385
 11
12.3957998122642579
 21
216.4138707099922385
 72
1
 10
12.3957998122642579
 20
216.4138707099922385
 11
12.3957998122642579
 21
218.4138707099922385
 72
1
 10
12.3957998122642579
 20
218.4138707099922385
 11
98.8957998122642721
 21
218.4138707099922385
 72
1
 10
98.8957998122642721
 20
218.4138707099922385
 11
98.8957998122642721
 21
216.4138707099922385
 97
0
 75
0
 76
1
 98
0
1001
ACAD
1010
0.0
1020
0.0
1030
0
  0
HATCH
  5
132
100
AcDbEntity
  8
7_Front_Trim_B
 62
9
420
12632256
370
-1
 48
1.0
  6
BYLAYER
100
AcDbHatch
 10
0.0
 20
0.0
 30
0.0
210
0.0
220
0.0
230
1.0
  2
SOLID
 70
1
 71
0
 91
1
 92
1
 93
4
 72
1
 10
98.8957998122636468
 20
216.4471028449927985
 11
12.3957998122636113
 21
216.4471028449927985
 72
1
 10
12.3957998122636113
 20
216.4471028449927985
 11
12.3957998122636113
 21
218.4471028449927985
 72
1
 10
12.3957998122636113
 20
218.4471028449927985
 11
98.8957998122636468
 21
218.4471028449927985
 72
1
 10
98.8957998122636468
 20
218.4471028449927985
 11
98.8957998122636468
 21
216.4471028449927985
 97
0
 75
0
 76
1
 98
0
1001
ACAD
1010
0.0
1020
0.0
1030
0
  0
HATCH
  5
133
100
AcDbEntity
  8
8_Panel_layer_9
 62
9
420
12632256
370
-1
 48
1.0
  6
BYLAYER
100
AcDbHatch
 10
0.0
 20
0.0
 30
0.0
210
0.0
220
0.0
230
1.0
  2
SOLID
 70
1
 71
0
 91
1
 92
1
 93
4
 72
1
 10
118.3186316514640879
 20
132.7630403697320673
 11
31.818631651464063
 21
132.7630403697320673
 72
1
 10
31.818631651464063
 20
132.7630403697320673
 11
31.818631651464063
 21
134.7630403697320673
 72
1
 10
31.818631651464063
 20
134.7630403697320673
 11
118.3186316514640879
 21
134.7630403697320673
 72
1
 10
118.3186316514640879
 20
134.7630403697320673
 11
118.3186316514640879
 21
132.7630403697320673
 97
0
 75
0
 76
1
 98
0
1001
ACAD
1010
0.0
1020
0.0
1030
0
  0
HATCH
  5
134
100
AcDbEntity
  8
4b_Triangle_Trim
 62
9
420
12632256
370
-1
 48
1.0
  6
BYLAYER
100
AcDbHatch
 10
0.0
 20
0.0
 30
0.0
210
0.0
220
0.0
230
1.0
  2
SOLID
 70
1
 71
0
 91
1
 92
1
 93
4
 72
1
 10
109.6724090011828565
 20
195.5475230828963618
 11
24.1724090011828565
 21
195.5475230828963618
 72
1
 10
24.1724090011828565
 20
195.5475230828963618
 11
24.1724090011828565
 21
197.5475230828963618
 72
1
 10
24.1724090011828565
 20
197.5475230828963618
 11
109.6724090011828565
 21
197.5475230828963618
 72
1
 10
109.6724090011828565
 20
197.5475230828963618
 11
109.6724090011828565
 21
195.5475230828963618
 97
0
 75
0
 76
1
 98
0
1001
ACAD
1010
0.0
1020
0.0
1030
0
  0
HATCH
  5
135
100
AcDbEntity
  8
3_Vertical_Trim
 62
9
420
12632256
370
-1
 48
1.0
  6
BYLAYER
100
AcDbHatch
 10
0.0
 20
0.0
 30
0.0
210
0.0
220
0.0
230
1.0
  2
SOLID
 70
1
 71
0
 91
1
 92
1
 93
4
 72
1
 10
106.0
 20
92.9999999999999574
 11
20.4999999999999929
 21
92.9999999999999574
 72
1
 10
20.4999999999999929
 20
92.9999999999999574
 11
20.4999999999999929
 21
94.9999999999999574
 72
1
 10
20.4999999999999929
 20
94.9999999999999574
 11
106.0
 21
94.9999999999999574
 72
1
 10
106.0
 20
94.9999999999999574
 11
106.0
 21
92.9999999999999574
 97
0
 75
0
 76
1
 98
0
1001
ACAD
1010
0.0
1020
0.0
1030
0
  0
HATCH
  5
136
100
AcDbEntity
  8
4_Horizontal_Trim
 62
9
420
12632256
370
-1
 48
1.0
  6
BYLAYER
100
AcDbHatch
 10
0.0
 20
0.0
 30
0.0
210
0.0
220
0.0
230
1.0
  2
SOLID
 70
1
 71
0
 91
1
 92
1
 93
4
 72
1
 10
116.0000000000000142
 20
283.5000000000000568
 11
30.4999999999999964
 21
283.5000000000000568
 72
1
 10
30.4999999999999964
 20
283.5000000000000568
 11
30.4999999999999964
 21
285.5000000000000568
 72
1
 10
30.4999999999999964
 20
285.5000000000000568
 11
116.0000000000000142
 21
285.5000000000000568
 72
1
 10
116.0000000000000142
 20
285.5000000000000568
 11
116.0000000000000142
 21
283.5000000000000568
 97
0
 75
0
 76
1
 98
0
1001
ACAD
1010
0.0
1020
0.0
1030
0
  0
HATCH
  5
137
100
AcDbEntity
  8
4b_Triangle_Trim
 62
9
420
12632256
370
-1
 48
1.0
  6
BYLAYER
100
AcDbHatch
 10
0.0
 20
0.0
 30
0.0
210
0.0
220
0.0
230
1.0
  2
SOLID
 70
1
 71
0
 91
1
 92
1
 93
4
 72
1
 10
109.6724090011828565
 20
112.3525772703154644
 11
24.1724090011828565
 21
112.3525772703154644
 72
1
 10
24.1724090011828565
 20
112.3525772703154644
 11
24.1724090011828565
 21
116.1125772703154695
 72
1
 10
24.1724090011828565
 20
116.1125772703154695
 11
109.6724090011828565
 21
116.1125772703154695
 72
1
 10
109.6724090011828565
 20
116.1125772703154695
 11
109.6724090011828565
 21
112.3525772703154644
 97
0
 75
0
 76
1
 98
0
1001
ACAD
1010
0.0
1020
0.0
1030
0
  0
HATCH
  5
138
100
AcDbEntity
  8
3_Vertical_Trim
 62
9
420
12632256
370
-1
 48
1.0
  6
BYLAYER
100
AcDbHatch
 10
0.0
 20
0.0
 30
0.0
210
0.0
220
0.0
230
1.0
  2
SOLID
 70
1
 71
0
 91
1
 92
1
 93
4
 72
1
 10
106.0
 20
9.8050541874190742
 11
20.5
 21
9.8050541874190742
 72
1
 10
20.5
 20
9.8050541874190742
 11
20.5
 21
13.5650541874190793
 72
1
 10
20.5
 20
13.5650541874190793
 11
106.0
 21
13.5650541874190793
 72
1
 10
106.0
 20
13.5650541874190793
 11
106.0
 21
9.8050541874190742
 97
0
 75
0
 76
1
 98
0
1001
ACAD
1010
0.0
1020
0.0
1030
0
  0
HATCH
  5
139
100
AcDbEntity
  8
4_Horizontal_Trim
 62
9
420
12632256
370
-1
 48
1.0
  6
BYLAYER
100
AcDbHatch
 10
0.0
 20
0.0
 30
0.0
210
0.0
220
0.0
230
1.0
  2
SOLID
 70
1
 71
0
 91
1
 92
1
 93
4
 72
1
 10
116.0000000000000142
 20
200.3050541874191026
 11
30.4999999999999964
 21
200.3050541874191026
 72
1
 10
30.4999999999999964
 20
200.3050541874191026
 11
30.4999999999999964
 21
204.0650541874191504
 72
1
 10
30.4999999999999964
 20
204.0650541874191504
 11
116.0000000000000142
 21
204.0650541874191504
 72
1
 10
116.0000000000000142
 20
204.0650541874191504
 11
116.0000000000000142
 21
200.3050541874191026
 97
0
 75
0
 76
1
 98
0
1001
ACAD
1010
0.0
1020
0.0
1030
0
  0
HATCH
  5
13A
100
AcDbEntity
  8
4_Horizontal_Trim
 62
256
370
-1
 48
1.0
  6
BYLAYER
100
AcDbHatch
 10
0.0
 20
0.0
 30
0.0
210
0.0
220
0.0
230
1.0
  2
SOLID
 70
1
 71
0
 91
1
 92
1
 93
4
 72
1
 10
114.2242391636119407
 20
237.6452717042445215
 11
32.7242391636119407
 21
237.6452717042445215
 72
1
 10
32.7242391636119407
 20
237.6452717042445215
 11
32.7242391636119407
 21
239.6452717042445215
 72
1
 10
32.7242391636119407
 20
239.6452717042445215
 11
114.2242391636119407
 21
239.6452717042445215
 72
1
 10
114.2242391636119407
 20
239.6452717042445215
 11
114.2242391636119407
 21
237.6452717042445215
 97
0
 75
0
 76
1
 98
0
1001
ACAD
1010
0.0
1020
0.0
1030
0
  0
HATCH
  5
13B
100
AcDbEntity
  8
2_Top_Trim
 62
252
420
10526884
370
-1
 48
1.0
  6
BYLAYER
100
AcDbHatch
 10
0.0
 20
0.0
 30
0.0
210
0.0
220
0.0
230
1.0
  2
SOLID
 70
1
 71
0
 91
1
 92
1
 93
4
 72
1
 10
90.7777043576991503
 20
54.4865873315236371
 11
92.7777043576991503
 21
54.4865873315236371
 72
1
 10
92.7777043576991503
 20
54.4865873315236371
 11
92.7777043576991503
 21
90.4865873315236371
 72
1
 10
92.7777043576991503
 20
90.4865873315236371
 11
90.7777043576991503
 21
90.4865873315236371
 72
1
 10
90.7777043576991503
 20
90.4865873315236371
 11
90.7777043576991503
 21
54.4865873315236371
 97
0
 75
0
 76
1
 98
0
1001
ACAD
1010
0.0
1020
0.0
1030
0
  0
HATCH
  5
13C
100
AcDbEntity
  8
0_Panel_layer1-3
 62
9
420
12632256
370
-1
 48
1.0
  6
BYLAYER
100
AcDbHatch
 10
0.0
 20
0.0
 30
0.0
210
0.0
220
0.0
230
1.0
  2
SOLID
 70
1
 71
0
 91
1
 92
1
 93
4
 72
1
 10
90.7777043576991503
 20
54.4865873315236371
 11
92.7777043576991503
 21
54.4865873315236371
 72
1
 10
92.7777043576991503
 20
54.4865873315236371
 11
92.7777043576991503
 21
90.4865873315236371
 72
1
 10
92.7777043576991503
 20
90.4865873315236371
 11
90.7777043576991503
 21
90.4865873315236371
 72
1
 10
90.7777043576991503
 20
90.4865873315236371
 11
90.7777043576991503
 21
54.4865873315236371
 97
0
 75
0
 76
1
 98
0
1001
ACAD
1010
0.0
1020
0.0
1030
0
  0
HATCH
  5
13D
100
AcDbEntity
  8
4_Horizontal_Trim
 62
9
420
12632256
370
-1
 48
1.0
  6
BYLAYER
100
AcDbHatch
 10
0.0
 20
0.0
 30
0.0
210
0.0
220
0.0
230
1.0
  2
SOLID
 70
1
 71
0
 91
1
 92
1
 93
4
 72
1
 10
100.7777043576991645
 20
244.9865873315236513
 11
102.7777043576991645
 21
244.9865873315236513
 72
1
 10
102.7777043576991645
 20
244.9865873315236513
 11
102.7777043576991645
 21
280.9865873315236513
 72
1
 10
102.7777043576991645
 20
280.9865873315236513
 11
100.7777043576991645
 21
280.9865873315236513
 72
1
 10
100.7777043576991645
 20
280.9865873315236513
 11
100.7777043576991645
 21
244.9865873315236513
 97
0
 75
0
 76
1
 98
0
1001
ACAD
1010
0.0
1020
0.0
1030
0
  0
HATCH
  5
13E
100
AcDbEntity
  8
4b_Triangle_Trim
 62
9
420
12632256
370
-1
 48
1.0
  6
BYLAYER
100
AcDbHatch
 10
0.0
 20
0.0
 30
0.0
210
0.0
220
0.0
230
1.0
  2
SOLID
 70
1
 71
0
 91
1
 92
1
 93
4
 72
1
 10
94.4501133588820068
 20
157.0341104144200131
 11
96.4501133588820068
 21
157.0341104144200131
 72
1
 10
96.4501133588820068
 20
157.0341104144200131
 11
96.4501133588820068
 21
193.0341104144200131
 72
1
 10
96.4501133588820068
 20
193.0341104144200131
 11
94.4501133588820068
 21
193.0341104144200131
 72
1
 10
94.4501133588820068
 20
193.0341104144200131
 11
94.4501133588820068
 21
157.0341104144200131
 97
0
 75
0
 76
1
 98
0
1001
ACAD
1010
0.0
1020
0.0
1030
0
  0
HATCH
  5
13F
100
AcDbEntity
  8
2_Top_Trim
 62
252
420
10526884
370
-1
 48
1.0
  6
BYLAYER
100
AcDbHatch
 10
0.0
 20
0.0
 30
0.0
210
0.0
220
0.0
230
1.0
  2
SOLID
 70
1
 71
0
 91
1
 92
1
 93
4
 72
1
 10
64.7777043576991503
 20
54.4865873315236371
 11
66.7777043576991503
 21
54.4865873315236371
 72
1
 10
66.7777043576991503
 20
54.4865873315236371
 11
66.7777043576991503
 21
90.4865873315236371
 72
1
 10
66.7777043576991503
 20
90.4865873315236371
 11
64.7777043576991503
 21
90.4865873315236371
 72
1
 10
64.7777043576991503
 20
90.4865873315236371
 11
64.7777043576991503
 21
54.4865873315236371
 97
0
 75
0
 76
1
 98
0
1001
ACAD
1010
0.0
1020
0.0
1030
0
  0
HATCH
  5
140
100
AcDbEntity
  8
0_Panel_layer1-3
 62
9
420
12632256
370
-1
 48
1.0
  6
BYLAYER
100
AcDbHatch
 10
0.0
 20
0.0
 30
0.0
210
0.0
220
0.0
230
1.0
  2
SOLID
 70
1
 71
0
 91
1
 92
1
 93
4
 72
1
 10
64.7777043576991503
 20
54.4865873315236371
 11
66.7777043576991503
 21
54.4865873315236371
 72
1
 10
66.7777043576991503
 20
54.4865873315236371
 11
66.7777043576991503
 21
90.4865873315236371
 72
1
 10
66.7777043576991503
 20
90.4865873315236371
 11
64.7777043576991503
 21
90.4865873315236371
 72
1
 10
64.7777043576991503
 20
90.4865873315236371
 11
64.7777043576991503
 21
54.4865873315236371
 97
0
 75
0
 76
1
 98
0
1001
ACAD
1010
0.0
1020
0.0
1030
0
  0
HATCH
  5
141
100
AcDbEntity
  8
4b_Triangle_Trim
 62
9
420
12632256
370
-1
 48
1.0
  6
BYLAYER
100
AcDbHatch
 10
0.0
 20
0.0
 30
0.0
210
0.0
220
0.0
230
1.0
  2
SOLID
 70
1
 71
0
 91
1
 92
1
 93
4
 72
1
 10
68.4501133588820068
 20
157.0341104144200131
 11
70.4501133588820068
 21
157.0341104144200131
 72
1
 10
70.4501133588820068
 20
157.0341104144200131
 11
70.4501133588820068
 21
193.0341104144200131
 72
1
 10
70.4501133588820068
 20
193.0341104144200131
 11
68.4501133588820068
 21
193.0341104144200131
 72
1
 10
68.4501133588820068
 20
193.0341104144200131
 11
68.4501133588820068
 21
157.0341104144200131
 97
0
 75
0
 76
1
 98
0
1001
ACAD
1010
0.0
1020
0.0
1030
0
  0
HATCH
  5
142
100
AcDbEntity
  8
4_Horizontal_Trim
 62
9
420
12632256
370
-1
 48
1.0
  6
BYLAYER
100
AcDbHatch
 10
0.0
 20
0.0
 30
0.0
210
0.0
220
0.0
230
1.0
  2
SOLID
 70
1
 71
0
 91
1
 92
1
 93
4
 72
1
 10
74.7777043576991787
 20
244.9865873315236513
 11
76.7777043576991645
 21
244.9865873315236513
 72
1
 10
76.7777043576991645
 20
244.9865873315236513
 11
76.7777043576991645
 21
280.9865873315236513
 72
1
 10
76.7777043576991645
 20
280.9865873315236513
 11
74.7777043576991787
 21
280.9865873315236513
 72
1
 10
74.7777043576991787
 20
280.9865873315236513
 11
74.7777043576991787
 21
244.9865873315236513
 97
0
 75
0
 76
1
 98
0
1001
ACAD
1010
0.0
1020
0.0
1030
0
  0
HATCH
  5
143
100
AcDbEntity
  8
7_Front_Trim_B
 62
256
370
-1
 48
1.0
  6
BYLAYER
100
AcDbHatch
 10
0.0
 20
0.0
 30
0.0
210
0.0
220
0.0
230
1.0
  2
SOLID
 70
1
 71
0
 91
1
 92
1
 93
4
 72
1
 10
54.8866118977365929
 20
218.4107964767949284
 11
56.8866118977366
 21
218.4107964767949284
 72
1
 10
56.8866118977366
 20
218.4107964767949284
 11
56.8866118977366
 21
230.4107964767949284
 72
1
 10
56.8866118977366
 20
230.4107964767949284
 11
54.8866118977365929
 21
230.4107964767949284
 72
1
 10
54.8866118977365929
 20
230.4107964767949284
 11
54.8866118977365929
 21
218.4107964767949284
 97
0
 75
0
 76
1
 98
0
1001
ACAD
1010
0.0
1020
0.0
1030
0
  0
HATCH
  5
144
100
AcDbEntity
  8
4b_Triangle_Trim
 62
256
370
-1
 48
1.0
  6
BYLAYER
100
AcDbHatch
 10
0.0
 20
0.0
 30
0.0
210
0.0
220
0.0
230
1.0
  2
SOLID
 70
1
 71
0
 91
1
 92
1
 93
4
 72
1
 10
65.9424925106700357
 20
197.6452717042444647
 11
67.9424925106700357
 21
197.6452717042444647
 72
1
 10
67.9424925106700357
 20
197.6452717042444647
 11
67.9424925106700357
 21
209.6452717042444647
 72
1
 10
67.9424925106700357
 20
209.6452717042444647
 11
65.9424925106700357
 21
209.6452717042444647
 72
1
 10
65.9424925106700357
 20
209.6452717042444647
 11
65.9424925106700357
 21
197.6452717042444647
 97
0
 75
0
 76
1
 98
0
1001
ACAD
1010
0.0
1020
0.0
1030
0
  0
LINE
  5
145
100
AcDbEntity
  8
0_Panel_layer1-3
 62
256
370
-1
 48
1.0
  6
BYLAYER
100
AcDbLine
 10
60.75
 20
54.5
 30
0.0
 11
96.75
 21
54.5
 31
0.0
  0
LINE
  5
146
100
AcDbEntity
  8
4_Horizontal_Trim
 62
256
370
-1
 48
1.0
  6
BYLAYER
100
AcDbLine
 10
70.75
 20
245.0000000000000568
 30
0.0
 11
106.7500000000000142
 21
245.0000000000000568
 31
0.0
  0
LINE
  5
147
100
AcDbEntity
  8
4b_Triangle_Trim
 62
256
370
-1
 48
1.0
  6
BYLAYER
100
AcDbLine
 10
64.4224090011828565
 20
157.0475230828963618
 30
0.0
 11
100.4224090011828565
 21
157.0475230828963618
 31
0.0
  0
LINE
  5
148
100
AcDbEntity
  8
0_Panel_layer1-3
 62
256
370
-1
 48
1.0
  6
BYLAYER
100
AcDbLine
 10
96.75
 20
54.5
 30
0.0
 11
96.75
 21
54.0
 31
0.0
  0
LINE
  5
149
100
AcDbEntity
  8
4_Horizontal_Trim
 62
256
370
-1
 48
1.0
  6
BYLAYER
100
AcDbLine
 10
106.7500000000000142
 20
245.0000000000000568
 30
0.0
 11
106.7500000000000142
 21
244.5000000000000568
 31
0.0
  0
LINE
  5
14A
100
AcDbEntity
  8
4b_Triangle_Trim
 62
256
370
-1
 48
1.0
  6
BYLAYER
100
AcDbLine
 10
100.4224090011828565
 20
157.0475230828963618
 30
0.0
 11
100.4224090011828565
 21
156.5475230828963618
 31
0.0
  0
LINE
  5
14B
100
AcDbEntity
  8
0_Panel_layer1-3
 62
256
370
-1
 48
1.0
  6
BYLAYER
100
AcDbLine
 10
96.75
 20
54.0
 30
0.0
 11
60.75
 21
54.0
 31
0.0
  0
LINE
  5
14C
100
AcDbEntity
  8
4_Horizontal_Trim
 62
256
370
-1
 48
1.0
  6
BYLAYER
100
AcDbLine
 10
106.7500000000000142
 20
244.5000000000000568
 30
0.0
 11
70.75
 21
244.5000000000000568
 31
0.0
  0
LINE
  5
14D
100
AcDbEntity
  8
4b_Triangle_Trim
 62
256
370
-1
 48
1.0
  6
BYLAYER
100
AcDbLine
 10
100.4224090011828565
 20
156.5475230828963618
 30
0.0
 11
64.4224090011828565
 21
156.5475230828963618
 31
0.0
  0
LINE
  5
14E
100
AcDbEntity
  8
0_Panel_layer1-3
 62
256
370
-1
 48
1.0
  6
BYLAYER
100
AcDbLine
 10
60.75
 20
54.0
 30
0.0
 11
60.75
 21
54.5
 31
0.0
  0
LINE
  5
14F
100
AcDbEntity
  8
4_Horizontal_Trim
 62
256
370
-1
 48
1.0
  6
BYLAYER
100
AcDbLine
 10
70.75
 20
244.5000000000000568
 30
0.0
 11
70.75
 21
245.0000000000000568
 31
0.0
  0
LINE
  5
150
100
AcDbEntity
  8
4b_Triangle_Trim
 62
256
370
-1
 48
1.0
  6
BYLAYER
100
AcDbLine
 10
64.4224090011828565
 20
156.5475230828963618
 30
0.0
 11
64.4224090011828565
 21
157.0475230828963618
 31
0.0
  0
LINE
  5
151
100
AcDbEntity
  8
0_Panel_layer1-3
 62
256
370
-1
 48
1.0
  6
BYLAYER
100
AcDbLine
 10
61.25
 20
54.0
 30
0.0
 11
61.25
 21
50.5
 31
0.0
  0
LINE
  5
152
100
AcDbEntity
  8
4_Horizontal_Trim
 62
256
370
-1
 48
1.0
  6
BYLAYER
100
AcDbLine
 10
71.25
 20
244.5000000000000568
 30
0.0
 11
71.25
 21
241.0000000000000568
 31
0.0
  0
LINE
  5
153
100
AcDbEntity
  8
4b_Triangle_Trim
 62
256
370
-1
 48
1.0
  6
BYLAYER
100
AcDbLine
 10
64.9224090011828565
 20
156.5475230828963618
 30
0.0
 11
64.9224090011828565
 21
153.0475230828963618
 31
0.0
  0
LINE
  5
154
100
AcDbEntity
  8
0_Panel_layer1-3
 62
256
370
-1
 48
1.0
  6
BYLAYER
100
AcDbLine
 10
61.25
 20
50.5
 30
0.0
 11
96.25
 21
50.5
 31
0.0
  0
LINE
  5
155
100
AcDbEntity
  8
4_Horizontal_Trim
 62
256
370
-1
 48
1.0
  6
BYLAYER
100
AcDbLine
 10
71.25
 20
241.0000000000000568
 30
0.0
 11
106.2500000000000142
 21
241.0000000000000568
 31
0.0
  0
LINE
  5
156
100
AcDbEntity
  8
4b_Triangle_Trim
 62
256
370
-1
 48
1.0
  6
BYLAYER
100
AcDbLine
 10
64.9224090011828565
 20
153.0475230828963618
 30
0.0
 11
99.9224090011828565
 21
153.0475230828963618
 31
0.0
  0
LINE
  5
157
100
AcDbEntity
  8
0_Panel_layer1-3
 62
256
370
-1
 48
1.0
  6
BYLAYER
100
AcDbLine
 10
96.25
 20
50.5
 30
0.0
 11
96.25
 21
54.0
 31
0.0
  0
LINE
  5
158
100
AcDbEntity
  8
4_Horizontal_Trim
 62
256
370
-1
 48
1.0
  6
BYLAYER
100
AcDbLine
 10
106.2500000000000142
 20
241.0000000000000568
 30
0.0
 11
106.2500000000000142
 21
244.5000000000000568
 31
0.0
  0
LINE
  5
159
100
AcDbEntity
  8
4b_Triangle_Trim
 62
256
370
-1
 48
1.0
  6
BYLAYER
100
AcDbLine
 10
99.9224090011828565
 20
153.0475230828963618
 30
0.0
 11
99.9224090011828565
 21
156.5475230828963618
 31
0.0
  0
LINE
  5
15A
100
AcDbEntity
  8
0_Panel_layer1-3
 62
256
370
-1
 48
1.0
  6
BYLAYER
100
AcDbLine
 10
96.25
 20
54.0
 30
0.0
 11
61.25
 21
54.0
 31
0.0
  0
LINE
  5
15B
100
AcDbEntity
  8
4_Horizontal_Trim
 62
256
370
-1
 48
1.0
  6
BYLAYER
100
AcDbLine
 10
106.2500000000000142
 20
244.5000000000000568
 30
0.0
 11
71.25
 21
244.5000000000000568
 31
0.0
  0
LINE
  5
15C
100
AcDbEntity
  8
4b_Triangle_Trim
 62
256
370
-1
 48
1.0
  6
BYLAYER
100
AcDbLine
 10
99.9224090011828565
 20
156.5475230828963618
 30
0.0
 11
64.9224090011828565
 21
156.5475230828963618
 31
0.0
  0
HATCH
  5
15D
100
AcDbEntity
  8
2_Top_Trim
 62
252
420
10526884
370
-1
 48
1.0
  6
BYLAYER
100
AcDbHatch
 10
0.0
 20
0.0
 30
0.0
210
0.0
220
0.0
230
1.0
  2
SOLID
 70
1
 71
0
 91
1
 92
1
 93
4
 72
1
 10
93.2777043576991503
 20
92.4865873315236371
 11
64.2777043576991503
 21
92.4865873315236371
 72
1
 10
64.2777043576991503
 20
92.4865873315236371
 11
64.2777043576991503
 21
90.4865873315236371
 72
1
 10
64.2777043576991503
 20
90.4865873315236371
 11
93.2777043576991503
 21
90.4865873315236371
 72
1
 10
93.2777043576991503
 20
90.4865873315236371
 11
93.2777043576991503
 21
92.4865873315236371
 97
0
 75
0
 76
1
 98
0
1001
ACAD
1010
0.0
1020
0.0
1030
0
  0
HATCH
  5
15E
100
AcDbEntity
  8
0_Panel_layer1-3
 62
9
420
12632256
370
-1
 48
1.0
  6
BYLAYER
100
AcDbHatch
 10
0.0
 20
0.0
 30
0.0
210
0.0
220
0.0
230
1.0
  2
SOLID
 70
1
 71
0
 91
1
 92
1
 93
4
 72
1
 10
93.2777043576991503
 20
92.4865873315236371
 11
64.2777043576991503
 21
92.4865873315236371
 72
1
 10
64.2777043576991503
 20
92.4865873315236371
 11
64.2777043576991503
 21
90.4865873315236371
 72
1
 10
64.2777043576991503
 20
90.4865873315236371
 11
93.2777043576991503
 21
90.4865873315236371
 72
1
 10
93.2777043576991503
 20
90.4865873315236371
 11
93.2777043576991503
 21
92.4865873315236371
 97
0
 75
0
 76
1
 98
0
1001
ACAD
1010
0.0
1020
0.0
1030
0
  0
HATCH
  5
15F
100
AcDbEntity
  8
4b_Triangle_Trim
 62
9
420
12632256
370
-1
 48
1.0
  6
BYLAYER
100
AcDbHatch
 10
0.0
 20
0.0
 30
0.0
210
0.0
220
0.0
230
1.0
  2
SOLID
 70
1
 71
0
 91
1
 92
1
 93
4
 72
1
 10
96.9501133588820068
 20
195.0341104144200131
 11
67.9501133588820068
 21
195.0341104144200131
 72
1
 10
67.9501133588820068
 20
195.0341104144200131
 11
67.9501133588820068
 21
193.0341104144200131
 72
1
 10
67.9501133588820068
 20
193.0341104144200131
 11
96.9501133588820068
 21
193.0341104144200131
 72
1
 10
96.9501133588820068
 20
193.0341104144200131
 11
96.9501133588820068
 21
195.0341104144200131
 97
0
 75
0
 76
1
 98
0
1001
ACAD
1010
0.0
1020
0.0
1030
0
  0
HATCH
  5
160
100
AcDbEntity
  8
4_Horizontal_Trim
 62
9
420
12632256
370
-1
 48
1.0
  6
BYLAYER
100
AcDbHatch
 10
0.0
 20
0.0
 30
0.0
210
0.0
220
0.0
230
1.0
  2
SOLID
 70
1
 71
0
 91
1
 92
1
 93
4
 72
1
 10
103.2777043576991645
 20
282.9865873315236513
 11
74.2777043576991787
 21
282.9865873315236513
 72
1
 10
74.2777043576991787
 20
282.9865873315236513
 11
74.2777043576991787
 21
280.9865873315236513
 72
1
 10
74.2777043576991787
 20
280.9865873315236513
 11
103.2777043576991645
 21
280.9865873315236513
 72
1
 10
103.2777043576991645
 20
280.9865873315236513
 11
103.2777043576991645
 21
282.9865873315236513
 97
0
 75
0
 76
1
 98
0
1001
ACAD
1010
0.0
1020
0.0
1030
0
  0
HATCH
  5
161
100
AcDbEntity
  8
4b_Triangle_Trim
 62
256
370
-1
 48
1.0
  6
BYLAYER
100
AcDbHatch
 10
0.0
 20
0.0
 30
0.0
210
0.0
220
0.0
230
1.0
  2
SOLID
 70
1
 71
0
 91
1
 92
1
 93
4
 72
1
 10
65.1195226116897175
 20
209.3406795585070768
 11
30.1217733693301568
 21
197.630596468906333
 72
1
 10
30.1217733693301568
 20
197.630596468906333
 11
23.7069576965655813
 21
197.5932137855218684
 72
1
 10
23.7069576965655813
 20
197.5932137855218684
 11
64.4849132988795475
 21
211.2373268689194674
 72
1
 10
64.4849132988795475
 20
211.2373268689194674
 11
65.1195226116897175
 21
209.3406795585070768
 97
0
 75
0
 76
1
 98
0
1001
ACAD
1010
0.0
1020
0.0
1030
0
  0
HATCH
  5
162
100
AcDbEntity
  8
7_Front_Trim_B
 62
256
370
-1
 48
1.0
  6
BYLAYER
100
AcDbHatch
 10
0.0
 20
0.0
 30
0.0
210
0.0
220
0.0
230
1.0
  2
SOLID
 70
1
 71
0
 91
1
 92
1
 93
4
 72
1
 10
53.7991768128598764
 20
230.1582622497800799
 11
18.8014275705003158
 21
218.4481791601793361
 72
1
 10
18.8014275705003016
 20
218.4481791601793361
 11
12.3866118977357402
 21
218.4107964767949284
 72
1
 10
12.386611897735726
 20
218.4107964767949284
 11
53.1645675000497064
 21
232.0549095601924705
 72
1
 10
53.1645675000497064
 20
232.0549095601924705
 11
53.7991768128598764
 21
230.1582622497800799
 97
0
 75
0
 76
1
 98
0
1001
ACAD
1010
0.0
1020
0.0
1030
0
  0
HATCH
  5
163
100
AcDbEntity
  8
8_Panel_layer_9
 62
9
420
12632256
370
-1
 48
1.0
  6
BYLAYER
100
AcDbHatch
 10
0.0
 20
0.0
 30
0.0
210
0.0
220
0.0
230
1.0
  2
SOLID
 70
1
 71
0
 91
1
 92
1
 93
4
 72
1
 10
73.2311965665865472
 20
146.5105061427170767
 11
38.2334473242269866
 21
134.800423053116333
 72
1
 10
38.2334473242269723
 20
134.800423053116333
 11
31.8186316514624075
 21
134.7630403697318684
 72
1
 10
31.8186316514624004
 20
134.7630403697318684
 11
72.5965872537763772
 21
148.4071534531294674
 72
1
 10
72.5965872537763772
 20
148.4071534531294674
 11
73.2311965665865472
 21
146.5105061427170767
 97
0
 75
0
 76
1
 98
0
1001
ACAD
1010
0.0
1020
0.0
1030
0
  0
HATCH
  5
164
100
AcDbEntity
  8
4b_Triangle_Trim
 62
256
370
-1
 48
1.0
  6
BYLAYER
100
AcDbHatch
 10
0.0
 20
0.0
 30
0.0
210
0.0
220
0.0
230
1.0
  2
SOLID
 70
1
 71
0
 91
1
 92
1
 93
4
 72
1
 10
103.9038670874990942
 20
197.5932137855218684
 11
68.7944113924661167
 21
209.3406733313453287
 72
1
 10
68.7944113924661167
 20
209.3406733313453287
 11
69.4136411900102814
 21
211.1913561157479649
 72
1
 10
69.4136411900102814
 20
211.1913561157479649
 11
110.2069576965655813
 21
197.5932137855218684
 72
1
 10
110.2069576965655813
 20
197.5932137855218684
 11
103.9038670874990373
 21
197.5932137855218969
 97
0
 75
0
 76
1
 98
0
1001
ACAD
1010
0.0
1020
0.0
1030
0
  0
HATCH
  5
165
100
AcDbEntity
  8
7_Front_Trim_B
 62
256
370
-1
 48
1.0
  6
BYLAYER
100
AcDbHatch
 10
0.0
 20
0.0
 30
0.0
210
0.0
220
0.0
230
1.0
  2
SOLID
 70
1
 71
0
 91
1
 92
1
 93
4
 72
1
 10
92.5835212886692602
 20
218.4107964767949284
 11
57.4740655936362828
 21
230.1582560226183318
 72
1
 10
57.4740655936362828
 20
230.1582560226183318
 11
58.0932953911804475
 21
232.0089388070210248
 72
1
 10
58.0932953911804475
 20
232.0089388070210248
 11
98.8866118977357189
 21
218.4107964767949284
 72
1
 10
98.8866118977357473
 20
218.4107964767949284
 11
92.5835212886692034
 21
218.4107964767949284
 97
0
 75
0
 76
1
 98
0
1001
ACAD
1010
0.0
1020
0.0
1030
0
  0
HATCH
  5
166
100
AcDbEntity
  8
8_Panel_layer_9
 62
9
420
12632256
370
-1
 48
1.0
  6
BYLAYER
100
AcDbHatch
 10
0.0
 20
0.0
 30
0.0
210
0.0
220
0.0
230
1.0
  2
SOLID
 70
1
 71
0
 91
1
 92
1
 93
4
 72
1
 10
112.0155410423959239
 20
134.7630403697318684
 11
76.9060853473629464
 21
146.5104999155553287
 72
1
 10
76.9060853473629464
 20
146.5104999155553287
 11
77.5253151449071254
 21
148.3611826999579648
 72
1
 10
77.5253151449071254
 20
148.3611826999579648
 11
118.3186316514623826
 21
134.7630403697318684
 72
1
 10
118.318631651462411
 20
134.7630403697318684
 11
112.0155410423958671
 21
134.7630403697318968
 97
0
 75
0
 76
1
 98
0
1001
ACAD
1010
0.0
1020
0.0
1030
0
  0
LINE
  5
167
100
AcDbEntity
  8
0_Panel_layer1-3
 62
256
370
-1
 48
1.0
  6
BYLAYER
100
AcDbLine
 10
106.4999999999999716
 20
94.9999999999999716
 30
0.0
 11
20.0000000000000036
 21
94.9999999999999716
 31
0.0
  0
LINE
  5
168
100
AcDbEntity
  8
4_Horizontal_Trim
 62
256
370
-1
 48
1.0
  6
BYLAYER
100
AcDbLine
 10
116.4999999999999858
 20
285.5
 30
0.0
 11
30.0000000000000249
 21
285.5
 31
0.0
  0
LINE
  5
169
100
AcDbEntity
  8
4b_Triangle_Trim
 62
256
370
-1
 48
1.0
  6
BYLAYER
100
AcDbLine
 10
110.1724090011828281
 20
197.5475230828963618
 30
0.0
 11
23.6724090011828601
 21
197.5475230828963618
 31
0.0
  0
LINE
  5
16A
100
AcDbEntity
  8
0_Panel_layer1-3
 62
256
370
-1
 48
1.0
  6
BYLAYER
100
AcDbLine
 10
0.0000000000000355
 20
306.4986410999999293
 30
0.0
 11
135.9999999999999716
 21
306.4999245023835215
 31
0.0
  0
LINE
  5
16B
100
AcDbEntity
  8
4_Horizontal_Trim
 62
256
370
-1
 48
1.0
  6
BYLAYER
100
AcDbLine
 10
0.1714904078002242
 20
185.3711030965831412
 30
0.0
 11
136.171490407800178
 21
185.3723864989667334
 31
0.0
  0
LINE
  5
16C
100
AcDbEntity
  8
8_Panel_layer_9
 62
256
370
-1
 48
1.0
  6
BYLAYER
100
AcDbLine
 10
6.3186316503825211
 20
317.7616814653694064
 30
0.0
 11
142.3186316503824571
 21
317.7629648677529985
 31
0.0
  0
LINE
  5
16D
100
AcDbEntity
  8
0_Panel_layer1-3
 62
256
370
-1
 48
1.0
  6
BYLAYER
100
AcDbLine
 10
136.0
 20
306.4986410999999293
 30
0.0
 11
136.0
 21
219.9986410999998725
 31
0.0
  0
LINE
  5
16E
100
AcDbEntity
  8
4_Horizontal_Trim
 62
256
370
-1
 48
1.0
  6
BYLAYER
100
AcDbLine
 10
136.1714904078002064
 20
185.3711030965831412
 30
0.0
 11
136.1714904078002064
 21
98.8711030965830844
 31
0.0
  0
LINE
  5
16F
100
AcDbEntity
  8
8_Panel_layer_9
 62
256
370
-1
 48
1.0
  6
BYLAYER
100
AcDbLine
 10
142.3186316503824855
 20
317.7616814653694064
 30
0.0
 11
142.3186316503824855
 21
231.261681465369378
 31
0.0
  0
LINE
  5
170
100
AcDbEntity
  8
0_Panel_layer1-3
 62
256
370
-1
 48
1.0
  6
BYLAYER
100
AcDbLine
 10
0.0000000000000355
 20
219.9999999966414066
 30
0.0
 11
0.0
 21
306.4999999966414066
 31
0.0
  0
LINE
  5
171
100
AcDbEntity
  8
4_Horizontal_Trim
 62
256
370
-1
 48
1.0
  6
BYLAYER
100
AcDbLine
 10
0.1714904078002242
 20
98.8724619932246185
 30
0.0
 11
0.1714904078001886
 21
185.3724619932246185
 31
0.0
  0
LINE
  5
172
100
AcDbEntity
  8
8_Panel_layer_9
 62
256
370
-1
 48
1.0
  6
BYLAYER
100
AcDbLine
 10
6.3186316503825211
 20
231.2630403620109121
 30
0.0
 11
6.3186316503824855
 21
317.7630403620108837
 31
0.0
  0
LINE
  5
173
100
AcDbEntity
  8
0_Panel_layer1-3
 62
256
370
-1
 48
1.0
  6
BYLAYER
100
AcDbLine
 10
0.0000000000000355
 20
219.9999999966414066
 30
0.0
 11
136.0
 21
219.9999999966414634
 31
0.0
  0
LINE
  5
174
100
AcDbEntity
  8
4_Horizontal_Trim
 62
256
370
-1
 48
1.0
  6
BYLAYER
100
AcDbLine
 10
0.1714904078002242
 20
98.8724619932246185
 30
0.0
 11
136.1714904078002064
 21
98.8724619932246753
 31
0.0
  0
LINE
  5
175
100
AcDbEntity
  8
8_Panel_layer_9
 62
256
370
-1
 48
1.0
  6
BYLAYER
100
AcDbLine
 10
6.3186316503825211
 20
231.2630403620109121
 30
0.0
 11
142.3186316503824855
 21
231.2630403620109689
 31
0.0
  0
LINE
  5
176
100
AcDbEntity
  8
0_Panel_layer1-3
 62
256
370
-1
 48
1.0
  6
BYLAYER
100
AcDbLine
 10
43.9999952816088751
 20
220.4986410999998725
 30
0.0
 11
43.9991837144186135
 21
306.4990563107150479
 31
0.0
  0
LINE
  5
177
100
AcDbEntity
  8
0_Panel_layer1-3
 62
256
370
-1
 48
1.0
  6
BYLAYER
100
AcDbLine
 10
0.0
 20
258.4986410999998725
 30
0.0
 11
136.0
 21
258.4986410999998725
 31
0.0
  0
LINE
  5
178
100
AcDbEntity
  8
4_Horizontal_Trim
 62
256
370
-1
 48
1.0
  6
BYLAYER
100
AcDbLine
 10
0.1714904078001886
 20
137.3724619965832119
 30
0.0
 11
136.1714904078002064
 21
137.3724619965832119
 31
0.0
  0
LINE
  5
179
100
AcDbEntity
  8
8_Panel_layer_9
 62
256
370
-1
 48
1.0
  6
BYLAYER
100
AcDbLine
 10
6.3186316503824855
 20
269.7630403653695339
 30
0.0
 11
142.3186316503824855
 21
269.7630403653695339
 31
0.0
  0
MTEXT
  5
17A
100
AcDbEntity
  8
0_Panel_layer1-3
 62
256
370
-1
 48
1.0
  6
BYLAYER
100
AcDbMText
 10
-25.3809571243398295
 20
273.8570604718178743
 30
0.0
 40
3.0
 41
0.0
 71
1
 72
1
  1
\H4.99999;Front
  7
textstyle68
 50
0.0
 73
2
 44
1.0
  0
MTEXT
  5
17B
100
AcDbEntity
  8
4_Horizontal_Trim
 62
256
370
-1
 48
1.0
  6
BYLAYER
100
AcDbMText
 10
-25.2094667165396302
 20
152.7295224684011146
 30
0.0
 40
3.0
 41
0.0
 71
1
 72
1
  1
\H4.99999;Front
  7
textstyle67
 50
0.0
 73
2
 44
1.0
  0
MTEXT
  5
17C
100
AcDbEntity
  8
3_Vertical_Trim
 62
256
370
-1
 48
1.0
  6
BYLAYER
100
AcDbMText
 10
-25.3809571243398224
 20
313.8570604718178743
 30
0.0
 40
3.0
 41
0.0
 71
1
 72
1
  1
\H4.99999;Front
  7
textstyle70
 50
0.0
 73
2
 44
1.0
  0
MTEXT
  5
17D
100
AcDbEntity
  8
8_Panel_layer_9
 62
256
370
-1
 48
1.0
  6
BYLAYER
100
AcDbMText
 10
-19.062325473957344
 20
285.1201008371873513
 30
0.0
 40
3.0
 41
0.0
 71
1
 72
1
  1
\H4.99999;Front
  7
textstyle69
 50
0.0
 73
2
 44
1.0
  0
MTEXT
  5
17E
100
AcDbEntity
  8
0_Panel_layer1-3
 62
256
370
-1
 48
1.0
  6
BYLAYER
100
AcDbMText
 10
145.3165817265835074
 20
274.7718573031906999
 30
0.0
 40
3.0
 41
0.0
 71
1
 72
1
  1
\H4.99999;Rear
  7
textstyle0
 50
0.0
 73
2
 44
1.0
  0
MTEXT
  5
17F
100
AcDbEntity
  8
4_Horizontal_Trim
 62
256
370
-1
 48
1.0
  6
BYLAYER
100
AcDbMText
 10
145.4880721343837422
 20
153.6443192997739402
 30
0.0
 40
3.0
 41
0.0
 71
1
 72
1
  1
\H4.99999;Rear
  7
textstyle71
 50
0.0
 73
2
 44
1.0
  0
MTEXT
  5
180
100
AcDbEntity
  8
3_Vertical_Trim
 62
256
370
-1
 48
1.0
  6
BYLAYER
100
AcDbMText
 10
145.3165817265835074
 20
314.7718573031906999
 30
0.0
 40
3.0
 41
0.0
 71
1
 72
1
  1
\H4.99999;Rear
  7
textstyle2
 50
0.0
 73
2
 44
1.0
  0
MTEXT
  5
181
100
AcDbEntity
  8
8_Panel_layer_9
 62
256
370
-1
 48
1.0
  6
BYLAYER
100
AcDbMText
 10
151.6352133769659929
 20
286.0348976685602338
 30
0.0
 40
3.0
 41
0.0
 71
1
 72
1
  1
\H4.99999;Rear
  7
textstyle1
 50
0.0
 73
2
 44
1.0
  0
LEADER
  5
182
100
AcDbEntity
  8
1_Baseboards
 62
256
370
-1
 48
1.0
  6
BYLAYER
100
AcDbLeader
  3
Standard
 71
1
 72
0
 73
3
 74
0
 75
0
 40
1.0
 41
10.0
 76
3
 10
122.5000000000000568
 20
218.9999999999997158
 10
127.0000000000000568
 20
211.4999999999997158
 10
138.5000000000000568
 20
211.4999999999997158
1001
ACAD
1000
DSTYLE
1002
{
1070
40
1040
1.0
1002
}
  0
MTEXT
  5
183
100
AcDbEntity
  8
1_Baseboards
 62
256
370
-1
 48
1.0
  6
BYLAYER
100
AcDbMText
 10
139.5967533170688739
 20
214.5999787725925216
 30
0.0
 40
3.0
 41
0.0
 71
1
 72
1
  1
\H5;Use spacers
  7
textstyle3
 50
0.0
 73
2
 44
1.0
  0
MTEXT
  5
184
100
AcDbEntity
  8
1_Baseboards
 62
256
370
-1
 48
1.0
  6
BYLAYER
100
AcDbMText
 10
84.3723478068723267
 20
244.9609062283495291
 30
0.0
 40
3.0
 41
0.0
 71
1
 72
1
  1
\H7.99999;1
  7
textstyle5
 50
0.0
 73
2
 44
1.0
  0
MTEXT
  5
185
100
AcDbEntity
  8
2_Top_Trim
 62
256
370
-1
 48
1.0
  6
BYLAYER
100
AcDbMText
 10
-47.6342449213455339
 20
138.7642418780852722
 30
0.0
 40
3.0
 41
0.0
 71
3
 72
1
  1
\H7.99999;3
  7
textstyle4
 50
0.0
 73
2
 44
1.0
  0
MTEXT
  5
186
100
AcDbEntity
  8
3_Vertical_Trim
 62
256
370
-1
 48
1.0
  6
BYLAYER
100
AcDbMText
 10
-24.0938756976109296
 20
165.1678131640782681
 30
0.0
 40
3.0
 41
0.0
 71
3
 72
1
  1
\H7.99999;2
  7
textstyle7
 50
0.0
 73
2
 44
1.0
  0
MTEXT
  5
187
100
AcDbEntity
  8
1_Baseboards
 62
256
370
-1
 48
1.0
  6
BYLAYER
100
AcDbMText
 10
58.8564385005212642
 20
37.4420743832456395
 30
0.0
 40
3.0
 41
0.0
 71
1
 72
1
  1
\H7.99999;3
  7
textstyle6
 50
0.0
 73
2
 44
1.0
  0
MTEXT
  5
188
100
AcDbEntity
  8
1_Baseboards
 62
256
370
-1
 48
1.0
  6
BYLAYER
100
AcDbMText
 10
-17.1421903985447273
 20
178.4705413385808015
 30
0.0
 40
3.0
 41
0.0
 71
1
 72
1
  1
\H7.99999;2
  7
textstyle9
 50
0.0
 73
2
 44
1.0
  0
MTEXT
  5
189
100
AcDbEntity
  8
2_Top_Trim
 62
256
370
-1
 48
1.0
  6
BYLAYER
100
AcDbMText
 10
88.6352323187208953
 20
289.1103125378589311
 30
0.0
 40
3.0
 41
0.0
 71
1
 72
1
  1
\H7.99999;1
  7
textstyle8
 50
0.0
 73
2
 44
1.0
  0
MTEXT
  5
18A
100
AcDbEntity
  8
2_Top_Trim
 62
256
370
-1
 48
1.0
  6
BYLAYER
100
AcDbMText
 10
22.3657550786543986
 20
289.1315537267519176
 30
0.0
 40
3.0
 41
0.0
 71
3
 72
1
  1
\H7.99999;2
  7
textstyle11
 50
0.0
 73
2
 44
1.0
  0
MTEXT
  5
18B
100
AcDbEntity
  8
2_Top_Trim
 62
256
370
-1
 48
1.0
  6
BYLAYER
100
AcDbMText
 10
-47.634244921345541
 20
138.7642418780852722
 30
0.0
 40
3.0
 41
0.0
 71
3
 72
1
  1
\H7.99999;3
  7
textstyle10
 50
0.0
 73
2
 44
1.0
  0
MTEXT
  5
18C
100
AcDbEntity
  8
2_Top_Trim
 62
256
370
-1
 48
1.0
  6
BYLAYER
100
AcDbMText
 10
-27.6342449213455232
 20
139.1329126267519882
 30
0.0
 40
3.0
 41
0.0
 71
3
 72
1
  1
\H7.99999;4
  7
textstyle13
 50
0.0
 73
2
 44
1.0
  0
MTEXT
  5
18D
100
AcDbEntity
  8
4_Horizontal_Trim
 62
256
370
-1
 48
1.0
  6
BYLAYER
100
AcDbMText
 10
-23.1619977017243244
 20
90.1996244437693804
 30
0.0
 40
3.0
 41
0.0
 71
3
 72
1
  1
\H7.99999;3
  7
textstyle12
 50
0.0
 73
2
 44
1.0
  0
MTEXT
  5
18E
100
AcDbEntity
  8
2_Top_Trim
 62
256
370
-1
 48
1.0
  6
BYLAYER
100
AcDbMText
 10
118.2590331661004086
 20
87.8384498077989377
 30
0.0
 40
3.0
 41
0.0
 71
1
 72
1
  1
\H7.99999;5
  7
textstyle15
 50
0.0
 73
2
 44
1.0
  0
MTEXT
  5
18F
100
AcDbEntity
  8
3_Vertical_Trim
 62
256
370
-1
 48
1.0
  6
BYLAYER
100
AcDbMText
 10
155.252194090053564
 20
244.1329126267518745
 30
0.0
 40
3.0
 41
0.0
 71
1
 72
1
  1
\H7.99999;1
  7
textstyle14
 50
0.0
 73
2
 44
1.0
  0
MTEXT
  5
190
100
AcDbEntity
  8
3_Vertical_Trim
 62
256
370
-1
 48
1.0
  6
BYLAYER
100
AcDbMText
 10
64.0387260340908853
 20
244.1329126267518745
 30
0.0
 40
3.0
 41
0.0
 71
1
 72
1
  1
\H7.99999;1
  7
textstyle17
 50
0.0
 73
2
 44
1.0
  0
MTEXT
  5
191
100
AcDbEntity
  8
6_Front_Trim_A
 62
256
370
-1
 48
1.0
  6
BYLAYER
100
AcDbMText
 10
93.0486603740400682
 20
236.1429150362709208
 30
0.0
 40
3.0
 41
0.0
 71
1
 72
1
  1
\H8;1
  7
textstyle16
 50
0.0
 73
2
 44
1.0
  0
MTEXT
  5
192
100
AcDbEntity
  8
6_Front_Trim_A
 62
256
370
-1
 48
1.0
  6
BYLAYER
100
AcDbMText
 10
-7.4699552663901407
 20
209.0467833367440278
 30
0.0
 40
3.0
 41
0.0
 71
1
 72
1
  1
\H8;4
  7
textstyle19
 50
0.0
 73
2
 44
1.0
  0
MTEXT
  5
193
100
AcDbEntity
  8
6_Front_Trim_A
 62
256
370
-1
 48
1.0
  6
BYLAYER
100
AcDbMText
 10
69.8837980337671638
 20
155.5457560165099267
 30
0.0
 40
3.0
 41
0.0
 71
1
 72
1
  1
\H7.99999;3
  7
textstyle18
 50
0.0
 73
2
 44
1.0
  0
MTEXT
  5
194
100
AcDbEntity
  8
6_Front_Trim_A
 62
256
370
-1
 48
1.0
  6
BYLAYER
100
AcDbMText
 10
-41.0
 20
171.0
 30
0.0
 40
3.0
 41
0.0
 71
1
 72
1
  1
\H8;5
  7
textstyle21
 50
0.0
 73
2
 44
1.0
  0
MTEXT
  5
195
100
AcDbEntity
  8
7_Front_Trim_B
 62
256
370
-1
 48
1.0
  6
BYLAYER
100
AcDbMText
 10
115.3378434034966489
 20
178.2276202013439388
 30
0.0
 40
3.0
 41
0.0
 71
1
 72
1
  1
\H8;4
  7
textstyle20
 50
0.0
 73
2
 44
1.0
  0
MTEXT
  5
196
100
AcDbEntity
  8
6_Front_Trim_A
 62
256
370
-1
 48
1.0
  6
BYLAYER
100
AcDbMText
 10
-10.2229852948114033
 20
125.5188836308942371
 30
0.0
 40
3.0
 41
0.0
 71
1
 72
1
  1
\H7.99999;2
  7
textstyle23
 50
0.0
 73
2
 44
1.0
  0
MTEXT
  5
197
100
AcDbEntity
  8
7_Front_Trim_B
 62
256
370
-1
 48
1.0
  6
BYLAYER
100
AcDbMText
 10
13.115127268001352
 20
238.7796771891844969
 30
0.0
 40
3.0
 41
0.0
 71
1
 72
1
  1
\H8;1
  7
textstyle22
 50
0.0
 73
2
 44
1.0
  0
MTEXT
  5
198
100
AcDbEntity
  8
7_Front_Trim_B
 62
256
370
-1
 48
1.0
  6
BYLAYER
100
AcDbMText
 10
90.2719718792927779
 20
238.7138359538826649
 30
0.0
 40
3.0
 41
0.0
 71
1
 72
1
  1
\H8;2
  7
textstyle25
 50
0.0
 73
2
 44
1.0
  0
MTEXT
  5
199
100
AcDbEntity
  8
7_Front_Trim_B
 62
256
370
-1
 48
1.0
  6
BYLAYER
100
AcDbMText
 10
127.3710808509168118
 20
218.2276202013438819
 30
0.0
 40
3.0
 41
0.0
 71
1
 72
1
  1
\H8;3
  7
textstyle24
 50
0.0
 73
2
 44
1.0
  0
MTEXT
  5
19A
100
AcDbEntity
  8
9_Final_trim
 62
256
370
-1
 48
1.0
  6
BYLAYER
100
AcDbMText
 10
-9.9694349091467807
 20
254.3552868524053849
 30
0.0
 40
3.0
 41
0.0
 71
1
 72
1
  1
\H7.99999;1
  7
textstyle27
 50
0.0
 73
2
 44
1.0
  0
MTEXT
  5
19B
100
AcDbEntity
  8
9_Final_trim
 62
256
370
-1
 48
1.0
  6
BYLAYER
100
AcDbMText
 10
-10.2384410170159015
 20
207.0102118674391818
 30
0.0
 40
3.0
 41
0.0
 71
1
 72
1
  1
\H7.99999;2
  7
textstyle26
 50
0.0
 73
2
 44
1.0
  0
MTEXT
  5
19C
100
AcDbEntity
  8
9_Final_trim
 62
256
370
-1
 48
1.0
  6
BYLAYER
100
AcDbMText
 10
-7.7927865102664118
 20
18.9352543588783817
 30
0.0
 40
3.0
 41
0.0
 71
1
 72
1
  1
\H7.99999;5
  7
textstyle29
 50
0.0
 73
2
 44
1.0
  0
MTEXT
  5
19D
100
AcDbEntity
  8
9_Final_trim
 62
256
370
-1
 48
1.0
  6
BYLAYER
100
AcDbMText
 10
139.1252177026696586
 20
107.8760809955087439
 30
0.0
 40
3.0
 41
0.0
 71
1
 72
1
  1
\H7.99999;3
  7
textstyle28
 50
0.0
 73
2
 44
1.0
  0
MTEXT
  5
19E
100
AcDbEntity
  8
9_Final_trim
 62
256
370
-1
 48
1.0
  6
BYLAYER
100
AcDbMText
 10
4.9143969488776271
 20
106.9532782427412201
 30
0.0
 40
3.0
 41
0.0
 71
1
 72
1
  1
\H7.99999;4
  7
textstyle31
 50
0.0
 73
2
 44
1.0
  0
MTEXT
  5
19F
100
AcDbEntity
  8
3_Vertical_Trim
 62
256
370
-1
 48
1.0
  6
BYLAYER
100
AcDbMText
 10
-1.1811955161122292
 20
67.9168769253412137
 30
0.0
 40
3.0
 41
0.0
 71
3
 72
1
  1
\H7.99999;3
  7
textstyle30
 50
0.0
 73
2
 44
1.0
  0
MTEXT
  5
1A0
100
AcDbEntity
  8
3_Vertical_Trim
 62
256
370
-1
 48
1.0
  6
BYLAYER
100
AcDbMText
 10
127.2810469503070721
 20
67.8307529804713027
 30
0.0
 40
3.0
 41
0.0
 71
1
 72
1
  1
\H7.99999;3
  7
textstyle33
 50
0.0
 73
2
 44
1.0
  0
MTEXT
  5
1A1
100
AcDbEntity
  8
4_Horizontal_Trim
 62
256
370
-1
 48
1.0
  6
BYLAYER
100
AcDbMText
 10
116.7561218391015672
 20
131.9502007433059134
 30
0.0
 40
3.0
 41
0.0
 71
1
 72
1
  1
\H7.99999;2
  7
textstyle32
 50
0.0
 73
2
 44
1.0
  0
MTEXT
  5
1A2
100
AcDbEntity
  8
4_Horizontal_Trim
 62
256
370
-1
 48
1.0
  6
BYLAYER
100
AcDbMText
 10
85.1679323972254281
 20
233.0240562596110578
 30
0.0
 40
3.0
 41
0.0
 71
1
 72
1
  1
\H7.99999;1
  7
textstyle35
 50
0.0
 73
2
 44
1.0
  0
MTEXT
  5
1A3
100
AcDbEntity
  8
4b_Triangle_Trim
 62
256
370
-1
 48
1.0
  6
BYLAYER
100
AcDbMText
 10
38.9314124327035813
 20
187.8074860888248736
 30
0.0
 40
3.0
 41
0.0
 71
1
 72
1
  1
\H7.99999;5
  7
textstyle34
 50
0.0
 73
2
 44
1.0
  0
MTEXT
  5
1A4
100
AcDbEntity
  8
4b_Triangle_Trim
 62
256
370
-1
 48
1.0
  6
BYLAYER
100
AcDbMText
 10
85.0605686825180953
 20
224.0109277469807978
 30
0.0
 40
3.0
 41
0.0
 71
1
 72
1
  1
\H7.99999;4
  7
textstyle37
 50
0.0
 73
2
 44
1.0
  0
MTEXT
  5
1A5
100
AcDbEntity
  8
7_Front_Trim_B
 62
256
370
-1
 48
1.0
  6
BYLAYER
100
AcDbMText
 10
71.3838712086316889
 20
263.0660478435689242
 30
0.0
 40
3.0
 41
0.0
 71
1
 72
1
  1
\H8;5
  7
textstyle36
 50
0.0
 73
2
 44
1.0
  0
CIRCLE
  5
1A6
100
AcDbEntity
  8
1_Baseboards
 62
256
370
-1
 48
1.0
  6
BYLAYER
100
AcDbCircle
 10
86.7381028855267999
 20
240.8279936015975977
 30
0.0
 40
6.6313292513332964
  0
CIRCLE
  5
1A7
100
AcDbEntity
  8
2_Top_Trim
 62
256
370
-1
 48
1.0
  6
BYLAYER
100
AcDbCircle
 10
-50.0
 20
134.631329251333284
 30
0.0
 40
6.6313292513332964
  0
CIRCLE
  5
1A8
100
AcDbEntity
  8
3_Vertical_Trim
 62
256
370
-1
 48
1.0
  6
BYLAYER
100
AcDbCircle
 10
-26.4596307762653993
 20
161.0349005373262798
 30
0.0
 40
6.6313292513332964
  0
CIRCLE
  5
1A9
100
AcDbEntity
  8
1_Baseboards
 62
256
370
-1
 48
1.0
  6
BYLAYER
100
AcDbCircle
 10
61.2221935791757659
 20
33.3091617564936797
 30
0.0
 40
6.6313292513332964
  0
CIRCLE
  5
1AA
100
AcDbEntity
  8
1_Baseboards
 62
256
370
-1
 48
1.0
  6
BYLAYER
100
AcDbCircle
 10
-14.7764353198902256
 20
174.3376287118288133
 30
0.0
 40
6.6313292513332964
  0
CIRCLE
  5
1AB
100
AcDbEntity
  8
2_Top_Trim
 62
256
370
-1
 48
1.0
  6
BYLAYER
100
AcDbCircle
 10
91.0009873973753969
 20
284.9773999111069998
 30
0.0
 40
6.6313292513332964
  0
CIRCLE
  5
1AC
100
AcDbEntity
  8
2_Top_Trim
 62
256
370
-1
 48
1.0
  6
BYLAYER
100
AcDbCircle
 10
19.9999999999999716
 20
284.9986410999999293
 30
0.0
 40
6.6313292513332964
  0
CIRCLE
  5
1AD
100
AcDbEntity
  8
2_Top_Trim
 62
256
370
-1
 48
1.0
  6
BYLAYER
100
AcDbCircle
 10
-50.0
 20
134.631329251333284
 30
0.0
 40
6.6313292513332964
  0
CIRCLE
  5
1AE
100
AcDbEntity
  8
2_Top_Trim
 62
256
370
-1
 48
1.0
  6
BYLAYER
100
AcDbCircle
 10
-30.0
 20
135.0
 30
0.0
 40
6.6313292513332964
  0
CIRCLE
  5
1AF
100
AcDbEntity
  8
4_Horizontal_Trim
 62
256
370
-1
 48
1.0
  6
BYLAYER
100
AcDbCircle
 10
-25.5277527803788047
 20
86.0667118170173637
 30
0.0
 40
6.6313292513332964
  0
CIRCLE
  5
1B0
100
AcDbEntity
  8
2_Top_Trim
 62
256
370
-1
 48
1.0
  6
BYLAYER
100
AcDbCircle
 10
120.6247882447549102
 20
83.7055371810469921
 30
0.0
 40
6.6313292513332964
  0
CIRCLE
  5
1B1
100
AcDbEntity
  8
3_Vertical_Trim
 62
256
370
-1
 48
1.0
  6
BYLAYER
100
AcDbCircle
 10
157.6179491687080372
 20
239.9999999999999432
 30
0.0
 40
6.6313292513332964
  0
CIRCLE
  5
1B2
100
AcDbEntity
  8
3_Vertical_Trim
 62
256
370
-1
 48
1.0
  6
BYLAYER
100
AcDbCircle
 10
66.4044811127453443
 20
239.9999999999999432
 30
0.0
 40
6.6313292513332964
  0
CIRCLE
  5
1B3
100
AcDbEntity
  8
6_Front_Trim_A
 62
256
370
-1
 48
1.0
  6
BYLAYER
100
AcDbCircle
 10
95.4144154526945272
 20
232.0100024095190747
 30
0.0
 40
6.6313292513332964
  0
CIRCLE
  5
1B4
100
AcDbEntity
  8
6_Front_Trim_A
 62
256
370
-1
 48
1.0
  6
BYLAYER
100
AcDbCircle
 10
-5.1042001877357137
 20
204.9138707099921248
 30
0.0
 40
6.6313292513332964
  0
CIRCLE
  5
1B5
100
AcDbEntity
  8
6_Front_Trim_A
 62
256
370
-1
 48
1.0
  6
BYLAYER
100
AcDbCircle
 10
72.5488962838188058
 20
151.577176156650296
 30
0.0
 40
6.6313292513332964
  0
CIRCLE
  5
1B6
100
AcDbEntity
  8
6_Front_Trim_A
 62
256
370
-1
 48
1.0
  6
BYLAYER
100
AcDbCircle
 10
-38.0625740652878193
 20
166.6231938783573696
 30
0.0
 40
6.6313292513332964
  0
CIRCLE
  5
1B7
100
AcDbEntity
  8
7_Front_Trim_B
 62
256
370
-1
 48
1.0
  6
BYLAYER
100
AcDbCircle
 10
117.8132331300282942
 20
174.4175725792491107
 30
0.0
 40
6.6313292513332964
  0
CIRCLE
  5
1B8
100
AcDbEntity
  8
6_Front_Trim_A
 62
256
370
-1
 48
1.0
  6
BYLAYER
100
AcDbCircle
 10
-7.857230216156978
 20
121.3859710041424478
 30
0.0
 40
6.6313292513332964
  0
CIRCLE
  5
1B9
100
AcDbEntity
  8
7_Front_Trim_B
 62
256
370
-1
 48
1.0
  6
BYLAYER
100
AcDbCircle
 10
15.4808823466557968
 20
234.6467645624325655
 30
0.0
 40
6.6313292513332964
  0
CIRCLE
  5
1BA
100
AcDbEntity
  8
7_Front_Trim_B
 62
256
370
-1
 48
1.0
  6
BYLAYER
100
AcDbCircle
 10
92.6377269579473079
 20
234.5809233271307335
 30
0.0
 40
6.6313292513332964
  0
CIRCLE
  5
1BB
100
AcDbEntity
  8
7_Front_Trim_B
 62
256
370
-1
 48
1.0
  6
BYLAYER
100
AcDbCircle
 10
130.5447818433855787
 20
213.9479542060088875
 30
0.0
 40
6.6313292513332964
  0
CIRCLE
  5
1BC
100
AcDbEntity
  8
9_Final_trim
 62
256
370
-1
 48
1.0
  6
BYLAYER
100
AcDbCircle
 10
-7.6036798304923536
 20
250.2223742256535104
 30
0.0
 40
6.6313292513332964
  0
CIRCLE
  5
1BD
100
AcDbEntity
  8
9_Final_trim
 62
256
370
-1
 48
1.0
  6
BYLAYER
100
AcDbCircle
 10
-7.8726859383614851
 20
202.8772992406873072
 30
0.0
 40
6.6313292513332964
  0
CIRCLE
  5
1BE
100
AcDbEntity
  8
9_Final_trim
 62
256
370
-1
 48
1.0
  6
BYLAYER
100
AcDbCircle
 10
-5.4270314316119936
 20
14.8023417321265072
 30
0.0
 40
6.6313292513332964
  0
CIRCLE
  5
1BF
100
AcDbEntity
  8
9_Final_trim
 62
256
370
-1
 48
1.0
  6
BYLAYER
100
AcDbCircle
 10
141.490972781324075
 20
103.7431683687568693
 30
0.0
 40
6.6313292513332964
  0
CIRCLE
  5
1C0
100
AcDbEntity
  8
9_Final_trim
 62
256
370
-1
 48
1.0
  6
BYLAYER
100
AcDbCircle
 10
8.3986670620728319
 20
102.9588916779623275
 30
0.0
 40
6.6313292513332964
  0
CIRCLE
  5
1C1
100
AcDbEntity
  8
3_Vertical_Trim
 62
256
370
-1
 48
1.0
  6
BYLAYER
100
AcDbCircle
 10
-3.9224250374434178
 20
63.8736280813117361
 30
0.0
 40
6.6313292513332964
  0
CIRCLE
  5
1C2
100
AcDbEntity
  8
3_Vertical_Trim
 62
256
370
-1
 48
1.0
  6
BYLAYER
100
AcDbCircle
 10
130.0534446016432071
 20
63.8736280813114519
 30
0.0
 40
6.6313292513332964
  0
CIRCLE
  5
1C3
100
AcDbEntity
  8
4_Horizontal_Trim
 62
256
370
-1
 48
1.0
  6
BYLAYER
100
AcDbCircle
 10
119.1218769177559977
 20
127.8172881165538968
 30
0.0
 40
6.6313292513332964
  0
CIRCLE
  5
1C4
100
AcDbEntity
  8
4_Horizontal_Trim
 62
256
370
-1
 48
1.0
  6
BYLAYER
100
AcDbCircle
 10
88.0007483862159461
 20
229.2037234473570493
 30
0.0
 40
6.6313292513332964
  0
CIRCLE
  5
1C5
100
AcDbEntity
  8
4b_Triangle_Trim
 62
256
370
-1
 48
1.0
  6
BYLAYER
100
AcDbCircle
 10
41.7747643113795277
 20
183.7283107122579224
 30
0.0
 40
6.6313292513332964
  0
CIRCLE
  5
1C6
100
AcDbEntity
  8
4b_Triangle_Trim
 62
256
370
-1
 48
1.0
  6
BYLAYER
100
AcDbCircle
 10
88.1691455078966726
 20
220.0453232304824382
 30
0.0
 40
6.6313292513332964
  0
CIRCLE
  5
1C7
100
AcDbEntity
  8
7_Front_Trim_B
 62
256
370
-1
 48
1.0
  6
BYLAYER
100
AcDbCircle
 10
73.7517885710427095
 20
259.2821892028918569
 30
0.0
 40
6.6313292513332964
  0
MTEXT
  5
1C8
100
AcDbEntity
  8
1_Baseboards
 62
256
370
-1
 48
1.0
  6
BYLAYER
100
AcDbMText
 10
0.0000000000000098
 20
178.0
 30
0.0
 40
3.0
 41
0.0
 71
1
 72
1
  1
\fDejaVu Sans|b0|i0|c0|p0;\H7.99999;Repeat for door-side sidewall
  7
textstyle39
 50
0.0
 73
2
 44
1.0
  0
MTEXT
  5
1C9
100
AcDbEntity
  8
3_Vertical_Trim
 62
256
370
-1
 48
1.0
  6
BYLAYER
100
AcDbMText
 10
142.6434987153859311
 20
166.4075004372077728
 30
0.0
 40
3.0
 41
0.0
 71
3
 72
1
  1
\H7.99999;Repeat on other side sidewall
  7
textstyle38
 50
0.0
 73
2
 44
1.0
  0
MTEXT
  5
1CA
100
AcDbEntity
  8
2_Top_Trim
 62
256
370
-1
 48
1.0
  6
BYLAYER
100
AcDbMText
 10
165.6062733397413069
 20
140.0439636753737318
 30
0.0
 40
3.0
 41
0.0
 71
3
 72
1
  1
\H7.99999;Repeat 1 & 2 for door-side sidewall
  7
textstyle41
 50
0.0
 73
2
 44
1.0
  0
MTEXT
  5
1CB
100
AcDbEntity
  8
4_Horizontal_Trim
 62
256
370
-1
 48
1.0
  6
BYLAYER
100
AcDbMText
 10
0.0000000000000107
 20
90.0
 30
0.0
 40
3.0
 41
0.0
 71
1
 72
1
  1
\H7.99999;Repeat for door-side sidewall
  7
textstyle40
 50
0.0
 73
2
 44
1.0
  0
LEADER
  5
1CC
100
AcDbEntity
  8
3_Vertical_Trim
 62
256
370
-1
 48
1.0
  6
BYLAYER
100
AcDbLeader
  3
Standard
 71
1
 72
0
 73
3
 74
0
 75
0
 40
1.0
 41
10.0
 76
3
 10
19.8155097820998876
 20
70.0118806675518073
 10
14.8847822947922914
 20
63.8736280813117361
 10
2.7089042138898787
 20
63.8736280813117361
1001
ACAD
1000
DSTYLE
1002
{
1070
40
1040
1.0
1002
}
  0
LEADER
  5
1CD
100
AcDbEntity
  8
3_Vertical_Trim
 62
256
370
-1
 48
1.0
  6
BYLAYER
100
AcDbLeader
  3
Standard
 71
1
 72
0
 73
3
 74
0
 75
0
 40
1.0
 41
10.0
 76
3
 10
106.3155097820998947
 20
70.0118806675516367
 10
111.2462372694075157
 20
63.8736280813114519
 10
123.4221153503099089
 20
63.873628081311395
1001
ACAD
1000
DSTYLE
1002
{
1070
40
1040
1.0
1002
}
  0
MTEXT
  5
1CE
100
AcDbEntity
  8
1_Baseboards
 62
256
370
-1
 48
1.0
  6
BYLAYER
100
AcDbMText
 10
40.0
 20
0.0
 30
0.0
 40
3.0
 41
0.0
 71
1
 72
1
  1
\fDejaVu Sans|b0|i0|c0|p0;\H7.99999;Baseboards
  7
textstyle43
 50
0.0
 73
2
 44
1.0
  0
MTEXT
  5
1CF
100
AcDbEntity
  8
2_Top_Trim
 62
256
370
-1
 48
1.0
  6
BYLAYER
100
AcDbMText
 10
49.2434775576624162
 20
-6.4770746791643887
 30
0.0
 40
3.0
 41
0.0
 71
1
 72
1
  1
\H7.99999;Top Trim
  7
textstyle42
 50
0.0
 73
2
 44
1.0
  0
MTEXT
  5
1D0
100
AcDbEntity
  8
5_Panel_layer_6&7
 62
256
370
-1
 48
1.0
  6
BYLAYER
100
AcDbMText
 10
40.0
 20
0.0
 30
0.0
 40
3.0
 41
0.0
 71
1
 72
1
  1
\H8;Front Wall Trim
  7
textstyle44
 50
0.0
 73
2
 44
1.0
  0
LEADER
  5
1D1
100
AcDbEntity
  8
2_Top_Trim
 62
256
370
-1
 48
1.0
  6
BYLAYER
100
AcDbLeader
  3
Standard
 71
1
 72
0
 73
3
 74
0
 75
0
 40
1.0
 41
10.0
 76
3
 10
101.0
 20
93.0
 10
104.0
 20
84.0
 10
114.0
 20
84.0
1001
ACAD
1000
DSTYLE
1002
{
1070
40
1040
1.0
1002
}
  0
HATCH
  5
1D2
100
AcDbEntity
  8
3_Vertical_Trim
 62
256
370
-1
 48
1.0
  6
BYLAYER
100
AcDbHatch
 10
0.0
 20
0.0
 30
0.0
210
0.0
220
0.0
230
1.0
  2
SOLID
 70
1
 71
0
 91
1
 92
1
 93
4
 72
1
 10
135.9999999950485119
 20
304.4986411033963236
 11
135.9999999950485119
 21
224.4986411033963236
 72
1
 10
135.9999999950485119
 20
224.4986411033963236
 11
133.9999999950485119
 21
224.4986411033963236
 72
1
 10
133.9999999950485119
 20
224.4986411033963236
 11
133.9999999950485119
 21
304.4986411033963236
 72
1
 10
133.9999999950485119
 20
304.4986411033963236
 11
135.9999999950485119
 21
304.4986411033963236
 97
0
 75
0
 76
1
 98
0
1001
ACAD
1010
0.0
1020
0.0
1030
0
  0
HATCH
  5
1D3
100
AcDbEntity
  8
3_Vertical_Trim
 62
256
370
-1
 48
1.0
  6
BYLAYER
100
AcDbHatch
 10
0.0
 20
0.0
 30
0.0
210
0.0
220
0.0
230
1.0
  2
SOLID
 70
1
 71
0
 91
1
 92
1
 93
4
 72
1
 10
44.999999995048519
 20
304.501358899999957
 11
44.999999995048519
 21
224.501358899999957
 72
1
 10
44.999999995048519
 20
224.501358899999957
 11
42.999999995048519
 21
224.501358899999957
 72
1
 10
42.999999995048519
 20
224.501358899999957
 11
42.999999995048519
 21
304.501358899999957
 72
1
 10
42.999999995048519
 20
304.501358899999957
 11
44.999999995048519
 21
304.501358899999957
 97
0
 75
0
 76
1
 98
0
1001
ACAD
1010
0.0
1020
0.0
1030
0
  0
HATCH
  5
1D4
100
AcDbEntity
  8
3_Vertical_Trim
 62
256
370
-1
 48
1.0
  6
BYLAYER
100
AcDbHatch
 10
0.0
 20
0.0
 30
0.0
210
0.0
220
0.0
230
1.0
  2
SOLID
 70
1
 71
0
 91
1
 92
1
 93
4
 72
1
 10
105.9999999999999858
 20
93.0118806675517789
 11
105.9999999999999858
 21
13.5769348549708582
 72
1
 10
105.9999999999999858
 20
13.5769348549708582
 11
103.9999999999999858
 21
13.5769348549708582
 72
1
 10
103.9999999999999858
 20
13.5769348549708582
 11
103.9999999999999858
 21
93.0118806675517789
 72
1
 10
103.9999999999999858
 20
93.0118806675517789
 11
105.9999999999999858
 21
93.0118806675517789
 97
0
 75
0
 76
1
 98
0
1001
ACAD
1010
0.0
1020
0.0
1030
0
  0
HATCH
  5
1D5
100
AcDbEntity
  8
3_Vertical_Trim
 62
256
370
-1
 48
1.0
  6
BYLAYER
100
AcDbHatch
 10
0.0
 20
0.0
 30
0.0
210
0.0
220
0.0
230
1.0
  2
SOLID
 70
1
 71
0
 91
1
 92
1
 93
4
 72
1
 10
22.5
 20
93.0118806675517789
 11
22.5
 21
13.5769348549708582
 72
1
 10
22.5
 20
13.5769348549708582
 11
20.5
 21
13.5769348549708582
 72
1
 10
20.5
 20
13.5769348549708582
 11
20.5
 21
93.0118806675517789
 72
1
 10
20.5
 20
93.0118806675517789
 11
22.5
 21
93.0118806675517789
 97
0
 75
0
 76
1
 98
0
1001
ACAD
1010
0.0
1020
0.0
1030
0
  0
HATCH
  5
1D6
100
AcDbEntity
  8
4b_Triangle_Trim
 62
9
420
12632256
370
-1
 48
1.0
  6
BYLAYER
100
AcDbHatch
 10
0.0
 20
0.0
 30
0.0
210
0.0
220
0.0
230
1.0
  2
SOLID
 70
1
 71
0
 91
1
 92
1
 93
4
 72
1
 10
26.1724090011828707
 20
195.5475230828963618
 11
26.1724090011828707
 21
116.1125772703154695
 72
1
 10
26.1724090011828707
 20
116.1125772703154695
 11
24.1724090011828707
 21
116.1125772703154695
 72
1
 10
24.1724090011828707
 20
116.1125772703154695
 11
24.1724090011828707
 21
195.5475230828963618
 72
1
 10
24.1724090011828707
 20
195.5475230828963618
 11
26.1724090011828707
 21
195.5475230828963618
 97
0
 75
0
 76
1
 98
0
1001
ACAD
1010
0.0
1020
0.0
1030
0
  0
HATCH
  5
1D7
100
AcDbEntity
  8
4_Horizontal_Trim
 62
9
420
12632256
370
-1
 48
1.0
  6
BYLAYER
100
AcDbHatch
 10
0.0
 20
0.0
 30
0.0
210
0.0
220
0.0
230
1.0
  2
SOLID
 70
1
 71
0
 91
1
 92
1
 93
4
 72
1
 10
32.5000000000000284
 20
283.5000000000000568
 11
32.5000000000000284
 21
204.0650541874191504
 72
1
 10
32.5000000000000284
 20
204.0650541874191504
 11
30.5000000000000249
 21
204.0650541874191504
 72
1
 10
30.5000000000000249
 20
204.0650541874191504
 11
30.5000000000000249
 21
283.5000000000000568
 72
1
 10
30.5000000000000249
 20
283.5000000000000568
 11
32.5000000000000284
 21
283.5000000000000568
 97
0
 75
0
 76
1
 98
0
1001
ACAD
1010
0.0
1020
0.0
1030
0
  0
HATCH
  5
1D8
100
AcDbEntity
  8
4b_Triangle_Trim
 62
9
420
12632256
370
-1
 48
1.0
  6
BYLAYER
100
AcDbHatch
 10
0.0
 20
0.0
 30
0.0
210
0.0
220
0.0
230
1.0
  2
SOLID
 70
1
 71
0
 91
1
 92
1
 93
4
 72
1
 10
109.6724090011828565
 20
195.5475230828963618
 11
109.6724090011828565
 21
116.1125772703154695
 72
1
 10
109.6724090011828565
 20
116.1125772703154695
 11
107.6724090011828565
 21
116.1125772703154695
 72
1
 10
107.6724090011828565
 20
116.1125772703154695
 11
107.6724090011828565
 21
195.5475230828963618
 72
1
 10
107.6724090011828565
 20
195.5475230828963618
 11
109.6724090011828565
 21
195.5475230828963618
 97
0
 75
0
 76
1
 98
0
1001
ACAD
1010
0.0
1020
0.0
1030
0
  0
HATCH
  5
1D9
100
AcDbEntity
  8
4_Horizontal_Trim
 62
9
420
12632256
370
-1
 48
1.0
  6
BYLAYER
100
AcDbHatch
 10
0.0
 20
0.0
 30
0.0
210
0.0
220
0.0
230
1.0
  2
SOLID
 70
1
 71
0
 91
1
 92
1
 93
4
 72
1
 10
116.0000000000000142
 20
283.5000000000000568
 11
116.0000000000000142
 21
204.0650541874191504
 72
1
 10
116.0000000000000142
 20
204.0650541874191504
 11
114.0000000000000142
 21
204.0650541874191504
 72
1
 10
114.0000000000000142
 20
204.0650541874191504
 11
114.0000000000000142
 21
283.5000000000000568
 72
1
 10
114.0000000000000142
 20
283.5000000000000568
 11
116.0000000000000142
 21
283.5000000000000568
 97
0
 75
0
 76
1
 98
0
1001
ACAD
1010
0.0
1020
0.0
1030
0
  0
HATCH
  5
1DA
100
AcDbEntity
  8
4_Horizontal_Trim
 62
9
420
12632256
370
-1
 48
1.0
  6
BYLAYER
100
AcDbHatch
 10
0.0
 20
0.0
 30
0.0
210
0.0
220
0.0
230
1.0
  2
SOLID
 70
1
 71
0
 91
1
 92
1
 93
4
 72
1
 10
136.1714904078002064
 20
183.3711030999795923
 11
136.1714904078002064
 21
103.3711030999795923
 72
1
 10
136.1714904078002064
 20
103.3711030999795923
 11
134.1714904078002064
 21
103.3711030999795923
 72
1
 10
134.1714904078002064
 20
103.3711030999795923
 11
134.1714904078002064
 21
183.3711030999795923
 72
1
 10
134.1714904078002064
 20
183.3711030999795923
 11
136.1714904078002064
 21
183.3711030999795923
 97
0
 75
0
 76
1
 98
0
1001
ACAD
1010
0.0
1020
0.0
1030
0
  0
HATCH
  5
1DB
100
AcDbEntity
  8
9_Final_trim
 62
252
420
10526884
370
-1
 48
1.0
  6
BYLAYER
100
AcDbHatch
 10
0.0
 20
0.0
 30
0.0
210
0.0
220
0.0
230
1.0
  2
SOLID
 70
1
 71
0
 91
1
 92
1
 93
4
 72
1
 10
142.3186316503824855
 20
315.7616814687659144
 11
142.3186316503824855
 21
235.7616814687658859
 72
1
 10
142.3186316503824855
 20
235.7616814687658859
 11
140.3186316503824855
 21
235.7616814687658859
 72
1
 10
140.3186316503824855
 20
235.7616814687658859
 11
140.3186316503824855
 21
315.7616814687659144
 72
1
 10
140.3186316503824855
 20
315.7616814687659144
 11
142.3186316503824855
 21
315.7616814687659144
 97
0
 75
0
 76
1
 98
0
1001
ACAD
1010
0.0
1020
0.0
1030
0
  0
MTEXT
  5
1DC
100
AcDbEntity
  8
4_Horizontal_Trim
 62
256
370
-1
 48
1.0
  6
BYLAYER
100
AcDbMText
 10
-39.8285095921998362
 20
168.8724619965832119
 30
0.0
 40
3.0
 41
0.0
 71
1
 72
1
  1
\H4.99999;side wall
  7
textstyle45
 50
0.0
 73
2
 44
1.0
  0
LINE
  5
1DD
100
AcDbEntity
  8
5_Panel_layer_6&7
 62
256
370
-1
 48
1.0
  6
BYLAYER
100
AcDbLine
 10
98.8957998122646131
 20
132.9138707099922954
 30
0.0
 11
98.8957998122642721
 21
218.4138707099922385
 31
0.0
  0
MTEXT
  5
1DE
100
AcDbEntity
  8
8_Panel_layer_9
 62
256
370
-1
 48
1.0
  6
BYLAYER
100
AcDbMText
 10
-33.6813683496175074
 20
301.2630403653695339
 30
0.0
 40
3.0
 41
0.0
 71
1
 72
1
  1
\H4.99999;side wall
  7
textstyle46
 50
0.0
 73
2
 44
1.0
  0
LINE
  5
1DF
100
AcDbEntity
  8
8_Panel_layer_9
 62
256
370
-1
 48
1.0
  6
BYLAYER
100
AcDbLine
 10
118.3186316514636047
 20
49.2630403697321242
 30
0.0
 11
118.3186316514632637
 21
134.7630403697321242
 31
0.0
  0
LEADER
  5
1E0
100
AcDbEntity
  8
3_Vertical_Trim
 62
256
370
-1
 48
1.0
  6
BYLAYER
100
AcDbLeader
  3
Standard
 71
1
 72
0
 73
3
 74
0
 75
0
 40
1.0
 41
10.0
 76
3
 10
136.2134680510111764
 20
250.9999999999999432
 10
141.9724933548478134
 20
239.9999999999999432
 10
150.9866199173747532
 20
239.9999999999999432
1001
ACAD
1000
DSTYLE
1002
{
1070
40
1040
1.0
1002
}
  0
LEADER
  5
1E1
100
AcDbEntity
  8
3_Vertical_Trim
 62
256
370
-1
 48
1.0
  6
BYLAYER
100
AcDbLeader
  3
Standard
 71
1
 72
0
 73
3
 74
0
 75
0
 40
1.0
 41
10.0
 76
3
 10
44.9999999950484906
 20
250.9999999999999432
 10
50.7590252988851276
 20
239.9999999999999432
 10
59.7731518614120674
 20
239.9999999999999432
1001
ACAD
1000
DSTYLE
1002
{
1070
40
1040
1.0
1002
}
  0
MTEXT
  5
1E2
100
AcDbEntity
  8
3_Vertical_Trim
 62
256
370
-1
 48
1.0
  6
BYLAYER
100
AcDbMText
 10
44.3189493087202351
 20
-8.1560918716881758
 30
0.0
 40
3.0
 41
0.0
 71
1
 72
1
  1
\H7.99999;Vertical Trim
  7
textstyle47
 50
0.0
 73
2
 44
1.0
  0
LINE
  5
1E3
100
AcDbEntity
  8
8_Panel_layer_9
 62
256
370
-1
 48
1.0
  6
BYLAYER
100
AcDbLine
 10
50.3186269319913606
 20
231.761681465369378
 30
0.0
 11
50.3178153648010991
 21
317.7620966760845249
 31
0.0
  0
HATCH
  5
1E4
100
AcDbEntity
  8
4_Horizontal_Trim
 62
256
370
-1
 48
1.0
  6
ACAD_ISO02W100
100
AcDbHatch
 10
0.0
 20
0.0
 30
0.0
210
0.0
220
0.0
230
1.0
  2
SOLID
 70
1
 71
0
 91
1
 92
1
 93
4
 72
1
 10
45.1714904078001922
 20
138.3724619965832119
 11
134.1714904078002064
 21
138.3724619965832119
 72
1
 10
134.1714904078002064
 20
138.3724619965832119
 11
134.1714904078002064
 21
136.3724619965832119
 72
1
 10
134.1714904078002064
 20
136.3724619965832119
 11
45.1714904078001922
 21
136.3724619965832119
 72
1
 10
45.1714904078001922
 20
136.3724619965832119
 11
45.1714904078001922
 21
138.3724619965832119
 97
0
 75
0
 76
1
 98
0
1001
ACAD
1010
0.0
1020
0.0
1030
0
  0
HATCH
  5
1E5
100
AcDbEntity
  8
8_Panel_layer_9
 62
9
420
12632256
370
-1
 48
1.0
  6
BYLAYER
100
AcDbHatch
 10
0.0
 20
0.0
 30
0.0
210
0.0
220
0.0
230
1.0
  2
SOLID
 70
1
 71
0
 91
1
 92
1
 93
4
 72
1
 10
51.3186316503824855
 20
270.7630403653695339
 11
140.3186316503824855
 21
270.7630403653695339
 72
1
 10
140.3186316503824855
 20
270.7630403653695339
 11
140.3186316503824855
 21
268.7630403653695339
 72
1
 10
140.3186316503824855
 20
268.7630403653695339
 11
51.3186316503824855
 21
268.7630403653695339
 72
1
 10
51.3186316503824855
 20
268.7630403653695339
 11
51.3186316503824855
 21
270.7630403653695339
 97
0
 75
0
 76
1
 98
0
1001
ACAD
1010
0.0
1020
0.0
1030
0
  0
HATCH
  5
1E6
100
AcDbEntity
  8
9_Final_trim
 62
256
370
-1
 48
1.0
  6
BYLAYER
100
AcDbHatch
 10
0.0
 20
0.0
 30
0.0
210
0.0
220
0.0
230
1.0
  2
SOLID
 70
1
 71
0
 91
1
 92
1
 93
4
 72
1
 10
8.3186316503824855
 20
270.7630403653695339
 11
49.3186316503824855
 21
270.7630403653695339
 72
1
 10
49.3186316503824855
 20
270.7630403653695339
 11
49.3186316503824855
 21
268.7630403653695339
 72
1
 10
49.3186316503824855
 20
268.7630403653695339
 11
8.3186316503824855
 21
268.7630403653695339
 72
1
 10
8.3186316503824855
 20
268.7630403653695339
 11
8.3186316503824855
 21
270.7630403653695339
 97
0
 75
0
 76
1
 98
0
1001
ACAD
1010
0.0
1020
0.0
1030
0
  0
LINE
  5
1E7
100
AcDbEntity
  8
5_Panel_layer_6&7
 62
256
370
-1
 48
1.0
  6
BYLAYER
100
AcDbLine
 10
14.6457998122645279
 20
132.9138707099920111
 30
0.0
 11
14.6457998122642721
 21
213.9138707099920111
 31
0.0
  0
LINE
  5
1E8
100
AcDbEntity
  8
5_Panel_layer_6&7
 62
256
370
-1
 48
1.0
  6
BYLAYER
100
AcDbLine
 10
14.8957998122645279
 20
132.9138707099920111
 30
0.0
 11
14.8957998122642721
 21
212.9138707099920111
 31
0.0
  0
LINE
  5
1E9
100
AcDbEntity
  8
5_Panel_layer_6&7
 62
256
370
-1
 48
1.0
  6
BYLAYER
100
AcDbLine
 10
15.6457998122645279
 20
132.9138707099920111
 30
0.0
 11
15.6457998122642721
 21
212.9138707099920111
 31
0.0
  0
LINE
  5
1EA
100
AcDbEntity
  8
5_Panel_layer_6&7
 62
256
370
-1
 48
1.0
  6
BYLAYER
100
AcDbLine
 10
51.6457998122645279
 20
132.9138707099920111
 30
0.0
 11
51.6457998122642721
 21
212.9138707099920111
 31
0.0
  0
LINE
  5
1EB
100
AcDbEntity
  8
5_Panel_layer_6&7
 62
256
370
-1
 48
1.0
  6
BYLAYER
100
AcDbLine
 10
52.3957998122645279
 20
132.9138707099920111
 30
0.0
 11
52.3957998122642721
 21
212.9138707099920111
 31
0.0
  0
LINE
  5
1EC
100
AcDbEntity
  8
8_Panel_layer_9
 62
256
370
-1
 48
1.0
  6
BYLAYER
100
AcDbLine
 10
34.0686316514635337
 20
49.26304036973184
 30
0.0
 11
34.0686316514632921
 21
130.26304036973184
 31
0.0
  0
LINE
  5
1ED
100
AcDbEntity
  8
8_Panel_layer_9
 62
256
370
-1
 48
1.0
  6
BYLAYER
100
AcDbLine
 10
34.3186316514635337
 20
49.26304036973184
 30
0.0
 11
34.3186316514632921
 21
129.26304036973184
 31
0.0
  0
LINE
  5
1EE
100
AcDbEntity
  8
8_Panel_layer_9
 62
256
370
-1
 48
1.0
  6
BYLAYER
100
AcDbLine
 10
35.0686316514635337
 20
49.26304036973184
 30
0.0
 11
35.0686316514632921
 21
129.26304036973184
 31
0.0
  0
LINE
  5
1EF
100
AcDbEntity
  8
8_Panel_layer_9
 62
256
370
-1
 48
1.0
  6
BYLAYER
100
AcDbLine
 10
71.0686316514635337
 20
49.26304036973184
 30
0.0
 11
71.0686316514632921
 21
129.26304036973184
 31
0.0
  0
LINE
  5
1F0
100
AcDbEntity
  8
8_Panel_layer_9
 62
256
370
-1
 48
1.0
  6
BYLAYER
100
AcDbLine
 10
71.8186316514635337
 20
49.26304036973184
 30
0.0
 11
71.8186316514632921
 21
129.26304036973184
 31
0.0
  0
LINE
  5
1F1
100
AcDbEntity
  8
4_Horizontal_Trim
 62
256
370
-1
 48
1.0
  6
BYLAYER
100
AcDbLine
 10
32.5000000000000284
 20
238.5000000000000568
 30
0.0
 11
114.0000000000000142
 21
238.5000000000000568
 31
0.0
  0
LEADER
  5
1F2
100
AcDbEntity
  8
4_Horizontal_Trim
 62
256
370
-1
 48
1.0
  6
BYLAYER
100
AcDbLeader
  3
Standard
 71
1
 72
0
 73
3
 74
0
 75
0
 40
1.0
 41
10.0
 76
3
 10
95.5210693350609574
 20
136.3172881165538968
 10
103.9171194650609493
 20
127.8172881165538968
 10
112.4905476664227137
 20
127.8172881165538968
1001
ACAD
1000
DSTYLE
1002
{
1070
40
1040
1.0
1002
}
  0
LEADER
  5
1F3
100
AcDbEntity
  8
4_Horizontal_Trim
 62
256
370
-1
 48
1.0
  6
BYLAYER
100
AcDbLeader
  3
Standard
 71
1
 72
0
 73
3
 74
0
 75
0
 40
1.0
 41
10.0
 76
3
 10
64.6757016399089935
 20
237.5584517431125846
 10
73.0717517699089854
 20
229.0584517431125846
 10
81.6451799712707356
 20
229.0584517431125846
1001
ACAD
1000
DSTYLE
1002
{
1070
40
1040
1.0
1002
}
  0
LINE
  5
1F4
100
AcDbEntity
  8
5_Panel_layer_6&7
 62
256
370
-1
 48
1.0
  6
BYLAYER
100
AcDbLine
 10
98.8957998122646131
 20
132.9138707099922954
 30
0.0
 11
12.3957998122645279
 21
132.9138707099920111
 31
0.0
  0
LINE
  5
1F5
100
AcDbEntity
  8
8_Panel_layer_9
 62
256
370
-1
 48
1.0
  6
BYLAYER
100
AcDbLine
 10
118.3186316514636047
 20
49.2630403697321242
 30
0.0
 11
31.8186316514635443
 21
49.2630403697318116
 31
0.0
  0
MTEXT
  5
1F6
100
AcDbEntity
  8
4_Horizontal_Trim
 62
256
370
-1
 48
1.0
  6
BYLAYER
100
AcDbMText
 10
40.358566907970868
 20
-6.1175472108193958
 30
0.0
 40
3.0
 41
0.0
 71
1
 72
1
  1
\fDejaVu Sans|b0|i0|c0|p0;\H7.99999;Horizontal Trim
  7
textstyle54
 50
0.0
 73
2
 44
1.0
  0
MTEXT
  5
1F7
100
AcDbEntity
  8
9_Final_trim
 62
256
370
-1
 48
1.0
  6
BYLAYER
100
AcDbMText
 10
52.7163248875786081
 20
-7.3755904222265087
 30
0.0
 40
3.0
 41
0.0
 71
1
 72
1
  1
\H7.99999;Final Trim
  7
textstyle53
 50
0.0
 73
2
 44
1.0
  0
LEADER
  5
1F8
100
AcDbEntity
  8
4b_Triangle_Trim
 62
256
370
-1
 48
1.0
  6
BYLAYER
100
AcDbLeader
  3
Standard
 71
1
 72
0
 73
3
 74
0
 75
0
 40
1.0
 41
10.0
 76
2
 10
80.6921500953068289
 20
207.6995866189968751
 10
84.7338869027241515
 20
214.3731520451975143
1001
ACAD
1000
DSTYLE
1002
{
1070
40
1040
1.0
1002
}
  0
LEADER
  5
1F9
100
AcDbEntity
  8
4b_Triangle_Trim
 62
256
370
-1
 48
1.0
  6
BYLAYER
100
AcDbLeader
  3
Standard
 71
1
 72
0
 73
3
 74
0
 75
0
 40
1.0
 41
10.0
 76
3
 10
53.3924226586415216
 20
207.6995866189968751
 10
60.0
 20
220.0
 10
81.5383215584463414
 20
220.0
1001
ACAD
1000
DSTYLE
1002
{
1070
40
1040
1.0
1002
}
  0
LINE
  5
1FA
100
AcDbEntity
  8
5_Panel_layer_6&7
 62
256
370
-1
 48
1.0
  6
BYLAYER
100
AcDbLine
 10
98.8957998122642721
 20
218.4138707099922385
 30
0.0
 11
54.8957998122642721
 21
218.4138707099921248
 31
0.0
  0
LINE
  5
1FB
100
AcDbEntity
  8
8_Panel_layer_9
 62
256
370
-1
 48
1.0
  6
BYLAYER
100
AcDbLine
 10
118.3186316514632921
 20
134.7630403697321242
 30
0.0
 11
74.3186316514632921
 21
134.7630403697319537
 31
0.0
  0
LEADER
  5
1FC
100
AcDbEntity
  8
1_Baseboards
 62
256
370
-1
 48
1.0
  6
BYLAYER
100
AcDbLeader
  3
Standard
 71
1
 72
0
 73
3
 74
0
 75
0
 40
1.0
 41
10.0
 76
2
 10
86.738102885694417
 20
224.5000000004592948
 10
86.7381028855948699
 20
234.1966643502643137
1001
ACAD
1000
DSTYLE
1002
{
1070
40
1040
1.0
1002
}
  0
LINE
  5
1FD
100
AcDbEntity
  8
5_Panel_layer_6&7
 62
256
370
-1
 48
1.0
  6
BYLAYER
100
AcDbLine
 10
54.8957998122642721
 20
218.4138707099921248
 30
0.0
 11
12.3957998122642579
 21
218.4138707099920111
 31
0.0
  0
LINE
  5
1FE
100
AcDbEntity
  8
8_Panel_layer_9
 62
256
370
-1
 48
1.0
  6
BYLAYER
100
AcDbLine
 10
74.3186316514632921
 20
134.7630403697319537
 30
0.0
 11
31.8186316514632743
 21
134.76304036973184
 31
0.0
  0
LINE
  5
1FF
100
AcDbEntity
  8
5_Panel_layer_6&7
 62
256
370
-1
 48
1.0
  6
BYLAYER
100
AcDbLine
 10
81.1457998122643858
 20
176.4138707099921817
 30
0.0
 11
81.1457998122642721
 21
212.4138707099921817
 31
0.0
  0
LINE
  5
200
100
AcDbEntity
  8
5_Panel_layer_6&7
 62
256
370
-1
 48
1.0
  6
BYLAYER
100
AcDbLine
 10
12.3957998122645279
 20
132.9138707099920111
 30
0.0
 11
12.3957998122642579
 21
218.4138707099920111
 31
0.0
  0
LINE
  5
201
100
AcDbEntity
  8
8_Panel_layer_9
 62
256
370
-1
 48
1.0
  6
BYLAYER
100
AcDbLine
 10
31.8186316514635408
 20
49.2630403697318116
 30
0.0
 11
31.8186316514632743
 21
134.76304036973184
 31
0.0
  0
LINE
  5
202
100
AcDbEntity
  8
5_Panel_layer_6&7
 62
256
370
-1
 48
1.0
  6
BYLAYER
100
AcDbLine
 10
52.6457998122645563
 20
132.9138707099921248
 30
0.0
 11
52.6457998122642721
 21
213.9138707099921248
 31
0.0
  0
LINE
  5
203
100
AcDbEntity
  8
8_Panel_layer_9
 62
256
370
-1
 48
1.0
  6
BYLAYER
100
AcDbLine
 10
72.0686316514635621
 20
49.2630403697319537
 30
0.0
 11
72.0686316514632921
 21
130.2630403697319537
 31
0.0
  0
LEADER
  5
204
100
AcDbEntity
  8
1_Baseboards
 62
256
370
-1
 48
1.0
  6
BYLAYER
100
AcDbLeader
  3
Standard
 71
1
 72
0
 73
3
 74
0
 75
0
 40
1.0
 41
10.0
 76
2
 10
61.2221935791757659
 20
13.56505418741909
 10
61.2221935791757659
 20
26.6778325051603815
1001
ACAD
1000
DSTYLE
1002
{
1070
40
1040
1.0
1002
}
  0
MTEXT
  5
205
100
AcDbEntity
  8
0_Panel_layer1-3
 62
256
370
-1
 48
1.0
  6
BYLAYER
100
AcDbMText
 10
0.0000000000000147
 20
200.0
 30
0.0
 40
3.0
 41
0.0
 71
1
 72
1
  1
\fDejaVu Sans|b0|i0|c0|p0;\H7.99999;Left side wall (facing rear)
  7
textstyle55
 50
0.0
 73
2
 44
1.0
  0
MTEXT
  5
206
100
AcDbEntity
  8
0_Panel_layer1-3
 62
256
370
-1
 48
1.0
  6
BYLAYER
100
AcDbMText
 10
-40.0
 20
90.0
 30
0.0
 40
3.0
 41
0.0
 71
1
 72
1
  1
\H4.99999;rear wall
  7
textstyle56
 50
0.0
 73
2
 44
1.0
  0
LEADER
  5
207
100
AcDbEntity
  8
2_Top_Trim
 62
256
370
-1
 48
1.0
  6
BYLAYER
100
AcDbLeader
  3
Standard
 71
1
 72
0
 73
3
 74
0
 75
0
 40
1.0
 41
10.0
 76
2
 10
91.000000003258009
 20
304.5815199686293795
 10
91.000000003258009
 20
291.6081744665236215
1001
ACAD
1000
DSTYLE
1002
{
1070
40
1040
1.0
1002
}
  0
LEADER
  5
208
100
AcDbEntity
  8
2_Top_Trim
 62
256
370
-1
 48
1.0
  6
BYLAYER
100
AcDbLeader
  3
Standard
 71
1
 72
0
 73
3
 74
0
 75
0
 40
1.0
 41
10.0
 76
2
 10
19.9999999999999716
 20
303.9986410999999293
 10
19.9999999999999716
 20
291.6299703513332133
1001
ACAD
1000
DSTYLE
1002
{
1070
40
1040
1.0
1002
}
  0
MTEXT
  5
209
100
AcDbEntity
  8
4_Horizontal_Trim
 62
256
370
-1
 48
1.0
  6
BYLAYER
100
AcDbMText
 10
-5.7757608363881019
 20
279.6452717042444647
 30
0.0
 40
3.0
 41
0.0
 71
3
 72
1
  1
\H4.99999;rear wall
  7
textstyle57
 50
0.0
 73
2
 44
1.0
  0
MTEXT
  5
20A
100
AcDbEntity
  8
4b_Triangle_Trim
 62
256
370
-1
 48
1.0
  6
BYLAYER
100
AcDbMText
 10
-12.1033518352052205
 20
191.6927947871408264
 30
0.0
 40
3.0
 41
0.0
 71
3
 72
1
  1
\H4.99999;rear wall
  7
textstyle59
 50
0.0
 73
2
 44
1.0
  0
MTEXT
  5
20B
100
AcDbEntity
  8
4b_Triangle_Trim
 62
256
370
-1
 48
1.0
  6
BYLAYER
100
AcDbMText
 10
101.6477845757557077
 20
224.0850464830558622
 30
0.0
 40
3.0
 41
0.0
 71
1
 72
1
  1
\H7.99999;Triangle Trim
  7
textstyle58
 50
0.0
 73
2
 44
1.0
  0
LINE
  5
20C
100
AcDbEntity
  8
5_Panel_layer_6&7
 62
256
370
-1
 48
1.0
  6
BYLAYER
100
AcDbLine
 10
81.1457998122642721
 20
212.4138707099921817
 30
0.0
 11
57.1457998122642721
 21
212.4138707099921248
 31
0.0
  0
LINE
  5
20D
100
AcDbEntity
  8
8_Panel_layer_9
 62
256
370
-1
 48
1.0
  6
BYLAYER
100
AcDbLine
 10
100.5686316514632921
 20
128.7630403697320105
 30
0.0
 11
76.5686316514632921
 21
128.7630403697319537
 31
0.0
  0
LINE
  5
20E
100
AcDbEntity
  8
5_Panel_layer_6&7
 62
256
370
-1
 48
1.0
  6
BYLAYER
100
AcDbLine
 10
57.1457998122644142
 20
176.4138707099921248
 30
0.0
 11
81.1457998122643858
 21
176.4138707099921817
 31
0.0
  0
LINE
  5
20F
100
AcDbEntity
  8
8_Panel_layer_9
 62
256
370
-1
 48
1.0
  6
BYLAYER
100
AcDbLine
 10
76.56863165146342
 20
92.7630403697319537
 30
0.0
 11
100.5686316514634058
 21
92.7630403697320105
 31
0.0
  0
LINE
  5
210
100
AcDbEntity
  8
5_Panel_layer_6&7
 62
256
370
-1
 48
1.0
  6
BYLAYER
100
AcDbLine
 10
14.6457998122642721
 20
213.9138707099920111
 30
0.0
 11
52.6457998122642721
 21
213.9138707099921248
 31
0.0
  0
LINE
  5
211
100
AcDbEntity
  8
8_Panel_layer_9
 62
256
370
-1
 48
1.0
  6
BYLAYER
100
AcDbLine
 10
34.0686316514632921
 20
130.26304036973184
 30
0.0
 11
72.0686316514632921
 21
130.2630403697319537
 31
0.0
  0
LINE
  5
212
100
AcDbEntity
  8
5_Panel_layer_6&7
 62
256
370
-1
 48
1.0
  6
BYLAYER
100
AcDbLine
 10
56.6457998122644142
 20
176.4138707099921248
 30
0.0
 11
96.1457998122644142
 21
176.4138707099921248
 31
0.0
  0
LINE
  5
213
100
AcDbEntity
  8
8_Panel_layer_9
 62
256
370
-1
 48
1.0
  6
BYLAYER
100
AcDbLine
 10
76.0686316514634342
 20
92.7630403697319537
 30
0.0
 11
115.5686316514634342
 21
92.7630403697319537
 31
0.0
  0
LINE
  5
214
100
AcDbEntity
  8
5_Panel_layer_6&7
 62
256
370
-1
 48
1.0
  6
BYLAYER
100
AcDbLine
 10
96.1457998122644142
 20
176.4138707099921248
 30
0.0
 11
96.1457998122644142
 21
175.9138707099921248
 31
0.0
  0
LINE
  5
215
100
AcDbEntity
  8
8_Panel_layer_9
 62
256
370
-1
 48
1.0
  6
BYLAYER
100
AcDbLine
 10
115.5686316514634342
 20
92.7630403697319537
 30
0.0
 11
115.5686316514634342
 21
92.2630403697319537
 31
0.0
  0
LINE
  5
216
100
AcDbEntity
  8
5_Panel_layer_6&7
 62
256
370
-1
 48
1.0
  6
BYLAYER
100
AcDbLine
 10
96.1457998122644142
 20
175.9138707099921248
 30
0.0
 11
56.6457998122644142
 21
175.9138707099921248
 31
0.0
  0
LINE
  5
217
100
AcDbEntity
  8
8_Panel_layer_9
 62
256
370
-1
 48
1.0
  6
BYLAYER
100
AcDbLine
 10
115.5686316514634342
 20
92.2630403697319537
 30
0.0
 11
76.0686316514634342
 21
92.2630403697319537
 31
0.0
  0
LINE
  5
218
100
AcDbEntity
  8
5_Panel_layer_6&7
 62
256
370
-1
 48
1.0
  6
BYLAYER
100
AcDbLine
 10
57.1457998122644142
 20
175.9138707099921248
 30
0.0
 11
95.6457998122644142
 21
175.9138707099921248
 31
0.0
  0
LINE
  5
219
100
AcDbEntity
  8
8_Panel_layer_9
 62
256
370
-1
 48
1.0
  6
BYLAYER
100
AcDbLine
 10
76.5686316514634342
 20
92.2630403697319537
 30
0.0
 11
115.0686316514634342
 21
92.2630403697319537
 31
0.0
  0
LINE
  5
21A
100
AcDbEntity
  8
5_Panel_layer_6&7
 62
256
370
-1
 48
1.0
  6
BYLAYER
100
AcDbLine
 10
95.6457998122644142
 20
175.9138707099921248
 30
0.0
 11
95.6457998122644142
 21
172.4138707099921248
 31
0.0
  0
LINE
  5
21B
100
AcDbEntity
  8
8_Panel_layer_9
 62
256
370
-1
 48
1.0
  6
BYLAYER
100
AcDbLine
 10
115.0686316514634342
 20
92.2630403697319537
 30
0.0
 11
115.0686316514634342
 21
88.7630403697319537
 31
0.0
  0
LINE
  5
21C
100
AcDbEntity
  8
5_Panel_layer_6&7
 62
256
370
-1
 48
1.0
  6
BYLAYER
100
AcDbLine
 10
95.6457998122644142
 20
172.4138707099921248
 30
0.0
 11
56.6457998122644142
 21
172.4138707099921248
 31
0.0
  0
LINE
  5
21D
100
AcDbEntity
  8
8_Panel_layer_9
 62
256
370
-1
 48
1.0
  6
BYLAYER
100
AcDbLine
 10
115.0686316514634342
 20
88.7630403697319537
 30
0.0
 11
76.0686316514634342
 21
88.7630403697319537
 31
0.0
  0
LINE
  5
21E
100
AcDbEntity
  8
5_Panel_layer_6&7
 62
256
370
-1
 48
1.0
  6
BYLAYER
100
AcDbLine
 10
15.6457998122642721
 20
212.9138707099920111
 30
0.0
 11
14.8957998122642721
 21
212.9138707099920111
 31
0.0
  0
LINE
  5
21F
100
AcDbEntity
  8
5_Panel_layer_6&7
 62
256
370
-1
 48
1.0
  6
BYLAYER
100
AcDbLine
 10
52.3957998122642721
 20
212.9138707099920111
 30
0.0
 11
51.6457998122642721
 21
212.9138707099920111
 31
0.0
  0
LINE
  5
220
100
AcDbEntity
  8
8_Panel_layer_9
 62
256
370
-1
 48
1.0
  6
BYLAYER
100
AcDbLine
 10
35.0686316514632921
 20
129.26304036973184
 30
0.0
 11
34.3186316514632921
 21
129.26304036973184
 31
0.0
  0
LINE
  5
221
100
AcDbEntity
  8
8_Panel_layer_9
 62
256
370
-1
 48
1.0
  6
BYLAYER
100
AcDbLine
 10
71.8186316514632921
 20
129.26304036973184
 30
0.0
 11
71.0686316514632921
 21
129.26304036973184
 31
0.0
  0
LINE
  5
222
100
AcDbEntity
  8
5_Panel_layer_6&7
 62
256
370
-1
 48
1.0
  6
BYLAYER
100
AcDbLine
 10
14.8957998122645279
 20
132.9138707099920111
 30
0.0
 11
15.6457998122645279
 21
132.9138707099920111
 31
0.0
  0
LINE
  5
223
100
AcDbEntity
  8
5_Panel_layer_6&7
 62
256
370
-1
 48
1.0
  6
BYLAYER
100
AcDbLine
 10
51.6457998122645279
 20
132.9138707099920111
 30
0.0
 11
52.3957998122645279
 21
132.9138707099920111
 31
0.0
  0
LINE
  5
224
100
AcDbEntity
  8
8_Panel_layer_9
 62
256
370
-1
 48
1.0
  6
BYLAYER
100
AcDbLine
 10
34.3186316514635408
 20
49.26304036973184
 30
0.0
 11
35.0686316514635408
 21
49.26304036973184
 31
0.0
  0
LINE
  5
225
100
AcDbEntity
  8
8_Panel_layer_9
 62
256
370
-1
 48
1.0
  6
BYLAYER
100
AcDbLine
 10
71.0686316514635479
 20
49.26304036973184
 30
0.0
 11
71.8186316514635479
 21
49.26304036973184
 31
0.0
  0
LINE
  5
226
100
AcDbEntity
  8
5_Panel_layer_6&7
 62
256
370
-1
 48
1.0
  6
BYLAYER
100
AcDbLine
 10
52.3957998122642721
 20
212.9138707099920111
 30
0.0
 11
52.3957998122642721
 21
213.6638707099920111
 31
0.0
  0
LINE
  5
227
100
AcDbEntity
  8
8_Panel_layer_9
 62
256
370
-1
 48
1.0
  6
BYLAYER
100
AcDbLine
 10
71.8186316514632921
 20
129.26304036973184
 30
0.0
 11
71.8186316514632921
 21
130.01304036973184
 31
0.0
  0
LINE
  5
228
100
AcDbEntity
  8
5_Panel_layer_6&7
 62
256
370
-1
 48
1.0
  6
BYLAYER
100
AcDbLine
 10
52.3957998122642721
 20
213.6638707099920111
 30
0.0
 11
14.8957998122642863
 21
213.6638707099921248
 31
0.0
  0
LINE
  5
229
100
AcDbEntity
  8
8_Panel_layer_9
 62
256
370
-1
 48
1.0
  6
BYLAYER
100
AcDbLine
 10
71.8186316514632921
 20
130.01304036973184
 30
0.0
 11
34.3186316514633063
 21
130.0130403697319537
 31
0.0
  0
LINE
  5
22A
100
AcDbEntity
  8
5_Panel_layer_6&7
 62
256
370
-1
 48
1.0
  6
BYLAYER
100
AcDbLine
 10
14.8957998122642863
 20
213.6638707099921248
 30
0.0
 11
14.8957998122642721
 21
212.9138707099920111
 31
0.0
  0
LINE
  5
22B
100
AcDbEntity
  8
8_Panel_layer_9
 62
256
370
-1
 48
1.0
  6
BYLAYER
100
AcDbLine
 10
34.3186316514633063
 20
130.0130403697319537
 30
0.0
 11
34.3186316514632921
 21
129.26304036973184
 31
0.0
  0
LINE
  5
22C
100
AcDbEntity
  8
5_Panel_layer_6&7
 62
256
370
-1
 48
1.0
  6
BYLAYER
100
AcDbLine
 10
14.8957998122642721
 20
212.9138707099920111
 30
0.0
 11
52.3957998122642721
 21
212.9138707099920111
 31
0.0
  0
LINE
  5
22D
100
AcDbEntity
  8
8_Panel_layer_9
 62
256
370
-1
 48
1.0
  6
BYLAYER
100
AcDbLine
 10
34.3186316514632921
 20
129.26304036973184
 30
0.0
 11
71.8186316514632921
 21
129.26304036973184
 31
0.0
  0
LINE
  5
22E
100
AcDbEntity
  8
5_Panel_layer_6&7
 62
256
370
-1
 48
1.0
  6
BYLAYER
100
AcDbLine
 10
18.8957998122642863
 20
208.9138707099921248
 30
0.0
 11
48.3957998122642863
 21
208.9138707099921248
 31
0.0
  0
LINE
  5
22F
100
AcDbEntity
  8
8_Panel_layer_9
 62
256
370
-1
 48
1.0
  6
BYLAYER
100
AcDbLine
 10
38.3186316514633063
 20
125.2630403697319537
 30
0.0
 11
67.8186316514633063
 21
125.2630403697319537
 31
0.0
  0
LINE
  5
230
100
AcDbEntity
  8
5_Panel_layer_6&7
 62
256
370
-1
 48
1.0
  6
BYLAYER
100
AcDbLine
 10
48.3957998122642863
 20
208.9138707099921248
 30
0.0
 11
48.3957998122642863
 21
182.9138707099921248
 31
0.0
  0
LINE
  5
231
100
AcDbEntity
  8
8_Panel_layer_9
 62
256
370
-1
 48
1.0
  6
BYLAYER
100
AcDbLine
 10
67.8186316514633063
 20
125.2630403697319537
 30
0.0
 11
67.8186316514633063
 21
99.2630403697319537
 31
0.0
  0
LINE
  5
232
100
AcDbEntity
  8
5_Panel_layer_6&7
 62
256
370
-1
 48
1.0
  6
BYLAYER
100
AcDbLine
 10
48.3957998122642863
 20
182.9138707099921248
 30
0.0
 11
18.8957998122642863
 21
182.9138707099921248
 31
0.0
  0
LINE
  5
233
100
AcDbEntity
  8
8_Panel_layer_9
 62
256
370
-1
 48
1.0
  6
BYLAYER
100
AcDbLine
 10
67.8186316514633063
 20
99.2630403697319537
 30
0.0
 11
38.3186316514633063
 21
99.2630403697319537
 31
0.0
  0
LINE
  5
234
100
AcDbEntity
  8
5_Panel_layer_6&7
 62
256
370
-1
 48
1.0
  6
BYLAYER
100
AcDbLine
 10
18.8957998122642863
 20
182.9138707099921248
 30
0.0
 11
18.8957998122642863
 21
208.9138707099921248
 31
0.0
  0
LINE
  5
235
100
AcDbEntity
  8
8_Panel_layer_9
 62
256
370
-1
 48
1.0
  6
BYLAYER
100
AcDbLine
 10
38.3186316514633063
 20
99.2630403697319537
 30
0.0
 11
38.3186316514633063
 21
125.2630403697319537
 31
0.0
  0
LINE
  5
236
100
AcDbEntity
  8
5_Panel_layer_6&7
 62
256
370
-1
 48
1.0
  6
BYLAYER
100
AcDbLine
 10
18.8957998122642863
 20
174.9138707099921248
 30
0.0
 11
48.3957998122642863
 21
174.9138707099921248
 31
0.0
  0
LINE
  5
237
100
AcDbEntity
  8
8_Panel_layer_9
 62
256
370
-1
 48
1.0
  6
BYLAYER
100
AcDbLine
 10
38.3186316514633063
 20
91.2630403697319537
 30
0.0
 11
67.8186316514633063
 21
91.2630403697319537
 31
0.0
  0
LINE
  5
238
100
AcDbEntity
  8
5_Panel_layer_6&7
 62
256
370
-1
 48
1.0
  6
BYLAYER
100
AcDbLine
 10
48.3957998122642863
 20
174.9138707099921248
 30
0.0
 11
48.3957998122642863
 21
138.9138707099921248
 31
0.0
  0
LINE
  5
239
100
AcDbEntity
  8
8_Panel_layer_9
 62
256
370
-1
 48
1.0
  6
BYLAYER
100
AcDbLine
 10
67.8186316514633063
 20
91.2630403697319537
 30
0.0
 11
67.8186316514633063
 21
55.2630403697319537
 31
0.0
  0
LINE
  5
23A
100
AcDbEntity
  8
5_Panel_layer_6&7
 62
256
370
-1
 48
1.0
  6
BYLAYER
100
AcDbLine
 10
48.3957998122642863
 20
138.9138707099921248
 30
0.0
 11
18.8957998122642863
 21
138.9138707099921248
 31
0.0
  0
LINE
  5
23B
100
AcDbEntity
  8
8_Panel_layer_9
 62
256
370
-1
 48
1.0
  6
BYLAYER
100
AcDbLine
 10
67.8186316514633063
 20
55.2630403697319537
 30
0.0
 11
38.3186316514633063
 21
55.2630403697319537
 31
0.0
  0
LINE
  5
23C
100
AcDbEntity
  8
5_Panel_layer_6&7
 62
256
370
-1
 48
1.0
  6
BYLAYER
100
AcDbLine
 10
18.8957998122642863
 20
138.9138707099921248
 30
0.0
 11
18.8957998122642863
 21
174.9138707099921248
 31
0.0
  0
LINE
  5
23D
100
AcDbEntity
  8
8_Panel_layer_9
 62
256
370
-1
 48
1.0
  6
BYLAYER
100
AcDbLine
 10
38.3186316514633063
 20
55.2630403697319537
 30
0.0
 11
38.3186316514633063
 21
91.2630403697319537
 31
0.0
  0
HATCH
  5
23E
100
AcDbEntity
  8
6_Front_Trim_A
 62
256
370
-1
 48
1.0
  6
BYLAYER
100
AcDbHatch
 10
0.0
 20
0.0
 30
0.0
210
0.0
220
0.0
230
1.0
  2
SOLID
 70
1
 71
0
 91
1
 92
1
 93
4
 72
1
 10
15.2707998122642863
 20
136.9138707099921248
 11
15.2707998122642863
 21
132.9138707099921248
 72
1
 10
15.2707998122642863
 20
132.9138707099921248
 11
12.8957998122642863
 21
132.9138707099921248
 72
1
 10
12.8957998122642863
 20
132.9138707099921248
 11
12.8957998122642863
 21
136.9138707099921248
 72
1
 10
12.8957998122642863
 20
136.9138707099921248
 11
15.2707998122642863
 21
136.9138707099921248
 97
0
 75
0
 76
1
 98
0
1001
ACAD
1010
0.0
1020
0.0
1030
0
  0
HATCH
  5
23F
100
AcDbEntity
  8
7_Front_Trim_B
 62
9
420
12632256
370
-1
 48
1.0
  6
BYLAYER
100
AcDbHatch
 10
0.0
 20
0.0
 30
0.0
210
0.0
220
0.0
230
1.0
  2
SOLID
 70
1
 71
0
 91
1
 92
1
 93
4
 72
1
 10
15.2707998122636397
 20
136.9471028449925996
 11
15.2707998122636397
 21
132.9471028449925996
 72
1
 10
15.2707998122636397
 20
132.9471028449925996
 11
12.8957998122636397
 21
132.9471028449925996
 72
1
 10
12.8957998122636397
 20
132.9471028449925996
 11
12.8957998122636397
 21
136.9471028449925996
 72
1
 10
12.8957998122636397
 20
136.9471028449925996
 11
15.2707998122636397
 21
136.9471028449925996
 97
0
 75
0
 76
1
 98
0
1001
ACAD
1010
0.0
1020
0.0
1030
0
  0
HATCH
  5
240
100
AcDbEntity
  8
8_Panel_layer_9
 62
9
420
12632256
370
-1
 48
1.0
  6
BYLAYER
100
AcDbHatch
 10
0.0
 20
0.0
 30
0.0
210
0.0
220
0.0
230
1.0
  2
SOLID
 70
1
 71
0
 91
1
 92
1
 93
4
 72
1
 10
34.6936316514640879
 20
53.2630403697318968
 11
34.6936316514640879
 21
49.2630403697318968
 72
1
 10
34.6936316514640879
 20
49.2630403697318968
 11
32.3186316514640879
 21
49.2630403697318968
 72
1
 10
32.3186316514640879
 20
49.2630403697318968
 11
32.3186316514640879
 21
53.2630403697318968
 72
1
 10
32.3186316514640879
 20
53.2630403697318968
 11
34.6936316514640879
 21
53.2630403697318968
 97
0
 75
0
 76
1
 98
0
1001
ACAD
1010
0.0
1020
0.0
1030
0
  0
HATCH
  5
241
100
AcDbEntity
  8
6_Front_Trim_A
 62
256
370
-1
 48
1.0
  6
BYLAYER
100
AcDbHatch
 10
0.0
 20
0.0
 30
0.0
210
0.0
220
0.0
230
1.0
  2
SOLID
 70
1
 71
0
 91
1
 92
1
 93
4
 72
1
 10
12.3957998122642863
 20
136.9138707099921248
 11
15.2707998122642863
 21
136.9138707099921248
 72
1
 10
15.2707998122642863
 20
136.9138707099921248
 11
15.2707998122642863
 21
216.4138707099922385
 72
1
 10
15.2707998122642863
 20
216.4138707099922385
 11
12.3957998122642721
 21
216.4138707099922385
 72
1
 10
12.3957998122642721
 20
216.4138707099922385
 11
12.3957998122645137
 21
136.9138707099921248
 97
0
 75
0
 76
1
 98
0
1001
ACAD
1010
0.0
1020
0.0
1030
0
  0
HATCH
  5
242
100
AcDbEntity
  8
7_Front_Trim_B
 62
9
420
12632256
370
-1
 48
1.0
  6
BYLAYER
100
AcDbHatch
 10
0.0
 20
0.0
 30
0.0
210
0.0
220
0.0
230
1.0
  2
SOLID
 70
1
 71
0
 91
1
 92
1
 93
4
 72
1
 10
12.3957998122636397
 20
136.9471028449925996
 11
15.2707998122636397
 21
136.9471028449925996
 72
1
 10
15.2707998122636397
 20
136.9471028449925996
 11
15.2707998122636397
 21
216.4471028449927985
 72
1
 10
15.2707998122636397
 20
216.4471028449927985
 11
12.3957998122636255
 21
216.4471028449927985
 72
1
 10
12.3957998122636255
 20
216.4471028449927985
 11
12.3957998122638671
 21
136.9471028449925996
 97
0
 75
0
 76
1
 98
0
1001
ACAD
1010
0.0
1020
0.0
1030
0
  0
HATCH
  5
243
100
AcDbEntity
  8
8_Panel_layer_9
 62
9
420
12632256
370
-1
 48
1.0
  6
BYLAYER
100
AcDbHatch
 10
0.0
 20
0.0
 30
0.0
210
0.0
220
0.0
230
1.0
  2
SOLID
 70
1
 71
0
 91
1
 92
1
 93
4
 72
1
 10
31.8186316514640879
 20
53.2630403697318968
 11
34.6936316514640879
 21
53.2630403697318968
 72
1
 10
34.6936316514640879
 20
53.2630403697318968
 11
34.6936316514640879
 21
132.7630403697320673
 72
1
 10
34.6936316514640879
 20
132.7630403697320673
 11
31.8186316514640701
 21
132.7630403697320673
 72
1
 10
31.8186316514640701
 20
132.7630403697320673
 11
31.8186316514643188
 21
53.2630403697318968
 97
0
 75
0
 76
1
 98
0
1001
ACAD
1010
0.0
1020
0.0
1030
0
  0
HATCH
  5
244
100
AcDbEntity
  8
6_Front_Trim_A
 62
256
370
-1
 48
1.0
  6
BYLAYER
100
AcDbHatch
 10
0.0
 20
0.0
 30
0.0
210
0.0
220
0.0
230
1.0
  2
SOLID
 70
1
 71
0
 91
1
 92
1
 93
10
 72
1
 10
56.6457998122644142
 20
175.9138707099921248
 11
56.6457998122644142
 21
176.4138707099921248
 72
1
 10
56.6457998122644142
 20
176.4138707099921248
 11
57.1457998122644142
 21
176.4138707099921248
 72
1
 10
57.1457998122644142
 20
176.4138707099921248
 11
57.1457998122642721
 21
212.4138707099921248
 72
1
 10
57.1457998122642721
 20
212.4138707099921248
 11
57.1457998122642721
 21
216.4138707099922385
 72
1
 10
57.1457998122642721
 20
216.4138707099922385
 11
52.0207998122642721
 21
216.4138707099922385
 72
1
 10
52.0207998122642863
 20
216.4138707099921248
 11
52.0207998122642863
 21
132.9138707099921248
 72
1
 10
52.0207998122642863
 20
132.9138707099921248
 11
57.1457998122645563
 21
132.9138707099921248
 72
1
 10
57.1457998122645563
 20
132.9138707099921248
 11
57.1457998122644142
 21
172.4138707099921248
 72
1
 10
57.1457998122644142
 20
172.4138707099921248
 11
56.6457998122644142
 21
172.4138707099921248
 72
1
 10
56.6457998122644142
 20
172.4138707099921248
 11
56.6457998122644142
 21
175.9138707099921248
 97
0
 75
0
 76
1
 98
0
1001
ACAD
1010
0.0
1020
0.0
1030
0
  0
HATCH
  5
245
100
AcDbEntity
  8
8_Panel_layer_9
 62
9
420
12632256
370
-1
 48
1.0
  6
BYLAYER
100
AcDbHatch
 10
0.0
 20
0.0
 30
0.0
210
0.0
220
0.0
230
1.0
  2
SOLID
 70
1
 71
0
 91
1
 92
1
 93
10
 72
1
 10
76.0686316514642158
 20
92.2630403697318968
 11
76.0686316514642158
 21
92.7630403697318968
 72
1
 10
76.0686316514642158
 20
92.7630403697318968
 11
76.5686316514642158
 21
92.7630403697318968
 72
1
 10
76.5686316514642158
 20
92.7630403697318968
 11
76.5686316514640737
 21
128.7630403697318968
 72
1
 10
76.5686316514640879
 20
128.7630403697318968
 11
76.5686316514640737
 21
132.7630403697320673
 72
1
 10
76.5686316514640737
 20
132.7630403697320673
 11
71.4436316514640737
 21
132.7630403697320673
 72
1
 10
71.4436316514640879
 20
132.7630403697318968
 11
71.4436316514640879
 21
49.2630403697318968
 72
1
 10
71.4436316514640879
 20
49.2630403697318684
 11
76.5686316514643721
 21
49.2630403697319252
 72
1
 10
76.5686316514643721
 20
49.2630403697319252
 11
76.5686316514642158
 21
88.7630403697318968
 72
1
 10
76.5686316514642158
 20
88.7630403697318968
 11
76.0686316514642158
 21
88.7630403697318968
 72
1
 10
76.0686316514642158
 20
88.7630403697318968
 11
76.0686316514642158
 21
92.2630403697318968
 97
0
 75
0
 76
1
 98
0
1001
ACAD
1010
0.0
1020
0.0
1030
0
  0
LEADER
  5
246
100
AcDbEntity
  8
6_Front_Trim_A
 62
256
370
-1
 48
1.0
  6
BYLAYER
100
AcDbLeader
  3
Standard
 71
1
 72
0
 73
3
 74
0
 75
0
 40
1.0
 41
10.0
 76
2
 10
81.1570917356308428
 20
218.5596970160627279
 10
90.5908286475743694
 20
227.459448819783006
1001
ACAD
1000
DSTYLE
1002
{
1070
40
1040
1.0
1002
}
  0
LEADER
  5
247
100
AcDbEntity
  8
6_Front_Trim_A
 62
256
370
-1
 48
1.0
  6
BYLAYER
100
AcDbLeader
  3
Standard
 71
1
 72
0
 73
3
 74
0
 75
0
 40
1.0
 41
10.0
 76
2
 10
12.0225220132653448
 20
193.0041167684957486
 10
0.3401611548478058
 20
201.1279154526005755
1001
ACAD
1000
DSTYLE
1002
{
1070
40
1040
1.0
1002
}
  0
LEADER
  5
248
100
AcDbEntity
  8
6_Front_Trim_A
 62
256
370
-1
 48
1.0
  6
BYLAYER
100
AcDbLeader
  3
Standard
 71
1
 72
0
 73
3
 74
0
 75
0
 40
1.0
 41
10.0
 76
2
 10
57.145799812264471
 20
161.799408255677065
 10
67.0236105715540589
 20
155.2440202271599219
1001
ACAD
1000
DSTYLE
1002
{
1070
40
1040
1.0
1002
}
  0
LEADER
  5
249
100
AcDbEntity
  8
6_Front_Trim_A
 62
256
370
-1
 48
1.0
  6
BYLAYER
100
AcDbLeader
  3
Standard
 71
1
 72
0
 73
3
 74
0
 75
0
 40
1.0
 41
10.0
 76
2
 10
12.8957998122642863
 20
134.9138707099921248
 10
-2.301939900798402
 20
125.0071969224844679
1001
ACAD
1000
DSTYLE
1002
{
1070
40
1040
1.0
1002
}
  0
MTEXT
  5
24A
100
AcDbEntity
  8
6_Front_Trim_A
 62
256
370
-1
 48
1.0
  6
BYLAYER
100
AcDbMText
 10
-73.379961024123844
 20
152.5591424142368169
 30
0.0
 40
3.0
 41
0.0
 71
1
 72
1
  1
\H5;Add 2" trim to sidewall\P  in this corner
  7
textstyle61
 50
0.0
 73
2
 44
1.0
  0
MTEXT
  5
24B
100
AcDbEntity
  8
7_Front_Trim_B
 62
256
370
-1
 48
1.0
  6
BYLAYER
100
AcDbMText
 10
100.0
 20
120.0
 30
0.0
 40
3.0
 41
0.0
 71
1
 72
1
  1
\H5;Install 2" trim to side wall\P  in this corner before\P  front-wall corner trim,\P  unless there is not enough\P  space between side trim and\P  shelf edge.  In this case, install\P  front-wall corner trim first,\P  and then side-wall trim.
  7
textstyle60
 50
0.0
 73
2
 44
1.0
  0
LINE
  5
24C
100
AcDbEntity
  8
5_Panel_layer_6&7
 62
256
370
-1
 48
1.0
  6
BYLAYER
100
AcDbLine
 10
56.6457998122644142
 20
172.4138707099921248
 30
0.0
 11
56.6457998122644142
 21
175.9138707099921248
 31
0.0
  0
LINE
  5
24D
100
AcDbEntity
  8
8_Panel_layer_9
 62
256
370
-1
 48
1.0
  6
BYLAYER
100
AcDbLine
 10
76.0686316514634342
 20
88.7630403697319537
 30
0.0
 11
76.0686316514634342
 21
92.2630403697319537
 31
0.0
  0
LINE
  5
24E
100
AcDbEntity
  8
5_Panel_layer_6&7
 62
256
370
-1
 48
1.0
  6
BYLAYER
100
AcDbLine
 10
56.6457998122644142
 20
175.9138707099921248
 30
0.0
 11
56.6457998122644142
 21
176.4138707099921248
 31
0.0
  0
LINE
  5
24F
100
AcDbEntity
  8
8_Panel_layer_9
 62
256
370
-1
 48
1.0
  6
BYLAYER
100
AcDbLine
 10
76.0686316514634342
 20
92.2630403697319537
 30
0.0
 11
76.0686316514634342
 21
92.7630403697319537
 31
0.0
  0
LINE
  5
250
100
AcDbEntity
  8
5_Panel_layer_6&7
 62
256
370
-1
 48
1.0
  6
BYLAYER
100
AcDbLine
 10
57.1457998122642721
 20
212.4138707099921248
 30
0.0
 11
57.1457998122644142
 21
176.4138707099921248
 31
0.0
  0
LINE
  5
251
100
AcDbEntity
  8
8_Panel_layer_9
 62
256
370
-1
 48
1.0
  6
BYLAYER
100
AcDbLine
 10
76.5686316514632921
 20
128.7630403697319537
 30
0.0
 11
76.56863165146342
 21
92.7630403697319537
 31
0.0
  0
HATCH
  5
252
100
AcDbEntity
  8
7_Front_Trim_B
 62
256
370
-1
 48
1.0
  6
BYLAYER
100
AcDbHatch
 10
0.0
 20
0.0
 30
0.0
210
0.0
220
0.0
230
1.0
  2
SOLID
 70
1
 71
0
 91
1
 92
1
 93
4
 72
1
 10
15.2510654677628921
 20
215.2798060471662325
 11
52.0010654677628921
 21
215.2798060471662325
 72
1
 10
52.0010654677628921
 20
215.2798060471662325
 11
52.0010654677628921
 21
213.2798060471662325
 72
1
 10
52.0010654677628921
 20
213.2798060471662325
 11
15.2510654677628921
 21
213.2798060471662325
 72
1
 10
15.2510654677628921
 20
213.2798060471662325
 11
15.2510654677628921
 21
215.2798060471662325
 97
0
 75
0
 76
1
 98
0
1001
ACAD
1010
0.0
1020
0.0
1030
0
  0
HATCH
  5
253
100
AcDbEntity
  8
8_Panel_layer_9
 62
9
420
12632256
370
-1
 48
1.0
  6
BYLAYER
100
AcDbHatch
 10
0.0
 20
0.0
 30
0.0
210
0.0
220
0.0
230
1.0
  2
SOLID
 70
1
 71
0
 91
1
 92
1
 93
4
 72
1
 10
34.6830852214895629
 20
131.6320499401032578
 11
71.4330852214895629
 21
131.6320499401032578
 72
1
 10
71.4330852214895629
 20
131.6320499401032578
 11
71.4330852214895629
 21
129.6320499401032578
 72
1
 10
71.4330852214895629
 20
129.6320499401032578
 11
34.6830852214895629
 21
129.6320499401032578
 72
1
 10
34.6830852214895629
 20
129.6320499401032578
 11
34.6830852214895629
 21
131.6320499401032578
 97
0
 75
0
 76
1
 98
0
1001
ACAD
1010
0.0
1020
0.0
1030
0
  0
HATCH
  5
254
100
AcDbEntity
  8
6_Front_Trim_A
 62
9
420
12632256
370
-1
 48
1.0
  6
BYLAYER
100
AcDbHatch
 10
0.0
 20
0.0
 30
0.0
210
0.0
220
0.0
230
1.0
  2
SOLID
 70
1
 71
0
 91
1
 92
1
 93
4
 72
1
 10
98.8957998122645563
 20
136.4138707099922385
 11
98.8957998122646131
 21
132.9138707099922385
 72
1
 10
98.8957998122646131
 20
132.9138707099922385
 11
52.034315970010482
 21
132.9138707099922385
 72
1
 10
52.034315970010482
 20
132.9138707099922385
 11
52.034315970010482
 21
136.4138707099922385
 72
1
 10
52.034315970010482
 20
136.4138707099922385
 11
98.8957998122645563
 21
136.4138707099922385
 97
0
 75
0
 76
1
 98
0
1001
ACAD
1010
0.0
1020
0.0
1030
0
  0
HATCH
  5
255
100
AcDbEntity
  8
8_Panel_layer_9
 62
9
420
12632256
370
-1
 48
1.0
  6
BYLAYER
100
AcDbHatch
 10
0.0
 20
0.0
 30
0.0
210
0.0
220
0.0
230
1.0
  2
SOLID
 70
1
 71
0
 91
1
 92
1
 93
4
 72
1
 10
118.3186316514635763
 20
53.2630403697321384
 11
118.3186316514636047
 21
49.2630403697321242
 72
1
 10
118.3186316514636047
 20
49.2630403697321242
 11
76.5686316514643721
 21
49.2630403697319679
 72
1
 10
76.5686316514643721
 20
49.2630403697319679
 11
76.5686316514643721
 21
53.2630403697319679
 72
1
 10
76.5686316514643721
 20
53.2630403697319679
 11
118.3186316514635763
 21
53.2630403697321384
 97
0
 75
0
 76
1
 98
0
1001
ACAD
1010
0.0
1020
0.0
1030
0
  0
HATCH
  5
256
100
AcDbEntity
  8
7_Front_Trim_B
 62
256
370
-1
 48
1.0
  6
BYLAYER
100
AcDbHatch
 10
0.0
 20
0.0
 30
0.0
210
0.0
220
0.0
230
1.0
  2
SOLID
 70
1
 71
0
 91
1
 92
1
 93
4
 72
1
 10
81.1366118977367421
 20
176.4107964767950421
 11
81.1366118977366284
 21
212.4107964767950421
 72
1
 10
81.1366118977366
 20
212.4107964767950421
 11
83.1366118977366
 21
212.4107964767950421
 72
1
 10
83.1366118977366
 20
212.4107964767950421
 11
83.1366118977366
 21
176.4107964767949284
 72
1
 10
83.1366118977366
 20
176.4107964767949284
 11
81.1366118977366853
 21
176.4107964767949284
 97
0
 75
0
 76
1
 98
0
1001
ACAD
1010
0.0
1020
0.0
1030
0
  0
HATCH
  5
257
100
AcDbEntity
  8
8_Panel_layer_9
 62
9
420
12632256
370
-1
 48
1.0
  6
BYLAYER
100
AcDbHatch
 10
0.0
 20
0.0
 30
0.0
210
0.0
220
0.0
230
1.0
  2
SOLID
 70
1
 71
0
 91
1
 92
1
 93
4
 72
1
 10
100.5686316514633916
 20
92.7630403697320105
 11
100.5686316514632779
 21
128.7630403697320105
 72
1
 10
100.5686316514632637
 20
128.7630403697320105
 11
102.5686316514632637
 21
128.7630403697320105
 72
1
 10
102.5686316514632637
 20
128.7630403697320105
 11
102.5686316514632637
 21
92.7630403697319537
 72
1
 10
102.5686316514632637
 20
92.7630403697319537
 11
100.5686316514633631
 21
92.7630403697319537
 97
0
 75
0
 76
1
 98
0
1001
ACAD
1010
0.0
1020
0.0
1030
0
  0
LINE
  5
258
100
AcDbEntity
  8
8_Panel_layer_9
 62
256
370
-1
 48
1.0
  6
BYLAYER
100
AcDbLine
 10
100.5686316514632779
 20
128.7630403697320105
 30
0.0
 11
100.5686316514633916
 21
92.7630403697319963
 31
0.0
  0
HATCH
  5
259
100
AcDbEntity
  8
7_Front_Trim_B
 62
256
370
-1
 48
1.0
  6
BYLAYER
100
AcDbHatch
 10
0.0
 20
0.0
 30
0.0
210
0.0
220
0.0
230
1.0
  2
SOLID
 70
1
 71
0
 91
1
 92
1
 93
4
 72
1
 10
83.6366118977374242
 20
212.4107964767949284
 11
57.1366118977373958
 21
212.4107964767949284
 72
1
 10
57.1366118977373958
 20
212.4107964767949284
 11
57.1366118977373958
 21
214.4107964767949284
 72
1
 10
57.1366118977373958
 20
214.4107964767949284
 11
83.6366118977374242
 21
214.4107964767949284
 72
1
 10
83.6366118977374242
 20
214.4107964767949284
 11
83.6366118977374242
 21
212.4107964767949284
 97
0
 75
0
 76
1
 98
0
1001
ACAD
1010
0.0
1020
0.0
1030
0
  0
HATCH
  5
25A
100
AcDbEntity
  8
8_Panel_layer_9
 62
9
420
12632256
370
-1
 48
1.0
  6
BYLAYER
100
AcDbHatch
 10
0.0
 20
0.0
 30
0.0
210
0.0
220
0.0
230
1.0
  2
SOLID
 70
1
 71
0
 91
1
 92
1
 93
4
 72
1
 10
103.0686316514640737
 20
128.7630403697319537
 11
76.5686316514640737
 21
128.7630403697319537
 72
1
 10
76.5686316514640737
 20
128.7630403697319537
 11
76.5686316514640737
 21
130.7630403697319537
 72
1
 10
76.5686316514640737
 20
130.7630403697319537
 11
103.0686316514640737
 21
130.7630403697319537
 72
1
 10
103.0686316514640737
 20
130.7630403697319537
 11
103.0686316514640737
 21
128.7630403697319537
 97
0
 75
0
 76
1
 98
0
1001
ACAD
1010
0.0
1020
0.0
1030
0
  0
LEADER
  5
25B
100
AcDbEntity
  8
7_Front_Trim_B
 62
256
370
-1
 48
1.0
  6
BYLAYER
100
AcDbLeader
  3
Standard
 71
1
 72
0
 73
3
 74
0
 75
0
 40
1.0
 41
10.0
 76
2
 10
28.0918950122791742
 20
215.3031900953830586
 10
19.1024849539034349
 20
229.0917198106087085
1001
ACAD
1000
DSTYLE
1002
{
1070
40
1040
1.0
1002
}
  0
LEADER
  5
25C
100
AcDbEntity
  8
7_Front_Trim_B
 62
256
370
-1
 48
1.0
  6
BYLAYER
100
AcDbLeader
  3
Standard
 71
1
 72
0
 73
3
 74
0
 75
0
 40
1.0
 41
10.0
 76
2
 10
70.3866118977374242
 20
214.4107964767949284
 10
87.724553814598579
 20
230.1272442521338348
1001
ACAD
1000
DSTYLE
1002
{
1070
40
1040
1.0
1002
}
  0
LEADER
  5
25D
100
AcDbEntity
  8
7_Front_Trim_B
 62
256
370
-1
 48
1.0
  6
BYLAYER
100
AcDbLeader
  3
Standard
 71
1
 72
0
 73
3
 74
0
 75
0
 40
1.0
 41
10.0
 76
2
 10
83.2007851660238202
 20
199.4243573392192843
 10
90.9185627017065201
 20
228.1763154625029415
1001
ACAD
1000
DSTYLE
1002
{
1070
40
1040
1.0
1002
}
  0
HATCH
  5
25E
100
AcDbEntity
  8
7_Front_Trim_B
 62
256
370
-1
 48
1.0
  6
BYLAYER
100
AcDbHatch
 10
0.0
 20
0.0
 30
0.0
210
0.0
220
0.0
230
1.0
  2
SOLID
 70
1
 71
0
 91
1
 92
1
 93
4
 72
1
 10
96.3866118977369126
 20
136.410796477020682
 11
96.3866118977369126
 21
216.4107964767950421
 72
1
 10
96.3866118977369126
 20
216.4107964767950421
 11
98.8866118977366
 21
216.4107964767950421
 72
1
 10
98.8866118977366
 20
216.4107964767950421
 11
98.8866118977369126
 21
136.410796477020682
 72
1
 10
98.8866118977369126
 20
136.410796477020682
 11
96.3866118977369126
 21
136.410796477020682
 97
0
 75
0
 76
1
 98
0
1001
ACAD
1010
0.0
1020
0.0
1030
0
  0
HATCH
  5
25F
100
AcDbEntity
  8
8_Panel_layer_9
 62
9
420
12632256
370
-1
 48
1.0
  6
BYLAYER
100
AcDbHatch
 10
0.0
 20
0.0
 30
0.0
210
0.0
220
0.0
230
1.0
  2
SOLID
 70
1
 71
0
 91
1
 92
1
 93
4
 72
1
 10
115.8186316514635905
 20
53.2630403697321526
 11
115.8186316514635905
 21
132.7630403697320673
 72
1
 10
115.8186316514635905
 20
132.7630403697320673
 11
118.3186316514632637
 21
132.7630403697320389
 72
1
 10
118.3186316514632637
 20
132.7630403697320389
 11
118.3186316514635621
 21
53.2630403697321526
 72
1
 10
118.3186316514635905
 20
53.2630403697321526
 11
115.8186316514635905
 21
53.2630403697321526
 97
0
 75
0
 76
1
 98
0
1001
ACAD
1010
0.0
1020
0.0
1030
0
  0
LEADER
  5
260
100
AcDbEntity
  8
7_Front_Trim_B
 62
256
370
-1
 48
1.0
  6
BYLAYER
100
AcDbLeader
  3
Standard
 71
1
 72
0
 73
3
 74
0
 75
0
 40
1.0
 41
10.0
 76
2
 10
106.9808823466558607
 20
199.7297183782787329
 10
124.8669747452499479
 20
210.5220186847316768
1001
ACAD
1000
DSTYLE
1002
{
1070
40
1040
1.0
1002
}
  0
LEADER
  5
261
100
AcDbEntity
  8
9_Final_trim
 62
256
370
-1
 48
1.0
  6
BYLAYER
100
AcDbLeader
  3
Standard
 71
1
 72
0
 73
3
 74
0
 75
0
 40
1.0
 41
10.0
 76
2
 10
19.5659370642894004
 20
269.0528017764924016
 10
-2.1533960973186907
 20
253.9997985951798398
1001
ACAD
1000
DSTYLE
1002
{
1070
40
1040
1.0
1002
}
  0
MTEXT
  5
262
100
AcDbEntity
  8
9_Final_trim
 62
256
370
-1
 48
1.0
  6
BYLAYER
100
AcDbMText
 10
6.1156316708331016
 20
206.1053725351167998
 30
0.0
 40
3.0
 41
0.0
 71
1
 72
1
  1
\H10;Repeat on other sidewall
  7
textstyle63
 50
0.0
 73
2
 44
1.0
  0
MTEXT
  5
263
100
AcDbEntity
  8
9_Final_trim
 62
256
370
-1
 48
1.0
  6
BYLAYER
100
AcDbMText
 10
8.5612861775825948
 20
18.0304150265559926
 30
0.0
 40
3.0
 41
0.0
 71
1
 72
1
  1
\fDejaVu Sans|b0|i0|c0|p0;\H7.99999;Cover ceiling seams with 2" trim
  7
textstyle62
 50
0.0
 73
2
 44
1.0
  0
HATCH
  5
264
100
AcDbEntity
  8
9_Final_trim
 62
256
370
-1
 48
1.0
  6
BYLAYER
100
AcDbHatch
 10
0.0
 20
0.0
 30
0.0
210
0.0
220
0.0
230
1.0
  2
SOLID
 70
1
 71
0
 91
1
 92
1
 93
4
 72
1
 10
76.5686316514642158
 20
86.2630403653693349
 11
115.8186316514635905
 21
86.2630403653693349
 72
1
 10
115.8186316514635905
 20
86.2630403653693349
 11
115.8186316514635905
 21
88.2630403653695055
 72
1
 10
115.8186316514635905
 20
88.2630403653694913
 11
76.5686316514642158
 21
88.2630403653693349
 72
1
 10
76.5686316514642158
 20
88.2630403653693349
 11
76.5686316514642158
 21
86.2630403653693349
 97
0
 75
0
 76
1
 98
0
1001
ACAD
1010
0.0
1020
0.0
1030
0
  0
HATCH
  5
265
100
AcDbEntity
  8
9_Final_trim
 62
256
370
-1
 48
1.0
  6
BYLAYER
100
AcDbHatch
 10
0.0
 20
0.0
 30
0.0
210
0.0
220
0.0
230
1.0
  2
SOLID
 70
1
 71
0
 91
1
 92
1
 93
4
 72
1
 10
31.8186316503824855
 20
86.2630403653693349
 11
34.6936316514641021
 21
86.2630403653693349
 72
1
 10
34.6936316514641021
 20
86.2630403653693349
 11
34.6936316514641021
 21
88.2630403653695055
 72
1
 10
34.6936316514641021
 20
88.2630403653694913
 11
31.8186316503824855
 21
88.2630403653693349
 72
1
 10
31.8186316503824855
 20
88.2630403653693349
 11
31.8186316503824855
 21
86.2630403653693349
 97
0
 75
0
 76
1
 98
0
1001
ACAD
1010
0.0
1020
0.0
1030
0
  0
LEADER
  5
266
100
AcDbEntity
  8
9_Final_trim
 62
256
370
-1
 48
1.0
  6
BYLAYER
100
AcDbLeader
  3
Standard
 71
1
 72
0
 73
3
 74
0
 75
0
 40
1.0
 41
10.0
 76
2
 10
115.8186316514635905
 20
87.2630403653694913
 10
135.9105169528679369
 20
100.160845046353046
1001
ACAD
1000
DSTYLE
1002
{
1070
40
1040
1.0
1002
}
  0
MTEXT
  5
267
100
AcDbEntity
  8
4_Horizontal_Trim
 62
256
370
-1
 48
1.0
  6
BYLAYER
100
AcDbMText
 10
47.3766576682562075
 20
244.227494595302062
 30
0.0
 40
3.0
 41
0.0
 71
1
 72
1
  1
\H2.50001;use a  level
  7
textstyle64
 50
0.0
 73
2
 44
1.0
  0
MTEXT
  5
268
100
AcDbEntity
  8
4_Horizontal_Trim
 62
256
370
-1
 48
1.0
  6
BYLAYER
100
AcDbMText
 10
71.1720582208028816
 20
142.9373452580262551
 30
0.0
 40
3.0
 41
0.0
 71
1
 72
1
  1
\H2.50001;use a  level, cover seam
  7
textstyle66
 50
0.0
 73
2
 44
1.0
  0
MTEXT
  5
269
100
AcDbEntity
  8
9_Final_trim
 62
256
370
-1
 48
1.0
  6
BYLAYER
100
AcDbMText
 10
136.3186316503824855
 20
91.2630403653695055
 30
0.0
 40
3.0
 41
0.0
 71
1
 72
1
  1
\fDejaVu Sans|b0|i0|c0|p0;\H4.00001;use a  level
  7
textstyle65
 50
0.0
 73
2
 44
1.0
  0
LINE
  5
26A
100
AcDbEntity
  8
6_Front_Trim_A
 62
256
370
-1
 48
1.0
  6
BYLAYER
100
AcDbLine
 10
4.8957998122642863
 20
135.4138707099921248
 30
0.0
 11
4.8957998122642863
 21
214.9138707099921248
 31
0.0
  0
LINE
  5
26B
100
AcDbEntity
  8
7_Front_Trim_B
 62
256
370
-1
 48
1.0
  6
BYLAYER
100
AcDbLine
 10
105.4808823466558181
 20
135.1467645624324803
 30
0.0
 11
105.4808823466558181
 21
214.6467645624324518
 31
0.0
  0
LINE
  5
26C
100
AcDbEntity
  8
6_Front_Trim_A
 62
256
370
-1
 48
1.0
  6
BYLAYER
100
AcDbLine
 10
4.8957998122642863
 20
214.9138707099921248
 30
0.0
 11
3.3957998122642863
 21
213.4138707099921248
 31
0.0
  0
LINE
  5
26D
100
AcDbEntity
  8
7_Front_Trim_B
 62
256
370
-1
 48
1.0
  6
BYLAYER
100
AcDbLine
 10
105.4808823466558181
 20
214.6467645624324518
 30
0.0
 11
106.9808823466558181
 21
213.1467645624324518
 31
0.0
  0
LINE
  5
26E
100
AcDbEntity
  8
6_Front_Trim_A
 62
256
370
-1
 48
1.0
  6
BYLAYER
100
AcDbLine
 10
3.3957998122642863
 20
213.4138707099921248
 30
0.0
 11
3.3957998122642863
 21
133.9138707099921248
 31
0.0
  0
LINE
  5
26F
100
AcDbEntity
  8
7_Front_Trim_B
 62
256
370
-1
 48
1.0
  6
BYLAYER
100
AcDbLine
 10
106.9808823466558181
 20
213.1467645624324518
 30
0.0
 11
106.9808823466557897
 21
133.6467645624324803
 31
0.0
  0
LINE
  5
270
100
AcDbEntity
  8
6_Front_Trim_A
 62
256
370
-1
 48
1.0
  6
BYLAYER
100
AcDbLine
 10
3.3957998122642863
 20
133.9138707099921248
 30
0.0
 11
4.8957998122642863
 21
135.4138707099921248
 31
0.0
  0
LINE
  5
271
100
AcDbEntity
  8
7_Front_Trim_B
 62
256
370
-1
 48
1.0
  6
BYLAYER
100
AcDbLine
 10
106.9808823466557897
 20
133.6467645624324803
 30
0.0
 11
105.4808823466558181
 21
135.1467645624324803
 31
0.0
  0
HATCH
  5
272
100
AcDbEntity
  8
6_Front_Trim_A
 62
256
370
-1
 48
1.0
  6
BYLAYER
100
AcDbHatch
 10
0.0
 20
0.0
 30
0.0
210
0.0
220
0.0
230
1.0
  2
ANSI31
 70
0
 71
0
 91
1
 92
1
 93
4
 72
1
 10
3.3957998122642863
 20
213.4138707099921248
 11
3.3957998122642863
 21
133.9138707099921248
 72
1
 10
3.3957998122642863
 20
133.9138707099921248
 11
4.8957998122642863
 21
135.4138707099921248
 72
1
 10
4.8957998122642863
 20
135.4138707099921248
 11
4.8957998122642863
 21
214.9138707099921248
 72
1
 10
4.8957998122642863
 20
214.9138707099921248
 11
3.3957998122642863
 21
213.4138707099921248
 97
0
 75
0
 76
1
 52
0.0
 41
1.0
 77
0
 78
1
 53
45.0
 43
0.0
 44
0.0
 45
-0.0883883476483184
 46
0.0883883476483185
 79
0
 98
0
1001
ACAD
1010
0.0
1020
0.0
1030
0
  0
HATCH
  5
273
100
AcDbEntity
  8
7_Front_Trim_B
 62
256
370
-1
 48
1.0
  6
BYLAYER
100
AcDbHatch
 10
0.0
 20
0.0
 30
0.0
210
0.0
220
0.0
230
1.0
  2
ANSI31
 70
0
 71
0
 91
1
 92
1
 93
4
 72
1
 10
106.9808823466558181
 20
213.1467645624324518
 11
106.9808823466557897
 21
133.6467645624324803
 72
1
 10
106.9808823466557897
 20
133.6467645624324803
 11
105.4808823466558181
 21
135.1467645624324803
 72
1
 10
105.4808823466558181
 20
135.1467645624324803
 11
105.4808823466558181
 21
214.6467645624324518
 72
1
 10
105.4808823466558181
 20
214.6467645624324518
 11
106.9808823466558181
 21
213.1467645624324518
 97
0
 75
0
 76
1
 52
180.0
 41
1.0
 77
0
 78
1
 53
45.0
 43
0.0
 44
0.0
 45
-0.0883883476483184
 46
0.0883883476483185
 79
0
 98
0
1001
ACAD
1010
0.0
1020
0.0
1030
0
  0
MTEXT
  5
274
100
AcDbEntity
  8
6_Front_Trim_A
 62
256
370
-1
 48
1.0
  6
BYLAYER
100
AcDbMText
 10
1.8341447821959795
 20
122.3293237265821745
 30
0.0
 40
3.0
 41
0.0
 71
1
 72
1
  1
\fNimbus Sans [UKWN]|b0|i0|c0|p0;\H5;Baseboards
  7
textstyle48
 50
0.0
 73
2
 44
1.0
  0
LEADER
  5
275
100
AcDbEntity
  8
9_Final_trim
 62
256
370
-1
 48
1.0
  6
BYLAYER
100
AcDbLeader
  3
Standard
 71
1
 72
0
 73
3
 74
0
 75
0
 40
1.0
 41
10.0
 76
2
 10
31.8186316503824855
 20
87.2630403653693349
 10
13.907289538183754
 20
99.2670620427713573
1001
ACAD
1000
DSTYLE
1002
{
1070
40
1040
1.0
1002
}
  0
MTEXT
  5
276
100
AcDbEntity
  8
6_Front_Trim_A
 62
256
370
-1
 48
1.0
  6
BYLAYER
100
AcDbMText
 10
-60.0
 20
60.0
 30
0.0
 40
1.0
 41
0.0
 71
1
 72
1
  1
\H6;#4 trim board goes on \fLiberation Sans|b1|i0|c0|p0;first\fLiberation Sans|b0|i0|c0|p0;, because it is wider and less flexible.\P Then #5 trim is nailed onto the sidewall.\P This does not match the other corners, but is correct.
  7
textstyle49
 50
0.0
 73
2
 44
1.0
  0
LEADER
  5
277
100
AcDbEntity
  8
4b_Triangle_Trim
 62
256
370
-1
 48
1.0
  6
BYLAYER
100
AcDbLeader
  3
Standard
 71
1
 72
0
 73
3
 74
0
 75
0
 40
1.0
 41
10.0
 76
3
 10
65.9424925106700357
 20
200.6452717042444647
 10
57.9424925106700357
 20
183.6452717042444647
 10
48.54249251067003
 20
183.6452717042444647
1001
ACAD
1000
DSTYLE
1002
{
1070
40
1040
1.0
1002
}
  0
MTEXT
  5
278
100
AcDbEntity
  8
4_Horizontal_Trim
 62
256
370
-1
 48
1.0
  6
BYLAYER
100
AcDbMText
 10
130.0
 20
249.9999999999999716
 30
0.0
 40
3.0
 41
0.0
 71
1
 72
1
  1
\H7.99999;Do this FIRST
  7
textstyle51
 50
0.0
 73
2
 44
1.0
  0
MTEXT
  5
279
100
AcDbEntity
  8
0
 62
256
370
-1
 48
1.0
  6
BYLAYER
100
AcDbMText
 10
40.0
 20
-20.0
 30
0.0
 40
3.0
 41
0.0
 71
1
 72
1
  1
\H10;Interior Trim
  7
textstyle50
 50
0.0
 73
2
 44
1.0
  0
LINE
  5
27A
100
AcDbEntity
  8
7_Front_Trim_B
 62
256
370
-1
 48
1.0
  6
BYLAYER
100
AcDbLine
 10
98.7776957580797728
 20
136.4471028449928838
 30
0.0
 11
51.916211915825663
 21
136.4471028449928838
 31
0.0
  0
LINE
  5
27B
100
AcDbEntity
  8
6_Front_Trim_A
 62
256
370
-1
 48
1.0
  6
BYLAYER
100
AcDbLine
 10
98.8957998122645563
 20
136.4138707099922385
 30
0.0
 11
52.034315970010482
 21
136.4138707099922385
 31
0.0
  0
LINE
  5
27C
100
AcDbEntity
  8
7_Front_Trim_B
 62
256
370
-1
 48
1.0
  6
BYLAYER
100
AcDbLine
 10
51.916211915825663
 20
136.4471028449928838
 30
0.0
 11
51.916211915825663
 21
132.9471028449925996
 31
0.0
  0
LINE
  5
27D
100
AcDbEntity
  8
6_Front_Trim_A
 62
256
370
-1
 48
1.0
  6
BYLAYER
100
AcDbLine
 10
52.034315970010482
 20
136.4138707099922385
 30
0.0
 11
52.034315970010482
 21
132.9138707099920111
 31
0.0
  0
LEADER
  5
27E
100
AcDbEntity
  8
7_Front_Trim_B
 62
256
370
-1
 48
1.0
  6
BYLAYER
100
AcDbLeader
  3
Standard
 71
1
 72
0
 73
3
 74
0
 75
0
 40
1.0
 41
10.0
 76
3
 10
43.4468187499438656
 20
229.2527191074393045
 10
57.7728044835542391
 20
258.7311897515991177
 10
67.1243983335712642
 20
259.0536585050480198
1001
ACAD
1000
DSTYLE
1002
{
1070
40
1040
1.0
1002
}
  0
LEADER
  5
27F
100
AcDbEntity
  8
7_Front_Trim_B
 62
256
370
-1
 48
1.0
  6
BYLAYER
100
AcDbLeader
  3
Standard
 71
1
 72
0
 73
3
 74
0
 75
0
 40
1.0
 41
10.0
 76
2
 10
56.8866118977366
 20
224.4107964767949284
 10
70.8645612344381846
 20
253.3123947385612382
1001
ACAD
1000
DSTYLE
1002
{
1070
40
1040
1.0
1002
}
  0
LEADER
  5
280
100
AcDbEntity
  8
7_Front_Trim_B
 62
256
370
-1
 48
1.0
  6
BYLAYER
100
AcDbLeader
  3
Standard
 71
1
 72
0
 73
3
 74
0
 75
0
 40
1.0
 41
10.0
 76
3
 10
71.2722910402255536
 20
227.5997207535612006
 10
86.7002756764213132
 20
259.2821892028918569
 10
80.3831178223759935
 20
259.2821892028918569
1001
ACAD
1000
DSTYLE
1002
{
1070
40
1040
1.0
1002
}
  0
LINE
  5
281
100
AcDbEntity
  8
6_Front_Trim_A
 62
256
370
-1
 48
1.0
  6
BYLAYER
100
AcDbLine
 10
13.0
 20
133.0
 30
0.0
 11
13.0
 21
137.0000000000000568
 31
0.0
  0
LINE
  5
282
100
AcDbEntity
  8
6_Front_Trim_A
 62
256
370
-1
 48
1.0
  6
BYLAYER
100
AcDbLine
 10
12.3818959458160691
 20
137.0000000000000568
 30
0.0
 11
15.375
 21
137.0000000000000568
 31
0.0
  0
LEADER
  5
283
100
AcDbEntity
  8
7_Front_Trim_B
 62
256
370
-1
 48
1.0
  6
BYLAYER
100
AcDbLeader
  3
Standard
 71
1
 72
0
 73
3
 74
0
 75
0
 40
1.0
 41
10.0
 76
2
 10
99.4184134206689976
 20
185.2256574970206771
 10
112.0957803114447131
 20
177.7769268188105229
1001
ACAD
1000
DSTYLE
1002
{
1070
40
1040
1.0
1002
}
  0
LINE
  5
284
100
AcDbEntity
  8
2_Top_Trim
 62
256
370
-1
 48
1.0
  6
BYLAYER
100
AcDbLine
 10
41.9999999999999716
 20
304.4986410999999293
 30
0.0
 11
0.0000000000000008
 21
304.4986410999999293
 31
0.0
  0
MTEXT
  5
285
100
AcDbEntity
  8
4b_Triangle_Trim
 62
256
370
-1
 48
1.0
  6
BYLAYER
100
AcDbMText
 10
40.0
 20
0.0
 30
0.0
 40
3.0
 41
0.0
 71
1
 72
1
  1
\fDejaVu Sans|b0|i0|c0|p0;\H7.99999;Triangle Trim
  7
textstyle52
 50
0.0
 73
2
 44
1.0
  0
LEADER
  5
286
100
AcDbEntity
  8
6_Front_Trim_A
 62
256
370
-1
 48
1.0
  6
BYLAYER
100
AcDbLeader
  3
Standard
 71
1
 72
0
 73
3
 74
0
 75
0
 40
1.0
 41
10.0
 76
3
 10
3.3957998122642863
 20
179.6210572374147318
 10
-8.5322621022561407
 20
166.7114131346949648
 10
-31.4312744048701767
 20
166.6430043133207164
1001
ACAD
1000
DSTYLE
1002
{
1070
40
1040
1.0
1002
}
  0
LEADER
  5
287
100
AcDbEntity
  8
6_Front_Trim_A
 62
256
370
-1
 48
1.0
  6
BYLAYER
100
AcDbLeader
  3
Standard
 71
1
 72
0
 73
3
 74
0
 75
0
 40
1.0
 41
10.0
 76
2
 10
59.2671595362406407
 20
133.1437165871558364
 10
-1.3253503299086802
 20
122.5301181936305852
1001
ACAD
1000
DSTYLE
1002
{
1070
40
1040
1.0
1002
}
  0
ENDSEC
  0
SECTION
  2
OBJECTS
  0
DICTIONARY
  5
C
100
AcDbDictionary
280
0
281
1
  3
ACAD_GROUP
350
D
  3
ACAD_LAYOUT
350
1A
  3
ACAD_MLINESTYLE
350
17
  3
ACAD_PLOTSETTINGS
350
19
  3
ACAD_PLOTSTYLENAME
350
E
  3
AcDbVariableDictionary
350
288
  3
QCAD_OBJECTS
350
289
  0
DICTIONARY
  5
D
100
AcDbDictionary
280
0
281
1
  0
ACDBDICTIONARYWDFLT
  5
E
100
AcDbDictionary
281
1
  3
Normal
350
F
100
AcDbDictionaryWithDefault
340
F
  0
ACDBPLACEHOLDER
  5
F
  0
DICTIONARY
  5
17
100
AcDbDictionary
280
0
281
1
  3
Standard
350
18
  0
MLINESTYLE
  5
18
100
AcDbMlineStyle
  2
STANDARD
 70
0
  3

 62
256
 51
90.0
 52
90.0
 71
2
 49
0.5
 62
256
  6
BYLAYER
 49
-0.5
 62
256
  6
BYLAYER
  0
DICTIONARY
  5
19
100
AcDbDictionary
280
0
281
1
  0
DICTIONARY
  5
1A
100
AcDbDictionary
281
1
  3
Layout1
350
1E
  3
Layout2
350
26
  3
Model
350
22
  0
LAYOUT
  5
1E
100
AcDbPlotSettings
  1

  2
none_device
  4

  6

 40
0.0
 41
0.0
 42
0.0
 43
0.0
 44
0.0
 45
0.0
 46
0.0
 47
0.0
 48
0.0
 49
0.0
140
0.0
141
0.0
142
1.0
143
1.0
 70
688
 72
0
 73
0
 74
5
  7

 75
16
147
1.0
148
0.0
149
0.0
100
AcDbLayout
  1
Layout1
 70
1
 71
1
 10
0.0
 20
0.0
 11
420.0
 21
297.0
 12
0.0
 22
0.0
 32
0.0
 14
100000000000000000000.0
 24
100000000000000000000.0
 34
100000000000000000000.0
 15
-100000000000000000000.0
 25
-100000000000000000000.0
 35
-100000000000000000000.0
146
0.0
 13
0.0
 23
0.0
 33
0.0
 16
1.0
 26
0.0
 36
0.0
 17
0.0
 27
1.0
 37
0.0
 76
0
330
1B
  0
LAYOUT
  5
22
100
AcDbPlotSettings
  1

  2
none_device
  4

  6

 40
0.0
 41
0.0
 42
0.0
 43
0.0
 44
0.0
 45
0.0
 46
0.0
 47
0.0
 48
0.0
 49
0.0
140
0.0
141
0.0
142
1.0
143
1.0
 70
1712
 72
0
 73
0
 74
0
  7

 75
0
147
1.0
148
0.0
149
0.0
100
AcDbLayout
  1
Model
 70
1
 71
0
 10
0.0
 20
0.0
 11
12.0
 21
9.0
 12
0.0
 22
0.0
 32
0.0
 14
0.0
 24
0.0
 34
0.0
 15
0.0
 25
0.0
 35
0.0
146
0.0
 13
0.0
 23
0.0
 33
0.0
 16
1.0
 26
0.0
 36
0.0
 17
0.0
 27
1.0
 37
0.0
 76
0
330
1F
  0
LAYOUT
  5
26
100
AcDbPlotSettings
  1

  2
none_device
  4

  6

 40
0.0
 41
0.0
 42
0.0
 43
0.0
 44
0.0
 45
0.0
 46
0.0
 47
0.0
 48
0.0
 49
0.0
140
0.0
141
0.0
142
1.0
143
1.0
 70
688
 72
0
 73
0
 74
5
  7

 75
16
147
1.0
148
0.0
149
0.0
100
AcDbLayout
  1
Layout2
 70
1
 71
2
 10
0.0
 20
0.0
 11
12.0
 21
9.0
 12
0.0
 22
0.0
 32
0.0
 14
0.0
 24
0.0
 34
0.0
 15
0.0
 25
0.0
 35
0.0
146
0.0
 13
0.0
 23
0.0
 33
0.0
 16
1.0
 26
0.0
 36
0.0
 17
0.0
 27
1.0
 37
0.0
 76
0
330
23
  0
DICTIONARY
  5
288
100
AcDbDictionary
281
1
  3
DIMASSOC
350
28B
  3
HIDETEXT
350
28A
  0
DICTIONARYVAR
  5
28A
100
DictionaryVariables
280
0
  1
2
  0
DICTIONARYVAR
  5
28B
100
DictionaryVariables
280
0
  1
1
  0
DICTIONARY
  5
289
100
AcDbDictionary
281
1
  3
ColorSettings/BackgroundColor
350
28C
  3
ColorSettings/ColorMode
350
28D
  3
DimensionSettings/AngularFormat
350
28E
  3
DimensionSettings/AngularPrecision
350
28F
  3
DimensionSettings/DecimalPoint
350
290
  3
DimensionSettings/DimensionFont
350
291
  3
DimensionSettings/DimensionTextColor
350
292
  3
DimensionSettings/KeepProportions
350
293
  3
DimensionSettings/LinearFormat
350
294
  3
DimensionSettings/LinearPrecision
350
295
  3
Grid/DisplayGrid00
350
296
  3
Grid/DisplayGrid01
350
297
  3
Grid/DisplayGrid02
350
298
  3
Grid/DisplayGrid03
350
299
  3
Grid/GridSpacingX00
350
29A
  3
Grid/GridSpacingX01
350
29B
  3
Grid/GridSpacingX02
350
29C
  3
Grid/GridSpacingX03
350
29D
  3
Grid/GridSpacingY00
350
29E
  3
Grid/GridSpacingY01
350
29F
  3
Grid/GridSpacingY02
350
2A0
  3
Grid/GridSpacingY03
350
2A1
  3
Grid/IsometricGrid00
350
2A2
  3
Grid/IsometricGrid01
350
2A3
  3
Grid/IsometricGrid02
350
2A4
  3
Grid/IsometricGrid03
350
2A5
  3
Grid/IsometricProjection00
350
2A6
  3
Grid/IsometricProjection01
350
2A7
  3
Grid/IsometricProjection02
350
2A8
  3
Grid/IsometricProjection03
350
2A9
  3
Grid/MetaGridSpacingX00
350
2AA
  3
Grid/MetaGridSpacingX01
350
2AB
  3
Grid/MetaGridSpacingX02
350
2AC
  3
Grid/MetaGridSpacingX03
350
2AD
  3
Grid/MetaGridSpacingY00
350
2AE
  3
Grid/MetaGridSpacingY01
350
2AF
  3
Grid/MetaGridSpacingY02
350
2B0
  3
Grid/MetaGridSpacingY03
350
2B1
  3
MultiPageSettings/Columns
350
2B2
  3
MultiPageSettings/GlueMarginsBottom
350
2B3
  3
MultiPageSettings/GlueMarginsLeft
350
2B4
  3
MultiPageSettings/GlueMarginsRight
350
2B5
  3
MultiPageSettings/GlueMarginsTop
350
2B6
  3
MultiPageSettings/PrintCropMarks
350
2B7
  3
MultiPageSettings/Rows
350
2B8
  3
PageSettings/OffsetX
350
2B9
  3
PageSettings/OffsetY
350
2BA
  3
PageSettings/PageOrientation
350
2BB
  3
PageSettings/PaperHeight
350
2BC
  3
PageSettings/PaperSizeAccepted
350
2BD
  3
PageSettings/PaperSizeName
350
2BE
  3
PageSettings/PaperWidth
350
2BF
  3
PageSettings/PointSize
350
2C0
  3
PageSettings/PositionAccepted
350
2C1
  3
PageSettings/Scale
350
2C2
  3
PageSettings/ShowPaperBorders
350
2C3
  3
PageTagSettings/EnablePageTags
350
2C4
  3
PageTagSettings/TagAlignment
350
2C5
  3
PageTagSettings/TagFont
350
2C6
  3
PageTagSettings/TagPosition
350
2C7
  3
QCADVersion
350
2C8
  3
UnitSettings/Measurement
350
2C9
  3
UnitSettings/PaperUnit
350
2CA
  3
ViewportCenter
350
2CB
  3
ViewportHeight
350
2CC
  3
ViewportWidth
350
2CD
  0
XRECORD
  5
28C
330
289
100
AcDbXrecord
280
1
1000
White
  0
XRECORD
  5
28D
330
289
100
AcDbXrecord
280
1
1000
Grayscale
  0
XRECORD
  5
28E
330
289
100
AcDbXrecord
280
1
 90
0
  0
XRECORD
  5
28F
330
289
100
AcDbXrecord
280
1
 90
0
  0
XRECORD
  5
290
330
289
100
AcDbXrecord
280
1
 90
46
  0
XRECORD
  5
291
330
289
100
AcDbXrecord
280
1
1000
DejaVu Sans
  0
XRECORD
  5
292
330
289
100
AcDbXrecord
280
1
1000
By Layer
  0
XRECORD
  5
293
330
289
100
AcDbXrecord
280
1
290
1
  0
XRECORD
  5
294
330
289
100
AcDbXrecord
280
1
 90
2
  0
XRECORD
  5
295
330
289
100
AcDbXrecord
280
1
 90
4
  0
XRECORD
  5
296
330
289
100
AcDbXrecord
280
1
290
1
  0
XRECORD
  5
297
330
289
100
AcDbXrecord
280
1
290
1
  0
XRECORD
  5
298
330
289
100
AcDbXrecord
280
1
290
1
  0
XRECORD
  5
299
330
289
100
AcDbXrecord
280
1
290
1
  0
XRECORD
  5
29A
330
289
100
AcDbXrecord
280
1
1000
auto
  0
XRECORD
  5
29B
330
289
100
AcDbXrecord
280
1
1000
auto
  0
XRECORD
  5
29C
330
289
100
AcDbXrecord
280
1
1000
auto
  0
XRECORD
  5
29D
330
289
100
AcDbXrecord
280
1
1000
auto
  0
XRECORD
  5
29E
330
289
100
AcDbXrecord
280
1
1000
auto
  0
XRECORD
  5
29F
330
289
100
AcDbXrecord
280
1
1000
auto
  0
XRECORD
  5
2A0
330
289
100
AcDbXrecord
280
1
1000
auto
  0
XRECORD
  5
2A1
330
289
100
AcDbXrecord
280
1
1000
auto
  0
XRECORD
  5
2A2
330
289
100
AcDbXrecord
280
1
290
0
  0
XRECORD
  5
2A3
330
289
100
AcDbXrecord
280
1
290
0
  0
XRECORD
  5
2A4
330
289
100
AcDbXrecord
280
1
290
0
  0
XRECORD
  5
2A5
330
289
100
AcDbXrecord
280
1
290
0
  0
XRECORD
  5
2A6
330
289
100
AcDbXrecord
280
1
 90
65537
  0
XRECORD
  5
2A7
330
289
100
AcDbXrecord
280
1
 90
65537
  0
XRECORD
  5
2A8
330
289
100
AcDbXrecord
280
1
 90
65537
  0
XRECORD
  5
2A9
330
289
100
AcDbXrecord
280
1
 90
65537
  0
XRECORD
  5
2AA
330
289
100
AcDbXrecord
280
1
1000
auto
  0
XRECORD
  5
2AB
330
289
100
AcDbXrecord
280
1
1000
auto
  0
XRECORD
  5
2AC
330
289
100
AcDbXrecord
280
1
1000
auto
  0
XRECORD
  5
2AD
330
289
100
AcDbXrecord
280
1
1000
auto
  0
XRECORD
  5
2AE
330
289
100
AcDbXrecord
280
1
1000
auto
  0
XRECORD
  5
2AF
330
289
100
AcDbXrecord
280
1
1000
auto
  0
XRECORD
  5
2B0
330
289
100
AcDbXrecord
280
1
1000
auto
  0
XRECORD
  5
2B1
330
289
100
AcDbXrecord
280
1
1000
auto
  0
XRECORD
  5
2B2
330
289
100
AcDbXrecord
280
1
 90
1
  0
XRECORD
  5
2B3
330
289
100
AcDbXrecord
280
1
 40
0.0
  0
XRECORD
  5
2B4
330
289
100
AcDbXrecord
280
1
 40
0.0
  0
XRECORD
  5
2B5
330
289
100
AcDbXrecord
280
1
 40
0.0
  0
XRECORD
  5
2B6
330
289
100
AcDbXrecord
280
1
 40
0.0
  0
XRECORD
  5
2B7
330
289
100
AcDbXrecord
280
1
290
0
  0
XRECORD
  5
2B8
330
289
100
AcDbXrecord
280
1
 90
1
  0
XRECORD
  5
2B9
330
289
100
AcDbXrecord
280
1
 40
-78.9804699756622597
  0
XRECORD
  5
2BA
330
289
100
AcDbXrecord
280
1
 40
-42.8141459681126406
  0
XRECORD
  5
2BB
330
289
100
AcDbXrecord
280
1
1000
Portrait
  0
XRECORD
  5
2BC
330
289
100
AcDbXrecord
280
1
1000
9
  0
XRECORD
  5
2BD
330
289
100
AcDbXrecord
280
1
290
1
  0
XRECORD
  5
2BE
330
289
100
AcDbXrecord
280
1
1000
Custom
  0
XRECORD
  5
2BF
330
289
100
AcDbXrecord
280
1
1000
6.5
  0
XRECORD
  5
2C0
330
289
100
AcDbXrecord
280
1
1000
0.5
  0
XRECORD
  5
2C1
330
289
100
AcDbXrecord
280
1
290
1
  0
XRECORD
  5
2C2
330
289
100
AcDbXrecord
280
1
1000
0.023
  0
XRECORD
  5
2C3
330
289
100
AcDbXrecord
280
1
290
1
  0
XRECORD
  5
2C4
330
289
100
AcDbXrecord
280
1
290
0
  0
XRECORD
  5
2C5
330
289
100
AcDbXrecord
280
1
1000
Inside
  0
XRECORD
  5
2C6
330
289
100
AcDbXrecord
280
1
1000
Arial,10,-1,5,50,0,0,0,0,0
  0
XRECORD
  5
2C7
330
289
100
AcDbXrecord
280
1
1000
TopLeft
  0
XRECORD
  5
2C8
330
289
100
AcDbXrecord
280
1
1000
3.32.6
  0
XRECORD
  5
2C9
330
289
100
AcDbXrecord
280
1
 90
1
  0
XRECORD
  5
2CA
330
289
100
AcDbXrecord
280
1
 90
1
  0
XRECORD
  5
2CC
330
289
100
AcDbXrecord
280
1
 40
365.8124394283969991
  0
XRECORD
  5
2CD
330
289
100
AcDbXrecord
280
1
 40
457.4104828985820177
  0
ENDSEC
  0
EOF
