999
dxflib 3.26.4.0
  0
SECTION
  2
HEADER
  9
$ACADVER
  1
AC1015
  9
$HANDSEED
  5
FFFF
  9
$DIMADEC
 70
0
  9
$DIMASZ
 40
2.5
  9
$DIMATFIT
 70
0
  9
$DIMAUNIT
 70
0
  9
$DIMAZIN
 70
2
  9
$DIMBLK
  1
0
  9
$DIMBLK1
  1
0
  9
$DIMBLK2
  1
0
  9
$DIMDEC
 70
4
  9
$DIMDLI
 40
5.0
  9
$DIMDSEP
 70
46
  9
$DIMEXE
 40
1.25
  9
$DIMEXO
 40
0.625
  9
$DIMGAP
 40
0.625
  9
$DIMLFAC
 40
0.0
  9
$DIMLUNIT
 70
2
  9
$DIMSCALE
 40
1.0
  9
$DIMTAD
 70
1
  9
$DIMTIH
 70
0
  9
$DIMTSZ
 40
0.0
  9
$DIMTXT
 40
2.5
  9
$DIMZIN
 70
8
  9
$DWGCODEPAGE
  3
ANSI_1252
  9
$INSUNITS
 70
1
  9
$LTSCALE
 40
1.0
  9
$MAXACTVP
 70
64
  9
$MEASUREMENT
 70
1
  9
$MIRRTEXT
 70
0
  9
$PDMODE
 70
0
  9
$PDSIZE
 40
0.0
  0
ENDSEC
  0
SECTION
  2
TABLES
  0
TABLE
  2
VPORT
  5
8
100
AcDbSymbolTable
 70
1
  0
VPORT
  5
30
100
AcDbSymbolTableRecord
100
AcDbViewportTableRecord
  2
*Active
 70
0
 10
0.0
 20
0.0
 11
1.0
 21
1.0
 12
286.3055555555554861
 22
148.5
 13
0.0
 23
0.0
 14
10.0
 24
10.0
 15
10.0
 25
10.0
 16
0.0
 26
0.0
 36
1.0
 17
0.0
 27
0.0
 37
0.0
 40
297.0
 41
1.92798353909465
 42
50.0
 43
0.0
 44
0.0
 50
0.0
 51
0.0
 71
0
 72
100
 73
1
 74
3
 75
1
 76
1
 77
0
 78
0
281
0
 65
1
110
0.0
120
0.0
130
0.0
111
1.0
121
0.0
131
0.0
112
0.0
122
1.0
132
0.0
 79
0
146
0.0
  0
ENDTAB
  0
TABLE
  2
LTYPE
  5
5
100
AcDbSymbolTable
 70
41
  0
LTYPE
  5
16
100
AcDbSymbolTableRecord
100
AcDbLinetypeTableRecord
  2
Continuous
 70
0
  3
Solid line
 72
65
 73
0
 40
0.0
  0
LTYPE
  5
31
100
AcDbSymbolTableRecord
100
AcDbLinetypeTableRecord
  2
ACAD_ISO04W100
 70
0
  3
ISO long-dash dot ____ . ____ . ____ . ____ . _
 72
65
 73
4
 40
30.0
 49
24.0
 74
0
 49
-2.9500000000000002
 74
0
 49
0.1
 74
0
 49
-2.9500000000000002
 74
0
  0
LTYPE
  5
32
100
AcDbSymbolTableRecord
100
AcDbLinetypeTableRecord
  2
ACAD_ISO09W100
 70
0
  3
ISO long-dash double-short-dash ____ __ __ ____
 72
65
 73
6
 40
45.0
 49
24.0
 74
0
 49
-3.0
 74
0
 49
6.0
 74
0
 49
-3.0
 74
0
 49
6.0
 74
0
 49
-3.0
 74
0
  0
LTYPE
  5
33
100
AcDbSymbolTableRecord
100
AcDbLinetypeTableRecord
  2
BORDER2
 70
0
  3
Border (.5x) __.__.__.__.__.__.__.__.__.__.__.
 72
65
 73
6
 40
0.8749999999999999
 49
0.25
 74
0
 49
-0.125
 74
0
 49
0.25
 74
0
 49
-0.075
 74
0
 49
0.1
 74
0
 49
-0.075
 74
0
  0
LTYPE
  5
34
100
AcDbSymbolTableRecord
100
AcDbLinetypeTableRecord
  2
ACAD_ISO06W100
 70
0
  3
ISO long-dash triple-dot ____ ... ____ ... ____
 72
65
 73
8
 40
36.0000000000000071
 49
24.0
 74
0
 49
-2.9500000000000002
 74
0
 49
0.1
 74
0
 49
-2.9000000000000004
 74
0
 49
0.1
 74
0
 49
-2.9000000000000004
 74
0
 49
0.1
 74
0
 49
-2.9500000000000002
 74
0
  0
LTYPE
  5
35
100
AcDbSymbolTableRecord
100
AcDbLinetypeTableRecord
  2
BORDER
 70
0
  3
Border __ __ . __ __ . __ __ . __ __ . __ __ .
 72
65
 73
6
 40
1.75
 49
0.5
 74
0
 49
-0.25
 74
0
 49
0.5
 74
0
 49
-0.2
 74
0
 49
0.1
 74
0
 49
-0.2
 74
0
  0
LTYPE
  5
36
100
AcDbSymbolTableRecord
100
AcDbLinetypeTableRecord
  2
ACAD_ISO08W100
 70
0
  3
ISO long-dash short-dash ____ __ ____ __ ____ _
 72
65
 73
4
 40
36.0
 49
24.0
 74
0
 49
-3.0
 74
0
 49
6.0
 74
0
 49
-3.0
 74
0
  0
LTYPE
  5
37
100
AcDbSymbolTableRecord
100
AcDbLinetypeTableRecord
  2
DASHED2
 70
0
  3
Dashed (.5x) _ _ _ _ _ _ _ _ _ _ _ _ _ _ _ _ _ 
 72
65
 73
2
 40
0.375
 49
0.25
 74
0
 49
-0.125
 74
0
  0
LTYPE
  5
38
100
AcDbSymbolTableRecord
100
AcDbLinetypeTableRecord
  2
DOT
 70
0
  3
Dot . . . . . . . . . . . . . . . . . . . . . . . .
 72
65
 73
2
 40
0.25
 49
0.1
 74
0
 49
-0.15
 74
0
  0
LTYPE
  5
39
100
AcDbSymbolTableRecord
100
AcDbLinetypeTableRecord
  2
DASHED
 70
0
  3
Dashed __ __ __ __ __ __ __ __ __ __ __ __ __ _
 72
65
 73
2
 40
0.75
 49
0.5
 74
0
 49
-0.25
 74
0
  0
LTYPE
  5
3A
100
AcDbSymbolTableRecord
100
AcDbLinetypeTableRecord
  2
BORDERX2
 70
0
  3
Border (2x) ____  ____  .  ____  ____  .  ___
 72
65
 73
6
 40
3.5000000000000004
 49
1.0
 74
0
 49
-0.5
 74
0
 49
1.0
 74
0
 49
-0.45
 74
0
 49
0.1
 74
0
 49
-0.45
 74
0
  0
LTYPE
  5
3B
100
AcDbSymbolTableRecord
100
AcDbLinetypeTableRecord
  2
ACAD_ISO12W100
 70
0
  3
ISO dash double-dot __ . . __ . . __ . . __ . . 
 72
65
 73
6
 40
21.0
 49
12.0
 74
0
 49
-2.9500000000000002
 74
0
 49
0.1
 74
0
 49
-2.9000000000000004
 74
0
 49
0.1
 74
0
 49
-2.9500000000000002
 74
0
  0
LTYPE
  5
3C
100
AcDbSymbolTableRecord
100
AcDbLinetypeTableRecord
  2
DASHEDX2
 70
0
  3
Dashed (2x) ____  ____  ____  ____  ____  ___
 72
65
 73
2
 40
1.5
 49
1.0
 74
0
 49
-0.5
 74
0
  0
LTYPE
  5
15
100
AcDbSymbolTableRecord
100
AcDbLinetypeTableRecord
  2
BYLAYER
 70
0
  3

 72
65
 73
0
 40
0.0
  0
LTYPE
  5
3D
100
AcDbSymbolTableRecord
100
AcDbLinetypeTableRecord
  2
CENTER2
 70
0
  3
Center (.5x) ___ _ ___ _ ___ _ ___ _ ___ _ ___
 72
65
 73
4
 40
1.125
 49
0.75
 74
0
 49
-0.125
 74
0
 49
0.125
 74
0
 49
-0.125
 74
0
  0
LTYPE
  5
3E
100
AcDbSymbolTableRecord
100
AcDbLinetypeTableRecord
  2
DIVIDE2
 70
0
  3
Divide (.5x) __..__..__..__..__..__..__..__.._
 72
65
 73
6
 40
0.625
 49
0.25
 74
0
 49
-0.075
 74
0
 49
0.1
 74
0
 49
-0.025
 74
0
 49
0.1
 74
0
 49
-0.075
 74
0
  0
LTYPE
  5
3F
100
AcDbSymbolTableRecord
100
AcDbLinetypeTableRecord
  2
ACAD_ISO05W100
 70
0
  3
ISO long-dash double-dot ____ .. ____ .. ____ . 
 72
65
 73
6
 40
33.0000000000000071
 49
24.0
 74
0
 49
-2.9500000000000002
 74
0
 49
0.1
 74
0
 49
-2.9000000000000004
 74
0
 49
0.1
 74
0
 49
-2.9500000000000002
 74
0
  0
LTYPE
  5
40
100
AcDbSymbolTableRecord
100
AcDbLinetypeTableRecord
  2
ACAD_ISO14W100
 70
0
  3
ISO dash triple-dot __ . . . __ . . . __ . . . _
 72
65
 73
8
 40
24.0000000000000036
 49
12.0
 74
0
 49
-2.9500000000000002
 74
0
 49
0.1
 74
0
 49
-2.9000000000000004
 74
0
 49
0.1
 74
0
 49
-2.9000000000000004
 74
0
 49
0.1
 74
0
 49
-2.9500000000000002
 74
0
  0
LTYPE
  5
41
100
AcDbSymbolTableRecord
100
AcDbLinetypeTableRecord
  2
DOT2
 70
0
  3
Dot (.5x) ........................................
 72
65
 73
2
 40
0.125
 49
0.1
 74
0
 49
-0.025
 74
0
  0
LTYPE
  5
42
100
AcDbSymbolTableRecord
100
AcDbLinetypeTableRecord
  2
HIDDENX2
 70
0
  3
Hidden (2x) ____ ____ ____ ____ ____ ____ ____ 
 72
65
 73
2
 40
0.75
 49
0.5
 74
0
 49
-0.25
 74
0
  0
LTYPE
  5
43
100
AcDbSymbolTableRecord
100
AcDbLinetypeTableRecord
  2
ACAD_ISO13W100
 70
0
  3
ISO double-dash double-dot __ __ . . __ __ . . _
 72
65
 73
8
 40
36.0000000000000071
 49
12.0
 74
0
 49
-3.0
 74
0
 49
12.0
 74
0
 49
-2.9500000000000002
 74
0
 49
0.1
 74
0
 49
-2.9000000000000004
 74
0
 49
0.1
 74
0
 49
-2.9500000000000002
 74
0
  0
LTYPE
  5
44
100
AcDbSymbolTableRecord
100
AcDbLinetypeTableRecord
  2
ACAD_ISO15W100
 70
0
  3
ISO double-dash triple-dot __ __ . . . __ __ . .
 72
65
 73
10
 40
39.0000000000000071
 49
12.0
 74
0
 49
-3.0
 74
0
 49
12.0
 74
0
 49
-2.9500000000000002
 74
0
 49
0.1
 74
0
 49
-2.9000000000000004
 74
0
 49
0.1
 74
0
 49
-2.9000000000000004
 74
0
 49
0.1
 74
0
 49
-2.9500000000000002
 74
0
  0
LTYPE
  5
45
100
AcDbSymbolTableRecord
100
AcDbLinetypeTableRecord
  2
DASHDOT2
 70
0
  3
Dash dot (.5x) _._._._._._._._._._._._._._._.
 72
65
 73
4
 40
0.5
 49
0.25
 74
0
 49
-0.075
 74
0
 49
0.1
 74
0
 49
-0.075
 74
0
  0
LTYPE
  5
46
100
AcDbSymbolTableRecord
100
AcDbLinetypeTableRecord
  2
DASHDOT
 70
0
  3
Dash dot __ . __ . __ . __ . __ . __ . __ . __
 72
65
 73
4
 40
1.0
 49
0.5
 74
0
 49
-0.2
 74
0
 49
0.1
 74
0
 49
-0.2
 74
0
  0
LTYPE
  5
47
100
AcDbSymbolTableRecord
100
AcDbLinetypeTableRecord
  2
HIDDEN
 70
0
  3
Hidden __ __ __ __ __ __ __ __ __ __ __ __ __ __
 72
65
 73
2
 40
0.375
 49
0.25
 74
0
 49
-0.125
 74
0
  0
LTYPE
  5
48
100
AcDbSymbolTableRecord
100
AcDbLinetypeTableRecord
  2
ACAD_ISO02W100
 70
0
  3
ISO dash __ __ __ __ __ __ __ __ __ __ __ __ __
 72
65
 73
2
 40
15.0
 49
12.0
 74
0
 49
-3.0
 74
0
  0
LTYPE
  5
14
100
AcDbSymbolTableRecord
100
AcDbLinetypeTableRecord
  2
BYBLOCK
 70
0
  3

 72
65
 73
0
 40
0.0
  0
LTYPE
  5
49
100
AcDbSymbolTableRecord
100
AcDbLinetypeTableRecord
  2
DIVIDEX2
 70
0
  3
Divide (2x) ________  .  .  ________  .  .  _
 72
65
 73
6
 40
2.5000000000000004
 49
1.0
 74
0
 49
-0.45
 74
0
 49
0.1
 74
0
 49
-0.4
 74
0
 49
0.1
 74
0
 49
-0.45
 74
0
  0
LTYPE
  5
4A
100
AcDbSymbolTableRecord
100
AcDbLinetypeTableRecord
  2
CENTERX2
 70
0
  3
Center (2x) ________  __  ________  __  _____
 72
65
 73
4
 40
4.0
 49
2.5
 74
0
 49
-0.5
 74
0
 49
0.5
 74
0
 49
-0.5
 74
0
  0
LTYPE
  5
4B
100
AcDbSymbolTableRecord
100
AcDbLinetypeTableRecord
  2
ACAD_ISO07W100
 70
0
  3
ISO dot . . . . . . . . . . . . . . . . . . . . 
 72
65
 73
2
 40
3.0
 49
0.1
 74
0
 49
-2.8999999999999999
 74
0
  0
LTYPE
  5
4C
100
AcDbSymbolTableRecord
100
AcDbLinetypeTableRecord
  2
CENTER
 70
0
  3
Center ____ _ ____ _ ____ _ ____ _ ____ _ ____
 72
65
 73
4
 40
2.0
 49
1.25
 74
0
 49
-0.25
 74
0
 49
0.25
 74
0
 49
-0.25
 74
0
  0
LTYPE
  5
4D
100
AcDbSymbolTableRecord
100
AcDbLinetypeTableRecord
  2
ACAD_ISO03W100
 70
0
  3
ISO dash space __    __    __    __    __    __
 72
65
 73
2
 40
30.0
 49
12.0
 74
0
 49
-18.0
 74
0
  0
LTYPE
  5
4E
100
AcDbSymbolTableRecord
100
AcDbLinetypeTableRecord
  2
ACAD_ISO10W100
 70
0
  3
ISO dash dot __ . __ . __ . __ . __ . __ . __ . 
 72
65
 73
4
 40
18.0
 49
12.0
 74
0
 49
-2.9500000000000002
 74
0
 49
0.1
 74
0
 49
-2.9500000000000002
 74
0
  0
LTYPE
  5
4F
100
AcDbSymbolTableRecord
100
AcDbLinetypeTableRecord
  2
DIVIDE
 70
0
  3
Divide ____ . . ____ . . ____ . . ____ . . ____
 72
65
 73
6
 40
1.25
 49
0.5
 74
0
 49
-0.2
 74
0
 49
0.1
 74
0
 49
-0.15
 74
0
 49
0.1
 74
0
 49
-0.2
 74
0
  0
LTYPE
  5
50
100
AcDbSymbolTableRecord
100
AcDbLinetypeTableRecord
  2
PHANTOMX2
 70
0
  3
Phantom (2x) ____________    ____    ____   _
 72
65
 73
6
 40
5.0
 49
2.5
 74
0
 49
-0.5
 74
0
 49
0.5
 74
0
 49
-0.5
 74
0
 49
0.5
 74
0
 49
-0.5
 74
0
  0
LTYPE
  5
51
100
AcDbSymbolTableRecord
100
AcDbLinetypeTableRecord
  2
DASHDOTX2
 70
0
  3
Dash dot (2x) ____  .  ____  .  ____  .  ___
 72
65
 73
4
 40
2.0
 49
1.0
 74
0
 49
-0.45
 74
0
 49
0.1
 74
0
 49
-0.45
 74
0
  0
LTYPE
  5
52
100
AcDbSymbolTableRecord
100
AcDbLinetypeTableRecord
  2
ACAD_ISO11W100
 70
0
  3
ISO double-dash dot __ __ . __ __ . __ __ . __ _
 72
65
 73
6
 40
33.0
 49
12.0
 74
0
 49
-3.0
 74
0
 49
12.0
 74
0
 49
-2.9500000000000002
 74
0
 49
0.1
 74
0
 49
-2.9500000000000002
 74
0
  0
LTYPE
  5
53
100
AcDbSymbolTableRecord
100
AcDbLinetypeTableRecord
  2
PHANTOM
 70
0
  3
Phantom ______  __  __  ______  __  __  ______ 
 72
65
 73
6
 40
2.5
 49
1.25
 74
0
 49
-0.25
 74
0
 49
0.25
 74
0
 49
-0.25
 74
0
 49
0.25
 74
0
 49
-0.25
 74
0
  0
LTYPE
  5
54
100
AcDbSymbolTableRecord
100
AcDbLinetypeTableRecord
  2
DOTX2
 70
0
  3
Dot (2x) .  .  .  .  .  .  .  .  .  .  .  .  .  .
 72
65
 73
2
 40
0.5
 49
0.1
 74
0
 49
-0.4
 74
0
  0
LTYPE
  5
55
100
AcDbSymbolTableRecord
100
AcDbLinetypeTableRecord
  2
HIDDEN2
 70
0
  3
Hidden (.5x) _ _ _ _ _ _ _ _ _ _ _ _ _ _ _ _ _ 
 72
65
 73
2
 40
0.1875
 49
0.125
 74
0
 49
-0.0625
 74
0
  0
LTYPE
  5
56
100
AcDbSymbolTableRecord
100
AcDbLinetypeTableRecord
  2
PHANTOM2
 70
0
  3
Phantom (.5x) ___ _ _ ___ _ _ ___ _ _ ___ _ _
 72
65
 73
6
 40
1.25
 49
0.625
 74
0
 49
-0.125
 74
0
 49
0.125
 74
0
 49
-0.125
 74
0
 49
0.125
 74
0
 49
-0.125
 74
0
  0
ENDTAB
  0
TABLE
  2
LAYER
  5
2
100
AcDbSymbolTable
 70
5
  0
LAYER
  5
57
100
AcDbSymbolTableRecord
100
AcDbLayerTableRecord
  2
1_Paneling
 70
0
 62
7
420
0
  6
Continuous
370
25
390
F
  0
LAYER
  5
58
100
AcDbSymbolTableRecord
100
AcDbLayerTableRecord
  2
4_Front_Trim_B
 70
0
 62
7
420
0
  6
Continuous
370
25
390
F
  0
LAYER
  5
59
100
AcDbSymbolTableRecord
100
AcDbLayerTableRecord
  2
2_Shelf
 70
0
 62
7
420
0
  6
Continuous
370
25
390
F
  0
LAYER
  5
5A
100
AcDbSymbolTableRecord
100
AcDbLayerTableRecord
  2
3_window_liner
 70
0
 62
7
420
0
  6
Continuous
370
25
390
F
  0
LAYER
  5
10
100
AcDbSymbolTableRecord
100
AcDbLayerTableRecord
  2
0
 70
1
 62
7
420
16777215
  6
Continuous
370
25
390
F
  0
ENDTAB
  0
TABLE
  2
STYLE
  5
3
100
AcDbSymbolTable
 70
14
  0
STYLE
  5
5B
100
AcDbSymbolTableRecord
100
AcDbTextStyleTableRecord
  2
Standard
 70
0
 40
0.0
 41
1.0
 50
0.0
 71
0
 42
2.5
  3

  4

1001
ACAD
1000
txt
1071
0
  0
STYLE
  5
5C
100
AcDbSymbolTableRecord
100
AcDbTextStyleTableRecord
  2
textstyle0
 70
0
 40
0.0
 41
1.0
 50
0.0
 71
0
 42
3.0
  3

  4

1001
ACAD
1000
textstyle9
1071
0
  0
STYLE
  5
5D
100
AcDbSymbolTableRecord
100
AcDbTextStyleTableRecord
  2
textstyle1
 70
0
 40
0.0
 41
1.0
 50
0.0
 71
0
 42
3.0
  3

  4

1001
ACAD
1000
textstyle4
1071
0
  0
STYLE
  5
5E
100
AcDbSymbolTableRecord
100
AcDbTextStyleTableRecord
  2
textstyle2
 70
0
 40
0.0
 41
1.0
 50
0.0
 71
0
 42
3.0
  3

  4

1001
ACAD
1000
textstyle10
1071
0
  0
STYLE
  5
5F
100
AcDbSymbolTableRecord
100
AcDbTextStyleTableRecord
  2
textstyle3
 70
0
 40
0.0
 41
1.0
 50
0.0
 71
0
 42
3.0
  3

  4

1001
ACAD
1000
textstyle6
1071
0
  0
STYLE
  5
60
100
AcDbSymbolTableRecord
100
AcDbTextStyleTableRecord
  2
textstyle4
 70
0
 40
0.0
 41
1.0
 50
0.0
 71
0
 42
3.0
  3

  4

1001
ACAD
1000
Liberation Sans
1071
0
  0
STYLE
  5
61
100
AcDbSymbolTableRecord
100
AcDbTextStyleTableRecord
  2
textstyle5
 70
0
 40
0.0
 41
1.0
 50
0.0
 71
0
 42
3.0
  3

  4

1001
ACAD
1000
Liberation Sans
1071
0
  0
STYLE
  5
62
100
AcDbSymbolTableRecord
100
AcDbTextStyleTableRecord
  2
textstyle6
 70
0
 40
0.0
 41
1.0
 50
0.0
 71
0
 42
3.0
  3

  4

1001
ACAD
1000
Liberation Sans
1071
0
  0
STYLE
  5
63
100
AcDbSymbolTableRecord
100
AcDbTextStyleTableRecord
  2
textstyle7
 70
0
 40
0.0
 41
1.0
 50
0.0
 71
0
 42
3.0
  3

  4

1001
ACAD
1000
textstyle0
1071
0
  0
STYLE
  5
64
100
AcDbSymbolTableRecord
100
AcDbTextStyleTableRecord
  2
textstyle8
 70
0
 40
0.0
 41
1.0
 50
0.0
 71
0
 42
3.0
  3

  4

1001
ACAD
1000
textstyle1
1071
0
  0
STYLE
  5
65
100
AcDbSymbolTableRecord
100
AcDbTextStyleTableRecord
  2
textstyle9
 70
0
 40
0.0
 41
1.0
 50
0.0
 71
0
 42
3.0
  3

  4

1001
ACAD
1000
Liberation Sans
1071
0
  0
STYLE
  5
66
100
AcDbSymbolTableRecord
100
AcDbTextStyleTableRecord
  2
textstyle10
 70
0
 40
0.0
 41
1.0
 50
0.0
 71
0
 42
3.0
  3

  4

1001
ACAD
1000
Liberation Sans
1071
0
  0
STYLE
  5
67
100
AcDbSymbolTableRecord
100
AcDbTextStyleTableRecord
  2
textstyle11
 70
0
 40
0.0
 41
1.0
 50
0.0
 71
0
 42
3.0
  3

  4

1001
ACAD
1000
Liberation Sans
1071
0
  0
STYLE
  5
68
100
AcDbSymbolTableRecord
100
AcDbTextStyleTableRecord
  2
textstyle12
 70
0
 40
0.0
 41
1.0
 50
0.0
 71
0
 42
3.0
  3

  4

1001
ACAD
1000
Liberation Sans
1071
0
  0
ENDTAB
  0
TABLE
  2
VIEW
  5
6
100
AcDbSymbolTable
 70
0
  0
ENDTAB
  0
TABLE
  2
UCS
  5
7
100
AcDbSymbolTable
 70
0
  0
ENDTAB
  0
TABLE
  2
APPID
  5
9
100
AcDbSymbolTable
 70
1
  0
APPID
  5
12
100
AcDbSymbolTableRecord
100
AcDbRegAppTableRecord
  2
ACAD
 70
0
  0
APPID
  5
69
100
AcDbSymbolTableRecord
100
AcDbRegAppTableRecord
  2
QCAD
 70
0
  0
ENDTAB
  0
TABLE
  2
DIMSTYLE
  5
A
100
AcDbSymbolTable
 70
1
100
AcDbDimStyleTable
 71
0
  0
DIMSTYLE
105
27
100
AcDbSymbolTableRecord
100
AcDbDimStyleTableRecord
  2
Standard
 41
2.5
 42
0.625
 43
3.75
 44
1.25
 70
0
 73
0
 74
0
 77
1
 78
8
140
2.5
141
2.5
143
0.03937007874016
147
0.625
171
3
172
1
271
2
272
2
274
3
278
44
283
0
284
8
340
5B
  0
ENDTAB
  0
TABLE
  2
BLOCK_RECORD
  5
1
100
AcDbSymbolTable
 70
1
  0
BLOCK_RECORD
  5
1F
100
AcDbSymbolTableRecord
100
AcDbBlockTableRecord
  2
*Model_Space
340
22
  0
BLOCK_RECORD
  5
1B
100
AcDbSymbolTableRecord
100
AcDbBlockTableRecord
  2
*Paper_Space
340
1E
  0
BLOCK_RECORD
  5
23
100
AcDbSymbolTableRecord
100
AcDbBlockTableRecord
  2
*Paper_Space0
340
26
  0
BLOCK_RECORD
  5
6A
100
AcDbSymbolTableRecord
100
AcDbBlockTableRecord
  2
noNail
340
0
  0
ENDTAB
  0
ENDSEC
  0
SECTION
  2
BLOCKS
  0
BLOCK
  5
20
100
AcDbEntity
  8
0
100
AcDbBlockBegin
  2
*Model_Space
 70
0
 10
0.0
 20
0.0
 30
0.0
  3
*Model_Space
  1

  0
ENDBLK
  5
21
100
AcDbEntity
  8
0
100
AcDbBlockEnd
  0
BLOCK
  5
1C
100
AcDbEntity
 67
1
  8
0
100
AcDbBlockBegin
  2
*Paper_Space
 70
0
 10
0.0
 20
0.0
 30
0.0
  3
*Paper_Space
  1

  0
ENDBLK
  5
1D
100
AcDbEntity
 67
1
  8
0
100
AcDbBlockEnd
  0
BLOCK
  5
24
100
AcDbEntity
  8
0
100
AcDbBlockBegin
  2
*Paper_Space0
 70
0
 10
0.0
 20
0.0
 30
0.0
  3
*Paper_Space0
  1

  0
ENDBLK
  5
25
100
AcDbEntity
  8
0
100
AcDbBlockEnd
  0
BLOCK
  5
6B
100
AcDbEntity
  8
0
100
AcDbBlockBegin
  2
noNail
 70
0
 10
0.0
 20
0.0
 30
0.0
  3
noNail
  1

  0
ENDBLK
  5
6C
100
AcDbEntity
  8
0
100
AcDbBlockEnd
  0
ENDSEC
  0
SECTION
  2
ENTITIES
  0
LINE
  5
6D
100
AcDbEntity
  8
1_Paneling
 62
256
370
-1
 48
1.0
  6
BYLAYER
100
AcDbLine
 10
41.0257603713639938
 20
79.3547286034103792
 30
0.0
 11
64.0257603713639867
 21
79.3547286034103792
 31
0.0
  0
LINE
  5
6E
100
AcDbEntity
  8
1_Paneling
 62
256
370
-1
 48
1.0
  6
BYLAYER
100
AcDbLine
 10
41.3261989253828617
 20
-52.6159726060442239
 30
0.0
 11
64.3261989253828688
 21
-52.6159726060442239
 31
0.0
  0
LINE
  5
6F
100
AcDbEntity
  8
1_Paneling
 62
256
370
-1
 48
1.0
  6
BYLAYER
100
AcDbLine
 10
64.0257603713639867
 20
44.3547286034103792
 30
0.0
 11
41.0257603713639938
 21
44.3547286034103792
 31
0.0
  0
LINE
  5
70
100
AcDbEntity
  8
1_Paneling
 62
256
370
-1
 48
1.0
  6
BYLAYER
100
AcDbLine
 10
64.3261989253828688
 20
-87.6159726060442239
 30
0.0
 11
41.3261989253828617
 21
-87.6159726060442239
 31
0.0
  0
LINE
  5
71
100
AcDbEntity
  8
1_Paneling
 62
256
370
-1
 48
1.0
  6
BYLAYER
100
AcDbLine
 10
41.0257603713639938
 20
60.7175549240245829
 30
0.0
 11
64.0400240658229905
 21
60.7175549240245829
 31
0.0
  0
LINE
  5
72
100
AcDbEntity
  8
1_Paneling
 62
256
370
-1
 48
1.0
  6
BYLAYER
100
AcDbLine
 10
41.3261989253828617
 20
-71.2531462854300202
 30
0.0
 11
64.3404626198418725
 21
-71.2531462854300202
 31
0.0
  0
LINE
  5
73
100
AcDbEntity
  8
1_Paneling
 62
256
370
-1
 48
1.0
  6
BYLAYER
100
AcDbLine
 10
41.0367540847204069
 20
61.1268636229528539
 30
0.0
 11
64.0400240658229905
 21
61.1268636229528539
 31
0.0
  0
LINE
  5
74
100
AcDbEntity
  8
1_Paneling
 62
256
370
-1
 48
1.0
  6
BYLAYER
100
AcDbLine
 10
41.3371926387392747
 20
-70.8438375865017491
 30
0.0
 11
64.3404626198418725
 21
-70.8438375865017491
 31
0.0
  0
LINE
  5
75
100
AcDbEntity
  8
1_Paneling
 62
256
370
-1
 48
1.0
  6
BYLAYER
100
AcDbLine
 10
41.0257603713639938
 20
61.1268636229528539
 30
0.0
 11
41.0257603713639938
 21
79.3547286034103792
 31
0.0
  0
LINE
  5
76
100
AcDbEntity
  8
1_Paneling
 62
256
370
-1
 48
1.0
  6
BYLAYER
100
AcDbLine
 10
41.3261989253828617
 20
-70.8438375865017491
 30
0.0
 11
41.3261989253828617
 21
-52.6159726060442239
 31
0.0
  0
LINE
  5
77
100
AcDbEntity
  8
1_Paneling
 62
256
370
-1
 48
1.0
  6
BYLAYER
100
AcDbLine
 10
64.0257603713639867
 20
79.3547286034103792
 30
0.0
 11
64.0257603713639867
 21
61.1268636229528539
 31
0.0
  0
LINE
  5
78
100
AcDbEntity
  8
1_Paneling
 62
256
370
-1
 48
1.0
  6
BYLAYER
100
AcDbLine
 10
64.3261989253828688
 20
-52.6159726060442239
 30
0.0
 11
64.3261989253828688
 21
-70.8438375865017491
 31
0.0
  0
LINE
  5
79
100
AcDbEntity
  8
1_Paneling
 62
256
370
-1
 48
1.0
  6
BYLAYER
100
AcDbLine
 10
41.0257603713639938
 20
60.7175549240245829
 30
0.0
 11
41.0257603713639938
 21
44.3547286034103792
 31
0.0
  0
LINE
  5
7A
100
AcDbEntity
  8
1_Paneling
 62
256
370
-1
 48
1.0
  6
BYLAYER
100
AcDbLine
 10
41.3261989253828617
 20
-71.2531462854300202
 30
0.0
 11
41.3261989253828617
 21
-87.6159726060442239
 31
0.0
  0
LINE
  5
7B
100
AcDbEntity
  8
1_Paneling
 62
256
370
-1
 48
1.0
  6
BYLAYER
100
AcDbLine
 10
64.0400240658229905
 20
60.7175549240245829
 30
0.0
 11
64.0257603713639867
 21
44.3547286034103792
 31
0.0
  0
LINE
  5
7C
100
AcDbEntity
  8
1_Paneling
 62
256
370
-1
 48
1.0
  6
BYLAYER
100
AcDbLine
 10
64.3404626198418725
 20
-71.2531462854300202
 30
0.0
 11
64.3261989253828688
 21
-87.6159726060442239
 31
0.0
  0
LINE
  5
7D
100
AcDbEntity
  8
1_Paneling
 62
256
370
-1
 48
1.0
  6
BYLAYER
100
AcDbLine
 10
38.0832676621841344
 20
100.0106220594688722
 30
0.0
 11
38.0832676621841344
 21
98.3656132994323258
 31
0.0
  0
LINE
  5
7E
100
AcDbEntity
  8
1_Paneling
 62
256
370
-1
 48
1.0
  6
BYLAYER
100
AcDbLine
 10
38.3837062162030023
 20
-31.9600791499857309
 30
0.0
 11
38.3837062162030023
 21
-33.6050879100222772
 31
0.0
  0
LINE
  5
7F
100
AcDbEntity
  8
1_Paneling
 62
256
370
-1
 48
1.0
  6
BYLAYER
100
AcDbLine
 10
38.0832676621841344
 20
98.3656132994323258
 30
0.0
 11
40.0000000000000071
 21
98.3656132994323258
 31
0.0
  0
LINE
  5
80
100
AcDbEntity
  8
1_Paneling
 62
256
370
-1
 48
1.0
  6
BYLAYER
100
AcDbLine
 10
38.3837062162030023
 20
-33.6050879100222772
 30
0.0
 11
40.300438554018875
 21
-33.6050879100222772
 31
0.0
  0
LINE
  5
81
100
AcDbEntity
  8
1_Paneling
 62
256
370
-1
 48
1.0
  6
BYLAYER
100
AcDbLine
 10
40.0000000000000071
 20
100.0000000000000142
 30
0.0
 11
40.0000000000000071
 21
98.3656132994323258
 31
0.0
  0
LINE
  5
82
100
AcDbEntity
  8
1_Paneling
 62
256
370
-1
 48
1.0
  6
BYLAYER
100
AcDbLine
 10
40.300438554018875
 20
-31.9707012094545888
 30
0.0
 11
40.300438554018875
 21
-33.6050879100222772
 31
0.0
  0
LINE
  5
83
100
AcDbEntity
  8
1_Paneling
 62
256
370
-1
 48
1.0
  6
BYLAYER
100
AcDbLine
 10
-4.2242391636119052
 20
85.8547282957554927
 30
0.0
 11
38.0832676621841486
 21
100.0106220594688722
 31
0.0
  0
LINE
  5
84
100
AcDbEntity
  8
1_Paneling
 62
256
370
-1
 48
1.0
  6
BYLAYER
100
AcDbLine
 10
-3.9238006095930378
 20
-46.1159729136991103
 30
0.0
 11
38.3837062162030165
 21
-31.9600791499857309
 31
0.0
  0
LINE
  5
85
100
AcDbEntity
  8
1_Paneling
 62
256
370
-1
 48
1.0
  6
BYLAYER
100
AcDbLine
 10
82.2757608363880877
 20
85.8547282957554927
 30
0.0
 11
40.0000000000000071
 21
100.0000000000000142
 31
0.0
  0
LINE
  5
86
100
AcDbEntity
  8
1_Paneling
 62
256
370
-1
 48
1.0
  6
BYLAYER
100
AcDbLine
 10
82.5761993904069698
 20
-46.1159729136991103
 30
0.0
 11
40.300438554018875
 21
-31.9707012094545888
 31
0.0
  0
LINE
  5
87
100
AcDbEntity
  8
2_Shelf
 62
256
370
-1
 48
1.0
  6
BYLAYER
100
AcDbLine
 10
121.4422808308973742
 20
46.1780753526695804
 30
0.0
 11
145.4422808308973742
 21
46.1780753526695804
 31
0.0
  0
LINE
  5
88
100
AcDbEntity
  8
2_Shelf
 62
256
370
-1
 48
1.0
  6
BYLAYER
100
AcDbLine
 10
145.4422808308973742
 20
46.6780753526695804
 30
0.0
 11
145.4422808308973742
 21
42.6780753526695804
 31
0.0
  0
LINE
  5
89
100
AcDbEntity
  8
2_Shelf
 62
256
370
-1
 48
1.0
  6
BYLAYER
100
AcDbLine
 10
160.4422808308973742
 20
42.6780753526695804
 30
0.0
 11
160.4422808308973742
 21
39.6780753526695804
 31
0.0
  0
LINE
  5
8A
100
AcDbEntity
  8
2_Shelf
 62
256
370
-1
 48
1.0
  6
BYLAYER
100
AcDbLine
 10
160.4422808308973742
 20
39.6780753526695804
 30
0.0
 11
157.4422808308973742
 21
36.6780753526695804
 31
0.0
  0
LINE
  5
8B
100
AcDbEntity
  8
2_Shelf
 62
256
370
-1
 48
1.0
  6
BYLAYER
100
AcDbLine
 10
124.4422808308973742
 20
36.6780753526695804
 30
0.0
 11
121.4422808308973742
 21
39.6780753526695804
 31
0.0
  0
LINE
  5
8C
100
AcDbEntity
  8
2_Shelf
 62
256
370
-1
 48
1.0
  6
BYLAYER
100
AcDbLine
 10
121.4422808308973742
 20
39.6780753526695804
 30
0.0
 11
121.4422808308973742
 21
42.6780753526695804
 31
0.0
  0
LINE
  5
8D
100
AcDbEntity
  8
2_Shelf
 62
256
370
-1
 48
1.0
  6
BYLAYER
100
AcDbLine
 10
115.4422808308973742
 20
42.6780753526695804
 30
0.0
 11
121.4422808308973742
 21
42.6780753526695804
 31
0.0
  0
HATCH
  5
8E
100
AcDbEntity
  8
1_Paneling
 62
256
370
-1
 48
1.0
  6
BYLAYER
100
AcDbHatch
 10
0.0
 20
0.0
 30
0.0
210
0.0
220
0.0
230
1.0
  2
JIS_WOOD
 70
0
 71
0
 91
1
 92
1
 93
4
 72
1
 10
40.9624534269268494
 20
60.7403812856186036
 11
63.9767171213858532
 21
60.7403812856186036
 72
1
 10
63.9767171213858532
 20
60.7403812856185965
 11
63.9624534269268494
 21
44.3775549650043928
 72
1
 10
63.9624534269268494
 20
44.3775549650043928
 11
40.9624534269268494
 21
44.3775549650043928
 72
1
 10
40.9624534269268494
 20
44.3775549650043928
 11
40.9624534269268494
 21
60.7403812856186036
 97
0
 75
0
 76
1
 52
0.0
 41
1.0
 77
0
 78
1
 53
45.0
 43
0.0
 44
0.0
 45
-0.0883883476483184
 46
0.0883883476483185
 79
0
 98
0
1001
ACAD
1010
0.0
1020
0.0
1030
0
  0
HATCH
  5
8F
100
AcDbEntity
  8
1_Paneling
 62
256
370
-1
 48
1.0
  6
BYLAYER
100
AcDbHatch
 10
0.0
 20
0.0
 30
0.0
210
0.0
220
0.0
230
1.0
  2
JIS_WOOD
 70
0
 71
0
 91
1
 92
1
 93
4
 72
1
 10
41.3193494512184003
 20
-71.2331590549597564
 11
64.3336131456774183
 21
-71.2331590549597564
 72
1
 10
64.3336131456774183
 20
-71.2331590549597706
 11
64.3193494512184145
 21
-87.5959853755739744
 72
1
 10
64.3193494512184145
 20
-87.5959853755739744
 11
41.3193494512184003
 21
-87.5959853755739744
 72
1
 10
41.3193494512184003
 20
-87.5959853755739744
 11
41.3193494512184003
 21
-71.2331590549597564
 97
0
 75
0
 76
1
 52
0.0
 41
1.0
 77
0
 78
1
 53
45.0
 43
0.0
 44
0.0
 45
-0.0883883476483184
 46
0.0883883476483185
 79
0
 98
0
1001
ACAD
1010
0.0
1020
0.0
1030
0
  0
LINE
  5
90
100
AcDbEntity
  8
2_Shelf
 62
256
370
-1
 48
1.0
  6
BYLAYER
100
AcDbLine
 10
121.4422808308973742
 20
42.6780753526695804
 30
0.0
 11
121.4422808308973742
 21
46.6780753526695804
 31
0.0
  0
LINE
  5
91
100
AcDbEntity
  8
2_Shelf
 62
256
370
-1
 48
1.0
  6
BYLAYER
100
AcDbLine
 10
163.0942173592623874
 20
42.6780753526695804
 30
0.0
 11
145.4422808308973742
 21
42.6780753526695804
 31
0.0
  0
LINE
  5
92
100
AcDbEntity
  8
2_Shelf
 62
256
370
-1
 48
1.0
  6
BYLAYER
100
AcDbLine
 10
121.4422808308973742
 20
43.1780753526695804
 30
0.0
 11
115.4422808308973742
 21
43.1780753526695804
 31
0.0
  0
LINE
  5
93
100
AcDbEntity
  8
2_Shelf
 62
256
370
-1
 48
1.0
  6
BYLAYER
100
AcDbLine
 10
163.0942173592623874
 20
43.1780753526695804
 30
0.0
 11
145.4422808308973742
 21
43.1780753526695804
 31
0.0
  0
LINE
  5
94
100
AcDbEntity
  8
2_Shelf
 62
256
370
-1
 48
1.0
  6
BYLAYER
100
AcDbLine
 10
145.4422808308973742
 20
43.1780753526695804
 30
0.0
 11
145.4422808308973742
 21
42.6780753526695804
 31
0.0
  0
LINE
  5
95
100
AcDbEntity
  8
2_Shelf
 62
256
370
-1
 48
1.0
  6
BYLAYER
100
AcDbLine
 10
121.4422808308973742
 20
43.1780753526695804
 30
0.0
 11
119.9422808308973742
 21
43.1780753526695804
 31
0.0
  0
LINE
  5
96
100
AcDbEntity
  8
2_Shelf
 62
256
370
-1
 48
1.0
  6
BYLAYER
100
AcDbLine
 10
119.9422808308973742
 20
43.1780753526695804
 30
0.0
 11
119.9422808308973742
 21
46.6780753526695804
 31
0.0
  0
LINE
  5
97
100
AcDbEntity
  8
2_Shelf
 62
256
370
-1
 48
1.0
  6
BYLAYER
100
AcDbLine
 10
119.9422808308973742
 20
46.6780753526695804
 30
0.0
 11
121.4422808308973742
 21
46.6780753526695804
 31
0.0
  0
LINE
  5
98
100
AcDbEntity
  8
2_Shelf
 62
256
370
-1
 48
1.0
  6
BYLAYER
100
AcDbLine
 10
121.4422808308973742
 20
46.6780753526695804
 30
0.0
 11
119.9422808308973742
 21
43.1780753526695804
 31
0.0
  0
LINE
  5
99
100
AcDbEntity
  8
2_Shelf
 62
256
370
-1
 48
1.0
  6
BYLAYER
100
AcDbLine
 10
119.9422808308973742
 20
46.6780753526695804
 30
0.0
 11
121.4422808308973742
 21
43.1780753526695804
 31
0.0
  0
LINE
  5
9A
100
AcDbEntity
  8
2_Shelf
 62
256
370
-1
 48
1.0
  6
BYLAYER
100
AcDbLine
 10
163.0942173592623874
 20
43.1534592980311373
 30
0.0
 11
163.0942173592623874
 21
42.6534592980311373
 31
0.0
  0
LINE
  5
9B
100
AcDbEntity
  8
2_Shelf
 62
256
370
-1
 48
1.0
  6
BYLAYER
100
AcDbLine
 10
145.4422808308973742
 20
43.1780753526695804
 30
0.0
 11
146.9422808308973742
 21
43.1780753526695804
 31
0.0
  0
LINE
  5
9C
100
AcDbEntity
  8
2_Shelf
 62
256
370
-1
 48
1.0
  6
BYLAYER
100
AcDbLine
 10
146.9422808308973742
 20
43.1780753526695804
 30
0.0
 11
146.9422808308973742
 21
46.6780753526695804
 31
0.0
  0
LINE
  5
9D
100
AcDbEntity
  8
2_Shelf
 62
256
370
-1
 48
1.0
  6
BYLAYER
100
AcDbLine
 10
146.9422808308973742
 20
46.6780753526695804
 30
0.0
 11
145.4422808308973742
 21
46.6780753526695804
 31
0.0
  0
LINE
  5
9E
100
AcDbEntity
  8
2_Shelf
 62
256
370
-1
 48
1.0
  6
BYLAYER
100
AcDbLine
 10
145.4422808308973742
 20
46.6780753526695804
 30
0.0
 11
146.9422808308973742
 21
43.1780753526695804
 31
0.0
  0
LINE
  5
9F
100
AcDbEntity
  8
2_Shelf
 62
256
370
-1
 48
1.0
  6
BYLAYER
100
AcDbLine
 10
146.9422808308973742
 20
46.6780753526695804
 30
0.0
 11
145.4422808308973742
 21
43.1780753526695804
 31
0.0
  0
CIRCLE
  5
A0
100
AcDbEntity
  8
2_Shelf
 62
256
370
-1
 48
1.0
  6
BYLAYER
100
AcDbCircle
 10
139.133156505790339
 20
43.8547282957553222
 30
0.0
 40
31.1073956694022229
  0
IMAGE
  5
A1
100
AcDbEntity
  8
2_Shelf
 62
256
370
-1
 48
1.0
  6
BYLAYER
100
AcDbRasterImage
 90
0
 10
122.9661095403243962
 20
44.8439948264413175
 30
0.0
 11
0.15
 21
0.0
 31
0.0
 12
0.0
 22
0.15
 32
0.0
 13
3.0
 23
7.0
340
A2
 70
15
280
0
281
50
282
50
283
0
  0
IMAGE
  5
A3
100
AcDbEntity
  8
2_Shelf
 62
256
370
-1
 48
1.0
  6
BYLAYER
100
AcDbRasterImage
 90
0
 10
41.2196144426644437
 20
39.854728295755308
 30
0.0
 11
0.15
 21
0.0
 31
0.0
 12
-0.0
 22
-0.15
 32
0.0
 13
3.0
 23
7.0
340
A4
 70
15
280
0
281
50
282
50
283
0
  0
IMAGE
  5
A5
100
AcDbEntity
  8
2_Shelf
 62
256
370
-1
 48
1.0
  6
BYLAYER
100
AcDbRasterImage
 90
0
 10
76.2193806740459081
 20
39.8200304667979523
 30
0.0
 11
0.15
 21
0.0
 31
0.0
 12
-0.0
 22
-0.15
 32
0.0
 13
3.0
 23
7.0
340
A6
 70
15
280
0
281
50
282
50
283
0
  0
IMAGE
  5
A7
100
AcDbEntity
  8
2_Shelf
 62
256
370
-1
 48
1.0
  6
BYLAYER
100
AcDbRasterImage
 90
0
 10
63.9037404081041913
 20
39.7823679583394068
 30
0.0
 11
0.15
 21
0.0
 31
0.0
 12
-0.0
 22
-0.15
 32
0.0
 13
3.0
 23
7.0
340
A8
 70
15
280
0
281
50
282
50
283
0
  0
IMAGE
  5
A9
100
AcDbEntity
  8
2_Shelf
 62
256
370
-1
 48
1.0
  6
BYLAYER
100
AcDbRasterImage
 90
0
 10
122.2193806740459081
 20
41.820030466797931
 30
0.0
 11
0.15
 21
0.0
 31
0.0
 12
-0.0
 22
-0.15
 32
0.0
 13
3.0
 23
7.0
340
AA
 70
15
280
0
281
50
282
50
283
0
  0
IMAGE
  5
AB
100
AcDbEntity
  8
2_Shelf
 62
256
370
-1
 48
1.0
  6
BYLAYER
100
AcDbRasterImage
 90
0
 10
143.0272914228237937
 20
42.1826751776119693
 30
0.0
 11
0.15
 21
0.0
 31
0.0
 12
-0.0
 22
-0.15
 32
0.0
 13
3.0
 23
7.0
340
AC
 70
15
280
0
281
50
282
50
283
0
  0
IMAGE
  5
AD
100
AcDbEntity
  8
2_Shelf
 62
256
370
-1
 48
1.0
  6
BYLAYER
100
AcDbRasterImage
 90
0
 10
157.0272914228237937
 20
42.1826751776118911
 30
0.0
 11
0.15
 21
0.0
 31
0.0
 12
-0.0
 22
-0.15
 32
0.0
 13
3.0
 23
7.0
340
AE
 70
15
280
0
281
50
282
50
283
0
  0
IMAGE
  5
AF
100
AcDbEntity
  8
2_Shelf
 62
256
370
-1
 48
1.0
  6
BYLAYER
100
AcDbRasterImage
 90
0
 10
131.9661095403244246
 20
44.8439948264414454
 30
0.0
 11
0.15
 21
0.0
 31
0.0
 12
0.0
 22
0.15
 32
0.0
 13
3.0
 23
7.0
340
B0
 70
15
280
0
281
50
282
50
283
0
  0
IMAGE
  5
B1
100
AcDbEntity
  8
2_Shelf
 62
256
370
-1
 48
1.0
  6
BYLAYER
100
AcDbRasterImage
 90
0
 10
140.9661095403243962
 20
44.8439948264411896
 30
0.0
 11
0.15
 21
0.0
 31
0.0
 12
0.0
 22
0.15
 32
0.0
 13
3.0
 23
7.0
340
B2
 70
15
280
0
281
50
282
50
283
0
  0
MTEXT
  5
B3
100
AcDbEntity
  8
2_Shelf
 62
256
370
-1
 48
1.0
  6
BYLAYER
100
AcDbMText
 10
132.38217268794142
 20
64.841517672717913
 30
0.0
 40
3.0
 41
0.0
 71
1
 72
1
  1
\H4.00001;2
  7
textstyle2
 50
0.0
 73
2
 44
1.0
  0
MTEXT
  5
B4
100
AcDbEntity
  8
2_Shelf
 62
256
370
-1
 48
1.0
  6
BYLAYER
100
AcDbMText
 10
54.4446684391989564
 20
27.709609206744986
 30
0.0
 40
3.0
 41
0.0
 71
1
 72
1
  1
\H4.00001;3
  7
textstyle3
 50
0.0
 73
2
 44
1.0
  0
MTEXT
  5
B5
100
AcDbEntity
  8
4_Front_Trim_B
 62
256
370
-1
 48
1.0
  6
BYLAYER
100
AcDbMText
 10
88.7252375835230538
 20
14.8260484875430762
 30
0.0
 40
3.0
 41
0.0
 71
1
 72
1
  1
\H4.00001;1
  7
textstyle0
 50
0.0
 73
2
 44
1.0
  0
MTEXT
  5
B6
100
AcDbEntity
  8
2_Shelf
 62
256
370
-1
 48
1.0
  6
BYLAYER
100
AcDbMText
 10
143.8203695527237755
 20
24.6818384380689082
 30
0.0
 40
3.0
 41
0.0
 71
1
 72
1
  1
\H4.00001;4
  7
textstyle1
 50
0.0
 73
2
 44
1.0
  0
CIRCLE
  5
B7
100
AcDbEntity
  8
2_Shelf
 62
256
370
-1
 48
1.0
  6
BYLAYER
100
AcDbCircle
 10
133.3348851614951514
 20
62.6780753526695804
 30
0.0
 40
3.5136847998605902
  0
CIRCLE
  5
B8
100
AcDbEntity
  8
2_Shelf
 62
256
370
-1
 48
1.0
  6
BYLAYER
100
AcDbCircle
 10
55.6205495804462302
 20
25.6021994738075378
 30
0.0
 40
3.5136847998605902
  0
CIRCLE
  5
B9
100
AcDbEntity
  8
4_Front_Trim_B
 62
256
370
-1
 48
1.0
  6
BYLAYER
100
AcDbCircle
 10
89.9011187247703276
 20
12.7186387546056352
 30
0.0
 40
3.5136847998605902
  0
CIRCLE
  5
BA
100
AcDbEntity
  8
2_Shelf
 62
256
370
-1
 48
1.0
  6
BYLAYER
100
AcDbCircle
 10
145.1609210449952059
 20
22.5443277784102136
 30
0.0
 40
3.5136847998605902
  0
LEADER
  5
BB
100
AcDbEntity
  8
2_Shelf
 62
256
370
-1
 48
1.0
  6
BYLAYER
100
AcDbLeader
  3
Standard
 71
1
 72
0
 73
3
 74
0
 75
0
 40
1.0
 41
10.0
 76
2
 10
133.3348851614951514
 20
51.6780753526695804
 10
133.3348851614951514
 20
59.1643905528089959
1001
ACAD
1000
DSTYLE
1002
{
1070
40
1040
1.0
1002
}
  0
LEADER
  5
BC
100
AcDbEntity
  8
2_Shelf
 62
256
370
-1
 48
1.0
  6
BYLAYER
100
AcDbLeader
  3
Standard
 71
1
 72
0
 73
3
 74
0
 75
0
 40
1.0
 41
10.0
 76
2
 10
124.8399966795199134
 20
51.731584686460522
 10
131.1807023904349023
 20
59.9022011729491766
1001
ACAD
1000
DSTYLE
1002
{
1070
40
1040
1.0
1002
}
  0
LEADER
  5
BD
100
AcDbEntity
  8
2_Shelf
 62
256
370
-1
 48
1.0
  6
BYLAYER
100
AcDbLeader
  3
Standard
 71
1
 72
0
 73
3
 74
0
 75
0
 40
1.0
 41
10.0
 76
2
 10
142.3348851614951514
 20
51.6780753526695804
 10
135.5598831598194067
 20
59.9586333547176906
1001
ACAD
1000
DSTYLE
1002
{
1070
40
1040
1.0
1002
}
  0
LINE
  5
BE
100
AcDbEntity
  8
1_Paneling
 62
256
370
-1
 48
1.0
  6
BYLAYER
100
AcDbLine
 10
82.2757608363884287
 20
0.3547282957554927
 30
0.0
 11
82.2757608363880877
 21
85.8547282957554927
 31
0.0
  0
LINE
  5
BF
100
AcDbEntity
  8
1_Paneling
 62
256
370
-1
 48
1.0
  6
BYLAYER
100
AcDbLine
 10
82.5761993904072824
 20
-131.6159729136991245
 30
0.0
 11
82.5761993904069413
 21
-46.1159729136991103
 31
0.0
  0
LINE
  5
C0
100
AcDbEntity
  8
1_Paneling
 62
256
370
-1
 48
1.0
  6
BYLAYER
100
AcDbLine
 10
40.5257608363882298
 20
43.8547282957553222
 30
0.0
 11
40.5257608363881019
 21
79.8547282957553222
 31
0.0
  0
LINE
  5
C1
100
AcDbEntity
  8
1_Paneling
 62
256
370
-1
 48
1.0
  6
BYLAYER
100
AcDbLine
 10
40.8261993904070977
 20
-88.1159729136992809
 30
0.0
 11
40.8261993904069698
 21
-52.1159729136992809
 31
0.0
  0
LINE
  5
C2
100
AcDbEntity
  8
1_Paneling
 62
256
370
-1
 48
1.0
  6
BYLAYER
100
AcDbLine
 10
-1.9742391636116636
 20
0.3547282957552085
 30
0.0
 11
-1.9742391636119052
 21
81.3547282957552085
 31
0.0
  0
LINE
  5
C3
100
AcDbEntity
  8
1_Paneling
 62
256
370
-1
 48
1.0
  6
BYLAYER
100
AcDbLine
 10
-1.6738006095927962
 20
-131.6159729136994088
 30
0.0
 11
-1.6738006095930378
 21
-50.6159729136993946
 31
0.0
  0
LINE
  5
C4
100
AcDbEntity
  8
1_Paneling
 62
256
370
-1
 48
1.0
  6
BYLAYER
100
AcDbLine
 10
82.2757608363884287
 20
0.3547282957554927
 30
0.0
 11
-4.2242391636116494
 21
0.3547282957551801
 31
0.0
  0
LINE
  5
C5
100
AcDbEntity
  8
1_Paneling
 62
256
370
-1
 48
1.0
  6
BYLAYER
100
AcDbLine
 10
82.5761993904072824
 20
-131.6159729136991245
 30
0.0
 11
-3.923800609592782
 21
-131.6159729136994088
 31
0.0
  0
LINE
  5
C6
100
AcDbEntity
  8
1_Paneling
 62
256
370
-1
 48
1.0
  6
BYLAYER
100
AcDbLine
 10
82.2757608363880877
 20
85.8547282957554927
 30
0.0
 11
38.2757608363880948
 21
85.8547282957553222
 31
0.0
  0
LINE
  5
C7
100
AcDbEntity
  8
1_Paneling
 62
256
370
-1
 48
1.0
  6
BYLAYER
100
AcDbLine
 10
82.5761993904069698
 20
-46.1159729136991103
 30
0.0
 11
38.5761993904069627
 21
-46.1159729136992809
 31
0.0
  0
LINE
  5
C8
100
AcDbEntity
  8
1_Paneling
 62
256
370
-1
 48
1.0
  6
BYLAYER
100
AcDbLine
 10
38.2757608363880948
 20
85.8547282957553222
 30
0.0
 11
-4.2242391636119194
 21
85.8547282957552085
 31
0.0
  0
LINE
  5
C9
100
AcDbEntity
  8
1_Paneling
 62
256
370
-1
 48
1.0
  6
BYLAYER
100
AcDbLine
 10
38.5761993904069627
 20
-46.1159729136992809
 30
0.0
 11
-3.923800609593052
 21
-46.1159729136993946
 31
0.0
  0
LINE
  5
CA
100
AcDbEntity
  8
1_Paneling
 62
256
370
-1
 48
1.0
  6
BYLAYER
100
AcDbLine
 10
64.5257608363882298
 20
43.854728295755379
 30
0.0
 11
64.5257608363880877
 21
79.854728295755379
 31
0.0
  0
LINE
  5
CB
100
AcDbEntity
  8
1_Paneling
 62
256
370
-1
 48
1.0
  6
BYLAYER
100
AcDbLine
 10
64.8261993904070835
 20
-88.115972913699224
 30
0.0
 11
64.8261993904069698
 21
-52.115972913699224
 31
0.0
  0
LINE
  5
CC
100
AcDbEntity
  8
1_Paneling
 62
256
370
-1
 48
1.0
  6
BYLAYER
100
AcDbLine
 10
-4.2242391636116494
 20
0.3547282957551801
 30
0.0
 11
-4.2242391636119194
 21
85.8547282957552085
 31
0.0
  0
LINE
  5
CD
100
AcDbEntity
  8
1_Paneling
 62
256
370
-1
 48
1.0
  6
BYLAYER
100
AcDbLine
 10
-3.923800609592782
 20
-131.6159729136994088
 30
0.0
 11
-3.923800609593052
 21
-46.1159729136993946
 31
0.0
  0
LINE
  5
CE
100
AcDbEntity
  8
1_Paneling
 62
256
370
-1
 48
1.0
  6
BYLAYER
100
AcDbLine
 10
36.0257608363883719
 20
0.3547282957553222
 30
0.0
 11
36.0257608363880948
 21
81.3547282957553222
 31
0.0
  0
LINE
  5
CF
100
AcDbEntity
  8
1_Paneling
 62
256
370
-1
 48
1.0
  6
BYLAYER
100
AcDbLine
 10
36.3261993904072398
 20
-131.6159729136992951
 30
0.0
 11
36.3261993904069627
 21
-50.6159729136992809
 31
0.0
  0
LINE
  5
D0
100
AcDbEntity
  8
1_Paneling
 62
256
370
-1
 48
1.0
  6
BYLAYER
100
AcDbLine
 10
64.5257608363880877
 20
79.854728295755379
 30
0.0
 11
40.5257608363881019
 21
79.8547282957553222
 31
0.0
  0
LINE
  5
D1
100
AcDbEntity
  8
1_Paneling
 62
256
370
-1
 48
1.0
  6
BYLAYER
100
AcDbLine
 10
64.8261993904069698
 20
-52.115972913699224
 30
0.0
 11
40.8261993904069698
 21
-52.1159729136992809
 31
0.0
  0
LINE
  5
D2
100
AcDbEntity
  8
2_Shelf
 62
256
370
-1
 48
1.0
  6
BYLAYER
100
AcDbLine
 10
40.5257608363882298
 20
43.8547282957553222
 30
0.0
 11
64.5257608363882298
 21
43.854728295755379
 31
0.0
  0
LINE
  5
D3
100
AcDbEntity
  8
2_Shelf
 62
256
370
-1
 48
1.0
  6
BYLAYER
100
AcDbLine
 10
40.8261993904070977
 20
-88.1159729136992809
 30
0.0
 11
64.8261993904070835
 21
-88.115972913699224
 31
0.0
  0
LINE
  5
D4
100
AcDbEntity
  8
1_Paneling
 62
256
370
-1
 48
1.0
  6
BYLAYER
100
AcDbLine
 10
-1.9742391636119052
 20
81.3547282957552085
 30
0.0
 11
36.0257608363880948
 21
81.3547282957553222
 31
0.0
  0
LINE
  5
D5
100
AcDbEntity
  8
1_Paneling
 62
256
370
-1
 48
1.0
  6
BYLAYER
100
AcDbLine
 10
-1.6738006095930378
 20
-50.6159729136993946
 30
0.0
 11
36.3261993904069627
 21
-50.6159729136992809
 31
0.0
  0
LINE
  5
D6
100
AcDbEntity
  8
2_Shelf
 62
256
370
-1
 48
1.0
  6
BYLAYER
100
AcDbLine
 10
115.4422808308973742
 20
42.6780753526695804
 30
0.0
 11
115.4422808308973742
 21
43.1780753526695804
 31
0.0
  0
LINE
  5
D7
100
AcDbEntity
  8
2_Shelf
 62
256
370
-1
 48
1.0
  6
BYLAYER
100
AcDbLine
 10
124.4422808308973742
 20
36.6780753526695804
 30
0.0
 11
157.4422808308973742
 21
36.6780753526695804
 31
0.0
  0
LINE
  5
D8
100
AcDbEntity
  8
2_Shelf
 62
256
370
-1
 48
1.0
  6
BYLAYER
100
AcDbLine
 10
40.5257608363882369
 20
43.8547282957553222
 30
0.0
 11
79.5257608363882298
 21
43.8547282957553222
 31
0.0
  0
LINE
  5
D9
100
AcDbEntity
  8
2_Shelf
 62
256
370
-1
 48
1.0
  6
BYLAYER
100
AcDbLine
 10
40.8261993904071048
 20
-88.1159729136992809
 30
0.0
 11
79.8261993904071119
 21
-88.1159729136992809
 31
0.0
  0
LINE
  5
DA
100
AcDbEntity
  8
2_Shelf
 62
256
370
-1
 48
1.0
  6
BYLAYER
100
AcDbLine
 10
79.5257608363882298
 20
43.8547282957553222
 30
0.0
 11
79.5257608363882298
 21
43.3547282957553222
 31
0.0
  0
LINE
  5
DB
100
AcDbEntity
  8
2_Shelf
 62
256
370
-1
 48
1.0
  6
BYLAYER
100
AcDbLine
 10
79.8261993904071119
 20
-88.1159729136992809
 30
0.0
 11
79.8261993904071119
 21
-88.6159729136992809
 31
0.0
  0
LINE
  5
DC
100
AcDbEntity
  8
2_Shelf
 62
256
370
-1
 48
1.0
  6
BYLAYER
100
AcDbLine
 10
79.5257608363882298
 20
43.3547282957553222
 30
0.0
 11
40.5257608363882369
 21
43.3547282957553222
 31
0.0
  0
LINE
  5
DD
100
AcDbEntity
  8
2_Shelf
 62
256
370
-1
 48
1.0
  6
BYLAYER
100
AcDbLine
 10
79.8261993904071119
 20
-88.6159729136992809
 30
0.0
 11
40.8261993904071048
 21
-88.6159729136992809
 31
0.0
  0
LINE
  5
DE
100
AcDbEntity
  8
2_Shelf
 62
256
370
-1
 48
1.0
  6
BYLAYER
100
AcDbLine
 10
40.5257608363882369
 20
43.3547282957553222
 30
0.0
 11
40.5257608363882369
 21
43.8547282957553222
 31
0.0
  0
LINE
  5
DF
100
AcDbEntity
  8
2_Shelf
 62
256
370
-1
 48
1.0
  6
BYLAYER
100
AcDbLine
 10
40.8261993904071048
 20
-88.6159729136992809
 30
0.0
 11
40.8261993904071048
 21
-88.1159729136992809
 31
0.0
  0
LINE
  5
E0
100
AcDbEntity
  8
2_Shelf
 62
256
370
-1
 48
1.0
  6
BYLAYER
100
AcDbLine
 10
40.5257608363882369
 20
43.3547282957553222
 30
0.0
 11
79.0257608363882298
 21
43.3547282957553222
 31
0.0
  0
LINE
  5
E1
100
AcDbEntity
  8
2_Shelf
 62
256
370
-1
 48
1.0
  6
BYLAYER
100
AcDbLine
 10
40.8261993904071048
 20
-88.6159729136992809
 30
0.0
 11
79.3261993904071119
 21
-88.6159729136992809
 31
0.0
  0
LINE
  5
E2
100
AcDbEntity
  8
2_Shelf
 62
256
370
-1
 48
1.0
  6
BYLAYER
100
AcDbLine
 10
79.0257608363882298
 20
43.3547282957553222
 30
0.0
 11
79.0257608363882298
 21
39.8547282957553222
 31
0.0
  0
LINE
  5
E3
100
AcDbEntity
  8
2_Shelf
 62
256
370
-1
 48
1.0
  6
BYLAYER
100
AcDbLine
 10
79.3261993904071119
 20
-88.6159729136992809
 30
0.0
 11
79.3261993904071119
 21
-92.1159729136992809
 31
0.0
  0
LINE
  5
E4
100
AcDbEntity
  8
2_Shelf
 62
256
370
-1
 48
1.0
  6
BYLAYER
100
AcDbLine
 10
79.0257608363882298
 20
39.8547282957553222
 30
0.0
 11
40.5257608363882369
 21
39.8547282957553222
 31
0.0
  0
LINE
  5
E5
100
AcDbEntity
  8
2_Shelf
 62
256
370
-1
 48
1.0
  6
BYLAYER
100
AcDbLine
 10
79.3261993904071119
 20
-92.1159729136992809
 30
0.0
 11
40.8261993904071048
 21
-92.1159729136992809
 31
0.0
  0
LINE
  5
E6
100
AcDbEntity
  8
2_Shelf
 62
256
370
-1
 48
1.0
  6
BYLAYER
100
AcDbLine
 10
40.5257608363882369
 20
39.8547282957553222
 30
0.0
 11
40.5257608363882369
 21
43.3547282957553222
 31
0.0
  0
LINE
  5
E7
100
AcDbEntity
  8
2_Shelf
 62
256
370
-1
 48
1.0
  6
BYLAYER
100
AcDbLine
 10
40.8261993904071048
 20
-92.1159729136992809
 30
0.0
 11
40.8261993904071048
 21
-88.6159729136992809
 31
0.0
  0
LEADER
  5
E8
100
AcDbEntity
  8
2_Shelf
 62
256
370
-1
 48
1.0
  6
BYLAYER
100
AcDbLeader
  3
Standard
 71
1
 72
0
 73
3
 74
0
 75
0
 40
1.0
 41
10.0
 76
2
 10
79.5257608363882298
 20
43.8547282957553222
 10
108.0257608363881161
 20
43.8547282957553222
1001
ACAD
1000
DSTYLE
1002
{
1070
40
1040
1.0
1002
}
  0
MTEXT
  5
E9
100
AcDbEntity
  8
3_window_liner
 62
256
370
-1
 48
1.0
  6
BYLAYER
100
AcDbMText
 10
91.3600638323600123
 20
-65.023754716411915
 30
0.0
 40
3.0
 41
0.0
 71
1
 72
1
  1
\H4.00001;5
  7
textstyle7
 50
0.0
 73
2
 44
1.0
  0
MTEXT
  5
EA
100
AcDbEntity
  8
3_window_liner
 62
256
370
-1
 48
1.0
  6
BYLAYER
100
AcDbMText
 10
72.1657413393998297
 20
-55.9413223463716349
 30
0.0
 40
3.0
 41
0.0
 71
1
 72
1
  1
\H4.00001;6
  7
textstyle8
 50
0.0
 73
2
 44
1.0
  0
CIRCLE
  5
EB
100
AcDbEntity
  8
3_window_liner
 62
256
370
-1
 48
1.0
  6
BYLAYER
100
AcDbCircle
 10
92.3699941442952479
 20
-67.193336588713322
 30
0.0
 40
3.5136847998605902
  0
CIRCLE
  5
EC
100
AcDbEntity
  8
3_window_liner
 62
256
370
-1
 48
1.0
  6
BYLAYER
100
AcDbCircle
 10
73.3107604777980555
 20
-57.7447067377140115
 30
0.0
 40
3.5136847998605902
  0
LINE
  5
ED
100
AcDbEntity
  8
2_Shelf
 62
256
370
-1
 48
1.0
  6
BYLAYER
100
AcDbLine
 10
64.8605047515958972
 20
42.4659154603459399
 30
0.0
 11
65.8605047515958972
 21
42.4659154603459399
 31
0.0
  0
LINE
  5
EE
100
AcDbEntity
  8
2_Shelf
 62
256
370
-1
 48
1.0
  6
BYLAYER
100
AcDbLine
 10
42.3262726906838012
 20
42.3574474359853568
 30
0.0
 11
43.3262726906838012
 21
42.3574474359853568
 31
0.0
  0
LINE
  5
EF
100
AcDbEntity
  8
2_Shelf
 62
256
370
-1
 48
1.0
  6
BYLAYER
100
AcDbLine
 10
77.1889649876216595
 20
42.4026424461356015
 30
0.0
 11
78.1889649876216595
 21
42.4026424461356015
 31
0.0
  0
LINE
  5
F0
100
AcDbEntity
  8
2_Shelf
 62
256
370
-1
 48
1.0
  6
BYLAYER
100
AcDbLine
 10
64.8605047515958972
 20
40.9659154603459399
 30
0.0
 11
65.8605047515958972
 21
40.9659154603459399
 31
0.0
  0
LINE
  5
F1
100
AcDbEntity
  8
2_Shelf
 62
256
370
-1
 48
1.0
  6
BYLAYER
100
AcDbLine
 10
65.3605047515958972
 20
42.9659154603459399
 30
0.0
 11
65.3605047515958972
 21
41.9659154603459399
 31
0.0
  0
LINE
  5
F2
100
AcDbEntity
  8
2_Shelf
 62
256
370
-1
 48
1.0
  6
BYLAYER
100
AcDbLine
 10
42.8262726906838012
 20
42.8574474359853568
 30
0.0
 11
42.8262726906838012
 21
41.8574474359853568
 31
0.0
  0
LINE
  5
F3
100
AcDbEntity
  8
2_Shelf
 62
256
370
-1
 48
1.0
  6
BYLAYER
100
AcDbLine
 10
77.6889649876216595
 20
42.9026424461356015
 30
0.0
 11
77.6889649876216595
 21
41.9026424461356015
 31
0.0
  0
LINE
  5
F4
100
AcDbEntity
  8
2_Shelf
 62
256
370
-1
 48
1.0
  6
BYLAYER
100
AcDbLine
 10
65.3605047515958972
 20
41.4659154603459399
 30
0.0
 11
65.3605047515958972
 21
40.4659154603459399
 31
0.0
  0
MTEXT
  5
F5
100
AcDbEntity
  8
2_Shelf
 62
256
370
-1
 48
1.0
  6
BYLAYER
100
AcDbMText
 10
66.4706147346777527
 20
37.6685884487336295
 30
0.0
 40
3.0
 41
0.0
 71
1
 72
1
  1
\H2.50001;2x
  7
textstyle4
 50
0.0
 73
2
 44
1.0
  0
LEADER
  5
F6
100
AcDbEntity
  8
2_Shelf
 62
256
370
-1
 48
1.0
  6
BYLAYER
100
AcDbLeader
  3
Standard
 71
1
 72
0
 73
3
 74
0
 75
0
 40
1.0
 41
10.0
 76
2
 10
44.0272914228237866
 20
33.1826751776120119
 10
52.6797333602941151
 20
27.5251089443915191
1001
ACAD
1000
DSTYLE
1002
{
1070
40
1040
1.0
1002
}
  0
LEADER
  5
F7
100
AcDbEntity
  8
2_Shelf
 62
256
370
-1
 48
1.0
  6
BYLAYER
100
AcDbLeader
  3
Standard
 71
1
 72
0
 73
3
 74
0
 75
0
 40
1.0
 41
10.0
 76
2
 10
64.0272914228237937
 20
33.1826751776120119
 10
58.2300259605188941
 20
27.955200513886826
1001
ACAD
1000
DSTYLE
1002
{
1070
40
1040
1.0
1002
}
  0
LEADER
  5
F8
100
AcDbEntity
  8
2_Shelf
 62
256
370
-1
 48
1.0
  6
BYLAYER
100
AcDbLeader
  3
Standard
 71
1
 72
0
 73
3
 74
0
 75
0
 40
1.0
 41
10.0
 76
2
 10
77.0272914228237937
 20
33.1826751776120119
 10
58.9326970527916458
 20
26.7750848024766483
1001
ACAD
1000
DSTYLE
1002
{
1070
40
1040
1.0
1002
}
  0
MTEXT
  5
F9
100
AcDbEntity
  8
2_Shelf
 62
256
370
-1
 48
1.0
  6
BYLAYER
100
AcDbMText
 10
41.0272914228237866
 20
21.1826751776119906
 30
0.0
 40
3.0
 41
0.0
 71
1
 72
1
  1
\H2.50001;Mount support block\P  flush with left edge\P  of shelf
  7
textstyle6
 50
0.0
 73
2
 44
1.0
  0
LEADER
  5
FA
100
AcDbEntity
  8
2_Shelf
 62
256
370
-1
 48
1.0
  6
BYLAYER
100
AcDbLeader
  3
Standard
 71
1
 72
0
 73
3
 74
0
 75
0
 40
1.0
 41
10.0
 76
2
 10
157.0272914228237937
 20
35.1826751776120119
 10
147.5660069380465131
 20
25.1058786211257967
1001
ACAD
1000
DSTYLE
1002
{
1070
40
1040
1.0
1002
}
  0
LEADER
  5
FB
100
AcDbEntity
  8
2_Shelf
 62
256
370
-1
 48
1.0
  6
BYLAYER
100
AcDbLeader
  3
Standard
 71
1
 72
0
 73
3
 74
0
 75
0
 40
1.0
 41
10.0
 76
2
 10
145.0272914228237937
 20
35.1826751776120119
 10
145.0272914228237937
 20
26.057816187400384
1001
ACAD
1000
DSTYLE
1002
{
1070
40
1040
1.0
1002
}
  0
LEADER
  5
FC
100
AcDbEntity
  8
2_Shelf
 62
256
370
-1
 48
1.0
  6
BYLAYER
100
AcDbLeader
  3
Standard
 71
1
 72
0
 73
3
 74
0
 75
0
 40
1.0
 41
10.0
 76
2
 10
125.0272914228237937
 20
35.1826751776120119
 10
142.1849703547572972
 20
24.4124012143446478
1001
ACAD
1000
DSTYLE
1002
{
1070
40
1040
1.0
1002
}
  0
LEADER
  5
FD
100
AcDbEntity
  8
3_window_liner
 62
256
370
-1
 48
1.0
  6
BYLAYER
100
AcDbLeader
  3
Standard
 71
1
 72
0
 73
3
 74
0
 75
0
 40
1.0
 41
10.0
 76
3
 10
58.391433661861214
 20
-52.8741885947328143
 10
63.2364369319450006
 20
-57.8092895546368624
 10
69.7971478753439953
 20
-57.7672312276619664
1001
ACAD
1000
DSTYLE
1002
{
1070
40
1040
1.0
1002
}
  0
MTEXT
  5
FE
100
AcDbEntity
  8
1_Paneling
 62
256
370
-1
 48
1.0
  6
BYLAYER
100
AcDbMText
 10
31.1092915878349743
 20
113.1076639130649255
 30
0.0
 40
3.0
 41
0.0
 71
1
 72
1
  1
\H4.99999;Front Window Shelf and Frame
  7
textstyle5
 50
0.0
 73
2
 44
1.0
  0
MTEXT
  5
FF
100
AcDbEntity
  8
2_Shelf
 62
256
370
-1
 48
1.0
  6
BYLAYER
100
AcDbMText
 10
138.6201423928152678
 20
64.4903815575475079
 30
0.0
 40
3.0
 41
0.0
 71
1
 72
1
  1
LONG Screws
  7
textstyle11
 50
0.0
 73
2
 44
1.0
  0
MTEXT
  5
100
100
AcDbEntity
  8
2_Shelf
 62
256
370
-1
 48
1.0
  6
BYLAYER
100
AcDbMText
 10
112.0303210155923921
 20
23.8870056707071861
 30
0.0
 40
3.0
 41
0.0
 71
1
 72
1
  1
LONG Screws
  7
textstyle12
 50
0.0
 73
2
 44
1.0
  0
MTEXT
  5
101
100
AcDbEntity
  8
2_Shelf
 62
256
370
-1
 48
1.0
  6
BYLAYER
100
AcDbMText
 10
41.3808143078368289
 20
11.3673012252735433
 30
0.0
 40
3.0
 41
0.0
 71
1
 72
1
  1
LONG Screws
  7
textstyle9
 50
0.0
 73
2
 44
1.0
  0
MTEXT
  5
102
100
AcDbEntity
  8
0
 62
256
370
-1
 48
1.0
  6
BYLAYER
100
AcDbMText
 10
52.7147468886153234
 20
-143.2833072106299142
 30
0.0
 40
3.0
 41
0.0
 71
1
 72
1
  1
\H8;Interior Trim
  7
textstyle10
 50
0.0
 73
2
 44
1.0
  0
LINE
  5
103
100
AcDbEntity
  8
1_Paneling
 62
256
370
-1
 48
1.0
  6
BYLAYER
100
AcDbLine
 10
-1.6938610171705761
 20
0.3640002964019082
 30
0.0
 11
-1.6938610171708213
 21
80.3640002964019118
 31
0.0
  0
LINE
  5
104
100
AcDbEntity
  8
1_Paneling
 62
256
370
-1
 48
1.0
  6
BYLAYER
100
AcDbLine
 10
-1.5059064569949712
 20
-131.5328375057373478
 30
0.0
 11
-1.5059064569952163
 21
-51.5328375057373478
 31
0.0
  0
LINE
  5
105
100
AcDbEntity
  8
1_Paneling
 62
256
370
-1
 48
1.0
  6
BYLAYER
100
AcDbLine
 10
-0.9438610171705761
 20
0.3640002964019082
 30
0.0
 11
-0.9438610171708213
 21
80.3640002964019118
 31
0.0
  0
LINE
  5
106
100
AcDbEntity
  8
1_Paneling
 62
256
370
-1
 48
1.0
  6
BYLAYER
100
AcDbLine
 10
-0.7559064569949712
 20
-131.5328375057373478
 30
0.0
 11
-0.7559064569952163
 21
-51.5328375057373478
 31
0.0
  0
LINE
  5
107
100
AcDbEntity
  8
1_Paneling
 62
256
370
-1
 48
1.0
  6
BYLAYER
100
AcDbLine
 10
35.056138982829431
 20
0.3640002964019082
 30
0.0
 11
35.0561389828291752
 21
80.3640002964019118
 31
0.0
  0
LINE
  5
108
100
AcDbEntity
  8
1_Paneling
 62
256
370
-1
 48
1.0
  6
BYLAYER
100
AcDbLine
 10
35.2440935430050359
 20
-131.5328375057373478
 30
0.0
 11
35.2440935430047801
 21
-51.5328375057373478
 31
0.0
  0
LINE
  5
109
100
AcDbEntity
  8
1_Paneling
 62
256
370
-1
 48
1.0
  6
BYLAYER
100
AcDbLine
 10
35.806138982829431
 20
0.3640002964019082
 30
0.0
 11
35.8061389828291752
 21
80.3640002964019118
 31
0.0
  0
LINE
  5
10A
100
AcDbEntity
  8
1_Paneling
 62
256
370
-1
 48
1.0
  6
BYLAYER
100
AcDbLine
 10
35.9940935430050359
 20
-131.5328375057373478
 30
0.0
 11
35.9940935430047801
 21
-51.5328375057373478
 31
0.0
  0
LINE
  5
10B
100
AcDbEntity
  8
1_Paneling
 62
256
370
-1
 48
1.0
  6
BYLAYER
100
AcDbLine
 10
-0.9438610171708248
 20
80.3640002964019118
 30
0.0
 11
-1.6938610171708248
 21
80.3640002964019118
 31
0.0
  0
LINE
  5
10C
100
AcDbEntity
  8
1_Paneling
 62
256
370
-1
 48
1.0
  6
BYLAYER
100
AcDbLine
 10
-0.7559064569952199
 20
-51.5328375057373478
 30
0.0
 11
-1.5059064569952199
 21
-51.5328375057373478
 31
0.0
  0
LINE
  5
10D
100
AcDbEntity
  8
1_Paneling
 62
256
370
-1
 48
1.0
  6
BYLAYER
100
AcDbLine
 10
35.8061389828291752
 20
80.3640002964019118
 30
0.0
 11
35.0561389828291752
 21
80.3640002964019118
 31
0.0
  0
LINE
  5
10E
100
AcDbEntity
  8
1_Paneling
 62
256
370
-1
 48
1.0
  6
BYLAYER
100
AcDbLine
 10
35.9940935430047801
 20
-51.5328375057373478
 30
0.0
 11
35.2440935430047801
 21
-51.5328375057373478
 31
0.0
  0
LINE
  5
10F
100
AcDbEntity
  8
1_Paneling
 62
256
370
-1
 48
1.0
  6
BYLAYER
100
AcDbLine
 10
-1.6938610171705726
 20
0.3640002964019082
 30
0.0
 11
-0.9438610171705726
 21
0.3640002964019082
 31
0.0
  0
LINE
  5
110
100
AcDbEntity
  8
1_Paneling
 62
256
370
-1
 48
1.0
  6
BYLAYER
100
AcDbLine
 10
-1.5059064569949676
 20
-131.5328375057373478
 30
0.0
 11
-0.7559064569949676
 21
-131.5328375057373478
 31
0.0
  0
LINE
  5
111
100
AcDbEntity
  8
1_Paneling
 62
256
370
-1
 48
1.0
  6
BYLAYER
100
AcDbLine
 10
35.056138982829431
 20
0.3640002964019082
 30
0.0
 11
35.806138982829431
 21
0.3640002964019082
 31
0.0
  0
LINE
  5
112
100
AcDbEntity
  8
1_Paneling
 62
256
370
-1
 48
1.0
  6
BYLAYER
100
AcDbLine
 10
35.2440935430050359
 20
-131.5328375057373478
 30
0.0
 11
35.9940935430050359
 21
-131.5328375057373478
 31
0.0
  0
LINE
  5
113
100
AcDbEntity
  8
1_Paneling
 62
256
370
-1
 48
1.0
  6
BYLAYER
100
AcDbLine
 10
35.8061389828291752
 20
80.3640002964019118
 30
0.0
 11
35.8061389828291752
 21
81.1140002964019118
 31
0.0
  0
LINE
  5
114
100
AcDbEntity
  8
1_Paneling
 62
256
370
-1
 48
1.0
  6
BYLAYER
100
AcDbLine
 10
35.9940935430047801
 20
-51.5328375057373478
 30
0.0
 11
35.9940935430047801
 21
-50.7828375057373478
 31
0.0
  0
LINE
  5
115
100
AcDbEntity
  8
1_Paneling
 62
256
370
-1
 48
1.0
  6
BYLAYER
100
AcDbLine
 10
35.8061389828291752
 20
81.1140002964019118
 30
0.0
 11
-1.6938610171708106
 21
81.1140002964020255
 31
0.0
  0
LINE
  5
116
100
AcDbEntity
  8
1_Paneling
 62
256
370
-1
 48
1.0
  6
BYLAYER
100
AcDbLine
 10
35.9940935430047801
 20
-50.7828375057373478
 30
0.0
 11
-1.5059064569952056
 21
-50.7828375057372341
 31
0.0
  0
LINE
  5
117
100
AcDbEntity
  8
1_Paneling
 62
256
370
-1
 48
1.0
  6
BYLAYER
100
AcDbLine
 10
-1.6938610171708106
 20
81.1140002964020255
 30
0.0
 11
-1.6938610171708213
 21
80.3640002964019118
 31
0.0
  0
LINE
  5
118
100
AcDbEntity
  8
1_Paneling
 62
256
370
-1
 48
1.0
  6
BYLAYER
100
AcDbLine
 10
-1.5059064569952056
 20
-50.7828375057372341
 30
0.0
 11
-1.5059064569952163
 21
-51.5328375057373478
 31
0.0
  0
LINE
  5
119
100
AcDbEntity
  8
1_Paneling
 62
256
370
-1
 48
1.0
  6
BYLAYER
100
AcDbLine
 10
-1.6938610171708213
 20
80.3640002964019118
 30
0.0
 11
35.8061389828291752
 21
80.3640002964019118
 31
0.0
  0
LINE
  5
11A
100
AcDbEntity
  8
1_Paneling
 62
256
370
-1
 48
1.0
  6
BYLAYER
100
AcDbLine
 10
-1.5059064569952163
 20
-51.5328375057373478
 30
0.0
 11
35.9940935430047801
 21
-51.5328375057373478
 31
0.0
  0
LINE
  5
11B
100
AcDbEntity
  8
1_Paneling
 62
256
370
-1
 48
1.0
  6
BYLAYER
100
AcDbLine
 10
2.3061389828291894
 20
76.3640002964020255
 30
0.0
 11
31.8061389828291894
 21
76.3640002964020255
 31
0.0
  0
LINE
  5
11C
100
AcDbEntity
  8
1_Paneling
 62
256
370
-1
 48
1.0
  6
BYLAYER
100
AcDbLine
 10
2.4940935430047944
 20
-55.5328375057372341
 30
0.0
 11
31.9940935430047944
 21
-55.5328375057372341
 31
0.0
  0
LINE
  5
11D
100
AcDbEntity
  8
1_Paneling
 62
256
370
-1
 48
1.0
  6
BYLAYER
100
AcDbLine
 10
31.8061389828291894
 20
76.3640002964020255
 30
0.0
 11
31.8061389828291894
 21
50.3640002964020255
 31
0.0
  0
LINE
  5
11E
100
AcDbEntity
  8
1_Paneling
 62
256
370
-1
 48
1.0
  6
BYLAYER
100
AcDbLine
 10
31.9940935430047944
 20
-55.5328375057372341
 30
0.0
 11
31.9940935430047944
 21
-81.5328375057372341
 31
0.0
  0
LINE
  5
11F
100
AcDbEntity
  8
1_Paneling
 62
256
370
-1
 48
1.0
  6
BYLAYER
100
AcDbLine
 10
31.8061389828291894
 20
50.3640002964020255
 30
0.0
 11
2.3061389828291894
 21
50.3640002964020255
 31
0.0
  0
LINE
  5
120
100
AcDbEntity
  8
1_Paneling
 62
256
370
-1
 48
1.0
  6
BYLAYER
100
AcDbLine
 10
31.9940935430047944
 20
-81.5328375057372341
 30
0.0
 11
2.4940935430047944
 21
-81.5328375057372341
 31
0.0
  0
LINE
  5
121
100
AcDbEntity
  8
1_Paneling
 62
256
370
-1
 48
1.0
  6
BYLAYER
100
AcDbLine
 10
2.3061389828291894
 20
50.3640002964020255
 30
0.0
 11
2.3061389828291894
 21
76.3640002964020255
 31
0.0
  0
LINE
  5
122
100
AcDbEntity
  8
1_Paneling
 62
256
370
-1
 48
1.0
  6
BYLAYER
100
AcDbLine
 10
2.4940935430047944
 20
-81.5328375057372341
 30
0.0
 11
2.4940935430047944
 21
-55.5328375057372341
 31
0.0
  0
LINE
  5
123
100
AcDbEntity
  8
1_Paneling
 62
256
370
-1
 48
1.0
  6
BYLAYER
100
AcDbLine
 10
2.3061389828291894
 20
42.3640002964020255
 30
0.0
 11
31.8061389828291894
 21
42.3640002964020255
 31
0.0
  0
LINE
  5
124
100
AcDbEntity
  8
1_Paneling
 62
256
370
-1
 48
1.0
  6
BYLAYER
100
AcDbLine
 10
2.4940935430047944
 20
-89.5328375057372341
 30
0.0
 11
31.9940935430047944
 21
-89.5328375057372341
 31
0.0
  0
LINE
  5
125
100
AcDbEntity
  8
1_Paneling
 62
256
370
-1
 48
1.0
  6
BYLAYER
100
AcDbLine
 10
31.8061389828291894
 20
42.3640002964020255
 30
0.0
 11
31.8061389828291894
 21
6.3640002964020219
 31
0.0
  0
LINE
  5
126
100
AcDbEntity
  8
1_Paneling
 62
256
370
-1
 48
1.0
  6
BYLAYER
100
AcDbLine
 10
31.9940935430047944
 20
-89.5328375057372341
 30
0.0
 11
31.9940935430047944
 21
-125.5328375057372341
 31
0.0
  0
LINE
  5
127
100
AcDbEntity
  8
1_Paneling
 62
256
370
-1
 48
1.0
  6
BYLAYER
100
AcDbLine
 10
31.8061389828291894
 20
6.3640002964020219
 30
0.0
 11
2.3061389828291894
 21
6.3640002964020219
 31
0.0
  0
LINE
  5
128
100
AcDbEntity
  8
1_Paneling
 62
256
370
-1
 48
1.0
  6
BYLAYER
100
AcDbLine
 10
31.9940935430047944
 20
-125.5328375057372341
 30
0.0
 11
2.4940935430047944
 21
-125.5328375057372341
 31
0.0
  0
LINE
  5
129
100
AcDbEntity
  8
1_Paneling
 62
256
370
-1
 48
1.0
  6
BYLAYER
100
AcDbLine
 10
2.3061389828291894
 20
6.3640002964020219
 30
0.0
 11
2.3061389828291894
 21
42.3640002964020255
 31
0.0
  0
LINE
  5
12A
100
AcDbEntity
  8
1_Paneling
 62
256
370
-1
 48
1.0
  6
BYLAYER
100
AcDbLine
 10
2.4940935430047944
 20
-125.5328375057372341
 30
0.0
 11
2.4940935430047944
 21
-89.5328375057372341
 31
0.0
  0
HATCH
  5
12B
100
AcDbEntity
  8
4_Front_Trim_B
 62
256
370
-1
 48
1.0
  6
BYLAYER
100
AcDbHatch
 10
0.0
 20
0.0
 30
0.0
210
0.0
220
0.0
230
1.0
  2
SOLID
 70
1
 71
0
 91
1
 92
1
 93
4
 72
1
 10
82.2926228222540885
 20
4.3664606639637924
 11
82.292622822254117
 21
0.366460663963764
 72
1
 10
82.292622822254117
 20
0.366460663963764
 11
35.4311389800000001
 21
0.3664606639636219
 72
1
 10
35.4311389800000001
 20
0.3664606639636219
 11
35.4311389800000001
 21
4.3664606639636219
 72
1
 10
35.4311389800000001
 20
4.3664606639636219
 11
82.2926228222540885
 21
4.3664606639637924
 97
0
 75
0
 76
1
 98
0
1001
ACAD
1010
0.0
1020
0.0
1030
0
  0
HATCH
  5
12C
100
AcDbEntity
  8
4_Front_Trim_B
 62
252
420
10526884
370
-1
 48
1.0
  6
BYLAYER
100
AcDbHatch
 10
0.0
 20
0.0
 30
0.0
210
0.0
220
0.0
230
1.0
  2
SOLID
 70
1
 71
0
 91
1
 92
1
 93
4
 72
1
 10
82.5930613762729564
 20
-128.1159729100000106
 11
82.5930613762729848
 21
-131.6159729100000106
 72
1
 10
82.5930613762729848
 20
-131.6159729100000106
 11
35.7315775340188679
 21
-131.6159729100000106
 72
1
 10
35.7315775340188679
 20
-131.6159729100000106
 11
35.7315775340188679
 21
-128.1159729100000106
 72
1
 10
35.7315775340188679
 20
-128.1159729100000106
 11
82.5930613762729564
 21
-128.1159729100000106
 97
0
 75
0
 76
1
 98
0
1001
ACAD
1010
0.0
1020
0.0
1030
0
  0
LEADER
  5
12D
100
AcDbEntity
  8
4_Front_Trim_B
 62
256
370
-1
 48
1.0
  6
BYLAYER
100
AcDbLeader
  3
Standard
 71
1
 72
0
 73
3
 74
0
 75
0
 40
1.0
 41
10.0
 76
3
 10
69.4690462873225272
 20
4.5458097796265093
 10
76.2797370998051463
 20
12.7186387546056352
 10
86.3874339249097432
 20
12.7186387546056334
1001
ACAD
1000
DSTYLE
1002
{
1070
40
1040
1.0
1002
}
  0
LEADER
  5
12E
100
AcDbEntity
  8
3_window_liner
 62
256
370
-1
 48
1.0
  6
BYLAYER
100
AcDbLeader
  3
Standard
 71
1
 72
0
 73
3
 74
0
 75
0
 40
1.0
 41
10.0
 76
3
 10
41.5
 20
-57.0
 10
50.0
 20
-67.0
 10
88.8563459238969529
 20
-67.0
1001
ACAD
1000
DSTYLE
1002
{
1070
40
1040
1.0
1002
}
  0
LEADER
  5
12F
100
AcDbEntity
  8
3_window_liner
 62
256
370
-1
 48
1.0
  6
BYLAYER
100
AcDbLeader
  3
Standard
 71
1
 72
0
 73
3
 74
0
 75
0
 40
1.0
 41
10.0
 76
2
 10
64.3261989253828688
 20
-61.7299050962729865
 10
69.4281729619484764
 20
-67.0
1001
ACAD
1000
DSTYLE
1002
{
1070
40
1040
1.0
1002
}
  0
ENDSEC
  0
SECTION
  2
OBJECTS
  0
DICTIONARY
  5
C
100
AcDbDictionary
280
0
281
1
  3
ACAD_GROUP
350
D
  3
ACAD_LAYOUT
350
1A
  3
ACAD_MLINESTYLE
350
17
  3
ACAD_PLOTSETTINGS
350
19
  3
ACAD_PLOTSTYLENAME
350
E
  3
AcDbVariableDictionary
350
130
  3
QCAD_OBJECTS
350
131
  0
DICTIONARY
  5
D
100
AcDbDictionary
280
0
281
1
  0
ACDBDICTIONARYWDFLT
  5
E
100
AcDbDictionary
281
1
  3
Normal
350
F
100
AcDbDictionaryWithDefault
340
F
  0
ACDBPLACEHOLDER
  5
F
  0
DICTIONARY
  5
17
100
AcDbDictionary
280
0
281
1
  3
Standard
350
18
  0
MLINESTYLE
  5
18
100
AcDbMlineStyle
  2
STANDARD
 70
0
  3

 62
256
 51
90.0
 52
90.0
 71
2
 49
0.5
 62
256
  6
BYLAYER
 49
-0.5
 62
256
  6
BYLAYER
  0
DICTIONARY
  5
19
100
AcDbDictionary
280
0
281
1
  0
DICTIONARY
  5
1A
100
AcDbDictionary
281
1
  3
Layout1
350
1E
  3
Layout2
350
26
  3
Model
350
22
  0
LAYOUT
  5
1E
100
AcDbPlotSettings
  1

  2
none_device
  4

  6

 40
0.0
 41
0.0
 42
0.0
 43
0.0
 44
0.0
 45
0.0
 46
0.0
 47
0.0
 48
0.0
 49
0.0
140
0.0
141
0.0
142
1.0
143
1.0
 70
688
 72
0
 73
0
 74
5
  7

 75
16
147
1.0
148
0.0
149
0.0
100
AcDbLayout
  1
Layout1
 70
1
 71
1
 10
0.0
 20
0.0
 11
420.0
 21
297.0
 12
0.0
 22
0.0
 32
0.0
 14
100000000000000000000.0
 24
100000000000000000000.0
 34
100000000000000000000.0
 15
-100000000000000000000.0
 25
-100000000000000000000.0
 35
-100000000000000000000.0
146
0.0
 13
0.0
 23
0.0
 33
0.0
 16
1.0
 26
0.0
 36
0.0
 17
0.0
 27
1.0
 37
0.0
 76
0
330
1B
  0
LAYOUT
  5
22
100
AcDbPlotSettings
  1

  2
none_device
  4

  6

 40
0.0
 41
0.0
 42
0.0
 43
0.0
 44
0.0
 45
0.0
 46
0.0
 47
0.0
 48
0.0
 49
0.0
140
0.0
141
0.0
142
1.0
143
1.0
 70
1712
 72
0
 73
0
 74
0
  7

 75
0
147
1.0
148
0.0
149
0.0
100
AcDbLayout
  1
Model
 70
1
 71
0
 10
0.0
 20
0.0
 11
12.0
 21
9.0
 12
0.0
 22
0.0
 32
0.0
 14
0.0
 24
0.0
 34
0.0
 15
0.0
 25
0.0
 35
0.0
146
0.0
 13
0.0
 23
0.0
 33
0.0
 16
1.0
 26
0.0
 36
0.0
 17
0.0
 27
1.0
 37
0.0
 76
0
330
1F
  0
LAYOUT
  5
26
100
AcDbPlotSettings
  1

  2
none_device
  4

  6

 40
0.0
 41
0.0
 42
0.0
 43
0.0
 44
0.0
 45
0.0
 46
0.0
 47
0.0
 48
0.0
 49
0.0
140
0.0
141
0.0
142
1.0
143
1.0
 70
688
 72
0
 73
0
 74
5
  7

 75
16
147
1.0
148
0.0
149
0.0
100
AcDbLayout
  1
Layout2
 70
1
 71
2
 10
0.0
 20
0.0
 11
12.0
 21
9.0
 12
0.0
 22
0.0
 32
0.0
 14
0.0
 24
0.0
 34
0.0
 15
0.0
 25
0.0
 35
0.0
146
0.0
 13
0.0
 23
0.0
 33
0.0
 16
1.0
 26
0.0
 36
0.0
 17
0.0
 27
1.0
 37
0.0
 76
0
330
23
  0
DICTIONARY
  5
130
100
AcDbDictionary
281
1
  3
DIMASSOC
350
133
  3
HIDETEXT
350
132
  0
DICTIONARYVAR
  5
132
100
DictionaryVariables
280
0
  1
2
  0
DICTIONARYVAR
  5
133
100
DictionaryVariables
280
0
  1
1
  0
DICTIONARY
  5
131
100
AcDbDictionary
281
1
  3
ColorSettings/BackgroundColor
350
134
  3
ColorSettings/ColorMode
350
135
  3
Grid/DisplayGrid00
350
136
  3
Grid/DisplayGrid01
350
137
  3
Grid/DisplayGrid02
350
138
  3
Grid/DisplayGrid03
350
139
  3
Grid/GridSpacingX00
350
13A
  3
Grid/GridSpacingX01
350
13B
  3
Grid/GridSpacingX02
350
13C
  3
Grid/GridSpacingX03
350
13D
  3
Grid/GridSpacingY00
350
13E
  3
Grid/GridSpacingY01
350
13F
  3
Grid/GridSpacingY02
350
140
  3
Grid/GridSpacingY03
350
141
  3
Grid/IsometricGrid00
350
142
  3
Grid/IsometricGrid01
350
143
  3
Grid/IsometricGrid02
350
144
  3
Grid/IsometricGrid03
350
145
  3
Grid/IsometricProjection00
350
146
  3
Grid/IsometricProjection01
350
147
  3
Grid/IsometricProjection02
350
148
  3
Grid/IsometricProjection03
350
149
  3
Grid/MetaGridSpacingX00
350
14A
  3
Grid/MetaGridSpacingX01
350
14B
  3
Grid/MetaGridSpacingX02
350
14C
  3
Grid/MetaGridSpacingX03
350
14D
  3
Grid/MetaGridSpacingY00
350
14E
  3
Grid/MetaGridSpacingY01
350
14F
  3
Grid/MetaGridSpacingY02
350
150
  3
Grid/MetaGridSpacingY03
350
151
  3
MultiPageSettings/Columns
350
152
  3
MultiPageSettings/GlueMarginsBottom
350
153
  3
MultiPageSettings/GlueMarginsLeft
350
154
  3
MultiPageSettings/GlueMarginsRight
350
155
  3
MultiPageSettings/GlueMarginsTop
350
156
  3
MultiPageSettings/PrintCropMarks
350
157
  3
MultiPageSettings/Rows
350
158
  3
PageSettings/OffsetX
350
159
  3
PageSettings/OffsetY
350
15A
  3
PageSettings/PageOrientation
350
15B
  3
PageSettings/PaperHeight
350
15C
  3
PageSettings/PaperSizeAccepted
350
15D
  3
PageSettings/PaperSizeName
350
15E
  3
PageSettings/PaperWidth
350
15F
  3
PageSettings/PointSize
350
160
  3
PageSettings/Scale
350
161
  3
PageSettings/ShowPaperBorders
350
162
  3
PageTagSettings/EnablePageTags
350
163
  3
PageTagSettings/TagAlignment
350
164
  3
PageTagSettings/TagFont
350
165
  3
PageTagSettings/TagPosition
350
166
  3
QCADVersion
350
167
  3
UnitSettings/Measurement
350
168
  3
UnitSettings/PaperUnit
350
169
  3
ViewportCenter
350
16A
  3
ViewportHeight
350
16B
  3
ViewportWidth
350
16C
  0
XRECORD
  5
134
330
131
100
AcDbXrecord
280
1
1000
White
  0
XRECORD
  5
135
330
131
100
AcDbXrecord
280
1
1000
FullColor
  0
XRECORD
  5
136
330
131
100
AcDbXrecord
280
1
290
1
  0
XRECORD
  5
137
330
131
100
AcDbXrecord
280
1
290
1
  0
XRECORD
  5
138
330
131
100
AcDbXrecord
280
1
290
1
  0
XRECORD
  5
139
330
131
100
AcDbXrecord
280
1
290
1
  0
XRECORD
  5
13A
330
131
100
AcDbXrecord
280
1
1000
auto
  0
XRECORD
  5
13B
330
131
100
AcDbXrecord
280
1
1000
auto
  0
XRECORD
  5
13C
330
131
100
AcDbXrecord
280
1
1000
auto
  0
XRECORD
  5
13D
330
131
100
AcDbXrecord
280
1
1000
auto
  0
XRECORD
  5
13E
330
131
100
AcDbXrecord
280
1
1000
auto
  0
XRECORD
  5
13F
330
131
100
AcDbXrecord
280
1
1000
auto
  0
XRECORD
  5
140
330
131
100
AcDbXrecord
280
1
1000
auto
  0
XRECORD
  5
141
330
131
100
AcDbXrecord
280
1
1000
auto
  0
XRECORD
  5
142
330
131
100
AcDbXrecord
280
1
290
0
  0
XRECORD
  5
143
330
131
100
AcDbXrecord
280
1
290
0
  0
XRECORD
  5
144
330
131
100
AcDbXrecord
280
1
290
0
  0
XRECORD
  5
145
330
131
100
AcDbXrecord
280
1
290
0
  0
XRECORD
  5
146
330
131
100
AcDbXrecord
280
1
 90
65537
  0
XRECORD
  5
147
330
131
100
AcDbXrecord
280
1
 90
65537
  0
XRECORD
  5
148
330
131
100
AcDbXrecord
280
1
 90
65537
  0
XRECORD
  5
149
330
131
100
AcDbXrecord
280
1
 90
65537
  0
XRECORD
  5
14A
330
131
100
AcDbXrecord
280
1
1000
auto
  0
XRECORD
  5
14B
330
131
100
AcDbXrecord
280
1
1000
auto
  0
XRECORD
  5
14C
330
131
100
AcDbXrecord
280
1
1000
auto
  0
XRECORD
  5
14D
330
131
100
AcDbXrecord
280
1
1000
auto
  0
XRECORD
  5
14E
330
131
100
AcDbXrecord
280
1
1000
auto
  0
XRECORD
  5
14F
330
131
100
AcDbXrecord
280
1
1000
auto
  0
XRECORD
  5
150
330
131
100
AcDbXrecord
280
1
1000
auto
  0
XRECORD
  5
151
330
131
100
AcDbXrecord
280
1
1000
auto
  0
XRECORD
  5
152
330
131
100
AcDbXrecord
280
1
 90
1
  0
XRECORD
  5
153
330
131
100
AcDbXrecord
280
1
 40
0.0
  0
XRECORD
  5
154
330
131
100
AcDbXrecord
280
1
 40
0.0
  0
XRECORD
  5
155
330
131
100
AcDbXrecord
280
1
 40
0.0
  0
XRECORD
  5
156
330
131
100
AcDbXrecord
280
1
 40
0.0
  0
XRECORD
  5
157
330
131
100
AcDbXrecord
280
1
290
0
  0
XRECORD
  5
158
330
131
100
AcDbXrecord
280
1
 90
1
  0
XRECORD
  5
159
330
131
100
AcDbXrecord
280
1
 40
-64.5086510620663205
  0
XRECORD
  5
15A
330
131
100
AcDbXrecord
280
1
 40
-186.5505717592153587
  0
XRECORD
  5
15B
330
131
100
AcDbXrecord
280
1
1000
Portrait
  0
XRECORD
  5
15C
330
131
100
AcDbXrecord
280
1
1000
9
  0
XRECORD
  5
15D
330
131
100
AcDbXrecord
280
1
290
1
  0
XRECORD
  5
15E
330
131
100
AcDbXrecord
280
1
1000
Custom
  0
XRECORD
  5
15F
330
131
100
AcDbXrecord
280
1
1000
6.5
  0
XRECORD
  5
160
330
131
100
AcDbXrecord
280
1
1000
0.5
  0
XRECORD
  5
161
330
131
100
AcDbXrecord
280
1
1000
0.023
  0
XRECORD
  5
162
330
131
100
AcDbXrecord
280
1
290
1
  0
XRECORD
  5
163
330
131
100
AcDbXrecord
280
1
290
0
  0
XRECORD
  5
164
330
131
100
AcDbXrecord
280
1
1000
Inside
  0
XRECORD
  5
165
330
131
100
AcDbXrecord
280
1
1000
Arial,10,-1,5,50,0,0,0,0,0
  0
XRECORD
  5
166
330
131
100
AcDbXrecord
280
1
1000
TopLeft
  0
XRECORD
  5
167
330
131
100
AcDbXrecord
280
1
1000
3.32.6
  0
XRECORD
  5
168
330
131
100
AcDbXrecord
280
1
 90
1
  0
XRECORD
  5
169
330
131
100
AcDbXrecord
280
1
 90
1
  0
XRECORD
  5
16B
330
131
100
AcDbXrecord
280
1
 40
287.4292026730637986
  0
XRECORD
  5
16C
330
131
100
AcDbXrecord
280
1
 40
359.4003817892984785
  0
IMAGEDEF
  5
A2
100
AcDbRasterImageDef
 90
0
  1
/home/means/Documents/TinyHomes/icons/Screw.png
 10
3.0
 20
7.0
 11
1.0
 21
1.0
280
1
281
0
  0
IMAGEDEF
  5
A4
100
AcDbRasterImageDef
 90
0
  1
/home/means/Documents/TinyHomes/icons/Screw.png
 10
3.0
 20
7.0
 11
1.0
 21
1.0
280
1
281
0
  0
IMAGEDEF
  5
A6
100
AcDbRasterImageDef
 90
0
  1
/home/means/Documents/TinyHomes/icons/Screw.png
 10
3.0
 20
7.0
 11
1.0
 21
1.0
280
1
281
0
  0
IMAGEDEF
  5
A8
100
AcDbRasterImageDef
 90
0
  1
/home/means/Documents/TinyHomes/icons/Screw.png
 10
3.0
 20
7.0
 11
1.0
 21
1.0
280
1
281
0
  0
IMAGEDEF
  5
AA
100
AcDbRasterImageDef
 90
0
  1
/home/means/Documents/TinyHomes/icons/Screw.png
 10
3.0
 20
7.0
 11
1.0
 21
1.0
280
1
281
0
  0
IMAGEDEF
  5
AC
100
AcDbRasterImageDef
 90
0
  1
/home/means/Documents/TinyHomes/icons/Screw.png
 10
3.0
 20
7.0
 11
1.0
 21
1.0
280
1
281
0
  0
IMAGEDEF
  5
AE
100
AcDbRasterImageDef
 90
0
  1
/home/means/Documents/TinyHomes/icons/Screw.png
 10
3.0
 20
7.0
 11
1.0
 21
1.0
280
1
281
0
  0
IMAGEDEF
  5
B0
100
AcDbRasterImageDef
 90
0
  1
/home/means/Documents/TinyHomes/icons/Screw.png
 10
3.0
 20
7.0
 11
1.0
 21
1.0
280
1
281
0
  0
IMAGEDEF
  5
B2
100
AcDbRasterImageDef
 90
0
  1
/home/means/Documents/TinyHomes/icons/Screw.png
 10
3.0
 20
7.0
 11
1.0
 21
1.0
280
1
281
0
  0
ENDSEC
  0
EOF
