999
dxflib 3.26.4.0
  0
SECTION
  2
HEADER
  9
$ACADVER
  1
AC1015
  9
$HANDSEED
  5
FFFF
  9
$DIMADEC
 70
0
  9
$DIMASZ
 40
2.5
  9
$DIMATFIT
 70
0
  9
$DIMAUNIT
 70
0
  9
$DIMAZIN
 70
2
  9
$DIMBLK
  1
0
  9
$DIMBLK1
  1
0
  9
$DIMBLK2
  1
0
  9
$DIMDEC
 70
4
  9
$DIMDLI
 40
5.0
  9
$DIMDSEP
 70
46
  9
$DIMEXE
 40
1.25
  9
$DIMEXO
 40
0.625
  9
$DIMGAP
 40
0.625
  9
$DIMLFAC
 40
0.0
  9
$DIMLUNIT
 70
2
  9
$DIMSCALE
 40
1.0
  9
$DIMTAD
 70
1
  9
$DIMTIH
 70
0
  9
$DIMTSZ
 40
0.0
  9
$DIMTXT
 40
2.5
  9
$DIMZIN
 70
8
  9
$DWGCODEPAGE
  3
ANSI_1252
  9
$INSUNITS
 70
1
  9
$LTSCALE
 40
1.0
  9
$MAXACTVP
 70
64
  9
$MEASUREMENT
 70
1
  9
$MIRRTEXT
 70
0
  9
$PDMODE
 70
0
  9
$PDSIZE
 40
0.0
  0
ENDSEC
  0
SECTION
  2
TABLES
  0
TABLE
  2
VPORT
  5
8
100
AcDbSymbolTable
 70
1
  0
VPORT
  5
30
100
AcDbSymbolTableRecord
100
AcDbViewportTableRecord
  2
*Active
 70
0
 10
0.0
 20
0.0
 11
1.0
 21
1.0
 12
286.3055555555554861
 22
148.5
 13
0.0
 23
0.0
 14
10.0
 24
10.0
 15
10.0
 25
10.0
 16
0.0
 26
0.0
 36
1.0
 17
0.0
 27
0.0
 37
0.0
 40
297.0
 41
1.92798353909465
 42
50.0
 43
0.0
 44
0.0
 50
0.0
 51
0.0
 71
0
 72
100
 73
1
 74
3
 75
1
 76
1
 77
0
 78
0
281
0
 65
1
110
0.0
120
0.0
130
0.0
111
1.0
121
0.0
131
0.0
112
0.0
122
1.0
132
0.0
 79
0
146
0.0
  0
ENDTAB
  0
TABLE
  2
LTYPE
  5
5
100
AcDbSymbolTable
 70
41
  0
LTYPE
  5
16
100
AcDbSymbolTableRecord
100
AcDbLinetypeTableRecord
  2
Continuous
 70
0
  3
Solid line
 72
65
 73
0
 40
0.0
  0
LTYPE
  5
31
100
AcDbSymbolTableRecord
100
AcDbLinetypeTableRecord
  2
BORDER2
 70
0
  3
Border (.5x) __.__.__.__.__.__.__.__.__.__.__.
 72
65
 73
6
 40
0.8749999999999999
 49
0.25
 74
0
 49
-0.125
 74
0
 49
0.25
 74
0
 49
-0.075
 74
0
 49
0.1
 74
0
 49
-0.075
 74
0
  0
LTYPE
  5
32
100
AcDbSymbolTableRecord
100
AcDbLinetypeTableRecord
  2
DOT2
 70
0
  3
Dot (.5x) ........................................
 72
65
 73
2
 40
0.125
 49
0.1
 74
0
 49
-0.025
 74
0
  0
LTYPE
  5
33
100
AcDbSymbolTableRecord
100
AcDbLinetypeTableRecord
  2
DASHED2
 70
0
  3
Dashed (.5x) _ _ _ _ _ _ _ _ _ _ _ _ _ _ _ _ _ 
 72
65
 73
2
 40
0.375
 49
0.25
 74
0
 49
-0.125
 74
0
  0
LTYPE
  5
34
100
AcDbSymbolTableRecord
100
AcDbLinetypeTableRecord
  2
HIDDEN
 70
0
  3
Hidden __ __ __ __ __ __ __ __ __ __ __ __ __ __
 72
65
 73
2
 40
0.375
 49
0.25
 74
0
 49
-0.125
 74
0
  0
LTYPE
  5
35
100
AcDbSymbolTableRecord
100
AcDbLinetypeTableRecord
  2
DOTX2
 70
0
  3
Dot (2x) .  .  .  .  .  .  .  .  .  .  .  .  .  .
 72
65
 73
2
 40
0.5
 49
0.1
 74
0
 49
-0.4
 74
0
  0
LTYPE
  5
36
100
AcDbSymbolTableRecord
100
AcDbLinetypeTableRecord
  2
BORDERX2
 70
0
  3
Border (2x) ____  ____  .  ____  ____  .  ___
 72
65
 73
6
 40
3.5000000000000004
 49
1.0
 74
0
 49
-0.5
 74
0
 49
1.0
 74
0
 49
-0.45
 74
0
 49
0.1
 74
0
 49
-0.45
 74
0
  0
LTYPE
  5
37
100
AcDbSymbolTableRecord
100
AcDbLinetypeTableRecord
  2
ACAD_ISO02W100
 70
0
  3
ISO dash __ __ __ __ __ __ __ __ __ __ __ __ __
 72
65
 73
2
 40
15.0
 49
12.0
 74
0
 49
-3.0
 74
0
  0
LTYPE
  5
38
100
AcDbSymbolTableRecord
100
AcDbLinetypeTableRecord
  2
DIVIDE
 70
0
  3
Divide ____ . . ____ . . ____ . . ____ . . ____
 72
65
 73
6
 40
1.25
 49
0.5
 74
0
 49
-0.2
 74
0
 49
0.1
 74
0
 49
-0.15
 74
0
 49
0.1
 74
0
 49
-0.2
 74
0
  0
LTYPE
  5
39
100
AcDbSymbolTableRecord
100
AcDbLinetypeTableRecord
  2
ACAD_ISO09W100
 70
0
  3
ISO long-dash double-short-dash ____ __ __ ____
 72
65
 73
6
 40
45.0
 49
24.0
 74
0
 49
-3.0
 74
0
 49
6.0
 74
0
 49
-3.0
 74
0
 49
6.0
 74
0
 49
-3.0
 74
0
  0
LTYPE
  5
3A
100
AcDbSymbolTableRecord
100
AcDbLinetypeTableRecord
  2
ACAD_ISO13W100
 70
0
  3
ISO double-dash double-dot __ __ . . __ __ . . _
 72
65
 73
8
 40
36.0000000000000071
 49
12.0
 74
0
 49
-3.0
 74
0
 49
12.0
 74
0
 49
-2.9500000000000002
 74
0
 49
0.1
 74
0
 49
-2.9000000000000004
 74
0
 49
0.1
 74
0
 49
-2.9500000000000002
 74
0
  0
LTYPE
  5
3B
100
AcDbSymbolTableRecord
100
AcDbLinetypeTableRecord
  2
ACAD_ISO10W100
 70
0
  3
ISO dash dot __ . __ . __ . __ . __ . __ . __ . 
 72
65
 73
4
 40
18.0
 49
12.0
 74
0
 49
-2.9500000000000002
 74
0
 49
0.1
 74
0
 49
-2.9500000000000002
 74
0
  0
LTYPE
  5
3C
100
AcDbSymbolTableRecord
100
AcDbLinetypeTableRecord
  2
HIDDENX2
 70
0
  3
Hidden (2x) ____ ____ ____ ____ ____ ____ ____ 
 72
65
 73
2
 40
0.75
 49
0.5
 74
0
 49
-0.25
 74
0
  0
LTYPE
  5
14
100
AcDbSymbolTableRecord
100
AcDbLinetypeTableRecord
  2
BYBLOCK
 70
0
  3

 72
65
 73
0
 40
0.0
  0
LTYPE
  5
3D
100
AcDbSymbolTableRecord
100
AcDbLinetypeTableRecord
  2
DASHDOT2
 70
0
  3
Dash dot (.5x) _._._._._._._._._._._._._._._.
 72
65
 73
4
 40
0.5
 49
0.25
 74
0
 49
-0.075
 74
0
 49
0.1
 74
0
 49
-0.075
 74
0
  0
LTYPE
  5
3E
100
AcDbSymbolTableRecord
100
AcDbLinetypeTableRecord
  2
HIDDEN2
 70
0
  3
Hidden (.5x) _ _ _ _ _ _ _ _ _ _ _ _ _ _ _ _ _ 
 72
65
 73
2
 40
0.1875
 49
0.125
 74
0
 49
-0.0625
 74
0
  0
LTYPE
  5
15
100
AcDbSymbolTableRecord
100
AcDbLinetypeTableRecord
  2
BYLAYER
 70
0
  3

 72
65
 73
0
 40
0.0
  0
LTYPE
  5
3F
100
AcDbSymbolTableRecord
100
AcDbLinetypeTableRecord
  2
ACAD_ISO06W100
 70
0
  3
ISO long-dash triple-dot ____ ... ____ ... ____
 72
65
 73
8
 40
36.0000000000000071
 49
24.0
 74
0
 49
-2.9500000000000002
 74
0
 49
0.1
 74
0
 49
-2.9000000000000004
 74
0
 49
0.1
 74
0
 49
-2.9000000000000004
 74
0
 49
0.1
 74
0
 49
-2.9500000000000002
 74
0
  0
LTYPE
  5
40
100
AcDbSymbolTableRecord
100
AcDbLinetypeTableRecord
  2
ACAD_ISO03W100
 70
0
  3
ISO dash space __    __    __    __    __    __
 72
65
 73
2
 40
30.0
 49
12.0
 74
0
 49
-18.0
 74
0
  0
LTYPE
  5
41
100
AcDbSymbolTableRecord
100
AcDbLinetypeTableRecord
  2
CENTER
 70
0
  3
Center ____ _ ____ _ ____ _ ____ _ ____ _ ____
 72
65
 73
4
 40
2.0
 49
1.25
 74
0
 49
-0.25
 74
0
 49
0.25
 74
0
 49
-0.25
 74
0
  0
LTYPE
  5
42
100
AcDbSymbolTableRecord
100
AcDbLinetypeTableRecord
  2
CENTERX2
 70
0
  3
Center (2x) ________  __  ________  __  _____
 72
65
 73
4
 40
4.0
 49
2.5
 74
0
 49
-0.5
 74
0
 49
0.5
 74
0
 49
-0.5
 74
0
  0
LTYPE
  5
43
100
AcDbSymbolTableRecord
100
AcDbLinetypeTableRecord
  2
PHANTOM
 70
0
  3
Phantom ______  __  __  ______  __  __  ______ 
 72
65
 73
6
 40
2.5
 49
1.25
 74
0
 49
-0.25
 74
0
 49
0.25
 74
0
 49
-0.25
 74
0
 49
0.25
 74
0
 49
-0.25
 74
0
  0
LTYPE
  5
44
100
AcDbSymbolTableRecord
100
AcDbLinetypeTableRecord
  2
DASHED
 70
0
  3
Dashed __ __ __ __ __ __ __ __ __ __ __ __ __ _
 72
65
 73
2
 40
0.75
 49
0.5
 74
0
 49
-0.25
 74
0
  0
LTYPE
  5
45
100
AcDbSymbolTableRecord
100
AcDbLinetypeTableRecord
  2
DIVIDEX2
 70
0
  3
Divide (2x) ________  .  .  ________  .  .  _
 72
65
 73
6
 40
2.5000000000000004
 49
1.0
 74
0
 49
-0.45
 74
0
 49
0.1
 74
0
 49
-0.4
 74
0
 49
0.1
 74
0
 49
-0.45
 74
0
  0
LTYPE
  5
46
100
AcDbSymbolTableRecord
100
AcDbLinetypeTableRecord
  2
ACAD_ISO11W100
 70
0
  3
ISO double-dash dot __ __ . __ __ . __ __ . __ _
 72
65
 73
6
 40
33.0
 49
12.0
 74
0
 49
-3.0
 74
0
 49
12.0
 74
0
 49
-2.9500000000000002
 74
0
 49
0.1
 74
0
 49
-2.9500000000000002
 74
0
  0
LTYPE
  5
47
100
AcDbSymbolTableRecord
100
AcDbLinetypeTableRecord
  2
ACAD_ISO15W100
 70
0
  3
ISO double-dash triple-dot __ __ . . . __ __ . .
 72
65
 73
10
 40
39.0000000000000071
 49
12.0
 74
0
 49
-3.0
 74
0
 49
12.0
 74
0
 49
-2.9500000000000002
 74
0
 49
0.1
 74
0
 49
-2.9000000000000004
 74
0
 49
0.1
 74
0
 49
-2.9000000000000004
 74
0
 49
0.1
 74
0
 49
-2.9500000000000002
 74
0
  0
LTYPE
  5
48
100
AcDbSymbolTableRecord
100
AcDbLinetypeTableRecord
  2
DASHDOT
 70
0
  3
Dash dot __ . __ . __ . __ . __ . __ . __ . __
 72
65
 73
4
 40
1.0
 49
0.5
 74
0
 49
-0.2
 74
0
 49
0.1
 74
0
 49
-0.2
 74
0
  0
LTYPE
  5
49
100
AcDbSymbolTableRecord
100
AcDbLinetypeTableRecord
  2
DIVIDE2
 70
0
  3
Divide (.5x) __..__..__..__..__..__..__..__.._
 72
65
 73
6
 40
0.625
 49
0.25
 74
0
 49
-0.075
 74
0
 49
0.1
 74
0
 49
-0.025
 74
0
 49
0.1
 74
0
 49
-0.075
 74
0
  0
LTYPE
  5
4A
100
AcDbSymbolTableRecord
100
AcDbLinetypeTableRecord
  2
PHANTOM2
 70
0
  3
Phantom (.5x) ___ _ _ ___ _ _ ___ _ _ ___ _ _
 72
65
 73
6
 40
1.25
 49
0.625
 74
0
 49
-0.125
 74
0
 49
0.125
 74
0
 49
-0.125
 74
0
 49
0.125
 74
0
 49
-0.125
 74
0
  0
LTYPE
  5
4B
100
AcDbSymbolTableRecord
100
AcDbLinetypeTableRecord
  2
DOT
 70
0
  3
Dot . . . . . . . . . . . . . . . . . . . . . . . .
 72
65
 73
2
 40
0.25
 49
0.1
 74
0
 49
-0.15
 74
0
  0
LTYPE
  5
4C
100
AcDbSymbolTableRecord
100
AcDbLinetypeTableRecord
  2
ACAD_ISO08W100
 70
0
  3
ISO long-dash short-dash ____ __ ____ __ ____ _
 72
65
 73
4
 40
36.0
 49
24.0
 74
0
 49
-3.0
 74
0
 49
6.0
 74
0
 49
-3.0
 74
0
  0
LTYPE
  5
4D
100
AcDbSymbolTableRecord
100
AcDbLinetypeTableRecord
  2
ACAD_ISO12W100
 70
0
  3
ISO dash double-dot __ . . __ . . __ . . __ . . 
 72
65
 73
6
 40
21.0
 49
12.0
 74
0
 49
-2.9500000000000002
 74
0
 49
0.1
 74
0
 49
-2.9000000000000004
 74
0
 49
0.1
 74
0
 49
-2.9500000000000002
 74
0
  0
LTYPE
  5
4E
100
AcDbSymbolTableRecord
100
AcDbLinetypeTableRecord
  2
PHANTOMX2
 70
0
  3
Phantom (2x) ____________    ____    ____   _
 72
65
 73
6
 40
5.0
 49
2.5
 74
0
 49
-0.5
 74
0
 49
0.5
 74
0
 49
-0.5
 74
0
 49
0.5
 74
0
 49
-0.5
 74
0
  0
LTYPE
  5
4F
100
AcDbSymbolTableRecord
100
AcDbLinetypeTableRecord
  2
DASHEDX2
 70
0
  3
Dashed (2x) ____  ____  ____  ____  ____  ___
 72
65
 73
2
 40
1.5
 49
1.0
 74
0
 49
-0.5
 74
0
  0
LTYPE
  5
50
100
AcDbSymbolTableRecord
100
AcDbLinetypeTableRecord
  2
BORDER
 70
0
  3
Border __ __ . __ __ . __ __ . __ __ . __ __ .
 72
65
 73
6
 40
1.75
 49
0.5
 74
0
 49
-0.25
 74
0
 49
0.5
 74
0
 49
-0.2
 74
0
 49
0.1
 74
0
 49
-0.2
 74
0
  0
LTYPE
  5
51
100
AcDbSymbolTableRecord
100
AcDbLinetypeTableRecord
  2
ACAD_ISO14W100
 70
0
  3
ISO dash triple-dot __ . . . __ . . . __ . . . _
 72
65
 73
8
 40
24.0000000000000036
 49
12.0
 74
0
 49
-2.9500000000000002
 74
0
 49
0.1
 74
0
 49
-2.9000000000000004
 74
0
 49
0.1
 74
0
 49
-2.9000000000000004
 74
0
 49
0.1
 74
0
 49
-2.9500000000000002
 74
0
  0
LTYPE
  5
52
100
AcDbSymbolTableRecord
100
AcDbLinetypeTableRecord
  2
ACAD_ISO07W100
 70
0
  3
ISO dot . . . . . . . . . . . . . . . . . . . . 
 72
65
 73
2
 40
3.0
 49
0.1
 74
0
 49
-2.8999999999999999
 74
0
  0
LTYPE
  5
53
100
AcDbSymbolTableRecord
100
AcDbLinetypeTableRecord
  2
ACAD_ISO04W100
 70
0
  3
ISO long-dash dot ____ . ____ . ____ . ____ . _
 72
65
 73
4
 40
30.0
 49
24.0
 74
0
 49
-2.9500000000000002
 74
0
 49
0.1
 74
0
 49
-2.9500000000000002
 74
0
  0
LTYPE
  5
54
100
AcDbSymbolTableRecord
100
AcDbLinetypeTableRecord
  2
ACAD_ISO05W100
 70
0
  3
ISO long-dash double-dot ____ .. ____ .. ____ . 
 72
65
 73
6
 40
33.0000000000000071
 49
24.0
 74
0
 49
-2.9500000000000002
 74
0
 49
0.1
 74
0
 49
-2.9000000000000004
 74
0
 49
0.1
 74
0
 49
-2.9500000000000002
 74
0
  0
LTYPE
  5
55
100
AcDbSymbolTableRecord
100
AcDbLinetypeTableRecord
  2
CENTER2
 70
0
  3
Center (.5x) ___ _ ___ _ ___ _ ___ _ ___ _ ___
 72
65
 73
4
 40
1.125
 49
0.75
 74
0
 49
-0.125
 74
0
 49
0.125
 74
0
 49
-0.125
 74
0
  0
LTYPE
  5
56
100
AcDbSymbolTableRecord
100
AcDbLinetypeTableRecord
  2
DASHDOTX2
 70
0
  3
Dash dot (2x) ____  .  ____  .  ____  .  ___
 72
65
 73
4
 40
2.0
 49
1.0
 74
0
 49
-0.45
 74
0
 49
0.1
 74
0
 49
-0.45
 74
0
  0
ENDTAB
  0
TABLE
  2
LAYER
  5
2
100
AcDbSymbolTable
 70
5
  0
LAYER
  5
10
100
AcDbSymbolTableRecord
100
AcDbLayerTableRecord
  2
0
 70
0
 62
7
420
16777215
  6
Continuous
370
25
390
F
  0
LAYER
  5
57
100
AcDbSymbolTableRecord
100
AcDbLayerTableRecord
  2
2_Shelf
 70
0
 62
7
420
0
  6
Continuous
370
25
390
F
  0
LAYER
  5
58
100
AcDbSymbolTableRecord
100
AcDbLayerTableRecord
  2
1_Paneling
 70
0
 62
7
420
0
  6
Continuous
370
25
390
F
  0
LAYER
  5
59
100
AcDbSymbolTableRecord
100
AcDbLayerTableRecord
  2
4_window_trim
 70
1
 62
7
420
0
  6
Continuous
370
25
390
F
  0
LAYER
  5
5A
100
AcDbSymbolTableRecord
100
AcDbLayerTableRecord
  2
3_window_liner
 70
1
 62
7
420
0
  6
Continuous
370
25
390
F
  0
ENDTAB
  0
TABLE
  2
STYLE
  5
3
100
AcDbSymbolTable
 70
22
  0
STYLE
  5
5B
100
AcDbSymbolTableRecord
100
AcDbTextStyleTableRecord
  2
Standard
 70
0
 40
0.0
 41
1.0
 50
0.0
 71
0
 42
2.5
  3

  4

1001
ACAD
1000
txt
1071
0
  0
STYLE
  5
5C
100
AcDbSymbolTableRecord
100
AcDbTextStyleTableRecord
  2
textstyle0
 70
0
 40
0.0
 41
1.0
 50
0.0
 71
0
 42
3.0
  3

  4

1001
ACAD
1000
Liberation Sans
1071
0
  0
STYLE
  5
5D
100
AcDbSymbolTableRecord
100
AcDbTextStyleTableRecord
  2
textstyle1
 70
0
 40
0.0
 41
1.0
 50
0.0
 71
0
 42
3.0
  3

  4

1001
ACAD
1000
textstyle8
1071
0
  0
STYLE
  5
5E
100
AcDbSymbolTableRecord
100
AcDbTextStyleTableRecord
  2
textstyle2
 70
0
 40
0.0
 41
1.0
 50
0.0
 71
0
 42
3.0
  3

  4

1001
ACAD
1000
Liberation Sans
1071
0
  0
STYLE
  5
5F
100
AcDbSymbolTableRecord
100
AcDbTextStyleTableRecord
  2
textstyle3
 70
0
 40
0.0
 41
1.0
 50
0.0
 71
0
 42
3.0
  3

  4

1001
ACAD
1000
Liberation Sans
1071
0
  0
STYLE
  5
60
100
AcDbSymbolTableRecord
100
AcDbTextStyleTableRecord
  2
textstyle4
 70
0
 40
0.0
 41
1.0
 50
0.0
 71
0
 42
3.0
  3

  4

1001
ACAD
1000
Nimbus Sans [UKWN]
1071
0
  0
STYLE
  5
61
100
AcDbSymbolTableRecord
100
AcDbTextStyleTableRecord
  2
textstyle5
 70
0
 40
0.0
 41
1.0
 50
0.0
 71
0
 42
3.0
  3

  4

1001
ACAD
1000
Liberation Sans
1071
0
  0
STYLE
  5
62
100
AcDbSymbolTableRecord
100
AcDbTextStyleTableRecord
  2
textstyle6
 70
0
 40
0.0
 41
1.0
 50
0.0
 71
0
 42
3.0
  3

  4

1001
ACAD
1000
Liberation Sans
1071
0
  0
STYLE
  5
63
100
AcDbSymbolTableRecord
100
AcDbTextStyleTableRecord
  2
textstyle7
 70
0
 40
0.0
 41
1.0
 50
0.0
 71
0
 42
3.0
  3

  4

1001
ACAD
1000
textstyle4
1071
0
  0
STYLE
  5
64
100
AcDbSymbolTableRecord
100
AcDbTextStyleTableRecord
  2
textstyle8
 70
0
 40
0.0
 41
1.0
 50
0.0
 71
0
 42
3.0
  3

  4

1001
ACAD
1000
textstyle5
1071
0
  0
STYLE
  5
65
100
AcDbSymbolTableRecord
100
AcDbTextStyleTableRecord
  2
textstyle9
 70
0
 40
0.0
 41
1.0
 50
0.0
 71
0
 42
3.0
  3

  4

1001
ACAD
1000
textstyle6
1071
0
  0
STYLE
  5
66
100
AcDbSymbolTableRecord
100
AcDbTextStyleTableRecord
  2
textstyle10
 70
0
 40
0.0
 41
1.0
 50
0.0
 71
0
 42
3.0
  3

  4

1001
ACAD
1000
textstyle2
1071
0
  0
STYLE
  5
67
100
AcDbSymbolTableRecord
100
AcDbTextStyleTableRecord
  2
textstyle11
 70
0
 40
0.0
 41
1.0
 50
0.0
 71
0
 42
3.0
  3

  4

1001
ACAD
1000
textstyle3
1071
0
  0
STYLE
  5
68
100
AcDbSymbolTableRecord
100
AcDbTextStyleTableRecord
  2
textstyle12
 70
0
 40
0.0
 41
1.0
 50
0.0
 71
0
 42
3.0
  3

  4

1001
ACAD
1000
Liberation Sans
1071
0
  0
STYLE
  5
69
100
AcDbSymbolTableRecord
100
AcDbTextStyleTableRecord
  2
textstyle13
 70
0
 40
0.0
 41
1.0
 50
0.0
 71
0
 42
3.0
  3

  4

1001
ACAD
1000
Liberation Sans
1071
0
  0
STYLE
  5
6A
100
AcDbSymbolTableRecord
100
AcDbTextStyleTableRecord
  2
textstyle14
 70
0
 40
0.0
 41
1.0
 50
0.0
 71
0
 42
3.0
  3

  4

1001
ACAD
1000
Liberation Sans
1071
0
  0
STYLE
  5
6B
100
AcDbSymbolTableRecord
100
AcDbTextStyleTableRecord
  2
textstyle15
 70
0
 40
0.0
 41
1.0
 50
0.0
 71
0
 42
3.0
  3

  4

1001
ACAD
1000
Liberation Sans
1071
0
  0
STYLE
  5
6C
100
AcDbSymbolTableRecord
100
AcDbTextStyleTableRecord
  2
textstyle16
 70
0
 40
0.0
 41
1.0
 50
0.0
 71
0
 42
3.0
  3

  4

1001
ACAD
1000
Liberation Sans
1071
0
  0
STYLE
  5
6D
100
AcDbSymbolTableRecord
100
AcDbTextStyleTableRecord
  2
textstyle17
 70
0
 40
0.0
 41
1.0
 50
0.0
 71
0
 42
3.0
  3

  4

1001
ACAD
1000
Liberation Sans
1071
0
  0
STYLE
  5
6E
100
AcDbSymbolTableRecord
100
AcDbTextStyleTableRecord
  2
textstyle18
 70
0
 40
0.0
 41
1.0
 50
0.0
 71
0
 42
3.0
  3

  4

1001
ACAD
1000
Liberation Sans
1071
0
  0
STYLE
  5
6F
100
AcDbSymbolTableRecord
100
AcDbTextStyleTableRecord
  2
textstyle19
 70
0
 40
0.0
 41
1.0
 50
0.0
 71
0
 42
3.0
  3

  4

1001
ACAD
1000
Liberation Sans
1071
0
  0
STYLE
  5
70
100
AcDbSymbolTableRecord
100
AcDbTextStyleTableRecord
  2
textstyle20
 70
0
 40
0.0
 41
1.0
 50
0.0
 71
0
 42
3.0
  3

  4

1001
ACAD
1000
Liberation Sans
1071
0
  0
ENDTAB
  0
TABLE
  2
VIEW
  5
6
100
AcDbSymbolTable
 70
0
  0
ENDTAB
  0
TABLE
  2
UCS
  5
7
100
AcDbSymbolTable
 70
0
  0
ENDTAB
  0
TABLE
  2
APPID
  5
9
100
AcDbSymbolTable
 70
1
  0
APPID
  5
12
100
AcDbSymbolTableRecord
100
AcDbRegAppTableRecord
  2
ACAD
 70
0
  0
APPID
  5
71
100
AcDbSymbolTableRecord
100
AcDbRegAppTableRecord
  2
QCAD
 70
0
  0
ENDTAB
  0
TABLE
  2
DIMSTYLE
  5
A
100
AcDbSymbolTable
 70
1
100
AcDbDimStyleTable
 71
0
  0
DIMSTYLE
105
27
100
AcDbSymbolTableRecord
100
AcDbDimStyleTableRecord
  2
Standard
 41
2.5
 42
0.625
 43
3.75
 44
1.25
 70
0
 73
0
 74
0
 77
1
 78
8
140
2.5
141
2.5
143
0.03937007874016
147
0.625
171
3
172
1
271
2
272
2
274
3
278
44
283
0
284
8
340
5B
  0
ENDTAB
  0
TABLE
  2
BLOCK_RECORD
  5
1
100
AcDbSymbolTable
 70
1
  0
BLOCK_RECORD
  5
1F
100
AcDbSymbolTableRecord
100
AcDbBlockTableRecord
  2
*Model_Space
340
22
  0
BLOCK_RECORD
  5
1B
100
AcDbSymbolTableRecord
100
AcDbBlockTableRecord
  2
*Paper_Space
340
1E
  0
BLOCK_RECORD
  5
23
100
AcDbSymbolTableRecord
100
AcDbBlockTableRecord
  2
*Paper_Space0
340
26
  0
BLOCK_RECORD
  5
72
100
AcDbSymbolTableRecord
100
AcDbBlockTableRecord
  2
noNail
340
0
  0
ENDTAB
  0
ENDSEC
  0
SECTION
  2
BLOCKS
  0
BLOCK
  5
20
100
AcDbEntity
  8
0
100
AcDbBlockBegin
  2
*Model_Space
 70
0
 10
0.0
 20
0.0
 30
0.0
  3
*Model_Space
  1

  0
ENDBLK
  5
21
100
AcDbEntity
  8
0
100
AcDbBlockEnd
  0
BLOCK
  5
1C
100
AcDbEntity
 67
1
  8
0
100
AcDbBlockBegin
  2
*Paper_Space
 70
0
 10
0.0
 20
0.0
 30
0.0
  3
*Paper_Space
  1

  0
ENDBLK
  5
1D
100
AcDbEntity
 67
1
  8
0
100
AcDbBlockEnd
  0
BLOCK
  5
24
100
AcDbEntity
  8
0
100
AcDbBlockBegin
  2
*Paper_Space0
 70
0
 10
0.0
 20
0.0
 30
0.0
  3
*Paper_Space0
  1

  0
ENDBLK
  5
25
100
AcDbEntity
  8
0
100
AcDbBlockEnd
  0
BLOCK
  5
73
100
AcDbEntity
  8
0
100
AcDbBlockBegin
  2
noNail
 70
0
 10
0.0
 20
0.0
 30
0.0
  3
noNail
  1

  0
ENDBLK
  5
74
100
AcDbEntity
  8
0
100
AcDbBlockEnd
  0
ENDSEC
  0
SECTION
  2
ENTITIES
  0
LINE
  5
75
100
AcDbEntity
  8
1_Paneling
 62
256
370
-1
 48
1.0
  6
BYLAYER
100
AcDbLine
 10
30.0
 20
-20.5
 30
0.0
 11
30.0000000000000036
 21
65.0
 31
0.0
  0
LINE
  5
76
100
AcDbEntity
  8
1_Paneling
 62
256
370
-1
 48
1.0
  6
BYLAYER
100
AcDbLine
 10
30.0
 20
-20.5
 30
0.0
 11
116.5
 21
-20.5000000000000071
 31
0.0
  0
LINE
  5
77
100
AcDbEntity
  8
1_Paneling
 62
256
370
-1
 48
1.0
  6
BYLAYER
100
AcDbLine
 10
116.5
 20
-20.5000000000000071
 30
0.0
 11
116.5
 21
65.0
 31
0.0
  0
LINE
  5
78
100
AcDbEntity
  8
1_Paneling
 62
256
370
-1
 48
1.0
  6
BYLAYER
100
AcDbLine
 10
77.25
 20
60.0
 30
0.0
 11
100.25
 21
60.0
 31
0.0
  0
LINE
  5
79
100
AcDbEntity
  8
1_Paneling
 62
256
370
-1
 48
1.0
  6
BYLAYER
100
AcDbLine
 10
100.25
 20
25.0
 30
0.0
 11
77.25
 21
25.0
 31
0.0
  0
LINE
  5
7A
100
AcDbEntity
  8
1_Paneling
 62
256
370
-1
 48
1.0
  6
BYLAYER
100
AcDbLine
 10
77.25
 20
46.5
 30
0.0
 11
77.25
 21
46.5
 31
0.0
  0
LINE
  5
7B
100
AcDbEntity
  8
1_Paneling
 62
256
370
-1
 48
1.0
  6
BYLAYER
100
AcDbLine
 10
77.25
 20
41.3628263206142108
 30
0.0
 11
100.2642636944590038
 21
41.3628263206142108
 31
0.0
  0
LINE
  5
7C
100
AcDbEntity
  8
1_Paneling
 62
256
370
-1
 48
1.0
  6
BYLAYER
100
AcDbLine
 10
77.2609937133564131
 20
41.7721350195424677
 30
0.0
 11
100.2642636944590038
 21
41.7721350195424677
 31
0.0
  0
LINE
  5
7D
100
AcDbEntity
  8
1_Paneling
 62
256
370
-1
 48
1.0
  6
BYLAYER
100
AcDbLine
 10
77.25
 20
46.5
 30
0.0
 11
77.25
 21
46.5
 31
0.0
  0
LINE
  5
7E
100
AcDbEntity
  8
1_Paneling
 62
256
370
-1
 48
1.0
  6
BYLAYER
100
AcDbLine
 10
77.25
 20
41.7721350195424748
 30
0.0
 11
77.25
 21
60.0
 31
0.0
  0
LINE
  5
7F
100
AcDbEntity
  8
1_Paneling
 62
256
370
-1
 48
1.0
  6
BYLAYER
100
AcDbLine
 10
100.25
 20
60.0
 30
0.0
 11
100.25
 21
41.7721350195424748
 31
0.0
  0
LINE
  5
80
100
AcDbEntity
  8
1_Paneling
 62
256
370
-1
 48
1.0
  6
BYLAYER
100
AcDbLine
 10
100.25
 20
46.9093086989282568
 30
0.0
 11
100.25
 21
46.9093086989282568
 31
0.0
  0
LINE
  5
81
100
AcDbEntity
  8
1_Paneling
 62
256
370
-1
 48
1.0
  6
BYLAYER
100
AcDbLine
 10
100.25
 20
46.5
 30
0.0
 11
100.25
 21
46.9093086989282568
 31
0.0
  0
LINE
  5
82
100
AcDbEntity
  8
1_Paneling
 62
256
370
-1
 48
1.0
  6
BYLAYER
100
AcDbLine
 10
100.25
 20
46.9093086989282568
 30
0.0
 11
100.25
 21
46.9093086989282568
 31
0.0
  0
LINE
  5
83
100
AcDbEntity
  8
1_Paneling
 62
256
370
-1
 48
1.0
  6
BYLAYER
100
AcDbLine
 10
77.25
 20
41.3628263206142108
 30
0.0
 11
77.25
 21
25.0
 31
0.0
  0
LINE
  5
84
100
AcDbEntity
  8
1_Paneling
 62
256
370
-1
 48
1.0
  6
BYLAYER
100
AcDbLine
 10
100.2642636944590038
 20
41.3628263206142037
 30
0.0
 11
100.25
 21
25.0
 31
0.0
  0
HATCH
  5
85
100
AcDbEntity
  8
1_Paneling
 62
256
370
-1
 48
1.0
  6
BYLAYER
100
AcDbHatch
 10
0.0
 20
0.0
 30
0.0
210
0.0
220
0.0
230
1.0
  2
JIS_WOOD
 70
0
 71
0
 91
1
 92
1
 93
4
 72
1
 10
77.25
 20
41.3628263206142108
 11
100.2642636944590038
 21
41.3628263206142108
 72
1
 10
100.2642636944590038
 20
41.3628263206142037
 11
100.25
 21
25.0
 72
1
 10
100.25
 20
25.0
 11
77.25
 21
25.0
 72
1
 10
77.25
 20
25.0
 11
77.25
 21
41.3628263206142108
 97
0
 75
0
 76
1
 52
0.0
 41
1.0
 77
0
 78
1
 53
45.0
 43
0.0
 44
0.0
 45
-0.0883883476483184
 46
0.0883883476483185
 79
0
 98
0
1001
ACAD
1010
0.0
1020
0.0
1030
0
  0
LINE
  5
86
100
AcDbEntity
  8
1_Paneling
 62
256
370
-1
 48
1.0
  6
BYLAYER
100
AcDbLine
 10
72.3075068257960396
 20
79.1558937637133653
 30
0.0
 11
72.3075068257960396
 21
77.5108850036768189
 31
0.0
  0
LINE
  5
87
100
AcDbEntity
  8
1_Paneling
 62
256
370
-1
 48
1.0
  6
BYLAYER
100
AcDbLine
 10
72.3075068257960396
 20
77.5108850036768189
 30
0.0
 11
74.2242391636119123
 21
77.5108850036768189
 31
0.0
  0
LINE
  5
88
100
AcDbEntity
  8
1_Paneling
 62
256
370
-1
 48
1.0
  6
BYLAYER
100
AcDbLine
 10
74.2242391636119123
 20
79.1452717042445073
 30
0.0
 11
74.2242391636119123
 21
77.5108850036768047
 31
0.0
  0
LINE
  5
89
100
AcDbEntity
  8
1_Paneling
 62
256
370
-1
 48
1.0
  6
BYLAYER
100
AcDbLine
 10
76.75
 20
60.5
 30
0.0
 11
100.75
 21
60.5
 31
0.0
  0
LINE
  5
8A
100
AcDbEntity
  8
1_Paneling
 62
256
370
-1
 48
1.0
  6
BYLAYER
100
AcDbLine
 10
100.75
 20
24.5
 30
0.0
 11
76.75
 21
24.5
 31
0.0
  0
LINE
  5
8B
100
AcDbEntity
  8
1_Paneling
 62
256
370
-1
 48
1.0
  6
BYLAYER
100
AcDbLine
 10
30.0000000000000036
 20
65.0
 30
0.0
 11
72.3075068257960538
 21
79.1558937637133653
 31
0.0
  0
LINE
  5
8C
100
AcDbEntity
  8
1_Paneling
 62
256
370
-1
 48
1.0
  6
BYLAYER
100
AcDbLine
 10
116.5
 20
65.0
 30
0.0
 11
74.2242391636119123
 21
79.1452717042445073
 31
0.0
  0
LINE
  5
8D
100
AcDbEntity
  8
1_Paneling
 62
256
370
-1
 48
1.0
  6
BYLAYER
100
AcDbLine
 10
30.0
 20
18.0
 30
0.0
 11
116.5
 21
18.0
 31
0.0
  0
LINE
  5
8E
100
AcDbEntity
  8
1_Paneling
 62
256
370
-1
 48
1.0
  6
BYLAYER
100
AcDbLine
 10
30.0
 20
-20.0
 30
0.0
 11
116.5
 21
-20.0
 31
0.0
  0
LINE
  5
8F
100
AcDbEntity
  8
1_Paneling
 62
256
370
-1
 48
1.0
  6
BYLAYER
100
AcDbLine
 10
100.75
 20
60.5
 30
0.0
 11
100.75
 21
24.5
 31
0.0
  0
LINE
  5
90
100
AcDbEntity
  8
1_Paneling
 62
256
370
-1
 48
1.0
  6
BYLAYER
100
AcDbLine
 10
70.75
 20
24.5
 30
0.0
 11
106.75
 21
24.5
 31
0.0
  0
LINE
  5
91
100
AcDbEntity
  8
1_Paneling
 62
256
370
-1
 48
1.0
  6
BYLAYER
100
AcDbLine
 10
106.75
 20
24.5
 30
0.0
 11
106.75
 21
24.0
 31
0.0
  0
LINE
  5
92
100
AcDbEntity
  8
1_Paneling
 62
256
370
-1
 48
1.0
  6
BYLAYER
100
AcDbLine
 10
106.75
 20
24.0
 30
0.0
 11
70.75
 21
24.0
 31
0.0
  0
LINE
  5
93
100
AcDbEntity
  8
1_Paneling
 62
256
370
-1
 48
1.0
  6
BYLAYER
100
AcDbLine
 10
70.75
 20
24.0
 30
0.0
 11
70.75
 21
24.5
 31
0.0
  0
LINE
  5
94
100
AcDbEntity
  8
1_Paneling
 62
256
370
-1
 48
1.0
  6
BYLAYER
100
AcDbLine
 10
71.25
 20
24.0
 30
0.0
 11
71.25
 21
20.5
 31
0.0
  0
LINE
  5
95
100
AcDbEntity
  8
1_Paneling
 62
256
370
-1
 48
1.0
  6
BYLAYER
100
AcDbLine
 10
71.25
 20
20.5
 30
0.0
 11
106.25
 21
20.5
 31
0.0
  0
LINE
  5
96
100
AcDbEntity
  8
1_Paneling
 62
256
370
-1
 48
1.0
  6
BYLAYER
100
AcDbLine
 10
106.25
 20
20.5
 30
0.0
 11
106.25
 21
24.0
 31
0.0
  0
LINE
  5
97
100
AcDbEntity
  8
1_Paneling
 62
256
370
-1
 48
1.0
  6
BYLAYER
100
AcDbLine
 10
106.25
 20
24.0
 30
0.0
 11
71.25
 21
24.0
 31
0.0
  0
LINE
  5
98
100
AcDbEntity
  8
1_Paneling
 62
256
370
-1
 48
1.0
  6
BYLAYER
100
AcDbLine
 10
116.4999999999999858
 20
64.9999999999999858
 30
0.0
 11
30.0000000000000036
 21
65.0
 31
0.0
  0
LINE
  5
99
100
AcDbEntity
  8
2_Shelf
 62
256
370
-1
 48
1.0
  6
BYLAYER
100
AcDbLine
 10
122.188951596961914
 20
-58.1384604415742672
 30
0.0
 11
146.188951596961914
 21
-58.1384604415742672
 31
0.0
  0
LINE
  5
9A
100
AcDbEntity
  8
2_Shelf
 62
256
370
-1
 48
1.0
  6
BYLAYER
100
AcDbLine
 10
146.188951596961914
 20
-57.6384604415742672
 30
0.0
 11
146.188951596961914
 21
-61.6384604415742672
 31
0.0
  0
LINE
  5
9B
100
AcDbEntity
  8
2_Shelf
 62
256
370
-1
 48
1.0
  6
BYLAYER
100
AcDbLine
 10
146.188951596961914
 20
-61.6384604415742672
 30
0.0
 11
152.188951596961914
 21
-61.6384604415742672
 31
0.0
  0
LINE
  5
9C
100
AcDbEntity
  8
2_Shelf
 62
256
370
-1
 48
1.0
  6
BYLAYER
100
AcDbLine
 10
152.188951596961914
 20
-61.6384604415742672
 30
0.0
 11
152.188951596961914
 21
-64.6384604415742672
 31
0.0
  0
LINE
  5
9D
100
AcDbEntity
  8
2_Shelf
 62
256
370
-1
 48
1.0
  6
BYLAYER
100
AcDbLine
 10
152.188951596961914
 20
-64.6384604415742672
 30
0.0
 11
149.188951596961914
 21
-67.6384604415742672
 31
0.0
  0
LINE
  5
9E
100
AcDbEntity
  8
2_Shelf
 62
256
370
-1
 48
1.0
  6
BYLAYER
100
AcDbLine
 10
149.188951596961914
 20
-67.6384604415742672
 30
0.0
 11
119.188951596961914
 21
-67.6384604415742672
 31
0.0
  0
LINE
  5
9F
100
AcDbEntity
  8
2_Shelf
 62
256
370
-1
 48
1.0
  6
BYLAYER
100
AcDbLine
 10
119.188951596961914
 20
-67.6384604415742672
 30
0.0
 11
116.188951596961914
 21
-64.6384604415742672
 31
0.0
  0
LINE
  5
A0
100
AcDbEntity
  8
2_Shelf
 62
256
370
-1
 48
1.0
  6
BYLAYER
100
AcDbLine
 10
116.188951596961914
 20
-64.6384604415742672
 30
0.0
 11
116.188951596961914
 21
-61.6384604415742672
 31
0.0
  0
LINE
  5
A1
100
AcDbEntity
  8
2_Shelf
 62
256
370
-1
 48
1.0
  6
BYLAYER
100
AcDbLine
 10
116.188951596961914
 20
-61.6384604415742672
 30
0.0
 11
122.188951596961914
 21
-61.6384604415742672
 31
0.0
  0
LINE
  5
A2
100
AcDbEntity
  8
2_Shelf
 62
256
370
-1
 48
1.0
  6
BYLAYER
100
AcDbLine
 10
122.188951596961914
 20
-61.6384604415742672
 30
0.0
 11
122.188951596961914
 21
-57.6384604415742672
 31
0.0
  0
LINE
  5
A3
100
AcDbEntity
  8
2_Shelf
 62
256
370
-1
 48
1.0
  6
BYLAYER
100
AcDbLine
 10
122.188951596961914
 20
-61.6384604415742672
 30
0.0
 11
108.188951596961914
 21
-61.6384604415742672
 31
0.0
  0
LINE
  5
A4
100
AcDbEntity
  8
2_Shelf
 62
256
370
-1
 48
1.0
  6
BYLAYER
100
AcDbLine
 10
160.188951596961914
 20
-61.6384604415742672
 30
0.0
 11
146.188951596961914
 21
-61.6384604415742672
 31
0.0
  0
LINE
  5
A5
100
AcDbEntity
  8
2_Shelf
 62
256
370
-1
 48
1.0
  6
BYLAYER
100
AcDbLine
 10
122.188951596961914
 20
-61.1384604415742672
 30
0.0
 11
108.188951596961914
 21
-61.1384604415742672
 31
0.0
  0
LINE
  5
A6
100
AcDbEntity
  8
2_Shelf
 62
256
370
-1
 48
1.0
  6
BYLAYER
100
AcDbLine
 10
160.188951596961914
 20
-61.1384604415742672
 30
0.0
 11
146.188951596961914
 21
-61.1384604415742672
 31
0.0
  0
HATCH
  5
A7
100
AcDbEntity
  8
4_window_trim
 62
256
370
-1
 48
1.0
  6
BYLAYER
100
AcDbHatch
 10
0.0
 20
0.0
 30
0.0
210
0.0
220
0.0
230
1.0
  2
SOLID
 70
1
 71
0
 91
1
 92
1
 93
4
 72
1
 10
100.75
 20
24.5
 11
102.75
 21
24.5
 72
1
 10
102.75
 20
24.5
 11
102.75
 21
60.5
 72
1
 10
102.75
 20
60.5
 11
100.75
 21
60.5
 72
1
 10
100.75
 20
60.5
 11
100.75
 21
24.5
 97
0
 75
0
 76
1
 98
0
1001
ACAD
1010
0.0
1020
0.0
1030
0
  0
LINE
  5
A8
100
AcDbEntity
  8
2_Shelf
 62
256
370
-1
 48
1.0
  6
BYLAYER
100
AcDbLine
 10
108.188951596961914
 20
-61.1384604415742672
 30
0.0
 11
108.188951596961914
 21
-61.6384604415742672
 31
0.0
  0
LINE
  5
A9
100
AcDbEntity
  8
2_Shelf
 62
256
370
-1
 48
1.0
  6
BYLAYER
100
AcDbLine
 10
146.188951596961914
 20
-61.1384604415742672
 30
0.0
 11
146.188951596961914
 21
-61.6384604415742672
 31
0.0
  0
LINE
  5
AA
100
AcDbEntity
  8
2_Shelf
 62
256
370
-1
 48
1.0
  6
BYLAYER
100
AcDbLine
 10
122.188951596961914
 20
-61.1384604415742672
 30
0.0
 11
120.688951596961914
 21
-61.1384604415742672
 31
0.0
  0
LINE
  5
AB
100
AcDbEntity
  8
2_Shelf
 62
256
370
-1
 48
1.0
  6
BYLAYER
100
AcDbLine
 10
120.688951596961914
 20
-61.1384604415742672
 30
0.0
 11
120.688951596961914
 21
-57.6384604415742672
 31
0.0
  0
HATCH
  5
AC
100
AcDbEntity
  8
4_window_trim
 62
256
370
-1
 48
1.0
  6
BYLAYER
100
AcDbHatch
 10
0.0
 20
0.0
 30
0.0
210
0.0
220
0.0
230
1.0
  2
SOLID
 70
1
 71
0
 91
1
 92
1
 93
4
 72
1
 10
74.75
 20
24.5
 11
76.75
 21
24.5
 72
1
 10
76.75
 20
24.5
 11
76.75
 21
60.5
 72
1
 10
76.75
 20
60.5
 11
74.75
 21
60.5
 72
1
 10
74.75
 20
60.5
 11
74.75
 21
24.5
 97
0
 75
0
 76
1
 98
0
1001
ACAD
1010
0.0
1020
0.0
1030
0
  0
LINE
  5
AD
100
AcDbEntity
  8
2_Shelf
 62
256
370
-1
 48
1.0
  6
BYLAYER
100
AcDbLine
 10
120.688951596961914
 20
-57.6384604415742672
 30
0.0
 11
122.188951596961914
 21
-57.6384604415742672
 31
0.0
  0
LINE
  5
AE
100
AcDbEntity
  8
2_Shelf
 62
256
370
-1
 48
1.0
  6
BYLAYER
100
AcDbLine
 10
122.188951596961914
 20
-57.6384604415742672
 30
0.0
 11
120.688951596961914
 21
-61.1384604415742672
 31
0.0
  0
LINE
  5
AF
100
AcDbEntity
  8
2_Shelf
 62
256
370
-1
 48
1.0
  6
BYLAYER
100
AcDbLine
 10
120.688951596961914
 20
-57.6384604415742672
 30
0.0
 11
122.188951596961914
 21
-61.1384604415742672
 31
0.0
  0
LINE
  5
B0
100
AcDbEntity
  8
2_Shelf
 62
256
370
-1
 48
1.0
  6
BYLAYER
100
AcDbLine
 10
160.188951596961914
 20
-61.1384604415742672
 30
0.0
 11
160.188951596961914
 21
-61.6384604415742672
 31
0.0
  0
LINE
  5
B1
100
AcDbEntity
  8
2_Shelf
 62
256
370
-1
 48
1.0
  6
BYLAYER
100
AcDbLine
 10
146.188951596961914
 20
-61.1384604415742672
 30
0.0
 11
147.688951596961914
 21
-61.1384604415742672
 31
0.0
  0
LINE
  5
B2
100
AcDbEntity
  8
2_Shelf
 62
256
370
-1
 48
1.0
  6
BYLAYER
100
AcDbLine
 10
147.688951596961914
 20
-61.1384604415742672
 30
0.0
 11
147.688951596961914
 21
-57.6384604415742672
 31
0.0
  0
LINE
  5
B3
100
AcDbEntity
  8
2_Shelf
 62
256
370
-1
 48
1.0
  6
BYLAYER
100
AcDbLine
 10
147.688951596961914
 20
-57.6384604415742672
 30
0.0
 11
146.188951596961914
 21
-57.6384604415742672
 31
0.0
  0
LINE
  5
B4
100
AcDbEntity
  8
2_Shelf
 62
256
370
-1
 48
1.0
  6
BYLAYER
100
AcDbLine
 10
146.188951596961914
 20
-57.6384604415742672
 30
0.0
 11
147.688951596961914
 21
-61.1384604415742672
 31
0.0
  0
LINE
  5
B5
100
AcDbEntity
  8
2_Shelf
 62
256
370
-1
 48
1.0
  6
BYLAYER
100
AcDbLine
 10
147.688951596961914
 20
-57.6384604415742672
 30
0.0
 11
146.188951596961914
 21
-61.1384604415742672
 31
0.0
  0
CIRCLE
  5
B6
100
AcDbEntity
  8
2_Shelf
 62
256
370
-1
 48
1.0
  6
BYLAYER
100
AcDbCircle
 10
133.188951596961914
 20
-62.6384604415742672
 30
0.0
 40
31.1073956694022229
  0
IMAGE
  5
B7
100
AcDbEntity
  8
2_Shelf
 62
256
370
-1
 48
1.0
  6
BYLAYER
100
AcDbRasterImage
 90
0
 10
123.7127803063889075
 20
-59.4725409678025514
 30
0.0
 11
0.15
 21
0.0
 31
0.0
 12
0.0
 22
0.15
 32
0.0
 13
3.0
 23
7.0
340
B8
 70
15
280
0
281
50
282
50
283
0
  0
IMAGE
  5
B9
100
AcDbEntity
  8
2_Shelf
 62
256
370
-1
 48
1.0
  6
BYLAYER
100
AcDbRasterImage
 90
0
 10
132.7127803063889075
 20
-59.4725409678024164
 30
0.0
 11
0.15
 21
0.0
 31
0.0
 12
0.0
 22
0.15
 32
0.0
 13
3.0
 23
7.0
340
BA
 70
15
280
0
281
50
282
50
283
0
  0
IMAGE
  5
BB
100
AcDbEntity
  8
2_Shelf
 62
256
370
-1
 48
1.0
  6
BYLAYER
100
AcDbRasterImage
 90
0
 10
141.7127803063889075
 20
-59.4725409678025514
 30
0.0
 11
0.15
 21
0.0
 31
0.0
 12
0.0
 22
0.15
 32
0.0
 13
3.0
 23
7.0
340
BC
 70
15
280
0
281
50
282
50
283
0
  0
IMAGE
  5
BD
100
AcDbEntity
  8
2_Shelf
 62
256
370
-1
 48
1.0
  6
BYLAYER
100
AcDbRasterImage
 90
0
 10
147.0815559275596911
 20
-62.6384604415742388
 30
0.0
 11
0.15
 21
0.0
 31
0.0
 12
0.0
 22
0.15
 32
0.0
 13
3.0
 23
7.0
340
BE
 70
15
280
0
281
50
282
50
283
0
  0
IMAGE
  5
BF
100
AcDbEntity
  8
2_Shelf
 62
256
370
-1
 48
1.0
  6
BYLAYER
100
AcDbRasterImage
 90
0
 10
118.0815559275596911
 20
-62.6384604415741961
 30
0.0
 11
0.15
 21
0.0
 31
0.0
 12
0.0
 22
0.15
 32
0.0
 13
3.0
 23
7.0
340
C0
 70
15
280
0
281
50
282
50
283
0
  0
LINE
  5
C1
100
AcDbEntity
  8
1_Paneling
 62
256
370
-1
 48
1.0
  6
BYLAYER
100
AcDbLine
 10
76.75
 20
60.5
 30
0.0
 11
76.75
 21
24.5
 31
0.0
  0
MTEXT
  5
C2
100
AcDbEntity
  8
2_Shelf
 62
256
370
-1
 48
1.0
  6
BYLAYER
100
AcDbMText
 10
133.0580616114937129
 20
-39.7853519070599617
 30
0.0
 40
3.0
 41
0.0
 71
1
 72
1
  1
\H4.00001;1
  7
textstyle17
 50
0.0
 73
2
 44
1.0
  0
MTEXT
  5
C3
100
AcDbEntity
  8
2_Shelf
 62
256
370
-1
 48
1.0
  6
BYLAYER
100
AcDbMText
 10
75.6157328820846288
 20
6.5774087835163186
 30
0.0
 40
3.0
 41
0.0
 71
1
 72
1
  1
\H4.00001;2
  7
textstyle16
 50
0.0
 73
2
 44
1.0
  0
MTEXT
  5
C4
100
AcDbEntity
  8
4_window_trim
 62
256
370
-1
 48
1.0
  6
BYLAYER
100
AcDbMText
 10
123.0161921237465776
 20
37.7624397040068303
 30
0.0
 40
3.0
 41
0.0
 71
2
 72
1
  1
\H4.00001;3
  7
textstyle9
 50
0.0
 73
2
 44
1.0
  0
MTEXT
  5
C5
100
AcDbEntity
  8
4_window_trim
 62
256
370
-1
 48
1.0
  6
BYLAYER
100
AcDbMText
 10
58.1913977486820215
 20
36.9953190553307536
 30
0.0
 40
3.0
 41
0.0
 71
2
 72
1
  1
\H4.00001;3
  7
textstyle8
 50
0.0
 73
2
 44
1.0
  0
MTEXT
  5
C6
100
AcDbEntity
  8
4_window_trim
 62
256
370
-1
 48
1.0
  6
BYLAYER
100
AcDbMText
 10
106.6819853787215351
 20
77.7916485512642168
 30
0.0
 40
3.0
 41
0.0
 71
2
 72
1
  1
\H4.00001;4
  7
textstyle7
 50
0.0
 73
2
 44
1.0
  0
HATCH
  5
C7
100
AcDbEntity
  8
4_window_trim
 62
256
370
-1
 48
1.0
  6
BYLAYER
100
AcDbHatch
 10
0.0
 20
0.0
 30
0.0
210
0.0
220
0.0
230
1.0
  2
SOLID
 70
1
 71
0
 91
1
 92
1
 93
4
 72
1
 10
103.25
 20
62.5
 11
74.25
 21
62.5
 72
1
 10
74.25
 20
62.5
 11
74.25
 21
60.5
 72
1
 10
74.25
 20
60.5
 11
103.25
 21
60.5
 72
1
 10
103.25
 20
60.5
 11
103.25
 21
62.5
 97
0
 75
0
 76
1
 98
0
1001
ACAD
1010
0.0
1020
0.0
1030
0
  0
MTEXT
  5
C8
100
AcDbEntity
  8
3_window_liner
 62
256
370
-1
 48
1.0
  6
BYLAYER
100
AcDbMText
 10
62.0418786076763169
 20
56.9748571690203036
 30
0.0
 40
3.0
 41
0.0
 71
2
 72
1
  1
\H4.00001;1
  7
textstyle11
 50
0.0
 73
2
 44
1.0
  0
MTEXT
  5
C9
100
AcDbEntity
  8
3_window_liner
 62
256
370
-1
 48
1.0
  6
BYLAYER
100
AcDbMText
 10
109.4656413963526802
 20
56.8436796757528029
 30
0.0
 40
3.0
 41
0.0
 71
2
 72
1
  1
\H4.00001;2
  7
textstyle10
 50
0.0
 73
2
 44
1.0
  0
CIRCLE
  5
CA
100
AcDbEntity
  8
2_Shelf
 62
256
370
-1
 48
1.0
  6
BYLAYER
100
AcDbCircle
 10
134.0815559275596911
 20
-41.6384604415742672
 30
0.0
 40
3.5136847998605902
  0
CIRCLE
  5
CB
100
AcDbEntity
  8
2_Shelf
 62
256
370
-1
 48
1.0
  6
BYLAYER
100
AcDbCircle
 10
77.0290308670157629
 20
4.4746487933710739
 30
0.0
 40
3.5136847998605902
  0
CIRCLE
  5
CC
100
AcDbEntity
  8
4_window_trim
 62
256
370
-1
 48
1.0
  6
BYLAYER
100
AcDbCircle
 10
122.9841142378654126
 20
35.8145333118244906
 30
0.0
 40
3.5136847998605902
  0
CIRCLE
  5
CD
100
AcDbEntity
  8
4_window_trim
 62
256
370
-1
 48
1.0
  6
BYLAYER
100
AcDbCircle
 10
58.2162901676071556
 20
35.0
 30
0.0
 40
3.5136847998605902
  0
CIRCLE
  5
CE
100
AcDbEntity
  8
4_window_trim
 62
256
370
-1
 48
1.0
  6
BYLAYER
100
AcDbCircle
 10
106.5841217992150689
 20
75.9484765910841304
 30
0.0
 40
3.5136847998605902
  0
CIRCLE
  5
CF
100
AcDbEntity
  8
2_Shelf
 62
256
370
-1
 48
1.0
  6
BYLAYER
100
AcDbCircle
 10
156.0815559275596911
 20
-49.6384604415742672
 30
0.0
 40
3.5136847998605902
  0
CIRCLE
  5
D0
100
AcDbEntity
  8
2_Shelf
 62
256
370
-1
 48
1.0
  6
BYLAYER
100
AcDbCircle
 10
112.5472727113144344
 20
-49.5954025597611192
 30
0.0
 40
3.5136847998605902
  0
CIRCLE
  5
D1
100
AcDbEntity
  8
3_window_liner
 62
256
370
-1
 48
1.0
  6
BYLAYER
100
AcDbCircle
 10
62.1324829187232268
 20
54.9284763276336534
 30
0.0
 40
3.5136847998605902
  0
CIRCLE
  5
D2
100
AcDbEntity
  8
3_window_liner
 62
256
370
-1
 48
1.0
  6
BYLAYER
100
AcDbCircle
 10
109.4845610873909436
 20
54.9540841662293715
 30
0.0
 40
3.5136847998605902
  0
IMAGE
  5
D3
100
AcDbEntity
  8
2_Shelf
 62
256
370
-1
 48
1.0
  6
BYLAYER
100
AcDbRasterImage
 90
0
 10
77.4871413175620063
 20
19.4204053663183842
 30
0.0
 11
-0.15
 21
0.0
 31
0.0
 12
-0.0
 22
-0.15
 32
0.0
 13
3.0
 23
7.0
340
D4
 70
15
280
0
281
50
282
50
283
0
  0
IMAGE
  5
D5
100
AcDbEntity
  8
2_Shelf
 62
256
370
-1
 48
1.0
  6
BYLAYER
100
AcDbRasterImage
 90
0
 10
100.027341759129925
 20
19.6477226786450814
 30
0.0
 11
0.15
 21
0.0
 31
0.0
 12
-0.0
 22
-0.15
 32
0.0
 13
3.0
 23
7.0
340
D6
 70
15
280
0
281
50
282
50
283
0
  0
MTEXT
  5
D7
100
AcDbEntity
  8
2_Shelf
 62
256
370
-1
 48
1.0
  6
BYLAYER
100
AcDbMText
 10
69.5110344275359751
 20
13.4266168575194484
 30
0.0
 40
3.0
 41
0.0
 71
1
 72
1
  1
2x
  7
textstyle15
 50
0.0
 73
2
 44
1.0
  0
MTEXT
  5
D8
100
AcDbEntity
  8
2_Shelf
 62
256
370
-1
 48
1.0
  6
BYLAYER
100
AcDbMText
 10
103.5110344275359751
 20
13.4266168575194627
 30
0.0
 40
3.0
 41
0.0
 71
1
 72
1
  1
2x
  7
textstyle14
 50
0.0
 73
2
 44
1.0
  0
LINE
  5
D9
100
AcDbEntity
  8
2_Shelf
 62
256
370
-1
 48
1.0
  6
BYLAYER
100
AcDbLine
 10
75.7610344275359751
 20
22.9266168575194484
 30
0.0
 11
76.7610344275359751
 21
22.9266168575194484
 31
0.0
  0
LINE
  5
DA
100
AcDbEntity
  8
2_Shelf
 62
256
370
-1
 48
1.0
  6
BYLAYER
100
AcDbLine
 10
75.7610344275359751
 20
21.4266168575194484
 30
0.0
 11
76.7610344275359751
 21
21.4266168575194484
 31
0.0
  0
LINE
  5
DB
100
AcDbEntity
  8
2_Shelf
 62
256
370
-1
 48
1.0
  6
BYLAYER
100
AcDbLine
 10
101.2610344275359751
 20
22.9266168575194484
 30
0.0
 11
102.2610344275359751
 21
22.9266168575194484
 31
0.0
  0
LINE
  5
DC
100
AcDbEntity
  8
2_Shelf
 62
256
370
-1
 48
1.0
  6
BYLAYER
100
AcDbLine
 10
101.2610344275359751
 20
21.4266168575194484
 30
0.0
 11
102.2610344275359751
 21
21.4266168575194484
 31
0.0
  0
LINE
  5
DD
100
AcDbEntity
  8
2_Shelf
 62
256
370
-1
 48
1.0
  6
BYLAYER
100
AcDbLine
 10
76.2610344275359751
 20
23.4266168575194484
 30
0.0
 11
76.2610344275359751
 21
22.4266168575194484
 31
0.0
  0
LINE
  5
DE
100
AcDbEntity
  8
2_Shelf
 62
256
370
-1
 48
1.0
  6
BYLAYER
100
AcDbLine
 10
76.2610344275359751
 20
21.9266168575194484
 30
0.0
 11
76.2610344275359751
 21
20.9266168575194484
 31
0.0
  0
LINE
  5
DF
100
AcDbEntity
  8
2_Shelf
 62
256
370
-1
 48
1.0
  6
BYLAYER
100
AcDbLine
 10
101.7610344275359751
 20
23.4266168575194484
 30
0.0
 11
101.7610344275359751
 21
22.4266168575194484
 31
0.0
  0
LINE
  5
E0
100
AcDbEntity
  8
2_Shelf
 62
256
370
-1
 48
1.0
  6
BYLAYER
100
AcDbLine
 10
101.7610344275359751
 20
21.9266168575194484
 30
0.0
 11
101.7610344275359751
 21
20.9266168575194484
 31
0.0
  0
LEADER
  5
E1
100
AcDbEntity
  8
2_Shelf
 62
256
370
-1
 48
1.0
  6
BYLAYER
100
AcDbLeader
  3
Standard
 71
1
 72
0
 73
3
 74
0
 75
0
 40
1.0
 41
10.0
 76
2
 10
134.0815559275596911
 20
-52.6384604415742672
 10
134.0815559275596911
 20
-45.1521452414348587
1001
ACAD
1000
DSTYLE
1002
{
1070
40
1040
1.0
1002
}
  0
LEADER
  5
E2
100
AcDbEntity
  8
2_Shelf
 62
256
370
-1
 48
1.0
  6
BYLAYER
100
AcDbLeader
  3
Standard
 71
1
 72
0
 73
3
 74
0
 75
0
 40
1.0
 41
10.0
 76
2
 10
125.5866674455844532
 20
-52.5849511077833043
 10
131.9273731564994421
 20
-44.4143346212946852
1001
ACAD
1000
DSTYLE
1002
{
1070
40
1040
1.0
1002
}
  0
LEADER
  5
E3
100
AcDbEntity
  8
2_Shelf
 62
256
370
-1
 48
1.0
  6
BYLAYER
100
AcDbLeader
  3
Standard
 71
1
 72
0
 73
3
 74
0
 75
0
 40
1.0
 41
10.0
 76
2
 10
143.0815559275596911
 20
-52.6384604415742672
 10
136.3065539258839465
 20
-44.3579024395261285
1001
ACAD
1000
DSTYLE
1002
{
1070
40
1040
1.0
1002
}
  0
MTEXT
  5
E4
100
AcDbEntity
  8
2_Shelf
 62
256
370
-1
 48
1.0
  6
BYLAYER
100
AcDbMText
 10
154.6691470612985313
 20
-47.519847142182492
 30
0.0
 40
3.0
 41
0.0
 71
1
 72
1
  1
\H4.00001;3
  7
textstyle13
 50
0.0
 73
2
 44
1.0
  0
MTEXT
  5
E5
100
AcDbEntity
  8
2_Shelf
 62
256
370
-1
 48
1.0
  6
BYLAYER
100
AcDbMText
 10
111.1348638450532746
 20
-47.4767892603693511
 30
0.0
 40
3.0
 41
0.0
 71
1
 72
1
  1
\H4.00001;3
  7
textstyle12
 50
0.0
 73
2
 44
1.0
  0
LEADER
  5
E6
100
AcDbEntity
  8
3_window_liner
 62
256
370
-1
 48
1.0
  6
BYLAYER
100
AcDbLeader
  3
Standard
 71
1
 72
0
 73
3
 74
0
 75
0
 40
1.0
 41
10.0
 76
3
 10
77.0000000000000284
 20
46.3001289908235023
 10
67.4754859508804543
 20
46.2375037344462143
 10
63.9726749575700353
 20
51.9352048509820392
1001
ACAD
1000
DSTYLE
1002
{
1070
40
1040
1.0
1002
}
  0
LEADER
  5
E7
100
AcDbEntity
  8
3_window_liner
 62
256
370
-1
 48
1.0
  6
BYLAYER
100
AcDbLeader
  3
Standard
 71
1
 72
0
 73
3
 74
0
 75
0
 40
1.0
 41
10.0
 76
3
 10
100.0026861076987643
 20
48.4971980179204181
 10
93.8673544804461102
 20
54.8971980179204238
 10
65.646151827698759
 20
54.8971980179204238
1001
ACAD
1000
DSTYLE
1002
{
1070
40
1040
1.0
1002
}
  0
LEADER
  5
E8
100
AcDbEntity
  8
3_window_liner
 62
256
370
-1
 48
1.0
  6
BYLAYER
100
AcDbLeader
  3
Standard
 71
1
 72
0
 73
3
 74
0
 75
0
 40
1.0
 41
10.0
 76
3
 10
94.5652342714541163
 20
59.8246023092105688
 10
99.4102375415378958
 20
54.8895013493065207
 10
105.9709484849368977
 20
54.9315596762814167
1001
ACAD
1000
DSTYLE
1002
{
1070
40
1040
1.0
1002
}
  0
MTEXT
  5
E9
100
AcDbEntity
  8
1_Paneling
 62
256
370
-1
 48
1.0
  6
BYLAYER
100
AcDbMText
 10
34.210254703068955
 20
113.9744387032905877
 30
0.0
 40
3.0
 41
0.0
 71
1
 72
1
  1
\H4.99999;Rear Window Shelf and Frame
  7
textstyle3
 50
0.0
 73
2
 44
1.0
  0
LEADER
  5
EA
100
AcDbEntity
  8
4_window_trim
 62
256
370
-1
 48
1.0
  6
BYLAYER
100
AcDbLeader
  3
Standard
 71
1
 72
0
 73
3
 74
0
 75
0
 40
1.0
 41
10.0
 76
2
 10
75.0390692788901674
 20
35.0
 10
61.72997496746774
 20
35.0
1001
ACAD
1000
DSTYLE
1002
{
1070
40
1040
1.0
1002
}
  0
LEADER
  5
EB
100
AcDbEntity
  8
4_window_trim
 62
256
370
-1
 48
1.0
  6
BYLAYER
100
AcDbLeader
  3
Standard
 71
1
 72
0
 73
3
 74
0
 75
0
 40
1.0
 41
10.0
 76
2
 10
103.0
 20
35.8145333118244906
 10
119.4704294380048282
 20
35.8145333118244906
1001
ACAD
1000
DSTYLE
1002
{
1070
40
1040
1.0
1002
}
  0
LEADER
  5
EC
100
AcDbEntity
  8
4_window_trim
 62
256
370
-1
 48
1.0
  6
BYLAYER
100
AcDbLeader
  3
Standard
 71
1
 72
0
 73
3
 74
0
 75
0
 40
1.0
 41
10.0
 76
2
 10
93.2941263013014748
 20
62.4902533020577167
 10
104.1152463812962452
 20
73.4483495855967021
1001
ACAD
1000
DSTYLE
1002
{
1070
40
1040
1.0
1002
}
  0
LEADER
  5
ED
100
AcDbEntity
  8
2_Shelf
 62
256
370
-1
 48
1.0
  6
BYLAYER
100
AcDbLeader
  3
Standard
 71
1
 72
0
 73
3
 74
0
 75
0
 40
1.0
 41
10.0
 76
2
 10
118.2558486764803263
 20
-56.0753718873366367
 10
114.8699329120802872
 20
-52.2319211856292682
1001
ACAD
1000
DSTYLE
1002
{
1070
40
1040
1.0
1002
}
  0
LEADER
  5
EE
100
AcDbEntity
  8
2_Shelf
 62
256
370
-1
 48
1.0
  6
BYLAYER
100
AcDbLeader
  3
Standard
 71
1
 72
0
 73
3
 74
0
 75
0
 40
1.0
 41
10.0
 76
2
 10
149.5136219352997387
 20
-55.9026480928795593
 10
153.5389065624110856
 20
-52.0635202508739923
1001
ACAD
1000
DSTYLE
1002
{
1070
40
1040
1.0
1002
}
  0
MTEXT
  5
EF
100
AcDbEntity
  8
2_Shelf
 62
256
370
-1
 48
1.0
  6
BYLAYER
100
AcDbMText
 10
127.0815559275596911
 20
-62.6384604415742245
 30
0.0
 40
3.0
 41
0.0
 71
1
 72
1
  1
\H4.00001;Shelf
  7
textstyle19
 50
0.0
 73
2
 44
1.0
  0
MTEXT
  5
F0
100
AcDbEntity
  8
2_Shelf
 62
256
370
-1
 48
1.0
  6
BYLAYER
100
AcDbMText
 10
117.0815559275596911
 20
-76.6384604415742672
 30
0.0
 40
3.0
 41
0.0
 71
1
 72
1
  1
\H4.00001;Long screws
  7
textstyle18
 50
0.0
 73
2
 44
1.0
  0
LEADER
  5
F1
100
AcDbEntity
  8
2_Shelf
 62
256
370
-1
 48
1.0
  6
BYLAYER
100
AcDbLeader
  3
Standard
 71
1
 72
0
 73
3
 74
0
 75
0
 40
1.0
 41
10.0
 76
2
 10
89.2610344275359751
 20
20.4266168575194484
 10
79.167105465282674
 20
7.2629489717982736
1001
ACAD
1000
DSTYLE
1002
{
1070
40
1040
1.0
1002
}
  0
MTEXT
  5
F2
100
AcDbEntity
  8
2_Shelf
 62
256
370
-1
 48
1.0
  6
BYLAYER
100
AcDbMText
 10
83.0838691787285484
 20
5.5126210753789806
 30
0.0
 40
3.0
 41
0.0
 71
1
 72
1
  1
\H2.50001;Use long screws
  7
textstyle2
 50
0.0
 73
2
 44
1.0
  0
MTEXT
  5
F3
100
AcDbEntity
  8
3_window_liner
 62
256
370
-1
 48
1.0
  6
BYLAYER
100
AcDbMText
 10
35.4967477060357197
 20
61.6213722093776823
 30
0.0
 40
3.0
 41
0.0
 71
1
 72
1
  1
\H2.50001;3-1/2\fDejaVu Sans|b0|i0|c0|p0;" plywood liners
  7
textstyle1
 50
0.0
 73
2
 44
1.0
  0
MTEXT
  5
F4
100
AcDbEntity
  8
4_window_trim
 62
256
370
-1
 48
1.0
  6
BYLAYER
100
AcDbMText
 10
122.0465867342981028
 20
29.8015784489870939
 30
0.0
 40
3.0
 41
0.0
 71
1
 72
1
  1
\H2.50001;2" plywood trim
  7
textstyle0
 50
0.0
 73
2
 44
1.0
  0
MTEXT
  5
F5
100
AcDbEntity
  8
4_window_trim
 62
256
370
-1
 48
1.0
  6
BYLAYER
100
AcDbMText
 10
112.5713592589818006
 20
77.4605584367721178
 30
0.0
 40
3.0
 41
0.0
 71
1
 72
1
  1
\H2.50001;2" plywood trim
  7
textstyle20
 50
0.0
 73
2
 44
1.0
  0
MTEXT
  5
F6
100
AcDbEntity
  8
2_Shelf
 62
256
370
-1
 48
1.0
  6
BYLAYER
100
AcDbMText
 10
58.5493333824594231
 20
-5.890614152525707
 30
0.0
 40
3.0
 41
0.0
 71
1
 72
1
  1
\H2.50001;Mount support block\P   with 1/2" shelf overhang\P   on each end
  7
textstyle6
 50
0.0
 73
2
 44
1.0
  0
LEADER
  5
F7
100
AcDbEntity
  8
2_Shelf
 62
256
370
-1
 48
1.0
  6
BYLAYER
100
AcDbLeader
  3
Standard
 71
1
 72
0
 73
3
 74
0
 75
0
 40
1.0
 41
10.0
 76
3
 10
71.2500000000000284
 20
22.2500000000000213
 10
43.1046705504540029
 20
-7.1751786200941297
 10
56.4197085044520463
 20
-7.1751786200941297
1001
ACAD
1000
DSTYLE
1002
{
1070
40
1040
1.0
1002
}
  0
MTEXT
  5
F8
100
AcDbEntity
  8
0
 62
256
370
-1
 48
1.0
  6
BYLAYER
100
AcDbMText
 10
50.0
 20
-140.0
 30
0.0
 40
3.0
 41
0.0
 71
1
 72
1
  1
\H7.99999;Interior Trim
  7
textstyle5
 50
0.0
 73
2
 44
1.0
  0
MTEXT
  5
F9
100
AcDbEntity
  8
3_window_liner
 62
256
370
-1
 48
1.0
  6
BYLAYER
100
AcDbMText
 10
118.0894981572904641
 20
56.132128970501725
 30
0.0
 40
3.0
 41
0.0
 71
1
 72
1
  1
\H2.50001;3-1/2\fDejaVu Sans|b0|i0|c0|p0;" plywood liner
  7
textstyle4
 50
0.0
 73
2
 44
1.0
  0
ENDSEC
  0
SECTION
  2
OBJECTS
  0
DICTIONARY
  5
C
100
AcDbDictionary
280
0
281
1
  3
ACAD_GROUP
350
D
  3
ACAD_LAYOUT
350
1A
  3
ACAD_MLINESTYLE
350
17
  3
ACAD_PLOTSETTINGS
350
19
  3
ACAD_PLOTSTYLENAME
350
E
  3
AcDbVariableDictionary
350
FA
  3
QCAD_OBJECTS
350
FB
  0
DICTIONARY
  5
D
100
AcDbDictionary
280
0
281
1
  0
ACDBDICTIONARYWDFLT
  5
E
100
AcDbDictionary
281
1
  3
Normal
350
F
100
AcDbDictionaryWithDefault
340
F
  0
ACDBPLACEHOLDER
  5
F
  0
DICTIONARY
  5
17
100
AcDbDictionary
280
0
281
1
  3
Standard
350
18
  0
MLINESTYLE
  5
18
100
AcDbMlineStyle
  2
STANDARD
 70
0
  3

 62
256
 51
90.0
 52
90.0
 71
2
 49
0.5
 62
256
  6
BYLAYER
 49
-0.5
 62
256
  6
BYLAYER
  0
DICTIONARY
  5
19
100
AcDbDictionary
280
0
281
1
  0
DICTIONARY
  5
1A
100
AcDbDictionary
281
1
  3
Layout1
350
1E
  3
Layout2
350
26
  3
Model
350
22
  0
LAYOUT
  5
1E
100
AcDbPlotSettings
  1

  2
none_device
  4

  6

 40
0.0
 41
0.0
 42
0.0
 43
0.0
 44
0.0
 45
0.0
 46
0.0
 47
0.0
 48
0.0
 49
0.0
140
0.0
141
0.0
142
1.0
143
1.0
 70
688
 72
0
 73
0
 74
5
  7

 75
16
147
1.0
148
0.0
149
0.0
100
AcDbLayout
  1
Layout1
 70
1
 71
1
 10
0.0
 20
0.0
 11
420.0
 21
297.0
 12
0.0
 22
0.0
 32
0.0
 14
100000000000000000000.0
 24
100000000000000000000.0
 34
100000000000000000000.0
 15
-100000000000000000000.0
 25
-100000000000000000000.0
 35
-100000000000000000000.0
146
0.0
 13
0.0
 23
0.0
 33
0.0
 16
1.0
 26
0.0
 36
0.0
 17
0.0
 27
1.0
 37
0.0
 76
0
330
1B
  0
LAYOUT
  5
22
100
AcDbPlotSettings
  1

  2
none_device
  4

  6

 40
0.0
 41
0.0
 42
0.0
 43
0.0
 44
0.0
 45
0.0
 46
0.0
 47
0.0
 48
0.0
 49
0.0
140
0.0
141
0.0
142
1.0
143
1.0
 70
1712
 72
0
 73
0
 74
0
  7

 75
0
147
1.0
148
0.0
149
0.0
100
AcDbLayout
  1
Model
 70
1
 71
0
 10
0.0
 20
0.0
 11
12.0
 21
9.0
 12
0.0
 22
0.0
 32
0.0
 14
0.0
 24
0.0
 34
0.0
 15
0.0
 25
0.0
 35
0.0
146
0.0
 13
0.0
 23
0.0
 33
0.0
 16
1.0
 26
0.0
 36
0.0
 17
0.0
 27
1.0
 37
0.0
 76
0
330
1F
  0
LAYOUT
  5
26
100
AcDbPlotSettings
  1

  2
none_device
  4

  6

 40
0.0
 41
0.0
 42
0.0
 43
0.0
 44
0.0
 45
0.0
 46
0.0
 47
0.0
 48
0.0
 49
0.0
140
0.0
141
0.0
142
1.0
143
1.0
 70
688
 72
0
 73
0
 74
5
  7

 75
16
147
1.0
148
0.0
149
0.0
100
AcDbLayout
  1
Layout2
 70
1
 71
2
 10
0.0
 20
0.0
 11
12.0
 21
9.0
 12
0.0
 22
0.0
 32
0.0
 14
0.0
 24
0.0
 34
0.0
 15
0.0
 25
0.0
 35
0.0
146
0.0
 13
0.0
 23
0.0
 33
0.0
 16
1.0
 26
0.0
 36
0.0
 17
0.0
 27
1.0
 37
0.0
 76
0
330
23
  0
DICTIONARY
  5
FA
100
AcDbDictionary
281
1
  3
DIMASSOC
350
FD
  3
HIDETEXT
350
FC
  0
DICTIONARYVAR
  5
FC
100
DictionaryVariables
280
0
  1
2
  0
DICTIONARYVAR
  5
FD
100
DictionaryVariables
280
0
  1
1
  0
DICTIONARY
  5
FB
100
AcDbDictionary
281
1
  3
ColorSettings/BackgroundColor
350
FE
  3
ColorSettings/ColorMode
350
FF
  3
Grid/DisplayGrid00
350
100
  3
Grid/DisplayGrid01
350
101
  3
Grid/DisplayGrid02
350
102
  3
Grid/DisplayGrid03
350
103
  3
Grid/GridSpacingX00
350
104
  3
Grid/GridSpacingX01
350
105
  3
Grid/GridSpacingX02
350
106
  3
Grid/GridSpacingX03
350
107
  3
Grid/GridSpacingY00
350
108
  3
Grid/GridSpacingY01
350
109
  3
Grid/GridSpacingY02
350
10A
  3
Grid/GridSpacingY03
350
10B
  3
Grid/IsometricGrid00
350
10C
  3
Grid/IsometricGrid01
350
10D
  3
Grid/IsometricGrid02
350
10E
  3
Grid/IsometricGrid03
350
10F
  3
Grid/IsometricProjection00
350
110
  3
Grid/IsometricProjection01
350
111
  3
Grid/IsometricProjection02
350
112
  3
Grid/IsometricProjection03
350
113
  3
Grid/MetaGridSpacingX00
350
114
  3
Grid/MetaGridSpacingX01
350
115
  3
Grid/MetaGridSpacingX02
350
116
  3
Grid/MetaGridSpacingX03
350
117
  3
Grid/MetaGridSpacingY00
350
118
  3
Grid/MetaGridSpacingY01
350
119
  3
Grid/MetaGridSpacingY02
350
11A
  3
Grid/MetaGridSpacingY03
350
11B
  3
MultiPageSettings/Columns
350
11C
  3
MultiPageSettings/GlueMarginsBottom
350
11D
  3
MultiPageSettings/GlueMarginsLeft
350
11E
  3
MultiPageSettings/GlueMarginsRight
350
11F
  3
MultiPageSettings/GlueMarginsTop
350
120
  3
MultiPageSettings/PrintCropMarks
350
121
  3
MultiPageSettings/Rows
350
122
  3
PageSettings/OffsetX
350
123
  3
PageSettings/OffsetY
350
124
  3
PageSettings/PageOrientation
350
125
  3
PageSettings/PaperHeight
350
126
  3
PageSettings/PaperSizeAccepted
350
127
  3
PageSettings/PaperSizeName
350
128
  3
PageSettings/PaperWidth
350
129
  3
PageSettings/PointSize
350
12A
  3
PageSettings/Scale
350
12B
  3
PageSettings/ShowPaperBorders
350
12C
  3
PageTagSettings/EnablePageTags
350
12D
  3
PageTagSettings/TagAlignment
350
12E
  3
PageTagSettings/TagFont
350
12F
  3
PageTagSettings/TagPosition
350
130
  3
QCADVersion
350
131
  3
UnitSettings/Measurement
350
132
  3
UnitSettings/PaperUnit
350
133
  3
ViewportCenter
350
134
  3
ViewportHeight
350
135
  3
ViewportWidth
350
136
  0
XRECORD
  5
FE
330
FB
100
AcDbXrecord
280
1
1000
White
  0
XRECORD
  5
FF
330
FB
100
AcDbXrecord
280
1
1000
FullColor
  0
XRECORD
  5
100
330
FB
100
AcDbXrecord
280
1
290
1
  0
XRECORD
  5
101
330
FB
100
AcDbXrecord
280
1
290
1
  0
XRECORD
  5
102
330
FB
100
AcDbXrecord
280
1
290
1
  0
XRECORD
  5
103
330
FB
100
AcDbXrecord
280
1
290
1
  0
XRECORD
  5
104
330
FB
100
AcDbXrecord
280
1
1000
auto
  0
XRECORD
  5
105
330
FB
100
AcDbXrecord
280
1
1000
auto
  0
XRECORD
  5
106
330
FB
100
AcDbXrecord
280
1
1000
auto
  0
XRECORD
  5
107
330
FB
100
AcDbXrecord
280
1
1000
auto
  0
XRECORD
  5
108
330
FB
100
AcDbXrecord
280
1
1000
auto
  0
XRECORD
  5
109
330
FB
100
AcDbXrecord
280
1
1000
auto
  0
XRECORD
  5
10A
330
FB
100
AcDbXrecord
280
1
1000
auto
  0
XRECORD
  5
10B
330
FB
100
AcDbXrecord
280
1
1000
auto
  0
XRECORD
  5
10C
330
FB
100
AcDbXrecord
280
1
290
0
  0
XRECORD
  5
10D
330
FB
100
AcDbXrecord
280
1
290
0
  0
XRECORD
  5
10E
330
FB
100
AcDbXrecord
280
1
290
0
  0
XRECORD
  5
10F
330
FB
100
AcDbXrecord
280
1
290
0
  0
XRECORD
  5
110
330
FB
100
AcDbXrecord
280
1
 90
65537
  0
XRECORD
  5
111
330
FB
100
AcDbXrecord
280
1
 90
65537
  0
XRECORD
  5
112
330
FB
100
AcDbXrecord
280
1
 90
65537
  0
XRECORD
  5
113
330
FB
100
AcDbXrecord
280
1
 90
65537
  0
XRECORD
  5
114
330
FB
100
AcDbXrecord
280
1
1000
auto
  0
XRECORD
  5
115
330
FB
100
AcDbXrecord
280
1
1000
auto
  0
XRECORD
  5
116
330
FB
100
AcDbXrecord
280
1
1000
auto
  0
XRECORD
  5
117
330
FB
100
AcDbXrecord
280
1
1000
auto
  0
XRECORD
  5
118
330
FB
100
AcDbXrecord
280
1
1000
auto
  0
XRECORD
  5
119
330
FB
100
AcDbXrecord
280
1
1000
auto
  0
XRECORD
  5
11A
330
FB
100
AcDbXrecord
280
1
1000
auto
  0
XRECORD
  5
11B
330
FB
100
AcDbXrecord
280
1
1000
auto
  0
XRECORD
  5
11C
330
FB
100
AcDbXrecord
280
1
 90
1
  0
XRECORD
  5
11D
330
FB
100
AcDbXrecord
280
1
 40
0.0
  0
XRECORD
  5
11E
330
FB
100
AcDbXrecord
280
1
 40
0.0
  0
XRECORD
  5
11F
330
FB
100
AcDbXrecord
280
1
 40
0.0
  0
XRECORD
  5
120
330
FB
100
AcDbXrecord
280
1
 40
0.0
  0
XRECORD
  5
121
330
FB
100
AcDbXrecord
280
1
290
0
  0
XRECORD
  5
122
330
FB
100
AcDbXrecord
280
1
 90
1
  0
XRECORD
  5
123
330
FB
100
AcDbXrecord
280
1
 40
-23.2370943000354302
  0
XRECORD
  5
124
330
FB
100
AcDbXrecord
280
1
 40
-154.2554279318421493
  0
XRECORD
  5
125
330
FB
100
AcDbXrecord
280
1
1000
Portrait
  0
XRECORD
  5
126
330
FB
100
AcDbXrecord
280
1
1000
9
  0
XRECORD
  5
127
330
FB
100
AcDbXrecord
280
1
290
1
  0
XRECORD
  5
128
330
FB
100
AcDbXrecord
280
1
1000
Custom
  0
XRECORD
  5
129
330
FB
100
AcDbXrecord
280
1
1000
6.5
  0
XRECORD
  5
12A
330
FB
100
AcDbXrecord
280
1
1000
0.5
  0
XRECORD
  5
12B
330
FB
100
AcDbXrecord
280
1
1000
0.032
  0
XRECORD
  5
12C
330
FB
100
AcDbXrecord
280
1
290
1
  0
XRECORD
  5
12D
330
FB
100
AcDbXrecord
280
1
290
0
  0
XRECORD
  5
12E
330
FB
100
AcDbXrecord
280
1
1000
Inside
  0
XRECORD
  5
12F
330
FB
100
AcDbXrecord
280
1
1000
Arial,10,-1,5,50,0,0,0,0,0
  0
XRECORD
  5
130
330
FB
100
AcDbXrecord
280
1
1000
TopLeft
  0
XRECORD
  5
131
330
FB
100
AcDbXrecord
280
1
1000
3.32.6
  0
XRECORD
  5
132
330
FB
100
AcDbXrecord
280
1
 90
1
  0
XRECORD
  5
133
330
FB
100
AcDbXrecord
280
1
 90
1
  0
XRECORD
  5
135
330
FB
100
AcDbXrecord
280
1
 40
133.473469119826035
  0
XRECORD
  5
136
330
FB
100
AcDbXrecord
280
1
 40
142.3542870260375821
  0
IMAGEDEF
  5
B8
100
AcDbRasterImageDef
 90
0
  1
/home/means/Documents/TinyHomes/icons/Screw.png
 10
3.0
 20
7.0
 11
1.0
 21
1.0
280
1
281
0
  0
IMAGEDEF
  5
BA
100
AcDbRasterImageDef
 90
0
  1
/home/means/Documents/TinyHomes/icons/Screw.png
 10
3.0
 20
7.0
 11
1.0
 21
1.0
280
1
281
0
  0
IMAGEDEF
  5
BC
100
AcDbRasterImageDef
 90
0
  1
/home/means/Documents/TinyHomes/icons/Screw.png
 10
3.0
 20
7.0
 11
1.0
 21
1.0
280
1
281
0
  0
IMAGEDEF
  5
BE
100
AcDbRasterImageDef
 90
0
  1
/home/means/Documents/TinyHomes/icons/Screw.png
 10
3.0
 20
7.0
 11
1.0
 21
1.0
280
1
281
0
  0
IMAGEDEF
  5
C0
100
AcDbRasterImageDef
 90
0
  1
/home/means/Documents/TinyHomes/icons/Screw.png
 10
3.0
 20
7.0
 11
1.0
 21
1.0
280
1
281
0
  0
IMAGEDEF
  5
D4
100
AcDbRasterImageDef
 90
0
  1
/home/means/Documents/TinyHomes/icons/Screw.png
 10
3.0
 20
7.0
 11
1.0
 21
1.0
280
1
281
0
  0
IMAGEDEF
  5
D6
100
AcDbRasterImageDef
 90
0
  1
/home/means/Documents/TinyHomes/icons/Screw.png
 10
3.0
 20
7.0
 11
1.0
 21
1.0
280
1
281
0
  0
ENDSEC
  0
EOF
