999
dxflib 3.26.4.0
  0
SECTION
  2
HEADER
  9
$ACADVER
  1
AC1015
  9
$HANDSEED
  5
FFFF
  9
$DIMADEC
 70
0
  9
$DIMASZ
 40
1.0
  9
$DIMATFIT
 70
0
  9
$DIMAUNIT
 70
0
  9
$DIMAZIN
 70
2
  9
$DIMBLK
  1
0
  9
$DIMBLK1
  1
0
  9
$DIMBLK2
  1
0
  9
$DIMDEC
 70
4
  9
$DIMDLI
 40
6.0
  9
$DIMDSEP
 70
46
  9
$DIMEXE
 40
1.5
  9
$DIMEXO
 40
0.75
  9
$DIMGAP
 40
0.75
  9
$DIMLFAC
 40
1.0
  9
$DIMLUNIT
 70
3
  9
$DIMSCALE
 40
1.0
  9
$DIMTAD
 70
1
  9
$DIMTIH
 70
0
  9
$DIMTSZ
 40
0.0
  9
$DIMTXT
 40
3.0
  9
$DIMZIN
 70
8
  9
$DWGCODEPAGE
  3
ANSI_1252
  9
$INSUNITS
 70
1
  9
$LTSCALE
 40
1.0
  9
$MAXACTVP
 70
64
  9
$MEASUREMENT
 70
0
  9
$MIRRTEXT
 70
0
  9
$PDMODE
 70
0
  9
$PDSIZE
 40
0.0
  0
ENDSEC
  0
SECTION
  2
TABLES
  0
TABLE
  2
VPORT
  5
8
100
AcDbSymbolTable
 70
1
  0
VPORT
  5
30
100
AcDbSymbolTableRecord
100
AcDbViewportTableRecord
  2
*Active
 70
0
 10
0.0
 20
0.0
 11
1.0
 21
1.0
 12
286.3055555555554861
 22
148.5
 13
0.0
 23
0.0
 14
10.0
 24
10.0
 15
10.0
 25
10.0
 16
0.0
 26
0.0
 36
1.0
 17
0.0
 27
0.0
 37
0.0
 40
297.0
 41
1.92798353909465
 42
50.0
 43
0.0
 44
0.0
 50
0.0
 51
0.0
 71
0
 72
100
 73
1
 74
3
 75
1
 76
1
 77
0
 78
0
281
0
 65
1
110
0.0
120
0.0
130
0.0
111
1.0
121
0.0
131
0.0
112
0.0
122
1.0
132
0.0
 79
0
146
0.0
  0
ENDTAB
  0
TABLE
  2
LTYPE
  5
5
100
AcDbSymbolTable
 70
41
  0
LTYPE
  5
16
100
AcDbSymbolTableRecord
100
AcDbLinetypeTableRecord
  2
Continuous
 70
0
  3
Solid line
 72
65
 73
0
 40
0.0
  0
LTYPE
  5
31
100
AcDbSymbolTableRecord
100
AcDbLinetypeTableRecord
  2
DASHED2
 70
0
  3
Dashed (.5x) _ _ _ _ _ _ _ _ _ _ _ _ _ _ _ _ _ 
 72
65
 73
2
 40
9.5249999999999986
 49
6.3499999999999996
 74
0
 49
-3.1749999999999998
 74
0
  0
LTYPE
  5
32
100
AcDbSymbolTableRecord
100
AcDbLinetypeTableRecord
  2
DOT
 70
0
  3
Dot . . . . . . . . . . . . . . . . . . . . . . . .
 72
65
 73
2
 40
6.3499999999999996
 49
0.1
 74
0
 49
-6.25
 74
0
  0
LTYPE
  5
33
100
AcDbSymbolTableRecord
100
AcDbLinetypeTableRecord
  2
CENTER
 70
0
  3
Center ____ _ ____ _ ____ _ ____ _ ____ _ ____
 72
65
 73
4
 40
50.8000000000000043
 49
31.75
 74
0
 49
-6.3499999999999996
 74
0
 49
6.3499999999999996
 74
0
 49
-6.3499999999999996
 74
0
  0
LTYPE
  5
34
100
AcDbSymbolTableRecord
100
AcDbLinetypeTableRecord
  2
ACAD_ISO09W100
 70
0
  3
ISO long-dash double-short-dash ____ __ __ ____
 72
65
 73
6
 40
45.0
 49
24.0
 74
0
 49
-3.0
 74
0
 49
6.0
 74
0
 49
-3.0
 74
0
 49
6.0
 74
0
 49
-3.0
 74
0
  0
LTYPE
  5
35
100
AcDbSymbolTableRecord
100
AcDbLinetypeTableRecord
  2
DASHDOT2
 70
0
  3
Dash dot (.5x) _._._._._._._._._._._._._._._.
 72
65
 73
4
 40
12.6999999999999993
 49
6.3499999999999996
 74
0
 49
-3.125
 74
0
 49
0.1
 74
0
 49
-3.125
 74
0
  0
LTYPE
  5
36
100
AcDbSymbolTableRecord
100
AcDbLinetypeTableRecord
  2
DIVIDEX2
 70
0
  3
Divide (2x) ________  .  .  ________  .  .  _
 72
65
 73
6
 40
63.5
 49
25.3999999999999986
 74
0
 49
-12.6499999999999986
 74
0
 49
0.1
 74
0
 49
-12.5999999999999979
 74
0
 49
0.1
 74
0
 49
-12.6499999999999986
 74
0
  0
LTYPE
  5
37
100
AcDbSymbolTableRecord
100
AcDbLinetypeTableRecord
  2
ACAD_ISO12W100
 70
0
  3
ISO dash double-dot __ . . __ . . __ . . __ . . 
 72
65
 73
6
 40
21.0
 49
12.0
 74
0
 49
-2.9500000000000002
 74
0
 49
0.1
 74
0
 49
-2.9000000000000004
 74
0
 49
0.1
 74
0
 49
-2.9500000000000002
 74
0
  0
LTYPE
  5
38
100
AcDbSymbolTableRecord
100
AcDbLinetypeTableRecord
  2
ACAD_ISO13W100
 70
0
  3
ISO double-dash double-dot __ __ . . __ __ . . _
 72
65
 73
8
 40
36.0000000000000071
 49
12.0
 74
0
 49
-3.0
 74
0
 49
12.0
 74
0
 49
-2.9500000000000002
 74
0
 49
0.1
 74
0
 49
-2.9000000000000004
 74
0
 49
0.1
 74
0
 49
-2.9500000000000002
 74
0
  0
LTYPE
  5
39
100
AcDbSymbolTableRecord
100
AcDbLinetypeTableRecord
  2
BORDER2
 70
0
  3
Border (.5x) __.__.__.__.__.__.__.__.__.__.__.
 72
65
 73
6
 40
22.2250000000000014
 49
6.3499999999999996
 74
0
 49
-3.1749999999999998
 74
0
 49
6.3499999999999996
 74
0
 49
-3.125
 74
0
 49
0.1
 74
0
 49
-3.125
 74
0
  0
LTYPE
  5
3A
100
AcDbSymbolTableRecord
100
AcDbLinetypeTableRecord
  2
DOTX2
 70
0
  3
Dot (2x) .  .  .  .  .  .  .  .  .  .  .  .  .  .
 72
65
 73
2
 40
12.6999999999999993
 49
0.1
 74
0
 49
-12.5999999999999996
 74
0
  0
LTYPE
  5
3B
100
AcDbSymbolTableRecord
100
AcDbLinetypeTableRecord
  2
PHANTOM2
 70
0
  3
Phantom (.5x) ___ _ _ ___ _ _ ___ _ _ ___ _ _
 72
65
 73
6
 40
31.7500000000000036
 49
15.875
 74
0
 49
-3.1749999999999998
 74
0
 49
3.1749999999999998
 74
0
 49
-3.1749999999999998
 74
0
 49
3.1749999999999998
 74
0
 49
-3.1749999999999998
 74
0
  0
LTYPE
  5
15
100
AcDbSymbolTableRecord
100
AcDbLinetypeTableRecord
  2
BYLAYER
 70
0
  3

 72
65
 73
0
 40
0.0
  0
LTYPE
  5
3C
100
AcDbSymbolTableRecord
100
AcDbLinetypeTableRecord
  2
CENTER2
 70
0
  3
Center (.5x) ___ _ ___ _ ___ _ ___ _ ___ _ ___
 72
65
 73
4
 40
28.5750000000000028
 49
19.0500000000000007
 74
0
 49
-3.1749999999999998
 74
0
 49
3.1749999999999998
 74
0
 49
-3.1749999999999998
 74
0
  0
LTYPE
  5
3D
100
AcDbSymbolTableRecord
100
AcDbLinetypeTableRecord
  2
DOT2
 70
0
  3
Dot (.5x) ........................................
 72
65
 73
2
 40
3.1749999999999998
 49
0.1
 74
0
 49
-3.0749999999999997
 74
0
  0
LTYPE
  5
14
100
AcDbSymbolTableRecord
100
AcDbLinetypeTableRecord
  2
BYBLOCK
 70
0
  3

 72
65
 73
0
 40
0.0
  0
LTYPE
  5
3E
100
AcDbSymbolTableRecord
100
AcDbLinetypeTableRecord
  2
ACAD_ISO02W100
 70
0
  3
ISO dash __ __ __ __ __ __ __ __ __ __ __ __ __
 72
65
 73
2
 40
15.0
 49
12.0
 74
0
 49
-3.0
 74
0
  0
LTYPE
  5
3F
100
AcDbSymbolTableRecord
100
AcDbLinetypeTableRecord
  2
ACAD_ISO08W100
 70
0
  3
ISO long-dash short-dash ____ __ ____ __ ____ _
 72
65
 73
4
 40
36.0
 49
24.0
 74
0
 49
-3.0
 74
0
 49
6.0
 74
0
 49
-3.0
 74
0
  0
LTYPE
  5
40
100
AcDbSymbolTableRecord
100
AcDbLinetypeTableRecord
  2
ACAD_ISO03W100
 70
0
  3
ISO dash space __    __    __    __    __    __
 72
65
 73
2
 40
30.0
 49
12.0
 74
0
 49
-18.0
 74
0
  0
LTYPE
  5
41
100
AcDbSymbolTableRecord
100
AcDbLinetypeTableRecord
  2
ACAD_ISO05W100
 70
0
  3
ISO long-dash double-dot ____ .. ____ .. ____ . 
 72
65
 73
6
 40
33.0000000000000071
 49
24.0
 74
0
 49
-2.9500000000000002
 74
0
 49
0.1
 74
0
 49
-2.9000000000000004
 74
0
 49
0.1
 74
0
 49
-2.9500000000000002
 74
0
  0
LTYPE
  5
42
100
AcDbSymbolTableRecord
100
AcDbLinetypeTableRecord
  2
ACAD_ISO14W100
 70
0
  3
ISO dash triple-dot __ . . . __ . . . __ . . . _
 72
65
 73
8
 40
24.0000000000000036
 49
12.0
 74
0
 49
-2.9500000000000002
 74
0
 49
0.1
 74
0
 49
-2.9000000000000004
 74
0
 49
0.1
 74
0
 49
-2.9000000000000004
 74
0
 49
0.1
 74
0
 49
-2.9500000000000002
 74
0
  0
LTYPE
  5
43
100
AcDbSymbolTableRecord
100
AcDbLinetypeTableRecord
  2
DASHEDX2
 70
0
  3
Dashed (2x) ____  ____  ____  ____  ____  ___
 72
65
 73
2
 40
38.0999999999999943
 49
25.3999999999999986
 74
0
 49
-12.6999999999999993
 74
0
  0
LTYPE
  5
44
100
AcDbSymbolTableRecord
100
AcDbLinetypeTableRecord
  2
DASHED
 70
0
  3
Dashed __ __ __ __ __ __ __ __ __ __ __ __ __ _
 72
65
 73
2
 40
19.0499999999999972
 49
12.6999999999999993
 74
0
 49
-6.3499999999999996
 74
0
  0
LTYPE
  5
45
100
AcDbSymbolTableRecord
100
AcDbLinetypeTableRecord
  2
ACAD_ISO11W100
 70
0
  3
ISO double-dash dot __ __ . __ __ . __ __ . __ _
 72
65
 73
6
 40
33.0
 49
12.0
 74
0
 49
-3.0
 74
0
 49
12.0
 74
0
 49
-2.9500000000000002
 74
0
 49
0.1
 74
0
 49
-2.9500000000000002
 74
0
  0
LTYPE
  5
46
100
AcDbSymbolTableRecord
100
AcDbLinetypeTableRecord
  2
ACAD_ISO10W100
 70
0
  3
ISO dash dot __ . __ . __ . __ . __ . __ . __ . 
 72
65
 73
4
 40
18.0
 49
12.0
 74
0
 49
-2.9500000000000002
 74
0
 49
0.1
 74
0
 49
-2.9500000000000002
 74
0
  0
LTYPE
  5
47
100
AcDbSymbolTableRecord
100
AcDbLinetypeTableRecord
  2
DIVIDE
 70
0
  3
Divide ____ . . ____ . . ____ . . ____ . . ____
 72
65
 73
6
 40
31.7500000000000036
 49
12.6999999999999993
 74
0
 49
-6.2999999999999998
 74
0
 49
0.1
 74
0
 49
-6.25
 74
0
 49
0.1
 74
0
 49
-6.2999999999999998
 74
0
  0
LTYPE
  5
48
100
AcDbSymbolTableRecord
100
AcDbLinetypeTableRecord
  2
DASHDOTX2
 70
0
  3
Dash dot (2x) ____  .  ____  .  ____  .  ___
 72
65
 73
4
 40
50.7999999999999972
 49
25.3999999999999986
 74
0
 49
-12.6499999999999986
 74
0
 49
0.1
 74
0
 49
-12.6499999999999986
 74
0
  0
LTYPE
  5
49
100
AcDbSymbolTableRecord
100
AcDbLinetypeTableRecord
  2
ACAD_ISO07W100
 70
0
  3
ISO dot . . . . . . . . . . . . . . . . . . . . 
 72
65
 73
2
 40
3.0
 49
0.1
 74
0
 49
-2.8999999999999999
 74
0
  0
LTYPE
  5
4A
100
AcDbSymbolTableRecord
100
AcDbLinetypeTableRecord
  2
ACAD_ISO04W100
 70
0
  3
ISO long-dash dot ____ . ____ . ____ . ____ . _
 72
65
 73
4
 40
30.0
 49
24.0
 74
0
 49
-2.9500000000000002
 74
0
 49
0.1
 74
0
 49
-2.9500000000000002
 74
0
  0
LTYPE
  5
4B
100
AcDbSymbolTableRecord
100
AcDbLinetypeTableRecord
  2
DASHDOT
 70
0
  3
Dash dot __ . __ . __ . __ . __ . __ . __ . __
 72
65
 73
4
 40
25.4000000000000021
 49
12.6999999999999993
 74
0
 49
-6.2999999999999998
 74
0
 49
0.1
 74
0
 49
-6.2999999999999998
 74
0
  0
LTYPE
  5
4C
100
AcDbSymbolTableRecord
100
AcDbLinetypeTableRecord
  2
HIDDENX2
 70
0
  3
Hidden (2x) ____ ____ ____ ____ ____ ____ ____ 
 72
65
 73
2
 40
19.0499999999999972
 49
12.6999999999999993
 74
0
 49
-6.3499999999999996
 74
0
  0
LTYPE
  5
4D
100
AcDbSymbolTableRecord
100
AcDbLinetypeTableRecord
  2
PHANTOMX2
 70
0
  3
Phantom (2x) ____________    ____    ____   _
 72
65
 73
6
 40
127.0000000000000142
 49
63.5
 74
0
 49
-12.6999999999999993
 74
0
 49
12.6999999999999993
 74
0
 49
-12.6999999999999993
 74
0
 49
12.6999999999999993
 74
0
 49
-12.6999999999999993
 74
0
  0
LTYPE
  5
4E
100
AcDbSymbolTableRecord
100
AcDbLinetypeTableRecord
  2
HIDDEN2
 70
0
  3
Hidden (.5x) _ _ _ _ _ _ _ _ _ _ _ _ _ _ _ _ _ 
 72
65
 73
2
 40
4.7624999999999993
 49
3.1749999999999998
 74
0
 49
-1.5874999999999999
 74
0
  0
LTYPE
  5
4F
100
AcDbSymbolTableRecord
100
AcDbLinetypeTableRecord
  2
PHANTOM
 70
0
  3
Phantom ______  __  __  ______  __  __  ______ 
 72
65
 73
6
 40
63.5000000000000071
 49
31.75
 74
0
 49
-6.3499999999999996
 74
0
 49
6.3499999999999996
 74
0
 49
-6.3499999999999996
 74
0
 49
6.3499999999999996
 74
0
 49
-6.3499999999999996
 74
0
  0
LTYPE
  5
50
100
AcDbSymbolTableRecord
100
AcDbLinetypeTableRecord
  2
BORDERX2
 70
0
  3
Border (2x) ____  ____  .  ____  ____  .  ___
 72
65
 73
6
 40
88.8999999999999773
 49
25.3999999999999986
 74
0
 49
-12.6999999999999993
 74
0
 49
25.3999999999999986
 74
0
 49
-12.6499999999999986
 74
0
 49
0.1
 74
0
 49
-12.6499999999999986
 74
0
  0
LTYPE
  5
51
100
AcDbSymbolTableRecord
100
AcDbLinetypeTableRecord
  2
DIVIDE2
 70
0
  3
Divide (.5x) __..__..__..__..__..__..__..__.._
 72
65
 73
6
 40
15.8749999999999982
 49
6.3499999999999996
 74
0
 49
-3.125
 74
0
 49
0.1
 74
0
 49
-3.0750000000000002
 74
0
 49
0.1
 74
0
 49
-3.125
 74
0
  0
LTYPE
  5
52
100
AcDbSymbolTableRecord
100
AcDbLinetypeTableRecord
  2
CENTERX2
 70
0
  3
Center (2x) ________  __  ________  __  _____
 72
65
 73
4
 40
101.6000000000000085
 49
63.5
 74
0
 49
-12.6999999999999993
 74
0
 49
12.6999999999999993
 74
0
 49
-12.6999999999999993
 74
0
  0
LTYPE
  5
53
100
AcDbSymbolTableRecord
100
AcDbLinetypeTableRecord
  2
HIDDEN
 70
0
  3
Hidden __ __ __ __ __ __ __ __ __ __ __ __ __ __
 72
65
 73
2
 40
9.5249999999999986
 49
6.3499999999999996
 74
0
 49
-3.1749999999999998
 74
0
  0
LTYPE
  5
54
100
AcDbSymbolTableRecord
100
AcDbLinetypeTableRecord
  2
BORDER
 70
0
  3
Border __ __ . __ __ . __ __ . __ __ . __ __ .
 72
65
 73
6
 40
44.4499999999999957
 49
12.6999999999999993
 74
0
 49
-6.3499999999999996
 74
0
 49
12.6999999999999993
 74
0
 49
-6.2999999999999998
 74
0
 49
0.1
 74
0
 49
-6.2999999999999998
 74
0
  0
LTYPE
  5
55
100
AcDbSymbolTableRecord
100
AcDbLinetypeTableRecord
  2
ACAD_ISO06W100
 70
0
  3
ISO long-dash triple-dot ____ ... ____ ... ____
 72
65
 73
8
 40
36.0000000000000071
 49
24.0
 74
0
 49
-2.9500000000000002
 74
0
 49
0.1
 74
0
 49
-2.9000000000000004
 74
0
 49
0.1
 74
0
 49
-2.9000000000000004
 74
0
 49
0.1
 74
0
 49
-2.9500000000000002
 74
0
  0
LTYPE
  5
56
100
AcDbSymbolTableRecord
100
AcDbLinetypeTableRecord
  2
ACAD_ISO15W100
 70
0
  3
ISO double-dash triple-dot __ __ . . . __ __ . .
 72
65
 73
10
 40
39.0000000000000071
 49
12.0
 74
0
 49
-3.0
 74
0
 49
12.0
 74
0
 49
-2.9500000000000002
 74
0
 49
0.1
 74
0
 49
-2.9000000000000004
 74
0
 49
0.1
 74
0
 49
-2.9000000000000004
 74
0
 49
0.1
 74
0
 49
-2.9500000000000002
 74
0
  0
ENDTAB
  0
TABLE
  2
LAYER
  5
2
100
AcDbSymbolTable
 70
2
  0
LAYER
  5
10
100
AcDbSymbolTableRecord
100
AcDbLayerTableRecord
  2
0
 70
0
 62
7
420
16777215
  6
Continuous
370
25
390
F
  0
LAYER
  5
57
100
AcDbSymbolTableRecord
100
AcDbLayerTableRecord
  2
Dimensions
 70
0
 62
7
420
0
  6
CENTER
370
13
390
F
  0
ENDTAB
  0
TABLE
  2
STYLE
  5
3
100
AcDbSymbolTable
 70
9
  0
STYLE
  5
58
100
AcDbSymbolTableRecord
100
AcDbTextStyleTableRecord
  2
Standard
 70
0
 40
0.0
 41
1.0
 50
0.0
 71
0
 42
2.5
  3

  4

1001
ACAD
1000
txt
1071
0
  0
STYLE
  5
59
100
AcDbSymbolTableRecord
100
AcDbTextStyleTableRecord
  2
textstyle0
 70
0
 40
0.0
 41
1.0
 50
0.0
 71
0
 42
3.0
  3

  4

1001
ACAD
1000
Nimbus Sans [UKWN]
1071
0
  0
STYLE
  5
5A
100
AcDbSymbolTableRecord
100
AcDbTextStyleTableRecord
  2
textstyle1
 70
0
 40
0.0
 41
1.0
 50
0.0
 71
0
 42
3.0
  3

  4

1001
ACAD
1000
Nimbus Sans [UKWN]
1071
0
  0
STYLE
  5
5B
100
AcDbSymbolTableRecord
100
AcDbTextStyleTableRecord
  2
textstyle2
 70
0
 40
0.0
 41
1.0
 50
0.0
 71
0
 42
3.0
  3

  4

1001
ACAD
1000
Nimbus Sans [UKWN]
1071
0
  0
STYLE
  5
5C
100
AcDbSymbolTableRecord
100
AcDbTextStyleTableRecord
  2
textstyle3
 70
0
 40
0.0
 41
1.0
 50
0.0
 71
0
 42
3.0
  3

  4

1001
ACAD
1000
Nimbus Sans [UKWN]
1071
0
  0
STYLE
  5
5D
100
AcDbSymbolTableRecord
100
AcDbTextStyleTableRecord
  2
textstyle4
 70
0
 40
0.0
 41
1.0
 50
0.0
 71
0
 42
3.0
  3

  4

1001
ACAD
1000
Nimbus Sans [UKWN]
1071
0
  0
STYLE
  5
5E
100
AcDbSymbolTableRecord
100
AcDbTextStyleTableRecord
  2
textstyle5
 70
0
 40
0.0
 41
1.0
 50
0.0
 71
0
 42
3.0
  3

  4

1001
ACAD
1000
Nimbus Sans [UKWN]
1071
0
  0
STYLE
  5
5F
100
AcDbSymbolTableRecord
100
AcDbTextStyleTableRecord
  2
textstyle6
 70
0
 40
0.0
 41
1.0
 50
0.0
 71
0
 42
3.0
  3

  4

1001
ACAD
1000
Nimbus Sans [UKWN]
1071
0
  0
STYLE
  5
60
100
AcDbSymbolTableRecord
100
AcDbTextStyleTableRecord
  2
textstyle7
 70
0
 40
0.0
 41
1.0
 50
0.0
 71
0
 42
3.0
  3

  4

1001
ACAD
1000
Nimbus Sans [UKWN]
1071
0
  0
ENDTAB
  0
TABLE
  2
VIEW
  5
6
100
AcDbSymbolTable
 70
0
  0
ENDTAB
  0
TABLE
  2
UCS
  5
7
100
AcDbSymbolTable
 70
0
  0
ENDTAB
  0
TABLE
  2
APPID
  5
9
100
AcDbSymbolTable
 70
1
  0
APPID
  5
12
100
AcDbSymbolTableRecord
100
AcDbRegAppTableRecord
  2
ACAD
 70
0
  0
APPID
  5
61
100
AcDbSymbolTableRecord
100
AcDbRegAppTableRecord
  2
QCAD
 70
0
  0
ENDTAB
  0
TABLE
  2
DIMSTYLE
  5
A
100
AcDbSymbolTable
 70
1
100
AcDbDimStyleTable
 71
0
  0
DIMSTYLE
105
27
100
AcDbSymbolTableRecord
100
AcDbDimStyleTableRecord
  2
Standard
 41
1.0
 42
0.75
 43
3.75
 44
1.5
 70
0
 73
0
 74
0
 77
1
 78
8
140
3.0
141
2.5
143
0.03937007874016
147
0.75
171
3
172
1
271
2
272
2
274
3
278
44
283
0
284
8
340
58
  0
ENDTAB
  0
TABLE
  2
BLOCK_RECORD
  5
1
100
AcDbSymbolTable
 70
1
  0
BLOCK_RECORD
  5
1F
100
AcDbSymbolTableRecord
100
AcDbBlockTableRecord
  2
*Model_Space
340
22
  0
BLOCK_RECORD
  5
1B
100
AcDbSymbolTableRecord
100
AcDbBlockTableRecord
  2
*Paper_Space
340
1E
  0
BLOCK_RECORD
  5
23
100
AcDbSymbolTableRecord
100
AcDbBlockTableRecord
  2
*Paper_Space0
340
26
  0
ENDTAB
  0
ENDSEC
  0
SECTION
  2
BLOCKS
  0
BLOCK
  5
20
100
AcDbEntity
  8
0
100
AcDbBlockBegin
  2
*Model_Space
 70
0
 10
0.0
 20
0.0
 30
0.0
  3
*Model_Space
  1

  0
ENDBLK
  5
21
100
AcDbEntity
  8
0
100
AcDbBlockEnd
  0
BLOCK
  5
1C
100
AcDbEntity
 67
1
  8
0
100
AcDbBlockBegin
  2
*Paper_Space
 70
0
 10
0.0
 20
0.0
 30
0.0
  3
*Paper_Space
  1

  0
ENDBLK
  5
1D
100
AcDbEntity
 67
1
  8
0
100
AcDbBlockEnd
  0
BLOCK
  5
24
100
AcDbEntity
  8
0
100
AcDbBlockBegin
  2
*Paper_Space0
 70
0
 10
0.0
 20
0.0
 30
0.0
  3
*Paper_Space0
  1

  0
ENDBLK
  5
25
100
AcDbEntity
  8
0
100
AcDbBlockEnd
  0
ENDSEC
  0
SECTION
  2
ENTITIES
  0
MTEXT
  5
62
100
AcDbEntity
  8
0
 62
256
370
-1
 48
1.0
  6
BYLAYER
100
AcDbMText
 10
59.2435476043092848
 20
15.8026622725415677
 30
0.0
 40
3.0
 41
0.0
 71
1
 72
1
  1
\H7.00001;Vent Cap Details
  7
textstyle6
 50
0.0
 73
2
 44
1.0
  0
LINE
  5
63
100
AcDbEntity
  8
0
 62
256
370
9
 48
1.0
  6
BYLAYER
100
AcDbLine
 10
52.7618420885464587
 20
163.1577548468767418
 30
0.0
 11
71.1461017536173443
 21
152.543597580396181
 31
0.0
  0
LINE
  5
64
100
AcDbEntity
  8
0
 62
256
370
9
 48
1.0
  6
BYLAYER
100
AcDbLine
 10
71.1461017536173443
 20
152.543597580396181
 30
0.0
 11
71.1461017536173443
 21
157.4424393956949189
 31
0.0
  0
LINE
  5
65
100
AcDbEntity
  8
0
 62
256
370
9
 48
1.0
  6
BYLAYER
100
AcDbLine
 10
71.1461017536173443
 20
157.4424393956949189
 30
0.0
 11
52.7618420885464587
 21
168.0565966621754797
 31
0.0
  0
LINE
  5
66
100
AcDbEntity
  8
0
 62
256
370
9
 48
1.0
  6
BYLAYER
100
AcDbLine
 10
52.7618420885464587
 20
168.0565966621754797
 30
0.0
 11
52.7618420885464587
 21
163.1577548468767418
 31
0.0
  0
LINE
  5
67
100
AcDbEntity
  8
0
 62
256
370
9
 48
1.0
  6
BYLAYER
100
AcDbLine
 10
52.7618420885462314
 20
168.056596662175707
 30
0.0
 11
71.146101753617117
 21
157.4424393956951462
 31
0.0
  0
LINE
  5
68
100
AcDbEntity
  8
0
 62
256
370
9
 48
1.0
  6
BYLAYER
100
AcDbLine
 10
71.146101753617117
 20
157.4424393956951462
 30
0.0
 11
81.0453184963475763
 21
163.1577548468769692
 31
0.0
  0
LINE
  5
69
100
AcDbEntity
  8
0
 62
256
370
9
 48
1.0
  6
BYLAYER
100
AcDbLine
 10
81.0453184963475763
 20
163.1577548468769692
 30
0.0
 11
62.6610588312766907
 21
173.77191211335753
 31
0.0
  0
LINE
  5
6A
100
AcDbEntity
  8
0
 62
256
370
9
 48
1.0
  6
BYLAYER
100
AcDbLine
 10
62.6610588312766907
 20
173.77191211335753
 30
0.0
 11
52.7618420885462314
 21
168.056596662175707
 31
0.0
  0
LINE
  5
6B
100
AcDbEntity
  8
0
 62
256
370
9
 48
1.0
  6
BYLAYER
100
AcDbLine
 10
71.1461017536173443
 20
157.4424393956949189
 30
0.0
 11
71.1461017536173443
 21
152.543597580396181
 31
0.0
  0
LINE
  5
6C
100
AcDbEntity
  8
0
 62
256
370
9
 48
1.0
  6
BYLAYER
100
AcDbLine
 10
71.1461017536173443
 20
152.543597580396181
 30
0.0
 11
81.0453184963478037
 21
158.2589130315780039
 31
0.0
  0
LINE
  5
6D
100
AcDbEntity
  8
0
 62
256
370
9
 48
1.0
  6
BYLAYER
100
AcDbLine
 10
81.0453184963478037
 20
158.2589130315780039
 30
0.0
 11
81.0453184963478037
 21
163.1577548468767418
 31
0.0
  0
LINE
  5
6E
100
AcDbEntity
  8
0
 62
256
370
9
 48
1.0
  6
BYLAYER
100
AcDbLine
 10
81.0453184963478037
 20
163.1577548468767418
 30
0.0
 11
71.1461017536173443
 21
157.4424393956949189
 31
0.0
  0
IMAGE
  5
6F
100
AcDbEntity
  8
0
 62
256
370
-1
 48
1.0
  6
BYLAYER
100
AcDbRasterImage
 90
0
 10
67.1252900828518762
 20
165.9908399360560338
 30
0.0
 11
0.2
 21
0.0
 31
0.0
 12
0.0
 22
0.2
 32
0.0
 13
4.0
 23
9.0
340
70
 70
15
280
0
281
50
282
50
283
0
  0
IMAGE
  5
71
100
AcDbEntity
  8
0
 62
256
370
-1
 48
1.0
  6
BYLAYER
100
AcDbRasterImage
 90
0
 10
62.7678952973770521
 20
163.2849888950089507
 30
0.0
 11
0.2
 21
0.0
 31
0.0
 12
0.0
 22
0.2
 32
0.0
 13
4.0
 23
9.0
340
72
 70
15
280
0
281
50
282
50
283
0
  0
MTEXT
  5
73
100
AcDbEntity
  8
0
 62
256
370
-1
 48
1.0
  6
BYLAYER
100
AcDbMText
 10
95.2350617536172166
 20
167.4224011897683226
 30
0.0
 40
3.0
 41
0.0
 71
1
 72
1
  1
\H4.99999;Block preparation
  7
textstyle7
 50
0.0
 73
2
 44
1.0
  0
LINE
  5
74
100
AcDbEntity
  8
0
 62
256
370
35
 48
1.0
  6
BYLAYER
100
AcDbLine
 10
42.0
 20
109.5
 30
0.0
 11
138.0
 21
109.5
 31
0.0
  0
LINE
  5
75
100
AcDbEntity
  8
0
 62
256
370
35
 48
1.0
  6
BYLAYER
100
AcDbLine
 10
137.40139549315154
 20
73.5928853335652207
 30
0.0
 11
93.40139549315154
 21
73.5928853335652207
 31
0.0
  0
LINE
  5
76
100
AcDbEntity
  8
0
 62
256
370
35
 48
1.0
  6
BYLAYER
100
AcDbLine
 10
138.0
 20
109.5
 30
0.0
 11
138.0
 21
100.0
 31
0.0
  0
LINE
  5
77
100
AcDbEntity
  8
0
 62
256
370
35
 48
1.0
  6
BYLAYER
100
AcDbLine
 10
93.40139549315154
 20
73.5928853335652207
 30
0.0
 11
93.40139549315154
 21
64.0928853335652207
 31
0.0
  0
LINE
  5
78
100
AcDbEntity
  8
0
 62
256
370
35
 48
1.0
  6
BYLAYER
100
AcDbLine
 10
138.0
 20
100.0
 30
0.0
 11
42.0
 21
100.0
 31
0.0
  0
LINE
  5
79
100
AcDbEntity
  8
0
 62
256
370
35
 48
1.0
  6
BYLAYER
100
AcDbLine
 10
93.40139549315154
 20
64.0928853335652207
 30
0.0
 11
137.40139549315154
 21
64.0928853335652207
 31
0.0
  0
LINE
  5
7A
100
AcDbEntity
  8
0
 62
256
370
35
 48
1.0
  6
BYLAYER
100
AcDbLine
 10
42.0
 20
100.0
 30
0.0
 11
42.0
 21
109.5
 31
0.0
  0
LINE
  5
7B
100
AcDbEntity
  8
Dimensions
 62
256
370
-1
 48
1.0
  6
CENTER2
100
AcDbLine
 10
43.75
 20
96.5
 30
0.0
 11
43.75
 21
113.0
 31
0.0
  0
LINE
  5
7C
100
AcDbEntity
  8
Dimensions
 62
256
370
-1
 48
1.0
  6
BYLAYER
100
AcDbLine
 10
90.0
 20
96.5
 30
0.0
 11
90.0
 21
113.0
 31
0.0
  0
LINE
  5
7D
100
AcDbEntity
  8
Dimensions
 62
256
370
-1
 48
1.0
  6
BYLAYER
100
AcDbLine
 10
137.25
 20
96.5
 30
0.0
 11
137.25
 21
113.0
 31
0.0
  0
LINE
  5
7E
100
AcDbEntity
  8
0
 62
256
370
35
 48
1.0
  6
BYLAYER
100
AcDbLine
 10
137.40139549315154
 20
64.0928853335652207
 30
0.0
 11
137.40139549315154
 21
73.5928853335652207
 31
0.0
  0
LINE
  5
7F
100
AcDbEntity
  8
Dimensions
 62
256
370
-1
 48
1.0
  6
CENTER2
100
AcDbLine
 10
135.65139549315154
 20
60.5928853335652207
 30
0.0
 11
135.65139549315154
 21
77.0928853335652207
 31
0.0
  0
LINE
  5
80
100
AcDbEntity
  8
Dimensions
 62
256
370
-1
 48
1.0
  6
BYLAYER
100
AcDbLine
 10
94.1513954931515258
 20
60.5928853335652349
 30
0.0
 11
94.15139549315154
 21
77.0928853335652207
 31
0.0
  0
LINE
  5
81
100
AcDbEntity
  8
Dimensions
 62
256
370
-1
 48
1.0
  6
BYLAYER
100
AcDbLine
 10
38.5
 20
106.0
 30
0.0
 11
142.5
 21
106.0
 31
0.0
  0
LINE
  5
82
100
AcDbEntity
  8
Dimensions
 62
256
370
-1
 48
1.0
  6
BYLAYER
100
AcDbLine
 10
38.5
 20
103.5
 30
0.0
 11
142.5
 21
103.5
 31
0.0
  0
LINE
  5
83
100
AcDbEntity
  8
Dimensions
 62
256
370
-1
 48
1.0
  6
BYLAYER
100
AcDbLine
 10
140.90139549315154
 20
70.0928853335652207
 30
0.0
 11
88.90139549315154
 21
70.0928853335652349
 31
0.0
  0
LINE
  5
84
100
AcDbEntity
  8
Dimensions
 62
256
370
-1
 48
1.0
  6
BYLAYER
100
AcDbLine
 10
140.90139549315154
 20
67.5928853335652207
 30
0.0
 11
88.90139549315154
 21
67.5928853335652207
 31
0.0
  0
DIMENSION
  5
85
100
AcDbEntity
  8
Dimensions
 62
256
370
-1
 48
1.0
  6
BYLAYER
100
AcDbDimension
 10
140.40139549315154
 20
73.5928853335651922
 30
0.0
 11
144.7386309667123214
 21
72.2770003753960424
 31
0.0
 70
128
 71
8
 72
2
 74
0
 75
0
 41
1.0
 42
0.0
  1
 
  3
Standard
100
AcDbAlignedDimension
 13
137.40139549315154
 23
73.5928853335652207
 33
0.0
 14
139.90139549315154
 24
70.0928853335652349
 34
0.0
 50
89.9999999999999858
100
AcDbRotatedDimension
1001
ACAD
1000
DSTYLE
1002
{
1070
279
1070
2
1070
144
1040
40.0
1070
40
1040
1.0
1002
}
  0
DIMENSION
  5
86
100
AcDbEntity
  8
Dimensions
 62
256
370
-1
 48
1.0
  6
BYLAYER
100
AcDbDimension
 10
139.40139549315154
 20
64.0928853335652349
 30
0.0
 11
137.15139549315154
 21
65.8428853335652207
 31
0.0
 70
0
 71
8
 72
2
 74
0
 75
0
 41
1.0
 42
0.0
  1
 
  3
Standard
100
AcDbAlignedDimension
 13
137.4013954931515684
 23
64.0928853335652207
 33
0.0
 14
140.4013954931515116
 24
67.5928853335652207
 34
0.0
 50
89.9999999999999858
100
AcDbRotatedDimension
1001
ACAD
1000
DSTYLE
1002
{
1070
144
1040
40.0
1070
40
1040
1.0
1002
}
  0
CIRCLE
  5
87
100
AcDbEntity
  8
Dimensions
 62
256
370
-1
 48
1.0
  6
BYLAYER
100
AcDbCircle
 10
43.75
 20
106.0
 30
0.0
 40
0.5
  0
CIRCLE
  5
88
100
AcDbEntity
  8
Dimensions
 62
256
370
-1
 48
1.0
  6
BYLAYER
100
AcDbCircle
 10
43.75
 20
103.5
 30
0.0
 40
0.5
  0
CIRCLE
  5
89
100
AcDbEntity
  8
Dimensions
 62
256
370
-1
 48
1.0
  6
BYLAYER
100
AcDbCircle
 10
90.0
 20
106.0
 30
0.0
 40
0.5
  0
CIRCLE
  5
8A
100
AcDbEntity
  8
Dimensions
 62
256
370
-1
 48
1.0
  6
BYLAYER
100
AcDbCircle
 10
90.0
 20
103.5
 30
0.0
 40
0.5
  0
CIRCLE
  5
8B
100
AcDbEntity
  8
Dimensions
 62
256
370
-1
 48
1.0
  6
BYLAYER
100
AcDbCircle
 10
137.25
 20
106.0
 30
0.0
 40
0.5
  0
CIRCLE
  5
8C
100
AcDbEntity
  8
Dimensions
 62
256
370
-1
 48
1.0
  6
BYLAYER
100
AcDbCircle
 10
137.25
 20
103.5
 30
0.0
 40
0.5
  0
CIRCLE
  5
8D
100
AcDbEntity
  8
Dimensions
 62
256
370
-1
 48
1.0
  6
BYLAYER
100
AcDbCircle
 10
135.65139549315154
 20
70.0928853335652207
 30
0.0
 40
0.5
  0
CIRCLE
  5
8E
100
AcDbEntity
  8
Dimensions
 62
256
370
-1
 48
1.0
  6
BYLAYER
100
AcDbCircle
 10
135.65139549315154
 20
67.5928853335652207
 30
0.0
 40
0.5
  0
CIRCLE
  5
8F
100
AcDbEntity
  8
Dimensions
 62
256
370
-1
 48
1.0
  6
BYLAYER
100
AcDbCircle
 10
94.15139549315154
 20
70.0928853335652207
 30
0.0
 40
0.5
  0
CIRCLE
  5
90
100
AcDbEntity
  8
Dimensions
 62
256
370
-1
 48
1.0
  6
BYLAYER
100
AcDbCircle
 10
94.15139549315154
 20
67.5928853335652207
 30
0.0
 40
0.5
  0
DIMENSION
  5
91
100
AcDbEntity
  8
Dimensions
 62
256
370
-1
 48
1.0
  6
BYLAYER
100
AcDbDimension
 10
42.0
 20
114.5000000000000568
 30
0.0
 11
66.0
 21
117.0
 31
0.0
 70
128
 71
8
 72
2
 74
0
 75
0
 41
1.0
 42
0.0
  1
48"
  3
Standard
100
AcDbAlignedDimension
 13
42.0
 23
109.5
 33
0.0
 14
90.0
 24
109.2999999999999545
 34
0.0
 50
0.0
100
AcDbRotatedDimension
1001
ACAD
1000
DSTYLE
1002
{
1070
279
1070
2
1070
144
1040
40.0
1070
40
1040
1.0
1002
}
  0
DIMENSION
  5
92
100
AcDbEntity
  8
Dimensions
 62
256
370
-1
 48
1.0
  6
BYLAYER
100
AcDbDimension
 10
138.0000000000000284
 20
113.0
 30
0.0
 11
138.4922062079227203
 21
117.1299368845238575
 31
0.0
 70
128
 71
8
 72
2
 74
0
 75
0
 41
1.0
 42
0.0
  1
0.75"
  3
Standard
100
AcDbAlignedDimension
 13
138.0
 23
109.5
 33
0.0
 14
137.25
 24
109.5
 34
0.0
 50
0.0
100
AcDbRotatedDimension
1001
ACAD
1000
DSTYLE
1002
{
1070
279
1070
2
1070
144
1040
40.0
1070
40
1040
1.0
1002
}
  0
DIMENSION
  5
93
100
AcDbEntity
  8
Dimensions
 62
256
370
-1
 48
1.0
  6
BYLAYER
100
AcDbDimension
 10
93.4013954931515116
 20
77.0928853335652207
 30
0.0
 11
92.9091892852288197
 21
81.2228222180891066
 31
0.0
 70
128
 71
8
 72
2
 74
0
 75
0
 41
1.0
 42
0.0
  1
0.75"
  3
Standard
100
AcDbAlignedDimension
 13
93.40139549315154
 23
73.5928853335652065
 33
0.0
 14
94.15139549315154
 24
73.5928853335652349
 34
0.0
 50
180.0
100
AcDbRotatedDimension
1001
ACAD
1000
DSTYLE
1002
{
1070
279
1070
2
1070
144
1040
40.0
1070
40
1040
1.0
1002
}
  0
MTEXT
  5
94
100
AcDbEntity
  8
Dimensions
 62
256
370
-1
 48
1.0
  6
BYLAYER
100
AcDbMText
 10
148.8800293443899534
 20
73.4257568538225769
 30
0.0
 40
3.0
 41
0.0
 71
3
 72
1
  1
3.5"
  7
textstyle4
 50
0.0
 73
2
 44
1.0
  0
MTEXT
  5
95
100
AcDbEntity
  8
Dimensions
 62
256
370
-1
 48
1.0
  6
BYLAYER
100
AcDbMText
 10
148.7756125626672201
 20
67.4043891078094362
 30
0.0
 40
3.0
 41
0.0
 71
3
 72
1
  1
3.5"
  7
textstyle5
 50
0.0
 73
2
 44
1.0
  0
MTEXT
  5
96
100
AcDbEntity
  8
Dimensions
 62
256
370
-1
 48
1.0
  6
BYLAYER
100
AcDbMText
 10
36.4422725886313259
 20
93.2362294195786632
 30
0.0
 40
3.0
 41
0.0
 71
1
 72
1
  1
REAR
  7
textstyle0
 50
0.0
 73
2
 44
1.0
  0
MTEXT
  5
97
100
AcDbEntity
  8
Dimensions
 62
256
370
-1
 48
1.0
  6
BYLAYER
100
AcDbMText
 10
132.7020942856958072
 20
93.4158186391627368
 30
0.0
 40
3.0
 41
0.0
 71
1
 72
1
  1
SEAM
  7
textstyle1
 50
0.0
 73
2
 44
1.0
  0
MTEXT
  5
98
100
AcDbEntity
  8
Dimensions
 62
256
370
-1
 48
1.0
  6
BYLAYER
100
AcDbMText
 10
88.732075783965584
 20
57.448084208954441
 30
0.0
 40
3.0
 41
0.0
 71
1
 72
1
  1
SEAM
  7
textstyle2
 50
0.0
 73
2
 44
1.0
  0
MTEXT
  5
99
100
AcDbEntity
  8
Dimensions
 62
256
370
-1
 48
1.0
  6
BYLAYER
100
AcDbMText
 10
132.7314345820640824
 20
57.2684949893703532
 30
0.0
 40
3.0
 41
0.0
 71
1
 72
1
  1
FRONT
  7
textstyle3
 50
0.0
 73
2
 44
1.0
  0
DIMENSION
  5
9A
100
AcDbEntity
  8
Dimensions
 62
256
370
-1
 48
1.0
  6
BYLAYER
100
AcDbDimension
 10
43.75
 20
111.0
 30
0.0
 11
36.9166666666666714
 21
113.25
 31
0.0
 70
0
 71
8
 72
2
 74
0
 75
0
 41
1.0
 42
0.0
  1

  3
Standard
100
AcDbAlignedDimension
 13
43.75
 23
112.3259350819217843
 33
0.0
 14
42.0
 24
112.3259350819217843
 34
0.0
 50
0.0
100
AcDbRotatedDimension
1001
ACAD
1000
DSTYLE
1002
{
1070
144
1040
1.0
1070
40
1040
1.0
1002
}
  0
DIMENSION
  5
9B
100
AcDbEntity
  8
0
 62
256
370
-1
 48
1.0
  6
BYLAYER
100
AcDbDimension
 10
135.65139549315154
 20
75.8384580253212164
 30
0.0
 11
142.4847288264848828
 21
78.0884580253212164
 31
0.0
 70
0
 71
8
 72
2
 74
0
 75
0
 41
1.0
 42
0.0
  1

  3
Standard
100
AcDbAlignedDimension
 13
135.65139549315154
 23
77.0928853335652207
 33
0.0
 14
137.40139549315154
 24
73.5928853335652349
 34
0.0
 50
0.0
100
AcDbRotatedDimension
1001
ACAD
1000
DSTYLE
1002
{
1070
144
1040
1.0
1070
40
1040
1.0
1002
}
  0
ENDSEC
  0
SECTION
  2
OBJECTS
  0
DICTIONARY
  5
C
100
AcDbDictionary
280
0
281
1
  3
ACAD_GROUP
350
D
  3
ACAD_LAYOUT
350
1A
  3
ACAD_MLINESTYLE
350
17
  3
ACAD_PLOTSETTINGS
350
19
  3
ACAD_PLOTSTYLENAME
350
E
  3
AcDbVariableDictionary
350
9C
  3
QCAD_OBJECTS
350
9D
  0
DICTIONARY
  5
D
100
AcDbDictionary
280
0
281
1
  0
ACDBDICTIONARYWDFLT
  5
E
100
AcDbDictionary
281
1
  3
Normal
350
F
100
AcDbDictionaryWithDefault
340
F
  0
ACDBPLACEHOLDER
  5
F
  0
DICTIONARY
  5
17
100
AcDbDictionary
280
0
281
1
  3
Standard
350
18
  0
MLINESTYLE
  5
18
100
AcDbMlineStyle
  2
STANDARD
 70
0
  3

 62
256
 51
90.0
 52
90.0
 71
2
 49
0.5
 62
256
  6
BYLAYER
 49
-0.5
 62
256
  6
BYLAYER
  0
DICTIONARY
  5
19
100
AcDbDictionary
280
0
281
1
  0
DICTIONARY
  5
1A
100
AcDbDictionary
281
1
  3
Layout1
350
1E
  3
Layout2
350
26
  3
Model
350
22
  0
LAYOUT
  5
1E
100
AcDbPlotSettings
  1

  2
none_device
  4

  6

 40
0.0
 41
0.0
 42
0.0
 43
0.0
 44
0.0
 45
0.0
 46
0.0
 47
0.0
 48
0.0
 49
0.0
140
0.0
141
0.0
142
1.0
143
1.0
 70
688
 72
0
 73
0
 74
5
  7

 75
16
147
1.0
148
0.0
149
0.0
100
AcDbLayout
  1
Layout1
 70
1
 71
1
 10
0.0
 20
0.0
 11
420.0
 21
297.0
 12
0.0
 22
0.0
 32
0.0
 14
100000000000000000000.0
 24
100000000000000000000.0
 34
100000000000000000000.0
 15
-100000000000000000000.0
 25
-100000000000000000000.0
 35
-100000000000000000000.0
146
0.0
 13
0.0
 23
0.0
 33
0.0
 16
1.0
 26
0.0
 36
0.0
 17
0.0
 27
1.0
 37
0.0
 76
0
330
1B
  0
LAYOUT
  5
22
100
AcDbPlotSettings
  1

  2
none_device
  4

  6

 40
0.0
 41
0.0
 42
0.0
 43
0.0
 44
0.0
 45
0.0
 46
0.0
 47
0.0
 48
0.0
 49
0.0
140
0.0
141
0.0
142
1.0
143
1.0
 70
1712
 72
0
 73
0
 74
0
  7

 75
0
147
1.0
148
0.0
149
0.0
100
AcDbLayout
  1
Model
 70
1
 71
0
 10
0.0
 20
0.0
 11
12.0
 21
9.0
 12
0.0
 22
0.0
 32
0.0
 14
0.0
 24
0.0
 34
0.0
 15
0.0
 25
0.0
 35
0.0
146
0.0
 13
0.0
 23
0.0
 33
0.0
 16
1.0
 26
0.0
 36
0.0
 17
0.0
 27
1.0
 37
0.0
 76
0
330
1F
  0
LAYOUT
  5
26
100
AcDbPlotSettings
  1

  2
none_device
  4

  6

 40
0.0
 41
0.0
 42
0.0
 43
0.0
 44
0.0
 45
0.0
 46
0.0
 47
0.0
 48
0.0
 49
0.0
140
0.0
141
0.0
142
1.0
143
1.0
 70
688
 72
0
 73
0
 74
5
  7

 75
16
147
1.0
148
0.0
149
0.0
100
AcDbLayout
  1
Layout2
 70
1
 71
2
 10
0.0
 20
0.0
 11
12.0
 21
9.0
 12
0.0
 22
0.0
 32
0.0
 14
0.0
 24
0.0
 34
0.0
 15
0.0
 25
0.0
 35
0.0
146
0.0
 13
0.0
 23
0.0
 33
0.0
 16
1.0
 26
0.0
 36
0.0
 17
0.0
 27
1.0
 37
0.0
 76
0
330
23
  0
DICTIONARY
  5
9C
100
AcDbDictionary
281
1
  3
DIMASSOC
350
9F
  3
HIDETEXT
350
9E
  0
DICTIONARYVAR
  5
9E
100
DictionaryVariables
280
0
  1
2
  0
DICTIONARYVAR
  5
9F
100
DictionaryVariables
280
0
  1
1
  0
DICTIONARY
  5
9D
100
AcDbDictionary
281
1
  3
ColorSettings/BackgroundColor
350
A0
  3
ColorSettings/ColorMode
350
A1
  3
DimensionSettings/AngularFormat
350
A2
  3
DimensionSettings/AngularPrecision
350
A3
  3
DimensionSettings/DecimalPoint
350
A4
  3
DimensionSettings/DimensionFont
350
A5
  3
DimensionSettings/DimensionTextColor
350
A6
  3
DimensionSettings/KeepProportions
350
A7
  3
DimensionSettings/LinearFormat
350
A8
  3
DimensionSettings/LinearPrecision
350
A9
  3
Grid/DisplayGrid00
350
AA
  3
Grid/DisplayGrid01
350
AB
  3
Grid/DisplayGrid02
350
AC
  3
Grid/DisplayGrid03
350
AD
  3
Grid/GridSpacingX00
350
AE
  3
Grid/GridSpacingX01
350
AF
  3
Grid/GridSpacingX02
350
B0
  3
Grid/GridSpacingX03
350
B1
  3
Grid/GridSpacingY00
350
B2
  3
Grid/GridSpacingY01
350
B3
  3
Grid/GridSpacingY02
350
B4
  3
Grid/GridSpacingY03
350
B5
  3
Grid/IsometricGrid00
350
B6
  3
Grid/IsometricGrid01
350
B7
  3
Grid/IsometricGrid02
350
B8
  3
Grid/IsometricGrid03
350
B9
  3
Grid/IsometricProjection00
350
BA
  3
Grid/IsometricProjection01
350
BB
  3
Grid/IsometricProjection02
350
BC
  3
Grid/IsometricProjection03
350
BD
  3
Grid/MetaGridSpacingX00
350
BE
  3
Grid/MetaGridSpacingX01
350
BF
  3
Grid/MetaGridSpacingX02
350
C0
  3
Grid/MetaGridSpacingX03
350
C1
  3
Grid/MetaGridSpacingY00
350
C2
  3
Grid/MetaGridSpacingY01
350
C3
  3
Grid/MetaGridSpacingY02
350
C4
  3
Grid/MetaGridSpacingY03
350
C5
  3
MultiPageSettings/Columns
350
C6
  3
MultiPageSettings/GlueMarginsBottom
350
C7
  3
MultiPageSettings/GlueMarginsLeft
350
C8
  3
MultiPageSettings/GlueMarginsRight
350
C9
  3
MultiPageSettings/GlueMarginsTop
350
CA
  3
MultiPageSettings/PrintCropMarks
350
CB
  3
MultiPageSettings/Rows
350
CC
  3
PageSettings/OffsetX
350
CD
  3
PageSettings/OffsetY
350
CE
  3
PageSettings/PageOrientation
350
CF
  3
PageSettings/PaperHeight
350
D0
  3
PageSettings/PaperSizeAccepted
350
D1
  3
PageSettings/PaperSizeName
350
D2
  3
PageSettings/PaperWidth
350
D3
  3
PageSettings/PointSize
350
D4
  3
PageSettings/Scale
350
D5
  3
PageSettings/ShowPaperBorders
350
D6
  3
PageTagSettings/EnablePageTags
350
D7
  3
PageTagSettings/TagAlignment
350
D8
  3
PageTagSettings/TagFont
350
D9
  3
PageTagSettings/TagPosition
350
DA
  3
QCADVersion
350
DB
  3
UnitSettings/PaperUnit
350
DC
  3
ViewportCenter
350
DD
  3
ViewportHeight
350
DE
  3
ViewportWidth
350
DF
  0
XRECORD
  5
A0
330
9D
100
AcDbXrecord
280
1
1000
White
  0
XRECORD
  5
A1
330
9D
100
AcDbXrecord
280
1
1000
FullColor
  0
XRECORD
  5
A2
330
9D
100
AcDbXrecord
280
1
 90
0
  0
XRECORD
  5
A3
330
9D
100
AcDbXrecord
280
1
 90
0
  0
XRECORD
  5
A4
330
9D
100
AcDbXrecord
280
1
 90
46
  0
XRECORD
  5
A5
330
9D
100
AcDbXrecord
280
1
1000
DejaVu Sans
  0
XRECORD
  5
A6
330
9D
100
AcDbXrecord
280
1
1000
By Layer
  0
XRECORD
  5
A7
330
9D
100
AcDbXrecord
280
1
290
0
  0
XRECORD
  5
A8
330
9D
100
AcDbXrecord
280
1
 90
3
  0
XRECORD
  5
A9
330
9D
100
AcDbXrecord
280
1
 90
4
  0
XRECORD
  5
AA
330
9D
100
AcDbXrecord
280
1
290
1
  0
XRECORD
  5
AB
330
9D
100
AcDbXrecord
280
1
290
1
  0
XRECORD
  5
AC
330
9D
100
AcDbXrecord
280
1
290
1
  0
XRECORD
  5
AD
330
9D
100
AcDbXrecord
280
1
290
1
  0
XRECORD
  5
AE
330
9D
100
AcDbXrecord
280
1
1000
auto
  0
XRECORD
  5
AF
330
9D
100
AcDbXrecord
280
1
1000
auto
  0
XRECORD
  5
B0
330
9D
100
AcDbXrecord
280
1
1000
auto
  0
XRECORD
  5
B1
330
9D
100
AcDbXrecord
280
1
1000
auto
  0
XRECORD
  5
B2
330
9D
100
AcDbXrecord
280
1
1000
auto
  0
XRECORD
  5
B3
330
9D
100
AcDbXrecord
280
1
1000
auto
  0
XRECORD
  5
B4
330
9D
100
AcDbXrecord
280
1
1000
auto
  0
XRECORD
  5
B5
330
9D
100
AcDbXrecord
280
1
1000
auto
  0
XRECORD
  5
B6
330
9D
100
AcDbXrecord
280
1
290
0
  0
XRECORD
  5
B7
330
9D
100
AcDbXrecord
280
1
290
0
  0
XRECORD
  5
B8
330
9D
100
AcDbXrecord
280
1
290
0
  0
XRECORD
  5
B9
330
9D
100
AcDbXrecord
280
1
290
0
  0
XRECORD
  5
BA
330
9D
100
AcDbXrecord
280
1
 90
65537
  0
XRECORD
  5
BB
330
9D
100
AcDbXrecord
280
1
 90
65537
  0
XRECORD
  5
BC
330
9D
100
AcDbXrecord
280
1
 90
65537
  0
XRECORD
  5
BD
330
9D
100
AcDbXrecord
280
1
 90
65537
  0
XRECORD
  5
BE
330
9D
100
AcDbXrecord
280
1
1000
auto
  0
XRECORD
  5
BF
330
9D
100
AcDbXrecord
280
1
1000
auto
  0
XRECORD
  5
C0
330
9D
100
AcDbXrecord
280
1
1000
auto
  0
XRECORD
  5
C1
330
9D
100
AcDbXrecord
280
1
1000
auto
  0
XRECORD
  5
C2
330
9D
100
AcDbXrecord
280
1
1000
auto
  0
XRECORD
  5
C3
330
9D
100
AcDbXrecord
280
1
1000
auto
  0
XRECORD
  5
C4
330
9D
100
AcDbXrecord
280
1
1000
auto
  0
XRECORD
  5
C5
330
9D
100
AcDbXrecord
280
1
1000
auto
  0
XRECORD
  5
C6
330
9D
100
AcDbXrecord
280
1
 90
1
  0
XRECORD
  5
C7
330
9D
100
AcDbXrecord
280
1
 40
0.5
  0
XRECORD
  5
C8
330
9D
100
AcDbXrecord
280
1
 40
0.5
  0
XRECORD
  5
C9
330
9D
100
AcDbXrecord
280
1
 40
0.5
  0
XRECORD
  5
CA
330
9D
100
AcDbXrecord
280
1
 40
0.5
  0
XRECORD
  5
CB
330
9D
100
AcDbXrecord
280
1
290
0
  0
XRECORD
  5
CC
330
9D
100
AcDbXrecord
280
1
 90
1
  0
XRECORD
  5
CD
330
9D
100
AcDbXrecord
280
1
 40
9.8327486363842649
  0
XRECORD
  5
CE
330
9D
100
AcDbXrecord
280
1
 40
-15.4514621817851729
  0
XRECORD
  5
CF
330
9D
100
AcDbXrecord
280
1
1000
Portrait
  0
XRECORD
  5
D0
330
9D
100
AcDbXrecord
280
1
1000
9
  0
XRECORD
  5
D1
330
9D
100
AcDbXrecord
280
1
290
1
  0
XRECORD
  5
D2
330
9D
100
AcDbXrecord
280
1
1000
Custom
  0
XRECORD
  5
D3
330
9D
100
AcDbXrecord
280
1
1000
6.5
  0
XRECORD
  5
D4
330
9D
100
AcDbXrecord
280
1
1000
0.5
  0
XRECORD
  5
D5
330
9D
100
AcDbXrecord
280
1
1000
0.04
  0
XRECORD
  5
D6
330
9D
100
AcDbXrecord
280
1
290
0
  0
XRECORD
  5
D7
330
9D
100
AcDbXrecord
280
1
290
0
  0
XRECORD
  5
D8
330
9D
100
AcDbXrecord
280
1
1000
Inside
  0
XRECORD
  5
D9
330
9D
100
AcDbXrecord
280
1
1000
Arial,10,-1,5,50,0,0,0,0,0
  0
XRECORD
  5
DA
330
9D
100
AcDbXrecord
280
1
1000
TopLeft
  0
XRECORD
  5
DB
330
9D
100
AcDbXrecord
280
1
1000
3.32.6
  0
XRECORD
  5
DC
330
9D
100
AcDbXrecord
280
1
 90
1
  0
XRECORD
  5
DE
330
9D
100
AcDbXrecord
280
1
 40
51.2200403842360572
  0
XRECORD
  5
DF
330
9D
100
AcDbXrecord
280
1
 40
63.9440061125984869
  0
IMAGEDEF
  5
70
100
AcDbRasterImageDef
 90
0
  1
/home/means/Documents/TinyHomes/icons/Screw.png
 10
4.0
 20
9.0
 11
1.0
 21
1.0
280
1
281
0
  0
IMAGEDEF
  5
72
100
AcDbRasterImageDef
 90
0
  1
/home/means/Documents/TinyHomes/icons/Screw.png
 10
4.0
 20
9.0
 11
1.0
 21
1.0
280
1
281
0
  0
ENDSEC
  0
EOF
