999
dxflib 3.26.4.0
  0
SECTION
  2
HEADER
  9
$ACADVER
  1
AC1015
  9
$HANDSEED
  5
FFFF
  9
$DIMADEC
 70
0
  9
$DIMASZ
 40
2.5
  9
$DIMATFIT
 70
0
  9
$DIMAUNIT
 70
0
  9
$DIMAZIN
 70
2
  9
$DIMBLK
  1
0
  9
$DIMBLK1
  1
0
  9
$DIMBLK2
  1
0
  9
$DIMDEC
 70
4
  9
$DIMDLI
 40
5.0
  9
$DIMDSEP
 70
46
  9
$DIMEXE
 40
1.25
  9
$DIMEXO
 40
0.625
  9
$DIMGAP
 40
0.625
  9
$DIMLFAC
 40
0.0
  9
$DIMLUNIT
 70
2
  9
$DIMSCALE
 40
1.0
  9
$DIMTAD
 70
1
  9
$DIMTIH
 70
0
  9
$DIMTSZ
 40
0.0
  9
$DIMTXT
 40
2.5
  9
$DIMZIN
 70
8
  9
$DWGCODEPAGE
  3
ANSI_1252
  9
$INSUNITS
 70
1
  9
$LTSCALE
 40
1.0
  9
$MAXACTVP
 70
64
  9
$MEASUREMENT
 70
1
  9
$MIRRTEXT
 70
0
  9
$PDMODE
 70
0
  9
$PDSIZE
 40
0.0
  0
ENDSEC
  0
SECTION
  2
TABLES
  0
TABLE
  2
VPORT
  5
8
100
AcDbSymbolTable
 70
1
  0
VPORT
  5
30
100
AcDbSymbolTableRecord
100
AcDbViewportTableRecord
  2
*Active
 70
0
 10
0.0
 20
0.0
 11
1.0
 21
1.0
 12
286.3055555555554861
 22
148.5
 13
0.0
 23
0.0
 14
10.0
 24
10.0
 15
10.0
 25
10.0
 16
0.0
 26
0.0
 36
1.0
 17
0.0
 27
0.0
 37
0.0
 40
297.0
 41
1.92798353909465
 42
50.0
 43
0.0
 44
0.0
 50
0.0
 51
0.0
 71
0
 72
100
 73
1
 74
3
 75
1
 76
1
 77
0
 78
0
281
0
 65
1
110
0.0
120
0.0
130
0.0
111
1.0
121
0.0
131
0.0
112
0.0
122
1.0
132
0.0
 79
0
146
0.0
  0
ENDTAB
  0
TABLE
  2
LTYPE
  5
5
100
AcDbSymbolTable
 70
41
  0
LTYPE
  5
16
100
AcDbSymbolTableRecord
100
AcDbLinetypeTableRecord
  2
Continuous
 70
0
  3
Solid line
 72
65
 73
0
 40
0.0
  0
LTYPE
  5
31
100
AcDbSymbolTableRecord
100
AcDbLinetypeTableRecord
  2
ACAD_ISO06W100
 70
0
  3
ISO long-dash triple-dot ____ ... ____ ... ____
 72
65
 73
8
 40
36.0000000000000071
 49
24.0
 74
0
 49
-2.9500000000000002
 74
0
 49
0.1
 74
0
 49
-2.9000000000000004
 74
0
 49
0.1
 74
0
 49
-2.9000000000000004
 74
0
 49
0.1
 74
0
 49
-2.9500000000000002
 74
0
  0
LTYPE
  5
32
100
AcDbSymbolTableRecord
100
AcDbLinetypeTableRecord
  2
DASHEDX2
 70
0
  3
Dashed (2x) ____  ____  ____  ____  ____  ___
 72
65
 73
2
 40
1.5
 49
1.0
 74
0
 49
-0.5
 74
0
  0
LTYPE
  5
33
100
AcDbSymbolTableRecord
100
AcDbLinetypeTableRecord
  2
ACAD_ISO03W100
 70
0
  3
ISO dash space __    __    __    __    __    __
 72
65
 73
2
 40
30.0
 49
12.0
 74
0
 49
-18.0
 74
0
  0
LTYPE
  5
34
100
AcDbSymbolTableRecord
100
AcDbLinetypeTableRecord
  2
DIVIDEX2
 70
0
  3
Divide (2x) ________  .  .  ________  .  .  _
 72
65
 73
6
 40
2.5000000000000004
 49
1.0
 74
0
 49
-0.45
 74
0
 49
0.1
 74
0
 49
-0.4
 74
0
 49
0.1
 74
0
 49
-0.45
 74
0
  0
LTYPE
  5
35
100
AcDbSymbolTableRecord
100
AcDbLinetypeTableRecord
  2
BORDERX2
 70
0
  3
Border (2x) ____  ____  .  ____  ____  .  ___
 72
65
 73
6
 40
3.5000000000000004
 49
1.0
 74
0
 49
-0.5
 74
0
 49
1.0
 74
0
 49
-0.45
 74
0
 49
0.1
 74
0
 49
-0.45
 74
0
  0
LTYPE
  5
36
100
AcDbSymbolTableRecord
100
AcDbLinetypeTableRecord
  2
ACAD_ISO07W100
 70
0
  3
ISO dot . . . . . . . . . . . . . . . . . . . . 
 72
65
 73
2
 40
3.0
 49
0.1
 74
0
 49
-2.8999999999999999
 74
0
  0
LTYPE
  5
37
100
AcDbSymbolTableRecord
100
AcDbLinetypeTableRecord
  2
ACAD_ISO05W100
 70
0
  3
ISO long-dash double-dot ____ .. ____ .. ____ . 
 72
65
 73
6
 40
33.0000000000000071
 49
24.0
 74
0
 49
-2.9500000000000002
 74
0
 49
0.1
 74
0
 49
-2.9000000000000004
 74
0
 49
0.1
 74
0
 49
-2.9500000000000002
 74
0
  0
LTYPE
  5
38
100
AcDbSymbolTableRecord
100
AcDbLinetypeTableRecord
  2
ACAD_ISO10W100
 70
0
  3
ISO dash dot __ . __ . __ . __ . __ . __ . __ . 
 72
65
 73
4
 40
18.0
 49
12.0
 74
0
 49
-2.9500000000000002
 74
0
 49
0.1
 74
0
 49
-2.9500000000000002
 74
0
  0
LTYPE
  5
39
100
AcDbSymbolTableRecord
100
AcDbLinetypeTableRecord
  2
PHANTOM2
 70
0
  3
Phantom (.5x) ___ _ _ ___ _ _ ___ _ _ ___ _ _
 72
65
 73
6
 40
1.25
 49
0.625
 74
0
 49
-0.125
 74
0
 49
0.125
 74
0
 49
-0.125
 74
0
 49
0.125
 74
0
 49
-0.125
 74
0
  0
LTYPE
  5
3A
100
AcDbSymbolTableRecord
100
AcDbLinetypeTableRecord
  2
BORDER
 70
0
  3
Border __ __ . __ __ . __ __ . __ __ . __ __ .
 72
65
 73
6
 40
1.75
 49
0.5
 74
0
 49
-0.25
 74
0
 49
0.5
 74
0
 49
-0.2
 74
0
 49
0.1
 74
0
 49
-0.2
 74
0
  0
LTYPE
  5
3B
100
AcDbSymbolTableRecord
100
AcDbLinetypeTableRecord
  2
DOT
 70
0
  3
Dot . . . . . . . . . . . . . . . . . . . . . . . .
 72
65
 73
2
 40
0.25
 49
0.1
 74
0
 49
-0.15
 74
0
  0
LTYPE
  5
3C
100
AcDbSymbolTableRecord
100
AcDbLinetypeTableRecord
  2
ACAD_ISO15W100
 70
0
  3
ISO double-dash triple-dot __ __ . . . __ __ . .
 72
65
 73
10
 40
39.0000000000000071
 49
12.0
 74
0
 49
-3.0
 74
0
 49
12.0
 74
0
 49
-2.9500000000000002
 74
0
 49
0.1
 74
0
 49
-2.9000000000000004
 74
0
 49
0.1
 74
0
 49
-2.9000000000000004
 74
0
 49
0.1
 74
0
 49
-2.9500000000000002
 74
0
  0
LTYPE
  5
3D
100
AcDbSymbolTableRecord
100
AcDbLinetypeTableRecord
  2
CENTER2
 70
0
  3
Center (.5x) ___ _ ___ _ ___ _ ___ _ ___ _ ___
 72
65
 73
4
 40
1.125
 49
0.75
 74
0
 49
-0.125
 74
0
 49
0.125
 74
0
 49
-0.125
 74
0
  0
LTYPE
  5
3E
100
AcDbSymbolTableRecord
100
AcDbLinetypeTableRecord
  2
ACAD_ISO09W100
 70
0
  3
ISO long-dash double-short-dash ____ __ __ ____
 72
65
 73
6
 40
45.0
 49
24.0
 74
0
 49
-3.0
 74
0
 49
6.0
 74
0
 49
-3.0
 74
0
 49
6.0
 74
0
 49
-3.0
 74
0
  0
LTYPE
  5
3F
100
AcDbSymbolTableRecord
100
AcDbLinetypeTableRecord
  2
DIVIDE
 70
0
  3
Divide ____ . . ____ . . ____ . . ____ . . ____
 72
65
 73
6
 40
1.25
 49
0.5
 74
0
 49
-0.2
 74
0
 49
0.1
 74
0
 49
-0.15
 74
0
 49
0.1
 74
0
 49
-0.2
 74
0
  0
LTYPE
  5
40
100
AcDbSymbolTableRecord
100
AcDbLinetypeTableRecord
  2
DASHED2
 70
0
  3
Dashed (.5x) _ _ _ _ _ _ _ _ _ _ _ _ _ _ _ _ _ 
 72
65
 73
2
 40
0.375
 49
0.25
 74
0
 49
-0.125
 74
0
  0
LTYPE
  5
41
100
AcDbSymbolTableRecord
100
AcDbLinetypeTableRecord
  2
ACAD_ISO13W100
 70
0
  3
ISO double-dash double-dot __ __ . . __ __ . . _
 72
65
 73
8
 40
36.0000000000000071
 49
12.0
 74
0
 49
-3.0
 74
0
 49
12.0
 74
0
 49
-2.9500000000000002
 74
0
 49
0.1
 74
0
 49
-2.9000000000000004
 74
0
 49
0.1
 74
0
 49
-2.9500000000000002
 74
0
  0
LTYPE
  5
42
100
AcDbSymbolTableRecord
100
AcDbLinetypeTableRecord
  2
ACAD_ISO02W100
 70
0
  3
ISO dash __ __ __ __ __ __ __ __ __ __ __ __ __
 72
65
 73
2
 40
15.0
 49
12.0
 74
0
 49
-3.0
 74
0
  0
LTYPE
  5
43
100
AcDbSymbolTableRecord
100
AcDbLinetypeTableRecord
  2
DIVIDE2
 70
0
  3
Divide (.5x) __..__..__..__..__..__..__..__.._
 72
65
 73
6
 40
0.625
 49
0.25
 74
0
 49
-0.075
 74
0
 49
0.1
 74
0
 49
-0.025
 74
0
 49
0.1
 74
0
 49
-0.075
 74
0
  0
LTYPE
  5
44
100
AcDbSymbolTableRecord
100
AcDbLinetypeTableRecord
  2
DASHDOT
 70
0
  3
Dash dot __ . __ . __ . __ . __ . __ . __ . __
 72
65
 73
4
 40
1.0
 49
0.5
 74
0
 49
-0.2
 74
0
 49
0.1
 74
0
 49
-0.2
 74
0
  0
LTYPE
  5
14
100
AcDbSymbolTableRecord
100
AcDbLinetypeTableRecord
  2
BYBLOCK
 70
0
  3

 72
65
 73
0
 40
0.0
  0
LTYPE
  5
15
100
AcDbSymbolTableRecord
100
AcDbLinetypeTableRecord
  2
BYLAYER
 70
0
  3

 72
65
 73
0
 40
0.0
  0
LTYPE
  5
45
100
AcDbSymbolTableRecord
100
AcDbLinetypeTableRecord
  2
BORDER2
 70
0
  3
Border (.5x) __.__.__.__.__.__.__.__.__.__.__.
 72
65
 73
6
 40
0.8749999999999999
 49
0.25
 74
0
 49
-0.125
 74
0
 49
0.25
 74
0
 49
-0.075
 74
0
 49
0.1
 74
0
 49
-0.075
 74
0
  0
LTYPE
  5
46
100
AcDbSymbolTableRecord
100
AcDbLinetypeTableRecord
  2
DASHED
 70
0
  3
Dashed __ __ __ __ __ __ __ __ __ __ __ __ __ _
 72
65
 73
2
 40
0.75
 49
0.5
 74
0
 49
-0.25
 74
0
  0
LTYPE
  5
47
100
AcDbSymbolTableRecord
100
AcDbLinetypeTableRecord
  2
PHANTOMX2
 70
0
  3
Phantom (2x) ____________    ____    ____   _
 72
65
 73
6
 40
5.0
 49
2.5
 74
0
 49
-0.5
 74
0
 49
0.5
 74
0
 49
-0.5
 74
0
 49
0.5
 74
0
 49
-0.5
 74
0
  0
LTYPE
  5
48
100
AcDbSymbolTableRecord
100
AcDbLinetypeTableRecord
  2
DASHDOTX2
 70
0
  3
Dash dot (2x) ____  .  ____  .  ____  .  ___
 72
65
 73
4
 40
2.0
 49
1.0
 74
0
 49
-0.45
 74
0
 49
0.1
 74
0
 49
-0.45
 74
0
  0
LTYPE
  5
49
100
AcDbSymbolTableRecord
100
AcDbLinetypeTableRecord
  2
HIDDEN
 70
0
  3
Hidden __ __ __ __ __ __ __ __ __ __ __ __ __ __
 72
65
 73
2
 40
0.375
 49
0.25
 74
0
 49
-0.125
 74
0
  0
LTYPE
  5
4A
100
AcDbSymbolTableRecord
100
AcDbLinetypeTableRecord
  2
ACAD_ISO08W100
 70
0
  3
ISO long-dash short-dash ____ __ ____ __ ____ _
 72
65
 73
4
 40
36.0
 49
24.0
 74
0
 49
-3.0
 74
0
 49
6.0
 74
0
 49
-3.0
 74
0
  0
LTYPE
  5
4B
100
AcDbSymbolTableRecord
100
AcDbLinetypeTableRecord
  2
ACAD_ISO11W100
 70
0
  3
ISO double-dash dot __ __ . __ __ . __ __ . __ _
 72
65
 73
6
 40
33.0
 49
12.0
 74
0
 49
-3.0
 74
0
 49
12.0
 74
0
 49
-2.9500000000000002
 74
0
 49
0.1
 74
0
 49
-2.9500000000000002
 74
0
  0
LTYPE
  5
4C
100
AcDbSymbolTableRecord
100
AcDbLinetypeTableRecord
  2
ACAD_ISO14W100
 70
0
  3
ISO dash triple-dot __ . . . __ . . . __ . . . _
 72
65
 73
8
 40
24.0000000000000036
 49
12.0
 74
0
 49
-2.9500000000000002
 74
0
 49
0.1
 74
0
 49
-2.9000000000000004
 74
0
 49
0.1
 74
0
 49
-2.9000000000000004
 74
0
 49
0.1
 74
0
 49
-2.9500000000000002
 74
0
  0
LTYPE
  5
4D
100
AcDbSymbolTableRecord
100
AcDbLinetypeTableRecord
  2
PHANTOM
 70
0
  3
Phantom ______  __  __  ______  __  __  ______ 
 72
65
 73
6
 40
2.5
 49
1.25
 74
0
 49
-0.25
 74
0
 49
0.25
 74
0
 49
-0.25
 74
0
 49
0.25
 74
0
 49
-0.25
 74
0
  0
LTYPE
  5
4E
100
AcDbSymbolTableRecord
100
AcDbLinetypeTableRecord
  2
ACAD_ISO04W100
 70
0
  3
ISO long-dash dot ____ . ____ . ____ . ____ . _
 72
65
 73
4
 40
30.0
 49
24.0
 74
0
 49
-2.9500000000000002
 74
0
 49
0.1
 74
0
 49
-2.9500000000000002
 74
0
  0
LTYPE
  5
4F
100
AcDbSymbolTableRecord
100
AcDbLinetypeTableRecord
  2
CENTER
 70
0
  3
Center ____ _ ____ _ ____ _ ____ _ ____ _ ____
 72
65
 73
4
 40
2.0
 49
1.25
 74
0
 49
-0.25
 74
0
 49
0.25
 74
0
 49
-0.25
 74
0
  0
LTYPE
  5
50
100
AcDbSymbolTableRecord
100
AcDbLinetypeTableRecord
  2
DOTX2
 70
0
  3
Dot (2x) .  .  .  .  .  .  .  .  .  .  .  .  .  .
 72
65
 73
2
 40
0.5
 49
0.1
 74
0
 49
-0.4
 74
0
  0
LTYPE
  5
51
100
AcDbSymbolTableRecord
100
AcDbLinetypeTableRecord
  2
CENTERX2
 70
0
  3
Center (2x) ________  __  ________  __  _____
 72
65
 73
4
 40
4.0
 49
2.5
 74
0
 49
-0.5
 74
0
 49
0.5
 74
0
 49
-0.5
 74
0
  0
LTYPE
  5
52
100
AcDbSymbolTableRecord
100
AcDbLinetypeTableRecord
  2
ACAD_ISO12W100
 70
0
  3
ISO dash double-dot __ . . __ . . __ . . __ . . 
 72
65
 73
6
 40
21.0
 49
12.0
 74
0
 49
-2.9500000000000002
 74
0
 49
0.1
 74
0
 49
-2.9000000000000004
 74
0
 49
0.1
 74
0
 49
-2.9500000000000002
 74
0
  0
LTYPE
  5
53
100
AcDbSymbolTableRecord
100
AcDbLinetypeTableRecord
  2
HIDDEN2
 70
0
  3
Hidden (.5x) _ _ _ _ _ _ _ _ _ _ _ _ _ _ _ _ _ 
 72
65
 73
2
 40
0.1875
 49
0.125
 74
0
 49
-0.0625
 74
0
  0
LTYPE
  5
54
100
AcDbSymbolTableRecord
100
AcDbLinetypeTableRecord
  2
HIDDENX2
 70
0
  3
Hidden (2x) ____ ____ ____ ____ ____ ____ ____ 
 72
65
 73
2
 40
0.75
 49
0.5
 74
0
 49
-0.25
 74
0
  0
LTYPE
  5
55
100
AcDbSymbolTableRecord
100
AcDbLinetypeTableRecord
  2
DOT2
 70
0
  3
Dot (.5x) ........................................
 72
65
 73
2
 40
0.125
 49
0.1
 74
0
 49
-0.025
 74
0
  0
LTYPE
  5
56
100
AcDbSymbolTableRecord
100
AcDbLinetypeTableRecord
  2
DASHDOT2
 70
0
  3
Dash dot (.5x) _._._._._._._._._._._._._._._.
 72
65
 73
4
 40
0.5
 49
0.25
 74
0
 49
-0.075
 74
0
 49
0.1
 74
0
 49
-0.075
 74
0
  0
ENDTAB
  0
TABLE
  2
LAYER
  5
2
100
AcDbSymbolTable
 70
13
  0
LAYER
  5
57
100
AcDbSymbolTableRecord
100
AcDbLayerTableRecord
  2
step_05
 70
1
 62
7
420
0
  6
Continuous
370
25
390
F
  0
LAYER
  5
10
100
AcDbSymbolTableRecord
100
AcDbLayerTableRecord
  2
0
 70
1
 62
7
420
16777215
  6
Continuous
370
25
390
F
  0
LAYER
  5
58
100
AcDbSymbolTableRecord
100
AcDbLayerTableRecord
  2
Framing
 70
1
 62
7
420
0
  6
Continuous
370
25
390
F
  0
LAYER
  5
59
100
AcDbSymbolTableRecord
100
AcDbLayerTableRecord
  2
step_08
 70
1
 62
7
420
0
  6
Continuous
370
25
390
F
  0
LAYER
  5
5A
100
AcDbSymbolTableRecord
100
AcDbLayerTableRecord
  2
step_02
 70
1
 62
7
420
0
  6
Continuous
370
25
390
F
  0
LAYER
  5
5B
100
AcDbSymbolTableRecord
100
AcDbLayerTableRecord
  2
step_10
 70
1
 62
7
420
0
  6
Continuous
370
25
390
F
  0
LAYER
  5
5C
100
AcDbSymbolTableRecord
100
AcDbLayerTableRecord
  2
step_07
 70
1
 62
7
420
0
  6
Continuous
370
25
390
F
  0
LAYER
  5
5D
100
AcDbSymbolTableRecord
100
AcDbLayerTableRecord
  2
step_01
 70
1
 62
7
420
0
  6
Continuous
370
25
390
F
  0
LAYER
  5
5E
100
AcDbSymbolTableRecord
100
AcDbLayerTableRecord
  2
step_06
 70
1
 62
7
420
0
  6
Continuous
370
25
390
F
  0
LAYER
  5
5F
100
AcDbSymbolTableRecord
100
AcDbLayerTableRecord
  2
step_04
 70
0
 62
7
420
0
  6
Continuous
370
25
390
F
  0
LAYER
  5
60
100
AcDbSymbolTableRecord
100
AcDbLayerTableRecord
  2
step_09
 70
1
 62
7
420
0
  6
Continuous
370
25
390
F
  0
LAYER
  5
61
100
AcDbSymbolTableRecord
100
AcDbLayerTableRecord
  2
step_11
 70
1
 62
7
420
0
  6
Continuous
370
25
390
F
  0
LAYER
  5
62
100
AcDbSymbolTableRecord
100
AcDbLayerTableRecord
  2
step_03
 70
1
 62
7
420
0
  6
Continuous
370
25
390
F
  0
ENDTAB
  0
TABLE
  2
STYLE
  5
3
100
AcDbSymbolTable
 70
57
  0
STYLE
  5
63
100
AcDbSymbolTableRecord
100
AcDbTextStyleTableRecord
  2
Standard
 70
0
 40
0.0
 41
1.0
 50
0.0
 71
0
 42
2.5
  3

  4

1001
ACAD
1000
txt
1071
0
  0
STYLE
  5
64
100
AcDbSymbolTableRecord
100
AcDbTextStyleTableRecord
  2
textstyle0
 70
0
 40
0.0
 41
1.0
 50
0.0
 71
0
 42
3.0
  3

  4

1001
ACAD
1000
Liberation Sans
1071
0
  0
STYLE
  5
65
100
AcDbSymbolTableRecord
100
AcDbTextStyleTableRecord
  2
textstyle1
 70
0
 40
0.0
 41
1.0
 50
0.0
 71
0
 42
3.0
  3

  4

1001
ACAD
1000
Liberation Sans
1071
0
  0
STYLE
  5
66
100
AcDbSymbolTableRecord
100
AcDbTextStyleTableRecord
  2
textstyle2
 70
0
 40
0.0
 41
1.0
 50
0.0
 71
0
 42
3.0
  3

  4

1001
ACAD
1000
Liberation Sans
1071
0
  0
STYLE
  5
67
100
AcDbSymbolTableRecord
100
AcDbTextStyleTableRecord
  2
textstyle3
 70
0
 40
0.0
 41
1.0
 50
0.0
 71
0
 42
3.0
  3

  4

1001
ACAD
1000
Liberation Sans
1071
0
  0
STYLE
  5
68
100
AcDbSymbolTableRecord
100
AcDbTextStyleTableRecord
  2
textstyle4
 70
0
 40
0.0
 41
1.0
 50
0.0
 71
0
 42
3.0
  3

  4

1001
ACAD
1000
Liberation Sans
1071
0
  0
STYLE
  5
69
100
AcDbSymbolTableRecord
100
AcDbTextStyleTableRecord
  2
textstyle5
 70
0
 40
0.0
 41
1.0
 50
0.0
 71
0
 42
3.0
  3

  4

1001
ACAD
1000
Liberation Sans
1071
0
  0
STYLE
  5
6A
100
AcDbSymbolTableRecord
100
AcDbTextStyleTableRecord
  2
textstyle6
 70
0
 40
0.0
 41
1.0
 50
0.0
 71
0
 42
3.0
  3

  4

1001
ACAD
1000
Liberation Sans
1071
0
  0
STYLE
  5
6B
100
AcDbSymbolTableRecord
100
AcDbTextStyleTableRecord
  2
textstyle7
 70
0
 40
0.0
 41
1.0
 50
0.0
 71
0
 42
3.0
  3

  4

1001
ACAD
1000
textstyle34
1071
0
  0
STYLE
  5
6C
100
AcDbSymbolTableRecord
100
AcDbTextStyleTableRecord
  2
textstyle8
 70
0
 40
0.0
 41
1.0
 50
0.0
 71
0
 42
3.0
  3

  4

1001
ACAD
1000
textstyle33
1071
0
  0
STYLE
  5
6D
100
AcDbSymbolTableRecord
100
AcDbTextStyleTableRecord
  2
textstyle9
 70
0
 40
0.0
 41
1.0
 50
0.0
 71
0
 42
3.0
  3

  4

1001
ACAD
1000
Liberation Sans
1071
0
  0
STYLE
  5
6E
100
AcDbSymbolTableRecord
100
AcDbTextStyleTableRecord
  2
textstyle10
 70
0
 40
0.0
 41
1.0
 50
0.0
 71
0
 42
3.0
  3

  4

1001
ACAD
1000
Liberation Sans
1071
0
  0
STYLE
  5
6F
100
AcDbSymbolTableRecord
100
AcDbTextStyleTableRecord
  2
textstyle11
 70
0
 40
0.0
 41
1.0
 50
0.0
 71
0
 42
3.0
  3

  4

1001
ACAD
1000
textstyle30
1071
0
  0
STYLE
  5
70
100
AcDbSymbolTableRecord
100
AcDbTextStyleTableRecord
  2
textstyle12
 70
0
 40
0.0
 41
1.0
 50
0.0
 71
0
 42
3.0
  3

  4

1001
ACAD
1000
Liberation Sans
1071
0
  0
STYLE
  5
71
100
AcDbSymbolTableRecord
100
AcDbTextStyleTableRecord
  2
textstyle13
 70
0
 40
0.0
 41
1.0
 50
0.0
 71
0
 42
3.0
  3

  4

1001
ACAD
1000
textstyle51
1071
0
  0
STYLE
  5
72
100
AcDbSymbolTableRecord
100
AcDbTextStyleTableRecord
  2
textstyle14
 70
0
 40
0.0
 41
1.0
 50
0.0
 71
0
 42
3.0
  3

  4

1001
ACAD
1000
Liberation Sans
1071
0
  0
STYLE
  5
73
100
AcDbSymbolTableRecord
100
AcDbTextStyleTableRecord
  2
textstyle15
 70
0
 40
0.0
 41
1.0
 50
0.0
 71
0
 42
3.0
  3

  4

1001
ACAD
1000
Liberation Sans
1071
0
  0
STYLE
  5
74
100
AcDbSymbolTableRecord
100
AcDbTextStyleTableRecord
  2
textstyle16
 70
0
 40
0.0
 41
1.0
 50
0.0
 71
0
 42
3.0
  3

  4

1001
ACAD
1000
Liberation Sans
1071
0
  0
STYLE
  5
75
100
AcDbSymbolTableRecord
100
AcDbTextStyleTableRecord
  2
textstyle17
 70
0
 40
0.0
 41
1.0
 50
0.0
 71
0
 42
3.0
  3

  4

1001
ACAD
1000
Liberation Sans
1071
0
  0
STYLE
  5
76
100
AcDbSymbolTableRecord
100
AcDbTextStyleTableRecord
  2
textstyle18
 70
0
 40
0.0
 41
1.0
 50
0.0
 71
0
 42
3.0
  3

  4

1001
ACAD
1000
Liberation Sans
1071
0
  0
STYLE
  5
77
100
AcDbSymbolTableRecord
100
AcDbTextStyleTableRecord
  2
textstyle19
 70
0
 40
0.0
 41
1.0
 50
0.0
 71
0
 42
3.0
  3

  4

1001
ACAD
1000
Liberation Sans
1071
0
  0
STYLE
  5
78
100
AcDbSymbolTableRecord
100
AcDbTextStyleTableRecord
  2
textstyle20
 70
0
 40
0.0
 41
1.0
 50
0.0
 71
0
 42
3.0
  3

  4

1001
ACAD
1000
Liberation Sans
1071
0
  0
STYLE
  5
79
100
AcDbSymbolTableRecord
100
AcDbTextStyleTableRecord
  2
textstyle21
 70
0
 40
0.0
 41
1.0
 50
0.0
 71
0
 42
3.0
  3

  4

1001
ACAD
1000
Liberation Sans
1071
0
  0
STYLE
  5
7A
100
AcDbSymbolTableRecord
100
AcDbTextStyleTableRecord
  2
textstyle22
 70
0
 40
0.0
 41
1.0
 50
0.0
 71
0
 42
3.0
  3

  4

1001
ACAD
1000
Liberation Sans
1071
0
  0
STYLE
  5
7B
100
AcDbSymbolTableRecord
100
AcDbTextStyleTableRecord
  2
textstyle23
 70
0
 40
0.0
 41
1.0
 50
0.0
 71
0
 42
3.0
  3

  4

1001
ACAD
1000
Liberation Sans
1071
0
  0
STYLE
  5
7C
100
AcDbSymbolTableRecord
100
AcDbTextStyleTableRecord
  2
textstyle24
 70
0
 40
0.0
 41
1.0
 50
0.0
 71
0
 42
3.0
  3

  4

1001
ACAD
1000
Liberation Sans
1071
0
  0
STYLE
  5
7D
100
AcDbSymbolTableRecord
100
AcDbTextStyleTableRecord
  2
textstyle25
 70
0
 40
0.0
 41
1.0
 50
0.0
 71
0
 42
3.0
  3

  4

1001
ACAD
1000
Liberation Sans
1071
0
  0
STYLE
  5
7E
100
AcDbSymbolTableRecord
100
AcDbTextStyleTableRecord
  2
textstyle26
 70
0
 40
0.0
 41
1.0
 50
0.0
 71
0
 42
3.0
  3

  4

1001
ACAD
1000
Liberation Sans
1071
0
  0
STYLE
  5
7F
100
AcDbSymbolTableRecord
100
AcDbTextStyleTableRecord
  2
textstyle27
 70
0
 40
0.0
 41
1.0
 50
0.0
 71
0
 42
3.0
  3

  4

1001
ACAD
1000

1071
0
  0
STYLE
  5
80
100
AcDbSymbolTableRecord
100
AcDbTextStyleTableRecord
  2
textstyle28
 70
0
 40
0.0
 41
1.0
 50
0.0
 71
0
 42
3.0
  3

  4

1001
ACAD
1000
Liberation Sans
1071
0
  0
STYLE
  5
81
100
AcDbSymbolTableRecord
100
AcDbTextStyleTableRecord
  2
textstyle29
 70
0
 40
0.0
 41
1.0
 50
0.0
 71
0
 42
3.0
  3

  4

1001
ACAD
1000
Liberation Sans
1071
0
  0
STYLE
  5
82
100
AcDbSymbolTableRecord
100
AcDbTextStyleTableRecord
  2
textstyle30
 70
0
 40
0.0
 41
1.0
 50
0.0
 71
0
 42
3.0
  3

  4

1001
ACAD
1000
textstyle3
1071
0
  0
STYLE
  5
83
100
AcDbSymbolTableRecord
100
AcDbTextStyleTableRecord
  2
textstyle31
 70
0
 40
0.0
 41
1.0
 50
0.0
 71
0
 42
3.0
  3

  4

1001
ACAD
1000
Liberation Sans
1071
0
  0
STYLE
  5
84
100
AcDbSymbolTableRecord
100
AcDbTextStyleTableRecord
  2
textstyle32
 70
0
 40
0.0
 41
1.0
 50
0.0
 71
0
 42
3.0
  3

  4

1001
ACAD
1000
Liberation Sans
1071
0
  0
STYLE
  5
85
100
AcDbSymbolTableRecord
100
AcDbTextStyleTableRecord
  2
textstyle33
 70
0
 40
0.0
 41
1.0
 50
0.0
 71
0
 42
3.0
  3

  4

1001
ACAD
1000
Liberation Sans
1071
0
  0
STYLE
  5
86
100
AcDbSymbolTableRecord
100
AcDbTextStyleTableRecord
  2
textstyle34
 70
0
 40
0.0
 41
1.0
 50
0.0
 71
0
 42
3.0
  3

  4

1001
ACAD
1000
Liberation Sans
1071
0
  0
STYLE
  5
87
100
AcDbSymbolTableRecord
100
AcDbTextStyleTableRecord
  2
textstyle35
 70
0
 40
0.0
 41
1.0
 50
0.0
 71
0
 42
3.0
  3

  4

1001
ACAD
1000
Liberation Sans
1071
0
  0
STYLE
  5
88
100
AcDbSymbolTableRecord
100
AcDbTextStyleTableRecord
  2
textstyle36
 70
0
 40
0.0
 41
1.0
 50
0.0
 71
0
 42
2.0
  3

  4

1001
ACAD
1000
Liberation Sans
1071
0
  0
STYLE
  5
89
100
AcDbSymbolTableRecord
100
AcDbTextStyleTableRecord
  2
textstyle37
 70
0
 40
0.0
 41
1.0
 50
0.0
 71
0
 42
2.0
  3

  4

1001
ACAD
1000
Liberation Sans
1071
0
  0
STYLE
  5
8A
100
AcDbSymbolTableRecord
100
AcDbTextStyleTableRecord
  2
textstyle38
 70
0
 40
0.0
 41
1.0
 50
0.0
 71
0
 42
3.0
  3

  4

1001
ACAD
1000
Liberation Sans
1071
0
  0
STYLE
  5
8B
100
AcDbSymbolTableRecord
100
AcDbTextStyleTableRecord
  2
textstyle39
 70
0
 40
0.0
 41
1.0
 50
0.0
 71
0
 42
3.0
  3

  4

1001
ACAD
1000
Liberation Sans
1071
0
  0
STYLE
  5
8C
100
AcDbSymbolTableRecord
100
AcDbTextStyleTableRecord
  2
textstyle40
 70
0
 40
0.0
 41
1.0
 50
0.0
 71
0
 42
3.0
  3

  4

1001
ACAD
1000
Liberation Sans
1071
0
  0
STYLE
  5
8D
100
AcDbSymbolTableRecord
100
AcDbTextStyleTableRecord
  2
textstyle41
 70
0
 40
0.0
 41
1.0
 50
0.0
 71
0
 42
3.0
  3

  4

1001
ACAD
1000
Liberation Sans
1071
0
  0
STYLE
  5
8E
100
AcDbSymbolTableRecord
100
AcDbTextStyleTableRecord
  2
textstyle42
 70
0
 40
0.0
 41
1.0
 50
0.0
 71
0
 42
3.0
  3

  4

1001
ACAD
1000
Liberation Sans
1071
0
  0
STYLE
  5
8F
100
AcDbSymbolTableRecord
100
AcDbTextStyleTableRecord
  2
textstyle43
 70
0
 40
0.0
 41
1.0
 50
0.0
 71
0
 42
3.0
  3

  4

1001
ACAD
1000
Nimbus Sans [UKWN]
1071
0
  0
STYLE
  5
90
100
AcDbSymbolTableRecord
100
AcDbTextStyleTableRecord
  2
textstyle44
 70
0
 40
0.0
 41
1.0
 50
0.0
 71
0
 42
3.0
  3

  4

1001
ACAD
1000
Nimbus Sans [UKWN]
1071
0
  0
STYLE
  5
91
100
AcDbSymbolTableRecord
100
AcDbTextStyleTableRecord
  2
textstyle45
 70
0
 40
0.0
 41
1.0
 50
0.0
 71
0
 42
3.0
  3

  4

1001
ACAD
1000
Nimbus Sans [UKWN]
1071
0
  0
STYLE
  5
92
100
AcDbSymbolTableRecord
100
AcDbTextStyleTableRecord
  2
textstyle46
 70
0
 40
0.0
 41
1.0
 50
0.0
 71
0
 42
3.0
  3

  4

1001
ACAD
1000
Nimbus Sans [UKWN]
1071
0
  0
STYLE
  5
93
100
AcDbSymbolTableRecord
100
AcDbTextStyleTableRecord
  2
textstyle47
 70
0
 40
0.0
 41
1.0
 50
0.0
 71
0
 42
3.0
  3

  4

1001
ACAD
1000
Nimbus Sans [UKWN]
1071
0
  0
STYLE
  5
94
100
AcDbSymbolTableRecord
100
AcDbTextStyleTableRecord
  2
textstyle48
 70
0
 40
0.0
 41
1.0
 50
0.0
 71
0
 42
2.5
  3

  4

1001
ACAD
1000
Nimbus Sans [UKWN]
1071
0
  0
STYLE
  5
95
100
AcDbSymbolTableRecord
100
AcDbTextStyleTableRecord
  2
textstyle49
 70
0
 40
0.0
 41
1.0
 50
0.0
 71
0
 42
3.0
  3

  4

1001
ACAD
1000
Nimbus Sans [UKWN]
1071
0
  0
STYLE
  5
96
100
AcDbSymbolTableRecord
100
AcDbTextStyleTableRecord
  2
textstyle50
 70
0
 40
0.0
 41
1.0
 50
0.0
 71
0
 42
3.0
  3

  4

1001
ACAD
1000
Liberation Sans
1071
0
  0
STYLE
  5
97
100
AcDbSymbolTableRecord
100
AcDbTextStyleTableRecord
  2
textstyle51
 70
0
 40
0.0
 41
1.0
 50
0.0
 71
0
 42
3.0
  3

  4

1001
ACAD
1000
Liberation Sans
1071
0
  0
STYLE
  5
98
100
AcDbSymbolTableRecord
100
AcDbTextStyleTableRecord
  2
textstyle52
 70
0
 40
0.0
 41
1.0
 50
0.0
 71
0
 42
3.0
  3

  4

1001
ACAD
1000
Liberation Sans
1071
0
  0
STYLE
  5
99
100
AcDbSymbolTableRecord
100
AcDbTextStyleTableRecord
  2
textstyle53
 70
0
 40
0.0
 41
1.0
 50
0.0
 71
0
 42
3.0
  3

  4

1001
ACAD
1000

1071
0
  0
STYLE
  5
9A
100
AcDbSymbolTableRecord
100
AcDbTextStyleTableRecord
  2
textstyle54
 70
0
 40
0.0
 41
1.0
 50
0.0
 71
0
 42
3.0
  3

  4

1001
ACAD
1000
Liberation Sans
1071
0
  0
STYLE
  5
9B
100
AcDbSymbolTableRecord
100
AcDbTextStyleTableRecord
  2
textstyle55
 70
0
 40
0.0
 41
1.0
 50
0.0
 71
0
 42
3.0
  3

  4

1001
ACAD
1000

1071
0
  0
ENDTAB
  0
TABLE
  2
VIEW
  5
6
100
AcDbSymbolTable
 70
0
  0
ENDTAB
  0
TABLE
  2
UCS
  5
7
100
AcDbSymbolTable
 70
0
  0
ENDTAB
  0
TABLE
  2
APPID
  5
9
100
AcDbSymbolTable
 70
1
  0
APPID
  5
12
100
AcDbSymbolTableRecord
100
AcDbRegAppTableRecord
  2
ACAD
 70
0
  0
APPID
  5
9C
100
AcDbSymbolTableRecord
100
AcDbRegAppTableRecord
  2
QCAD
 70
0
  0
ENDTAB
  0
TABLE
  2
DIMSTYLE
  5
A
100
AcDbSymbolTable
 70
1
100
AcDbDimStyleTable
 71
0
  0
DIMSTYLE
105
27
100
AcDbSymbolTableRecord
100
AcDbDimStyleTableRecord
  2
Standard
 41
2.5
 42
0.625
 43
3.75
 44
1.25
 70
0
 73
0
 74
0
 77
1
 78
8
140
2.5
141
2.5
143
0.03937007874016
147
0.625
171
3
172
1
271
2
272
2
274
3
278
44
283
0
284
8
340
63
  0
ENDTAB
  0
TABLE
  2
BLOCK_RECORD
  5
1
100
AcDbSymbolTable
 70
1
  0
BLOCK_RECORD
  5
1F
100
AcDbSymbolTableRecord
100
AcDbBlockTableRecord
  2
*Model_Space
340
22
  0
BLOCK_RECORD
  5
1B
100
AcDbSymbolTableRecord
100
AcDbBlockTableRecord
  2
*Paper_Space
340
1E
  0
BLOCK_RECORD
  5
23
100
AcDbSymbolTableRecord
100
AcDbBlockTableRecord
  2
*Paper_Space0
340
26
  0
BLOCK_RECORD
  5
9D
100
AcDbSymbolTableRecord
100
AcDbBlockTableRecord
  2
noNail
340
0
  0
ENDTAB
  0
ENDSEC
  0
SECTION
  2
BLOCKS
  0
BLOCK
  5
20
100
AcDbEntity
  8
0
100
AcDbBlockBegin
  2
*Model_Space
 70
0
 10
0.0
 20
0.0
 30
0.0
  3
*Model_Space
  1

  0
ENDBLK
  5
21
100
AcDbEntity
  8
0
100
AcDbBlockEnd
  0
BLOCK
  5
1C
100
AcDbEntity
 67
1
  8
0
100
AcDbBlockBegin
  2
*Paper_Space
 70
0
 10
0.0
 20
0.0
 30
0.0
  3
*Paper_Space
  1

  0
ENDBLK
  5
1D
100
AcDbEntity
 67
1
  8
0
100
AcDbBlockEnd
  0
BLOCK
  5
24
100
AcDbEntity
  8
0
100
AcDbBlockBegin
  2
*Paper_Space0
 70
0
 10
0.0
 20
0.0
 30
0.0
  3
*Paper_Space0
  1

  0
ENDBLK
  5
25
100
AcDbEntity
  8
0
100
AcDbBlockEnd
  0
BLOCK
  5
9E
100
AcDbEntity
  8
0
100
AcDbBlockBegin
  2
noNail
 70
0
 10
0.0
 20
0.0
 30
0.0
  3
noNail
  1

  0
ARC
  5
9F
100
AcDbEntity
  8
step_04
 62
256
370
70
 48
1.0
  6
BYLAYER
100
AcDbCircle
 10
4.3655608016103251
 20
4.6821088153454458
 30
0.0
 40
5.3159532490555765
100
AcDbArc
 50
0.0
 51
0.0
  0
LINE
  5
A0
100
AcDbEntity
  8
step_04
 62
256
370
70
 48
1.0
  6
BYLAYER
100
AcDbLine
 10
8.3239703568428904
 20
8.3321681141798631
 30
0.0
 11
0.5179222725439719
 21
1.013998035149644
 31
0.0
  0
IMAGE
  5
A1
100
AcDbEntity
  8
step_04
 62
256
370
-1
 48
1.0
  6
BYLAYER
100
AcDbRasterImage
 90
0
 10
0.0
 20
0.0
 30
0.0
 11
0.15
 21
0.0
 31
0.0
 12
0.0
 22
0.15
 32
0.0
 13
8.0
 23
8.0
340
A2
 70
15
280
0
281
50
282
50
283
0
  0
ENDBLK
  5
A3
100
AcDbEntity
  8
0
100
AcDbBlockEnd
  0
ENDSEC
  0
SECTION
  2
ENTITIES
  0
IMAGE
  5
A4
100
AcDbEntity
  8
step_03
 62
256
370
-1
 48
1.0
  6
BYLAYER
100
AcDbRasterImage
 90
0
 10
51.0901256686828944
 20
-1.3709632668535359
 30
0.0
 11
-0.15
 21
0.0
 31
0.0
 12
-0.0
 22
-0.15
 32
0.0
 13
8.0
 23
8.0
340
A5
 70
15
280
0
281
50
282
50
283
0
  0
ARC
  5
A6
100
AcDbEntity
  8
step_03
 62
256
370
80
 48
1.0
  6
BYLAYER
100
AcDbCircle
 10
46.7245648670725728
 20
-6.0530720821988773
 30
0.0
 40
5.3159532490555765
100
AcDbArc
 50
0.0
 51
0.0
  0
LINE
  5
A7
100
AcDbEntity
  8
step_03
 62
256
370
80
 48
1.0
  6
BYLAYER
100
AcDbLine
 10
42.7661553118400022
 20
-9.7031313810332929
 30
0.0
 11
50.5722033961389243
 21
-2.3849613020030747
 31
0.0
  0
HATCH
  5
A8
100
AcDbEntity
  8
step_11
 62
252
420
10526884
370
-1
 48
1.0
  6
BYLAYER
100
AcDbHatch
 10
0.0
 20
0.0
 30
0.0
210
0.0
220
0.0
230
1.0
  2
SOLID
 70
1
 71
0
 91
2
 92
1
 93
4
 72
1
 10
92.5
 20
87.0
 11
92.5
 21
-5.0
 72
1
 10
92.5
 20
-5.0
 11
44.5
 21
-5.0
 72
1
 10
44.5
 20
-5.0
 11
44.5
 21
87.0
 72
1
 10
44.5
 20
87.0
 11
92.5
 21
87.0
 97
0
 92
1
 93
4
 72
1
 10
46.75
 20
1.5
 11
46.75
 21
81.75
 72
1
 10
46.75
 20
81.75
 11
84.75
 21
81.75
 72
1
 10
84.75
 20
81.75
 11
84.75
 21
1.5
 72
1
 10
84.75
 20
1.5
 11
46.75
 21
1.5
 97
0
 75
0
 76
1
 98
0
1001
ACAD
1010
0.0
1020
0.0
1030
0
  0
HATCH
  5
A9
100
AcDbEntity
  8
step_10
 62
252
420
10526884
370
-1
 48
1.0
  6
BYLAYER
100
AcDbHatch
 10
0.0
 20
0.0
 30
0.0
210
0.0
220
0.0
230
1.0
  2
SOLID
 70
1
 71
0
 91
2
 92
1
 93
4
 72
1
 10
92.5
 20
87.0
 11
92.5
 21
-5.0
 72
1
 10
92.5
 20
-5.0
 11
44.5
 21
-5.0
 72
1
 10
44.5
 20
-5.0
 11
44.5
 21
87.0
 72
1
 10
44.5
 20
87.0
 11
92.5
 21
87.0
 97
0
 92
1
 93
4
 72
1
 10
46.75
 20
1.5
 11
46.75
 21
81.75
 72
1
 10
46.75
 20
81.75
 11
84.75
 21
81.75
 72
1
 10
84.75
 20
81.75
 11
84.75
 21
1.5
 72
1
 10
84.75
 20
1.5
 11
46.75
 21
1.5
 97
0
 75
0
 76
1
 98
0
1001
ACAD
1010
0.0
1020
0.0
1030
0
  0
HATCH
  5
AA
100
AcDbEntity
  8
step_08
 62
9
420
12632256
370
-1
 48
1.0
  6
BYLAYER
100
AcDbHatch
 10
0.0
 20
0.0
 30
0.0
210
0.0
220
0.0
230
1.0
  2
SOLID
 70
1
 71
0
 91
3
 92
1
 93
4
 72
1
 10
18.25
 20
81.0000000000000142
 11
18.2500000000000142
 21
45.0000000000000071
 72
1
 10
18.2500000000000142
 20
45.0
 11
42.2500000000000071
 21
45.0
 72
1
 10
42.2500000000000071
 20
45.0000000000000071
 11
42.2499999999999929
 21
81.0
 72
1
 10
42.25
 20
81.0
 11
18.25
 21
81.0000000000000142
 97
0
 92
1
 93
4
 72
1
 10
84.75
 20
81.75
 11
84.75
 21
1.5
 72
1
 10
84.75
 20
1.5
 11
46.75
 21
1.5
 72
1
 10
46.75
 20
1.5
 11
46.75
 21
81.75
 72
1
 10
46.75
 20
81.75
 11
84.75
 21
81.75
 97
0
 92
1
 93
4
 72
1
 10
-3.0
 20
-5.0
 11
-3.0
 21
87.0
 72
1
 10
-3.0
 20
87.0
 11
93.0
 21
87.0
 72
1
 10
93.0
 20
87.0
 11
93.0
 21
-5.0
 72
1
 10
93.0
 20
-5.0
 11
-3.0
 21
-5.0
 97
0
 75
0
 76
1
 98
0
1001
ACAD
1010
0.0
1020
0.0
1030
0
  0
HATCH
  5
AB
100
AcDbEntity
  8
step_05
 62
252
420
10526884
370
-1
 48
1.0
  6
BYLAYER
100
AcDbHatch
 10
0.0
 20
0.0
 30
0.0
210
0.0
220
0.0
230
1.0
  2
SOLID
 70
1
 71
0
 91
1
 92
1
 93
4
 72
1
 10
43.75
 20
85.5
 11
45.25
 21
85.5
 72
1
 10
45.25
 20
85.5
 11
45.25
 21
1.5
 72
1
 10
45.25
 20
1.5
 11
43.75
 21
1.5
 72
1
 10
43.75
 20
1.5
 11
43.75
 21
85.5
 97
0
 75
0
 76
1
 98
0
1001
ACAD
1010
0.0
1020
0.0
1030
0
  0
HATCH
  5
AC
100
AcDbEntity
  8
step_06
 62
252
420
10526884
370
-1
 48
1.0
  6
BYLAYER
100
AcDbHatch
 10
0.0
 20
0.0
 30
0.0
210
0.0
220
0.0
230
1.0
  2
SOLID
 70
1
 71
0
 91
1
 92
1
 93
4
 72
1
 10
43.75
 20
85.5
 11
45.25
 21
85.5
 72
1
 10
45.25
 20
85.5
 11
45.25
 21
1.5
 72
1
 10
45.25
 20
1.5
 11
43.75
 21
1.5
 72
1
 10
43.75
 20
1.5
 11
43.75
 21
85.5
 97
0
 75
0
 76
1
 98
0
1001
ACAD
1010
0.0
1020
0.0
1030
0
  0
HATCH
  5
AD
100
AcDbEntity
  8
step_10
 62
252
420
10526884
370
-1
 48
1.0
  6
BYLAYER
100
AcDbHatch
 10
0.0
 20
0.0
 30
0.0
210
0.0
220
0.0
230
1.0
  2
SOLID
 70
1
 71
0
 91
2
 92
1
 93
4
 72
1
 10
18.25
 20
81.0
 11
42.25
 21
81.0
 72
1
 10
42.25
 20
81.0
 11
42.25
 21
45.0
 72
1
 10
42.25
 20
45.0
 11
18.25
 21
45.0
 72
1
 10
18.25
 20
45.0
 11
18.25
 21
81.0
 97
0
 92
1
 93
4
 72
1
 10
44.5
 20
87.0
 11
44.5
 21
-5.0
 72
1
 10
44.5
 20
-5.0
 11
-3.5
 21
-5.0
 72
1
 10
-3.5
 20
-5.0
 11
-3.5
 21
87.0
 72
1
 10
-3.5
 20
87.0
 11
44.5
 21
87.0
 97
0
 75
0
 76
1
 98
0
1001
ACAD
1010
0.0
1020
0.0
1030
0
  0
HATCH
  5
AE
100
AcDbEntity
  8
step_11
 62
252
420
10526884
370
-1
 48
1.0
  6
BYLAYER
100
AcDbHatch
 10
0.0
 20
0.0
 30
0.0
210
0.0
220
0.0
230
1.0
  2
SOLID
 70
1
 71
0
 91
2
 92
1
 93
4
 72
1
 10
18.25
 20
81.0
 11
42.25
 21
81.0
 72
1
 10
42.25
 20
81.0
 11
42.25
 21
45.0
 72
1
 10
42.25
 20
45.0
 11
18.25
 21
45.0
 72
1
 10
18.25
 20
45.0
 11
18.25
 21
81.0
 97
0
 92
1
 93
4
 72
1
 10
44.5
 20
87.0
 11
44.5
 21
-5.0
 72
1
 10
44.5
 20
-5.0
 11
-3.5
 21
-5.0
 72
1
 10
-3.5
 20
-5.0
 11
-3.5
 21
87.0
 72
1
 10
-3.5
 20
87.0
 11
44.5
 21
87.0
 97
0
 75
0
 76
1
 98
0
1001
ACAD
1010
0.0
1020
0.0
1030
0
  0
HATCH
  5
AF
100
AcDbEntity
  8
step_09
 62
252
420
10526884
370
-1
 48
1.0
  6
BYLAYER
100
AcDbHatch
 10
0.0
 20
0.0
 30
0.0
210
0.0
220
0.0
230
1.0
  2
SOLID
 70
1
 71
0
 91
1
 92
1
 93
4
 72
1
 10
92.5
 20
87.0
 11
92.5
 21
-5.0
 72
1
 10
92.5
 20
-5.0
 11
44.5
 21
-5.0
 72
1
 10
44.5
 20
-5.0
 11
44.5
 21
87.0
 72
1
 10
44.5
 20
87.0
 11
92.5
 21
87.0
 97
0
 75
0
 76
1
 98
0
1001
ACAD
1010
0.0
1020
0.0
1030
0
  0
HATCH
  5
B0
100
AcDbEntity
  8
step_09
 62
252
420
10526884
370
-1
 48
1.0
  6
BYLAYER
100
AcDbHatch
 10
0.0
 20
0.0
 30
0.0
210
0.0
220
0.0
230
1.0
  2
SOLID
 70
1
 71
0
 91
2
 92
1
 93
4
 72
1
 10
18.25
 20
81.0
 11
42.25
 21
81.0
 72
1
 10
42.25
 20
81.0
 11
42.25
 21
45.0
 72
1
 10
42.25
 20
45.0
 11
18.25
 21
45.0
 72
1
 10
18.25
 20
45.0
 11
18.25
 21
81.0
 97
0
 92
1
 93
4
 72
1
 10
44.5
 20
87.0
 11
44.5
 21
-5.0
 72
1
 10
44.5
 20
-5.0
 11
-3.5
 21
-5.0
 72
1
 10
-3.5
 20
-5.0
 11
-3.5
 21
87.0
 72
1
 10
-3.5
 20
87.0
 11
44.5
 21
87.0
 97
0
 75
0
 76
1
 98
0
1001
ACAD
1010
0.0
1020
0.0
1030
0
  0
LINE
  5
B1
100
AcDbEntity
  8
step_08
 62
9
420
12632256
370
-1
 48
1.0
  6
BYLAYER
100
AcDbLine
 10
42.2500000000000071
 20
45.0
 30
0.0
 11
18.2500000000000142
 21
45.0
 31
0.0
  0
LINE
  5
B2
100
AcDbEntity
  8
step_08
 62
9
420
12632256
370
-1
 48
1.0
  6
BYLAYER
100
AcDbLine
 10
-3.0
 20
-5.0
 30
0.0
 11
-3.0
 21
87.0
 31
0.0
  0
LINE
  5
B3
100
AcDbEntity
  8
step_08
 62
9
420
12632256
370
-1
 48
1.0
  6
BYLAYER
100
AcDbLine
 10
-3.0
 20
87.0
 30
0.0
 11
93.0
 21
87.0
 31
0.0
  0
LINE
  5
B4
100
AcDbEntity
  8
step_08
 62
9
420
12632256
370
-1
 48
1.0
  6
BYLAYER
100
AcDbLine
 10
93.0
 20
87.0
 30
0.0
 11
93.0
 21
-5.0
 31
0.0
  0
LINE
  5
B5
100
AcDbEntity
  8
step_08
 62
9
420
12632256
370
-1
 48
1.0
  6
BYLAYER
100
AcDbLine
 10
-3.0
 20
-5.0
 30
0.0
 11
93.0
 21
-5.0
 31
0.0
  0
LINE
  5
B6
100
AcDbEntity
  8
step_08
 62
256
370
-1
 48
1.0
  6
BYLAYER
100
AcDbLine
 10
43.2500000000000071
 20
45.0000000000000071
 30
0.0
 11
43.2500000000000071
 21
81.0
 31
0.0
  0
HATCH
  5
B7
100
AcDbEntity
  8
step_07
 62
9
420
12632256
370
-1
 48
1.0
  6
BYLAYER
100
AcDbHatch
 10
0.0
 20
0.0
 30
0.0
210
0.0
220
0.0
230
1.0
  2
SOLID
 70
1
 71
0
 91
1
 92
1
 93
4
 72
1
 10
93.0
 20
87.0
 11
93.0
 21
-5.0
 72
1
 10
93.0
 20
-5.0
 11
-3.0
 21
-5.0
 72
1
 10
-3.0
 20
-5.0
 11
-3.0
 21
87.0
 72
1
 10
-3.0
 20
87.0
 11
93.0
 21
87.0
 97
0
 75
0
 76
1
 98
0
1001
ACAD
1010
0.0
1020
0.0
1030
0
  0
HATCH
  5
B8
100
AcDbEntity
  8
step_01
 62
7
420
0
370
-1
 48
1.0
  6
BYLAYER
100
AcDbHatch
 10
0.0
 20
0.0
 30
0.0
210
0.0
220
0.0
230
1.0
  2
SOLID
 70
1
 71
0
 91
1
 92
1
 93
4
 72
1
 10
0.0000000000000051
 20
85.5
 11
89.0
 21
85.5
 72
1
 10
89.0
 20
85.5
 11
89.0
 21
87.0
 72
1
 10
89.0
 20
87.0
 11
0.0
 21
87.0
 72
1
 10
0.0
 20
87.0
 11
0.0000000000000001
 21
85.5
 97
0
 75
0
 76
1
 98
0
1001
ACAD
1010
0.0
1020
0.0
1030
0
  0
HATCH
  5
B9
100
AcDbEntity
  8
step_01
 62
7
420
0
370
-1
 48
1.0
  6
BYLAYER
100
AcDbHatch
 10
0.0
 20
0.0
 30
0.0
210
0.0
220
0.0
230
1.0
  2
SOLID
 70
1
 71
0
 91
1
 92
1
 93
4
 72
1
 10
87.5
 20
1.5
 11
87.5
 21
85.4000000000000057
 72
1
 10
87.5
 20
85.4000000000000057
 11
89.0
 21
85.4000000000000057
 72
1
 10
89.0
 20
85.4000000000000057
 11
89.0
 21
1.5
 72
1
 10
89.0
 20
1.5
 11
87.5
 21
1.5
 97
0
 75
0
 76
1
 98
0
1001
ACAD
1010
0.0
1020
0.0
1030
0
  0
HATCH
  5
BA
100
AcDbEntity
  8
step_01
 62
7
420
0
370
-1
 48
1.0
  6
BYLAYER
100
AcDbHatch
 10
0.0
 20
0.0
 30
0.0
210
0.0
220
0.0
230
1.0
  2
SOLID
 70
1
 71
0
 91
1
 92
1
 93
4
 72
1
 10
89.0
 20
1.5
 11
89.0
 21
-0.0000000000000082
 72
1
 10
89.0
 20
-0.0000000000000082
 11
0.0000000000000001
 21
0.0
 72
1
 10
0.0000000000000001
 20
0.0
 11
0.0
 21
1.5
 72
1
 10
0.0
 20
1.5
 11
89.0
 21
1.5
 97
0
 75
0
 76
1
 98
0
1001
ACAD
1010
0.0
1020
0.0
1030
0
  0
HATCH
  5
BB
100
AcDbEntity
  8
step_01
 62
7
420
0
370
-1
 48
1.0
  6
BYLAYER
100
AcDbHatch
 10
0.0
 20
0.0
 30
0.0
210
0.0
220
0.0
230
1.0
  2
SOLID
 70
1
 71
0
 91
1
 92
1
 93
4
 72
1
 10
0.0
 20
1.5
 11
0.0000000000000051
 21
85.5
 72
1
 10
0.0000000000000051
 20
85.5
 11
1.5000000000000049
 21
85.5
 72
1
 10
1.5000000000000053
 20
85.5
 11
1.5
 21
1.5
 72
1
 10
1.5
 20
1.5
 11
0.0
 21
1.5
 97
0
 75
0
 76
1
 98
0
1001
ACAD
1010
0.0
1020
0.0
1030
0
  0
LEADER
  5
BC
100
AcDbEntity
  8
step_01
 62
256
370
-1
 48
1.0
  6
BYLAYER
100
AcDbLeader
  3
Standard
 71
1
 72
0
 73
3
 74
0
 75
0
 40
1.0
 41
10.0
 76
3
 10
40.0
 20
87.0
 10
44.0
 20
91.0
 10
50.0
 20
91.0
1001
ACAD
1000
DSTYLE
1002
{
1070
40
1040
1.0
1002
}
  0
MTEXT
  5
BD
100
AcDbEntity
  8
step_01
 62
256
370
-1
 48
1.0
  6
BYLAYER
100
AcDbMText
 10
56.0
 20
92.0
 30
0.0
 40
2.0
 41
0.0
 71
1
 72
1
  1
Top Plate
  7
textstyle37
 50
0.0
 73
2
 44
1.0
  0
LEADER
  5
BE
100
AcDbEntity
  8
step_01
 62
256
370
-1
 48
1.0
  6
BYLAYER
100
AcDbLeader
  3
Standard
 71
1
 72
0
 73
3
 74
0
 75
0
 40
1.0
 41
10.0
 76
3
 10
44.5
 20
-0.0000000000000041
 10
49.0917632321944168
 20
-4.2874968121957551
 10
56.7237578170319736
 20
-4.2874968121957551
1001
ACAD
1000
DSTYLE
1002
{
1070
40
1040
1.0
1002
}
  0
MTEXT
  5
BF
100
AcDbEntity
  8
step_01
 62
256
370
-1
 48
1.0
  6
BYLAYER
100
AcDbMText
 10
63.0
 20
-3.0
 30
0.0
 40
2.0
 41
0.0
 71
1
 72
1
  1
Bottom Plate
  7
textstyle36
 50
0.0
 73
2
 44
1.0
  0
MTEXT
  5
C0
100
AcDbEntity
  8
step_01
 62
256
370
-1
 48
1.0
  6
BYLAYER
100
AcDbMText
 10
38.2470191173769649
 20
-23.484229263810299
 30
0.0
 40
3.0
 41
0.0
 71
1
 72
1
  1
Step 1
  7
textstyle41
 50
0.0
 73
2
 44
1.0
  0
MTEXT
  5
C1
100
AcDbEntity
  8
step_02
 62
256
370
-1
 48
1.0
  6
BYLAYER
100
AcDbMText
 10
38.1744559404816783
 20
-23.7521845591289633
 30
0.0
 40
3.0
 41
0.0
 71
1
 72
1
  1
Step 2
  7
textstyle40
 50
0.0
 73
2
 44
1.0
  0
MTEXT
  5
C2
100
AcDbEntity
  8
step_03
 62
256
370
-1
 48
1.0
  6
BYLAYER
100
AcDbMText
 10
38.1744559404816783
 20
-23.7521845591289633
 30
0.0
 40
3.0
 41
0.0
 71
1
 72
1
  1
Step 3
  7
textstyle39
 50
0.0
 73
2
 44
1.0
  0
MTEXT
  5
C3
100
AcDbEntity
  8
step_04
 62
256
370
-1
 48
1.0
  6
BYLAYER
100
AcDbMText
 10
38.1744559404816783
 20
-23.7521845591289633
 30
0.0
 40
3.0
 41
0.0
 71
1
 72
1
  1
Step 4
  7
textstyle38
 50
0.0
 73
2
 44
1.0
  0
MTEXT
  5
C4
100
AcDbEntity
  8
step_05
 62
256
370
-1
 48
1.0
  6
BYLAYER
100
AcDbMText
 10
38.1744559404816783
 20
-23.7521845591289633
 30
0.0
 40
3.0
 41
0.0
 71
1
 72
1
  1
Step 5
  7
textstyle32
 50
0.0
 73
2
 44
1.0
  0
MTEXT
  5
C5
100
AcDbEntity
  8
step_07
 62
256
370
-1
 48
1.0
  6
BYLAYER
100
AcDbMText
 10
38.1744559404816783
 20
-23.7521845591289633
 30
0.0
 40
3.0
 41
0.0
 71
1
 72
1
  1
Step 7\P
  7
textstyle31
 50
0.0
 73
2
 44
1.0
  0
MTEXT
  5
C6
100
AcDbEntity
  8
step_06
 62
256
370
-1
 48
1.0
  6
BYLAYER
100
AcDbMText
 10
38.1744559404816783
 20
-23.7521845591289633
 30
0.0
 40
3.0
 41
0.0
 71
1
 72
1
  1
\fDejaVu Sans|b0|i0|c0|p0;Step 6\P
  7
textstyle30
 50
0.0
 73
2
 44
1.0
  0
MTEXT
  5
C7
100
AcDbEntity
  8
step_08
 62
256
370
-1
 48
1.0
  6
BYLAYER
100
AcDbMText
 10
38.1744559404816783
 20
-23.7521845591289633
 30
0.0
 40
3.0
 41
0.0
 71
1
 72
1
  1
Step 8
  7
textstyle29
 50
0.0
 73
2
 44
1.0
  0
MTEXT
  5
C8
100
AcDbEntity
  8
step_09
 62
256
370
-1
 48
1.0
  6
BYLAYER
100
AcDbMText
 10
38.1744559404816783
 20
-23.7521845591289633
 30
0.0
 40
3.0
 41
0.0
 71
1
 72
1
  1
Step 9
  7
textstyle35
 50
0.0
 73
2
 44
1.0
  0
MTEXT
  5
C9
100
AcDbEntity
  8
step_10
 62
256
370
-1
 48
1.0
  6
BYLAYER
100
AcDbMText
 10
38.1744559404816783
 20
-23.7521845591289633
 30
0.0
 40
3.0
 41
0.0
 71
1
 72
1
  1
Step 10
  7
textstyle34
 50
0.0
 73
2
 44
1.0
  0
MTEXT
  5
CA
100
AcDbEntity
  8
step_11
 62
256
370
-1
 48
1.0
  6
BYLAYER
100
AcDbMText
 10
38.1744559404816783
 20
-23.7521845591289633
 30
0.0
 40
3.0
 41
0.0
 71
1
 72
1
  1
Step 11
  7
textstyle33
 50
0.0
 73
2
 44
1.0
  0
LINE
  5
CB
100
AcDbEntity
  8
step_02
 62
256
370
-1
 48
1.0
  6
BYLAYER
100
AcDbLine
 10
40.0
 20
85.5
 30
0.0
 11
41.5
 21
85.5
 31
0.0
  0
HATCH
  5
CC
100
AcDbEntity
  8
step_02
 62
252
420
10526884
370
-1
 48
1.0
  6
BYLAYER
100
AcDbHatch
 10
0.0
 20
0.0
 30
0.0
210
0.0
220
0.0
230
1.0
  2
SOLID
 70
1
 71
0
 91
1
 92
1
 93
4
 72
1
 10
0.0
 20
85.5
 11
89.0
 21
85.5
 72
1
 10
89.0
 20
85.5
 11
89.0
 21
87.0
 72
1
 10
89.0
 20
87.0
 11
0.0
 21
87.0
 72
1
 10
0.0
 20
87.0
 11
0.0000000000000001
 21
85.5
 97
0
 75
0
 76
1
 98
0
1001
ACAD
1010
0.0
1020
0.0
1030
0
  0
LINE
  5
CD
100
AcDbEntity
  8
step_02
 62
256
370
-1
 48
1.0
  6
BYLAYER
100
AcDbLine
 10
87.5000000000000142
 20
1.5000000000000002
 30
0.0
 11
89.0
 21
1.5
 31
0.0
  0
HATCH
  5
CE
100
AcDbEntity
  8
step_02
 62
252
420
10526884
370
-1
 48
1.0
  6
BYLAYER
100
AcDbHatch
 10
0.0
 20
0.0
 30
0.0
210
0.0
220
0.0
230
1.0
  2
SOLID
 70
1
 71
0
 91
1
 92
1
 93
4
 72
1
 10
87.5000000000000142
 20
1.5000000000000002
 11
89.0
 21
1.5
 72
1
 10
89.0
 20
1.5
 11
89.0
 21
85.4000000000000057
 72
1
 10
89.0
 20
85.4000000000000057
 11
87.5
 21
85.4000000000000057
 72
1
 10
87.5
 20
85.4000000000000057
 11
87.5
 21
1.5
 97
0
 75
0
 76
1
 98
0
1001
ACAD
1010
0.0
1020
0.0
1030
0
  0
HATCH
  5
CF
100
AcDbEntity
  8
step_02
 62
252
420
10526884
370
-1
 48
1.0
  6
BYLAYER
100
AcDbHatch
 10
0.0
 20
0.0
 30
0.0
210
0.0
220
0.0
230
1.0
  2
SOLID
 70
1
 71
0
 91
1
 92
1
 93
4
 72
1
 10
0.0
 20
1.5
 11
0.0000000000000051
 21
85.5
 72
1
 10
0.0000000000000051
 20
85.5
 11
1.5000000000000049
 21
85.5
 72
1
 10
1.5000000000000053
 20
85.5
 11
1.5
 21
1.5
 72
1
 10
1.5
 20
1.5
 11
0.0
 21
1.5
 97
0
 75
0
 76
1
 98
0
1001
ACAD
1010
0.0
1020
0.0
1030
0
  0
HATCH
  5
D0
100
AcDbEntity
  8
step_02
 62
252
420
10526884
370
-1
 48
1.0
  6
BYLAYER
100
AcDbHatch
 10
0.0
 20
0.0
 30
0.0
210
0.0
220
0.0
230
1.0
  2
SOLID
 70
1
 71
0
 91
1
 92
1
 93
4
 72
1
 10
89.0
 20
1.5
 11
89.0
 21
-0.0000000000000082
 72
1
 10
89.0
 20
-0.0000000000000082
 11
0.0000000000000001
 21
0.0
 72
1
 10
0.0000000000000001
 20
0.0
 11
0.0
 21
1.5
 72
1
 10
0.0
 20
1.5
 11
89.0
 21
1.5
 97
0
 75
0
 76
1
 98
0
1001
ACAD
1010
0.0
1020
0.0
1030
0
  0
HATCH
  5
D1
100
AcDbEntity
  8
step_03
 62
252
420
10526884
370
-1
 48
1.0
  6
BYLAYER
100
AcDbHatch
 10
0.0
 20
0.0
 30
0.0
210
0.0
220
0.0
230
1.0
  2
SOLID
 70
1
 71
0
 91
1
 92
1
 93
4
 72
1
 10
0.0
 20
85.5
 11
89.0
 21
85.5
 72
1
 10
89.0
 20
85.5
 11
89.0
 21
87.0
 72
1
 10
89.0
 20
87.0
 11
0.0
 21
87.0
 72
1
 10
0.0
 20
87.0
 11
0.0000000000000001
 21
85.5
 97
0
 75
0
 76
1
 98
0
1001
ACAD
1010
0.0
1020
0.0
1030
0
  0
HATCH
  5
D2
100
AcDbEntity
  8
step_05
 62
252
420
10526884
370
-1
 48
1.0
  6
BYLAYER
100
AcDbHatch
 10
0.0
 20
0.0
 30
0.0
210
0.0
220
0.0
230
1.0
  2
SOLID
 70
1
 71
0
 91
1
 92
1
 93
4
 72
1
 10
0.0
 20
85.5
 11
89.0
 21
85.5
 72
1
 10
89.0
 20
85.5
 11
89.0
 21
87.0
 72
1
 10
89.0
 20
87.0
 11
0.0
 21
87.0
 72
1
 10
0.0
 20
87.0
 11
0.0000000000000001
 21
85.5
 97
0
 75
0
 76
1
 98
0
1001
ACAD
1010
0.0
1020
0.0
1030
0
  0
HATCH
  5
D3
100
AcDbEntity
  8
step_06
 62
252
420
10526884
370
-1
 48
1.0
  6
BYLAYER
100
AcDbHatch
 10
0.0
 20
0.0
 30
0.0
210
0.0
220
0.0
230
1.0
  2
SOLID
 70
1
 71
0
 91
1
 92
1
 93
4
 72
1
 10
0.0
 20
85.5
 11
89.0
 21
85.5
 72
1
 10
89.0
 20
85.5
 11
89.0
 21
87.0
 72
1
 10
89.0
 20
87.0
 11
0.0
 21
87.0
 72
1
 10
0.0
 20
87.0
 11
0.0000000000000001
 21
85.5
 97
0
 75
0
 76
1
 98
0
1001
ACAD
1010
0.0
1020
0.0
1030
0
  0
HATCH
  5
D4
100
AcDbEntity
  8
step_04
 62
252
420
10526884
370
-1
 48
1.0
  6
BYLAYER
100
AcDbHatch
 10
0.0
 20
0.0
 30
0.0
210
0.0
220
0.0
230
1.0
  2
SOLID
 70
1
 71
0
 91
1
 92
1
 93
4
 72
1
 10
0.0
 20
85.5
 11
89.0
 21
85.5
 72
1
 10
89.0
 20
85.5
 11
89.0
 21
87.0
 72
1
 10
89.0
 20
87.0
 11
0.0
 21
87.0
 72
1
 10
0.0
 20
87.0
 11
0.0000000000000001
 21
85.5
 97
0
 75
0
 76
1
 98
0
1001
ACAD
1010
0.0
1020
0.0
1030
0
  0
HATCH
  5
D5
100
AcDbEntity
  8
step_03
 62
252
420
10526884
370
-1
 48
1.0
  6
BYLAYER
100
AcDbHatch
 10
0.0
 20
0.0
 30
0.0
210
0.0
220
0.0
230
1.0
  2
SOLID
 70
1
 71
0
 91
1
 92
1
 93
4
 72
1
 10
0.0
 20
1.5
 11
0.0000000000000051
 21
85.5
 72
1
 10
0.0000000000000051
 20
85.5
 11
1.5000000000000049
 21
85.5
 72
1
 10
1.5000000000000053
 20
85.5
 11
1.5
 21
1.5
 72
1
 10
1.5
 20
1.5
 11
0.0
 21
1.5
 97
0
 75
0
 76
1
 98
0
1001
ACAD
1010
0.0
1020
0.0
1030
0
  0
HATCH
  5
D6
100
AcDbEntity
  8
step_05
 62
252
420
10526884
370
-1
 48
1.0
  6
BYLAYER
100
AcDbHatch
 10
0.0
 20
0.0
 30
0.0
210
0.0
220
0.0
230
1.0
  2
SOLID
 70
1
 71
0
 91
1
 92
1
 93
4
 72
1
 10
0.0
 20
1.5
 11
0.0000000000000051
 21
85.5
 72
1
 10
0.0000000000000051
 20
85.5
 11
1.5000000000000049
 21
85.5
 72
1
 10
1.5000000000000053
 20
85.5
 11
1.5
 21
1.5
 72
1
 10
1.5
 20
1.5
 11
0.0
 21
1.5
 97
0
 75
0
 76
1
 98
0
1001
ACAD
1010
0.0
1020
0.0
1030
0
  0
HATCH
  5
D7
100
AcDbEntity
  8
step_06
 62
252
420
10526884
370
-1
 48
1.0
  6
BYLAYER
100
AcDbHatch
 10
0.0
 20
0.0
 30
0.0
210
0.0
220
0.0
230
1.0
  2
SOLID
 70
1
 71
0
 91
1
 92
1
 93
4
 72
1
 10
0.0
 20
1.5
 11
0.0000000000000051
 21
85.5
 72
1
 10
0.0000000000000051
 20
85.5
 11
1.5000000000000049
 21
85.5
 72
1
 10
1.5000000000000053
 20
85.5
 11
1.5
 21
1.5
 72
1
 10
1.5
 20
1.5
 11
0.0
 21
1.5
 97
0
 75
0
 76
1
 98
0
1001
ACAD
1010
0.0
1020
0.0
1030
0
  0
HATCH
  5
D8
100
AcDbEntity
  8
step_04
 62
252
420
10526884
370
-1
 48
1.0
  6
BYLAYER
100
AcDbHatch
 10
0.0
 20
0.0
 30
0.0
210
0.0
220
0.0
230
1.0
  2
SOLID
 70
1
 71
0
 91
1
 92
1
 93
4
 72
1
 10
0.0
 20
1.5
 11
0.0000000000000051
 21
85.5
 72
1
 10
0.0000000000000051
 20
85.5
 11
1.5000000000000049
 21
85.5
 72
1
 10
1.5000000000000053
 20
85.5
 11
1.5
 21
1.5
 72
1
 10
1.5
 20
1.5
 11
0.0
 21
1.5
 97
0
 75
0
 76
1
 98
0
1001
ACAD
1010
0.0
1020
0.0
1030
0
  0
HATCH
  5
D9
100
AcDbEntity
  8
step_03
 62
252
420
10526884
370
-1
 48
1.0
  6
BYLAYER
100
AcDbHatch
 10
0.0
 20
0.0
 30
0.0
210
0.0
220
0.0
230
1.0
  2
SOLID
 70
1
 71
0
 91
1
 92
1
 93
4
 72
1
 10
89.0
 20
1.5
 11
89.0
 21
-0.0000000000000082
 72
1
 10
89.0
 20
-0.0000000000000082
 11
0.0000000000000001
 21
0.0
 72
1
 10
0.0000000000000001
 20
0.0
 11
0.0
 21
1.5
 72
1
 10
0.0
 20
1.5
 11
89.0
 21
1.5
 97
0
 75
0
 76
1
 98
0
1001
ACAD
1010
0.0
1020
0.0
1030
0
  0
HATCH
  5
DA
100
AcDbEntity
  8
step_05
 62
252
420
10526884
370
-1
 48
1.0
  6
BYLAYER
100
AcDbHatch
 10
0.0
 20
0.0
 30
0.0
210
0.0
220
0.0
230
1.0
  2
SOLID
 70
1
 71
0
 91
1
 92
1
 93
4
 72
1
 10
89.0
 20
1.5
 11
89.0
 21
-0.0000000000000082
 72
1
 10
89.0
 20
-0.0000000000000082
 11
0.0000000000000001
 21
0.0
 72
1
 10
0.0000000000000001
 20
0.0
 11
0.0
 21
1.5
 72
1
 10
0.0
 20
1.5
 11
89.0
 21
1.5
 97
0
 75
0
 76
1
 98
0
1001
ACAD
1010
0.0
1020
0.0
1030
0
  0
HATCH
  5
DB
100
AcDbEntity
  8
step_06
 62
252
420
10526884
370
-1
 48
1.0
  6
BYLAYER
100
AcDbHatch
 10
0.0
 20
0.0
 30
0.0
210
0.0
220
0.0
230
1.0
  2
SOLID
 70
1
 71
0
 91
1
 92
1
 93
4
 72
1
 10
89.0
 20
1.5
 11
89.0
 21
-0.0000000000000082
 72
1
 10
89.0
 20
-0.0000000000000082
 11
0.0000000000000001
 21
0.0
 72
1
 10
0.0000000000000001
 20
0.0
 11
0.0
 21
1.5
 72
1
 10
0.0
 20
1.5
 11
89.0
 21
1.5
 97
0
 75
0
 76
1
 98
0
1001
ACAD
1010
0.0
1020
0.0
1030
0
  0
HATCH
  5
DC
100
AcDbEntity
  8
step_04
 62
252
420
10526884
370
-1
 48
1.0
  6
BYLAYER
100
AcDbHatch
 10
0.0
 20
0.0
 30
0.0
210
0.0
220
0.0
230
1.0
  2
SOLID
 70
1
 71
0
 91
1
 92
1
 93
4
 72
1
 10
89.0
 20
1.5
 11
89.0
 21
-0.0000000000000082
 72
1
 10
89.0
 20
-0.0000000000000082
 11
0.0000000000000001
 21
0.0
 72
1
 10
0.0000000000000001
 20
0.0
 11
0.0
 21
1.5
 72
1
 10
0.0
 20
1.5
 11
89.0
 21
1.5
 97
0
 75
0
 76
1
 98
0
1001
ACAD
1010
0.0
1020
0.0
1030
0
  0
LINE
  5
DD
100
AcDbEntity
  8
step_03
 62
256
370
-1
 48
1.0
  6
BYLAYER
100
AcDbLine
 10
87.5000000000000142
 20
1.5
 30
0.0
 11
89.0
 21
1.5000000000000002
 31
0.0
  0
HATCH
  5
DE
100
AcDbEntity
  8
step_03
 62
252
420
10526884
370
-1
 48
1.0
  6
BYLAYER
100
AcDbHatch
 10
0.0
 20
0.0
 30
0.0
210
0.0
220
0.0
230
1.0
  2
SOLID
 70
1
 71
0
 91
1
 92
1
 93
4
 72
1
 10
87.5
 20
1.5
 11
87.5
 21
85.4000000000000057
 72
1
 10
87.5
 20
85.4000000000000057
 11
89.0
 21
85.4000000000000057
 72
1
 10
89.0
 20
85.4000000000000057
 11
89.0
 21
1.5
 72
1
 10
89.0
 20
1.5000000000000002
 11
87.5000000000000142
 21
1.5
 97
0
 75
0
 76
1
 98
0
1001
ACAD
1010
0.0
1020
0.0
1030
0
  0
HATCH
  5
DF
100
AcDbEntity
  8
step_05
 62
252
420
10526884
370
-1
 48
1.0
  6
BYLAYER
100
AcDbHatch
 10
0.0
 20
0.0
 30
0.0
210
0.0
220
0.0
230
1.0
  2
SOLID
 70
1
 71
0
 91
1
 92
1
 93
4
 72
1
 10
87.5
 20
1.5
 11
87.5
 21
85.4000000000000057
 72
1
 10
87.5
 20
85.4000000000000057
 11
89.0
 21
85.4000000000000057
 72
1
 10
89.0
 20
85.4000000000000057
 11
89.0
 21
1.5
 72
1
 10
89.0
 20
1.5000000000000002
 11
87.5000000000000142
 21
1.5
 97
0
 75
0
 76
1
 98
0
1001
ACAD
1010
0.0
1020
0.0
1030
0
  0
HATCH
  5
E0
100
AcDbEntity
  8
step_06
 62
252
420
10526884
370
-1
 48
1.0
  6
BYLAYER
100
AcDbHatch
 10
0.0
 20
0.0
 30
0.0
210
0.0
220
0.0
230
1.0
  2
SOLID
 70
1
 71
0
 91
1
 92
1
 93
4
 72
1
 10
87.5
 20
1.5
 11
87.5
 21
85.4000000000000057
 72
1
 10
87.5
 20
85.4000000000000057
 11
89.0
 21
85.4000000000000057
 72
1
 10
89.0
 20
85.4000000000000057
 11
89.0
 21
1.5
 72
1
 10
89.0
 20
1.5000000000000002
 11
87.5000000000000142
 21
1.5
 97
0
 75
0
 76
1
 98
0
1001
ACAD
1010
0.0
1020
0.0
1030
0
  0
HATCH
  5
E1
100
AcDbEntity
  8
step_04
 62
252
420
10526884
370
-1
 48
1.0
  6
BYLAYER
100
AcDbHatch
 10
0.0
 20
0.0
 30
0.0
210
0.0
220
0.0
230
1.0
  2
SOLID
 70
1
 71
0
 91
1
 92
1
 93
4
 72
1
 10
87.5
 20
1.5
 11
87.5
 21
85.4000000000000057
 72
1
 10
87.5
 20
85.4000000000000057
 11
89.0
 21
85.4000000000000057
 72
1
 10
89.0
 20
85.4000000000000057
 11
89.0
 21
1.5
 72
1
 10
89.0
 20
1.5000000000000002
 11
87.5000000000000142
 21
1.5
 97
0
 75
0
 76
1
 98
0
1001
ACAD
1010
0.0
1020
0.0
1030
0
  0
HATCH
  5
E2
100
AcDbEntity
  8
step_04
 62
252
420
10526884
370
-1
 48
1.0
  6
BYLAYER
100
AcDbHatch
 10
0.0
 20
0.0
 30
0.0
210
0.0
220
0.0
230
1.0
  2
SOLID
 70
1
 71
0
 91
1
 92
1
 93
5
 72
1
 10
16.75
 20
1.5
 11
16.75
 21
85.5
 72
1
 10
16.75
 20
85.5
 11
18.25
 21
85.5
 72
1
 10
18.25
 20
85.5
 11
18.25
 21
84.0
 72
1
 10
18.25
 20
84.0
 11
18.25
 21
1.5
 72
1
 10
18.25
 20
1.5
 11
16.75
 21
1.5
 97
0
 75
0
 76
1
 98
0
1001
ACAD
1010
0.0
1020
0.0
1030
0
  0
HATCH
  5
E3
100
AcDbEntity
  8
step_02
 62
256
370
-1
 48
1.0
  6
BYLAYER
100
AcDbHatch
 10
0.0
 20
0.0
 30
0.0
210
0.0
220
0.0
230
1.0
  2
SOLID
 70
1
 71
0
 91
1
 92
1
 93
5
 72
1
 10
16.7500000000000071
 20
1.5
 11
16.7500000000000071
 21
85.5
 72
1
 10
16.7500000000000071
 20
85.5
 11
18.2500000000000071
 21
85.5
 72
1
 10
18.2500000000000071
 20
85.5
 11
18.2500000000000071
 21
84.0
 72
1
 10
18.2500000000000071
 20
84.0
 11
18.2500000000000071
 21
1.5
 72
1
 10
18.2500000000000071
 20
1.5
 11
16.7500000000000071
 21
1.5
 97
0
 75
0
 76
1
 98
0
1001
ACAD
1010
0.0
1020
0.0
1030
0
  0
HATCH
  5
E4
100
AcDbEntity
  8
step_03
 62
252
420
10526884
370
-1
 48
1.0
  6
BYLAYER
100
AcDbHatch
 10
0.0
 20
0.0
 30
0.0
210
0.0
220
0.0
230
1.0
  2
SOLID
 70
1
 71
0
 91
1
 92
1
 93
5
 72
1
 10
16.7500000000000071
 20
1.5
 11
16.7500000000000071
 21
85.5
 72
1
 10
16.7500000000000071
 20
85.5
 11
18.2500000000000071
 21
85.5
 72
1
 10
18.2500000000000071
 20
85.5
 11
18.2500000000000071
 21
84.0
 72
1
 10
18.2500000000000071
 20
84.0
 11
18.2500000000000071
 21
1.5
 72
1
 10
18.2500000000000071
 20
1.5
 11
16.7500000000000071
 21
1.5
 97
0
 75
0
 76
1
 98
0
1001
ACAD
1010
0.0
1020
0.0
1030
0
  0
HATCH
  5
E5
100
AcDbEntity
  8
step_05
 62
252
420
10526884
370
-1
 48
1.0
  6
BYLAYER
100
AcDbHatch
 10
0.0
 20
0.0
 30
0.0
210
0.0
220
0.0
230
1.0
  2
SOLID
 70
1
 71
0
 91
1
 92
1
 93
5
 72
1
 10
16.7500000000000071
 20
1.5
 11
16.7500000000000071
 21
85.5
 72
1
 10
16.7500000000000071
 20
85.5
 11
18.2500000000000071
 21
85.5
 72
1
 10
18.2500000000000071
 20
85.5
 11
18.2500000000000071
 21
84.0
 72
1
 10
18.2500000000000071
 20
84.0
 11
18.2500000000000071
 21
1.5
 72
1
 10
18.2500000000000071
 20
1.5
 11
16.7500000000000071
 21
1.5
 97
0
 75
0
 76
1
 98
0
1001
ACAD
1010
0.0
1020
0.0
1030
0
  0
HATCH
  5
E6
100
AcDbEntity
  8
step_06
 62
252
420
10526884
370
-1
 48
1.0
  6
BYLAYER
100
AcDbHatch
 10
0.0
 20
0.0
 30
0.0
210
0.0
220
0.0
230
1.0
  2
SOLID
 70
1
 71
0
 91
1
 92
1
 93
5
 72
1
 10
16.7500000000000071
 20
1.5
 11
16.7500000000000071
 21
85.5
 72
1
 10
16.7500000000000071
 20
85.5
 11
18.2500000000000071
 21
85.5
 72
1
 10
18.2500000000000071
 20
85.5
 11
18.2500000000000071
 21
84.0
 72
1
 10
18.2500000000000071
 20
84.0
 11
18.2500000000000071
 21
1.5
 72
1
 10
18.2500000000000071
 20
1.5
 11
16.7500000000000071
 21
1.5
 97
0
 75
0
 76
1
 98
0
1001
ACAD
1010
0.0
1020
0.0
1030
0
  0
HATCH
  5
E7
100
AcDbEntity
  8
step_04
 62
252
420
10526884
370
-1
 48
1.0
  6
BYLAYER
100
AcDbHatch
 10
0.0
 20
0.0
 30
0.0
210
0.0
220
0.0
230
1.0
  2
SOLID
 70
1
 71
0
 91
1
 92
1
 93
4
 72
1
 10
42.25
 20
1.5
 11
43.75
 21
1.5
 72
1
 10
43.75
 20
1.5
 11
43.75
 21
85.5
 72
1
 10
43.75
 20
85.5
 11
42.25
 21
85.5
 72
1
 10
42.25
 20
85.5
 11
42.25
 21
1.5
 97
0
 75
0
 76
1
 98
0
1001
ACAD
1010
0.0
1020
0.0
1030
0
  0
HATCH
  5
E8
100
AcDbEntity
  8
step_02
 62
256
370
-1
 48
1.0
  6
BYLAYER
100
AcDbHatch
 10
0.0
 20
0.0
 30
0.0
210
0.0
220
0.0
230
1.0
  2
SOLID
 70
1
 71
0
 91
1
 92
1
 93
4
 72
1
 10
42.25
 20
1.5
 11
43.75
 21
1.5
 72
1
 10
43.75
 20
1.5
 11
43.75
 21
85.5
 72
1
 10
43.75
 20
85.5
 11
42.25
 21
85.5
 72
1
 10
42.25
 20
85.5
 11
42.25
 21
1.5
 97
0
 75
0
 76
1
 98
0
1001
ACAD
1010
0.0
1020
0.0
1030
0
  0
HATCH
  5
E9
100
AcDbEntity
  8
step_03
 62
252
420
10526884
370
-1
 48
1.0
  6
BYLAYER
100
AcDbHatch
 10
0.0
 20
0.0
 30
0.0
210
0.0
220
0.0
230
1.0
  2
SOLID
 70
1
 71
0
 91
1
 92
1
 93
4
 72
1
 10
42.25
 20
1.5
 11
43.75
 21
1.5
 72
1
 10
43.75
 20
1.5
 11
43.75
 21
85.5
 72
1
 10
43.75
 20
85.5
 11
42.25
 21
85.5
 72
1
 10
42.25
 20
85.5
 11
42.25
 21
1.5
 97
0
 75
0
 76
1
 98
0
1001
ACAD
1010
0.0
1020
0.0
1030
0
  0
HATCH
  5
EA
100
AcDbEntity
  8
step_05
 62
252
420
10526884
370
-1
 48
1.0
  6
BYLAYER
100
AcDbHatch
 10
0.0
 20
0.0
 30
0.0
210
0.0
220
0.0
230
1.0
  2
SOLID
 70
1
 71
0
 91
1
 92
1
 93
4
 72
1
 10
42.25
 20
1.5
 11
43.75
 21
1.5
 72
1
 10
43.75
 20
1.5
 11
43.75
 21
85.5
 72
1
 10
43.75
 20
85.5
 11
42.25
 21
85.5
 72
1
 10
42.25
 20
85.5
 11
42.25
 21
1.5
 97
0
 75
0
 76
1
 98
0
1001
ACAD
1010
0.0
1020
0.0
1030
0
  0
HATCH
  5
EB
100
AcDbEntity
  8
step_06
 62
252
420
10526884
370
-1
 48
1.0
  6
BYLAYER
100
AcDbHatch
 10
0.0
 20
0.0
 30
0.0
210
0.0
220
0.0
230
1.0
  2
SOLID
 70
1
 71
0
 91
1
 92
1
 93
4
 72
1
 10
42.25
 20
1.5
 11
43.75
 21
1.5
 72
1
 10
43.75
 20
1.5
 11
43.75
 21
85.5
 72
1
 10
43.75
 20
85.5
 11
42.25
 21
85.5
 72
1
 10
42.25
 20
85.5
 11
42.25
 21
1.5
 97
0
 75
0
 76
1
 98
0
1001
ACAD
1010
0.0
1020
0.0
1030
0
  0
HATCH
  5
EC
100
AcDbEntity
  8
step_04
 62
256
370
-1
 48
1.0
  6
BYLAYER
100
AcDbHatch
 10
0.0
 20
0.0
 30
0.0
210
0.0
220
0.0
230
1.0
  2
SOLID
 70
1
 71
0
 91
1
 92
1
 93
4
 72
1
 10
45.25
 20
1.5
 11
45.25
 21
85.5
 72
1
 10
45.25
 20
85.5
 11
46.75
 21
85.5
 72
1
 10
46.75
 20
85.5
 11
46.75
 21
1.5
 72
1
 10
46.75
 20
1.5
 11
45.25
 21
1.5
 97
0
 75
0
 76
1
 98
0
1001
ACAD
1010
0.0
1020
0.0
1030
0
  0
HATCH
  5
ED
100
AcDbEntity
  8
step_05
 62
252
420
10526884
370
-1
 48
1.0
  6
BYLAYER
100
AcDbHatch
 10
0.0
 20
0.0
 30
0.0
210
0.0
220
0.0
230
1.0
  2
SOLID
 70
1
 71
0
 91
1
 92
1
 93
4
 72
1
 10
45.25
 20
1.5
 11
45.25
 21
85.5
 72
1
 10
45.25
 20
85.5
 11
46.75
 21
85.5
 72
1
 10
46.75
 20
85.5
 11
46.75
 21
1.5
 72
1
 10
46.75
 20
1.5
 11
45.25
 21
1.5
 97
0
 75
0
 76
1
 98
0
1001
ACAD
1010
0.0
1020
0.0
1030
0
  0
HATCH
  5
EE
100
AcDbEntity
  8
step_06
 62
252
420
10526884
370
-1
 48
1.0
  6
BYLAYER
100
AcDbHatch
 10
0.0
 20
0.0
 30
0.0
210
0.0
220
0.0
230
1.0
  2
SOLID
 70
1
 71
0
 91
1
 92
1
 93
4
 72
1
 10
45.25
 20
1.5
 11
45.25
 21
85.5
 72
1
 10
45.25
 20
85.5
 11
46.75
 21
85.5
 72
1
 10
46.75
 20
85.5
 11
46.75
 21
1.5
 72
1
 10
46.75
 20
1.5
 11
45.25
 21
1.5
 97
0
 75
0
 76
1
 98
0
1001
ACAD
1010
0.0
1020
0.0
1030
0
  0
LINE
  5
EF
100
AcDbEntity
  8
step_03
 62
256
370
-1
 48
1.0
  6
BYLAYER
100
AcDbLine
 10
84.0
 20
85.5
 30
0.0
 11
85.5
 21
85.5
 31
0.0
  0
HATCH
  5
F0
100
AcDbEntity
  8
step_04
 62
256
370
-1
 48
1.0
  6
BYLAYER
100
AcDbHatch
 10
0.0
 20
0.0
 30
0.0
210
0.0
220
0.0
230
1.0
  2
SOLID
 70
1
 71
0
 91
1
 92
1
 93
4
 72
1
 10
84.75
 20
1.5
 11
84.75
 21
85.5
 72
1
 10
84.75
 20
85.5
 11
86.25
 21
85.5
 72
1
 10
86.25
 20
85.5
 11
86.25
 21
1.5
 72
1
 10
86.25
 20
1.5
 11
84.75
 21
1.5
 97
0
 75
0
 76
1
 98
0
1001
ACAD
1010
0.0
1020
0.0
1030
0
  0
HATCH
  5
F1
100
AcDbEntity
  8
step_05
 62
252
420
10526884
370
-1
 48
1.0
  6
BYLAYER
100
AcDbHatch
 10
0.0
 20
0.0
 30
0.0
210
0.0
220
0.0
230
1.0
  2
SOLID
 70
1
 71
0
 91
1
 92
1
 93
4
 72
1
 10
84.75
 20
1.5
 11
84.75
 21
85.5
 72
1
 10
84.75
 20
85.5
 11
86.25
 21
85.5
 72
1
 10
86.25
 20
85.5
 11
86.25
 21
1.5
 72
1
 10
86.25
 20
1.5
 11
84.75
 21
1.5
 97
0
 75
0
 76
1
 98
0
1001
ACAD
1010
0.0
1020
0.0
1030
0
  0
HATCH
  5
F2
100
AcDbEntity
  8
step_06
 62
252
420
10526884
370
-1
 48
1.0
  6
BYLAYER
100
AcDbHatch
 10
0.0
 20
0.0
 30
0.0
210
0.0
220
0.0
230
1.0
  2
SOLID
 70
1
 71
0
 91
1
 92
1
 93
4
 72
1
 10
84.75
 20
1.5
 11
84.75
 21
85.5
 72
1
 10
84.75
 20
85.5
 11
86.25
 21
85.5
 72
1
 10
86.25
 20
85.5
 11
86.25
 21
1.5
 72
1
 10
86.25
 20
1.5
 11
84.75
 21
1.5
 97
0
 75
0
 76
1
 98
0
1001
ACAD
1010
0.0
1020
0.0
1030
0
  0
LINE
  5
F3
100
AcDbEntity
  8
step_07
 62
256
370
-1
 48
1.0
  6
BYLAYER
100
AcDbLine
 10
-3.0
 20
-5.0
 30
0.0
 11
-3.0
 21
87.0
 31
0.0
  0
LINE
  5
F4
100
AcDbEntity
  8
step_09
 62
252
420
10526884
370
-1
 48
1.0
  6
BYLAYER
100
AcDbLine
 10
-3.5
 20
-5.0
 30
0.0
 11
-3.5
 21
87.0
 31
0.0
  0
LINE
  5
F5
100
AcDbEntity
  8
step_10
 62
256
370
-1
 48
1.0
  6
BYLAYER
100
AcDbLine
 10
-3.5
 20
-5.0
 30
0.0
 11
-3.5
 21
87.0
 31
0.0
  0
LINE
  5
F6
100
AcDbEntity
  8
step_11
 62
256
370
-1
 48
1.0
  6
BYLAYER
100
AcDbLine
 10
-3.5
 20
-5.0
 30
0.0
 11
-3.5
 21
87.0
 31
0.0
  0
LINE
  5
F7
100
AcDbEntity
  8
step_07
 62
256
370
-1
 48
1.0
  6
BYLAYER
100
AcDbLine
 10
-3.0
 20
87.0
 30
0.0
 11
93.0
 21
87.0
 31
0.0
  0
LINE
  5
F8
100
AcDbEntity
  8
step_09
 62
252
420
10526884
370
-1
 48
1.0
  6
BYLAYER
100
AcDbLine
 10
-3.5
 20
87.0
 30
0.0
 11
44.5
 21
87.0
 31
0.0
  0
LINE
  5
F9
100
AcDbEntity
  8
step_09
 62
256
370
-1
 48
1.0
  6
BYLAYER
100
AcDbLine
 10
44.5
 20
87.0
 30
0.0
 11
92.5
 21
87.0
 31
0.0
  0
LINE
  5
FA
100
AcDbEntity
  8
step_10
 62
256
370
-1
 48
1.0
  6
BYLAYER
100
AcDbLine
 10
-3.5
 20
87.0
 30
0.0
 11
44.5
 21
87.0
 31
0.0
  0
LINE
  5
FB
100
AcDbEntity
  8
step_11
 62
256
370
-1
 48
1.0
  6
BYLAYER
100
AcDbLine
 10
-3.5
 20
87.0
 30
0.0
 11
44.5
 21
87.0
 31
0.0
  0
LINE
  5
FC
100
AcDbEntity
  8
step_10
 62
256
370
-1
 48
1.0
  6
BYLAYER
100
AcDbLine
 10
44.5
 20
87.0
 30
0.0
 11
92.5
 21
87.0
 31
0.0
  0
LINE
  5
FD
100
AcDbEntity
  8
step_11
 62
256
370
-1
 48
1.0
  6
BYLAYER
100
AcDbLine
 10
44.5
 20
87.0
 30
0.0
 11
92.5
 21
87.0
 31
0.0
  0
LINE
  5
FE
100
AcDbEntity
  8
step_07
 62
256
370
-1
 48
1.0
  6
BYLAYER
100
AcDbLine
 10
93.0
 20
87.0
 30
0.0
 11
93.0
 21
-5.0
 31
0.0
  0
LINE
  5
FF
100
AcDbEntity
  8
step_09
 62
256
370
-1
 48
1.0
  6
BYLAYER
100
AcDbLine
 10
92.5
 20
87.0
 30
0.0
 11
92.5
 21
-5.0
 31
0.0
  0
LINE
  5
100
100
AcDbEntity
  8
step_10
 62
256
370
-1
 48
1.0
  6
BYLAYER
100
AcDbLine
 10
92.5
 20
87.0
 30
0.0
 11
92.5
 21
-5.0
 31
0.0
  0
LINE
  5
101
100
AcDbEntity
  8
step_11
 62
256
370
-1
 48
1.0
  6
BYLAYER
100
AcDbLine
 10
92.5
 20
87.0
 30
0.0
 11
92.5
 21
-5.0
 31
0.0
  0
LINE
  5
102
100
AcDbEntity
  8
step_07
 62
256
370
-1
 48
1.0
  6
BYLAYER
100
AcDbLine
 10
-3.0
 20
-5.0
 30
0.0
 11
93.0
 21
-5.0
 31
0.0
  0
LINE
  5
103
100
AcDbEntity
  8
step_09
 62
252
420
10526884
370
-1
 48
1.0
  6
BYLAYER
100
AcDbLine
 10
-3.5
 20
-5.0
 30
0.0
 11
44.5
 21
-5.0
 31
0.0
  0
LINE
  5
104
100
AcDbEntity
  8
step_09
 62
256
370
-1
 48
1.0
  6
BYLAYER
100
AcDbLine
 10
44.5
 20
-5.0
 30
0.0
 11
92.5
 21
-5.0
 31
0.0
  0
LINE
  5
105
100
AcDbEntity
  8
step_10
 62
256
370
-1
 48
1.0
  6
BYLAYER
100
AcDbLine
 10
-3.5
 20
-5.0
 30
0.0
 11
44.5
 21
-5.0
 31
0.0
  0
LINE
  5
106
100
AcDbEntity
  8
step_11
 62
256
370
-1
 48
1.0
  6
BYLAYER
100
AcDbLine
 10
-3.5
 20
-5.0
 30
0.0
 11
44.5
 21
-5.0
 31
0.0
  0
LINE
  5
107
100
AcDbEntity
  8
step_10
 62
256
370
-1
 48
1.0
  6
BYLAYER
100
AcDbLine
 10
44.5
 20
-5.0
 30
0.0
 11
92.5
 21
-5.0
 31
0.0
  0
LINE
  5
108
100
AcDbEntity
  8
step_11
 62
256
370
-1
 48
1.0
  6
BYLAYER
100
AcDbLine
 10
44.5
 20
-5.0
 30
0.0
 11
92.5
 21
-5.0
 31
0.0
  0
LEADER
  5
109
100
AcDbEntity
  8
step_07
 62
256
370
-1
 48
1.0
  6
BYLAYER
100
AcDbLeader
  3
Standard
 71
1
 72
0
 73
3
 74
0
 75
0
 40
1.0
 41
10.0
 76
3
 10
20.0
 20
87.0
 10
15.0
 20
100.0
 10
23.0
 20
100.0
1001
ACAD
1000
DSTYLE
1002
{
1070
40
1040
1.0
1002
}
  0
LEADER
  5
10A
100
AcDbEntity
  8
step_06
 62
256
370
-1
 48
1.0
  6
BYLAYER
100
AcDbLeader
  3
Standard
 71
0
 72
0
 73
3
 74
0
 75
0
 40
1.0
 41
10.0
 76
2
 10
58.1064480545527786
 20
94.8448181593132063
 10
58.1064480545527999
 20
94.8448181593132063
1001
ACAD
1000
DSTYLE
1002
{
1070
40
1040
1.0
1002
}
  0
MTEXT
  5
10B
100
AcDbEntity
  8
step_07
 62
256
370
-1
 48
1.0
  6
BYLAYER
100
AcDbMText
 10
24.0
 20
101.0
 30
0.0
 40
3.0
 41
0.0
 71
1
 72
1
  1
\fDejaVu Sans|b0|i0|c0|p0;\H2.5;Align Tyvek roll to top of wall,\P  even on both sides.  Roll out Tyvek,\P  and staple to frame.
  7
textstyle27
 50
0.0
 73
2
 44
1.0
  0
LINE
  5
10C
100
AcDbEntity
  8
step_08
 62
256
370
-1
 48
1.0
  6
BYLAYER
100
AcDbLine
 10
18.2500000000000142
 20
44.0
 30
0.0
 11
42.2500000000000142
 21
44.0
 31
0.0
  0
LINE
  5
10D
100
AcDbEntity
  8
step_08
 62
256
370
-1
 48
1.0
  6
BYLAYER
100
AcDbLine
 10
42.2499999999999929
 20
81.0
 30
0.0
 11
42.2499999999999929
 21
82.0
 31
0.0
  0
LINE
  5
10E
100
AcDbEntity
  8
step_08
 62
256
370
-1
 48
1.0
  6
BYLAYER
100
AcDbLine
 10
42.2500000000000071
 20
44.0
 30
0.0
 11
42.2500000000000071
 21
45.0
 31
0.0
  0
LINE
  5
10F
100
AcDbEntity
  8
step_08
 62
256
370
-1
 48
1.0
  6
BYLAYER
100
AcDbLine
 10
18.25
 20
82.0
 30
0.0
 11
18.25
 21
81.0
 31
0.0
  0
LINE
  5
110
100
AcDbEntity
  8
step_08
 62
256
370
-1
 48
1.0
  6
BYLAYER
100
AcDbLine
 10
18.2500000000000142
 20
44.9999999999999858
 30
0.0
 11
18.2500000000000142
 21
43.9999999999999858
 31
0.0
  0
LINE
  5
111
100
AcDbEntity
  8
step_08
 62
256
370
-1
 48
1.0
  6
BYLAYER
100
AcDbLine
 10
18.2499999999999964
 20
45.0000000000000071
 30
0.0
 11
17.2499999999999964
 21
45.0000000000000071
 31
0.0
  0
LINE
  5
112
100
AcDbEntity
  8
step_08
 62
256
370
-1
 48
1.0
  6
BYLAYER
100
AcDbLine
 10
43.25
 20
45.0000000000000071
 30
0.0
 11
42.25
 21
45.0000000000000071
 31
0.0
  0
LINE
  5
113
100
AcDbEntity
  8
step_08
 62
256
370
-1
 48
1.0
  6
BYLAYER
100
AcDbLine
 10
17.2499999999999964
 20
45.0000000000000071
 30
0.0
 11
17.25
 21
81.0000000000000284
 31
0.0
  0
LINE
  5
114
100
AcDbEntity
  8
step_08
 62
256
370
-1
 48
1.0
  6
BYLAYER
100
AcDbLine
 10
42.25
 20
81.0
 30
0.0
 11
43.2500000000000071
 21
81.0
 31
0.0
  0
LINE
  5
115
100
AcDbEntity
  8
step_08
 62
256
370
-1
 48
1.0
  6
BYLAYER
100
AcDbLine
 10
17.25
 20
81.0000000000000284
 30
0.0
 11
18.25
 21
81.0000000000000142
 31
0.0
  0
LEADER
  5
116
100
AcDbEntity
  8
step_08
 62
256
370
-1
 48
1.0
  6
BYLAYER
100
AcDbLeader
  3
Standard
 71
1
 72
0
 73
3
 74
0
 75
0
 40
1.0
 41
10.0
 76
3
 10
43.2500000000000213
 20
62.0
 10
48.2500000000000213
 20
67.0
 10
50.2500000000000213
 20
67.0
1001
ACAD
1000
DSTYLE
1002
{
1070
40
1040
1.0
1002
}
  0
MTEXT
  5
117
100
AcDbEntity
  8
step_08
 62
256
370
-1
 48
1.0
  6
BYLAYER
100
AcDbMText
 10
51.2500000000000213
 20
68.0
 30
0.0
 40
3.0
 41
0.0
 71
1
 72
1
  1
\H1.5;Apply peel-and-stick\P \fLiberation Sans|b1|i0|c0|p0;ABOVE\fLiberation Sans|b0|i0|c0|p0; (not on) jig brackets\P to all 4 sides of window opening.
  7
textstyle28
 50
0.0
 73
2
 44
1.0
  0
IMAGE
  5
118
100
AcDbEntity
  8
step_01
 62
256
370
-1
 48
1.0
  6
BYLAYER
100
AcDbRasterImage
 90
0
 10
-7.5572452598386679
 20
88.3137372105979637
 30
0.0
 11
0.2
 21
0.0
 31
0.0
 12
0.0
 22
0.2
 32
0.0
 13
11.0
 23
11.0
340
119
 70
15
280
0
281
50
282
50
283
0
  0
IMAGE
  5
11A
100
AcDbEntity
  8
step_01
 62
256
370
-1
 48
1.0
  6
BYLAYER
100
AcDbRasterImage
 90
0
 10
79.0256425493767978
 20
88.0987856656910679
 30
0.0
 11
0.2
 21
0.0
 31
0.0
 12
0.0
 22
0.2
 32
0.0
 13
11.0
 23
11.0
340
11B
 70
15
280
0
281
50
282
50
283
0
  0
IMAGE
  5
11C
100
AcDbEntity
  8
step_01
 62
256
370
-1
 48
1.0
  6
BYLAYER
100
AcDbRasterImage
 90
0
 10
97.2176369584144453
 20
-0.6266162016476515
 30
0.0
 11
-0.2
 21
0.0
 31
0.0
 12
-0.0
 22
-0.2
 32
0.0
 13
11.0
 23
11.0
340
11D
 70
15
280
0
281
50
282
50
283
0
  0
IMAGE
  5
11E
100
AcDbEntity
  8
step_01
 62
256
370
-1
 48
1.0
  6
BYLAYER
100
AcDbRasterImage
 90
0
 10
10.0070711906671761
 20
-0.3941951372553515
 30
0.0
 11
-0.2
 21
0.0
 31
0.0
 12
-0.0
 22
-0.2
 32
0.0
 13
11.0
 23
11.0
340
11F
 70
15
280
0
281
50
282
50
283
0
  0
IMAGE
  5
120
100
AcDbEntity
  8
step_03
 62
256
370
-1
 48
1.0
  6
BYLAYER
100
AcDbRasterImage
 90
0
 10
8.3623295496278622
 20
87.0
 30
0.0
 11
0.2
 21
0.0
 31
0.0
 12
0.0
 22
0.2
 32
0.0
 13
11.0
 23
11.0
340
121
 70
15
280
0
281
50
282
50
283
0
  0
IMAGE
  5
122
100
AcDbEntity
  8
step_03
 62
256
370
-1
 48
1.0
  6
BYLAYER
100
AcDbRasterImage
 90
0
 10
33.6788756007933472
 20
87.0048984378479133
 30
0.0
 11
0.2
 21
0.0
 31
0.0
 12
0.0
 22
0.2
 32
0.0
 13
11.0
 23
11.0
340
123
 70
15
280
0
281
50
282
50
283
0
  0
IMAGE
  5
124
100
AcDbEntity
  8
step_02
 62
256
370
-1
 48
1.0
  6
BYLAYER
100
AcDbRasterImage
 90
0
 10
26.2623988556110639
 20
87.1402824730208323
 30
0.0
 11
-0.12
 21
0.0
 31
0.0
 12
0.0
 22
0.12
 32
0.0
 13
6.0
 23
6.0
340
125
 70
15
280
0
281
50
282
50
283
0
  0
IMAGE
  5
126
100
AcDbEntity
  8
step_02
 62
256
370
-1
 48
1.0
  6
BYLAYER
100
AcDbRasterImage
 90
0
 10
33.671923190420344
 20
87.143668138666655
 30
0.0
 11
-0.12
 21
0.0
 31
0.0
 12
0.0
 22
0.12
 32
0.0
 13
6.0
 23
6.0
340
127
 70
15
280
0
281
50
282
50
283
0
  0
IMAGE
  5
128
100
AcDbEntity
  8
step_02
 62
256
370
-1
 48
1.0
  6
BYLAYER
100
AcDbRasterImage
 90
0
 10
41.0814475252296205
 20
87.1470538043124776
 30
0.0
 11
-0.12
 21
0.0
 31
0.0
 12
0.0
 22
0.12
 32
0.0
 13
6.0
 23
6.0
340
129
 70
15
280
0
281
50
282
50
283
0
  0
IMAGE
  5
12A
100
AcDbEntity
  8
step_02
 62
256
370
-1
 48
1.0
  6
BYLAYER
100
AcDbRasterImage
 90
0
 10
27.4309513303814434
 20
80.8597175269791819
 30
0.0
 11
-0.12
 21
0.0
 31
0.0
 12
-0.0
 22
-0.12
 32
0.0
 13
6.0
 23
6.0
340
12B
 70
15
280
0
281
50
282
50
283
0
  0
IMAGE
  5
12C
100
AcDbEntity
  8
step_02
 62
256
370
-1
 48
1.0
  6
BYLAYER
100
AcDbRasterImage
 90
0
 10
42.25
 20
80.8529461956875224
 30
0.0
 11
-0.12
 21
0.0
 31
0.0
 12
-0.0
 22
-0.12
 32
0.0
 13
6.0
 23
6.0
340
12D
 70
15
280
0
281
50
282
50
283
0
  0
IMAGE
  5
12E
100
AcDbEntity
  8
step_02
 62
256
370
-1
 48
1.0
  6
BYLAYER
100
AcDbRasterImage
 90
0
 10
34.8404756651907377
 20
80.8563318613333593
 30
0.0
 11
-0.12
 21
0.0
 31
0.0
 12
-0.0
 22
-0.12
 32
0.0
 13
6.0
 23
6.0
340
12F
 70
15
280
0
281
50
282
50
283
0
  0
IMAGE
  5
130
100
AcDbEntity
  8
step_04
 62
256
370
-1
 48
1.0
  6
BYLAYER
100
AcDbRasterImage
 90
0
 10
41.3795295427771919
 20
87.710546535175979
 30
0.0
 11
0.2
 21
0.0
 31
0.0
 12
0.0
 22
0.2
 32
0.0
 13
11.0
 23
11.0
340
131
 70
15
280
0
281
50
282
50
283
0
  0
IMAGE
  5
132
100
AcDbEntity
  8
step_04
 62
256
370
-1
 48
1.0
  6
BYLAYER
100
AcDbRasterImage
 90
0
 10
71.3967820629961807
 20
87.7992045732499093
 30
0.0
 11
0.2
 21
0.0
 31
0.0
 12
0.0
 22
0.2
 32
0.0
 13
11.0
 23
11.0
340
133
 70
15
280
0
281
50
282
50
283
0
  0
IMAGE
  5
134
100
AcDbEntity
  8
step_06
 62
256
370
-1
 48
1.0
  6
BYLAYER
100
AcDbRasterImage
 90
0
 10
76.0721924602546125
 20
87.8325836131526501
 30
0.0
 11
0.2
 21
0.0
 31
0.0
 12
0.0
 22
0.2
 32
0.0
 13
11.0
 23
11.0
340
135
 70
15
280
0
281
50
282
50
283
0
  0
IMAGE
  5
136
100
AcDbEntity
  8
step_06
 62
256
370
-1
 48
1.0
  6
BYLAYER
100
AcDbRasterImage
 90
0
 10
36.5760848040254913
 20
87.8769914321287615
 30
0.0
 11
0.2
 21
0.0
 31
0.0
 12
0.0
 22
0.2
 32
0.0
 13
11.0
 23
11.0
340
137
 70
15
280
0
281
50
282
50
283
0
  0
IMAGE
  5
138
100
AcDbEntity
  8
step_06
 62
256
370
-1
 48
1.0
  6
BYLAYER
100
AcDbRasterImage
 90
0
 10
94.6209397524904858
 20
-0.3178389037675585
 30
0.0
 11
-0.2
 21
0.0
 31
0.0
 12
-0.0
 22
-0.2
 32
0.0
 13
11.0
 23
11.0
340
139
 70
15
280
0
281
50
282
50
283
0
  0
IMAGE
  5
13A
100
AcDbEntity
  8
step_06
 62
256
370
-1
 48
1.0
  6
BYLAYER
100
AcDbRasterImage
 90
0
 10
55.1248320962613647
 20
-0.273431084789206
 30
0.0
 11
-0.2
 21
0.0
 31
0.0
 12
-0.0
 22
-0.2
 32
0.0
 13
11.0
 23
11.0
340
13B
 70
15
280
0
281
50
282
50
283
0
  0
IMAGE
  5
13C
100
AcDbEntity
  8
step_02
 62
256
370
-1
 48
1.0
  6
BYLAYER
100
AcDbRasterImage
 90
0
 10
16.5654958844217717
 20
34.989926580043381
 30
0.0
 11
0.0
 21
0.2
 31
0.0
 12
-0.2
 22
0.0
 32
0.0
 13
11.0
 23
11.0
340
13D
 70
15
280
0
281
50
282
50
283
0
  0
IMAGE
  5
13E
100
AcDbEntity
  8
step_03
 62
256
370
-1
 48
1.0
  6
BYLAYER
100
AcDbRasterImage
 90
0
 10
45.1905222725905986
 20
1.8486383989710848
 30
0.0
 11
0.0
 21
0.2
 31
0.0
 12
0.2
 22
-0.0
 32
0.0
 13
11.0
 23
11.0
340
13F
 70
15
280
0
281
50
282
50
283
0
  0
IMAGE
  5
140
100
AcDbEntity
  8
step_03
 62
256
370
-1
 48
1.0
  6
BYLAYER
100
AcDbRasterImage
 90
0
 10
45.3949245844732587
 20
15.4733351278027005
 30
0.0
 11
0.0
 21
0.2
 31
0.0
 12
0.2
 22
-0.0
 32
0.0
 13
11.0
 23
11.0
340
141
 70
15
280
0
281
50
282
50
283
0
  0
IMAGE
  5
142
100
AcDbEntity
  8
step_03
 62
256
370
-1
 48
1.0
  6
BYLAYER
100
AcDbRasterImage
 90
0
 10
45.5993268963559188
 20
29.0980318566344032
 30
0.0
 11
0.0
 21
0.2
 31
0.0
 12
0.2
 22
-0.0
 32
0.0
 13
11.0
 23
11.0
340
143
 70
15
280
0
281
50
282
50
283
0
  0
IMAGE
  5
144
100
AcDbEntity
  8
step_03
 62
256
370
-1
 48
1.0
  6
BYLAYER
100
AcDbRasterImage
 90
0
 10
8.5510103523593592
 20
-0.0000000000000044
 30
0.0
 11
0.2
 21
0.0
 31
0.0
 12
-0.0
 22
-0.2
 32
0.0
 13
11.0
 23
11.0
340
145
 70
15
280
0
281
50
282
50
283
0
  0
MTEXT
  5
146
100
AcDbEntity
  8
step_01
 62
256
370
-1
 48
1.0
  6
BYLAYER
100
AcDbMText
 10
4.5848375451263559
 20
95.1353790613718786
 30
0.0
 40
3.0
 41
0.0
 71
1
 72
1
  1
\H2;x2
  7
textstyle17
 50
0.0
 73
2
 44
1.0
  0
MTEXT
  5
147
100
AcDbEntity
  8
step_01
 62
256
370
-1
 48
1.0
  6
BYLAYER
100
AcDbMText
 10
90.7415764139591232
 20
94.7533092659446936
 30
0.0
 40
3.0
 41
0.0
 71
1
 72
1
  1
\H2;x2
  7
textstyle21
 50
0.0
 73
2
 44
1.0
  0
MTEXT
  5
148
100
AcDbEntity
  8
step_03
 62
256
370
-1
 48
1.0
  6
BYLAYER
100
AcDbMText
 10
45.9999999999999929
 20
95.0
 30
0.0
 40
3.0
 41
0.0
 71
1
 72
1
  1
\H2;x2 both studs
  7
textstyle20
 50
0.0
 73
2
 44
1.0
  0
MTEXT
  5
149
100
AcDbEntity
  8
step_03
 62
256
370
-1
 48
1.0
  6
BYLAYER
100
AcDbMText
 10
5.0983350687482911
 20
93.7137358085291083
 30
0.0
 40
3.0
 41
0.0
 71
1
 72
1
  1
\H2;x2
  7
textstyle19
 50
0.0
 73
2
 44
1.0
  0
MTEXT
  5
14A
100
AcDbEntity
  8
step_02
 62
256
370
-1
 48
1.0
  6
BYLAYER
100
AcDbMText
 10
56.0510148659630403
 20
45.5432666460235538
 30
0.0
 40
3.0
 41
0.0
 71
1
 72
1
  1
\H2;x2
  7
textstyle18
 50
0.0
 73
2
 44
1.0
  0
MTEXT
  5
14B
100
AcDbEntity
  8
step_02
 62
256
370
-1
 48
1.0
  6
BYLAYER
100
AcDbMText
 10
2.3146862926273895
 20
44.4967881089803896
 30
0.0
 40
3.0
 41
0.0
 71
1
 72
1
  1
\H2;x2
  7
textstyle25
 50
0.0
 73
2
 44
1.0
  0
MTEXT
  5
14C
100
AcDbEntity
  8
step_03
 62
256
370
-1
 48
1.0
  6
BYLAYER
100
AcDbMText
 10
21.2565690820992295
 20
-6.496410899761992
 30
0.0
 40
3.0
 41
0.0
 71
1
 72
1
  1
\H2;x2
  7
textstyle24
 50
0.0
 73
2
 44
1.0
  0
MTEXT
  5
14D
100
AcDbEntity
  8
step_02
 62
256
370
-1
 48
1.0
  6
BYLAYER
100
AcDbMText
 10
56.0510148659630403
 20
82.2301858751705055
 30
0.0
 40
3.0
 41
0.0
 71
1
 72
1
  1
\H2;x1 into each header\Pboth ends
  7
textstyle23
 50
0.0
 73
2
 44
1.0
  0
MTEXT
  5
14E
100
AcDbEntity
  8
step_01
 62
256
370
-1
 48
1.0
  6
BYLAYER
100
AcDbMText
 10
82.0675732049739111
 20
-6.6862214199759364
 30
0.0
 40
3.0
 41
0.0
 71
1
 72
1
  1
\H2;x2
  7
textstyle22
 50
0.0
 73
2
 44
1.0
  0
MTEXT
  5
14F
100
AcDbEntity
  8
step_01
 62
256
370
-1
 48
1.0
  6
BYLAYER
100
AcDbMText
 10
-4.6166766947452906
 20
-6.6862214199759364
 30
0.0
 40
3.0
 41
0.0
 71
1
 72
1
  1
\H2;x2
  7
textstyle26
 50
0.0
 73
2
 44
1.0
  0
HATCH
  5
150
100
AcDbEntity
  8
step_02
 62
256
370
-1
 48
1.0
  6
BYLAYER
100
AcDbHatch
 10
0.0
 20
0.0
 30
0.0
210
0.0
220
0.0
230
1.0
  2
SOLID
 70
1
 71
0
 91
1
 92
1
 93
4
 72
1
 10
18.25
 20
43.5
 11
42.25
 21
43.5
 72
1
 10
42.25
 20
43.5
 11
42.25
 21
45.0
 72
1
 10
42.25
 20
45.0
 11
18.25
 21
45.0
 72
1
 10
18.25
 20
45.0
 11
18.25
 21
43.5
 97
0
 75
0
 76
1
 98
0
1001
ACAD
1010
0.0
1020
0.0
1030
0
  0
HATCH
  5
151
100
AcDbEntity
  8
step_03
 62
252
420
10526884
370
-1
 48
1.0
  6
BYLAYER
100
AcDbHatch
 10
0.0
 20
0.0
 30
0.0
210
0.0
220
0.0
230
1.0
  2
SOLID
 70
1
 71
0
 91
1
 92
1
 93
4
 72
1
 10
18.25
 20
43.5
 11
42.25
 21
43.5
 72
1
 10
42.25
 20
43.5
 11
42.25
 21
45.0
 72
1
 10
42.25
 20
45.0
 11
18.25
 21
45.0
 72
1
 10
18.25
 20
45.0
 11
18.25
 21
43.5
 97
0
 75
0
 76
1
 98
0
1001
ACAD
1010
0.0
1020
0.0
1030
0
  0
HATCH
  5
152
100
AcDbEntity
  8
step_04
 62
252
420
10526884
370
-1
 48
1.0
  6
BYLAYER
100
AcDbHatch
 10
0.0
 20
0.0
 30
0.0
210
0.0
220
0.0
230
1.0
  2
SOLID
 70
1
 71
0
 91
1
 92
1
 93
4
 72
1
 10
18.25
 20
43.5
 11
42.25
 21
43.5
 72
1
 10
42.25
 20
43.5
 11
42.25
 21
45.0
 72
1
 10
42.25
 20
45.0
 11
18.25
 21
45.0
 72
1
 10
18.25
 20
45.0
 11
18.25
 21
43.5
 97
0
 75
0
 76
1
 98
0
1001
ACAD
1010
0.0
1020
0.0
1030
0
  0
HATCH
  5
153
100
AcDbEntity
  8
step_05
 62
252
420
10526884
370
-1
 48
1.0
  6
BYLAYER
100
AcDbHatch
 10
0.0
 20
0.0
 30
0.0
210
0.0
220
0.0
230
1.0
  2
SOLID
 70
1
 71
0
 91
1
 92
1
 93
4
 72
1
 10
18.25
 20
43.5
 11
42.25
 21
43.5
 72
1
 10
42.25
 20
43.5
 11
42.25
 21
45.0
 72
1
 10
42.25
 20
45.0
 11
18.25
 21
45.0
 72
1
 10
18.25
 20
45.0
 11
18.25
 21
43.5
 97
0
 75
0
 76
1
 98
0
1001
ACAD
1010
0.0
1020
0.0
1030
0
  0
HATCH
  5
154
100
AcDbEntity
  8
step_06
 62
252
420
10526884
370
-1
 48
1.0
  6
BYLAYER
100
AcDbHatch
 10
0.0
 20
0.0
 30
0.0
210
0.0
220
0.0
230
1.0
  2
SOLID
 70
1
 71
0
 91
1
 92
1
 93
4
 72
1
 10
18.2499999999999929
 20
43.5
 11
42.2499999999999929
 21
43.5
 72
1
 10
42.2499999999999929
 20
43.5
 11
42.2499999999999929
 21
45.0
 72
1
 10
42.2499999999999929
 20
45.0
 11
18.2499999999999929
 21
45.0
 72
1
 10
18.2499999999999929
 20
45.0
 11
18.2499999999999929
 21
43.5
 97
0
 75
0
 76
1
 98
0
1001
ACAD
1010
0.0
1020
0.0
1030
0
  0
HATCH
  5
155
100
AcDbEntity
  8
step_02
 62
256
370
-1
 48
1.0
  6
BYLAYER
100
AcDbHatch
 10
0.0
 20
0.0
 30
0.0
210
0.0
220
0.0
230
1.0
  2
SOLID
 70
1
 71
0
 91
1
 92
1
 93
8
 72
1
 10
42.25
 20
84.0
 11
42.25
 21
85.5
 72
1
 10
42.25
 20
85.5
 11
18.25
 21
85.5
 72
1
 10
18.25
 20
85.5
 11
18.25
 21
84.0
 72
1
 10
18.25
 20
84.0
 11
18.25
 21
82.5
 72
1
 10
18.25
 20
82.5
 11
18.25
 21
81.0
 72
1
 10
18.25
 20
81.0
 11
42.25
 21
81.0
 72
1
 10
42.25
 20
81.0
 11
42.25
 21
82.5
 72
1
 10
42.25
 20
82.5
 11
42.25
 21
84.0
 97
0
 75
0
 76
1
 98
0
1001
ACAD
1010
0.0
1020
0.0
1030
0
  0
HATCH
  5
156
100
AcDbEntity
  8
step_03
 62
252
420
10526884
370
-1
 48
1.0
  6
BYLAYER
100
AcDbHatch
 10
0.0
 20
0.0
 30
0.0
210
0.0
220
0.0
230
1.0
  2
SOLID
 70
1
 71
0
 91
1
 92
1
 93
8
 72
1
 10
42.25
 20
84.0
 11
42.25
 21
85.5
 72
1
 10
42.25
 20
85.5
 11
18.25
 21
85.5
 72
1
 10
18.25
 20
85.5
 11
18.25
 21
84.0
 72
1
 10
18.25
 20
84.0
 11
18.25
 21
82.5
 72
1
 10
18.25
 20
82.5
 11
18.25
 21
81.0
 72
1
 10
18.25
 20
81.0
 11
42.25
 21
81.0
 72
1
 10
42.25
 20
81.0
 11
42.25
 21
82.5
 72
1
 10
42.25
 20
82.5
 11
42.25
 21
84.0
 97
0
 75
0
 76
1
 98
0
1001
ACAD
1010
0.0
1020
0.0
1030
0
  0
HATCH
  5
157
100
AcDbEntity
  8
step_04
 62
252
420
10526884
370
-1
 48
1.0
  6
BYLAYER
100
AcDbHatch
 10
0.0
 20
0.0
 30
0.0
210
0.0
220
0.0
230
1.0
  2
SOLID
 70
1
 71
0
 91
1
 92
1
 93
8
 72
1
 10
42.25
 20
84.0
 11
42.25
 21
85.5
 72
1
 10
42.25
 20
85.5
 11
18.25
 21
85.5
 72
1
 10
18.25
 20
85.5
 11
18.25
 21
84.0
 72
1
 10
18.25
 20
84.0
 11
18.25
 21
82.5
 72
1
 10
18.25
 20
82.5
 11
18.25
 21
81.0
 72
1
 10
18.25
 20
81.0
 11
42.25
 21
81.0
 72
1
 10
42.25
 20
81.0
 11
42.25
 21
82.5
 72
1
 10
42.25
 20
82.5
 11
42.25
 21
84.0
 97
0
 75
0
 76
1
 98
0
1001
ACAD
1010
0.0
1020
0.0
1030
0
  0
HATCH
  5
158
100
AcDbEntity
  8
step_05
 62
252
420
10526884
370
-1
 48
1.0
  6
BYLAYER
100
AcDbHatch
 10
0.0
 20
0.0
 30
0.0
210
0.0
220
0.0
230
1.0
  2
SOLID
 70
1
 71
0
 91
1
 92
1
 93
8
 72
1
 10
42.25
 20
84.0
 11
42.25
 21
85.5
 72
1
 10
42.25
 20
85.5
 11
18.25
 21
85.5
 72
1
 10
18.25
 20
85.5
 11
18.25
 21
84.0
 72
1
 10
18.25
 20
84.0
 11
18.25
 21
82.5
 72
1
 10
18.25
 20
82.5
 11
18.25
 21
81.0
 72
1
 10
18.25
 20
81.0
 11
42.25
 21
81.0
 72
1
 10
42.25
 20
81.0
 11
42.25
 21
82.5
 72
1
 10
42.25
 20
82.5
 11
42.25
 21
84.0
 97
0
 75
0
 76
1
 98
0
1001
ACAD
1010
0.0
1020
0.0
1030
0
  0
HATCH
  5
159
100
AcDbEntity
  8
step_06
 62
252
420
10526884
370
-1
 48
1.0
  6
BYLAYER
100
AcDbHatch
 10
0.0
 20
0.0
 30
0.0
210
0.0
220
0.0
230
1.0
  2
SOLID
 70
1
 71
0
 91
1
 92
1
 93
8
 72
1
 10
42.25
 20
84.0
 11
42.25
 21
85.5
 72
1
 10
42.25
 20
85.5
 11
18.25
 21
85.5
 72
1
 10
18.25
 20
85.5
 11
18.25
 21
84.0
 72
1
 10
18.25
 20
84.0
 11
18.25
 21
82.5
 72
1
 10
18.25
 20
82.5
 11
18.25
 21
81.0
 72
1
 10
18.25
 20
81.0
 11
42.25
 21
81.0
 72
1
 10
42.25
 20
81.0
 11
42.25
 21
82.5
 72
1
 10
42.25
 20
82.5
 11
42.25
 21
84.0
 97
0
 75
0
 76
1
 98
0
1001
ACAD
1010
0.0
1020
0.0
1030
0
  0
IMAGE
  5
15A
100
AcDbEntity
  8
step_02
 62
256
370
-1
 48
1.0
  6
BYLAYER
100
AcDbRasterImage
 90
0
 10
16.8000000000000078
 20
72.6000000000000085
 30
0.0
 11
0.0
 21
0.2
 31
0.0
 12
-0.2
 22
0.0
 32
0.0
 13
11.0
 23
11.0
340
15B
 70
15
280
0
281
50
282
50
283
0
  0
IMAGE
  5
15C
100
AcDbEntity
  8
step_02
 62
256
370
-1
 48
1.0
  6
BYLAYER
100
AcDbRasterImage
 90
0
 10
44.3880317548105197
 20
72.7957803980549727
 30
0.0
 11
0.0000000000000001
 21
0.2
 31
0.0
 12
0.2
 22
-0.0
 32
0.0
 13
11.0
 23
11.0
340
15D
 70
15
280
0
281
50
282
50
283
0
  0
IMAGE
  5
15E
100
AcDbEntity
  8
step_02
 62
256
370
-1
 48
1.0
  6
BYLAYER
100
AcDbRasterImage
 90
0
 10
44.1686066844263436
 20
35.3080830090969329
 30
0.0
 11
0.0000000000000001
 21
0.2
 31
0.0
 12
0.2
 22
0.0
 32
0.0
 13
11.0
 23
11.0
340
15F
 70
15
280
0
281
50
282
50
283
0
  0
IMAGE
  5
160
100
AcDbEntity
  8
step_04
 62
256
370
-1
 48
1.0
  6
BYLAYER
100
AcDbRasterImage
 90
0
 10
72.7134438131742229
 20
82.1316592071893012
 30
0.0
 11
-0.2
 21
0.0
 31
0.0
 12
-0.0
 22
-0.2
 32
0.0
 13
11.0
 23
11.0
340
161
 70
15
280
0
281
50
282
50
283
0
  0
IMAGE
  5
162
100
AcDbEntity
  8
step_04
 62
256
370
-1
 48
1.0
  6
BYLAYER
100
AcDbRasterImage
 90
0
 10
58.4966066978266355
 20
82.0612235077067282
 30
0.0
 11
-0.2
 21
0.0
 31
0.0
 12
-0.0
 22
-0.2
 32
0.0
 13
11.0
 23
11.0
340
163
 70
15
280
0
281
50
282
50
283
0
  0
IMAGE
  5
164
100
AcDbEntity
  8
step_05
 62
256
370
-1
 48
1.0
  6
BYLAYER
100
AcDbRasterImage
 90
0
 10
89.0
 20
73.9999999999999858
 30
0.0
 11
-0.0
 21
-0.12
 31
0.0
 12
0.12
 22
0.0
 32
0.0
 13
6.0
 23
6.0
340
165
 70
15
280
0
281
50
282
50
283
0
  0
IMAGE
  5
166
100
AcDbEntity
  8
step_05
 62
256
370
-1
 48
1.0
  6
BYLAYER
100
AcDbRasterImage
 90
0
 10
89.285169063658202
 20
80.8860613846868688
 30
0.0
 11
-0.0
 21
-0.12
 31
0.0
 12
0.12
 22
0.0
 32
0.0
 13
6.0
 23
6.0
340
167
 70
15
280
0
281
50
282
50
283
0
  0
IMAGE
  5
168
100
AcDbEntity
  8
step_05
 62
256
370
-1
 48
1.0
  6
BYLAYER
100
AcDbRasterImage
 90
0
 10
89.3242172712914595
 20
45.1675580752690848
 30
0.0
 11
0.0
 21
0.12
 31
0.0
 12
0.12
 22
0.0
 32
0.0
 13
6.0
 23
6.0
340
169
 70
15
280
0
281
50
282
50
283
0
  0
IMAGE
  5
16A
100
AcDbEntity
  8
step_05
 62
256
370
-1
 48
1.0
  6
BYLAYER
100
AcDbRasterImage
 90
0
 10
89.2875464614414369
 20
25.3157341308490977
 30
0.0
 11
0.0
 21
0.12
 31
0.0
 12
0.12
 22
0.0
 32
0.0
 13
6.0
 23
6.0
340
16B
 70
15
280
0
281
50
282
50
283
0
  0
IMAGE
  5
16C
100
AcDbEntity
  8
step_05
 62
256
370
-1
 48
1.0
  6
BYLAYER
100
AcDbRasterImage
 90
0
 10
89.2875464614414369
 20
5.0800172380771862
 30
0.0
 11
0.0
 21
0.12
 31
0.0
 12
0.12
 22
0.0
 32
0.0
 13
6.0
 23
6.0
340
16D
 70
15
280
0
281
50
282
50
283
0
  0
IMAGE
  5
16E
100
AcDbEntity
  8
step_05
 62
256
370
-1
 48
1.0
  6
BYLAYER
100
AcDbRasterImage
 90
0
 10
47.128494846574398
 20
66.3578539669509837
 30
0.0
 11
0.0
 21
0.12
 31
0.0
 12
0.12
 22
0.0
 32
0.0
 13
6.0
 23
6.0
340
16F
 70
15
280
0
281
50
282
50
283
0
  0
IMAGE
  5
170
100
AcDbEntity
  8
step_05
 62
256
370
-1
 48
1.0
  6
BYLAYER
100
AcDbRasterImage
 90
0
 10
42.0447106601148874
 20
35.5979075310024626
 30
0.0
 11
0.0
 21
0.12
 31
0.0
 12
-0.12
 22
0.0
 32
0.0
 13
6.0
 23
6.0
340
171
 70
15
280
0
281
50
282
50
283
0
  0
IMAGE
  5
172
100
AcDbEntity
  8
step_05
 62
256
370
-1
 48
1.0
  6
BYLAYER
100
AcDbRasterImage
 90
0
 10
89.1957224247170615
 20
52.8497041083180648
 30
0.0
 11
0.0
 21
0.12
 31
0.0
 12
0.12
 22
0.0
 32
0.0
 13
6.0
 23
6.0
340
173
 70
15
280
0
281
50
282
50
283
0
  0
IMAGE
  5
174
100
AcDbEntity
  8
step_05
 62
256
370
-1
 48
1.0
  6
BYLAYER
100
AcDbRasterImage
 90
0
 10
89.1590516148670389
 20
32.9978801638981167
 30
0.0
 11
0.0
 21
0.12
 31
0.0
 12
0.12
 22
0.0
 32
0.0
 13
6.0
 23
6.0
340
175
 70
15
280
0
281
50
282
50
283
0
  0
IMAGE
  5
176
100
AcDbEntity
  8
step_05
 62
256
370
-1
 48
1.0
  6
BYLAYER
100
AcDbRasterImage
 90
0
 10
89.1590516148670389
 20
12.7621632711263615
 30
0.0
 11
0.0
 21
0.12
 31
0.0
 12
0.12
 22
0.0
 32
0.0
 13
6.0
 23
6.0
340
177
 70
15
280
0
281
50
282
50
283
0
  0
IMAGE
  5
178
100
AcDbEntity
  8
step_05
 62
256
370
-1
 48
1.0
  6
BYLAYER
100
AcDbRasterImage
 90
0
 10
46.8585198088893691
 20
33.6134179503695663
 30
0.0
 11
0.0
 21
0.12
 31
0.0
 12
0.12
 22
0.0
 32
0.0
 13
6.0
 23
6.0
340
179
 70
15
280
0
281
50
282
50
283
0
  0
IMAGE
  5
17A
100
AcDbEntity
  8
step_05
 62
256
370
-1
 48
1.0
  6
BYLAYER
100
AcDbRasterImage
 90
0
 10
47.0
 20
6.0400000000000063
 30
0.0
 11
0.0
 21
0.12
 31
0.0
 12
0.12
 22
0.0
 32
0.0
 13
6.0
 23
6.0
340
17B
 70
15
280
0
281
50
282
50
283
0
  0
IMAGE
  5
17C
100
AcDbEntity
  8
step_05
 62
256
370
-1
 48
1.0
  6
BYLAYER
100
AcDbRasterImage
 90
0
 10
84.4091336127842311
 20
63.5822923641150055
 30
0.0
 11
-0.0
 21
-0.12
 31
0.0
 12
-0.12
 22
0.0
 32
0.0
 13
6.0
 23
6.0
340
17D
 70
15
280
0
281
50
282
50
283
0
  0
IMAGE
  5
17E
100
AcDbEntity
  8
step_05
 62
256
370
-1
 48
1.0
  6
BYLAYER
100
AcDbRasterImage
 90
0
 10
84.3724628029342085
 20
43.7304684196950575
 30
0.0
 11
-0.0
 21
-0.12
 31
0.0
 12
-0.12
 22
0.0
 32
0.0
 13
6.0
 23
6.0
340
17F
 70
15
280
0
281
50
282
50
283
0
  0
IMAGE
  5
180
100
AcDbEntity
  8
step_05
 62
256
370
-1
 48
1.0
  6
BYLAYER
100
AcDbRasterImage
 90
0
 10
84.3724628029342085
 20
23.4947515269231353
 30
0.0
 11
-0.0
 21
-0.12
 31
0.0
 12
-0.12
 22
0.0
 32
0.0
 13
6.0
 23
6.0
340
181
 70
15
280
0
281
50
282
50
283
0
  0
IMAGE
  5
182
100
AcDbEntity
  8
step_05
 62
256
370
-1
 48
1.0
  6
BYLAYER
100
AcDbRasterImage
 90
0
 10
41.6840049250064482
 20
26.5108666327791198
 30
0.0
 11
-0.0
 21
-0.12
 31
0.0
 12
-0.12
 22
0.0
 32
0.0
 13
6.0
 23
6.0
340
183
 70
15
280
0
281
50
282
50
283
0
  0
IMAGE
  5
184
100
AcDbEntity
  8
step_05
 62
256
370
-1
 48
1.0
  6
BYLAYER
100
AcDbRasterImage
 90
0
 10
84.4213610095169287
 20
56.5475408371918391
 30
0.0
 11
-0.0
 21
-0.12
 31
0.0
 12
-0.12
 22
0.0
 32
0.0
 13
6.0
 23
6.0
340
185
 70
15
280
0
281
50
282
50
283
0
  0
IMAGE
  5
186
100
AcDbEntity
  8
step_05
 62
256
370
-1
 48
1.0
  6
BYLAYER
100
AcDbRasterImage
 90
0
 10
84.3846901996669061
 20
36.6957168927718556
 30
0.0
 11
-0.0
 21
-0.12
 31
0.0
 12
-0.12
 22
0.0
 32
0.0
 13
6.0
 23
6.0
340
187
 70
15
280
0
281
50
282
50
283
0
  0
IMAGE
  5
188
100
AcDbEntity
  8
step_05
 62
256
370
-1
 48
1.0
  6
BYLAYER
100
AcDbRasterImage
 90
0
 10
84.3846901996669061
 20
16.4599999999999902
 30
0.0
 11
-0.0
 21
-0.12
 31
0.0
 12
-0.12
 22
0.0
 32
0.0
 13
6.0
 23
6.0
340
189
 70
15
280
0
281
50
282
50
283
0
  0
IMAGE
  5
18A
100
AcDbEntity
  8
step_05
 62
256
370
-1
 48
1.0
  6
BYLAYER
100
AcDbRasterImage
 90
0
 10
41.8637130659265324
 20
14.4386781302838436
 30
0.0
 11
-0.0
 21
-0.12
 31
0.0
 12
-0.12
 22
0.0
 32
0.0
 13
6.0
 23
6.0
340
18B
 70
15
280
0
281
50
282
50
283
0
  0
HATCH
  5
18C
100
AcDbEntity
  8
step_04
 62
256
370
-1
 48
1.0
  6
BYLAYER
100
AcDbHatch
 10
0.0
 20
0.0
 30
0.0
210
0.0
220
0.0
230
1.0
  2
SOLID
 70
1
 71
0
 91
1
 92
1
 93
6
 72
1
 10
84.75
 20
84.0
 11
84.75
 21
81.75
 72
1
 10
84.75
 20
81.75
 11
46.75
 21
81.75
 72
1
 10
46.75
 20
81.75
 11
46.75
 21
84.0
 72
1
 10
46.75
 20
84.0
 11
46.75
 21
85.5
 72
1
 10
46.75
 20
85.5
 11
84.75
 21
85.5
 72
1
 10
84.75
 20
85.5
 11
84.75
 21
84.0
 97
0
 75
0
 76
1
 98
0
1001
ACAD
1010
0.0
1020
0.0
1030
0
  0
HATCH
  5
18D
100
AcDbEntity
  8
step_05
 62
252
420
10526884
370
-1
 48
1.0
  6
BYLAYER
100
AcDbHatch
 10
0.0
 20
0.0
 30
0.0
210
0.0
220
0.0
230
1.0
  2
SOLID
 70
1
 71
0
 91
1
 92
1
 93
6
 72
1
 10
84.75
 20
84.0
 11
84.75
 21
81.75
 72
1
 10
84.75
 20
81.75
 11
46.75
 21
81.75
 72
1
 10
46.75
 20
81.75
 11
46.75
 21
84.0
 72
1
 10
46.75
 20
84.0
 11
46.75
 21
85.5
 72
1
 10
46.75
 20
85.5
 11
84.75
 21
85.5
 72
1
 10
84.75
 20
85.5
 11
84.75
 21
84.0
 97
0
 75
0
 76
1
 98
0
1001
ACAD
1010
0.0
1020
0.0
1030
0
  0
HATCH
  5
18E
100
AcDbEntity
  8
step_06
 62
252
420
10526884
370
-1
 48
1.0
  6
BYLAYER
100
AcDbHatch
 10
0.0
 20
0.0
 30
0.0
210
0.0
220
0.0
230
1.0
  2
SOLID
 70
1
 71
0
 91
1
 92
1
 93
6
 72
1
 10
84.75
 20
84.0
 11
84.75
 21
81.75
 72
1
 10
84.75
 20
81.75
 11
46.75
 21
81.75
 72
1
 10
46.75
 20
81.75
 11
46.75
 21
84.0
 72
1
 10
46.75
 20
84.0
 11
46.75
 21
85.5
 72
1
 10
46.75
 20
85.5
 11
84.75
 21
85.5
 72
1
 10
84.75
 20
85.5
 11
84.75
 21
84.0
 97
0
 75
0
 76
1
 98
0
1001
ACAD
1010
0.0
1020
0.0
1030
0
  0
IMAGE
  5
18F
100
AcDbEntity
  8
step_04
 62
256
370
-1
 48
1.0
  6
BYLAYER
100
AcDbRasterImage
 90
0
 10
86.9302809285218245
 20
82.20209490667186
 30
0.0
 11
-0.2
 21
0.0
 31
0.0
 12
-0.0
 22
-0.2
 32
0.0
 13
11.0
 23
11.0
340
190
 70
15
280
0
281
50
282
50
283
0
  0
IMAGE
  5
191
100
AcDbEntity
  8
step_04
 62
256
370
-1
 48
1.0
  6
BYLAYER
100
AcDbRasterImage
 90
0
 10
57.3999999999999986
 20
87.7999999999999972
 30
0.0
 11
0.2
 21
-0.0
 31
0.0
 12
0.0000000000000001
 22
0.2
 32
0.0
 13
11.0
 23
11.0
340
192
 70
15
280
0
281
50
282
50
283
0
  0
LEADER
  5
193
100
AcDbEntity
  8
step_04
 62
256
370
-1
 48
1.0
  6
BYLAYER
100
AcDbLeader
  3
Standard
 71
1
 72
0
 73
3
 74
0
 75
0
 40
1.0
 41
10.0
 76
2
 10
59.407423359332526
 20
87.2064215712742197
 10
59.407423359332526
 20
93.9167686897182961
1001
ACAD
1000
DSTYLE
1002
{
1070
40
1040
1.0
1002
}
  0
LEADER
  5
194
100
AcDbEntity
  8
step_04
 62
256
370
-1
 48
1.0
  6
BYLAYER
100
AcDbLeader
  3
Standard
 71
1
 72
0
 73
3
 74
0
 75
0
 40
1.0
 41
10.0
 76
3
 10
59.4173254156361139
 20
82.423465101878449
 10
59.4249433196116712
 20
69.0768973366987353
 10
62.0
 20
69.0
1001
ACAD
1000
DSTYLE
1002
{
1070
40
1040
1.0
1002
}
  0
MTEXT
  5
195
100
AcDbEntity
  8
step_04
 62
256
370
-1
 48
1.0
  6
BYLAYER
100
AcDbMText
 10
63.0
 20
70.0
 30
0.0
 40
3.0
 41
0.0
 71
1
 72
1
  1
CLAMP
  7
textstyle16
 50
0.0
 73
2
 44
1.0
  0
MTEXT
  5
196
100
AcDbEntity
  8
step_05
 62
256
370
-1
 48
1.0
  6
BYLAYER
100
AcDbMText
 10
64.4766160503142203
 20
67.7725021887739842
 30
0.0
 40
3.0
 41
0.0
 71
1
 72
1
  1
CLAMP
  7
textstyle15
 50
0.0
 73
2
 44
1.0
  0
MTEXT
  5
197
100
AcDbEntity
  8
step_05
 62
256
370
-1
 48
1.0
  6
BYLAYER
100
AcDbMText
 10
21.8774106633978604
 20
29.3913615430986894
 30
0.0
 40
3.0
 41
0.0
 71
1
 72
1
  1
CLAMP
  7
textstyle14
 50
0.0
 73
2
 44
1.0
  0
MTEXT
  5
198
100
AcDbEntity
  8
step_03
 62
256
370
-1
 48
1.0
  6
BYLAYER
100
AcDbMText
 10
24.9749587426044855
 20
15.4970773334121183
 30
0.0
 40
3.0
 41
0.0
 71
1
 72
1
  1
\fDejaVu Sans|b0|i0|c0|p0;\H2.5;Clamp\PTIGHT
  7
textstyle13
 50
0.0
 73
2
 44
1.0
  0
MTEXT
  5
199
100
AcDbEntity
  8
step_05
 62
256
370
-1
 48
1.0
  6
BYLAYER
100
AcDbMText
 10
21.8428819541930039
 20
6.0205211857339869
 30
0.0
 40
3.0
 41
0.0
 71
1
 72
1
  1
CLAMP
  7
textstyle12
 50
0.0
 73
2
 44
1.0
  0
HATCH
  5
19A
100
AcDbEntity
  8
step_05
 62
256
370
-1
 48
1.0
  6
BYLAYER
100
AcDbHatch
 10
0.0
 20
0.0
 30
0.0
210
0.0
220
0.0
230
1.0
  2
SOLID
 70
1
 71
0
 91
1
 92
1
 93
4
 72
1
 10
86.25
 20
77.5
 11
87.5000000000000284
 21
77.5
 72
1
 10
87.5000000000000284
 20
77.5
 11
87.5000000000000284
 21
67.5
 72
1
 10
87.5000000000000284
 20
67.5
 11
86.25
 21
67.5
 72
1
 10
86.25
 20
67.5
 11
86.25
 21
77.5
 97
0
 75
0
 76
1
 98
0
1001
ACAD
1010
0.0
1020
0.0
1030
0
  0
HATCH
  5
19B
100
AcDbEntity
  8
step_06
 62
252
420
10526884
370
-1
 48
1.0
  6
BYLAYER
100
AcDbHatch
 10
0.0
 20
0.0
 30
0.0
210
0.0
220
0.0
230
1.0
  2
SOLID
 70
1
 71
0
 91
1
 92
1
 93
4
 72
1
 10
86.25
 20
77.5
 11
87.5000000000000284
 21
77.5
 72
1
 10
87.5000000000000284
 20
77.5
 11
87.5000000000000284
 21
67.5
 72
1
 10
87.5000000000000284
 20
67.5
 11
86.25
 21
67.5
 72
1
 10
86.25
 20
67.5
 11
86.25
 21
77.5
 97
0
 75
0
 76
1
 98
0
1001
ACAD
1010
0.0
1020
0.0
1030
0
  0
HATCH
  5
19C
100
AcDbEntity
  8
step_05
 62
256
370
-1
 48
1.0
  6
BYLAYER
100
AcDbHatch
 10
0.0
 20
0.0
 30
0.0
210
0.0
220
0.0
230
1.0
  2
SOLID
 70
1
 71
0
 91
1
 92
1
 93
4
 72
1
 10
86.25
 20
59.5
 11
87.5000000000000284
 21
59.5
 72
1
 10
87.5000000000000284
 20
59.5
 11
87.5000000000000284
 21
49.5
 72
1
 10
87.5000000000000284
 20
49.5
 11
86.25
 21
49.5
 72
1
 10
86.25
 20
49.5
 11
86.25
 21
59.5
 97
0
 75
0
 76
1
 98
0
1001
ACAD
1010
0.0
1020
0.0
1030
0
  0
HATCH
  5
19D
100
AcDbEntity
  8
step_06
 62
252
420
10526884
370
-1
 48
1.0
  6
BYLAYER
100
AcDbHatch
 10
0.0
 20
0.0
 30
0.0
210
0.0
220
0.0
230
1.0
  2
SOLID
 70
1
 71
0
 91
1
 92
1
 93
4
 72
1
 10
86.25
 20
59.5
 11
87.5000000000000284
 21
59.5
 72
1
 10
87.5000000000000284
 20
59.5
 11
87.5000000000000284
 21
49.5
 72
1
 10
87.5000000000000284
 20
49.5
 11
86.25
 21
49.5
 72
1
 10
86.25
 20
49.5
 11
86.25
 21
59.5
 97
0
 75
0
 76
1
 98
0
1001
ACAD
1010
0.0
1020
0.0
1030
0
  0
HATCH
  5
19E
100
AcDbEntity
  8
step_05
 62
256
370
-1
 48
1.0
  6
BYLAYER
100
AcDbHatch
 10
0.0
 20
0.0
 30
0.0
210
0.0
220
0.0
230
1.0
  2
SOLID
 70
1
 71
0
 91
1
 92
1
 93
4
 72
1
 10
86.25
 20
39.5
 11
87.5000000000000284
 21
39.5
 72
1
 10
87.5000000000000284
 20
39.5
 11
87.5000000000000284
 21
29.5
 72
1
 10
87.5000000000000284
 20
29.5
 11
86.25
 21
29.5
 72
1
 10
86.25
 20
29.5
 11
86.25
 21
39.5
 97
0
 75
0
 76
1
 98
0
1001
ACAD
1010
0.0
1020
0.0
1030
0
  0
HATCH
  5
19F
100
AcDbEntity
  8
step_06
 62
252
420
10526884
370
-1
 48
1.0
  6
BYLAYER
100
AcDbHatch
 10
0.0
 20
0.0
 30
0.0
210
0.0
220
0.0
230
1.0
  2
SOLID
 70
1
 71
0
 91
1
 92
1
 93
4
 72
1
 10
86.25
 20
39.5
 11
87.5000000000000284
 21
39.5
 72
1
 10
87.5000000000000284
 20
39.5
 11
87.5000000000000284
 21
29.5
 72
1
 10
87.5000000000000284
 20
29.5
 11
86.25
 21
29.5
 72
1
 10
86.25
 20
29.5
 11
86.25
 21
39.5
 97
0
 75
0
 76
1
 98
0
1001
ACAD
1010
0.0
1020
0.0
1030
0
  0
HATCH
  5
1A0
100
AcDbEntity
  8
step_05
 62
256
370
-1
 48
1.0
  6
BYLAYER
100
AcDbHatch
 10
0.0
 20
0.0
 30
0.0
210
0.0
220
0.0
230
1.0
  2
SOLID
 70
1
 71
0
 91
1
 92
1
 93
4
 72
1
 10
86.25
 20
19.5
 11
87.5000000000000284
 21
19.5
 72
1
 10
87.5000000000000284
 20
19.5
 11
87.5000000000000284
 21
9.5
 72
1
 10
87.5000000000000284
 20
9.5
 11
86.25
 21
9.5
 72
1
 10
86.25
 20
9.5
 11
86.25
 21
19.5
 97
0
 75
0
 76
1
 98
0
1001
ACAD
1010
0.0
1020
0.0
1030
0
  0
HATCH
  5
1A1
100
AcDbEntity
  8
step_06
 62
252
420
10526884
370
-1
 48
1.0
  6
BYLAYER
100
AcDbHatch
 10
0.0
 20
0.0
 30
0.0
210
0.0
220
0.0
230
1.0
  2
SOLID
 70
1
 71
0
 91
1
 92
1
 93
4
 72
1
 10
86.25
 20
19.5
 11
87.5000000000000284
 21
19.5
 72
1
 10
87.5000000000000284
 20
19.5
 11
87.5000000000000284
 21
9.5
 72
1
 10
87.5000000000000284
 20
9.5
 11
86.25
 21
9.5
 72
1
 10
86.25
 20
9.5
 11
86.25
 21
19.5
 97
0
 75
0
 76
1
 98
0
1001
ACAD
1010
0.0
1020
0.0
1030
0
  0
LEADER
  5
1A2
100
AcDbEntity
  8
step_05
 62
256
370
-1
 48
1.0
  6
BYLAYER
100
AcDbLeader
  3
Standard
 71
1
 72
0
 73
3
 74
0
 75
0
 40
1.0
 41
10.0
 76
2
 10
84.6337340961212306
 20
65.7519810030400009
 10
79.3214804557573103
 20
65.7519810030400009
1001
ACAD
1000
DSTYLE
1002
{
1070
40
1040
1.0
1002
}
  0
LEADER
  5
1A3
100
AcDbEntity
  8
step_05
 62
256
370
-1
 48
1.0
  6
BYLAYER
100
AcDbLeader
  3
Standard
 71
1
 72
0
 73
3
 74
0
 75
0
 40
1.0
 41
10.0
 76
2
 10
42.0345287092048707
 20
27.3708403573647061
 10
36.7222750688409505
 20
27.3708403573647061
1001
ACAD
1000
DSTYLE
1002
{
1070
40
1040
1.0
1002
}
  0
LEADER
  5
1A4
100
AcDbEntity
  8
step_03
 62
256
370
-1
 48
1.0
  6
BYLAYER
100
AcDbLeader
  3
Standard
 71
1
 72
0
 73
3
 74
0
 75
0
 40
1.0
 41
10.0
 76
2
 10
42.0094874518093562
 20
13.867917690776828
 10
36.6972338114454359
 20
13.867917690776828
1001
ACAD
1000
DSTYLE
1002
{
1070
40
1040
1.0
1002
}
  0
LEADER
  5
1A5
100
AcDbEntity
  8
step_05
 62
256
370
-1
 48
1.0
  6
BYLAYER
100
AcDbLeader
  3
Standard
 71
1
 72
0
 73
3
 74
0
 75
0
 40
1.0
 41
10.0
 76
2
 10
42.0000000000000142
 20
4.0
 10
36.687746359636094
 20
4.0
1001
ACAD
1000
DSTYLE
1002
{
1070
40
1040
1.0
1002
}
  0
LEADER
  5
1A6
100
AcDbEntity
  8
step_05
 62
256
370
-1
 48
1.0
  6
BYLAYER
100
AcDbLeader
  3
Standard
 71
1
 72
0
 73
3
 74
0
 75
0
 40
1.0
 41
10.0
 76
2
 10
88.9524594728360967
 20
65.7519810030399867
 10
94.6692806041378532
 20
65.7740235492655785
1001
ACAD
1000
DSTYLE
1002
{
1070
40
1040
1.0
1002
}
  0
LEADER
  5
1A7
100
AcDbEntity
  8
step_05
 62
256
370
-1
 48
1.0
  6
BYLAYER
100
AcDbLeader
  3
Standard
 71
1
 72
0
 73
3
 74
0
 75
0
 40
1.0
 41
10.0
 76
2
 10
46.8532540859197368
 20
27.3708403573646919
 10
52.5700752172214933
 20
27.3928829035902837
1001
ACAD
1000
DSTYLE
1002
{
1070
40
1040
1.0
1002
}
  0
LEADER
  5
1A8
100
AcDbEntity
  8
step_03
 62
256
370
-1
 48
1.0
  6
BYLAYER
100
AcDbLeader
  3
Standard
 71
1
 72
0
 73
3
 74
0
 75
0
 40
1.0
 41
10.0
 76
2
 10
46.8282128285242223
 20
13.8679176907768138
 10
52.5450339598259788
 20
13.8899602370024056
1001
ACAD
1000
DSTYLE
1002
{
1070
40
1040
1.0
1002
}
  0
LEADER
  5
1A9
100
AcDbEntity
  8
step_05
 62
256
370
-1
 48
1.0
  6
BYLAYER
100
AcDbLeader
  3
Standard
 71
1
 72
0
 73
3
 74
0
 75
0
 40
1.0
 41
10.0
 76
2
 10
46.8187253767148803
 20
3.9999999999999858
 10
52.5355465080166368
 20
4.0220425462255776
1001
ACAD
1000
DSTYLE
1002
{
1070
40
1040
1.0
1002
}
  0
IMAGE
  5
1AA
100
AcDbEntity
  8
step_05
 62
256
370
-1
 48
1.0
  6
BYLAYER
100
AcDbRasterImage
 90
0
 10
84.1830138972594852
 20
76.6937741097888477
 30
0.0
 11
-0.0
 21
-0.12
 31
0.0
 12
-0.12
 22
0.0
 32
0.0
 13
6.0
 23
6.0
340
1AB
 70
15
280
0
281
50
282
50
283
0
  0
LINE
  5
1AC
100
AcDbEntity
  8
step_08
 62
256
370
-1
 48
1.0
  6
BYLAYER
100
AcDbLine
 10
18.25
 20
82.0
 30
0.0
 11
42.25
 21
82.0
 31
0.0
  0
LINE
  5
1AD
100
AcDbEntity
  8
step_08
 62
9
420
12632256
370
-1
 48
1.0
  6
BYLAYER
100
AcDbLine
 10
18.25
 20
81.0000000000000142
 30
0.0
 11
42.25
 21
81.0
 31
0.0
  0
HATCH
  5
1AE
100
AcDbEntity
  8
step_08
 62
256
370
-1
 48
1.0
  6
BYLAYER
100
AcDbHatch
 10
0.0
 20
0.0
 30
0.0
210
0.0
220
0.0
230
1.0
  2
SOLID
 70
1
 71
0
 91
1
 92
1
 93
4
 72
1
 10
18.25
 20
82.0
 11
18.25
 21
81.0
 72
1
 10
18.25
 20
81.0000000000000142
 11
42.25
 21
81.0
 72
1
 10
42.2499999999999929
 20
81.0
 11
42.2499999999999929
 21
82.0
 72
1
 10
42.25
 20
82.0
 11
18.25
 21
82.0
 97
0
 75
0
 76
1
 98
0
1001
ACAD
1010
0.0
1020
0.0
1030
0
  0
HATCH
  5
1AF
100
AcDbEntity
  8
step_08
 62
256
370
-1
 48
1.0
  6
BYLAYER
100
AcDbHatch
 10
0.0
 20
0.0
 30
0.0
210
0.0
220
0.0
230
1.0
  2
SOLID
 70
1
 71
0
 91
1
 92
1
 93
4
 72
1
 10
18.2500000000000142
 20
44.0
 11
42.2500000000000142
 21
44.0
 72
1
 10
42.2500000000000071
 20
44.0
 11
42.2500000000000071
 21
45.0
 72
1
 10
42.2500000000000071
 20
45.0
 11
18.2500000000000142
 21
45.0
 72
1
 10
18.2500000000000142
 20
44.9999999999999858
 11
18.2500000000000142
 21
43.9999999999999858
 97
0
 75
0
 76
1
 98
0
1001
ACAD
1010
0.0
1020
0.0
1030
0
  0
LINE
  5
1B0
100
AcDbEntity
  8
Framing
 62
256
370
-1
 48
1.0
  6
BYLAYER
100
AcDbLine
 10
0.0
 20
1.5
 30
0.0
 11
0.0000000000000051
 21
85.5
 31
0.0
  0
LINE
  5
1B1
100
AcDbEntity
  8
Framing
 62
256
370
-1
 48
1.0
  6
BYLAYER
100
AcDbLine
 10
1.5
 20
1.5
 30
0.0
 11
1.5000000000000053
 21
85.5
 31
0.0
  0
LINE
  5
1B2
100
AcDbEntity
  8
Framing
 62
256
370
-1
 48
1.0
  6
BYLAYER
100
AcDbLine
 10
1.5
 20
1.5
 30
0.0
 11
1.5
 21
1.5
 31
0.0
  0
LINE
  5
1B3
100
AcDbEntity
  8
Framing
 62
256
370
-1
 48
1.0
  6
BYLAYER
100
AcDbLine
 10
1.5
 20
1.5
 30
0.0
 11
0.0
 21
1.5
 31
0.0
  0
LINE
  5
1B4
100
AcDbEntity
  8
Framing
 62
252
420
10526884
370
-1
 48
1.0
  6
BYLAYER
100
AcDbLine
 10
0.0000000000000051
 20
85.5
 30
0.0
 11
1.5000000000000049
 21
85.5
 31
0.0
  0
LINE
  5
1B5
100
AcDbEntity
  8
Framing
 62
256
370
-1
 48
1.0
  6
BYLAYER
100
AcDbLine
 10
42.25
 20
1.5
 30
0.0
 11
42.25
 21
85.5
 31
0.0
  0
LINE
  5
1B6
100
AcDbEntity
  8
Framing
 62
256
370
-1
 48
1.0
  6
BYLAYER
100
AcDbLine
 10
41.5
 20
1.5
 30
0.0
 11
41.5
 21
1.5
 31
0.0
  0
LINE
  5
1B7
100
AcDbEntity
  8
Framing
 62
256
370
-1
 48
1.0
  6
BYLAYER
100
AcDbLine
 10
41.5
 20
1.5
 30
0.0
 11
40.0
 21
1.5
 31
0.0
  0
LINE
  5
1B8
100
AcDbEntity
  8
Framing
 62
256
370
-1
 48
1.0
  6
BYLAYER
100
AcDbLine
 10
45.25
 20
85.5
 30
0.0
 11
46.75
 21
85.5
 31
0.0
  0
LINE
  5
1B9
100
AcDbEntity
  8
Framing
 62
256
370
-1
 48
1.0
  6
BYLAYER
100
AcDbLine
 10
84.75
 20
1.5
 30
0.0
 11
84.75
 21
85.5
 31
0.0
  0
LINE
  5
1BA
100
AcDbEntity
  8
Framing
 62
256
370
-1
 48
1.0
  6
BYLAYER
100
AcDbLine
 10
86.25
 20
1.5
 30
0.0
 11
86.25
 21
85.5
 31
0.0
  0
LINE
  5
1BB
100
AcDbEntity
  8
Framing
 62
256
370
-1
 48
1.0
  6
BYLAYER
100
AcDbLine
 10
86.25
 20
1.5
 30
0.0
 11
84.75
 21
1.5
 31
0.0
  0
LINE
  5
1BC
100
AcDbEntity
  8
Framing
 62
256
370
-1
 48
1.0
  6
BYLAYER
100
AcDbLine
 10
0.0
 20
1.5
 30
0.0
 11
89.0
 21
1.5
 31
0.0
  0
LINE
  5
1BD
100
AcDbEntity
  8
Framing
 62
256
370
-1
 48
1.0
  6
BYLAYER
100
AcDbLine
 10
0.0000000000000001
 20
0.0
 30
0.0
 11
89.0
 21
-0.0000000000000082
 31
0.0
  0
LINE
  5
1BE
100
AcDbEntity
  8
Framing
 62
256
370
-1
 48
1.0
  6
BYLAYER
100
AcDbLine
 10
0.0000000000000001
 20
0.0
 30
0.0
 11
0.0000000000000001
 21
0.0
 31
0.0
  0
LINE
  5
1BF
100
AcDbEntity
  8
Framing
 62
256
370
-1
 48
1.0
  6
BYLAYER
100
AcDbLine
 10
0.0000000000000001
 20
0.0
 30
0.0
 11
0.0
 21
1.5
 31
0.0
  0
LINE
  5
1C0
100
AcDbEntity
  8
Framing
 62
256
370
-1
 48
1.0
  6
BYLAYER
100
AcDbLine
 10
0.0
 20
87.0
 30
0.0
 11
44.4999999999999858
 21
87.0
 31
0.0
  0
LINE
  5
1C1
100
AcDbEntity
  8
Framing
 62
256
370
-1
 48
1.0
  6
BYLAYER
100
AcDbLine
 10
44.4999999999999858
 20
87.0
 30
0.0
 11
89.0
 21
87.0
 31
0.0
  0
LINE
  5
1C2
100
AcDbEntity
  8
Framing
 62
256
370
-1
 48
1.0
  6
BYLAYER
100
AcDbLine
 10
0.0000000000000001
 20
85.5
 30
0.0
 11
0.0
 21
87.0
 31
0.0
  0
LINE
  5
1C3
100
AcDbEntity
  8
Framing
 62
256
370
-1
 48
1.0
  6
BYLAYER
100
AcDbLine
 10
18.25
 20
1.5
 30
0.0
 11
18.25
 21
85.5
 31
0.0
  0
LINE
  5
1C4
100
AcDbEntity
  8
Framing
 62
256
370
-1
 48
1.0
  6
BYLAYER
100
AcDbLine
 10
17.5
 20
1.5
 30
0.0
 11
17.5
 21
1.5
 31
0.0
  0
LINE
  5
1C5
100
AcDbEntity
  8
Framing
 62
256
370
-1
 48
1.0
  6
BYLAYER
100
AcDbLine
 10
18.25
 20
1.5
 30
0.0
 11
16.75
 21
1.5
 31
0.0
  0
LINE
  5
1C6
100
AcDbEntity
  8
Framing
 62
256
370
-1
 48
1.0
  6
BYLAYER
100
AcDbLine
 10
16.75
 20
85.5
 30
0.0
 11
18.25
 21
85.5
 31
0.0
  0
LINE
  5
1C7
100
AcDbEntity
  8
Framing
 62
256
370
-1
 48
1.0
  6
BYLAYER
100
AcDbLine
 10
89.0
 20
1.4999999999999998
 30
0.0
 11
89.0
 21
1.4999999999999998
 31
0.0
  0
LINE
  5
1C8
100
AcDbEntity
  8
Framing
 62
256
370
-1
 48
1.0
  6
BYLAYER
100
AcDbLine
 10
87.5
 20
1.5
 30
0.0
 11
87.5
 21
85.4000000000000057
 31
0.0
  0
LINE
  5
1C9
100
AcDbEntity
  8
Framing
 62
256
370
-1
 48
1.0
  6
BYLAYER
100
AcDbLine
 10
89.0
 20
1.5
 30
0.0
 11
89.0
 21
85.4000000000000057
 31
0.0
  0
LINE
  5
1CA
100
AcDbEntity
  8
Framing
 62
256
370
-1
 48
1.0
  6
BYLAYER
100
AcDbLine
 10
89.0
 20
1.5
 30
0.0
 11
87.5
 21
1.5
 31
0.0
  0
LINE
  5
1CB
100
AcDbEntity
  8
Framing
 62
256
370
-1
 48
1.0
  6
BYLAYER
100
AcDbLine
 10
87.5
 20
85.5
 30
0.0
 11
89.0
 21
85.5
 31
0.0
  0
LINE
  5
1CC
100
AcDbEntity
  8
Framing
 62
256
370
-1
 48
1.0
  6
BYLAYER
100
AcDbLine
 10
89.0
 20
87.0
 30
0.0
 11
89.0
 21
85.5
 31
0.0
  0
LINE
  5
1CD
100
AcDbEntity
  8
Framing
 62
256
370
-1
 48
1.0
  6
BYLAYER
100
AcDbLine
 10
42.25
 20
1.5
 30
0.0
 11
43.75
 21
1.5
 31
0.0
  0
LINE
  5
1CE
100
AcDbEntity
  8
Framing
 62
256
370
-1
 48
1.0
  6
BYLAYER
100
AcDbLine
 10
45.25
 20
1.5
 30
0.0
 11
45.25
 21
85.5
 31
0.0
  0
LINE
  5
1CF
100
AcDbEntity
  8
Framing
 62
256
370
-1
 48
1.0
  6
BYLAYER
100
AcDbLine
 10
43.75
 20
1.5
 30
0.0
 11
43.75
 21
85.5
 31
0.0
  0
LINE
  5
1D0
100
AcDbEntity
  8
Framing
 62
256
370
-1
 48
1.0
  6
BYLAYER
100
AcDbLine
 10
46.75
 20
1.4999999999999858
 30
0.0
 11
46.75
 21
85.4999999999999858
 31
0.0
  0
LINE
  5
1D1
100
AcDbEntity
  8
Framing
 62
256
370
-1
 48
1.0
  6
BYLAYER
100
AcDbLine
 10
41.5
 20
1.5
 30
0.0
 11
43.0
 21
1.5
 31
0.0
  0
LINE
  5
1D2
100
AcDbEntity
  8
Framing
 62
256
370
-1
 48
1.0
  6
BYLAYER
100
AcDbLine
 10
16.75
 20
85.5
 30
0.0
 11
1.5000000000000036
 21
85.5
 31
0.0
  0
LINE
  5
1D3
100
AcDbEntity
  8
Framing
 62
256
370
-1
 48
1.0
  6
BYLAYER
100
AcDbLine
 10
1.5000000000000051
 20
84.0
 30
0.0
 11
1.5000000000000051
 21
82.5
 31
0.0
  0
LINE
  5
1D4
100
AcDbEntity
  8
Framing
 62
256
370
-1
 48
1.0
  6
BYLAYER
100
AcDbLine
 10
18.25
 20
85.5
 30
0.0
 11
18.25
 21
84.0
 31
0.0
  0
LINE
  5
1D5
100
AcDbEntity
  8
Framing
 62
256
370
-1
 48
1.0
  6
BYLAYER
100
AcDbLine
 10
18.25
 20
84.0
 30
0.0
 11
42.25
 21
84.0
 31
0.0
  0
LINE
  5
1D6
100
AcDbEntity
  8
Framing
 62
256
370
-1
 48
1.0
  6
BYLAYER
100
AcDbLine
 10
42.25
 20
84.0
 30
0.0
 11
42.25
 21
85.5
 31
0.0
  0
LINE
  5
1D7
100
AcDbEntity
  8
Framing
 62
256
370
-1
 48
1.0
  6
BYLAYER
100
AcDbLine
 10
18.2499999999999964
 20
1.5
 30
0.0
 11
18.2499999999999964
 21
85.0
 31
0.0
  0
LINE
  5
1D8
100
AcDbEntity
  8
Framing
 62
256
370
-1
 48
1.0
  6
BYLAYER
100
AcDbLine
 10
16.7499999999999964
 20
1.5
 30
0.0
 11
16.7499999999999964
 21
85.5
 31
0.0
  0
LINE
  5
1D9
100
AcDbEntity
  8
Framing
 62
256
370
-1
 48
1.0
  6
BYLAYER
100
AcDbLine
 10
42.25
 20
82.5
 30
0.0
 11
42.25
 21
84.0
 31
0.0
  0
LINE
  5
1DA
100
AcDbEntity
  8
Framing
 62
256
370
-1
 48
1.0
  6
BYLAYER
100
AcDbLine
 10
18.25
 20
81.0
 30
0.0
 11
42.25
 21
81.0
 31
0.0
  0
LINE
  5
1DB
100
AcDbEntity
  8
Framing
 62
256
370
-1
 48
1.0
  6
BYLAYER
100
AcDbLine
 10
42.25
 20
81.0
 30
0.0
 11
42.25
 21
82.5
 31
0.0
  0
LINE
  5
1DC
100
AcDbEntity
  8
Framing
 62
256
370
-1
 48
1.0
  6
BYLAYER
100
AcDbLine
 10
42.25
 20
82.5
 30
0.0
 11
18.25
 21
82.5
 31
0.0
  0
LINE
  5
1DD
100
AcDbEntity
  8
Framing
 62
256
370
-1
 48
1.0
  6
BYLAYER
100
AcDbLine
 10
18.25
 20
43.5
 30
0.0
 11
42.25
 21
43.5
 31
0.0
  0
LINE
  5
1DE
100
AcDbEntity
  8
Framing
 62
256
370
-1
 48
1.0
  6
BYLAYER
100
AcDbLine
 10
42.25
 20
43.5
 30
0.0
 11
42.25
 21
45.0
 31
0.0
  0
LINE
  5
1DF
100
AcDbEntity
  8
Framing
 62
256
370
-1
 48
1.0
  6
BYLAYER
100
AcDbLine
 10
42.25
 20
45.0
 30
0.0
 11
18.25
 21
45.0
 31
0.0
  0
LINE
  5
1E0
100
AcDbEntity
  8
Framing
 62
256
370
-1
 48
1.0
  6
BYLAYER
100
AcDbLine
 10
18.25
 20
45.0
 30
0.0
 11
18.25
 21
43.5
 31
0.0
  0
LINE
  5
1E1
100
AcDbEntity
  8
Framing
 62
256
370
-1
 48
1.0
  6
BYLAYER
100
AcDbLine
 10
18.25
 20
85.5
 30
0.0
 11
42.25
 21
85.5
 31
0.0
  0
LINE
  5
1E2
100
AcDbEntity
  8
Framing
 62
256
370
-1
 48
1.0
  6
BYLAYER
100
AcDbLine
 10
0.0000000000000051
 20
85.5
 30
0.0
 11
89.0
 21
85.5
 31
0.0
  0
LINE
  5
1E3
100
AcDbEntity
  8
Framing
 62
256
370
-1
 48
1.0
  6
BYLAYER
100
AcDbLine
 10
89.0
 20
1.5
 30
0.0
 11
89.0
 21
-0.0000000000000082
 31
0.0
  0
MTEXT
  5
1E4
100
AcDbEntity
  8
0
 62
256
370
-1
 48
1.0
  6
BYLAYER
100
AcDbMText
 10
36.1744559404816783
 20
-28.7521845591289456
 30
0.0
 40
3.0
 41
0.0
 71
1
 72
1
  1
\fDejaVu Sans|b0|i0|c0|p0;Front Wall
  7
textstyle11
 50
0.0
 73
2
 44
1.0
  0
LINE
  5
1E5
100
AcDbEntity
  8
Framing
 62
256
370
-1
 48
1.0
  6
BYLAYER
100
AcDbLine
 10
42.25
 20
85.5
 30
0.0
 11
43.75
 21
85.5
 31
0.0
  0
LINE
  5
1E6
100
AcDbEntity
  8
Framing
 62
256
370
-1
 48
1.0
  6
BYLAYER
100
AcDbLine
 10
18.25
 20
84.0
 30
0.0
 11
18.25
 21
82.5
 31
0.0
  0
LINE
  5
1E7
100
AcDbEntity
  8
Framing
 62
256
370
-1
 48
1.0
  6
BYLAYER
100
AcDbLine
 10
18.25
 20
82.5
 30
0.0
 11
18.25
 21
81.0
 31
0.0
  0
LINE
  5
1E8
100
AcDbEntity
  8
Framing
 62
256
370
-1
 48
1.0
  6
BYLAYER
100
AcDbLine
 10
84.75
 20
85.5
 30
0.0
 11
87.5
 21
85.5
 31
0.0
  0
LINE
  5
1E9
100
AcDbEntity
  8
Framing
 62
256
370
-1
 48
1.0
  6
BYLAYER
100
AcDbLine
 10
84.75
 20
1.5
 30
0.0
 11
87.5
 21
1.5
 31
0.0
  0
LINE
  5
1EA
100
AcDbEntity
  8
Framing
 62
256
370
-1
 48
1.0
  6
BYLAYER
100
AcDbLine
 10
87.5
 20
72.4926846117082988
 30
0.0
 11
87.5
 21
85.5
 31
0.0
  0
LINE
  5
1EB
100
AcDbEntity
  8
Framing
 62
256
370
-1
 48
1.0
  6
BYLAYER
100
AcDbLine
 10
46.75
 20
83.25
 30
0.0
 11
84.75
 21
83.25
 31
0.0
  0
LINE
  5
1EC
100
AcDbEntity
  8
step_04
 62
256
370
-1
 48
1.0
  6
BYLAYER
100
AcDbLine
 10
66.0
 20
107.5
 30
0.0
 11
85.0
 21
107.5
 31
0.0
  0
LINE
  5
1ED
100
AcDbEntity
  8
Framing
 62
256
370
-1
 48
1.0
  6
BYLAYER
100
AcDbLine
 10
46.75
 20
84.0
 30
0.0
 11
84.75
 21
84.0
 31
0.0
  0
LINE
  5
1EE
100
AcDbEntity
  8
step_04
 62
256
370
-1
 48
1.0
  6
BYLAYER
100
AcDbLine
 10
66.0
 20
108.25
 30
0.0
 11
85.0
 21
108.25
 31
0.0
  0
LINE
  5
1EF
100
AcDbEntity
  8
Framing
 62
256
370
-1
 48
1.0
  6
BYLAYER
100
AcDbLine
 10
84.75
 20
81.75
 30
0.0
 11
46.75
 21
81.75
 31
0.0
  0
LINE
  5
1F0
100
AcDbEntity
  8
step_04
 62
256
370
-1
 48
1.0
  6
BYLAYER
100
AcDbLine
 10
85.0
 20
106.0
 30
0.0
 11
66.0
 21
106.0
 31
0.0
  0
LINE
  5
1F1
100
AcDbEntity
  8
Framing
 62
256
370
-1
 48
1.0
  6
BYLAYER
100
AcDbLine
 10
46.75
 20
85.5
 30
0.0
 11
46.75
 21
84.0
 31
0.0
  0
LINE
  5
1F2
100
AcDbEntity
  8
Framing
 62
256
370
-1
 48
1.0
  6
BYLAYER
100
AcDbLine
 10
46.75
 20
83.25
 30
0.0
 11
46.75
 21
81.75
 31
0.0
  0
LINE
  5
1F3
100
AcDbEntity
  8
Framing
 62
256
370
-1
 48
1.0
  6
BYLAYER
100
AcDbLine
 10
84.75
 20
85.5
 30
0.0
 11
84.75
 21
84.0
 31
0.0
  0
LINE
  5
1F4
100
AcDbEntity
  8
Framing
 62
256
370
-1
 48
1.0
  6
BYLAYER
100
AcDbLine
 10
84.75
 20
83.25
 30
0.0
 11
84.75
 21
81.75
 31
0.0
  0
LINE
  5
1F5
100
AcDbEntity
  8
Framing
 62
256
370
-1
 48
1.0
  6
BYLAYER
100
AcDbLine
 10
45.25
 20
85.5
 30
0.0
 11
83.25
 21
85.5
 31
0.0
  0
LINE
  5
1F6
100
AcDbEntity
  8
step_10
 62
256
370
-1
 48
1.0
  6
BYLAYER
100
AcDbLine
 10
44.5
 20
87.0
 30
0.0
 11
44.5
 21
-5.0
 31
0.0
  0
LINE
  5
1F7
100
AcDbEntity
  8
step_11
 62
256
370
-1
 48
1.0
  6
BYLAYER
100
AcDbLine
 10
44.5
 20
87.0
 30
0.0
 11
44.5
 21
-5.0
 31
0.0
  0
LEADER
  5
1F8
100
AcDbEntity
  8
step_09
 62
256
370
-1
 48
1.0
  6
BYLAYER
100
AcDbLeader
  3
Standard
 71
1
 72
0
 73
3
 74
0
 75
0
 40
1.0
 41
10.0
 76
3
 10
44.5
 20
87.0
 10
34.0
 20
96.0
 10
40.0
 20
96.0
1001
ACAD
1000
DSTYLE
1002
{
1070
40
1040
1.0
1002
}
  0
MTEXT
  5
1F9
100
AcDbEntity
  8
step_09
 62
256
370
-1
 48
1.0
  6
BYLAYER
100
AcDbMText
 10
40.9714451151534078
 20
97.3387159108746829
 30
0.0
 40
3.0
 41
0.0
 71
1
 72
1
  1
\fDejaVu Sans|b0|i0|c0|p0;\H2.5;Exterior caulk between panels
  7
textstyle55
 50
0.0
 73
2
 44
1.0
  0
LEADER
  5
1FA
100
AcDbEntity
  8
step_08
 62
256
370
-1
 48
1.0
  6
BYLAYER
100
AcDbLeader
  3
Standard
 71
1
 72
0
 73
3
 74
0
 75
0
 40
1.0
 41
10.0
 76
3
 10
17.2499999999999964
 20
71.6646786984213975
 10
-9.0
 20
98.0
 10
-2.0
 20
98.0
1001
ACAD
1000
DSTYLE
1002
{
1070
40
1040
1.0
1002
}
  0
MTEXT
  5
1FB
100
AcDbEntity
  8
step_08
 62
256
370
-1
 48
1.0
  6
BYLAYER
100
AcDbMText
 10
-1.0
 20
100.0
 30
0.0
 40
3.0
 41
0.0
 71
1
 72
1
  1
\H2;Trim Tyvek flush with inside of window opening
  7
textstyle0
 50
0.0
 73
2
 44
1.0
  0
LINE
  5
1FC
100
AcDbEntity
  8
step_10
 62
256
370
-1
 48
1.0
  6
BYLAYER
100
AcDbLine
 10
18.75
 20
80.5
 30
0.0
 11
41.75
 21
80.5
 31
0.0
  0
LINE
  5
1FD
100
AcDbEntity
  8
step_11
 62
256
370
-1
 48
1.0
  6
BYLAYER
100
AcDbLine
 10
18.75
 20
80.5
 30
0.0
 11
41.75
 21
80.5
 31
0.0
  0
LINE
  5
1FE
100
AcDbEntity
  8
step_10
 62
256
370
-1
 48
1.0
  6
BYLAYER
100
AcDbLine
 10
41.7499999999999929
 20
45.5
 30
0.0
 11
18.75
 21
45.5
 31
0.0
  0
LINE
  5
1FF
100
AcDbEntity
  8
step_11
 62
256
370
-1
 48
1.0
  6
BYLAYER
100
AcDbLine
 10
41.7499999999999929
 20
45.5
 30
0.0
 11
18.75
 21
45.5
 31
0.0
  0
LINE
  5
200
100
AcDbEntity
  8
step_10
 62
256
370
-1
 48
1.0
  6
BYLAYER
100
AcDbLine
 10
18.75
 20
67.0
 30
0.0
 11
18.75
 21
67.0
 31
0.0
  0
LINE
  5
201
100
AcDbEntity
  8
step_11
 62
256
370
-1
 48
1.0
  6
BYLAYER
100
AcDbLine
 10
18.75
 20
67.0
 30
0.0
 11
18.75
 21
67.0
 31
0.0
  0
LINE
  5
202
100
AcDbEntity
  8
step_10
 62
256
370
-1
 48
1.0
  6
BYLAYER
100
AcDbLine
 10
18.75
 20
61.8628263206142108
 30
0.0
 11
41.7642636944590109
 21
61.8628263206142108
 31
0.0
  0
LINE
  5
203
100
AcDbEntity
  8
step_11
 62
256
370
-1
 48
1.0
  6
BYLAYER
100
AcDbLine
 10
18.75
 20
61.8628263206142108
 30
0.0
 11
41.7642636944590109
 21
61.8628263206142108
 31
0.0
  0
LINE
  5
204
100
AcDbEntity
  8
step_10
 62
256
370
-1
 48
1.0
  6
BYLAYER
100
AcDbLine
 10
18.7609937133564131
 20
62.2721350195424677
 30
0.0
 11
41.7642636944590109
 21
62.2721350195424677
 31
0.0
  0
LINE
  5
205
100
AcDbEntity
  8
step_11
 62
256
370
-1
 48
1.0
  6
BYLAYER
100
AcDbLine
 10
18.7609937133564131
 20
62.2721350195424677
 30
0.0
 11
41.7642636944590109
 21
62.2721350195424677
 31
0.0
  0
LEADER
  5
206
100
AcDbEntity
  8
step_10
 62
256
370
-1
 48
1.0
  6
BYLAYER
100
AcDbLeader
  3
Standard
 71
1
 72
0
 73
3
 74
0
 75
0
 40
1.0
 41
10.0
 76
3
 10
17.3921271564194484
 20
67.3309405782862314
 10
-1.4272046872971238
 20
102.0861764285156283
 10
4.8999999999999995
 20
102.0999999999999943
1001
ACAD
1000
DSTYLE
1002
{
1070
40
1040
1.0
1002
}
  0
MTEXT
  5
207
100
AcDbEntity
  8
step_10
 62
256
370
-1
 48
1.0
  6
BYLAYER
100
AcDbMText
 10
6.5873309487552696
 20
103.0436354120394071
 30
0.0
 40
3.0
 41
0.0
 71
1
 72
1
  1
\H2;Caulk around opening,\Pinstall window unit
  7
textstyle2
 50
0.0
 73
2
 44
1.0
  0
LEADER
  5
208
100
AcDbEntity
  8
step_10
 62
256
370
-1
 48
1.0
  6
BYLAYER
100
AcDbLeader
  3
Standard
 71
1
 72
0
 73
3
 74
0
 75
0
 40
1.0
 41
10.0
 76
3
 10
17.0
 20
74.0
 10
7.0
 20
95.0
 10
10.0
 20
95.0
1001
ACAD
1000
DSTYLE
1002
{
1070
40
1040
1.0
1002
}
  0
MTEXT
  5
209
100
AcDbEntity
  8
step_10
 62
256
370
-1
 48
1.0
  6
BYLAYER
100
AcDbMText
 10
11.0
 20
96.0
 30
0.0
 40
3.0
 41
0.0
 71
1
 72
1
  1
\H2;Peel-and-stick first
  7
textstyle1
 50
0.0
 73
2
 44
1.0
  0
LEADER
  5
20A
100
AcDbEntity
  8
step_10
 62
256
370
-1
 48
1.0
  6
BYLAYER
100
AcDbLeader
  3
Standard
 71
1
 72
0
 73
3
 74
0
 75
0
 40
1.0
 41
10.0
 76
3
 10
29.0
 20
82.0
 10
36.0
 20
90.0
 10
41.0
 20
90.0
1001
ACAD
1000
DSTYLE
1002
{
1070
40
1040
1.0
1002
}
  0
MTEXT
  5
20B
100
AcDbEntity
  8
step_10
 62
256
370
-1
 48
1.0
  6
BYLAYER
100
AcDbMText
 10
42.4850607842924006
 20
91.3976134512953706
 30
0.0
 40
3.0
 41
0.0
 71
1
 72
1
  1
\H2;Peel-and-stick last
  7
textstyle5
 50
0.0
 73
2
 44
1.0
  0
MTEXT
  5
20C
100
AcDbEntity
  8
step_09
 62
256
370
-1
 48
1.0
  6
BYLAYER
100
AcDbMText
 10
49.2451224810193793
 20
64.1161743193470102
 30
0.0
 40
3.0
 41
0.0
 71
1
 72
1
  1
\fLiberation Sans|b1|i0|c0|p0;\H2.50001;Use Panel Nails
  7
textstyle4
 50
0.0
 73
2
 44
1.0
  0
MTEXT
  5
20D
100
AcDbEntity
  8
step_09
 62
256
370
-1
 48
1.0
  6
BYLAYER
100
AcDbMText
 10
56.8819184670968596
 20
7.1203932546911268
 30
0.0
 40
3.0
 41
0.0
 71
1
 72
1
  1
\C7;NO NAILS
  7
textstyle3
 50
0.0
 73
2
 44
1.0
  0
LEADER
  5
20E
100
AcDbEntity
  8
step_02
 62
256
370
-1
 48
1.0
  6
BYLAYER
100
AcDbLeader
  3
Standard
 71
1
 72
0
 73
3
 74
0
 75
0
 40
1.0
 41
10.0
 76
3
 10
26.7119231904203431
 20
87.143668138666655
 10
26.7124481758416685
 20
102.7637394561033943
 10
31.6340832072642471
 20
102.7637394561033943
1001
ACAD
1000
DSTYLE
1002
{
1070
40
1040
1.0
1002
}
  0
MTEXT
  5
20F
100
AcDbEntity
  8
step_02
 62
256
370
-1
 48
1.0
  6
BYLAYER
100
AcDbMText
 10
32.4582930205264759
 20
103.7559410784381839
 30
0.0
 40
3.0
 41
0.0
 71
1
 72
1
  1
\H2;Clamp 3 header boards to top plate
  7
textstyle6
 50
0.0
 73
2
 44
1.0
  0
INSERT
  5
210
100
AcDbEntity
  8
step_04
 62
256
370
-1
 48
1.0
  6
BYLAYER
100
AcDbBlockReference
  2
noNail
 10
92.2999999999999972
 20
-1.1000000000000001
 30
0.0
 50
180.0
  0
INSERT
  5
211
100
AcDbEntity
  8
step_04
 62
256
370
-1
 48
1.0
  6
BYLAYER
100
AcDbBlockReference
  2
noNail
 10
52.7756531561958511
 20
-1.1057693389459486
 30
0.0
 50
180.0
  0
INSERT
  5
212
100
AcDbEntity
  8
step_04
 62
256
370
-1
 48
1.0
  6
BYLAYER
100
AcDbBlockReference
  2
noNail
 10
92.4000000000000057
 20
88.2000000000000028
 30
0.0
 41
1.0
 42
-1.0
 43
1.0
 50
180.7795223906362025
  0
MTEXT
  5
213
100
AcDbEntity
  8
step_06
 62
256
370
-1
 48
1.0
  6
BYLAYER
100
AcDbMText
 10
89.2054036030564959
 20
94.8097414103516769
 30
0.0
 40
3.0
 41
0.0
 71
1
 72
1
  1
\H2;x2
  7
textstyle10
 50
0.0
 73
2
 44
1.0
  0
MTEXT
  5
214
100
AcDbEntity
  8
step_06
 62
256
370
-1
 48
1.0
  6
BYLAYER
100
AcDbMText
 10
48.4968852632271705
 20
94.8097414103516769
 30
0.0
 40
3.0
 41
0.0
 71
1
 72
1
  1
\H2;x2
  7
textstyle9
 50
0.0
 73
2
 44
1.0
  0
MTEXT
  5
215
100
AcDbEntity
  8
step_06
 62
256
370
-1
 48
1.0
  6
BYLAYER
100
AcDbMText
 10
80.0
 20
-6.000000000000008
 30
0.0
 40
3.0
 41
0.0
 71
1
 72
1
  1
\fDejaVu Sans|b0|i0|c0|p0;\H2;x2
  7
textstyle8
 50
0.0
 73
2
 44
1.0
  0
MTEXT
  5
216
100
AcDbEntity
  8
step_06
 62
256
370
-1
 48
1.0
  6
BYLAYER
100
AcDbMText
 10
40.0
 20
-6.0000000000001235
 30
0.0
 40
3.0
 41
0.0
 71
1
 72
1
  1
\fDejaVu Sans|b0|i0|c0|p0;\H2;x2
  7
textstyle7
 50
0.0
 73
2
 44
1.0
  0
LINE
  5
217
100
AcDbEntity
  8
step_10
 62
256
370
-1
 48
1.0
  6
BYLAYER
100
AcDbLine
 10
18.75
 20
67.0
 30
0.0
 11
18.75
 21
67.0
 31
0.0
  0
LINE
  5
218
100
AcDbEntity
  8
step_11
 62
256
370
-1
 48
1.0
  6
BYLAYER
100
AcDbLine
 10
18.75
 20
67.0
 30
0.0
 11
18.75
 21
67.0
 31
0.0
  0
LINE
  5
219
100
AcDbEntity
  8
step_10
 62
256
370
-1
 48
1.0
  6
BYLAYER
100
AcDbLine
 10
18.75
 20
62.2721350195424748
 30
0.0
 11
18.75
 21
80.5
 31
0.0
  0
LINE
  5
21A
100
AcDbEntity
  8
step_11
 62
256
370
-1
 48
1.0
  6
BYLAYER
100
AcDbLine
 10
18.75
 20
62.2721350195424748
 30
0.0
 11
18.75
 21
80.5
 31
0.0
  0
LINE
  5
21B
100
AcDbEntity
  8
step_10
 62
256
370
-1
 48
1.0
  6
BYLAYER
100
AcDbLine
 10
41.75
 20
80.5
 30
0.0
 11
41.75
 21
62.2721350195424748
 31
0.0
  0
LINE
  5
21C
100
AcDbEntity
  8
step_11
 62
256
370
-1
 48
1.0
  6
BYLAYER
100
AcDbLine
 10
41.75
 20
80.5
 30
0.0
 11
41.75
 21
62.2721350195424748
 31
0.0
  0
LINE
  5
21D
100
AcDbEntity
  8
step_10
 62
256
370
-1
 48
1.0
  6
BYLAYER
100
AcDbLine
 10
41.75
 20
67.4093086989282568
 30
0.0
 11
41.75
 21
67.4093086989282568
 31
0.0
  0
LINE
  5
21E
100
AcDbEntity
  8
step_11
 62
256
370
-1
 48
1.0
  6
BYLAYER
100
AcDbLine
 10
41.75
 20
67.4093086989282568
 30
0.0
 11
41.75
 21
67.4093086989282568
 31
0.0
  0
LINE
  5
21F
100
AcDbEntity
  8
step_10
 62
256
370
-1
 48
1.0
  6
BYLAYER
100
AcDbLine
 10
41.75
 20
67.0
 30
0.0
 11
41.75
 21
67.4093086989282568
 31
0.0
  0
LINE
  5
220
100
AcDbEntity
  8
step_11
 62
256
370
-1
 48
1.0
  6
BYLAYER
100
AcDbLine
 10
41.75
 20
67.0
 30
0.0
 11
41.75
 21
67.4093086989282568
 31
0.0
  0
LINE
  5
221
100
AcDbEntity
  8
step_10
 62
256
370
-1
 48
1.0
  6
BYLAYER
100
AcDbLine
 10
41.75
 20
67.4093086989282568
 30
0.0
 11
41.75
 21
67.4093086989282568
 31
0.0
  0
LINE
  5
222
100
AcDbEntity
  8
step_11
 62
256
370
-1
 48
1.0
  6
BYLAYER
100
AcDbLine
 10
41.75
 20
67.4093086989282568
 30
0.0
 11
41.75
 21
67.4093086989282568
 31
0.0
  0
LINE
  5
223
100
AcDbEntity
  8
step_10
 62
256
370
-1
 48
1.0
  6
BYLAYER
100
AcDbLine
 10
44.0
 20
81.0
 30
0.0
 11
44.0
 21
82.0
 31
0.0
  0
LINE
  5
224
100
AcDbEntity
  8
step_11
 62
256
370
-1
 48
1.0
  6
BYLAYER
100
AcDbLine
 10
44.0
 20
81.0
 30
0.0
 11
44.0
 21
82.0
 31
0.0
  0
LINE
  5
225
100
AcDbEntity
  8
step_10
 62
256
370
-1
 48
1.0
  6
BYLAYER
100
AcDbLine
 10
44.0
 20
82.0
 30
0.0
 11
16.5969625947733128
 21
81.9738625996774886
 31
0.0
  0
LINE
  5
226
100
AcDbEntity
  8
step_11
 62
256
370
-1
 48
1.0
  6
BYLAYER
100
AcDbLine
 10
44.0
 20
82.0
 30
0.0
 11
16.5969625947733128
 21
81.9738625996774886
 31
0.0
  0
LINE
  5
227
100
AcDbEntity
  8
step_10
 62
256
370
-1
 48
1.0
  6
BYLAYER
100
AcDbLine
 10
16.5969625947733128
 20
81.9738625996774886
 30
0.0
 11
16.5979164083249842
 21
80.9738630545577394
 31
0.0
  0
LINE
  5
228
100
AcDbEntity
  8
step_11
 62
256
370
-1
 48
1.0
  6
BYLAYER
100
AcDbLine
 10
16.5969625947733128
 20
81.9738625996774886
 30
0.0
 11
16.5979164083249842
 21
80.9738630545577394
 31
0.0
  0
LEADER
  5
229
100
AcDbEntity
  8
step_10
 62
256
370
-1
 48
1.0
  6
BYLAYER
100
AcDbLeader
  3
Standard
 71
1
 72
0
 73
3
 74
0
 75
0
 40
1.0
 41
10.0
 76
2
 10
42.2483517871851788
 20
70.746505125139862
 10
7.0
 20
95.0
1001
ACAD
1000
DSTYLE
1002
{
1070
40
1040
1.0
1002
}
  0
LINE
  5
22A
100
AcDbEntity
  8
step_10
 62
256
370
-1
 48
1.0
  6
BYLAYER
100
AcDbLine
 10
16.5979164083249842
 20
80.9738630545577394
 30
0.0
 11
44.0
 21
81.0
 31
0.0
  0
LINE
  5
22B
100
AcDbEntity
  8
step_11
 62
256
370
-1
 48
1.0
  6
BYLAYER
100
AcDbLine
 10
16.5979164083249842
 20
80.9738630545577394
 30
0.0
 11
44.0
 21
81.0
 31
0.0
  0
HATCH
  5
22C
100
AcDbEntity
  8
step_10
 62
256
370
-1
 48
1.0
  6
BYLAYER
100
AcDbHatch
 10
0.0
 20
0.0
 30
0.0
210
0.0
220
0.0
230
1.0
  2
SOLID
 70
1
 71
0
 91
1
 92
1
 93
4
 72
1
 10
44.0
 20
82.0
 11
16.5969625947733128
 21
81.9738625996774886
 72
1
 10
16.5969625947733128
 20
81.9738625996774886
 11
16.5979164083249842
 21
80.9738630545577394
 72
1
 10
16.5979164083249842
 20
80.9738630545577394
 11
44.0
 21
81.0
 72
1
 10
44.0
 20
81.0
 11
44.0
 21
82.0
 97
0
 75
0
 76
1
 98
0
1001
ACAD
1010
0.0
1020
0.0
1030
0
  0
HATCH
  5
22D
100
AcDbEntity
  8
step_11
 62
256
370
-1
 48
1.0
  6
BYLAYER
100
AcDbHatch
 10
0.0
 20
0.0
 30
0.0
210
0.0
220
0.0
230
1.0
  2
SOLID
 70
1
 71
0
 91
1
 92
1
 93
4
 72
1
 10
44.0
 20
82.0
 11
16.5969625947733128
 21
81.9738625996774886
 72
1
 10
16.5969625947733128
 20
81.9738625996774886
 11
16.5979164083249842
 21
80.9738630545577394
 72
1
 10
16.5979164083249842
 20
80.9738630545577394
 11
44.0
 21
81.0
 72
1
 10
44.0
 20
81.0
 11
44.0
 21
82.0
 97
0
 75
0
 76
1
 98
0
1001
ACAD
1010
0.0
1020
0.0
1030
0
  0
LINE
  5
22E
100
AcDbEntity
  8
step_08
 62
9
420
12632256
370
-1
 48
1.0
  6
BYLAYER
100
AcDbLine
 10
18.25
 20
81.0000000000000142
 30
0.0
 11
18.2500000000000142
 21
45.0000000000000071
 31
0.0
  0
LINE
  5
22F
100
AcDbEntity
  8
step_08
 62
9
420
12632256
370
-1
 48
1.0
  6
BYLAYER
100
AcDbLine
 10
42.2500000000000071
 20
45.0000000000000071
 30
0.0
 11
42.2499999999999929
 21
81.0
 31
0.0
  0
LINE
  5
230
100
AcDbEntity
  8
step_08
 62
256
370
-1
 48
1.0
  6
BYLAYER
100
AcDbLine
 10
42.2499999999999929
 20
81.0
 30
0.0
 11
42.2499999999999929
 21
81.0000000000000284
 31
0.0
  0
HATCH
  5
231
100
AcDbEntity
  8
step_08
 62
256
370
-1
 48
1.0
  6
BYLAYER
100
AcDbHatch
 10
0.0
 20
0.0
 30
0.0
210
0.0
220
0.0
230
1.0
  2
SOLID
 70
1
 71
0
 91
1
 92
1
 93
4
 72
1
 10
42.25
 20
81.0
 11
43.2500000000000071
 21
81.0
 72
1
 10
43.2500000000000071
 20
81.0
 11
43.2500000000000071
 21
45.0000000000000071
 72
1
 10
43.25
 20
45.0000000000000071
 11
42.25
 21
45.0000000000000071
 72
1
 10
42.2500000000000071
 20
45.0000000000000071
 11
42.2499999999999929
 21
81.0
 97
0
 75
0
 76
1
 98
0
1001
ACAD
1010
0.0
1020
0.0
1030
0
  0
HATCH
  5
232
100
AcDbEntity
  8
step_10
 62
256
370
-1
 48
1.0
  6
BYLAYER
100
AcDbHatch
 10
0.0
 20
0.0
 30
0.0
210
0.0
220
0.0
230
1.0
  2
SOLID
 70
1
 71
0
 91
1
 92
1
 93
4
 72
1
 10
42.25
 20
81.0
 11
43.2500000000000071
 21
81.0
 72
1
 10
43.2500000000000071
 20
81.0
 11
43.2500000000000071
 21
45.0000000000000071
 72
1
 10
43.25
 20
45.0000000000000071
 11
42.25
 21
45.0000000000000071
 72
1
 10
42.2500000000000071
 20
45.0000000000000071
 11
42.2499999999999929
 21
81.0
 97
0
 75
0
 76
1
 98
0
1001
ACAD
1010
0.0
1020
0.0
1030
0
  0
HATCH
  5
233
100
AcDbEntity
  8
step_11
 62
256
370
-1
 48
1.0
  6
BYLAYER
100
AcDbHatch
 10
0.0
 20
0.0
 30
0.0
210
0.0
220
0.0
230
1.0
  2
SOLID
 70
1
 71
0
 91
1
 92
1
 93
4
 72
1
 10
42.25
 20
81.0
 11
43.2500000000000071
 21
81.0
 72
1
 10
43.2500000000000071
 20
81.0
 11
43.2500000000000071
 21
45.0000000000000071
 72
1
 10
43.25
 20
45.0000000000000071
 11
42.25
 21
45.0000000000000071
 72
1
 10
42.2500000000000071
 20
45.0000000000000071
 11
42.2499999999999929
 21
81.0
 97
0
 75
0
 76
1
 98
0
1001
ACAD
1010
0.0
1020
0.0
1030
0
  0
HATCH
  5
234
100
AcDbEntity
  8
step_08
 62
256
370
-1
 48
1.0
  6
BYLAYER
100
AcDbHatch
 10
0.0
 20
0.0
 30
0.0
210
0.0
220
0.0
230
1.0
  2
SOLID
 70
1
 71
0
 91
1
 92
1
 93
4
 72
1
 10
18.2499999999999964
 20
45.0000000000000071
 11
17.2499999999999964
 21
45.0000000000000071
 72
1
 10
17.2499999999999964
 20
45.0000000000000071
 11
17.25
 21
81.0000000000000284
 72
1
 10
17.25
 20
81.0000000000000284
 11
18.25
 21
81.0000000000000142
 72
1
 10
18.25
 20
81.0000000000000142
 11
18.2500000000000142
 21
45.0000000000000071
 97
0
 75
0
 76
1
 98
0
1001
ACAD
1010
0.0
1020
0.0
1030
0
  0
HATCH
  5
235
100
AcDbEntity
  8
step_10
 62
256
370
-1
 48
1.0
  6
BYLAYER
100
AcDbHatch
 10
0.0
 20
0.0
 30
0.0
210
0.0
220
0.0
230
1.0
  2
SOLID
 70
1
 71
0
 91
1
 92
1
 93
4
 72
1
 10
18.2499999999999964
 20
45.0000000000000071
 11
17.2499999999999964
 21
45.0000000000000071
 72
1
 10
17.2499999999999964
 20
45.0000000000000071
 11
17.25
 21
81.0000000000000284
 72
1
 10
17.25
 20
81.0000000000000284
 11
18.25
 21
81.0000000000000142
 72
1
 10
18.25
 20
81.0000000000000142
 11
18.2500000000000142
 21
45.0000000000000071
 97
0
 75
0
 76
1
 98
0
1001
ACAD
1010
0.0
1020
0.0
1030
0
  0
HATCH
  5
236
100
AcDbEntity
  8
step_11
 62
256
370
-1
 48
1.0
  6
BYLAYER
100
AcDbHatch
 10
0.0
 20
0.0
 30
0.0
210
0.0
220
0.0
230
1.0
  2
SOLID
 70
1
 71
0
 91
1
 92
1
 93
4
 72
1
 10
18.2499999999999964
 20
45.0000000000000071
 11
17.2499999999999964
 21
45.0000000000000071
 72
1
 10
17.2499999999999964
 20
45.0000000000000071
 11
17.25
 21
81.0000000000000284
 72
1
 10
17.25
 20
81.0000000000000284
 11
18.25
 21
81.0000000000000142
 72
1
 10
18.25
 20
81.0000000000000142
 11
18.2500000000000142
 21
45.0000000000000071
 97
0
 75
0
 76
1
 98
0
1001
ACAD
1010
0.0
1020
0.0
1030
0
  0
LINE
  5
237
100
AcDbEntity
  8
Framing
 62
256
370
-1
 48
1.0
  6
BYLAYER
100
AcDbLine
 10
42.25
 20
81.0
 30
0.0
 11
42.25
 21
45.0
 31
0.0
  0
LINE
  5
238
100
AcDbEntity
  8
Framing
 62
256
370
-1
 48
1.0
  6
BYLAYER
100
AcDbLine
 10
18.25
 20
81.0
 30
0.0
 11
18.25
 21
45.0
 31
0.0
  0
LINE
  5
239
100
AcDbEntity
  8
Framing
 62
256
370
-1
 48
1.0
  6
BYLAYER
100
AcDbLine
 10
18.25
 20
45.0
 30
0.0
 11
18.25
 21
45.0
 31
0.0
  0
LINE
  5
23A
100
AcDbEntity
  8
step_10
 62
256
370
-1
 48
1.0
  6
BYLAYER
100
AcDbLine
 10
18.75
 20
61.8628263206142108
 30
0.0
 11
18.75
 21
45.5
 31
0.0
  0
LINE
  5
23B
100
AcDbEntity
  8
step_11
 62
256
370
-1
 48
1.0
  6
BYLAYER
100
AcDbLine
 10
18.75
 20
61.8628263206142108
 30
0.0
 11
18.75
 21
45.5
 31
0.0
  0
LINE
  5
23C
100
AcDbEntity
  8
step_10
 62
256
370
-1
 48
1.0
  6
BYLAYER
100
AcDbLine
 10
41.7642636944590109
 20
61.8628263206142037
 30
0.0
 11
41.75
 21
45.5
 31
0.0
  0
LINE
  5
23D
100
AcDbEntity
  8
step_11
 62
256
370
-1
 48
1.0
  6
BYLAYER
100
AcDbLine
 10
41.7642636944590109
 20
61.8628263206142037
 30
0.0
 11
41.75
 21
45.5
 31
0.0
  0
HATCH
  5
23E
100
AcDbEntity
  8
step_10
 62
256
370
-1
 48
1.0
  6
BYLAYER
100
AcDbHatch
 10
0.0
 20
0.0
 30
0.0
210
0.0
220
0.0
230
1.0
  2
JIS_WOOD
 70
0
 71
0
 91
1
 92
1
 93
4
 72
1
 10
18.75
 20
61.8628263206142108
 11
41.7642636944590109
 21
61.8628263206142108
 72
1
 10
41.7642636944590109
 20
61.8628263206142037
 11
41.75
 21
45.5
 72
1
 10
41.7499999999999929
 20
45.5
 11
18.75
 21
45.5
 72
1
 10
18.75
 20
45.5
 11
18.75
 21
61.8628263206142108
 97
0
 75
0
 76
1
 52
0.0
 41
1.0
 77
0
 78
1
 53
45.0
 43
0.0
 44
0.0
 45
-0.0883883476483184
 46
0.0883883476483185
 79
0
 98
0
1001
ACAD
1010
0.0
1020
0.0
1030
0
  0
HATCH
  5
23F
100
AcDbEntity
  8
step_11
 62
256
370
-1
 48
1.0
  6
BYLAYER
100
AcDbHatch
 10
0.0
 20
0.0
 30
0.0
210
0.0
220
0.0
230
1.0
  2
JIS_WOOD
 70
0
 71
0
 91
1
 92
1
 93
4
 72
1
 10
18.75
 20
61.8628263206142108
 11
41.7642636944590109
 21
61.8628263206142108
 72
1
 10
41.7642636944590109
 20
61.8628263206142037
 11
41.75
 21
45.5
 72
1
 10
41.7499999999999929
 20
45.5
 11
18.75
 21
45.5
 72
1
 10
18.75
 20
45.5
 11
18.75
 21
61.8628263206142108
 97
0
 75
0
 76
1
 52
0.0
 41
1.0
 77
0
 78
1
 53
45.0
 43
0.0
 44
0.0
 45
-0.0883883476483184
 46
0.0883883476483185
 79
0
 98
0
1001
ACAD
1010
0.0
1020
0.0
1030
0
  0
LINE
  5
240
100
AcDbEntity
  8
step_09
 62
256
370
-1
 48
1.0
  6
BYLAYER
100
AcDbLine
 10
44.5
 20
87.0
 30
0.0
 11
44.5
 21
-5.0
 31
0.0
  0
LEADER
  5
241
100
AcDbEntity
  8
step_09
 62
256
370
-1
 48
1.0
  6
BYLAYER
100
AcDbLeader
  3
Standard
 71
1
 72
0
 73
3
 74
0
 75
0
 40
1.0
 41
10.0
 76
3
 10
47.6700485761029924
 20
1.5639021396412762
 10
51.6763561291299496
 20
5.5153287672843012
 10
55.6277827567729801
 20
5.5153287672843012
1001
ACAD
1000
DSTYLE
1002
{
1070
40
1040
1.0
1002
}
  0
LEADER
  5
242
100
AcDbEntity
  8
step_09
 62
256
370
-1
 48
1.0
  6
BYLAYER
100
AcDbLeader
  3
Standard
 71
1
 72
0
 73
3
 74
0
 75
0
 40
1.0
 41
10.0
 76
3
 10
84.1771664043431258
 20
1.5913426023332413
 10
80.5275848663117131
 20
5.4878883045923343
 10
77.8933004478830355
 20
5.4878883045923343
1001
ACAD
1000
DSTYLE
1002
{
1070
40
1040
1.0
1002
}
  0
MTEXT
  5
243
100
AcDbEntity
  8
step_09
 62
256
370
-1
 48
1.0
  6
BYLAYER
100
AcDbMText
 10
50.0
 20
40.0
 30
0.0
 40
3.0
 41
0.0
 71
1
 72
1
  1
PANEL 2
  7
textstyle51
 50
0.0
 73
2
 44
1.0
  0
MTEXT
  5
244
100
AcDbEntity
  8
step_09
 62
256
370
-1
 48
1.0
  6
BYLAYER
100
AcDbMText
 10
22.0400152409999599
 20
40.0458932313878293
 30
0.0
 40
3.0
 41
0.0
 71
1
 72
1
  1
PANEL 1
  7
textstyle50
 50
0.0
 73
2
 44
1.0
  0
LINE
  5
245
100
AcDbEntity
  8
Framing
 62
256
370
-1
 48
1.0
  6
BYLAYER
100
AcDbLine
 10
84.75
 20
85.5
 30
0.0
 11
86.25
 21
85.5
 31
0.0
  0
LINE
  5
246
100
AcDbEntity
  8
Framing
 62
256
370
-1
 48
1.0
  6
BYLAYER
100
AcDbLine
 10
46.75
 20
85.5
 30
0.0
 11
84.75
 21
85.5
 31
0.0
  0
LINE
  5
247
100
AcDbEntity
  8
step_04
 62
256
370
-1
 48
1.0
  6
BYLAYER
100
AcDbLine
 10
66.0
 20
109.75
 30
0.0
 11
85.0
 21
109.75
 31
0.0
  0
LINE
  5
248
100
AcDbEntity
  8
Framing
 62
256
370
-1
 48
1.0
  6
BYLAYER
100
AcDbLine
 10
45.25
 20
1.5
 30
0.0
 11
46.75
 21
1.4999999999999858
 31
0.0
  0
LINE
  5
249
100
AcDbEntity
  8
step_03
 62
256
370
-1
 48
1.0
  6
BYLAYER
100
AcDbLine
 10
45.25
 20
1.5
 30
0.0
 11
43.75
 21
1.5
 31
0.0
  0
LINE
  5
24A
100
AcDbEntity
  8
step_03
 62
256
370
-1
 48
1.0
  6
BYLAYER
100
AcDbLine
 10
43.75
 20
85.5
 30
0.0
 11
45.25
 21
85.5
 31
0.0
  0
HATCH
  5
24B
100
AcDbEntity
  8
step_03
 62
256
370
-1
 48
1.0
  6
BYLAYER
100
AcDbHatch
 10
0.0
 20
0.0
 30
0.0
210
0.0
220
0.0
230
1.0
  2
SOLID
 70
1
 71
0
 91
1
 92
1
 93
4
 72
1
 10
43.75
 20
85.5
 11
45.25
 21
85.5
 72
1
 10
45.25
 20
85.5
 11
45.25
 21
1.5
 72
1
 10
45.25
 20
1.5
 11
43.75
 21
1.5
 72
1
 10
43.75
 20
1.5
 11
43.75
 21
85.5
 97
0
 75
0
 76
1
 98
0
1001
ACAD
1010
0.0
1020
0.0
1030
0
  0
HATCH
  5
24C
100
AcDbEntity
  8
step_04
 62
252
420
10526884
370
-1
 48
1.0
  6
BYLAYER
100
AcDbHatch
 10
0.0
 20
0.0
 30
0.0
210
0.0
220
0.0
230
1.0
  2
SOLID
 70
1
 71
0
 91
1
 92
1
 93
4
 72
1
 10
43.75
 20
85.5
 11
45.25
 21
85.5
 72
1
 10
45.25
 20
85.5
 11
45.25
 21
1.5
 72
1
 10
45.25
 20
1.5
 11
43.75
 21
1.5
 72
1
 10
43.75
 20
1.5
 11
43.75
 21
85.5
 97
0
 75
0
 76
1
 98
0
1001
ACAD
1010
0.0
1020
0.0
1030
0
  0
LINE
  5
24D
100
AcDbEntity
  8
step_08
 62
256
370
-1
 48
1.0
  6
BYLAYER
100
AcDbLine
 10
84.75
 20
82.5
 30
0.0
 11
84.75
 21
1.5
 31
0.0
  0
LINE
  5
24E
100
AcDbEntity
  8
step_08
 62
256
370
-1
 48
1.0
  6
BYLAYER
100
AcDbLine
 10
84.75
 20
1.5
 30
0.0
 11
46.75
 21
1.5
 31
0.0
  0
LINE
  5
24F
100
AcDbEntity
  8
step_08
 62
256
370
-1
 48
1.0
  6
BYLAYER
100
AcDbLine
 10
46.75
 20
1.5
 30
0.0
 11
46.75
 21
82.5
 31
0.0
  0
LINE
  5
250
100
AcDbEntity
  8
step_11
 62
256
370
-1
 48
1.0
  6
BYLAYER
100
AcDbLine
 10
84.75
 20
82.5
 30
0.0
 11
84.75
 21
1.5
 31
0.0
  0
LINE
  5
251
100
AcDbEntity
  8
step_11
 62
256
370
-1
 48
1.0
  6
BYLAYER
100
AcDbLine
 10
84.75
 20
1.5
 30
0.0
 11
46.75
 21
1.5
 31
0.0
  0
LINE
  5
252
100
AcDbEntity
  8
step_11
 62
256
370
-1
 48
1.0
  6
BYLAYER
100
AcDbLine
 10
46.75
 20
1.5
 30
0.0
 11
46.75
 21
82.5
 31
0.0
  0
MTEXT
  5
253
100
AcDbEntity
  8
step_10
 62
256
370
-1
 48
1.0
  6
BYLAYER
100
AcDbMText
 10
45.0
 20
104.0
 30
0.0
 40
3.0
 41
0.0
 71
1
 72
1
  1
\H2;Bore clearance hole 8" below top edge\P and 9 1/2" in from right edge, \Pand rout out the door opening\P
  7
textstyle54
 50
0.0
 73
2
 44
1.0
  0
LEADER
  5
254
100
AcDbEntity
  8
step_10
 62
256
370
-1
 48
1.0
  6
BYLAYER
100
AcDbLeader
  3
Standard
 71
1
 72
0
 73
3
 74
0
 75
0
 40
1.0
 41
10.0
 76
3
 10
80.0
 20
80.0
 10
88.0
 20
99.0
 10
82.0
 20
99.0
1001
ACAD
1000
DSTYLE
1002
{
1070
40
1040
1.0
1002
}
  0
MTEXT
  5
255
100
AcDbEntity
  8
step_11
 62
256
370
-1
 48
1.0
  6
BYLAYER
100
AcDbMText
 10
36.6528882623499683
 20
102.2158254001937649
 30
0.0
 40
3.0
 41
0.0
 71
1
 72
1
  1
\fDejaVu Sans|b0|i0|c0|p0;\H2.5;Nail sides and top of door opening,\P every 8".  DO NOT nail across\P bottom of door opening.
  7
textstyle53
 50
0.0
 73
2
 44
1.0
  0
MTEXT
  5
256
100
AcDbEntity
  8
step_01
 62
256
370
-1
 48
1.0
  6
BYLAYER
100
AcDbMText
 10
51.0
 20
92.0
 30
0.0
 40
3.0
 41
0.0
 71
1
 72
1
  1
\H2;89"
  7
textstyle52
 50
0.0
 73
2
 44
1.0
  0
MTEXT
  5
257
100
AcDbEntity
  8
step_01
 62
256
370
-1
 48
1.0
  6
BYLAYER
100
AcDbMText
 10
58.0
 20
-3.0
 30
0.0
 40
3.0
 41
0.0
 71
1
 72
1
  1
\H2;89"
  7
textstyle42
 50
0.0
 73
2
 44
1.0
  0
DIMENSION
  5
258
100
AcDbEntity
  8
step_01
 62
256
370
-1
 48
1.0
  6
BYLAYER
100
AcDbDimension
 10
-5.0363208169690523
 20
1.5287204635248601
 30
0.0
 11
-6.9113208169690523
 21
43.5
 31
0.0
 70
0
 71
8
 72
2
 74
0
 75
0
 41
1.0
 42
0.0
  1

  3
Standard
100
AcDbAlignedDimension
 13
-0.5
 23
1.5
 33
0.0
 14
-0.5
 24
85.5
 34
0.0
 50
90.0
100
AcDbRotatedDimension
1001
ACAD
1000
DSTYLE
1002
{
1070
144
1040
1.0
1070
40
1040
1.0
1002
}
  0
HATCH
  5
259
100
AcDbEntity
  8
step_08
 62
256
370
-1
 48
1.0
  6
BYLAYER
100
AcDbHatch
 10
0.0
 20
0.0
 30
0.0
210
0.0
220
0.0
230
1.0
  2
SOLID
 70
1
 71
0
 91
1
 92
1
 93
4
 72
1
 10
44.80442526584158
 20
82.4486530658058854
 11
42.6831049222819345
 21
80.3273327222462399
 72
1
 10
42.6831049222819345
 20
80.3273327222462399
 11
41.2688913599088423
 21
81.7415462846193321
 72
1
 10
41.2688913599088423
 20
81.7415462846193321
 11
43.3902117034684807
 21
83.8628666281789776
 72
1
 10
43.3902117034684807
 20
83.8628666281789776
 11
44.80442526584158
 21
82.4486530658058854
 97
0
 75
0
 76
1
 98
0
1001
ACAD
1010
0.0
1020
0.0
1030
0
  0
HATCH
  5
25A
100
AcDbEntity
  8
step_08
 62
256
370
-1
 48
1.0
  6
BYLAYER
100
AcDbHatch
 10
0.0
 20
0.0
 30
0.0
210
0.0
220
0.0
230
1.0
  2
SOLID
 70
1
 71
0
 91
1
 92
1
 93
4
 72
1
 10
19.0534944636920471
 20
44.3571856556999151
 11
16.9321741201324016
 21
42.2358653121402696
 72
1
 10
16.9321741201324016
 20
42.2358653121402696
 11
15.5179605577593094
 21
43.6500788745133619
 72
1
 10
15.5179605577593094
 20
43.6500788745133619
 11
17.6392809013189478
 21
45.7713992180730074
 72
1
 10
17.6392809013189478
 20
45.7713992180730074
 11
19.0534944636920471
 21
44.3571856556999151
 97
0
 75
0
 76
1
 98
0
1001
ACAD
1010
0.0
1020
0.0
1030
0
  0
HATCH
  5
25B
100
AcDbEntity
  8
step_08
 62
256
370
-1
 48
1.0
  6
BYLAYER
100
AcDbHatch
 10
0.0
 20
0.0
 30
0.0
210
0.0
220
0.0
230
1.0
  2
SOLID
 70
1
 71
0
 91
1
 92
1
 93
4
 72
1
 10
16.9332952460838158
 20
83.7667618531701663
 11
19.0546155896434612
 21
81.6454415096105208
 72
1
 10
19.0546155896434612
 20
81.6454415096105208
 11
17.640402027270369
 21
80.2312279472374286
 72
1
 10
17.640402027270369
 20
80.2312279472374286
 11
15.5190816837107235
 21
82.3525482907970598
 72
1
 10
15.5190816837107235
 20
82.3525482907970598
 11
16.9332952460838158
 21
83.7667618531701663
 97
0
 75
0
 76
1
 98
0
1001
ACAD
1010
0.0
1020
0.0
1030
0
  0
HATCH
  5
25C
100
AcDbEntity
  8
step_08
 62
256
370
-1
 48
1.0
  6
BYLAYER
100
AcDbHatch
 10
0.0
 20
0.0
 30
0.0
210
0.0
220
0.0
230
1.0
  2
SOLID
 70
1
 71
0
 91
1
 92
1
 93
4
 72
1
 10
42.8285169147372002
 20
45.8592807165609955
 11
44.9498372582968457
 21
43.73796037300135
 72
1
 10
44.9498372582968457
 20
43.73796037300135
 11
43.5356236959237535
 21
42.3237468106282577
 72
1
 10
43.5356236959237535
 20
42.3237468106282577
 11
41.414303352364108
 21
44.445067154187889
 72
1
 10
41.414303352364108
 20
44.445067154187889
 11
42.8285169147372002
 21
45.8592807165609955
 97
0
 75
0
 76
1
 98
0
1001
ACAD
1010
0.0
1020
0.0
1030
0
  0
MTEXT
  5
25D
100
AcDbEntity
  8
Framing
 62
256
370
-1
 48
1.0
  6
BYLAYER
100
AcDbMText
 10
40.0
 20
110.0
 30
0.0
 40
3.0
 41
0.0
 71
1
 72
1
  1
\H4.00001;Top
  7
textstyle44
 50
0.0
 73
2
 44
1.0
  0
MTEXT
  5
25E
100
AcDbEntity
  8
Framing
 62
256
370
-1
 48
1.0
  6
BYLAYER
100
AcDbMText
 10
37.372272558191554
 20
-13.5091847885792902
 30
0.0
 40
3.0
 41
0.0
 71
1
 72
1
  1
\fDejaVu Sans|b0|i0|c0|p0;\H4;Bottom
  7
textstyle43
 50
0.0
 73
2
 44
1.0
  0
LEADER
  5
25F
100
AcDbEntity
  8
step_09
 62
256
370
-1
 48
1.0
  6
BYLAYER
100
AcDbLeader
  3
Standard
 71
1
 72
0
 73
3
 74
0
 75
0
 40
1.0
 41
10.0
 76
3
 10
65.3061248663187399
 20
0.7565227608184308
 10
56.7822552410744237
 20
-10.0
 10
62.4852678917252007
 20
-10.0
1001
ACAD
1000
DSTYLE
1002
{
1070
40
1040
1.0
1002
}
  0
MTEXT
  5
260
100
AcDbEntity
  8
step_09
 62
256
370
-1
 48
1.0
  6
BYLAYER
100
AcDbMText
 10
64.4405865148054744
 20
-8.5866173884383272
 30
0.0
 40
3.0
 41
0.0
 71
1
 72
1
  1
\H2.50001;Three #8 (yellow)\Ptemporary screws
  7
textstyle45
 50
0.0
 73
2
 44
1.0
  0
LINE
  5
261
100
AcDbEntity
  8
step_04
 62
256
370
-1
 48
1.0
  6
BYLAYER
100
AcDbLine
 10
66.0
 20
109.75
 30
0.0
 11
66.0
 21
108.25
 31
0.0
  0
LINE
  5
262
100
AcDbEntity
  8
step_04
 62
256
370
-1
 48
1.0
  6
BYLAYER
100
AcDbLine
 10
66.0
 20
108.25
 30
0.0
 11
66.0
 21
107.5
 31
0.0
  0
LINE
  5
263
100
AcDbEntity
  8
step_04
 62
256
370
-1
 48
1.0
  6
BYLAYER
100
AcDbLine
 10
66.0
 20
107.5
 30
0.0
 11
66.0
 21
106.0
 31
0.0
  0
LINE
  5
264
100
AcDbEntity
  8
step_04
 62
256
370
-1
 48
1.0
  6
BYLAYER
100
AcDbLine
 10
85.0
 20
109.75
 30
0.0
 11
85.0
 21
108.25
 31
0.0
  0
LINE
  5
265
100
AcDbEntity
  8
step_04
 62
256
370
-1
 48
1.0
  6
BYLAYER
100
AcDbLine
 10
85.0
 20
108.25
 30
0.0
 11
85.0
 21
107.5
 31
0.0
  0
LINE
  5
266
100
AcDbEntity
  8
step_04
 62
256
370
-1
 48
1.0
  6
BYLAYER
100
AcDbLine
 10
85.0
 20
107.5
 30
0.0
 11
85.0
 21
106.0
 31
0.0
  0
HATCH
  5
267
100
AcDbEntity
  8
step_04
 62
256
370
-1
 48
1.0
  6
BYLAYER
100
AcDbHatch
 10
0.0
 20
0.0
 30
0.0
210
0.0
220
0.0
230
1.0
  2
ACAD_ISO15W100
 70
0
 71
0
 91
1
 92
1
 93
4
 72
1
 10
85.0
 20
108.25
 11
85.0
 21
107.5
 72
1
 10
85.0
 20
107.5
 11
66.0
 21
107.5
 72
1
 10
66.0
 20
107.5
 11
66.0
 21
108.25
 72
1
 10
66.0
 20
108.25
 11
85.0
 21
108.25
 97
0
 75
0
 76
1
 52
-45.0
 41
0.15
 77
0
 78
1
 53
45.0
 43
0.0
 44
0.0
 45
-0.0883883476483184
 46
0.0883883476483185
 79
0
 98
0
1001
ACAD
1010
0.0
1020
0.0
1030
0
  0
LEADER
  5
268
100
AcDbEntity
  8
step_04
 62
256
370
-1
 48
1.0
  6
BYLAYER
100
AcDbLeader
  3
Standard
 71
1
 72
0
 73
3
 74
0
 75
0
 40
1.0
 41
10.0
 76
3
 10
66.0
 20
109.0
 10
61.0
 20
114.0
 10
58.0
 20
114.0
1001
ACAD
1000
DSTYLE
1002
{
1070
40
1040
1.0
1002
}
  0
LEADER
  5
269
100
AcDbEntity
  8
step_04
 62
256
370
-1
 48
1.0
  6
BYLAYER
100
AcDbLeader
  3
Standard
 71
1
 72
0
 73
3
 74
0
 75
0
 40
1.0
 41
10.0
 76
2
 10
66.0
 20
106.75
 10
61.0
 20
114.0
1001
ACAD
1000
DSTYLE
1002
{
1070
40
1040
1.0
1002
}
  0
LEADER
  5
26A
100
AcDbEntity
  8
step_04
 62
256
370
-1
 48
1.0
  6
BYLAYER
100
AcDbLeader
  3
Standard
 71
1
 72
0
 73
3
 74
0
 75
0
 40
1.0
 41
10.0
 76
3
 10
85.0
 20
107.875
 10
89.0
 20
114.0
 10
85.0
 20
114.0
1001
ACAD
1000
DSTYLE
1002
{
1070
40
1040
1.0
1002
}
  0
MTEXT
  5
26B
100
AcDbEntity
  8
step_04
 62
256
370
-1
 48
1.0
  6
BYLAYER
100
AcDbMText
 10
50.8536507640731372
 20
115.465736454748793
 30
0.0
 40
3.0
 41
0.0
 71
1
 72
1
  1
\fDejaVu Sans|b0|i0|c0|p0;\H2.50001;2x4
  7
textstyle47
 50
0.0
 73
2
 44
1.0
  0
MTEXT
  5
26C
100
AcDbEntity
  8
step_04
 62
256
370
-1
 48
1.0
  6
BYLAYER
100
AcDbMText
 10
69.130705778536182
 20
116.5924042296129386
 30
0.0
 40
3.0
 41
0.0
 71
1
 72
1
  1
\fDejaVu Sans|b0|i0|c0|p0;\H2;3/4" plywood
  7
textstyle46
 50
0.0
 73
2
 44
1.0
  0
LINE
  5
26D
100
AcDbEntity
  8
step_06
 62
256
370
-1
 48
0.5
  6
ACAD_ISO03W100
100
AcDbLine
 10
46.9482174571431017
 20
12.2250048764948307
 30
0.0
 11
84.6982174571431017
 21
12.2250048764948307
 31
0.0
  0
LINE
  5
26E
100
AcDbEntity
  8
step_06
 62
256
370
-1
 48
0.5
  6
ACAD_ISO03W100
100
AcDbLine
 10
84.6982174571431017
 20
12.2250048764948307
 30
0.0
 11
84.6982174571431017
 21
10.7250048764948307
 31
0.0
  0
LINE
  5
26F
100
AcDbEntity
  8
step_06
 62
256
370
-1
 48
0.5
  6
ACAD_ISO03W100
100
AcDbLine
 10
84.6982174571431017
 20
10.7250048764948307
 30
0.0
 11
46.9482174571431017
 21
10.7250048764948307
 31
0.0
  0
LINE
  5
270
100
AcDbEntity
  8
step_06
 62
256
370
-1
 48
0.5
  6
ACAD_ISO03W100
100
AcDbLine
 10
46.9482174571431017
 20
10.7250048764948307
 30
0.0
 11
46.9482174571431017
 21
12.2250048764948307
 31
0.0
  0
LEADER
  5
271
100
AcDbEntity
  8
step_06
 62
256
370
-1
 48
1.0
  6
BYLAYER
100
AcDbLeader
  3
Standard
 71
1
 72
0
 73
3
 74
0
 75
0
 40
1.0
 41
10.0
 76
3
 10
48.1787765000729706
 20
12.6587218006572257
 10
51.8753383824463086
 20
19.8054081065790157
 10
55.6951189942320966
 20
19.8054081065790157
1001
ACAD
1000
DSTYLE
1002
{
1070
40
1040
1.0
1002
}
  0
MTEXT
  5
272
100
AcDbEntity
  8
step_06
 62
256
370
-1
 48
1.0
  6
BYLAYER
100
AcDbMText
 10
56.1879939118818754
 20
22.0233452360030277
 30
0.0
 40
2.5
 41
0.0
 71
1
 72
1
  1
\H2.2;Test with stretcher\Pbefore nailing
  7
textstyle48
 50
0.0
 73
2
 44
1.0
  0
LEADER
  5
273
100
AcDbEntity
  8
step_06
 62
256
370
-1
 48
1.0
  6
BYLAYER
100
AcDbLeader
  3
Standard
 71
1
 72
0
 73
3
 74
0
 75
0
 40
1.0
 41
10.0
 76
3
 10
44.5
 20
-0.0000000000000041
 10
40.0709841047341158
 20
-4.1401493082581382
 10
32.5299978646925041
 20
-3.9922868329632024
1001
ACAD
1000
DSTYLE
1002
{
1070
40
1040
1.0
1002
}
  0
MTEXT
  5
274
100
AcDbEntity
  8
step_06
 62
256
370
-1
 48
1.0
  6
BYLAYER
100
AcDbMText
 10
4.8797149845399197
 20
-2.6615245553088016
 30
0.0
 40
3.0
 41
0.0
 71
1
 72
1
  1
\fDejaVu Sans|b0|i0|c0|p0;\H2.5;Nail all 3 studs\Ponly after\Pstretcher fits
  7
textstyle49
 50
0.0
 73
2
 44
1.0
  0
ENDSEC
  0
SECTION
  2
OBJECTS
  0
DICTIONARY
  5
C
100
AcDbDictionary
280
0
281
1
  3
ACAD_GROUP
350
D
  3
ACAD_LAYOUT
350
1A
  3
ACAD_MLINESTYLE
350
17
  3
ACAD_PLOTSETTINGS
350
19
  3
ACAD_PLOTSTYLENAME
350
E
  3
AcDbVariableDictionary
350
275
  3
QCAD_OBJECTS
350
276
  0
DICTIONARY
  5
D
100
AcDbDictionary
280
0
281
1
  0
ACDBDICTIONARYWDFLT
  5
E
100
AcDbDictionary
281
1
  3
Normal
350
F
100
AcDbDictionaryWithDefault
340
F
  0
ACDBPLACEHOLDER
  5
F
  0
DICTIONARY
  5
17
100
AcDbDictionary
280
0
281
1
  3
Standard
350
18
  0
MLINESTYLE
  5
18
100
AcDbMlineStyle
  2
STANDARD
 70
0
  3

 62
256
 51
90.0
 52
90.0
 71
2
 49
0.5
 62
256
  6
BYLAYER
 49
-0.5
 62
256
  6
BYLAYER
  0
DICTIONARY
  5
19
100
AcDbDictionary
280
0
281
1
  0
DICTIONARY
  5
1A
100
AcDbDictionary
281
1
  3
Layout1
350
1E
  3
Layout2
350
26
  3
Model
350
22
  0
LAYOUT
  5
1E
100
AcDbPlotSettings
  1

  2
none_device
  4

  6

 40
0.0
 41
0.0
 42
0.0
 43
0.0
 44
0.0
 45
0.0
 46
0.0
 47
0.0
 48
0.0
 49
0.0
140
0.0
141
0.0
142
1.0
143
1.0
 70
688
 72
0
 73
0
 74
5
  7

 75
16
147
1.0
148
0.0
149
0.0
100
AcDbLayout
  1
Layout1
 70
1
 71
1
 10
0.0
 20
0.0
 11
420.0
 21
297.0
 12
0.0
 22
0.0
 32
0.0
 14
100000000000000000000.0
 24
100000000000000000000.0
 34
100000000000000000000.0
 15
-100000000000000000000.0
 25
-100000000000000000000.0
 35
-100000000000000000000.0
146
0.0
 13
0.0
 23
0.0
 33
0.0
 16
1.0
 26
0.0
 36
0.0
 17
0.0
 27
1.0
 37
0.0
 76
0
330
1B
  0
LAYOUT
  5
22
100
AcDbPlotSettings
  1

  2
none_device
  4

  6

 40
0.0
 41
0.0
 42
0.0
 43
0.0
 44
0.0
 45
0.0
 46
0.0
 47
0.0
 48
0.0
 49
0.0
140
0.0
141
0.0
142
1.0
143
1.0
 70
1712
 72
0
 73
0
 74
0
  7

 75
0
147
1.0
148
0.0
149
0.0
100
AcDbLayout
  1
Model
 70
1
 71
0
 10
0.0
 20
0.0
 11
12.0
 21
9.0
 12
0.0
 22
0.0
 32
0.0
 14
0.0
 24
0.0
 34
0.0
 15
0.0
 25
0.0
 35
0.0
146
0.0
 13
0.0
 23
0.0
 33
0.0
 16
1.0
 26
0.0
 36
0.0
 17
0.0
 27
1.0
 37
0.0
 76
0
330
1F
  0
LAYOUT
  5
26
100
AcDbPlotSettings
  1

  2
none_device
  4

  6

 40
0.0
 41
0.0
 42
0.0
 43
0.0
 44
0.0
 45
0.0
 46
0.0
 47
0.0
 48
0.0
 49
0.0
140
0.0
141
0.0
142
1.0
143
1.0
 70
688
 72
0
 73
0
 74
5
  7

 75
16
147
1.0
148
0.0
149
0.0
100
AcDbLayout
  1
Layout2
 70
1
 71
2
 10
0.0
 20
0.0
 11
12.0
 21
9.0
 12
0.0
 22
0.0
 32
0.0
 14
0.0
 24
0.0
 34
0.0
 15
0.0
 25
0.0
 35
0.0
146
0.0
 13
0.0
 23
0.0
 33
0.0
 16
1.0
 26
0.0
 36
0.0
 17
0.0
 27
1.0
 37
0.0
 76
0
330
23
  0
DICTIONARY
  5
275
100
AcDbDictionary
281
1
  3
DIMASSOC
350
278
  3
HIDETEXT
350
277
  0
DICTIONARYVAR
  5
277
100
DictionaryVariables
280
0
  1
2
  0
DICTIONARYVAR
  5
278
100
DictionaryVariables
280
0
  1
1
  0
DICTIONARY
  5
276
100
AcDbDictionary
281
1
  3
ColorSettings/BackgroundColor
350
279
  3
ColorSettings/ColorMode
350
27A
  3
Grid/DisplayGrid00
350
27B
  3
Grid/DisplayGrid01
350
27C
  3
Grid/DisplayGrid02
350
27D
  3
Grid/DisplayGrid03
350
27E
  3
Grid/GridSpacingX00
350
27F
  3
Grid/GridSpacingX01
350
280
  3
Grid/GridSpacingX02
350
281
  3
Grid/GridSpacingX03
350
282
  3
Grid/GridSpacingY00
350
283
  3
Grid/GridSpacingY01
350
284
  3
Grid/GridSpacingY02
350
285
  3
Grid/GridSpacingY03
350
286
  3
Grid/IsometricGrid00
350
287
  3
Grid/IsometricGrid01
350
288
  3
Grid/IsometricGrid02
350
289
  3
Grid/IsometricGrid03
350
28A
  3
Grid/IsometricProjection00
350
28B
  3
Grid/IsometricProjection01
350
28C
  3
Grid/IsometricProjection02
350
28D
  3
Grid/IsometricProjection03
350
28E
  3
Grid/MetaGridSpacingX00
350
28F
  3
Grid/MetaGridSpacingX01
350
290
  3
Grid/MetaGridSpacingX02
350
291
  3
Grid/MetaGridSpacingX03
350
292
  3
Grid/MetaGridSpacingY00
350
293
  3
Grid/MetaGridSpacingY01
350
294
  3
Grid/MetaGridSpacingY02
350
295
  3
Grid/MetaGridSpacingY03
350
296
  3
MultiPageSettings/Columns
350
297
  3
MultiPageSettings/GlueMarginsBottom
350
298
  3
MultiPageSettings/GlueMarginsLeft
350
299
  3
MultiPageSettings/GlueMarginsRight
350
29A
  3
MultiPageSettings/GlueMarginsTop
350
29B
  3
MultiPageSettings/PrintCropMarks
350
29C
  3
MultiPageSettings/Rows
350
29D
  3
PageSettings/OffsetX
350
29E
  3
PageSettings/OffsetY
350
29F
  3
PageSettings/PageOrientation
350
2A0
  3
PageSettings/PaperHeight
350
2A1
  3
PageSettings/PaperSizeAccepted
350
2A2
  3
PageSettings/PaperSizeName
350
2A3
  3
PageSettings/PaperWidth
350
2A4
  3
PageSettings/PointSize
350
2A5
  3
PageSettings/Scale
350
2A6
  3
PageSettings/ShowPaperBorders
350
2A7
  3
PageTagSettings/EnablePageTags
350
2A8
  3
PageTagSettings/TagAlignment
350
2A9
  3
PageTagSettings/TagFont
350
2AA
  3
PageTagSettings/TagPosition
350
2AB
  3
QCADVersion
350
2AC
  3
UnitSettings/Measurement
350
2AD
  3
UnitSettings/PaperUnit
350
2AE
  3
ViewportCenter
350
2AF
  3
ViewportHeight
350
2B0
  3
ViewportWidth
350
2B1
  0
XRECORD
  5
279
330
276
100
AcDbXrecord
280
1
1000
White
  0
XRECORD
  5
27A
330
276
100
AcDbXrecord
280
1
1000
FullColor
  0
XRECORD
  5
27B
330
276
100
AcDbXrecord
280
1
290
1
  0
XRECORD
  5
27C
330
276
100
AcDbXrecord
280
1
290
1
  0
XRECORD
  5
27D
330
276
100
AcDbXrecord
280
1
290
1
  0
XRECORD
  5
27E
330
276
100
AcDbXrecord
280
1
290
1
  0
XRECORD
  5
27F
330
276
100
AcDbXrecord
280
1
1000
auto
  0
XRECORD
  5
280
330
276
100
AcDbXrecord
280
1
1000
auto
  0
XRECORD
  5
281
330
276
100
AcDbXrecord
280
1
1000
auto
  0
XRECORD
  5
282
330
276
100
AcDbXrecord
280
1
1000
auto
  0
XRECORD
  5
283
330
276
100
AcDbXrecord
280
1
1000
auto
  0
XRECORD
  5
284
330
276
100
AcDbXrecord
280
1
1000
auto
  0
XRECORD
  5
285
330
276
100
AcDbXrecord
280
1
1000
auto
  0
XRECORD
  5
286
330
276
100
AcDbXrecord
280
1
1000
auto
  0
XRECORD
  5
287
330
276
100
AcDbXrecord
280
1
290
0
  0
XRECORD
  5
288
330
276
100
AcDbXrecord
280
1
290
0
  0
XRECORD
  5
289
330
276
100
AcDbXrecord
280
1
290
0
  0
XRECORD
  5
28A
330
276
100
AcDbXrecord
280
1
290
0
  0
XRECORD
  5
28B
330
276
100
AcDbXrecord
280
1
 90
65537
  0
XRECORD
  5
28C
330
276
100
AcDbXrecord
280
1
 90
65537
  0
XRECORD
  5
28D
330
276
100
AcDbXrecord
280
1
 90
65537
  0
XRECORD
  5
28E
330
276
100
AcDbXrecord
280
1
 90
65537
  0
XRECORD
  5
28F
330
276
100
AcDbXrecord
280
1
1000
auto
  0
XRECORD
  5
290
330
276
100
AcDbXrecord
280
1
1000
auto
  0
XRECORD
  5
291
330
276
100
AcDbXrecord
280
1
1000
auto
  0
XRECORD
  5
292
330
276
100
AcDbXrecord
280
1
1000
auto
  0
XRECORD
  5
293
330
276
100
AcDbXrecord
280
1
1000
auto
  0
XRECORD
  5
294
330
276
100
AcDbXrecord
280
1
1000
auto
  0
XRECORD
  5
295
330
276
100
AcDbXrecord
280
1
1000
auto
  0
XRECORD
  5
296
330
276
100
AcDbXrecord
280
1
1000
auto
  0
XRECORD
  5
297
330
276
100
AcDbXrecord
280
1
 90
1
  0
XRECORD
  5
298
330
276
100
AcDbXrecord
280
1
1000
0.39
  0
XRECORD
  5
299
330
276
100
AcDbXrecord
280
1
1000
0.39
  0
XRECORD
  5
29A
330
276
100
AcDbXrecord
280
1
1000
0.39
  0
XRECORD
  5
29B
330
276
100
AcDbXrecord
280
1
1000
0.39
  0
XRECORD
  5
29C
330
276
100
AcDbXrecord
280
1
290
0
  0
XRECORD
  5
29D
330
276
100
AcDbXrecord
280
1
 90
1
  0
XRECORD
  5
29E
330
276
100
AcDbXrecord
280
1
 40
-14.9277800849000339
  0
XRECORD
  5
29F
330
276
100
AcDbXrecord
280
1
 40
-44.9541028946831958
  0
XRECORD
  5
2A0
330
276
100
AcDbXrecord
280
1
1000
Portrait
  0
XRECORD
  5
2A1
330
276
100
AcDbXrecord
280
1
1000
9
  0
XRECORD
  5
2A2
330
276
100
AcDbXrecord
280
1
290
1
  0
XRECORD
  5
2A3
330
276
100
AcDbXrecord
280
1
1000
Custom
  0
XRECORD
  5
2A4
330
276
100
AcDbXrecord
280
1
1000
6
  0
XRECORD
  5
2A5
330
276
100
AcDbXrecord
280
1
1000
0.5
  0
XRECORD
  5
2A6
330
276
100
AcDbXrecord
280
1
1000
0.0491
  0
XRECORD
  5
2A7
330
276
100
AcDbXrecord
280
1
290
1
  0
XRECORD
  5
2A8
330
276
100
AcDbXrecord
280
1
290
0
  0
XRECORD
  5
2A9
330
276
100
AcDbXrecord
280
1
1000
Inside
  0
XRECORD
  5
2AA
330
276
100
AcDbXrecord
280
1
1000
Arial,10,-1,5,50,0,0,0,0,0
  0
XRECORD
  5
2AB
330
276
100
AcDbXrecord
280
1
1000
TopLeft
  0
XRECORD
  5
2AC
330
276
100
AcDbXrecord
280
1
1000
3.32.6
  0
XRECORD
  5
2AD
330
276
100
AcDbXrecord
280
1
 90
1
  0
XRECORD
  5
2AE
330
276
100
AcDbXrecord
280
1
 90
1
  0
XRECORD
  5
2B0
330
276
100
AcDbXrecord
280
1
 40
154.1864832902855369
  0
XRECORD
  5
2B1
330
276
100
AcDbXrecord
280
1
 40
133.1721606865382057
  0
IMAGEDEF
  5
A5
100
AcDbRasterImageDef
 90
0
  1
../../common/clipart/NailGun.png
 10
8.0
 20
8.0
 11
1.0
 21
1.0
280
1
281
0
  0
IMAGEDEF
  5
119
100
AcDbRasterImageDef
 90
0
  1
../../common/clipart/NailGun.png
 10
11.0
 20
11.0
 11
1.0
 21
1.0
280
1
281
0
  0
IMAGEDEF
  5
11B
100
AcDbRasterImageDef
 90
0
  1
../../common/clipart/NailGun.png
 10
11.0
 20
11.0
 11
1.0
 21
1.0
280
1
281
0
  0
IMAGEDEF
  5
11D
100
AcDbRasterImageDef
 90
0
  1
../../common/clipart/NailGun.png
 10
11.0
 20
11.0
 11
1.0
 21
1.0
280
1
281
0
  0
IMAGEDEF
  5
11F
100
AcDbRasterImageDef
 90
0
  1
../../common/clipart/NailGun.png
 10
11.0
 20
11.0
 11
1.0
 21
1.0
280
1
281
0
  0
IMAGEDEF
  5
121
100
AcDbRasterImageDef
 90
0
  1
../../common/clipart/NailGun.png
 10
11.0
 20
11.0
 11
1.0
 21
1.0
280
1
281
0
  0
IMAGEDEF
  5
123
100
AcDbRasterImageDef
 90
0
  1
../../common/clipart/NailGun.png
 10
11.0
 20
11.0
 11
1.0
 21
1.0
280
1
281
0
  0
IMAGEDEF
  5
125
100
AcDbRasterImageDef
 90
0
  1
../../common/clipart/NailGun.png
 10
6.0
 20
6.0
 11
1.0
 21
1.0
280
1
281
0
  0
IMAGEDEF
  5
127
100
AcDbRasterImageDef
 90
0
  1
../../common/clipart/NailGun.png
 10
6.0
 20
6.0
 11
1.0
 21
1.0
280
1
281
0
  0
IMAGEDEF
  5
129
100
AcDbRasterImageDef
 90
0
  1
../../common/clipart/NailGun.png
 10
6.0
 20
6.0
 11
1.0
 21
1.0
280
1
281
0
  0
IMAGEDEF
  5
12B
100
AcDbRasterImageDef
 90
0
  1
../../common/clipart/NailGun.png
 10
6.0
 20
6.0
 11
1.0
 21
1.0
280
1
281
0
  0
IMAGEDEF
  5
12D
100
AcDbRasterImageDef
 90
0
  1
../../common/clipart/NailGun.png
 10
6.0
 20
6.0
 11
1.0
 21
1.0
280
1
281
0
  0
IMAGEDEF
  5
12F
100
AcDbRasterImageDef
 90
0
  1
../../common/clipart/NailGun.png
 10
6.0
 20
6.0
 11
1.0
 21
1.0
280
1
281
0
  0
IMAGEDEF
  5
131
100
AcDbRasterImageDef
 90
0
  1
../../common/clipart/NailGun.png
 10
11.0
 20
11.0
 11
1.0
 21
1.0
280
1
281
0
  0
IMAGEDEF
  5
133
100
AcDbRasterImageDef
 90
0
  1
../../common/clipart/NailGun.png
 10
11.0
 20
11.0
 11
1.0
 21
1.0
280
1
281
0
  0
IMAGEDEF
  5
135
100
AcDbRasterImageDef
 90
0
  1
../../common/clipart/NailGun.png
 10
11.0
 20
11.0
 11
1.0
 21
1.0
280
1
281
0
  0
IMAGEDEF
  5
137
100
AcDbRasterImageDef
 90
0
  1
../../common/clipart/NailGun.png
 10
11.0
 20
11.0
 11
1.0
 21
1.0
280
1
281
0
  0
IMAGEDEF
  5
139
100
AcDbRasterImageDef
 90
0
  1
../../common/clipart/NailGun.png
 10
11.0
 20
11.0
 11
1.0
 21
1.0
280
1
281
0
  0
IMAGEDEF
  5
13B
100
AcDbRasterImageDef
 90
0
  1
../../common/clipart/NailGun.png
 10
11.0
 20
11.0
 11
1.0
 21
1.0
280
1
281
0
  0
IMAGEDEF
  5
13D
100
AcDbRasterImageDef
 90
0
  1
../../common/clipart/NailGun.png
 10
11.0
 20
11.0
 11
1.0
 21
1.0
280
1
281
0
  0
IMAGEDEF
  5
13F
100
AcDbRasterImageDef
 90
0
  1
../../common/clipart/NailGun.png
 10
11.0
 20
11.0
 11
1.0
 21
1.0
280
1
281
0
  0
IMAGEDEF
  5
141
100
AcDbRasterImageDef
 90
0
  1
../../common/clipart/NailGun.png
 10
11.0
 20
11.0
 11
1.0
 21
1.0
280
1
281
0
  0
IMAGEDEF
  5
143
100
AcDbRasterImageDef
 90
0
  1
../../common/clipart/NailGun.png
 10
11.0
 20
11.0
 11
1.0
 21
1.0
280
1
281
0
  0
IMAGEDEF
  5
145
100
AcDbRasterImageDef
 90
0
  1
../../common/clipart/NailGun.png
 10
11.0
 20
11.0
 11
1.0
 21
1.0
280
1
281
0
  0
IMAGEDEF
  5
15B
100
AcDbRasterImageDef
 90
0
  1
../../common/clipart/NailGun.png
 10
11.0
 20
11.0
 11
1.0
 21
1.0
280
1
281
0
  0
IMAGEDEF
  5
15D
100
AcDbRasterImageDef
 90
0
  1
../../common/clipart/NailGun.png
 10
11.0
 20
11.0
 11
1.0
 21
1.0
280
1
281
0
  0
IMAGEDEF
  5
15F
100
AcDbRasterImageDef
 90
0
  1
../../common/clipart/NailGun.png
 10
11.0
 20
11.0
 11
1.0
 21
1.0
280
1
281
0
  0
IMAGEDEF
  5
161
100
AcDbRasterImageDef
 90
0
  1
../../common/clipart/NailGun.png
 10
11.0
 20
11.0
 11
1.0
 21
1.0
280
1
281
0
  0
IMAGEDEF
  5
163
100
AcDbRasterImageDef
 90
0
  1
../../common/clipart/NailGun.png
 10
11.0
 20
11.0
 11
1.0
 21
1.0
280
1
281
0
  0
IMAGEDEF
  5
165
100
AcDbRasterImageDef
 90
0
  1
../../common/clipart/NailGun.png
 10
6.0
 20
6.0
 11
1.0
 21
1.0
280
1
281
0
  0
IMAGEDEF
  5
167
100
AcDbRasterImageDef
 90
0
  1
../../common/clipart/NailGun.png
 10
6.0
 20
6.0
 11
1.0
 21
1.0
280
1
281
0
  0
IMAGEDEF
  5
169
100
AcDbRasterImageDef
 90
0
  1
../../common/clipart/NailGun.png
 10
6.0
 20
6.0
 11
1.0
 21
1.0
280
1
281
0
  0
IMAGEDEF
  5
16B
100
AcDbRasterImageDef
 90
0
  1
../../common/clipart/NailGun.png
 10
6.0
 20
6.0
 11
1.0
 21
1.0
280
1
281
0
  0
IMAGEDEF
  5
16D
100
AcDbRasterImageDef
 90
0
  1
../../common/clipart/NailGun.png
 10
6.0
 20
6.0
 11
1.0
 21
1.0
280
1
281
0
  0
IMAGEDEF
  5
16F
100
AcDbRasterImageDef
 90
0
  1
../../common/clipart/NailGun.png
 10
6.0
 20
6.0
 11
1.0
 21
1.0
280
1
281
0
  0
IMAGEDEF
  5
171
100
AcDbRasterImageDef
 90
0
  1
../../common/clipart/NailGun.png
 10
6.0
 20
6.0
 11
1.0
 21
1.0
280
1
281
0
  0
IMAGEDEF
  5
173
100
AcDbRasterImageDef
 90
0
  1
../../common/clipart/NailGun.png
 10
6.0
 20
6.0
 11
1.0
 21
1.0
280
1
281
0
  0
IMAGEDEF
  5
175
100
AcDbRasterImageDef
 90
0
  1
../../common/clipart/NailGun.png
 10
6.0
 20
6.0
 11
1.0
 21
1.0
280
1
281
0
  0
IMAGEDEF
  5
177
100
AcDbRasterImageDef
 90
0
  1
../../common/clipart/NailGun.png
 10
6.0
 20
6.0
 11
1.0
 21
1.0
280
1
281
0
  0
IMAGEDEF
  5
179
100
AcDbRasterImageDef
 90
0
  1
../../common/clipart/NailGun.png
 10
6.0
 20
6.0
 11
1.0
 21
1.0
280
1
281
0
  0
IMAGEDEF
  5
17B
100
AcDbRasterImageDef
 90
0
  1
../../common/clipart/NailGun.png
 10
6.0
 20
6.0
 11
1.0
 21
1.0
280
1
281
0
  0
IMAGEDEF
  5
17D
100
AcDbRasterImageDef
 90
0
  1
../../common/clipart/NailGun.png
 10
6.0
 20
6.0
 11
1.0
 21
1.0
280
1
281
0
  0
IMAGEDEF
  5
17F
100
AcDbRasterImageDef
 90
0
  1
../../common/clipart/NailGun.png
 10
6.0
 20
6.0
 11
1.0
 21
1.0
280
1
281
0
  0
IMAGEDEF
  5
181
100
AcDbRasterImageDef
 90
0
  1
../../common/clipart/NailGun.png
 10
6.0
 20
6.0
 11
1.0
 21
1.0
280
1
281
0
  0
IMAGEDEF
  5
183
100
AcDbRasterImageDef
 90
0
  1
../../common/clipart/NailGun.png
 10
6.0
 20
6.0
 11
1.0
 21
1.0
280
1
281
0
  0
IMAGEDEF
  5
185
100
AcDbRasterImageDef
 90
0
  1
../../common/clipart/NailGun.png
 10
6.0
 20
6.0
 11
1.0
 21
1.0
280
1
281
0
  0
IMAGEDEF
  5
187
100
AcDbRasterImageDef
 90
0
  1
../../common/clipart/NailGun.png
 10
6.0
 20
6.0
 11
1.0
 21
1.0
280
1
281
0
  0
IMAGEDEF
  5
189
100
AcDbRasterImageDef
 90
0
  1
../../common/clipart/NailGun.png
 10
6.0
 20
6.0
 11
1.0
 21
1.0
280
1
281
0
  0
IMAGEDEF
  5
18B
100
AcDbRasterImageDef
 90
0
  1
../../common/clipart/NailGun.png
 10
6.0
 20
6.0
 11
1.0
 21
1.0
280
1
281
0
  0
IMAGEDEF
  5
190
100
AcDbRasterImageDef
 90
0
  1
../../common/clipart/NailGun.png
 10
11.0
 20
11.0
 11
1.0
 21
1.0
280
1
281
0
  0
IMAGEDEF
  5
192
100
AcDbRasterImageDef
 90
0
  1
../../common/clipart/NailGun.png
 10
11.0
 20
11.0
 11
1.0
 21
1.0
280
1
281
0
  0
IMAGEDEF
  5
1AB
100
AcDbRasterImageDef
 90
0
  1
../../common/clipart/NailGun.png
 10
6.0
 20
6.0
 11
1.0
 21
1.0
280
1
281
0
  0
IMAGEDEF
  5
A2
100
AcDbRasterImageDef
 90
0
  1
../../common/clipart/NailGun.png
 10
8.0
 20
8.0
 11
1.0
 21
1.0
280
1
281
0
  0
ENDSEC
  0
EOF
