999
dxflib 3.26.4.0
  0
SECTION
  2
HEADER
  9
$ACADVER
  1
AC1015
  9
$HANDSEED
  5
FFFF
  9
$DIMADEC
 70
0
  9
$DIMASZ
 40
2.5
  9
$DIMATFIT
 70
0
  9
$DIMAUNIT
 70
0
  9
$DIMAZIN
 70
2
  9
$DIMBLK
  1
0
  9
$DIMBLK1
  1
0
  9
$DIMBLK2
  1
0
  9
$DIMDEC
 70
4
  9
$DIMDLI
 40
0.25
  9
$DIMDSEP
 70
46
  9
$DIMEXE
 40
0.0625
  9
$DIMEXO
 40
0.03125
  9
$DIMGAP
 40
0.03125
  9
$DIMLFAC
 40
0.0
  9
$DIMLUNIT
 70
3
  9
$DIMSCALE
 40
1.0
  9
$DIMTAD
 70
1
  9
$DIMTIH
 70
0
  9
$DIMTSZ
 40
0.0
  9
$DIMTXT
 40
0.125
  9
$DIMZIN
 70
8
  9
$DWGCODEPAGE
  3
ANSI_1252
  9
$INSUNITS
 70
1
  9
$LTSCALE
 40
1.0
  9
$MAXACTVP
 70
64
  9
$MEASUREMENT
 70
0
  9
$MIRRTEXT
 70
0
  9
$PDMODE
 70
0
  9
$PDSIZE
 40
0.0
  0
ENDSEC
  0
SECTION
  2
TABLES
  0
TABLE
  2
VPORT
  5
8
100
AcDbSymbolTable
 70
1
  0
VPORT
  5
30
100
AcDbSymbolTableRecord
100
AcDbViewportTableRecord
  2
*Active
 70
0
 10
0.0
 20
0.0
 11
1.0
 21
1.0
 12
286.3055555555554861
 22
148.5
 13
0.0
 23
0.0
 14
10.0
 24
10.0
 15
10.0
 25
10.0
 16
0.0
 26
0.0
 36
1.0
 17
0.0
 27
0.0
 37
0.0
 40
297.0
 41
1.92798353909465
 42
50.0
 43
0.0
 44
0.0
 50
0.0
 51
0.0
 71
0
 72
100
 73
1
 74
3
 75
1
 76
1
 77
0
 78
0
281
0
 65
1
110
0.0
120
0.0
130
0.0
111
1.0
121
0.0
131
0.0
112
0.0
122
1.0
132
0.0
 79
0
146
0.0
  0
ENDTAB
  0
TABLE
  2
LTYPE
  5
5
100
AcDbSymbolTable
 70
41
  0
LTYPE
  5
16
100
AcDbSymbolTableRecord
100
AcDbLinetypeTableRecord
  2
Continuous
 70
0
  3
Solid line
 72
65
 73
0
 40
0.0
  0
LTYPE
  5
31
100
AcDbSymbolTableRecord
100
AcDbLinetypeTableRecord
  2
HIDDENX2
 70
0
  3
Hidden (2x) ____ ____ ____ ____ ____ ____ ____ 
 72
65
 73
2
 40
19.0499999999999972
 49
12.6999999999999993
 74
0
 49
-6.3499999999999996
 74
0
  0
LTYPE
  5
32
100
AcDbSymbolTableRecord
100
AcDbLinetypeTableRecord
  2
CENTER
 70
0
  3
Center ____ _ ____ _ ____ _ ____ _ ____ _ ____
 72
65
 73
4
 40
50.8000000000000043
 49
31.75
 74
0
 49
-6.3499999999999996
 74
0
 49
6.3499999999999996
 74
0
 49
-6.3499999999999996
 74
0
  0
LTYPE
  5
33
100
AcDbSymbolTableRecord
100
AcDbLinetypeTableRecord
  2
ACAD_ISO06W100
 70
0
  3
ISO long-dash triple-dot ____ ... ____ ... ____
 72
65
 73
8
 40
36.0000000000000071
 49
24.0
 74
0
 49
-2.9500000000000002
 74
0
 49
0.1
 74
0
 49
-2.9000000000000004
 74
0
 49
0.1
 74
0
 49
-2.9000000000000004
 74
0
 49
0.1
 74
0
 49
-2.9500000000000002
 74
0
  0
LTYPE
  5
34
100
AcDbSymbolTableRecord
100
AcDbLinetypeTableRecord
  2
DASHDOTX2
 70
0
  3
Dash dot (2x) ____  .  ____  .  ____  .  ___
 72
65
 73
4
 40
50.7999999999999972
 49
25.3999999999999986
 74
0
 49
-12.6499999999999986
 74
0
 49
0.1
 74
0
 49
-12.6499999999999986
 74
0
  0
LTYPE
  5
35
100
AcDbSymbolTableRecord
100
AcDbLinetypeTableRecord
  2
CENTER2
 70
0
  3
Center (.5x) ___ _ ___ _ ___ _ ___ _ ___ _ ___
 72
65
 73
4
 40
28.5750000000000028
 49
19.0500000000000007
 74
0
 49
-3.1749999999999998
 74
0
 49
3.1749999999999998
 74
0
 49
-3.1749999999999998
 74
0
  0
LTYPE
  5
36
100
AcDbSymbolTableRecord
100
AcDbLinetypeTableRecord
  2
ACAD_ISO02W100
 70
0
  3
ISO dash __ __ __ __ __ __ __ __ __ __ __ __ __
 72
65
 73
2
 40
15.0
 49
12.0
 74
0
 49
-3.0
 74
0
  0
LTYPE
  5
37
100
AcDbSymbolTableRecord
100
AcDbLinetypeTableRecord
  2
ACAD_ISO03W100
 70
0
  3
ISO dash space __    __    __    __    __    __
 72
65
 73
2
 40
30.0
 49
12.0
 74
0
 49
-18.0
 74
0
  0
LTYPE
  5
38
100
AcDbSymbolTableRecord
100
AcDbLinetypeTableRecord
  2
DIVIDE
 70
0
  3
Divide ____ . . ____ . . ____ . . ____ . . ____
 72
65
 73
6
 40
31.7500000000000036
 49
12.6999999999999993
 74
0
 49
-6.2999999999999998
 74
0
 49
0.1
 74
0
 49
-6.25
 74
0
 49
0.1
 74
0
 49
-6.2999999999999998
 74
0
  0
LTYPE
  5
14
100
AcDbSymbolTableRecord
100
AcDbLinetypeTableRecord
  2
BYBLOCK
 70
0
  3

 72
65
 73
0
 40
0.0
  0
LTYPE
  5
39
100
AcDbSymbolTableRecord
100
AcDbLinetypeTableRecord
  2
ACAD_ISO14W100
 70
0
  3
ISO dash triple-dot __ . . . __ . . . __ . . . _
 72
65
 73
8
 40
24.0000000000000036
 49
12.0
 74
0
 49
-2.9500000000000002
 74
0
 49
0.1
 74
0
 49
-2.9000000000000004
 74
0
 49
0.1
 74
0
 49
-2.9000000000000004
 74
0
 49
0.1
 74
0
 49
-2.9500000000000002
 74
0
  0
LTYPE
  5
3A
100
AcDbSymbolTableRecord
100
AcDbLinetypeTableRecord
  2
PHANTOM
 70
0
  3
Phantom ______  __  __  ______  __  __  ______ 
 72
65
 73
6
 40
63.5000000000000071
 49
31.75
 74
0
 49
-6.3499999999999996
 74
0
 49
6.3499999999999996
 74
0
 49
-6.3499999999999996
 74
0
 49
6.3499999999999996
 74
0
 49
-6.3499999999999996
 74
0
  0
LTYPE
  5
3B
100
AcDbSymbolTableRecord
100
AcDbLinetypeTableRecord
  2
DASHEDX2
 70
0
  3
Dashed (2x) ____  ____  ____  ____  ____  ___
 72
65
 73
2
 40
38.0999999999999943
 49
25.3999999999999986
 74
0
 49
-12.6999999999999993
 74
0
  0
LTYPE
  5
3C
100
AcDbSymbolTableRecord
100
AcDbLinetypeTableRecord
  2
ACAD_ISO05W100
 70
0
  3
ISO long-dash double-dot ____ .. ____ .. ____ . 
 72
65
 73
6
 40
33.0000000000000071
 49
24.0
 74
0
 49
-2.9500000000000002
 74
0
 49
0.1
 74
0
 49
-2.9000000000000004
 74
0
 49
0.1
 74
0
 49
-2.9500000000000002
 74
0
  0
LTYPE
  5
3D
100
AcDbSymbolTableRecord
100
AcDbLinetypeTableRecord
  2
BORDER
 70
0
  3
Border __ __ . __ __ . __ __ . __ __ . __ __ .
 72
65
 73
6
 40
44.4499999999999957
 49
12.6999999999999993
 74
0
 49
-6.3499999999999996
 74
0
 49
12.6999999999999993
 74
0
 49
-6.2999999999999998
 74
0
 49
0.1
 74
0
 49
-6.2999999999999998
 74
0
  0
LTYPE
  5
3E
100
AcDbSymbolTableRecord
100
AcDbLinetypeTableRecord
  2
ACAD_ISO08W100
 70
0
  3
ISO long-dash short-dash ____ __ ____ __ ____ _
 72
65
 73
4
 40
36.0
 49
24.0
 74
0
 49
-3.0
 74
0
 49
6.0
 74
0
 49
-3.0
 74
0
  0
LTYPE
  5
3F
100
AcDbSymbolTableRecord
100
AcDbLinetypeTableRecord
  2
DIVIDEX2
 70
0
  3
Divide (2x) ________  .  .  ________  .  .  _
 72
65
 73
6
 40
63.5
 49
25.3999999999999986
 74
0
 49
-12.6499999999999986
 74
0
 49
0.1
 74
0
 49
-12.5999999999999979
 74
0
 49
0.1
 74
0
 49
-12.6499999999999986
 74
0
  0
LTYPE
  5
40
100
AcDbSymbolTableRecord
100
AcDbLinetypeTableRecord
  2
DIVIDE2
 70
0
  3
Divide (.5x) __..__..__..__..__..__..__..__.._
 72
65
 73
6
 40
15.8749999999999982
 49
6.3499999999999996
 74
0
 49
-3.125
 74
0
 49
0.1
 74
0
 49
-3.0750000000000002
 74
0
 49
0.1
 74
0
 49
-3.125
 74
0
  0
LTYPE
  5
41
100
AcDbSymbolTableRecord
100
AcDbLinetypeTableRecord
  2
PHANTOM2
 70
0
  3
Phantom (.5x) ___ _ _ ___ _ _ ___ _ _ ___ _ _
 72
65
 73
6
 40
31.7500000000000036
 49
15.875
 74
0
 49
-3.1749999999999998
 74
0
 49
3.1749999999999998
 74
0
 49
-3.1749999999999998
 74
0
 49
3.1749999999999998
 74
0
 49
-3.1749999999999998
 74
0
  0
LTYPE
  5
42
100
AcDbSymbolTableRecord
100
AcDbLinetypeTableRecord
  2
ACAD_ISO12W100
 70
0
  3
ISO dash double-dot __ . . __ . . __ . . __ . . 
 72
65
 73
6
 40
21.0
 49
12.0
 74
0
 49
-2.9500000000000002
 74
0
 49
0.1
 74
0
 49
-2.9000000000000004
 74
0
 49
0.1
 74
0
 49
-2.9500000000000002
 74
0
  0
LTYPE
  5
43
100
AcDbSymbolTableRecord
100
AcDbLinetypeTableRecord
  2
HIDDEN
 70
0
  3
Hidden __ __ __ __ __ __ __ __ __ __ __ __ __ __
 72
65
 73
2
 40
9.5249999999999986
 49
6.3499999999999996
 74
0
 49
-3.1749999999999998
 74
0
  0
LTYPE
  5
44
100
AcDbSymbolTableRecord
100
AcDbLinetypeTableRecord
  2
HIDDEN2
 70
0
  3
Hidden (.5x) _ _ _ _ _ _ _ _ _ _ _ _ _ _ _ _ _ 
 72
65
 73
2
 40
4.7624999999999993
 49
3.1749999999999998
 74
0
 49
-1.5874999999999999
 74
0
  0
LTYPE
  5
45
100
AcDbSymbolTableRecord
100
AcDbLinetypeTableRecord
  2
CENTERX2
 70
0
  3
Center (2x) ________  __  ________  __  _____
 72
65
 73
4
 40
101.6000000000000085
 49
63.5
 74
0
 49
-12.6999999999999993
 74
0
 49
12.6999999999999993
 74
0
 49
-12.6999999999999993
 74
0
  0
LTYPE
  5
46
100
AcDbSymbolTableRecord
100
AcDbLinetypeTableRecord
  2
PHANTOMX2
 70
0
  3
Phantom (2x) ____________    ____    ____   _
 72
65
 73
6
 40
127.0000000000000142
 49
63.5
 74
0
 49
-12.6999999999999993
 74
0
 49
12.6999999999999993
 74
0
 49
-12.6999999999999993
 74
0
 49
12.6999999999999993
 74
0
 49
-12.6999999999999993
 74
0
  0
LTYPE
  5
15
100
AcDbSymbolTableRecord
100
AcDbLinetypeTableRecord
  2
BYLAYER
 70
0
  3

 72
65
 73
0
 40
0.0
  0
LTYPE
  5
47
100
AcDbSymbolTableRecord
100
AcDbLinetypeTableRecord
  2
BORDERX2
 70
0
  3
Border (2x) ____  ____  .  ____  ____  .  ___
 72
65
 73
6
 40
88.8999999999999773
 49
25.3999999999999986
 74
0
 49
-12.6999999999999993
 74
0
 49
25.3999999999999986
 74
0
 49
-12.6499999999999986
 74
0
 49
0.1
 74
0
 49
-12.6499999999999986
 74
0
  0
LTYPE
  5
48
100
AcDbSymbolTableRecord
100
AcDbLinetypeTableRecord
  2
DASHED2
 70
0
  3
Dashed (.5x) _ _ _ _ _ _ _ _ _ _ _ _ _ _ _ _ _ 
 72
65
 73
2
 40
9.5249999999999986
 49
6.3499999999999996
 74
0
 49
-3.1749999999999998
 74
0
  0
LTYPE
  5
49
100
AcDbSymbolTableRecord
100
AcDbLinetypeTableRecord
  2
DASHDOT2
 70
0
  3
Dash dot (.5x) _._._._._._._._._._._._._._._.
 72
65
 73
4
 40
12.6999999999999993
 49
6.3499999999999996
 74
0
 49
-3.125
 74
0
 49
0.1
 74
0
 49
-3.125
 74
0
  0
LTYPE
  5
4A
100
AcDbSymbolTableRecord
100
AcDbLinetypeTableRecord
  2
BORDER2
 70
0
  3
Border (.5x) __.__.__.__.__.__.__.__.__.__.__.
 72
65
 73
6
 40
22.2250000000000014
 49
6.3499999999999996
 74
0
 49
-3.1749999999999998
 74
0
 49
6.3499999999999996
 74
0
 49
-3.125
 74
0
 49
0.1
 74
0
 49
-3.125
 74
0
  0
LTYPE
  5
4B
100
AcDbSymbolTableRecord
100
AcDbLinetypeTableRecord
  2
ACAD_ISO11W100
 70
0
  3
ISO double-dash dot __ __ . __ __ . __ __ . __ _
 72
65
 73
6
 40
33.0
 49
12.0
 74
0
 49
-3.0
 74
0
 49
12.0
 74
0
 49
-2.9500000000000002
 74
0
 49
0.1
 74
0
 49
-2.9500000000000002
 74
0
  0
LTYPE
  5
4C
100
AcDbSymbolTableRecord
100
AcDbLinetypeTableRecord
  2
DOT
 70
0
  3
Dot . . . . . . . . . . . . . . . . . . . . . . . .
 72
65
 73
2
 40
6.3499999999999996
 49
0.1
 74
0
 49
-6.25
 74
0
  0
LTYPE
  5
4D
100
AcDbSymbolTableRecord
100
AcDbLinetypeTableRecord
  2
DASHED
 70
0
  3
Dashed __ __ __ __ __ __ __ __ __ __ __ __ __ _
 72
65
 73
2
 40
19.0499999999999972
 49
12.6999999999999993
 74
0
 49
-6.3499999999999996
 74
0
  0
LTYPE
  5
4E
100
AcDbSymbolTableRecord
100
AcDbLinetypeTableRecord
  2
DOTX2
 70
0
  3
Dot (2x) .  .  .  .  .  .  .  .  .  .  .  .  .  .
 72
65
 73
2
 40
12.6999999999999993
 49
0.1
 74
0
 49
-12.5999999999999996
 74
0
  0
LTYPE
  5
4F
100
AcDbSymbolTableRecord
100
AcDbLinetypeTableRecord
  2
DASHDOT
 70
0
  3
Dash dot __ . __ . __ . __ . __ . __ . __ . __
 72
65
 73
4
 40
25.4000000000000021
 49
12.6999999999999993
 74
0
 49
-6.2999999999999998
 74
0
 49
0.1
 74
0
 49
-6.2999999999999998
 74
0
  0
LTYPE
  5
50
100
AcDbSymbolTableRecord
100
AcDbLinetypeTableRecord
  2
DOT2
 70
0
  3
Dot (.5x) ........................................
 72
65
 73
2
 40
3.1749999999999998
 49
0.1
 74
0
 49
-3.0749999999999997
 74
0
  0
LTYPE
  5
51
100
AcDbSymbolTableRecord
100
AcDbLinetypeTableRecord
  2
ACAD_ISO09W100
 70
0
  3
ISO long-dash double-short-dash ____ __ __ ____
 72
65
 73
6
 40
45.0
 49
24.0
 74
0
 49
-3.0
 74
0
 49
6.0
 74
0
 49
-3.0
 74
0
 49
6.0
 74
0
 49
-3.0
 74
0
  0
LTYPE
  5
52
100
AcDbSymbolTableRecord
100
AcDbLinetypeTableRecord
  2
ACAD_ISO15W100
 70
0
  3
ISO double-dash triple-dot __ __ . . . __ __ . .
 72
65
 73
10
 40
39.0000000000000071
 49
12.0
 74
0
 49
-3.0
 74
0
 49
12.0
 74
0
 49
-2.9500000000000002
 74
0
 49
0.1
 74
0
 49
-2.9000000000000004
 74
0
 49
0.1
 74
0
 49
-2.9000000000000004
 74
0
 49
0.1
 74
0
 49
-2.9500000000000002
 74
0
  0
LTYPE
  5
53
100
AcDbSymbolTableRecord
100
AcDbLinetypeTableRecord
  2
ACAD_ISO10W100
 70
0
  3
ISO dash dot __ . __ . __ . __ . __ . __ . __ . 
 72
65
 73
4
 40
18.0
 49
12.0
 74
0
 49
-2.9500000000000002
 74
0
 49
0.1
 74
0
 49
-2.9500000000000002
 74
0
  0
LTYPE
  5
54
100
AcDbSymbolTableRecord
100
AcDbLinetypeTableRecord
  2
ACAD_ISO07W100
 70
0
  3
ISO dot . . . . . . . . . . . . . . . . . . . . 
 72
65
 73
2
 40
3.0
 49
0.1
 74
0
 49
-2.8999999999999999
 74
0
  0
LTYPE
  5
55
100
AcDbSymbolTableRecord
100
AcDbLinetypeTableRecord
  2
ACAD_ISO04W100
 70
0
  3
ISO long-dash dot ____ . ____ . ____ . ____ . _
 72
65
 73
4
 40
30.0
 49
24.0
 74
0
 49
-2.9500000000000002
 74
0
 49
0.1
 74
0
 49
-2.9500000000000002
 74
0
  0
LTYPE
  5
56
100
AcDbSymbolTableRecord
100
AcDbLinetypeTableRecord
  2
ACAD_ISO13W100
 70
0
  3
ISO double-dash double-dot __ __ . . __ __ . . _
 72
65
 73
8
 40
36.0000000000000071
 49
12.0
 74
0
 49
-3.0
 74
0
 49
12.0
 74
0
 49
-2.9500000000000002
 74
0
 49
0.1
 74
0
 49
-2.9000000000000004
 74
0
 49
0.1
 74
0
 49
-2.9500000000000002
 74
0
  0
ENDTAB
  0
TABLE
  2
LAYER
  5
2
100
AcDbSymbolTable
 70
11
  0
LAYER
  5
57
100
AcDbSymbolTableRecord
100
AcDbLayerTableRecord
  2
Step_03
 70
1
 62
7
420
0
  6
Continuous
370
25
390
F
  0
LAYER
  5
58
100
AcDbSymbolTableRecord
100
AcDbLayerTableRecord
  2
0_Framing
 70
0
 62
7
420
0
  6
Continuous
370
25
390
F
  0
LAYER
  5
59
100
AcDbSymbolTableRecord
100
AcDbLayerTableRecord
  2
Step_06b
 70
1
 62
7
420
0
  6
Continuous
370
25
390
F
  0
LAYER
  5
5A
100
AcDbSymbolTableRecord
100
AcDbLayerTableRecord
  2
Step_05
 70
1
 62
7
420
0
  6
Continuous
370
25
390
F
  0
LAYER
  5
10
100
AcDbSymbolTableRecord
100
AcDbLayerTableRecord
  2
0
 70
1
 62
7
420
16777215
  6
Continuous
370
25
390
F
  0
LAYER
  5
5B
100
AcDbSymbolTableRecord
100
AcDbLayerTableRecord
  2
Step_07a
 70
1
 62
7
420
0
  6
Continuous
370
25
390
F
  0
LAYER
  5
5C
100
AcDbSymbolTableRecord
100
AcDbLayerTableRecord
  2
Step_07b
 70
1
 62
7
420
0
  6
Continuous
370
25
390
F
  0
LAYER
  5
5D
100
AcDbSymbolTableRecord
100
AcDbLayerTableRecord
  2
Step_02
 70
1
 62
7
420
0
  6
Continuous
370
25
390
F
  0
LAYER
  5
5E
100
AcDbSymbolTableRecord
100
AcDbLayerTableRecord
  2
Step_06a
 70
1
 62
7
420
0
  6
Continuous
370
25
390
F
  0
LAYER
  5
5F
100
AcDbSymbolTableRecord
100
AcDbLayerTableRecord
  2
Step_04
 70
1
 62
7
420
0
  6
Continuous
370
25
390
F
  0
LAYER
  5
60
100
AcDbSymbolTableRecord
100
AcDbLayerTableRecord
  2
Step_01
 70
0
 62
7
420
0
  6
Continuous
370
25
390
F
  0
ENDTAB
  0
TABLE
  2
STYLE
  5
3
100
AcDbSymbolTable
 70
61
  0
STYLE
  5
61
100
AcDbSymbolTableRecord
100
AcDbTextStyleTableRecord
  2
Standard
 70
0
 40
0.0
 41
1.0
 50
0.0
 71
0
 42
2.5
  3

  4

1001
ACAD
1000
txt
1071
0
  0
STYLE
  5
62
100
AcDbSymbolTableRecord
100
AcDbTextStyleTableRecord
  2
textstyle0
 70
0
 40
0.0
 41
1.0
 50
0.0
 71
0
 42
3.0
  3

  4

1001
ACAD
1000
Liberation Sans
1071
0
  0
STYLE
  5
63
100
AcDbSymbolTableRecord
100
AcDbTextStyleTableRecord
  2
textstyle1
 70
0
 40
0.0
 41
1.0
 50
0.0
 71
0
 42
3.0
  3

  4

1001
ACAD
1000
Liberation Sans
1071
0
  0
STYLE
  5
64
100
AcDbSymbolTableRecord
100
AcDbTextStyleTableRecord
  2
textstyle2
 70
0
 40
0.0
 41
1.0
 50
0.0
 71
0
 42
3.0
  3

  4

1001
ACAD
1000
Liberation Sans
1071
0
  0
STYLE
  5
65
100
AcDbSymbolTableRecord
100
AcDbTextStyleTableRecord
  2
textstyle3
 70
0
 40
0.0
 41
1.0
 50
0.0
 71
0
 42
3.0
  3

  4

1001
ACAD
1000
Liberation Mono
1071
0
  0
STYLE
  5
66
100
AcDbSymbolTableRecord
100
AcDbTextStyleTableRecord
  2
textstyle4
 70
0
 40
0.0
 41
1.0
 50
0.0
 71
0
 42
3.0
  3

  4

1001
ACAD
1000
Liberation Mono
1071
0
  0
STYLE
  5
67
100
AcDbSymbolTableRecord
100
AcDbTextStyleTableRecord
  2
textstyle5
 70
0
 40
0.0
 41
1.0
 50
0.0
 71
0
 42
3.0
  3

  4

1001
ACAD
1000
Liberation Mono
1071
0
  0
STYLE
  5
68
100
AcDbSymbolTableRecord
100
AcDbTextStyleTableRecord
  2
textstyle6
 70
0
 40
0.0
 41
1.0
 50
0.0
 71
0
 42
3.0
  3

  4

1001
ACAD
1000
Liberation Sans
1071
0
  0
STYLE
  5
69
100
AcDbSymbolTableRecord
100
AcDbTextStyleTableRecord
  2
textstyle7
 70
0
 40
0.0
 41
1.0
 50
0.0
 71
0
 42
3.0
  3

  4

1001
ACAD
1000
Liberation Sans
1071
0
  0
STYLE
  5
6A
100
AcDbSymbolTableRecord
100
AcDbTextStyleTableRecord
  2
textstyle8
 70
0
 40
0.0
 41
1.0
 50
0.0
 71
0
 42
3.0
  3

  4

1001
ACAD
1000
Liberation Sans
1071
0
  0
STYLE
  5
6B
100
AcDbSymbolTableRecord
100
AcDbTextStyleTableRecord
  2
textstyle9
 70
0
 40
0.0
 41
1.0
 50
0.0
 71
0
 42
3.0
  3

  4

1001
ACAD
1000
Liberation Sans
1071
0
  0
STYLE
  5
6C
100
AcDbSymbolTableRecord
100
AcDbTextStyleTableRecord
  2
textstyle10
 70
0
 40
0.0
 41
1.0
 50
0.0
 71
0
 42
3.0
  3

  4

1001
ACAD
1000
Liberation Sans
1071
0
  0
STYLE
  5
6D
100
AcDbSymbolTableRecord
100
AcDbTextStyleTableRecord
  2
textstyle11
 70
0
 40
0.0
 41
1.0
 50
0.0
 71
0
 42
3.0
  3

  4

1001
ACAD
1000
Liberation Sans
1071
0
  0
STYLE
  5
6E
100
AcDbSymbolTableRecord
100
AcDbTextStyleTableRecord
  2
textstyle12
 70
0
 40
0.0
 41
1.0
 50
0.0
 71
0
 42
3.0
  3

  4

1001
ACAD
1000
Liberation Sans
1071
0
  0
STYLE
  5
6F
100
AcDbSymbolTableRecord
100
AcDbTextStyleTableRecord
  2
textstyle13
 70
0
 40
0.0
 41
1.0
 50
0.0
 71
0
 42
3.0
  3

  4

1001
ACAD
1000
Liberation Sans
1071
0
  0
STYLE
  5
70
100
AcDbSymbolTableRecord
100
AcDbTextStyleTableRecord
  2
textstyle14
 70
0
 40
0.0
 41
1.0
 50
0.0
 71
0
 42
3.0
  3

  4

1001
ACAD
1000
Liberation Sans
1071
0
  0
STYLE
  5
71
100
AcDbSymbolTableRecord
100
AcDbTextStyleTableRecord
  2
textstyle15
 70
0
 40
0.0
 41
1.0
 50
0.0
 71
0
 42
3.0
  3

  4

1001
ACAD
1000
Liberation Sans
1071
0
  0
STYLE
  5
72
100
AcDbSymbolTableRecord
100
AcDbTextStyleTableRecord
  2
textstyle16
 70
0
 40
0.0
 41
1.0
 50
0.0
 71
0
 42
3.0
  3

  4

1001
ACAD
1000
Liberation Sans
1071
0
  0
STYLE
  5
73
100
AcDbSymbolTableRecord
100
AcDbTextStyleTableRecord
  2
textstyle17
 70
0
 40
0.0
 41
1.0
 50
0.0
 71
0
 42
3.0
  3

  4

1001
ACAD
1000
Liberation Mono
1071
0
  0
STYLE
  5
74
100
AcDbSymbolTableRecord
100
AcDbTextStyleTableRecord
  2
textstyle18
 70
0
 40
0.0
 41
1.0
 50
0.0
 71
0
 42
3.0
  3

  4

1001
ACAD
1000
Liberation Mono
1071
0
  0
STYLE
  5
75
100
AcDbSymbolTableRecord
100
AcDbTextStyleTableRecord
  2
textstyle19
 70
0
 40
0.0
 41
1.0
 50
0.0
 71
0
 42
3.0
  3

  4

1001
ACAD
1000
Liberation Mono
1071
0
  0
STYLE
  5
76
100
AcDbSymbolTableRecord
100
AcDbTextStyleTableRecord
  2
textstyle20
 70
0
 40
0.0
 41
1.0
 50
0.0
 71
0
 42
3.0
  3

  4

1001
ACAD
1000
Liberation Mono
1071
0
  0
STYLE
  5
77
100
AcDbSymbolTableRecord
100
AcDbTextStyleTableRecord
  2
textstyle21
 70
0
 40
0.0
 41
1.0
 50
0.0
 71
0
 42
3.0
  3

  4

1001
ACAD
1000
Liberation Mono
1071
0
  0
STYLE
  5
78
100
AcDbSymbolTableRecord
100
AcDbTextStyleTableRecord
  2
textstyle22
 70
0
 40
0.0
 41
1.0
 50
0.0
 71
0
 42
3.0
  3

  4

1001
ACAD
1000
Liberation Mono
1071
0
  0
STYLE
  5
79
100
AcDbSymbolTableRecord
100
AcDbTextStyleTableRecord
  2
textstyle23
 70
0
 40
0.0
 41
1.0
 50
0.0
 71
0
 42
3.0
  3

  4

1001
ACAD
1000
Liberation Sans
1071
0
  0
STYLE
  5
7A
100
AcDbSymbolTableRecord
100
AcDbTextStyleTableRecord
  2
textstyle24
 70
0
 40
0.0
 41
1.0
 50
0.0
 71
0
 42
3.0
  3

  4

1001
ACAD
1000
Liberation Sans
1071
0
  0
STYLE
  5
7B
100
AcDbSymbolTableRecord
100
AcDbTextStyleTableRecord
  2
textstyle25
 70
0
 40
0.0
 41
1.0
 50
0.0
 71
0
 42
3.0
  3

  4

1001
ACAD
1000
Liberation Sans
1071
0
  0
STYLE
  5
7C
100
AcDbSymbolTableRecord
100
AcDbTextStyleTableRecord
  2
textstyle26
 70
0
 40
0.0
 41
1.0
 50
0.0
 71
0
 42
3.0
  3

  4

1001
ACAD
1000
Liberation Sans
1071
0
  0
STYLE
  5
7D
100
AcDbSymbolTableRecord
100
AcDbTextStyleTableRecord
  2
textstyle27
 70
0
 40
0.0
 41
1.0
 50
0.0
 71
0
 42
3.0
  3

  4

1001
ACAD
1000
Liberation Sans
1071
0
  0
STYLE
  5
7E
100
AcDbSymbolTableRecord
100
AcDbTextStyleTableRecord
  2
textstyle28
 70
0
 40
0.0
 41
1.0
 50
0.0
 71
0
 42
3.0
  3

  4

1001
ACAD
1000
Liberation Sans
1071
0
  0
STYLE
  5
7F
100
AcDbSymbolTableRecord
100
AcDbTextStyleTableRecord
  2
textstyle29
 70
0
 40
0.0
 41
1.0
 50
0.0
 71
0
 42
3.0
  3

  4

1001
ACAD
1000
Liberation Sans
1071
0
  0
STYLE
  5
80
100
AcDbSymbolTableRecord
100
AcDbTextStyleTableRecord
  2
textstyle30
 70
0
 40
0.0
 41
1.0
 50
0.0
 71
0
 42
3.0
  3

  4

1001
ACAD
1000
Liberation Sans
1071
0
  0
STYLE
  5
81
100
AcDbSymbolTableRecord
100
AcDbTextStyleTableRecord
  2
textstyle31
 70
0
 40
0.0
 41
1.0
 50
0.0
 71
0
 42
3.0
  3

  4

1001
ACAD
1000
Liberation Sans
1071
0
  0
STYLE
  5
82
100
AcDbSymbolTableRecord
100
AcDbTextStyleTableRecord
  2
textstyle32
 70
0
 40
0.0
 41
1.0
 50
0.0
 71
0
 42
3.0
  3

  4

1001
ACAD
1000
Liberation Sans
1071
0
  0
STYLE
  5
83
100
AcDbSymbolTableRecord
100
AcDbTextStyleTableRecord
  2
textstyle33
 70
0
 40
0.0
 41
1.0
 50
0.0
 71
0
 42
3.0
  3

  4

1001
ACAD
1000
Liberation Sans
1071
0
  0
STYLE
  5
84
100
AcDbSymbolTableRecord
100
AcDbTextStyleTableRecord
  2
textstyle34
 70
0
 40
0.0
 41
1.0
 50
0.0
 71
0
 42
3.0
  3

  4

1001
ACAD
1000
Liberation Sans
1071
0
  0
STYLE
  5
85
100
AcDbSymbolTableRecord
100
AcDbTextStyleTableRecord
  2
textstyle35
 70
0
 40
0.0
 41
1.0
 50
0.0
 71
0
 42
3.0
  3

  4

1001
ACAD
1000
Liberation Sans
1071
0
  0
STYLE
  5
86
100
AcDbSymbolTableRecord
100
AcDbTextStyleTableRecord
  2
textstyle36
 70
0
 40
0.0
 41
1.0
 50
0.0
 71
0
 42
3.0
  3

  4

1001
ACAD
1000
Liberation Sans
1071
0
  0
STYLE
  5
87
100
AcDbSymbolTableRecord
100
AcDbTextStyleTableRecord
  2
textstyle37
 70
0
 40
0.0
 41
1.0
 50
0.0
 71
0
 42
3.0
  3

  4

1001
ACAD
1000
Liberation Sans
1071
0
  0
STYLE
  5
88
100
AcDbSymbolTableRecord
100
AcDbTextStyleTableRecord
  2
textstyle38
 70
0
 40
0.0
 41
1.0
 50
0.0
 71
0
 42
3.0
  3

  4

1001
ACAD
1000
Liberation Sans
1071
0
  0
STYLE
  5
89
100
AcDbSymbolTableRecord
100
AcDbTextStyleTableRecord
  2
textstyle39
 70
0
 40
0.0
 41
1.0
 50
0.0
 71
0
 42
3.0
  3

  4

1001
ACAD
1000
Liberation Sans
1071
0
  0
STYLE
  5
8A
100
AcDbSymbolTableRecord
100
AcDbTextStyleTableRecord
  2
textstyle40
 70
0
 40
0.0
 41
1.0
 50
0.0
 71
0
 42
3.0
  3

  4

1001
ACAD
1000
Liberation Sans
1071
0
  0
STYLE
  5
8B
100
AcDbSymbolTableRecord
100
AcDbTextStyleTableRecord
  2
textstyle41
 70
0
 40
0.0
 41
1.0
 50
0.0
 71
0
 42
3.0
  3

  4

1001
ACAD
1000
Liberation Sans
1071
0
  0
STYLE
  5
8C
100
AcDbSymbolTableRecord
100
AcDbTextStyleTableRecord
  2
textstyle42
 70
0
 40
0.0
 41
1.0
 50
0.0
 71
0
 42
3.0
  3

  4

1001
ACAD
1000
Liberation Sans
1071
0
  0
STYLE
  5
8D
100
AcDbSymbolTableRecord
100
AcDbTextStyleTableRecord
  2
textstyle43
 70
0
 40
0.0
 41
1.0
 50
0.0
 71
0
 42
3.0
  3

  4

1001
ACAD
1000
Liberation Sans
1071
0
  0
STYLE
  5
8E
100
AcDbSymbolTableRecord
100
AcDbTextStyleTableRecord
  2
textstyle44
 70
0
 40
0.0
 41
1.0
 50
0.0
 71
0
 42
3.0
  3

  4

1001
ACAD
1000
Liberation Sans
1071
0
  0
STYLE
  5
8F
100
AcDbSymbolTableRecord
100
AcDbTextStyleTableRecord
  2
textstyle45
 70
0
 40
0.0
 41
1.0
 50
0.0
 71
0
 42
3.0
  3

  4

1001
ACAD
1000
Liberation Sans
1071
0
  0
STYLE
  5
90
100
AcDbSymbolTableRecord
100
AcDbTextStyleTableRecord
  2
textstyle46
 70
0
 40
0.0
 41
1.0
 50
0.0
 71
0
 42
3.0
  3

  4

1001
ACAD
1000
Liberation Sans
1071
0
  0
STYLE
  5
91
100
AcDbSymbolTableRecord
100
AcDbTextStyleTableRecord
  2
textstyle47
 70
0
 40
0.0
 41
1.0
 50
0.0
 71
0
 42
3.0
  3

  4

1001
ACAD
1000
Liberation Sans
1071
0
  0
STYLE
  5
92
100
AcDbSymbolTableRecord
100
AcDbTextStyleTableRecord
  2
textstyle48
 70
0
 40
0.0
 41
1.0
 50
0.0
 71
0
 42
3.0
  3

  4

1001
ACAD
1000
Liberation Sans
1071
0
  0
STYLE
  5
93
100
AcDbSymbolTableRecord
100
AcDbTextStyleTableRecord
  2
textstyle49
 70
0
 40
0.0
 41
1.0
 50
0.0
 71
0
 42
3.0
  3

  4

1001
ACAD
1000
Liberation Sans
1071
0
  0
STYLE
  5
94
100
AcDbSymbolTableRecord
100
AcDbTextStyleTableRecord
  2
textstyle50
 70
0
 40
0.0
 41
1.0
 50
0.0
 71
0
 42
3.0
  3

  4

1001
ACAD
1000
Liberation Sans
1071
0
  0
STYLE
  5
95
100
AcDbSymbolTableRecord
100
AcDbTextStyleTableRecord
  2
textstyle51
 70
0
 40
0.0
 41
1.0
 50
0.0
 71
0
 42
3.0
  3

  4

1001
ACAD
1000
Liberation Sans
1071
0
  0
STYLE
  5
96
100
AcDbSymbolTableRecord
100
AcDbTextStyleTableRecord
  2
textstyle52
 70
0
 40
0.0
 41
1.0
 50
0.0
 71
0
 42
3.0
  3

  4

1001
ACAD
1000
Liberation Sans
1071
0
  0
STYLE
  5
97
100
AcDbSymbolTableRecord
100
AcDbTextStyleTableRecord
  2
textstyle53
 70
0
 40
0.0
 41
1.0
 50
0.0
 71
0
 42
3.0
  3

  4

1001
ACAD
1000
Liberation Sans
1071
0
  0
STYLE
  5
98
100
AcDbSymbolTableRecord
100
AcDbTextStyleTableRecord
  2
textstyle54
 70
0
 40
0.0
 41
1.0
 50
0.0
 71
0
 42
3.0
  3

  4

1001
ACAD
1000
Liberation Sans
1071
0
  0
STYLE
  5
99
100
AcDbSymbolTableRecord
100
AcDbTextStyleTableRecord
  2
textstyle55
 70
0
 40
0.0
 41
1.0
 50
0.0
 71
0
 42
3.0
  3

  4

1001
ACAD
1000
Liberation Sans
1071
0
  0
STYLE
  5
9A
100
AcDbSymbolTableRecord
100
AcDbTextStyleTableRecord
  2
textstyle56
 70
0
 40
0.0
 41
1.0
 50
0.0
 71
0
 42
3.0
  3

  4

1001
ACAD
1000
Liberation Sans
1071
0
  0
STYLE
  5
9B
100
AcDbSymbolTableRecord
100
AcDbTextStyleTableRecord
  2
textstyle57
 70
0
 40
0.0
 41
1.0
 50
0.0
 71
0
 42
3.0
  3

  4

1001
ACAD
1000
Liberation Sans
1071
0
  0
STYLE
  5
9C
100
AcDbSymbolTableRecord
100
AcDbTextStyleTableRecord
  2
textstyle58
 70
0
 40
0.0
 41
1.0
 50
0.0
 71
0
 42
3.0
  3

  4

1001
ACAD
1000
Liberation Sans
1071
0
  0
STYLE
  5
9D
100
AcDbSymbolTableRecord
100
AcDbTextStyleTableRecord
  2
textstyle59
 70
0
 40
0.0
 41
1.0
 50
0.0
 71
0
 42
3.0
  3

  4

1001
ACAD
1000
Liberation Sans
1071
0
  0
ENDTAB
  0
TABLE
  2
VIEW
  5
6
100
AcDbSymbolTable
 70
0
  0
ENDTAB
  0
TABLE
  2
UCS
  5
7
100
AcDbSymbolTable
 70
0
  0
ENDTAB
  0
TABLE
  2
APPID
  5
9
100
AcDbSymbolTable
 70
1
  0
APPID
  5
12
100
AcDbSymbolTableRecord
100
AcDbRegAppTableRecord
  2
ACAD
 70
0
  0
APPID
  5
9E
100
AcDbSymbolTableRecord
100
AcDbRegAppTableRecord
  2
QCAD
 70
0
  0
ENDTAB
  0
TABLE
  2
DIMSTYLE
  5
A
100
AcDbSymbolTable
 70
1
100
AcDbDimStyleTable
 71
0
  0
DIMSTYLE
105
27
100
AcDbSymbolTableRecord
100
AcDbDimStyleTableRecord
  2
Standard
 41
2.5
 42
0.03125
 43
3.75
 44
0.0625
 70
0
 73
0
 74
0
 77
1
 78
8
140
0.125
141
2.5
143
0.03937007874016
147
0.03125
171
3
172
1
271
2
272
2
274
3
278
44
283
0
284
8
340
61
  0
ENDTAB
  0
TABLE
  2
BLOCK_RECORD
  5
1
100
AcDbSymbolTable
 70
1
  0
BLOCK_RECORD
  5
1F
100
AcDbSymbolTableRecord
100
AcDbBlockTableRecord
  2
*Model_Space
340
22
  0
BLOCK_RECORD
  5
1B
100
AcDbSymbolTableRecord
100
AcDbBlockTableRecord
  2
*Paper_Space
340
1E
  0
BLOCK_RECORD
  5
23
100
AcDbSymbolTableRecord
100
AcDbBlockTableRecord
  2
*Paper_Space0
340
26
  0
ENDTAB
  0
ENDSEC
  0
SECTION
  2
BLOCKS
  0
BLOCK
  5
20
100
AcDbEntity
  8
0
100
AcDbBlockBegin
  2
*Model_Space
 70
0
 10
0.0
 20
0.0
 30
0.0
  3
*Model_Space
  1

  0
ENDBLK
  5
21
100
AcDbEntity
  8
0
100
AcDbBlockEnd
  0
BLOCK
  5
1C
100
AcDbEntity
 67
1
  8
0
100
AcDbBlockBegin
  2
*Paper_Space
 70
0
 10
0.0
 20
0.0
 30
0.0
  3
*Paper_Space
  1

  0
ENDBLK
  5
1D
100
AcDbEntity
 67
1
  8
0
100
AcDbBlockEnd
  0
BLOCK
  5
24
100
AcDbEntity
  8
0
100
AcDbBlockBegin
  2
*Paper_Space0
 70
0
 10
0.0
 20
0.0
 30
0.0
  3
*Paper_Space0
  1

  0
ENDBLK
  5
25
100
AcDbEntity
  8
0
100
AcDbBlockEnd
  0
ENDSEC
  0
SECTION
  2
ENTITIES
  0
LINE
  5
9F
100
AcDbEntity
  8
Step_07a
 62
252
420
10526884
370
-1
 48
1.0
  6
BYLAYER
100
AcDbLine
 10
0.0
 20
0.0
 30
0.0
 11
0.0
 21
48.0
 31
0.0
  0
LINE
  5
A0
100
AcDbEntity
  8
Step_07b
 62
256
370
-1
 48
1.0
  6
BYLAYER
100
AcDbLine
 10
0.0
 20
0.0
 30
0.0
 11
0.0
 21
48.0
 31
0.0
  0
LINE
  5
A1
100
AcDbEntity
  8
Step_07a
 62
252
420
10526884
370
-1
 48
1.0
  6
BYLAYER
100
AcDbLine
 10
93.25
 20
48.0
 30
0.0
 11
93.25
 21
0.0
 31
0.0
  0
LINE
  5
A2
100
AcDbEntity
  8
Step_07b
 62
256
370
-1
 48
1.0
  6
BYLAYER
100
AcDbLine
 10
93.25
 20
48.0
 30
0.0
 11
93.25
 21
0.0
 31
0.0
  0
LINE
  5
A3
100
AcDbEntity
  8
Step_07a
 62
252
420
10526884
370
-1
 48
1.0
  6
BYLAYER
100
AcDbLine
 10
93.25
 20
0.0
 30
0.0
 11
0.0
 21
0.0
 31
0.0
  0
LINE
  5
A4
100
AcDbEntity
  8
Step_07b
 62
256
370
-1
 48
1.0
  6
BYLAYER
100
AcDbLine
 10
93.25
 20
0.0
 30
0.0
 11
0.0
 21
0.0
 31
0.0
  0
LINE
  5
A5
100
AcDbEntity
  8
Step_07a
 62
256
370
-1
 48
1.0
  6
BYLAYER
100
AcDbLine
 10
0.0
 20
48.0
 30
0.0
 11
0.0
 21
96.0
 31
0.0
  0
LINE
  5
A6
100
AcDbEntity
  8
Step_07b
 62
256
370
-1
 48
1.0
  6
BYLAYER
100
AcDbLine
 10
0.0
 20
48.0
 30
0.0
 11
0.0
 21
96.0
 31
0.0
  0
LINE
  5
A7
100
AcDbEntity
  8
Step_07a
 62
256
370
-1
 48
1.0
  6
BYLAYER
100
AcDbLine
 10
93.25
 20
96.0
 30
0.0
 11
93.25
 21
48.0
 31
0.0
  0
LINE
  5
A8
100
AcDbEntity
  8
Step_07b
 62
256
370
-1
 48
1.0
  6
BYLAYER
100
AcDbLine
 10
93.25
 20
96.0
 30
0.0
 11
93.25
 21
48.0
 31
0.0
  0
LINE
  5
A9
100
AcDbEntity
  8
Step_07a
 62
256
370
-1
 48
1.0
  6
BYLAYER
100
AcDbLine
 10
0.0
 20
96.0
 30
0.0
 11
0.0
 21
144.0
 31
0.0
  0
LINE
  5
AA
100
AcDbEntity
  8
Step_07b
 62
256
370
-1
 48
1.0
  6
BYLAYER
100
AcDbLine
 10
0.0
 20
96.0
 30
0.0
 11
0.0
 21
144.0
 31
0.0
  0
LINE
  5
AB
100
AcDbEntity
  8
Step_07a
 62
256
370
-1
 48
1.0
  6
BYLAYER
100
AcDbLine
 10
0.0
 20
144.0
 30
0.0
 11
93.25
 21
144.0
 31
0.0
  0
LINE
  5
AC
100
AcDbEntity
  8
Step_07b
 62
256
370
-1
 48
1.0
  6
BYLAYER
100
AcDbLine
 10
0.0
 20
144.0
 30
0.0
 11
93.25
 21
144.0
 31
0.0
  0
LINE
  5
AD
100
AcDbEntity
  8
Step_07a
 62
256
370
-1
 48
1.0
  6
BYLAYER
100
AcDbLine
 10
93.25
 20
144.0
 30
0.0
 11
93.25
 21
96.0
 31
0.0
  0
LINE
  5
AE
100
AcDbEntity
  8
Step_07b
 62
256
370
-1
 48
1.0
  6
BYLAYER
100
AcDbLine
 10
93.25
 20
144.0
 30
0.0
 11
93.25
 21
96.0
 31
0.0
  0
HATCH
  5
AF
100
AcDbEntity
  8
Step_07a
 62
252
420
10526884
370
-1
 48
1.0
  6
BYLAYER
100
AcDbHatch
 10
0.0
 20
0.0
 30
0.0
210
0.0
220
0.0
230
1.0
  2
SOLID
 70
1
 71
0
 91
1
 92
1
 93
4
 72
1
 10
93.25
 20
0.0
 11
0.0
 21
0.0
 72
1
 10
0.0
 20
0.0
 11
0.0
 21
48.0
 72
1
 10
0.0
 20
48.0
 11
93.25
 21
48.0
 72
1
 10
93.25
 20
48.0
 11
93.25
 21
0.0
 97
0
 75
0
 76
1
 98
0
1001
ACAD
1010
0.0
1020
0.0
1030
0
  0
HATCH
  5
B0
100
AcDbEntity
  8
Step_07b
 62
252
420
10526884
370
-1
 48
1.0
  6
BYLAYER
100
AcDbHatch
 10
0.0
 20
0.0
 30
0.0
210
0.0
220
0.0
230
1.0
  2
SOLID
 70
1
 71
0
 91
1
 92
1
 93
4
 72
1
 10
93.25
 20
0.0
 11
0.0
 21
0.0
 72
1
 10
0.0
 20
0.0
 11
0.0
 21
48.0
 72
1
 10
0.0
 20
48.0
 11
93.25
 21
48.0
 72
1
 10
93.25
 20
48.0
 11
93.25
 21
0.0
 97
0
 75
0
 76
1
 98
0
1001
ACAD
1010
0.0
1020
0.0
1030
0
  0
HATCH
  5
B1
100
AcDbEntity
  8
Step_07a
 62
252
420
10526884
370
-1
 48
1.0
  6
BYLAYER
100
AcDbHatch
 10
0.0
 20
0.0
 30
0.0
210
0.0
220
0.0
230
1.0
  2
SOLID
 70
1
 71
0
 91
1
 92
1
 93
4
 72
1
 10
93.25
 20
48.0
 11
0.0
 21
48.0
 72
1
 10
0.0
 20
48.0
 11
0.0
 21
96.0
 72
1
 10
0.0
 20
96.0
 11
93.25
 21
96.0
 72
1
 10
93.25
 20
96.0
 11
93.25
 21
48.0
 97
0
 75
0
 76
1
 98
0
1001
ACAD
1010
0.0
1020
0.0
1030
0
  0
HATCH
  5
B2
100
AcDbEntity
  8
Step_07b
 62
252
420
10526884
370
-1
 48
1.0
  6
BYLAYER
100
AcDbHatch
 10
0.0
 20
0.0
 30
0.0
210
0.0
220
0.0
230
1.0
  2
SOLID
 70
1
 71
0
 91
1
 92
1
 93
4
 72
1
 10
93.25
 20
48.0
 11
0.0
 21
48.0
 72
1
 10
0.0
 20
48.0
 11
0.0
 21
96.0
 72
1
 10
0.0
 20
96.0
 11
93.25
 21
96.0
 72
1
 10
93.25
 20
96.0
 11
93.25
 21
48.0
 97
0
 75
0
 76
1
 98
0
1001
ACAD
1010
0.0
1020
0.0
1030
0
  0
HATCH
  5
B3
100
AcDbEntity
  8
Step_07a
 62
252
420
10526884
370
-1
 48
1.0
  6
BYLAYER
100
AcDbHatch
 10
0.0
 20
0.0
 30
0.0
210
0.0
220
0.0
230
1.0
  2
SOLID
 70
1
 71
0
 91
1
 92
1
 93
4
 72
1
 10
93.25
 20
96.0
 11
0.0
 21
96.0
 72
1
 10
0.0
 20
96.0
 11
0.0
 21
144.0
 72
1
 10
0.0
 20
144.0
 11
93.25
 21
144.0
 72
1
 10
93.25
 20
144.0
 11
93.25
 21
96.0
 97
0
 75
0
 76
1
 98
0
1001
ACAD
1010
0.0
1020
0.0
1030
0
  0
HATCH
  5
B4
100
AcDbEntity
  8
Step_07b
 62
252
420
10526884
370
-1
 48
1.0
  6
BYLAYER
100
AcDbHatch
 10
0.0
 20
0.0
 30
0.0
210
0.0
220
0.0
230
1.0
  2
SOLID
 70
1
 71
0
 91
1
 92
1
 93
4
 72
1
 10
93.25
 20
96.0
 11
0.0
 21
96.0
 72
1
 10
0.0
 20
96.0
 11
0.0
 21
144.0
 72
1
 10
0.0
 20
144.0
 11
93.25
 21
144.0
 72
1
 10
93.25
 20
144.0
 11
93.25
 21
96.0
 97
0
 75
0
 76
1
 98
0
1001
ACAD
1010
0.0
1020
0.0
1030
0
  0
HATCH
  5
B5
100
AcDbEntity
  8
Step_06a
 62
9
420
12632256
370
-1
 48
1.0
  6
BYLAYER
100
AcDbHatch
 10
0.0
 20
0.0
 30
0.0
210
0.0
220
0.0
230
1.0
  2
SOLID
 70
1
 71
0
 91
1
 92
1
 93
8
 72
1
 10
85.5
 20
0.0
 11
1.5
 21
0.0
 72
1
 10
1.5
 20
0.0
 11
0.0
 21
0.0
 72
1
 10
0.0
 20
0.0
 11
0.0
 21
144.0
 72
1
 10
0.0
 20
144.0
 11
1.5
 21
144.0
 72
1
 10
1.5
 20
144.0
 11
85.5
 21
144.0
 72
1
 10
85.5
 20
144.0
 11
87.0
 21
144.0
 72
1
 10
87.0
 20
144.0
 11
87.0
 21
0.0
 72
1
 10
87.0
 20
0.0
 11
85.5
 21
0.0
 97
0
 75
0
 76
1
 98
0
1001
ACAD
1010
0.0
1020
0.0
1030
0
  0
HATCH
  5
B6
100
AcDbEntity
  8
Step_06b
 62
9
420
12632256
370
-1
 48
1.0
  6
BYLAYER
100
AcDbHatch
 10
0.0
 20
0.0
 30
0.0
210
0.0
220
0.0
230
1.0
  2
SOLID
 70
1
 71
0
 91
1
 92
1
 93
8
 72
1
 10
85.5
 20
0.0
 11
1.5
 21
0.0
 72
1
 10
1.5
 20
0.0
 11
0.0
 21
0.0
 72
1
 10
0.0
 20
0.0
 11
0.0
 21
144.0
 72
1
 10
0.0
 20
144.0
 11
1.5
 21
144.0
 72
1
 10
1.5
 20
144.0
 11
85.5
 21
144.0
 72
1
 10
85.5
 20
144.0
 11
87.0
 21
144.0
 72
1
 10
87.0
 20
144.0
 11
87.0
 21
0.0
 72
1
 10
87.0
 20
0.0
 11
85.5
 21
0.0
 97
0
 75
0
 76
1
 98
0
1001
ACAD
1010
0.0
1020
0.0
1030
0
  0
HATCH
  5
B7
100
AcDbEntity
  8
Step_06a
 62
252
420
10526884
370
-1
 48
1.0
  6
BYLAYER
100
AcDbHatch
 10
0.0
 20
0.0
 30
0.0
210
0.0
220
0.0
230
1.0
  2
SOLID
 70
1
 71
0
 91
1
 92
1
 93
4
 72
1
 10
93.25
 20
96.0
 11
0.0
 21
96.0
 72
1
 10
0.0
 20
96.0
 11
0.0
 21
144.0
 72
1
 10
0.0
 20
144.0
 11
93.25
 21
144.0
 72
1
 10
93.25
 20
144.0
 11
93.25
 21
96.0
 97
0
 75
0
 76
1
 98
0
1001
ACAD
1010
0.0
1020
0.0
1030
0
  0
HATCH
  5
B8
100
AcDbEntity
  8
Step_06b
 62
252
420
10526884
370
-1
 48
1.0
  6
BYLAYER
100
AcDbHatch
 10
0.0
 20
0.0
 30
0.0
210
0.0
220
0.0
230
1.0
  2
SOLID
 70
1
 71
0
 91
1
 92
1
 93
4
 72
1
 10
93.0
 20
0.0
 11
-0.25
 21
0.0
 72
1
 10
-0.25
 20
0.0
 11
-0.25
 21
48.0
 72
1
 10
-0.25
 20
48.0
 11
93.0
 21
48.0
 72
1
 10
93.0
 20
48.0
 11
93.0
 21
0.0
 97
0
 75
0
 76
1
 98
0
1001
ACAD
1010
0.0
1020
0.0
1030
0
  0
HATCH
  5
B9
100
AcDbEntity
  8
Step_05
 62
9
420
12632256
370
-1
 48
1.0
  6
BYLAYER
100
AcDbHatch
 10
0.0
 20
0.0
 30
0.0
210
0.0
220
0.0
230
1.0
  2
SOLID
 70
1
 71
0
 91
1
 92
1
 93
8
 72
1
 10
85.5
 20
0.0
 11
1.5
 21
0.0
 72
1
 10
1.5
 20
0.0
 11
0.0
 21
0.0
 72
1
 10
0.0
 20
0.0
 11
0.0
 21
144.0
 72
1
 10
0.0
 20
144.0
 11
1.5
 21
144.0
 72
1
 10
1.5
 20
144.0
 11
85.5
 21
144.0
 72
1
 10
85.5
 20
144.0
 11
87.0
 21
144.0
 72
1
 10
87.0
 20
144.0
 11
87.0
 21
0.0
 72
1
 10
87.0
 20
0.0
 11
85.5
 21
0.0
 97
0
 75
0
 76
1
 98
0
1001
ACAD
1010
0.0
1020
0.0
1030
0
  0
HATCH
  5
BA
100
AcDbEntity
  8
Step_01
 62
256
370
-1
 48
1.0
  6
BYLAYER
100
AcDbHatch
 10
0.0
 20
0.0
 30
0.0
210
0.0
220
0.0
230
1.0
  2
SOLID
 70
1
 71
0
 91
1
 92
1
 93
4
 72
1
 10
85.5
 20
0.0
 11
1.5
 21
0.0
 72
1
 10
1.5
 20
-0.0
 11
1.5
 21
1.5
 72
1
 10
1.5
 20
1.5
 11
85.5
 21
1.5
 72
1
 10
85.5
 20
1.5
 11
85.5
 21
0.0
 97
0
 75
0
 76
1
 98
0
1001
ACAD
1010
0.0
1020
0.0
1030
0
  0
HATCH
  5
BB
100
AcDbEntity
  8
Step_01
 62
256
370
-1
 48
1.0
  6
BYLAYER
100
AcDbHatch
 10
0.0
 20
0.0
 30
0.0
210
0.0
220
0.0
230
1.0
  2
SOLID
 70
1
 71
0
 91
1
 92
1
 93
4
 72
1
 10
85.5
 20
142.5
 11
1.5
 21
142.5
 72
1
 10
1.5
 20
142.5
 11
1.5
 21
144.0
 72
1
 10
1.5
 20
144.0
 11
85.5
 21
144.0
 72
1
 10
85.5
 20
144.0
 11
85.5
 21
142.5
 97
0
 75
0
 76
1
 98
0
1001
ACAD
1010
0.0
1020
0.0
1030
0
  0
HATCH
  5
BC
100
AcDbEntity
  8
Step_02
 62
252
420
10526884
370
-1
 48
1.0
  6
BYLAYER
100
AcDbHatch
 10
0.0
 20
0.0
 30
0.0
210
0.0
220
0.0
230
1.0
  2
SOLID
 70
1
 71
0
 91
1
 92
1
 93
4
 72
1
 10
85.5
 20
0.0
 11
1.5
 21
0.0
 72
1
 10
1.5
 20
-0.0
 11
1.5
 21
1.5
 72
1
 10
1.5
 20
1.5
 11
85.5
 21
1.5
 72
1
 10
85.5
 20
1.5
 11
85.5
 21
0.0
 97
0
 75
0
 76
1
 98
0
1001
ACAD
1010
0.0
1020
0.0
1030
0
  0
HATCH
  5
BD
100
AcDbEntity
  8
Step_03
 62
252
420
10526884
370
-1
 48
1.0
  6
BYLAYER
100
AcDbHatch
 10
0.0
 20
0.0
 30
0.0
210
0.0
220
0.0
230
1.0
  2
SOLID
 70
1
 71
0
 91
1
 92
1
 93
4
 72
1
 10
85.5
 20
0.0
 11
1.5
 21
0.0
 72
1
 10
1.5
 20
-0.0
 11
1.5
 21
1.5
 72
1
 10
1.5
 20
1.5
 11
85.5
 21
1.5
 72
1
 10
85.5
 20
1.5
 11
85.5
 21
0.0
 97
0
 75
0
 76
1
 98
0
1001
ACAD
1010
0.0
1020
0.0
1030
0
  0
HATCH
  5
BE
100
AcDbEntity
  8
Step_04
 62
252
420
10526884
370
-1
 48
1.0
  6
BYLAYER
100
AcDbHatch
 10
0.0
 20
0.0
 30
0.0
210
0.0
220
0.0
230
1.0
  2
SOLID
 70
1
 71
0
 91
1
 92
1
 93
4
 72
1
 10
85.5
 20
0.0
 11
1.5
 21
0.0
 72
1
 10
1.5
 20
-0.0
 11
1.5
 21
1.5
 72
1
 10
1.5
 20
1.5
 11
85.5
 21
1.5
 72
1
 10
85.5
 20
1.5
 11
85.5
 21
0.0
 97
0
 75
0
 76
1
 98
0
1001
ACAD
1010
0.0
1020
0.0
1030
0
  0
HATCH
  5
BF
100
AcDbEntity
  8
Step_05
 62
252
420
10526884
370
-1
 48
1.0
  6
BYLAYER
100
AcDbHatch
 10
0.0
 20
0.0
 30
0.0
210
0.0
220
0.0
230
1.0
  2
SOLID
 70
1
 71
0
 91
1
 92
1
 93
4
 72
1
 10
85.5
 20
0.0
 11
1.5
 21
0.0
 72
1
 10
1.5
 20
-0.0
 11
1.5
 21
1.5
 72
1
 10
1.5
 20
1.5
 11
85.5
 21
1.5
 72
1
 10
85.5
 20
1.5
 11
85.5
 21
0.0
 97
0
 75
0
 76
1
 98
0
1001
ACAD
1010
0.0
1020
0.0
1030
0
  0
HATCH
  5
C0
100
AcDbEntity
  8
Step_06a
 62
252
420
10526884
370
-1
 48
1.0
  6
BYLAYER
100
AcDbHatch
 10
0.0
 20
0.0
 30
0.0
210
0.0
220
0.0
230
1.0
  2
SOLID
 70
1
 71
0
 91
1
 92
1
 93
4
 72
1
 10
85.5
 20
0.0
 11
1.5
 21
0.0
 72
1
 10
1.5
 20
-0.0
 11
1.5
 21
1.5
 72
1
 10
1.5
 20
1.5
 11
85.5
 21
1.5
 72
1
 10
85.5
 20
1.5
 11
85.5
 21
0.0
 97
0
 75
0
 76
1
 98
0
1001
ACAD
1010
0.0
1020
0.0
1030
0
  0
HATCH
  5
C1
100
AcDbEntity
  8
Step_07a
 62
252
420
10526884
370
-1
 48
1.0
  6
BYLAYER
100
AcDbHatch
 10
0.0
 20
0.0
 30
0.0
210
0.0
220
0.0
230
1.0
  2
SOLID
 70
1
 71
0
 91
1
 92
1
 93
4
 72
1
 10
85.5
 20
0.0
 11
1.5
 21
0.0
 72
1
 10
1.5
 20
-0.0
 11
1.5
 21
1.5
 72
1
 10
1.5
 20
1.5
 11
85.5
 21
1.5
 72
1
 10
85.5
 20
1.5
 11
85.5
 21
0.0
 97
0
 75
0
 76
1
 98
0
1001
ACAD
1010
0.0
1020
0.0
1030
0
  0
HATCH
  5
C2
100
AcDbEntity
  8
Step_07b
 62
252
420
10526884
370
-1
 48
1.0
  6
BYLAYER
100
AcDbHatch
 10
0.0
 20
0.0
 30
0.0
210
0.0
220
0.0
230
1.0
  2
SOLID
 70
1
 71
0
 91
1
 92
1
 93
4
 72
1
 10
85.5
 20
0.0
 11
1.5
 21
0.0
 72
1
 10
1.5
 20
-0.0
 11
1.5
 21
1.5
 72
1
 10
1.5
 20
1.5
 11
85.5
 21
1.5
 72
1
 10
85.5
 20
1.5
 11
85.5
 21
0.0
 97
0
 75
0
 76
1
 98
0
1001
ACAD
1010
0.0
1020
0.0
1030
0
  0
HATCH
  5
C3
100
AcDbEntity
  8
Step_02
 62
252
420
10526884
370
-1
 48
1.0
  6
BYLAYER
100
AcDbHatch
 10
0.0
 20
0.0
 30
0.0
210
0.0
220
0.0
230
1.0
  2
SOLID
 70
1
 71
0
 91
1
 92
1
 93
4
 72
1
 10
85.5
 20
142.5
 11
1.5
 21
142.5
 72
1
 10
1.5
 20
142.5
 11
1.5
 21
144.0
 72
1
 10
1.5
 20
144.0
 11
85.5
 21
144.0
 72
1
 10
85.5
 20
144.0
 11
85.5
 21
142.5
 97
0
 75
0
 76
1
 98
0
1001
ACAD
1010
0.0
1020
0.0
1030
0
  0
HATCH
  5
C4
100
AcDbEntity
  8
Step_03
 62
252
420
10526884
370
-1
 48
1.0
  6
BYLAYER
100
AcDbHatch
 10
0.0
 20
0.0
 30
0.0
210
0.0
220
0.0
230
1.0
  2
SOLID
 70
1
 71
0
 91
1
 92
1
 93
4
 72
1
 10
85.5
 20
142.5
 11
1.5
 21
142.5
 72
1
 10
1.5
 20
142.5
 11
1.5
 21
144.0
 72
1
 10
1.5
 20
144.0
 11
85.5
 21
144.0
 72
1
 10
85.5
 20
144.0
 11
85.5
 21
142.5
 97
0
 75
0
 76
1
 98
0
1001
ACAD
1010
0.0
1020
0.0
1030
0
  0
HATCH
  5
C5
100
AcDbEntity
  8
Step_04
 62
252
420
10526884
370
-1
 48
1.0
  6
BYLAYER
100
AcDbHatch
 10
0.0
 20
0.0
 30
0.0
210
0.0
220
0.0
230
1.0
  2
SOLID
 70
1
 71
0
 91
1
 92
1
 93
4
 72
1
 10
85.5
 20
142.5
 11
1.5
 21
142.5
 72
1
 10
1.5
 20
142.5
 11
1.5
 21
144.0
 72
1
 10
1.5
 20
144.0
 11
85.5
 21
144.0
 72
1
 10
85.5
 20
144.0
 11
85.5
 21
142.5
 97
0
 75
0
 76
1
 98
0
1001
ACAD
1010
0.0
1020
0.0
1030
0
  0
HATCH
  5
C6
100
AcDbEntity
  8
Step_05
 62
252
420
10526884
370
-1
 48
1.0
  6
BYLAYER
100
AcDbHatch
 10
0.0
 20
0.0
 30
0.0
210
0.0
220
0.0
230
1.0
  2
SOLID
 70
1
 71
0
 91
1
 92
1
 93
4
 72
1
 10
85.5
 20
142.5
 11
1.5
 21
142.5
 72
1
 10
1.5
 20
142.5
 11
1.5
 21
144.0
 72
1
 10
1.5
 20
144.0
 11
85.5
 21
144.0
 72
1
 10
85.5
 20
144.0
 11
85.5
 21
142.5
 97
0
 75
0
 76
1
 98
0
1001
ACAD
1010
0.0
1020
0.0
1030
0
  0
HATCH
  5
C7
100
AcDbEntity
  8
Step_06a
 62
252
420
10526884
370
-1
 48
1.0
  6
BYLAYER
100
AcDbHatch
 10
0.0
 20
0.0
 30
0.0
210
0.0
220
0.0
230
1.0
  2
SOLID
 70
1
 71
0
 91
1
 92
1
 93
4
 72
1
 10
85.5
 20
142.5
 11
1.5
 21
142.5
 72
1
 10
1.5
 20
142.5
 11
1.5
 21
144.0
 72
1
 10
1.5
 20
144.0
 11
85.5
 21
144.0
 72
1
 10
85.5
 20
144.0
 11
85.5
 21
142.5
 97
0
 75
0
 76
1
 98
0
1001
ACAD
1010
0.0
1020
0.0
1030
0
  0
HATCH
  5
C8
100
AcDbEntity
  8
Step_06b
 62
252
420
10526884
370
-1
 48
1.0
  6
BYLAYER
100
AcDbHatch
 10
0.0
 20
0.0
 30
0.0
210
0.0
220
0.0
230
1.0
  2
SOLID
 70
1
 71
0
 91
1
 92
1
 93
4
 72
1
 10
85.5
 20
142.5
 11
1.5
 21
142.5
 72
1
 10
1.5
 20
142.5
 11
1.5
 21
144.0
 72
1
 10
1.5
 20
144.0
 11
85.5
 21
144.0
 72
1
 10
85.5
 20
144.0
 11
85.5
 21
142.5
 97
0
 75
0
 76
1
 98
0
1001
ACAD
1010
0.0
1020
0.0
1030
0
  0
HATCH
  5
C9
100
AcDbEntity
  8
Step_07a
 62
252
420
10526884
370
-1
 48
1.0
  6
BYLAYER
100
AcDbHatch
 10
0.0
 20
0.0
 30
0.0
210
0.0
220
0.0
230
1.0
  2
SOLID
 70
1
 71
0
 91
1
 92
1
 93
4
 72
1
 10
85.5
 20
142.5
 11
1.5
 21
142.5
 72
1
 10
1.5
 20
142.5
 11
1.5
 21
144.0
 72
1
 10
1.5
 20
144.0
 11
85.5
 21
144.0
 72
1
 10
85.5
 20
144.0
 11
85.5
 21
142.5
 97
0
 75
0
 76
1
 98
0
1001
ACAD
1010
0.0
1020
0.0
1030
0
  0
HATCH
  5
CA
100
AcDbEntity
  8
Step_07b
 62
252
420
10526884
370
-1
 48
1.0
  6
BYLAYER
100
AcDbHatch
 10
0.0
 20
0.0
 30
0.0
210
0.0
220
0.0
230
1.0
  2
SOLID
 70
1
 71
0
 91
1
 92
1
 93
4
 72
1
 10
85.5
 20
142.5
 11
1.5
 21
142.5
 72
1
 10
1.5
 20
142.5
 11
1.5
 21
144.0
 72
1
 10
1.5
 20
144.0
 11
85.5
 21
144.0
 72
1
 10
85.5
 20
144.0
 11
85.5
 21
142.5
 97
0
 75
0
 76
1
 98
0
1001
ACAD
1010
0.0
1020
0.0
1030
0
  0
HATCH
  5
CB
100
AcDbEntity
  8
Step_01
 62
256
370
-1
 48
1.0
  6
BYLAYER
100
AcDbHatch
 10
0.0
 20
0.0
 30
0.0
210
0.0
220
0.0
230
1.0
  2
SOLID
 70
1
 71
0
 91
1
 92
1
 93
4
 72
1
 10
1.5
 20
0.0
 11
0.0
 21
0.0
 72
1
 10
0.0
 20
0.0
 11
0.0
 21
144.0
 72
1
 10
0.0
 20
144.0
 11
1.5
 21
144.0
 72
1
 10
1.5
 20
144.0
 11
1.5
 21
0.0
 97
0
 75
0
 76
1
 98
0
1001
ACAD
1010
0.0
1020
0.0
1030
0
  0
HATCH
  5
CC
100
AcDbEntity
  8
Step_01
 62
256
370
-1
 48
1.0
  6
BYLAYER
100
AcDbHatch
 10
0.0
 20
0.0
 30
0.0
210
0.0
220
0.0
230
1.0
  2
SOLID
 70
1
 71
0
 91
1
 92
1
 93
4
 72
1
 10
87.0
 20
0.0
 11
85.5
 21
0.0
 72
1
 10
85.5
 20
0.0
 11
85.5
 21
144.0
 72
1
 10
85.5
 20
144.0
 11
87.0
 21
144.0
 72
1
 10
87.0
 20
144.0
 11
87.0
 21
0.0
 97
0
 75
0
 76
1
 98
0
1001
ACAD
1010
0.0
1020
0.0
1030
0
  0
HATCH
  5
CD
100
AcDbEntity
  8
Step_02
 62
252
420
10526884
370
-1
 48
1.0
  6
BYLAYER
100
AcDbHatch
 10
0.0
 20
0.0
 30
0.0
210
0.0
220
0.0
230
1.0
  2
SOLID
 70
1
 71
0
 91
1
 92
1
 93
4
 72
1
 10
87.0
 20
0.0
 11
85.5
 21
0.0
 72
1
 10
85.5
 20
0.0
 11
85.5
 21
144.0
 72
1
 10
85.5
 20
144.0
 11
87.0
 21
144.0
 72
1
 10
87.0
 20
144.0
 11
87.0
 21
0.0
 97
0
 75
0
 76
1
 98
0
1001
ACAD
1010
0.0
1020
0.0
1030
0
  0
HATCH
  5
CE
100
AcDbEntity
  8
Step_03
 62
252
420
10526884
370
-1
 48
1.0
  6
BYLAYER
100
AcDbHatch
 10
0.0
 20
0.0
 30
0.0
210
0.0
220
0.0
230
1.0
  2
SOLID
 70
1
 71
0
 91
1
 92
1
 93
4
 72
1
 10
87.0
 20
0.0
 11
85.5
 21
0.0
 72
1
 10
85.5
 20
0.0
 11
85.5
 21
144.0
 72
1
 10
85.5
 20
144.0
 11
87.0
 21
144.0
 72
1
 10
87.0
 20
144.0
 11
87.0
 21
0.0
 97
0
 75
0
 76
1
 98
0
1001
ACAD
1010
0.0
1020
0.0
1030
0
  0
HATCH
  5
CF
100
AcDbEntity
  8
Step_04
 62
252
420
10526884
370
-1
 48
1.0
  6
BYLAYER
100
AcDbHatch
 10
0.0
 20
0.0
 30
0.0
210
0.0
220
0.0
230
1.0
  2
SOLID
 70
1
 71
0
 91
1
 92
1
 93
4
 72
1
 10
87.0
 20
0.0
 11
85.5
 21
0.0
 72
1
 10
85.5
 20
0.0
 11
85.5
 21
144.0
 72
1
 10
85.5
 20
144.0
 11
87.0
 21
144.0
 72
1
 10
87.0
 20
144.0
 11
87.0
 21
0.0
 97
0
 75
0
 76
1
 98
0
1001
ACAD
1010
0.0
1020
0.0
1030
0
  0
HATCH
  5
D0
100
AcDbEntity
  8
Step_05
 62
252
420
10526884
370
-1
 48
1.0
  6
BYLAYER
100
AcDbHatch
 10
0.0
 20
0.0
 30
0.0
210
0.0
220
0.0
230
1.0
  2
SOLID
 70
1
 71
0
 91
1
 92
1
 93
4
 72
1
 10
87.0
 20
0.0
 11
85.5
 21
0.0
 72
1
 10
85.5
 20
0.0
 11
85.5
 21
144.0
 72
1
 10
85.5
 20
144.0
 11
87.0
 21
144.0
 72
1
 10
87.0
 20
144.0
 11
87.0
 21
0.0
 97
0
 75
0
 76
1
 98
0
1001
ACAD
1010
0.0
1020
0.0
1030
0
  0
HATCH
  5
D1
100
AcDbEntity
  8
Step_06a
 62
252
420
10526884
370
-1
 48
1.0
  6
BYLAYER
100
AcDbHatch
 10
0.0
 20
0.0
 30
0.0
210
0.0
220
0.0
230
1.0
  2
SOLID
 70
1
 71
0
 91
1
 92
1
 93
4
 72
1
 10
87.0
 20
0.0
 11
85.5
 21
0.0
 72
1
 10
85.5
 20
0.0
 11
85.5
 21
144.0
 72
1
 10
85.5
 20
144.0
 11
87.0
 21
144.0
 72
1
 10
87.0
 20
144.0
 11
87.0
 21
0.0
 97
0
 75
0
 76
1
 98
0
1001
ACAD
1010
0.0
1020
0.0
1030
0
  0
HATCH
  5
D2
100
AcDbEntity
  8
Step_06b
 62
252
420
10526884
370
-1
 48
1.0
  6
BYLAYER
100
AcDbHatch
 10
0.0
 20
0.0
 30
0.0
210
0.0
220
0.0
230
1.0
  2
SOLID
 70
1
 71
0
 91
1
 92
1
 93
4
 72
1
 10
87.0
 20
0.0
 11
85.5
 21
0.0
 72
1
 10
85.5
 20
0.0
 11
85.5
 21
144.0
 72
1
 10
85.5
 20
144.0
 11
87.0
 21
144.0
 72
1
 10
87.0
 20
144.0
 11
87.0
 21
0.0
 97
0
 75
0
 76
1
 98
0
1001
ACAD
1010
0.0
1020
0.0
1030
0
  0
HATCH
  5
D3
100
AcDbEntity
  8
Step_07a
 62
252
420
10526884
370
-1
 48
1.0
  6
BYLAYER
100
AcDbHatch
 10
0.0
 20
0.0
 30
0.0
210
0.0
220
0.0
230
1.0
  2
SOLID
 70
1
 71
0
 91
1
 92
1
 93
4
 72
1
 10
87.0
 20
0.0
 11
85.5
 21
0.0
 72
1
 10
85.5
 20
0.0
 11
85.5
 21
144.0
 72
1
 10
85.5
 20
144.0
 11
87.0
 21
144.0
 72
1
 10
87.0
 20
144.0
 11
87.0
 21
0.0
 97
0
 75
0
 76
1
 98
0
1001
ACAD
1010
0.0
1020
0.0
1030
0
  0
HATCH
  5
D4
100
AcDbEntity
  8
Step_07b
 62
252
420
10526884
370
-1
 48
1.0
  6
BYLAYER
100
AcDbHatch
 10
0.0
 20
0.0
 30
0.0
210
0.0
220
0.0
230
1.0
  2
SOLID
 70
1
 71
0
 91
1
 92
1
 93
4
 72
1
 10
87.0
 20
0.0
 11
85.5
 21
0.0
 72
1
 10
85.5
 20
0.0
 11
85.5
 21
144.0
 72
1
 10
85.5
 20
144.0
 11
87.0
 21
144.0
 72
1
 10
87.0
 20
144.0
 11
87.0
 21
0.0
 97
0
 75
0
 76
1
 98
0
1001
ACAD
1010
0.0
1020
0.0
1030
0
  0
HATCH
  5
D5
100
AcDbEntity
  8
Step_02
 62
252
420
10526884
370
-1
 48
1.0
  6
BYLAYER
100
AcDbHatch
 10
0.0
 20
0.0
 30
0.0
210
0.0
220
0.0
230
1.0
  2
SOLID
 70
1
 71
0
 91
1
 92
1
 93
4
 72
1
 10
1.5
 20
0.0
 11
0.0
 21
0.0
 72
1
 10
0.0
 20
0.0
 11
0.0
 21
144.0
 72
1
 10
0.0
 20
144.0
 11
1.5
 21
144.0
 72
1
 10
1.5
 20
144.0
 11
1.5
 21
0.0
 97
0
 75
0
 76
1
 98
0
1001
ACAD
1010
0.0
1020
0.0
1030
0
  0
HATCH
  5
D6
100
AcDbEntity
  8
Step_03
 62
252
420
10526884
370
-1
 48
1.0
  6
BYLAYER
100
AcDbHatch
 10
0.0
 20
0.0
 30
0.0
210
0.0
220
0.0
230
1.0
  2
SOLID
 70
1
 71
0
 91
1
 92
1
 93
4
 72
1
 10
1.5
 20
0.0
 11
0.0
 21
0.0
 72
1
 10
0.0
 20
0.0
 11
0.0
 21
144.0
 72
1
 10
0.0
 20
144.0
 11
1.5
 21
144.0
 72
1
 10
1.5
 20
144.0
 11
1.5
 21
0.0
 97
0
 75
0
 76
1
 98
0
1001
ACAD
1010
0.0
1020
0.0
1030
0
  0
HATCH
  5
D7
100
AcDbEntity
  8
Step_04
 62
252
420
10526884
370
-1
 48
1.0
  6
BYLAYER
100
AcDbHatch
 10
0.0
 20
0.0
 30
0.0
210
0.0
220
0.0
230
1.0
  2
SOLID
 70
1
 71
0
 91
1
 92
1
 93
4
 72
1
 10
1.5
 20
0.0
 11
0.0
 21
0.0
 72
1
 10
0.0
 20
0.0
 11
0.0
 21
144.0
 72
1
 10
0.0
 20
144.0
 11
1.5
 21
144.0
 72
1
 10
1.5
 20
144.0
 11
1.5
 21
0.0
 97
0
 75
0
 76
1
 98
0
1001
ACAD
1010
0.0
1020
0.0
1030
0
  0
HATCH
  5
D8
100
AcDbEntity
  8
Step_05
 62
252
420
10526884
370
-1
 48
1.0
  6
BYLAYER
100
AcDbHatch
 10
0.0
 20
0.0
 30
0.0
210
0.0
220
0.0
230
1.0
  2
SOLID
 70
1
 71
0
 91
1
 92
1
 93
4
 72
1
 10
1.5
 20
0.0
 11
0.0
 21
0.0
 72
1
 10
0.0
 20
0.0
 11
0.0
 21
144.0
 72
1
 10
0.0
 20
144.0
 11
1.5
 21
144.0
 72
1
 10
1.5
 20
144.0
 11
1.5
 21
0.0
 97
0
 75
0
 76
1
 98
0
1001
ACAD
1010
0.0
1020
0.0
1030
0
  0
HATCH
  5
D9
100
AcDbEntity
  8
Step_06a
 62
252
420
10526884
370
-1
 48
1.0
  6
BYLAYER
100
AcDbHatch
 10
0.0
 20
0.0
 30
0.0
210
0.0
220
0.0
230
1.0
  2
SOLID
 70
1
 71
0
 91
1
 92
1
 93
4
 72
1
 10
1.5
 20
0.0
 11
0.0
 21
0.0
 72
1
 10
0.0
 20
0.0
 11
0.0
 21
144.0
 72
1
 10
0.0
 20
144.0
 11
1.5
 21
144.0
 72
1
 10
1.5
 20
144.0
 11
1.5
 21
0.0
 97
0
 75
0
 76
1
 98
0
1001
ACAD
1010
0.0
1020
0.0
1030
0
  0
HATCH
  5
DA
100
AcDbEntity
  8
Step_06b
 62
252
420
10526884
370
-1
 48
1.0
  6
BYLAYER
100
AcDbHatch
 10
0.0
 20
0.0
 30
0.0
210
0.0
220
0.0
230
1.0
  2
SOLID
 70
1
 71
0
 91
1
 92
1
 93
4
 72
1
 10
1.5
 20
0.0
 11
0.0
 21
0.0
 72
1
 10
0.0
 20
0.0
 11
0.0
 21
144.0
 72
1
 10
0.0
 20
144.0
 11
1.5
 21
144.0
 72
1
 10
1.5
 20
144.0
 11
1.5
 21
0.0
 97
0
 75
0
 76
1
 98
0
1001
ACAD
1010
0.0
1020
0.0
1030
0
  0
HATCH
  5
DB
100
AcDbEntity
  8
Step_07a
 62
252
420
10526884
370
-1
 48
1.0
  6
BYLAYER
100
AcDbHatch
 10
0.0
 20
0.0
 30
0.0
210
0.0
220
0.0
230
1.0
  2
SOLID
 70
1
 71
0
 91
1
 92
1
 93
4
 72
1
 10
1.5
 20
0.0
 11
0.0
 21
0.0
 72
1
 10
0.0
 20
0.0
 11
0.0
 21
144.0
 72
1
 10
0.0
 20
144.0
 11
1.5
 21
144.0
 72
1
 10
1.5
 20
144.0
 11
1.5
 21
0.0
 97
0
 75
0
 76
1
 98
0
1001
ACAD
1010
0.0
1020
0.0
1030
0
  0
HATCH
  5
DC
100
AcDbEntity
  8
Step_07b
 62
252
420
10526884
370
-1
 48
1.0
  6
BYLAYER
100
AcDbHatch
 10
0.0
 20
0.0
 30
0.0
210
0.0
220
0.0
230
1.0
  2
SOLID
 70
1
 71
0
 91
1
 92
1
 93
4
 72
1
 10
1.5
 20
0.0
 11
0.0
 21
0.0
 72
1
 10
0.0
 20
0.0
 11
0.0
 21
144.0
 72
1
 10
0.0
 20
144.0
 11
1.5
 21
144.0
 72
1
 10
1.5
 20
144.0
 11
1.5
 21
0.0
 97
0
 75
0
 76
1
 98
0
1001
ACAD
1010
0.0
1020
0.0
1030
0
  0
IMAGE
  5
DD
100
AcDbEntity
  8
Step_01
 62
256
370
-1
 48
1.0
  6
BYLAYER
100
AcDbRasterImage
 90
0
 10
-0.5577830399999755
 20
131.6779897373343147
 30
0.0
 11
0.0
 21
0.25
 31
0.0
 12
-0.25
 22
0.0
 32
0.0
 13
14.0
 23
14.0
340
DE
 70
15
280
0
281
50
282
50
283
0
  0
IMAGE
  5
DF
100
AcDbEntity
  8
Step_04
 62
256
370
-1
 48
1.0
  6
BYLAYER
100
AcDbRasterImage
 90
0
 10
-0.0263498863078774
 20
108.351581452734564
 30
0.0
 11
0.0
 21
0.25
 31
0.0
 12
-0.25
 22
0.0
 32
0.0
 13
14.0
 23
14.0
340
E0
 70
15
280
0
281
50
282
50
283
0
  0
IMAGE
  5
E1
100
AcDbEntity
  8
Step_04
 62
256
370
-1
 48
1.0
  6
BYLAYER
100
AcDbRasterImage
 90
0
 10
-0.0263498863078822
 20
84.351581452734564
 30
0.0
 11
0.0
 21
0.25
 31
0.0
 12
-0.25
 22
0.0
 32
0.0
 13
14.0
 23
14.0
340
E2
 70
15
280
0
281
50
282
50
283
0
  0
IMAGE
  5
E3
100
AcDbEntity
  8
Step_04
 62
256
370
-1
 48
1.0
  6
BYLAYER
100
AcDbRasterImage
 90
0
 10
-0.0263498863078822
 20
60.351581452734564
 30
0.0
 11
0.0
 21
0.25
 31
0.0
 12
-0.25
 22
0.0
 32
0.0
 13
14.0
 23
14.0
340
E4
 70
15
280
0
281
50
282
50
283
0
  0
IMAGE
  5
E5
100
AcDbEntity
  8
Step_04
 62
256
370
-1
 48
1.0
  6
BYLAYER
100
AcDbRasterImage
 90
0
 10
-0.0263498863078822
 20
36.351581452734564
 30
0.0
 11
0.0
 21
0.25
 31
0.0
 12
-0.25
 22
0.0
 32
0.0
 13
14.0
 23
14.0
340
E6
 70
15
280
0
281
50
282
50
283
0
  0
IMAGE
  5
E7
100
AcDbEntity
  8
Step_04
 62
256
370
-1
 48
1.0
  6
BYLAYER
100
AcDbRasterImage
 90
0
 10
-0.0263498863078822
 20
12.351581452734564
 30
0.0
 11
0.0
 21
0.25
 31
0.0
 12
-0.25
 22
0.0
 32
0.0
 13
14.0
 23
14.0
340
E8
 70
15
280
0
281
50
282
50
283
0
  0
IMAGE
  5
E9
100
AcDbEntity
  8
Step_01
 62
256
370
-1
 48
1.0
  6
BYLAYER
100
AcDbRasterImage
 90
0
 10
-0.4456812848116889
 20
-10.5699858842566723
 30
0.0
 11
0.0
 21
0.25
 31
0.0
 12
-0.25
 22
0.0
 32
0.0
 13
14.0
 23
14.0
340
EA
 70
15
280
0
281
50
282
50
283
0
  0
IMAGE
  5
EB
100
AcDbEntity
  8
Step_01
 62
256
370
-1
 48
1.0
  6
BYLAYER
100
AcDbRasterImage
 90
0
 10
87.5039369636894975
 20
-10.8671327301154523
 30
0.0
 11
-0.0015980601749085
 21
0.2499948923551786
 31
0.0
 12
0.2499948923551787
 22
0.0015980601749059
 32
0.0
 13
14.0
 23
14.0
340
EC
 70
15
280
0
281
50
282
50
283
0
  0
IMAGE
  5
ED
100
AcDbEntity
  8
Step_01
 62
256
370
-1
 48
1.0
  6
BYLAYER
100
AcDbRasterImage
 90
0
 10
87.1734215139820066
 20
131.9316088076824087
 30
0.0
 11
-0.0015980601749085
 21
0.2499948923551786
 31
0.0
 12
0.2499948923551787
 22
0.0015980601749059
 32
0.0
 13
14.0
 23
14.0
340
EE
 70
15
280
0
281
50
282
50
283
0
  0
IMAGE
  5
EF
100
AcDbEntity
  8
Step_04
 62
256
370
-1
 48
1.0
  6
BYLAYER
100
AcDbRasterImage
 90
0
 10
86.8439985930451144
 20
108.6052005230826296
 30
0.0
 11
0.0000000000000001
 21
0.2499999999999999
 31
0.0
 12
0.25
 22
-0.0000000000000001
 32
0.0
 13
14.0
 23
14.0
340
F0
 70
15
280
0
281
50
282
50
283
0
  0
IMAGE
  5
F1
100
AcDbEntity
  8
Step_04
 62
256
370
-1
 48
1.0
  6
BYLAYER
100
AcDbRasterImage
 90
0
 10
86.8439985930451144
 20
84.6052005230826012
 30
0.0
 11
0.0000000000000001
 21
0.2499999999999999
 31
0.0
 12
0.25
 22
-0.0000000000000001
 32
0.0
 13
14.0
 23
14.0
340
F2
 70
15
280
0
281
50
282
50
283
0
  0
IMAGE
  5
F3
100
AcDbEntity
  8
Step_04
 62
256
370
-1
 48
1.0
  6
BYLAYER
100
AcDbRasterImage
 90
0
 10
86.8439985930451144
 20
60.6052005230826012
 30
0.0
 11
0.0000000000000001
 21
0.2499999999999999
 31
0.0
 12
0.25
 22
-0.0000000000000001
 32
0.0
 13
14.0
 23
14.0
340
F4
 70
15
280
0
281
50
282
50
283
0
  0
IMAGE
  5
F5
100
AcDbEntity
  8
Step_04
 62
256
370
-1
 48
1.0
  6
BYLAYER
100
AcDbRasterImage
 90
0
 10
86.8439985930451144
 20
36.6052005230826012
 30
0.0
 11
0.0000000000000001
 21
0.2499999999999999
 31
0.0
 12
0.25
 22
-0.0000000000000001
 32
0.0
 13
14.0
 23
14.0
340
F6
 70
15
280
0
281
50
282
50
283
0
  0
IMAGE
  5
F7
100
AcDbEntity
  8
Step_04
 62
256
370
-1
 48
1.0
  6
BYLAYER
100
AcDbRasterImage
 90
0
 10
86.8439985930451144
 20
12.6052005230826012
 30
0.0
 11
0.0000000000000001
 21
0.2499999999999999
 31
0.0
 12
0.25
 22
-0.0000000000000001
 32
0.0
 13
14.0
 23
14.0
340
F8
 70
15
280
0
281
50
282
50
283
0
  0
MTEXT
  5
F9
100
AcDbEntity
  8
Step_01
 62
256
370
-1
 48
1.0
  6
BYLAYER
100
AcDbMText
 10
102.397277899456796
 20
144.8962559999999371
 30
0.0
 40
3.0
 41
0.0
 71
1
 72
1
  1
\H4.00001;x2
  7
textstyle40
 50
0.0
 73
2
 44
1.0
  0
MTEXT
  5
FA
100
AcDbEntity
  8
Step_04
 62
256
370
-1
 48
1.0
  6
BYLAYER
100
AcDbMText
 10
96.0
 20
108.0
 30
0.0
 40
3.0
 41
0.0
 71
1
 72
1
  1
\H2.50001;x2
  7
textstyle41
 50
0.0
 73
2
 44
1.0
  0
MTEXT
  5
FB
100
AcDbEntity
  8
Step_04
 62
256
370
-1
 48
1.0
  6
BYLAYER
100
AcDbMText
 10
96.0
 20
84.0
 30
0.0
 40
3.0
 41
0.0
 71
1
 72
1
  1
\H2.50001;x2
  7
textstyle42
 50
0.0
 73
2
 44
1.0
  0
MTEXT
  5
FC
100
AcDbEntity
  8
Step_04
 62
256
370
-1
 48
1.0
  6
BYLAYER
100
AcDbMText
 10
96.0
 20
60.0000000000000142
 30
0.0
 40
3.0
 41
0.0
 71
1
 72
1
  1
\H2.50001;x2
  7
textstyle43
 50
0.0
 73
2
 44
1.0
  0
MTEXT
  5
FD
100
AcDbEntity
  8
Step_04
 62
256
370
-1
 48
1.0
  6
BYLAYER
100
AcDbMText
 10
96.0
 20
36.0000000000000142
 30
0.0
 40
3.0
 41
0.0
 71
1
 72
1
  1
\H2.50001;x2
  7
textstyle44
 50
0.0
 73
2
 44
1.0
  0
MTEXT
  5
FE
100
AcDbEntity
  8
Step_04
 62
256
370
-1
 48
1.0
  6
BYLAYER
100
AcDbMText
 10
96.0
 20
11.9999999999999645
 30
0.0
 40
3.0
 41
0.0
 71
1
 72
1
  1
\H2.50001;x2
  7
textstyle45
 50
0.0
 73
2
 44
1.0
  0
MTEXT
  5
FF
100
AcDbEntity
  8
Step_01
 62
256
370
-1
 48
1.0
  6
BYLAYER
100
AcDbMText
 10
-20.3039999999999949
 20
144.8962559999999371
 30
0.0
 40
3.0
 41
0.0
 71
1
 72
1
  1
\H4.00001;x2
  7
textstyle46
 50
0.0
 73
2
 44
1.0
  0
MTEXT
  5
100
100
AcDbEntity
  8
Step_04
 62
256
370
-1
 48
1.0
  6
BYLAYER
100
AcDbMText
 10
-12.0
 20
107.0
 30
0.0
 40
3.0
 41
0.0
 71
1
 72
1
  1
\H2.50001;x2
  7
textstyle47
 50
0.0
 73
2
 44
1.0
  0
MTEXT
  5
101
100
AcDbEntity
  8
Step_04
 62
256
370
-1
 48
1.0
  6
BYLAYER
100
AcDbMText
 10
-12.0
 20
83.0
 30
0.0
 40
3.0
 41
0.0
 71
1
 72
1
  1
\H2.50001;x2
  7
textstyle48
 50
0.0
 73
2
 44
1.0
  0
MTEXT
  5
102
100
AcDbEntity
  8
Step_04
 62
256
370
-1
 48
1.0
  6
BYLAYER
100
AcDbMText
 10
-12.0000000000000036
 20
59.0
 30
0.0
 40
3.0
 41
0.0
 71
1
 72
1
  1
\H2.50001;x2
  7
textstyle35
 50
0.0
 73
2
 44
1.0
  0
MTEXT
  5
103
100
AcDbEntity
  8
Step_04
 62
256
370
-1
 48
1.0
  6
BYLAYER
100
AcDbMText
 10
-12.0
 20
35.0
 30
0.0
 40
3.0
 41
0.0
 71
1
 72
1
  1
\H2.50001;x2
  7
textstyle36
 50
0.0
 73
2
 44
1.0
  0
MTEXT
  5
104
100
AcDbEntity
  8
Step_04
 62
256
370
-1
 48
1.0
  6
BYLAYER
100
AcDbMText
 10
-12.0000000000000036
 20
10.9999999999999964
 30
0.0
 40
3.0
 41
0.0
 71
1
 72
1
  1
\H2.50001;x2
  7
textstyle37
 50
0.0
 73
2
 44
1.0
  0
MTEXT
  5
105
100
AcDbEntity
  8
Step_01
 62
256
370
-1
 48
1.0
  6
BYLAYER
100
AcDbMText
 10
-20.7678982448117111
 20
2.6320243784090223
 30
0.0
 40
3.0
 41
0.0
 71
1
 72
1
  1
\H4.00001;x2
  7
textstyle38
 50
0.0
 73
2
 44
1.0
  0
MTEXT
  5
106
100
AcDbEntity
  8
Step_01
 62
256
370
-1
 48
1.0
  6
BYLAYER
100
AcDbMText
 10
102.5279999999999632
 20
3.0240000000000009
 30
0.0
 40
3.0
 41
0.0
 71
1
 72
1
  1
\H4.00001;x2
  7
textstyle39
 50
0.0
 73
2
 44
1.0
  0
HATCH
  5
107
100
AcDbEntity
  8
Step_03
 62
252
420
10526884
370
-1
 48
1.0
  6
BYLAYER
100
AcDbHatch
 10
0.0
 20
0.0
 30
0.0
210
0.0
220
0.0
230
1.0
  2
SOLID
 70
1
 71
0
 91
1
 92
1
 93
4
 72
1
 10
1.5
 20
142.5
 11
85.5
 21
142.5
 72
1
 10
85.5
 20
142.5
 11
85.5
 21
139.0
 72
1
 10
85.5
 20
139.0
 11
1.5
 21
139.0
 72
1
 10
1.5
 20
139.0
 11
1.5
 21
142.5
 97
0
 75
0
 76
1
 98
0
1001
ACAD
1010
0.0
1020
0.0
1030
0
  0
HATCH
  5
108
100
AcDbEntity
  8
Step_04
 62
252
420
10526884
370
-1
 48
1.0
  6
BYLAYER
100
AcDbHatch
 10
0.0
 20
0.0
 30
0.0
210
0.0
220
0.0
230
1.0
  2
SOLID
 70
1
 71
0
 91
1
 92
1
 93
4
 72
1
 10
1.5
 20
142.5
 11
85.5
 21
142.5
 72
1
 10
85.5
 20
142.5
 11
85.5
 21
139.0
 72
1
 10
85.5
 20
139.0
 11
1.5
 21
139.0
 72
1
 10
1.5
 20
139.0
 11
1.5
 21
142.5
 97
0
 75
0
 76
1
 98
0
1001
ACAD
1010
0.0
1020
0.0
1030
0
  0
HATCH
  5
109
100
AcDbEntity
  8
Step_05
 62
252
420
10526884
370
-1
 48
1.0
  6
BYLAYER
100
AcDbHatch
 10
0.0
 20
0.0
 30
0.0
210
0.0
220
0.0
230
1.0
  2
SOLID
 70
1
 71
0
 91
1
 92
1
 93
4
 72
1
 10
1.5
 20
142.5
 11
85.5
 21
142.5
 72
1
 10
85.5
 20
142.5
 11
85.5
 21
139.0
 72
1
 10
85.5
 20
139.0
 11
1.5
 21
139.0
 72
1
 10
1.5
 20
139.0
 11
1.5
 21
142.5
 97
0
 75
0
 76
1
 98
0
1001
ACAD
1010
0.0
1020
0.0
1030
0
  0
HATCH
  5
10A
100
AcDbEntity
  8
Step_06a
 62
252
420
10526884
370
-1
 48
1.0
  6
BYLAYER
100
AcDbHatch
 10
0.0
 20
0.0
 30
0.0
210
0.0
220
0.0
230
1.0
  2
SOLID
 70
1
 71
0
 91
1
 92
1
 93
4
 72
1
 10
1.5
 20
142.5
 11
85.5
 21
142.5
 72
1
 10
85.5
 20
142.5
 11
85.5
 21
139.0
 72
1
 10
85.5
 20
139.0
 11
1.5
 21
139.0
 72
1
 10
1.5
 20
139.0
 11
1.5
 21
142.5
 97
0
 75
0
 76
1
 98
0
1001
ACAD
1010
0.0
1020
0.0
1030
0
  0
HATCH
  5
10B
100
AcDbEntity
  8
Step_06b
 62
252
420
10526884
370
-1
 48
1.0
  6
BYLAYER
100
AcDbHatch
 10
0.0
 20
0.0
 30
0.0
210
0.0
220
0.0
230
1.0
  2
SOLID
 70
1
 71
0
 91
1
 92
1
 93
4
 72
1
 10
1.5
 20
142.5
 11
85.5
 21
142.5
 72
1
 10
85.5
 20
142.5
 11
85.5
 21
139.0
 72
1
 10
85.5
 20
139.0
 11
1.5
 21
139.0
 72
1
 10
1.5
 20
139.0
 11
1.5
 21
142.5
 97
0
 75
0
 76
1
 98
0
1001
ACAD
1010
0.0
1020
0.0
1030
0
  0
HATCH
  5
10C
100
AcDbEntity
  8
Step_07a
 62
252
420
10526884
370
-1
 48
1.0
  6
BYLAYER
100
AcDbHatch
 10
0.0
 20
0.0
 30
0.0
210
0.0
220
0.0
230
1.0
  2
SOLID
 70
1
 71
0
 91
1
 92
1
 93
4
 72
1
 10
1.5
 20
142.5
 11
85.5
 21
142.5
 72
1
 10
85.5
 20
142.5
 11
85.5
 21
139.0
 72
1
 10
85.5
 20
139.0
 11
1.5
 21
139.0
 72
1
 10
1.5
 20
139.0
 11
1.5
 21
142.5
 97
0
 75
0
 76
1
 98
0
1001
ACAD
1010
0.0
1020
0.0
1030
0
  0
HATCH
  5
10D
100
AcDbEntity
  8
Step_07b
 62
252
420
10526884
370
-1
 48
1.0
  6
BYLAYER
100
AcDbHatch
 10
0.0
 20
0.0
 30
0.0
210
0.0
220
0.0
230
1.0
  2
SOLID
 70
1
 71
0
 91
1
 92
1
 93
4
 72
1
 10
1.5
 20
142.5
 11
85.5
 21
142.5
 72
1
 10
85.5
 20
142.5
 11
85.5
 21
139.0
 72
1
 10
85.5
 20
139.0
 11
1.5
 21
139.0
 72
1
 10
1.5
 20
139.0
 11
1.5
 21
142.5
 97
0
 75
0
 76
1
 98
0
1001
ACAD
1010
0.0
1020
0.0
1030
0
  0
HATCH
  5
10E
100
AcDbEntity
  8
Step_02
 62
256
370
-1
 48
1.0
  6
BYLAYER
100
AcDbHatch
 10
0.0
 20
0.0
 30
0.0
210
0.0
220
0.0
230
1.0
  2
SOLID
 70
1
 71
0
 91
1
 92
1
 93
4
 72
1
 10
1.5
 20
142.5
 11
85.5
 21
142.5
 72
1
 10
85.5
 20
142.5
 11
85.5
 21
139.0
 72
1
 10
85.5
 20
139.0
 11
1.5
 21
139.0
 72
1
 10
1.5
 20
139.0
 11
1.5
 21
142.5
 97
0
 75
0
 76
1
 98
0
1001
ACAD
1010
0.0
1020
0.0
1030
0
  0
HATCH
  5
10F
100
AcDbEntity
  8
Step_02
 62
256
370
-1
 48
1.0
  6
BYLAYER
100
AcDbHatch
 10
0.0
 20
0.0
 30
0.0
210
0.0
220
0.0
230
1.0
  2
SOLID
 70
1
 71
0
 91
1
 92
1
 93
4
 72
1
 10
1.5
 20
5.0
 11
85.5
 21
5.0
 72
1
 10
85.5
 20
5.0
 11
85.5
 21
1.5
 72
1
 10
85.5
 20
1.5
 11
1.5
 21
1.5
 72
1
 10
1.5
 20
1.5
 11
1.5
 21
5.0
 97
0
 75
0
 76
1
 98
0
1001
ACAD
1010
0.0
1020
0.0
1030
0
  0
HATCH
  5
110
100
AcDbEntity
  8
Step_01
 62
256
370
-1
 48
1.0
  6
BYLAYER
100
AcDbHatch
 10
0.0
 20
0.0
 30
0.0
210
0.0
220
0.0
230
1.0
  2
ACAD_ISO02W100
 70
0
 71
0
 91
1
 92
1
 93
4
 72
1
 10
1.5
 20
5.0
 11
85.5
 21
5.0
 72
1
 10
85.5
 20
5.0
 11
85.5
 21
1.5
 72
1
 10
85.5
 20
1.5
 11
1.5
 21
1.5
 72
1
 10
1.5
 20
1.5
 11
1.5
 21
5.0
 97
0
 75
0
 76
1
 52
45.0
 41
0.33
 77
0
 78
1
 53
45.0
 43
0.0
 44
0.0
 45
-0.0883883476483184
 46
0.0883883476483185
 79
0
 98
0
1001
ACAD
1010
0.0
1020
0.0
1030
0
  0
HATCH
  5
111
100
AcDbEntity
  8
Step_01
 62
256
370
-1
 48
1.0
  6
BYLAYER
100
AcDbHatch
 10
0.0
 20
0.0
 30
0.0
210
0.0
220
0.0
230
1.0
  2
ACAD_ISO02W100
 70
0
 71
0
 91
1
 92
1
 93
4
 72
1
 10
1.5
 20
142.5
 11
85.5
 21
142.5
 72
1
 10
85.5
 20
142.5
 11
85.5
 21
139.0
 72
1
 10
85.5
 20
139.0
 11
1.5
 21
139.0
 72
1
 10
1.5
 20
139.0
 11
1.5
 21
142.5
 97
0
 75
0
 76
1
 52
45.0
 41
0.33
 77
0
 78
1
 53
45.0
 43
0.0
 44
0.0
 45
-0.0883883476483184
 46
0.0883883476483185
 79
0
 98
0
1001
ACAD
1010
0.0
1020
0.0
1030
0
  0
HATCH
  5
112
100
AcDbEntity
  8
Step_03
 62
252
420
10526884
370
-1
 48
1.0
  6
BYLAYER
100
AcDbHatch
 10
0.0
 20
0.0
 30
0.0
210
0.0
220
0.0
230
1.0
  2
SOLID
 70
1
 71
0
 91
1
 92
1
 93
4
 72
1
 10
1.5
 20
5.0
 11
85.5
 21
5.0
 72
1
 10
85.5
 20
5.0
 11
85.5
 21
1.5
 72
1
 10
85.5
 20
1.5
 11
1.5
 21
1.5
 72
1
 10
1.5
 20
1.5
 11
1.5
 21
5.0
 97
0
 75
0
 76
1
 98
0
1001
ACAD
1010
0.0
1020
0.0
1030
0
  0
HATCH
  5
113
100
AcDbEntity
  8
Step_04
 62
252
420
10526884
370
-1
 48
1.0
  6
BYLAYER
100
AcDbHatch
 10
0.0
 20
0.0
 30
0.0
210
0.0
220
0.0
230
1.0
  2
SOLID
 70
1
 71
0
 91
1
 92
1
 93
4
 72
1
 10
1.5
 20
5.0
 11
85.5
 21
5.0
 72
1
 10
85.5
 20
5.0
 11
85.5
 21
1.5
 72
1
 10
85.5
 20
1.5
 11
1.5
 21
1.5
 72
1
 10
1.5
 20
1.5
 11
1.5
 21
5.0
 97
0
 75
0
 76
1
 98
0
1001
ACAD
1010
0.0
1020
0.0
1030
0
  0
HATCH
  5
114
100
AcDbEntity
  8
Step_05
 62
252
420
10526884
370
-1
 48
1.0
  6
BYLAYER
100
AcDbHatch
 10
0.0
 20
0.0
 30
0.0
210
0.0
220
0.0
230
1.0
  2
SOLID
 70
1
 71
0
 91
1
 92
1
 93
4
 72
1
 10
1.5
 20
5.0
 11
85.5
 21
5.0
 72
1
 10
85.5
 20
5.0
 11
85.5
 21
1.5
 72
1
 10
85.5
 20
1.5
 11
1.5
 21
1.5
 72
1
 10
1.5
 20
1.5
 11
1.5
 21
5.0
 97
0
 75
0
 76
1
 98
0
1001
ACAD
1010
0.0
1020
0.0
1030
0
  0
HATCH
  5
115
100
AcDbEntity
  8
Step_06a
 62
252
420
10526884
370
-1
 48
1.0
  6
BYLAYER
100
AcDbHatch
 10
0.0
 20
0.0
 30
0.0
210
0.0
220
0.0
230
1.0
  2
SOLID
 70
1
 71
0
 91
1
 92
1
 93
4
 72
1
 10
1.5
 20
5.0
 11
85.5
 21
5.0
 72
1
 10
85.5
 20
5.0
 11
85.5
 21
1.5
 72
1
 10
85.5
 20
1.5
 11
1.5
 21
1.5
 72
1
 10
1.5
 20
1.5
 11
1.5
 21
5.0
 97
0
 75
0
 76
1
 98
0
1001
ACAD
1010
0.0
1020
0.0
1030
0
  0
HATCH
  5
116
100
AcDbEntity
  8
Step_07a
 62
252
420
10526884
370
-1
 48
1.0
  6
BYLAYER
100
AcDbHatch
 10
0.0
 20
0.0
 30
0.0
210
0.0
220
0.0
230
1.0
  2
SOLID
 70
1
 71
0
 91
1
 92
1
 93
4
 72
1
 10
1.5
 20
5.0
 11
85.5
 21
5.0
 72
1
 10
85.5
 20
5.0
 11
85.5
 21
1.5
 72
1
 10
85.5
 20
1.5
 11
1.5
 21
1.5
 72
1
 10
1.5
 20
1.5
 11
1.5
 21
5.0
 97
0
 75
0
 76
1
 98
0
1001
ACAD
1010
0.0
1020
0.0
1030
0
  0
HATCH
  5
117
100
AcDbEntity
  8
Step_07b
 62
252
420
10526884
370
-1
 48
1.0
  6
BYLAYER
100
AcDbHatch
 10
0.0
 20
0.0
 30
0.0
210
0.0
220
0.0
230
1.0
  2
SOLID
 70
1
 71
0
 91
1
 92
1
 93
4
 72
1
 10
1.5
 20
5.0
 11
85.5
 21
5.0
 72
1
 10
85.5
 20
5.0
 11
85.5
 21
1.5
 72
1
 10
85.5
 20
1.5
 11
1.5
 21
1.5
 72
1
 10
1.5
 20
1.5
 11
1.5
 21
5.0
 97
0
 75
0
 76
1
 98
0
1001
ACAD
1010
0.0
1020
0.0
1030
0
  0
IMAGE
  5
118
100
AcDbEntity
  8
Step_02
 62
256
370
-1
 48
1.0
  6
BYLAYER
100
AcDbRasterImage
 90
0
 10
3.7333022018993463
 20
144.4043144057224026
 30
0.0
 11
0.12
 21
0.0
 31
0.0
 12
0.0
 22
0.12
 32
0.0
 13
2.0
 23
5.0
340
119
 70
15
280
0
281
50
282
50
283
0
  0
IMAGE
  5
11A
100
AcDbEntity
  8
Step_02
 62
256
370
-1
 48
1.0
  6
BYLAYER
100
AcDbRasterImage
 90
0
 10
3.7333022018993463
 20
-0.4043144057224106
 30
0.0
 11
0.12
 21
0.0
 31
0.0
 12
-0.0
 22
-0.12
 32
0.0
 13
2.0
 23
5.0
340
11B
 70
15
280
0
281
50
282
50
283
0
  0
IMAGE
  5
11C
100
AcDbEntity
  8
Step_02
 62
256
370
-1
 48
1.0
  6
BYLAYER
100
AcDbRasterImage
 90
0
 10
14.7329912785984636
 20
144.4870200037551058
 30
0.0
 11
0.12
 21
0.0
 31
0.0
 12
0.0
 22
0.12
 32
0.0
 13
2.0
 23
5.0
340
11D
 70
15
280
0
281
50
282
50
283
0
  0
IMAGE
  5
11E
100
AcDbEntity
  8
Step_02
 62
256
370
-1
 48
1.0
  6
BYLAYER
100
AcDbRasterImage
 90
0
 10
14.7329912785984654
 20
-0.4870200037551184
 30
0.0
 11
0.12
 21
0.0
 31
0.0
 12
-0.0
 22
-0.12
 32
0.0
 13
2.0
 23
5.0
340
11F
 70
15
280
0
281
50
282
50
283
0
  0
IMAGE
  5
120
100
AcDbEntity
  8
Step_02
 62
256
370
-1
 48
1.0
  6
BYLAYER
100
AcDbRasterImage
 90
0
 10
25.7326803552976102
 20
144.5697256017877521
 30
0.0
 11
0.12
 21
0.0
 31
0.0
 12
0.0
 22
0.12
 32
0.0
 13
2.0
 23
5.0
340
121
 70
15
280
0
281
50
282
50
283
0
  0
IMAGE
  5
122
100
AcDbEntity
  8
Step_02
 62
256
370
-1
 48
1.0
  6
BYLAYER
100
AcDbRasterImage
 90
0
 10
25.7326803552976031
 20
-0.5697256017877219
 30
0.0
 11
0.12
 21
0.0
 31
0.0
 12
-0.0
 22
-0.12
 32
0.0
 13
2.0
 23
5.0
340
123
 70
15
280
0
281
50
282
50
283
0
  0
IMAGE
  5
124
100
AcDbEntity
  8
Step_02
 62
256
370
-1
 48
1.0
  6
BYLAYER
100
AcDbRasterImage
 90
0
 10
36.7323694319967373
 20
144.6524311998204269
 30
0.0
 11
0.12
 21
0.0
 31
0.0
 12
0.0
 22
0.12
 32
0.0
 13
2.0
 23
5.0
340
125
 70
15
280
0
281
50
282
50
283
0
  0
IMAGE
  5
126
100
AcDbEntity
  8
Step_02
 62
256
370
-1
 48
1.0
  6
BYLAYER
100
AcDbRasterImage
 90
0
 10
36.7323694319967302
 20
-0.6524311998204222
 30
0.0
 11
0.12
 21
0.0
 31
0.0
 12
-0.0
 22
-0.12
 32
0.0
 13
2.0
 23
5.0
340
127
 70
15
280
0
281
50
282
50
283
0
  0
IMAGE
  5
128
100
AcDbEntity
  8
Step_02
 62
256
370
-1
 48
1.0
  6
BYLAYER
100
AcDbRasterImage
 90
0
 10
47.7320585086958644
 20
144.73513679785313
 30
0.0
 11
0.12
 21
0.0
 31
0.0
 12
0.0
 22
0.12
 32
0.0
 13
2.0
 23
5.0
340
129
 70
15
280
0
281
50
282
50
283
0
  0
IMAGE
  5
12A
100
AcDbEntity
  8
Step_02
 62
256
370
-1
 48
1.0
  6
BYLAYER
100
AcDbRasterImage
 90
0
 10
47.7320585086958573
 20
-0.7351367978531698
 30
0.0
 11
0.12
 21
0.0
 31
0.0
 12
-0.0
 22
-0.12
 32
0.0
 13
2.0
 23
5.0
340
12B
 70
15
280
0
281
50
282
50
283
0
  0
IMAGE
  5
12C
100
AcDbEntity
  8
Step_02
 62
256
370
-1
 48
1.0
  6
BYLAYER
100
AcDbRasterImage
 90
0
 10
58.7317475853949773
 20
144.8178423958858332
 30
0.0
 11
0.12
 21
0.0
 31
0.0
 12
0.0
 22
0.12
 32
0.0
 13
2.0
 23
5.0
340
12D
 70
15
280
0
281
50
282
50
283
0
  0
IMAGE
  5
12E
100
AcDbEntity
  8
Step_02
 62
256
370
-1
 48
1.0
  6
BYLAYER
100
AcDbRasterImage
 90
0
 10
58.7317475853949773
 20
-0.8178423958858954
 30
0.0
 11
0.12
 21
0.0
 31
0.0
 12
-0.0
 22
-0.12
 32
0.0
 13
2.0
 23
5.0
340
12F
 70
15
280
0
281
50
282
50
283
0
  0
IMAGE
  5
130
100
AcDbEntity
  8
Step_02
 62
256
370
-1
 48
1.0
  6
BYLAYER
100
AcDbRasterImage
 90
0
 10
69.7314366620940973
 20
144.9005479939185079
 30
0.0
 11
0.12
 21
0.0
 31
0.0
 12
0.0
 22
0.12
 32
0.0
 13
2.0
 23
5.0
340
131
 70
15
280
0
281
50
282
50
283
0
  0
IMAGE
  5
132
100
AcDbEntity
  8
Step_02
 62
256
370
-1
 48
1.0
  6
BYLAYER
100
AcDbRasterImage
 90
0
 10
69.7314366620940973
 20
-0.9005479939182606
 30
0.0
 11
0.12
 21
0.0
 31
0.0
 12
-0.0
 22
-0.12
 32
0.0
 13
2.0
 23
5.0
340
133
 70
15
280
0
281
50
282
50
283
0
  0
IMAGE
  5
134
100
AcDbEntity
  8
Step_02
 62
256
370
-1
 48
1.0
  6
BYLAYER
100
AcDbRasterImage
 90
0
 10
80.7311257387932102
 20
144.9832535919512679
 30
0.0
 11
0.12
 21
0.0
 31
0.0
 12
0.0
 22
0.12
 32
0.0
 13
2.0
 23
5.0
340
135
 70
15
280
0
281
50
282
50
283
0
  0
IMAGE
  5
136
100
AcDbEntity
  8
Step_02
 62
256
370
-1
 48
1.0
  6
BYLAYER
100
AcDbRasterImage
 90
0
 10
80.7311257387932102
 20
-0.9832535919509338
 30
0.0
 11
0.12
 21
0.0
 31
0.0
 12
-0.0
 22
-0.12
 32
0.0
 13
2.0
 23
5.0
340
137
 70
15
280
0
281
50
282
50
283
0
  0
IMAGE
  5
138
100
AcDbEntity
  8
Step_02
 62
256
370
-1
 48
1.0
  6
BYLAYER
100
AcDbRasterImage
 90
0
 10
-0.1737829511111111
 20
138.4572312592592311
 30
0.0
 11
0.0
 21
0.12
 31
0.0
 12
-0.12
 22
0.0
 32
0.0
 13
2.0
 23
5.0
340
139
 70
15
280
0
281
50
282
50
283
0
  0
IMAGE
  5
13A
100
AcDbEntity
  8
Step_02
 62
256
370
-1
 48
1.0
  6
BYLAYER
100
AcDbRasterImage
 90
0
 10
-0.1368565834863829
 20
140.8020556034303468
 30
0.0
 11
0.0
 21
0.12
 31
0.0
 12
-0.12
 22
0.0
 32
0.0
 13
2.0
 23
5.0
340
13B
 70
15
280
0
281
50
282
50
283
0
  0
IMAGE
  5
13C
100
AcDbEntity
  8
Step_02
 62
256
370
-1
 48
1.0
  6
BYLAYER
100
AcDbRasterImage
 90
0
 10
-0.1737829511111152
 20
5.5427687407407618
 30
0.0
 11
-0.0
 21
-0.12
 31
0.0
 12
-0.12
 22
0.0
 32
0.0
 13
2.0
 23
5.0
340
13D
 70
15
280
0
281
50
282
50
283
0
  0
IMAGE
  5
13E
100
AcDbEntity
  8
Step_02
 62
256
370
-1
 48
1.0
  6
BYLAYER
100
AcDbRasterImage
 90
0
 10
-0.1368565834863846
 20
3.1979443965696461
 30
0.0
 11
-0.0
 21
-0.12
 31
0.0
 12
-0.12
 22
0.0
 32
0.0
 13
2.0
 23
5.0
340
13F
 70
15
280
0
281
50
282
50
283
0
  0
IMAGE
  5
140
100
AcDbEntity
  8
Step_02
 62
256
370
-1
 48
1.0
  6
BYLAYER
100
AcDbRasterImage
 90
0
 10
87.225844478789071
 20
138.2975484791907093
 30
0.0
 11
0.0
 21
0.12
 31
0.0
 12
0.12
 22
-0.0
 32
0.0
 13
2.0
 23
5.0
340
141
 70
15
280
0
281
50
282
50
283
0
  0
IMAGE
  5
142
100
AcDbEntity
  8
Step_02
 62
256
370
-1
 48
1.0
  6
BYLAYER
100
AcDbRasterImage
 90
0
 10
87.2035091882737987
 20
140.5736897795797802
 30
0.0
 11
0.0
 21
0.12
 31
0.0
 12
0.12
 22
-0.0
 32
0.0
 13
2.0
 23
5.0
340
143
 70
15
280
0
281
50
282
50
283
0
  0
IMAGE
  5
144
100
AcDbEntity
  8
Step_02
 62
256
370
-1
 48
1.0
  6
BYLAYER
100
AcDbRasterImage
 90
0
 10
87.225844478789071
 20
5.7024515208092179
 30
0.0
 11
-0.0
 21
-0.12
 31
0.0
 12
0.12
 22
0.0
 32
0.0
 13
2.0
 23
5.0
340
145
 70
15
280
0
281
50
282
50
283
0
  0
IMAGE
  5
146
100
AcDbEntity
  8
Step_02
 62
256
370
-1
 48
1.0
  6
BYLAYER
100
AcDbRasterImage
 90
0
 10
87.2035091882737987
 20
3.4263102204204108
 30
0.0
 11
-0.0
 21
-0.12
 31
0.0
 12
0.12
 22
0.0
 32
0.0
 13
2.0
 23
5.0
340
147
 70
15
280
0
281
50
282
50
283
0
  0
HATCH
  5
148
100
AcDbEntity
  8
Step_03
 62
256
370
-1
 48
1.0
  6
BYLAYER
100
AcDbHatch
 10
0.0
 20
0.0
 30
0.0
210
0.0
220
0.0
230
1.0
  2
SOLID
 70
1
 71
0
 91
1
 92
1
 93
4
 72
1
 10
85.5
 20
23.25
 11
1.5
 21
23.25
 72
1
 10
1.5
 20
23.25
 11
1.5
 21
24.75
 72
1
 10
1.5
 20
24.75
 11
85.5
 21
24.75
 72
1
 10
85.5
 20
24.75
 11
85.5
 21
23.25
 97
0
 75
0
 76
1
 98
0
1001
ACAD
1010
0.0
1020
0.0
1030
0
  0
HATCH
  5
149
100
AcDbEntity
  8
Step_03
 62
256
370
-1
 48
1.0
  6
BYLAYER
100
AcDbHatch
 10
0.0
 20
0.0
 30
0.0
210
0.0
220
0.0
230
1.0
  2
SOLID
 70
1
 71
0
 91
1
 92
1
 93
4
 72
1
 10
85.5
 20
47.25
 11
1.5
 21
47.25
 72
1
 10
1.5
 20
47.25
 11
1.5
 21
48.75
 72
1
 10
1.5
 20
48.75
 11
85.5
 21
48.75
 72
1
 10
85.5
 20
48.75
 11
85.5
 21
47.25
 97
0
 75
0
 76
1
 98
0
1001
ACAD
1010
0.0
1020
0.0
1030
0
  0
HATCH
  5
14A
100
AcDbEntity
  8
Step_03
 62
256
370
-1
 48
1.0
  6
BYLAYER
100
AcDbHatch
 10
0.0
 20
0.0
 30
0.0
210
0.0
220
0.0
230
1.0
  2
SOLID
 70
1
 71
0
 91
1
 92
1
 93
4
 72
1
 10
85.5
 20
71.25
 11
1.5
 21
71.25
 72
1
 10
1.5
 20
71.25
 11
1.5
 21
72.75
 72
1
 10
1.5
 20
72.75
 11
85.5
 21
72.75
 72
1
 10
85.5
 20
72.75
 11
85.5
 21
71.25
 97
0
 75
0
 76
1
 98
0
1001
ACAD
1010
0.0
1020
0.0
1030
0
  0
HATCH
  5
14B
100
AcDbEntity
  8
Step_03
 62
256
370
-1
 48
1.0
  6
BYLAYER
100
AcDbHatch
 10
0.0
 20
0.0
 30
0.0
210
0.0
220
0.0
230
1.0
  2
SOLID
 70
1
 71
0
 91
1
 92
1
 93
4
 72
1
 10
85.5
 20
95.25
 11
1.5
 21
95.25
 72
1
 10
1.5
 20
95.25
 11
1.5
 21
96.75
 72
1
 10
1.5
 20
96.75
 11
85.5
 21
96.75
 72
1
 10
85.5
 20
96.75
 11
85.5
 21
95.25
 97
0
 75
0
 76
1
 98
0
1001
ACAD
1010
0.0
1020
0.0
1030
0
  0
HATCH
  5
14C
100
AcDbEntity
  8
Step_03
 62
256
370
-1
 48
1.0
  6
BYLAYER
100
AcDbHatch
 10
0.0
 20
0.0
 30
0.0
210
0.0
220
0.0
230
1.0
  2
SOLID
 70
1
 71
0
 91
1
 92
1
 93
4
 72
1
 10
85.5
 20
119.25
 11
1.5
 21
119.25
 72
1
 10
1.5
 20
119.25
 11
1.5
 21
120.75
 72
1
 10
1.5
 20
120.75
 11
85.5
 21
120.75
 72
1
 10
85.5
 20
120.75
 11
85.5
 21
119.25
 97
0
 75
0
 76
1
 98
0
1001
ACAD
1010
0.0
1020
0.0
1030
0
  0
HATCH
  5
14D
100
AcDbEntity
  8
Step_04
 62
252
420
10526884
370
-1
 48
1.0
  6
BYLAYER
100
AcDbHatch
 10
0.0
 20
0.0
 30
0.0
210
0.0
220
0.0
230
1.0
  2
SOLID
 70
1
 71
0
 91
1
 92
1
 93
4
 72
1
 10
85.5
 20
119.25
 11
1.5
 21
119.25
 72
1
 10
1.5
 20
119.25
 11
1.5
 21
120.75
 72
1
 10
1.5
 20
120.75
 11
85.5
 21
120.75
 72
1
 10
85.5
 20
120.75
 11
85.5
 21
119.25
 97
0
 75
0
 76
1
 98
0
1001
ACAD
1010
0.0
1020
0.0
1030
0
  0
HATCH
  5
14E
100
AcDbEntity
  8
Step_04
 62
252
420
10526884
370
-1
 48
1.0
  6
BYLAYER
100
AcDbHatch
 10
0.0
 20
0.0
 30
0.0
210
0.0
220
0.0
230
1.0
  2
SOLID
 70
1
 71
0
 91
1
 92
1
 93
4
 72
1
 10
85.5
 20
95.25
 11
1.5
 21
95.25
 72
1
 10
1.5
 20
95.25
 11
1.5
 21
96.75
 72
1
 10
1.5
 20
96.75
 11
85.5
 21
96.75
 72
1
 10
85.5
 20
96.75
 11
85.5
 21
95.25
 97
0
 75
0
 76
1
 98
0
1001
ACAD
1010
0.0
1020
0.0
1030
0
  0
HATCH
  5
14F
100
AcDbEntity
  8
Step_04
 62
252
420
10526884
370
-1
 48
1.0
  6
BYLAYER
100
AcDbHatch
 10
0.0
 20
0.0
 30
0.0
210
0.0
220
0.0
230
1.0
  2
SOLID
 70
1
 71
0
 91
1
 92
1
 93
4
 72
1
 10
85.5
 20
71.25
 11
1.5
 21
71.25
 72
1
 10
1.5
 20
71.25
 11
1.5
 21
72.75
 72
1
 10
1.5
 20
72.75
 11
85.5
 21
72.75
 72
1
 10
85.5
 20
72.75
 11
85.5
 21
71.25
 97
0
 75
0
 76
1
 98
0
1001
ACAD
1010
0.0
1020
0.0
1030
0
  0
HATCH
  5
150
100
AcDbEntity
  8
Step_04
 62
252
420
10526884
370
-1
 48
1.0
  6
BYLAYER
100
AcDbHatch
 10
0.0
 20
0.0
 30
0.0
210
0.0
220
0.0
230
1.0
  2
SOLID
 70
1
 71
0
 91
1
 92
1
 93
4
 72
1
 10
85.5
 20
47.25
 11
1.5
 21
47.25
 72
1
 10
1.5
 20
47.25
 11
1.5
 21
48.75
 72
1
 10
1.5
 20
48.75
 11
85.5
 21
48.75
 72
1
 10
85.5
 20
48.75
 11
85.5
 21
47.25
 97
0
 75
0
 76
1
 98
0
1001
ACAD
1010
0.0
1020
0.0
1030
0
  0
HATCH
  5
151
100
AcDbEntity
  8
Step_04
 62
252
420
10526884
370
-1
 48
1.0
  6
BYLAYER
100
AcDbHatch
 10
0.0
 20
0.0
 30
0.0
210
0.0
220
0.0
230
1.0
  2
SOLID
 70
1
 71
0
 91
1
 92
1
 93
4
 72
1
 10
85.5
 20
23.25
 11
1.5
 21
23.25
 72
1
 10
1.5
 20
23.25
 11
1.5
 21
24.75
 72
1
 10
1.5
 20
24.75
 11
85.5
 21
24.75
 72
1
 10
85.5
 20
24.75
 11
85.5
 21
23.25
 97
0
 75
0
 76
1
 98
0
1001
ACAD
1010
0.0
1020
0.0
1030
0
  0
HATCH
  5
152
100
AcDbEntity
  8
Step_05
 62
252
420
10526884
370
-1
 48
1.0
  6
BYLAYER
100
AcDbHatch
 10
0.0
 20
0.0
 30
0.0
210
0.0
220
0.0
230
1.0
  2
SOLID
 70
1
 71
0
 91
1
 92
1
 93
4
 72
1
 10
85.5
 20
23.25
 11
1.5
 21
23.25
 72
1
 10
1.5
 20
23.25
 11
1.5
 21
24.75
 72
1
 10
1.5
 20
24.75
 11
85.5
 21
24.75
 72
1
 10
85.5
 20
24.75
 11
85.5
 21
23.25
 97
0
 75
0
 76
1
 98
0
1001
ACAD
1010
0.0
1020
0.0
1030
0
  0
HATCH
  5
153
100
AcDbEntity
  8
Step_05
 62
252
420
10526884
370
-1
 48
1.0
  6
BYLAYER
100
AcDbHatch
 10
0.0
 20
0.0
 30
0.0
210
0.0
220
0.0
230
1.0
  2
SOLID
 70
1
 71
0
 91
1
 92
1
 93
4
 72
1
 10
85.5
 20
47.25
 11
1.5
 21
47.25
 72
1
 10
1.5
 20
47.25
 11
1.5
 21
48.75
 72
1
 10
1.5
 20
48.75
 11
85.5
 21
48.75
 72
1
 10
85.5
 20
48.75
 11
85.5
 21
47.25
 97
0
 75
0
 76
1
 98
0
1001
ACAD
1010
0.0
1020
0.0
1030
0
  0
HATCH
  5
154
100
AcDbEntity
  8
Step_05
 62
252
420
10526884
370
-1
 48
1.0
  6
BYLAYER
100
AcDbHatch
 10
0.0
 20
0.0
 30
0.0
210
0.0
220
0.0
230
1.0
  2
SOLID
 70
1
 71
0
 91
1
 92
1
 93
4
 72
1
 10
85.5
 20
71.25
 11
1.5
 21
71.25
 72
1
 10
1.5
 20
71.25
 11
1.5
 21
72.75
 72
1
 10
1.5
 20
72.75
 11
85.5
 21
72.75
 72
1
 10
85.5
 20
72.75
 11
85.5
 21
71.25
 97
0
 75
0
 76
1
 98
0
1001
ACAD
1010
0.0
1020
0.0
1030
0
  0
HATCH
  5
155
100
AcDbEntity
  8
Step_05
 62
252
420
10526884
370
-1
 48
1.0
  6
BYLAYER
100
AcDbHatch
 10
0.0
 20
0.0
 30
0.0
210
0.0
220
0.0
230
1.0
  2
SOLID
 70
1
 71
0
 91
1
 92
1
 93
4
 72
1
 10
85.5
 20
95.25
 11
1.5
 21
95.25
 72
1
 10
1.5
 20
95.25
 11
1.5
 21
96.75
 72
1
 10
1.5
 20
96.75
 11
85.5
 21
96.75
 72
1
 10
85.5
 20
96.75
 11
85.5
 21
95.25
 97
0
 75
0
 76
1
 98
0
1001
ACAD
1010
0.0
1020
0.0
1030
0
  0
HATCH
  5
156
100
AcDbEntity
  8
Step_05
 62
252
420
10526884
370
-1
 48
1.0
  6
BYLAYER
100
AcDbHatch
 10
0.0
 20
0.0
 30
0.0
210
0.0
220
0.0
230
1.0
  2
SOLID
 70
1
 71
0
 91
1
 92
1
 93
4
 72
1
 10
85.5
 20
119.25
 11
1.5
 21
119.25
 72
1
 10
1.5
 20
119.25
 11
1.5
 21
120.75
 72
1
 10
1.5
 20
120.75
 11
85.5
 21
120.75
 72
1
 10
85.5
 20
120.75
 11
85.5
 21
119.25
 97
0
 75
0
 76
1
 98
0
1001
ACAD
1010
0.0
1020
0.0
1030
0
  0
HATCH
  5
157
100
AcDbEntity
  8
Step_06a
 62
252
420
10526884
370
-1
 48
1.0
  6
BYLAYER
100
AcDbHatch
 10
0.0
 20
0.0
 30
0.0
210
0.0
220
0.0
230
1.0
  2
SOLID
 70
1
 71
0
 91
1
 92
1
 93
4
 72
1
 10
85.5
 20
71.25
 11
1.5
 21
71.25
 72
1
 10
1.5
 20
71.25
 11
1.5
 21
72.75
 72
1
 10
1.5
 20
72.75
 11
85.5
 21
72.75
 72
1
 10
85.5
 20
72.75
 11
85.5
 21
71.25
 97
0
 75
0
 76
1
 98
0
1001
ACAD
1010
0.0
1020
0.0
1030
0
  0
HATCH
  5
158
100
AcDbEntity
  8
Step_06b
 62
252
420
10526884
370
-1
 48
1.0
  6
BYLAYER
100
AcDbHatch
 10
0.0
 20
0.0
 30
0.0
210
0.0
220
0.0
230
1.0
  2
SOLID
 70
1
 71
0
 91
1
 92
1
 93
4
 72
1
 10
85.5
 20
71.25
 11
1.5
 21
71.25
 72
1
 10
1.5
 20
71.25
 11
1.5
 21
72.75
 72
1
 10
1.5
 20
72.75
 11
85.5
 21
72.75
 72
1
 10
85.5
 20
72.75
 11
85.5
 21
71.25
 97
0
 75
0
 76
1
 98
0
1001
ACAD
1010
0.0
1020
0.0
1030
0
  0
HATCH
  5
159
100
AcDbEntity
  8
Step_06a
 62
252
420
10526884
370
-1
 48
1.0
  6
BYLAYER
100
AcDbHatch
 10
0.0
 20
0.0
 30
0.0
210
0.0
220
0.0
230
1.0
  2
SOLID
 70
1
 71
0
 91
1
 92
1
 93
4
 72
1
 10
85.5
 20
119.25
 11
1.5
 21
119.25
 72
1
 10
1.5
 20
119.25
 11
1.5
 21
120.75
 72
1
 10
1.5
 20
120.75
 11
85.5
 21
120.75
 72
1
 10
85.5
 20
120.75
 11
85.5
 21
119.25
 97
0
 75
0
 76
1
 98
0
1001
ACAD
1010
0.0
1020
0.0
1030
0
  0
HATCH
  5
15A
100
AcDbEntity
  8
Step_06b
 62
252
420
10526884
370
-1
 48
1.0
  6
BYLAYER
100
AcDbHatch
 10
0.0
 20
0.0
 30
0.0
210
0.0
220
0.0
230
1.0
  2
SOLID
 70
1
 71
0
 91
1
 92
1
 93
4
 72
1
 10
85.5
 20
119.25
 11
1.5
 21
119.25
 72
1
 10
1.5
 20
119.25
 11
1.5
 21
120.75
 72
1
 10
1.5
 20
120.75
 11
85.5
 21
120.75
 72
1
 10
85.5
 20
120.75
 11
85.5
 21
119.25
 97
0
 75
0
 76
1
 98
0
1001
ACAD
1010
0.0
1020
0.0
1030
0
  0
HATCH
  5
15B
100
AcDbEntity
  8
Step_06a
 62
252
420
10526884
370
-1
 48
1.0
  6
BYLAYER
100
AcDbHatch
 10
0.0
 20
0.0
 30
0.0
210
0.0
220
0.0
230
1.0
  2
SOLID
 70
1
 71
0
 91
1
 92
1
 93
4
 72
1
 10
85.5
 20
47.25
 11
1.5
 21
47.25
 72
1
 10
1.5
 20
47.25
 11
1.5
 21
48.75
 72
1
 10
1.5
 20
48.75
 11
85.5
 21
48.75
 72
1
 10
85.5
 20
48.75
 11
85.5
 21
47.25
 97
0
 75
0
 76
1
 98
0
1001
ACAD
1010
0.0
1020
0.0
1030
0
  0
HATCH
  5
15C
100
AcDbEntity
  8
Step_06b
 62
252
420
10526884
370
-1
 48
1.0
  6
BYLAYER
100
AcDbHatch
 10
0.0
 20
0.0
 30
0.0
210
0.0
220
0.0
230
1.0
  2
SOLID
 70
1
 71
0
 91
1
 92
1
 93
4
 72
1
 10
85.5
 20
47.25
 11
1.5
 21
47.25
 72
1
 10
1.5
 20
47.25
 11
1.5
 21
48.75
 72
1
 10
1.5
 20
48.75
 11
85.5
 21
48.75
 72
1
 10
85.5
 20
48.75
 11
85.5
 21
47.25
 97
0
 75
0
 76
1
 98
0
1001
ACAD
1010
0.0
1020
0.0
1030
0
  0
HATCH
  5
15D
100
AcDbEntity
  8
Step_06a
 62
252
420
10526884
370
-1
 48
1.0
  6
BYLAYER
100
AcDbHatch
 10
0.0
 20
0.0
 30
0.0
210
0.0
220
0.0
230
1.0
  2
SOLID
 70
1
 71
0
 91
1
 92
1
 93
4
 72
1
 10
85.5
 20
95.25
 11
1.5
 21
95.25
 72
1
 10
1.5
 20
95.25
 11
1.5
 21
96.75
 72
1
 10
1.5
 20
96.75
 11
85.5
 21
96.75
 72
1
 10
85.5
 20
96.75
 11
85.5
 21
95.25
 97
0
 75
0
 76
1
 98
0
1001
ACAD
1010
0.0
1020
0.0
1030
0
  0
HATCH
  5
15E
100
AcDbEntity
  8
Step_06b
 62
252
420
10526884
370
-1
 48
1.0
  6
BYLAYER
100
AcDbHatch
 10
0.0
 20
0.0
 30
0.0
210
0.0
220
0.0
230
1.0
  2
SOLID
 70
1
 71
0
 91
1
 92
1
 93
4
 72
1
 10
85.5
 20
95.25
 11
1.5
 21
95.25
 72
1
 10
1.5
 20
95.25
 11
1.5
 21
96.75
 72
1
 10
1.5
 20
96.75
 11
85.5
 21
96.75
 72
1
 10
85.5
 20
96.75
 11
85.5
 21
95.25
 97
0
 75
0
 76
1
 98
0
1001
ACAD
1010
0.0
1020
0.0
1030
0
  0
HATCH
  5
15F
100
AcDbEntity
  8
Step_06b
 62
252
420
10526884
370
-1
 48
1.0
  6
BYLAYER
100
AcDbHatch
 10
0.0
 20
0.0
 30
0.0
210
0.0
220
0.0
230
1.0
  2
SOLID
 70
1
 71
0
 91
1
 92
1
 93
4
 72
1
 10
85.5
 20
0.0
 11
1.5
 21
0.0
 72
1
 10
1.5
 20
0.0
 11
1.5
 21
1.5
 72
1
 10
1.5
 20
1.5
 11
85.5
 21
1.5
 72
1
 10
85.5
 20
1.5
 11
85.5
 21
0.0
 97
0
 75
0
 76
1
 98
0
1001
ACAD
1010
0.0
1020
0.0
1030
0
  0
HATCH
  5
160
100
AcDbEntity
  8
Step_06a
 62
252
420
10526884
370
-1
 48
1.0
  6
BYLAYER
100
AcDbHatch
 10
0.0
 20
0.0
 30
0.0
210
0.0
220
0.0
230
1.0
  2
SOLID
 70
1
 71
0
 91
1
 92
1
 93
4
 72
1
 10
85.5
 20
23.25
 11
1.5
 21
23.25
 72
1
 10
1.5
 20
23.25
 11
1.5
 21
24.75
 72
1
 10
1.5
 20
24.75
 11
85.5
 21
24.75
 72
1
 10
85.5
 20
24.75
 11
85.5
 21
23.25
 97
0
 75
0
 76
1
 98
0
1001
ACAD
1010
0.0
1020
0.0
1030
0
  0
HATCH
  5
161
100
AcDbEntity
  8
Step_07a
 62
252
420
10526884
370
-1
 48
1.0
  6
BYLAYER
100
AcDbHatch
 10
0.0
 20
0.0
 30
0.0
210
0.0
220
0.0
230
1.0
  2
SOLID
 70
1
 71
0
 91
1
 92
1
 93
4
 72
1
 10
85.5
 20
95.25
 11
1.5
 21
95.25
 72
1
 10
1.5
 20
95.25
 11
1.5
 21
96.75
 72
1
 10
1.5
 20
96.75
 11
85.5
 21
96.75
 72
1
 10
85.5
 20
96.75
 11
85.5
 21
95.25
 97
0
 75
0
 76
1
 98
0
1001
ACAD
1010
0.0
1020
0.0
1030
0
  0
HATCH
  5
162
100
AcDbEntity
  8
Step_07b
 62
252
420
10526884
370
-1
 48
1.0
  6
BYLAYER
100
AcDbHatch
 10
0.0
 20
0.0
 30
0.0
210
0.0
220
0.0
230
1.0
  2
SOLID
 70
1
 71
0
 91
1
 92
1
 93
4
 72
1
 10
85.5
 20
95.25
 11
1.5
 21
95.25
 72
1
 10
1.5
 20
95.25
 11
1.5
 21
96.75
 72
1
 10
1.5
 20
96.75
 11
85.5
 21
96.75
 72
1
 10
85.5
 20
96.75
 11
85.5
 21
95.25
 97
0
 75
0
 76
1
 98
0
1001
ACAD
1010
0.0
1020
0.0
1030
0
  0
HATCH
  5
163
100
AcDbEntity
  8
Step_07a
 62
252
420
10526884
370
-1
 48
1.0
  6
BYLAYER
100
AcDbHatch
 10
0.0
 20
0.0
 30
0.0
210
0.0
220
0.0
230
1.0
  2
SOLID
 70
1
 71
0
 91
1
 92
1
 93
4
 72
1
 10
85.5
 20
47.25
 11
1.5
 21
47.25
 72
1
 10
1.5
 20
47.25
 11
1.5
 21
48.75
 72
1
 10
1.5
 20
48.75
 11
85.5
 21
48.75
 72
1
 10
85.5
 20
48.75
 11
85.5
 21
47.25
 97
0
 75
0
 76
1
 98
0
1001
ACAD
1010
0.0
1020
0.0
1030
0
  0
HATCH
  5
164
100
AcDbEntity
  8
Step_07b
 62
252
420
10526884
370
-1
 48
1.0
  6
BYLAYER
100
AcDbHatch
 10
0.0
 20
0.0
 30
0.0
210
0.0
220
0.0
230
1.0
  2
SOLID
 70
1
 71
0
 91
1
 92
1
 93
4
 72
1
 10
85.5
 20
47.25
 11
1.5
 21
47.25
 72
1
 10
1.5
 20
47.25
 11
1.5
 21
48.75
 72
1
 10
1.5
 20
48.75
 11
85.5
 21
48.75
 72
1
 10
85.5
 20
48.75
 11
85.5
 21
47.25
 97
0
 75
0
 76
1
 98
0
1001
ACAD
1010
0.0
1020
0.0
1030
0
  0
HATCH
  5
165
100
AcDbEntity
  8
Step_07a
 62
252
420
10526884
370
-1
 48
1.0
  6
BYLAYER
100
AcDbHatch
 10
0.0
 20
0.0
 30
0.0
210
0.0
220
0.0
230
1.0
  2
SOLID
 70
1
 71
0
 91
1
 92
1
 93
4
 72
1
 10
85.5
 20
119.25
 11
1.5
 21
119.25
 72
1
 10
1.5
 20
119.25
 11
1.5
 21
120.75
 72
1
 10
1.5
 20
120.75
 11
85.5
 21
120.75
 72
1
 10
85.5
 20
120.75
 11
85.5
 21
119.25
 97
0
 75
0
 76
1
 98
0
1001
ACAD
1010
0.0
1020
0.0
1030
0
  0
HATCH
  5
166
100
AcDbEntity
  8
Step_07b
 62
252
420
10526884
370
-1
 48
1.0
  6
BYLAYER
100
AcDbHatch
 10
0.0
 20
0.0
 30
0.0
210
0.0
220
0.0
230
1.0
  2
SOLID
 70
1
 71
0
 91
1
 92
1
 93
4
 72
1
 10
85.5
 20
119.25
 11
1.5
 21
119.25
 72
1
 10
1.5
 20
119.25
 11
1.5
 21
120.75
 72
1
 10
1.5
 20
120.75
 11
85.5
 21
120.75
 72
1
 10
85.5
 20
120.75
 11
85.5
 21
119.25
 97
0
 75
0
 76
1
 98
0
1001
ACAD
1010
0.0
1020
0.0
1030
0
  0
HATCH
  5
167
100
AcDbEntity
  8
Step_07a
 62
252
420
10526884
370
-1
 48
1.0
  6
BYLAYER
100
AcDbHatch
 10
0.0
 20
0.0
 30
0.0
210
0.0
220
0.0
230
1.0
  2
SOLID
 70
1
 71
0
 91
1
 92
1
 93
4
 72
1
 10
85.5
 20
71.25
 11
1.5
 21
71.25
 72
1
 10
1.5
 20
71.25
 11
1.5
 21
72.75
 72
1
 10
1.5
 20
72.75
 11
85.5
 21
72.75
 72
1
 10
85.5
 20
72.75
 11
85.5
 21
71.25
 97
0
 75
0
 76
1
 98
0
1001
ACAD
1010
0.0
1020
0.0
1030
0
  0
HATCH
  5
168
100
AcDbEntity
  8
Step_07b
 62
252
420
10526884
370
-1
 48
1.0
  6
BYLAYER
100
AcDbHatch
 10
0.0
 20
0.0
 30
0.0
210
0.0
220
0.0
230
1.0
  2
SOLID
 70
1
 71
0
 91
1
 92
1
 93
4
 72
1
 10
85.5
 20
71.25
 11
1.5
 21
71.25
 72
1
 10
1.5
 20
71.25
 11
1.5
 21
72.75
 72
1
 10
1.5
 20
72.75
 11
85.5
 21
72.75
 72
1
 10
85.5
 20
72.75
 11
85.5
 21
71.25
 97
0
 75
0
 76
1
 98
0
1001
ACAD
1010
0.0
1020
0.0
1030
0
  0
HATCH
  5
169
100
AcDbEntity
  8
Step_07a
 62
252
420
10526884
370
-1
 48
1.0
  6
BYLAYER
100
AcDbHatch
 10
0.0
 20
0.0
 30
0.0
210
0.0
220
0.0
230
1.0
  2
SOLID
 70
1
 71
0
 91
1
 92
1
 93
4
 72
1
 10
85.5
 20
23.25
 11
1.5
 21
23.25
 72
1
 10
1.5
 20
23.25
 11
1.5
 21
24.75
 72
1
 10
1.5
 20
24.75
 11
85.5
 21
24.75
 72
1
 10
85.5
 20
24.75
 11
85.5
 21
23.25
 97
0
 75
0
 76
1
 98
0
1001
ACAD
1010
0.0
1020
0.0
1030
0
  0
HATCH
  5
16A
100
AcDbEntity
  8
Step_07b
 62
252
420
10526884
370
-1
 48
1.0
  6
BYLAYER
100
AcDbHatch
 10
0.0
 20
0.0
 30
0.0
210
0.0
220
0.0
230
1.0
  2
SOLID
 70
1
 71
0
 91
1
 92
1
 93
4
 72
1
 10
85.5
 20
23.25
 11
1.5
 21
23.25
 72
1
 10
1.5
 20
23.25
 11
1.5
 21
24.75
 72
1
 10
1.5
 20
24.75
 11
85.5
 21
24.75
 72
1
 10
85.5
 20
24.75
 11
85.5
 21
23.25
 97
0
 75
0
 76
1
 98
0
1001
ACAD
1010
0.0
1020
0.0
1030
0
  0
LINE
  5
16B
100
AcDbEntity
  8
Step_03
 62
256
370
-1
 48
1.0
  6
BYLAYER
100
AcDbLine
 10
89.0
 20
120.0
 30
0.0
 11
94.0
 21
120.0
 31
0.0
  0
LINE
  5
16C
100
AcDbEntity
  8
Step_03
 62
256
370
-1
 48
1.0
  6
BYLAYER
100
AcDbLine
 10
89.0
 20
96.0
 30
0.0
 11
94.0
 21
96.0
 31
0.0
  0
LINE
  5
16D
100
AcDbEntity
  8
Step_03
 62
256
370
-1
 48
1.0
  6
BYLAYER
100
AcDbLine
 10
89.0
 20
72.0
 30
0.0
 11
94.0
 21
72.0
 31
0.0
  0
LINE
  5
16E
100
AcDbEntity
  8
Step_03
 62
256
370
-1
 48
1.0
  6
BYLAYER
100
AcDbLine
 10
89.0
 20
48.0
 30
0.0
 11
94.0
 21
48.0
 31
0.0
  0
LINE
  5
16F
100
AcDbEntity
  8
Step_03
 62
256
370
-1
 48
1.0
  6
BYLAYER
100
AcDbLine
 10
89.0
 20
24.0
 30
0.0
 11
94.0
 21
24.0
 31
0.0
  0
LINE
  5
170
100
AcDbEntity
  8
Step_03
 62
256
370
-1
 48
1.0
  6
BYLAYER
100
AcDbLine
 10
-2.0000000000000284
 20
24.0000000000000142
 30
0.0
 11
-7.0
 21
24.0000000000000142
 31
0.0
  0
LINE
  5
171
100
AcDbEntity
  8
Step_03
 62
256
370
-1
 48
1.0
  6
BYLAYER
100
AcDbLine
 10
-2.0000000000000284
 20
72.0000000000000142
 30
0.0
 11
-7.0000000000000213
 21
72.0
 31
0.0
  0
LINE
  5
172
100
AcDbEntity
  8
Step_03
 62
256
370
-1
 48
1.0
  6
BYLAYER
100
AcDbLine
 10
-2.0000000000000284
 20
48.0000000000000142
 30
0.0
 11
-7.0000000000000284
 21
48.0
 31
0.0
  0
LINE
  5
173
100
AcDbEntity
  8
Step_03
 62
256
370
-1
 48
1.0
  6
BYLAYER
100
AcDbLine
 10
-2.0000000000000142
 20
96.0
 30
0.0
 11
-7.0000000000000071
 21
96.0
 31
0.0
  0
LINE
  5
174
100
AcDbEntity
  8
Step_03
 62
256
370
-1
 48
1.0
  6
BYLAYER
100
AcDbLine
 10
-2.0
 20
120.0
 30
0.0
 11
-7.0
 21
120.0000000000000142
 31
0.0
  0
IMAGE
  5
175
100
AcDbEntity
  8
Step_03
 62
256
370
-1
 48
1.0
  6
BYLAYER
100
AcDbRasterImage
 90
0
 10
95.0
 20
120.0
 30
0.0
 11
0.15
 21
0.0
 31
0.0
 12
0.0
 22
0.15
 32
0.0
 13
7.0
 23
7.0
340
176
 70
15
280
0
281
50
282
50
283
0
  0
IMAGE
  5
177
100
AcDbEntity
  8
Step_03
 62
256
370
-1
 48
1.0
  6
BYLAYER
100
AcDbRasterImage
 90
0
 10
94.9999999999999858
 20
96.0
 30
0.0
 11
0.15
 21
0.0
 31
0.0
 12
0.0
 22
0.15
 32
0.0
 13
7.0
 23
7.0
340
178
 70
15
280
0
281
50
282
50
283
0
  0
IMAGE
  5
179
100
AcDbEntity
  8
Step_03
 62
256
370
-1
 48
1.0
  6
BYLAYER
100
AcDbRasterImage
 90
0
 10
94.9999999999999858
 20
72.0
 30
0.0
 11
0.15
 21
0.0
 31
0.0
 12
0.0
 22
0.15
 32
0.0
 13
7.0
 23
7.0
340
17A
 70
15
280
0
281
50
282
50
283
0
  0
IMAGE
  5
17B
100
AcDbEntity
  8
Step_03
 62
256
370
-1
 48
1.0
  6
BYLAYER
100
AcDbRasterImage
 90
0
 10
94.9999999999999858
 20
48.0
 30
0.0
 11
0.15
 21
0.0
 31
0.0
 12
0.0
 22
0.15
 32
0.0
 13
7.0
 23
7.0
340
17C
 70
15
280
0
281
50
282
50
283
0
  0
IMAGE
  5
17D
100
AcDbEntity
  8
Step_03
 62
256
370
-1
 48
1.0
  6
BYLAYER
100
AcDbRasterImage
 90
0
 10
94.9999999999999858
 20
24.0
 30
0.0
 11
0.15
 21
0.0
 31
0.0
 12
0.0
 22
0.15
 32
0.0
 13
7.0
 23
7.0
340
17E
 70
15
280
0
281
50
282
50
283
0
  0
IMAGE
  5
17F
100
AcDbEntity
  8
Step_03
 62
256
370
-1
 48
1.0
  6
BYLAYER
100
AcDbRasterImage
 90
0
 10
-7.9999999999999858
 20
23.9999999999999893
 30
0.0
 11
-0.15
 21
0.0
 31
0.0
 12
0.0
 22
0.15
 32
0.0
 13
7.0
 23
7.0
340
180
 70
15
280
0
281
50
282
50
283
0
  0
IMAGE
  5
181
100
AcDbEntity
  8
Step_03
 62
256
370
-1
 48
1.0
  6
BYLAYER
100
AcDbRasterImage
 90
0
 10
-7.9999999999999858
 20
48.0
 30
0.0
 11
-0.15
 21
0.0
 31
0.0
 12
0.0
 22
0.15
 32
0.0
 13
7.0
 23
7.0
340
182
 70
15
280
0
281
50
282
50
283
0
  0
IMAGE
  5
183
100
AcDbEntity
  8
Step_03
 62
256
370
-1
 48
1.0
  6
BYLAYER
100
AcDbRasterImage
 90
0
 10
-8.0000000000000142
 20
96.0000000000000284
 30
0.0
 11
-0.15
 21
0.0
 31
0.0
 12
0.0
 22
0.15
 32
0.0
 13
7.0
 23
7.0
340
184
 70
15
280
0
281
50
282
50
283
0
  0
IMAGE
  5
185
100
AcDbEntity
  8
Step_03
 62
256
370
-1
 48
1.0
  6
BYLAYER
100
AcDbRasterImage
 90
0
 10
-7.9999999999999716
 20
72.0
 30
0.0
 11
-0.15
 21
0.0
 31
0.0
 12
0.0
 22
0.15
 32
0.0
 13
7.0
 23
7.0
340
186
 70
15
280
0
281
50
282
50
283
0
  0
IMAGE
  5
187
100
AcDbEntity
  8
Step_03
 62
256
370
-1
 48
1.0
  6
BYLAYER
100
AcDbRasterImage
 90
0
 10
-7.9999999999999929
 20
120.0
 30
0.0
 11
-0.15
 21
0.0
 31
0.0
 12
0.0
 22
0.15
 32
0.0
 13
7.0
 23
7.0
340
188
 70
15
280
0
281
50
282
50
283
0
  0
MTEXT
  5
189
100
AcDbEntity
  8
Step_04
 62
256
370
-1
 48
1.0
  6
BYLAYER
100
AcDbMText
 10
14.4601857927481277
 20
16.7516906451508305
 30
0.0
 40
3.0
 41
0.0
 71
1
 72
1
  1
Final QC before Tyvek
  7
textstyle49
 50
0.0
 73
2
 44
1.0
  0
LINE
  5
18A
100
AcDbEntity
  8
0_Framing
 62
256
370
-1
 48
1.0
  6
BYLAYER
100
AcDbLine
 10
0.0
 20
0.0
 30
0.0
 11
0.0
 21
144.0
 31
0.0
  0
LINE
  5
18B
100
AcDbEntity
  8
0_Framing
 62
256
370
-1
 48
1.0
  6
BYLAYER
100
AcDbLine
 10
85.5
 20
0.0
 30
0.0
 11
85.5
 21
144.0
 31
0.0
  0
LINE
  5
18C
100
AcDbEntity
  8
0_Framing
 62
256
370
-1
 48
1.0
  6
BYLAYER
100
AcDbLine
 10
0.0
 20
144.0
 30
0.0
 11
1.5
 21
144.0
 31
0.0
  0
LINE
  5
18D
100
AcDbEntity
  8
0_Framing
 62
256
370
-1
 48
1.0
  6
BYLAYER
100
AcDbLine
 10
85.5
 20
144.0
 30
0.0
 11
87.0
 21
144.0
 31
0.0
  0
LINE
  5
18E
100
AcDbEntity
  8
0_Framing
 62
256
370
-1
 48
1.0
  6
BYLAYER
100
AcDbLine
 10
1.5
 20
144.0
 30
0.0
 11
1.5
 21
0.0
 31
0.0
  0
LINE
  5
18F
100
AcDbEntity
  8
0_Framing
 62
256
370
-1
 48
1.0
  6
BYLAYER
100
AcDbLine
 10
87.0
 20
144.0
 30
0.0
 11
87.0
 21
0.0
 31
0.0
  0
LINE
  5
190
100
AcDbEntity
  8
0_Framing
 62
256
370
-1
 48
1.0
  6
BYLAYER
100
AcDbLine
 10
1.5
 20
0.0
 30
0.0
 11
0.0
 21
0.0
 31
0.0
  0
LINE
  5
191
100
AcDbEntity
  8
0_Framing
 62
256
370
-1
 48
1.0
  6
BYLAYER
100
AcDbLine
 10
87.0
 20
0.0
 30
0.0
 11
85.5
 21
0.0
 31
0.0
  0
LINE
  5
192
100
AcDbEntity
  8
0_Framing
 62
256
370
-1
 48
1.0
  6
BYLAYER
100
AcDbLine
 10
1.5
 20
-0.0
 30
0.0
 11
1.5
 21
1.5
 31
0.0
  0
LINE
  5
193
100
AcDbEntity
  8
0_Framing
 62
256
370
-1
 48
1.0
  6
BYLAYER
100
AcDbLine
 10
1.5
 20
23.25
 30
0.0
 11
1.5
 21
24.75
 31
0.0
  0
LINE
  5
194
100
AcDbEntity
  8
0_Framing
 62
256
370
-1
 48
1.0
  6
BYLAYER
100
AcDbLine
 10
1.5
 20
47.25
 30
0.0
 11
1.5
 21
48.75
 31
0.0
  0
LINE
  5
195
100
AcDbEntity
  8
0_Framing
 62
256
370
-1
 48
1.0
  6
BYLAYER
100
AcDbLine
 10
1.5
 20
71.25
 30
0.0
 11
1.5
 21
72.75
 31
0.0
  0
LINE
  5
196
100
AcDbEntity
  8
0_Framing
 62
256
370
-1
 48
1.0
  6
BYLAYER
100
AcDbLine
 10
1.5
 20
95.25
 30
0.0
 11
1.5
 21
96.75
 31
0.0
  0
LINE
  5
197
100
AcDbEntity
  8
0_Framing
 62
256
370
-1
 48
1.0
  6
BYLAYER
100
AcDbLine
 10
1.5
 20
119.25
 30
0.0
 11
1.5
 21
120.75
 31
0.0
  0
LINE
  5
198
100
AcDbEntity
  8
0_Framing
 62
256
370
-1
 48
1.0
  6
BYLAYER
100
AcDbLine
 10
1.5
 20
142.5
 30
0.0
 11
1.5
 21
144.0
 31
0.0
  0
LINE
  5
199
100
AcDbEntity
  8
0_Framing
 62
256
370
-1
 48
1.0
  6
BYLAYER
100
AcDbLine
 10
1.5
 20
24.75
 30
0.0
 11
85.5
 21
24.75
 31
0.0
  0
LINE
  5
19A
100
AcDbEntity
  8
0_Framing
 62
256
370
-1
 48
1.0
  6
BYLAYER
100
AcDbLine
 10
1.5
 20
48.75
 30
0.0
 11
85.5
 21
48.75
 31
0.0
  0
LINE
  5
19B
100
AcDbEntity
  8
0_Framing
 62
256
370
-1
 48
1.0
  6
BYLAYER
100
AcDbLine
 10
1.5
 20
72.75
 30
0.0
 11
85.5
 21
72.75
 31
0.0
  0
LINE
  5
19C
100
AcDbEntity
  8
0_Framing
 62
256
370
-1
 48
1.0
  6
BYLAYER
100
AcDbLine
 10
1.5
 20
96.75
 30
0.0
 11
85.5
 21
96.75
 31
0.0
  0
LINE
  5
19D
100
AcDbEntity
  8
0_Framing
 62
256
370
-1
 48
1.0
  6
BYLAYER
100
AcDbLine
 10
1.5
 20
120.75
 30
0.0
 11
85.5
 21
120.75
 31
0.0
  0
LINE
  5
19E
100
AcDbEntity
  8
0_Framing
 62
256
370
-1
 48
1.0
  6
BYLAYER
100
AcDbLine
 10
1.5
 20
139.0
 30
0.0
 11
85.5
 21
139.0
 31
0.0
  0
LINE
  5
19F
100
AcDbEntity
  8
0_Framing
 62
256
370
-1
 48
1.0
  6
BYLAYER
100
AcDbLine
 10
85.5
 20
1.5
 30
0.0
 11
85.5
 21
0.0
 31
0.0
  0
LINE
  5
1A0
100
AcDbEntity
  8
0_Framing
 62
256
370
-1
 48
1.0
  6
BYLAYER
100
AcDbLine
 10
85.5
 20
24.75
 30
0.0
 11
85.5
 21
23.25
 31
0.0
  0
LINE
  5
1A1
100
AcDbEntity
  8
0_Framing
 62
256
370
-1
 48
1.0
  6
BYLAYER
100
AcDbLine
 10
85.5
 20
48.75
 30
0.0
 11
85.5
 21
47.25
 31
0.0
  0
LINE
  5
1A2
100
AcDbEntity
  8
0_Framing
 62
256
370
-1
 48
1.0
  6
BYLAYER
100
AcDbLine
 10
85.5
 20
72.75
 30
0.0
 11
85.5
 21
71.25
 31
0.0
  0
LINE
  5
1A3
100
AcDbEntity
  8
0_Framing
 62
256
370
-1
 48
1.0
  6
BYLAYER
100
AcDbLine
 10
85.5
 20
96.75
 30
0.0
 11
85.5
 21
95.25
 31
0.0
  0
LINE
  5
1A4
100
AcDbEntity
  8
0_Framing
 62
256
370
-1
 48
1.0
  6
BYLAYER
100
AcDbLine
 10
85.5
 20
120.75
 30
0.0
 11
85.5
 21
119.25
 31
0.0
  0
LINE
  5
1A5
100
AcDbEntity
  8
0_Framing
 62
256
370
-1
 48
1.0
  6
BYLAYER
100
AcDbLine
 10
85.5
 20
144.0
 30
0.0
 11
85.5
 21
142.5
 31
0.0
  0
LINE
  5
1A6
100
AcDbEntity
  8
0_Framing
 62
256
370
-1
 48
1.0
  6
BYLAYER
100
AcDbLine
 10
85.5
 20
0.0
 30
0.0
 11
1.5
 21
0.0
 31
0.0
  0
LINE
  5
1A7
100
AcDbEntity
  8
0_Framing
 62
256
370
-1
 48
1.0
  6
BYLAYER
100
AcDbLine
 10
85.5
 20
23.25
 30
0.0
 11
1.5
 21
23.25
 31
0.0
  0
LINE
  5
1A8
100
AcDbEntity
  8
0_Framing
 62
256
370
-1
 48
1.0
  6
BYLAYER
100
AcDbLine
 10
85.5
 20
47.25
 30
0.0
 11
1.5
 21
47.25
 31
0.0
  0
LINE
  5
1A9
100
AcDbEntity
  8
0_Framing
 62
256
370
-1
 48
1.0
  6
BYLAYER
100
AcDbLine
 10
85.5
 20
71.25
 30
0.0
 11
1.5
 21
71.25
 31
0.0
  0
LINE
  5
1AA
100
AcDbEntity
  8
0_Framing
 62
256
370
-1
 48
1.0
  6
BYLAYER
100
AcDbLine
 10
85.5
 20
95.25
 30
0.0
 11
1.5
 21
95.25
 31
0.0
  0
LINE
  5
1AB
100
AcDbEntity
  8
0_Framing
 62
256
370
-1
 48
1.0
  6
BYLAYER
100
AcDbLine
 10
85.5
 20
119.25
 30
0.0
 11
1.5
 21
119.25
 31
0.0
  0
LINE
  5
1AC
100
AcDbEntity
  8
0_Framing
 62
256
370
-1
 48
1.0
  6
BYLAYER
100
AcDbLine
 10
85.5
 20
142.5
 30
0.0
 11
1.5
 21
142.5
 31
0.0
  0
LINE
  5
1AD
100
AcDbEntity
  8
0_Framing
 62
256
370
-1
 48
1.0
  6
BYLAYER
100
AcDbLine
 10
1.5
 20
1.5
 30
0.0
 11
1.5
 21
5.0
 31
0.0
  0
LINE
  5
1AE
100
AcDbEntity
  8
0_Framing
 62
256
370
-1
 48
1.0
  6
BYLAYER
100
AcDbLine
 10
1.5
 20
139.0
 30
0.0
 11
1.5
 21
142.5
 31
0.0
  0
LINE
  5
1AF
100
AcDbEntity
  8
0_Framing
 62
256
370
-1
 48
1.0
  6
BYLAYER
100
AcDbLine
 10
1.5
 20
5.0
 30
0.0
 11
85.5
 21
5.0
 31
0.0
  0
LINE
  5
1B0
100
AcDbEntity
  8
0_Framing
 62
256
370
-1
 48
1.0
  6
BYLAYER
100
AcDbLine
 10
1.5
 20
142.5
 30
0.0
 11
85.5
 21
142.5
 31
0.0
  0
LINE
  5
1B1
100
AcDbEntity
  8
0_Framing
 62
256
370
-1
 48
1.0
  6
BYLAYER
100
AcDbLine
 10
85.5
 20
5.0
 30
0.0
 11
85.5
 21
1.5
 31
0.0
  0
LINE
  5
1B2
100
AcDbEntity
  8
0_Framing
 62
256
370
-1
 48
1.0
  6
BYLAYER
100
AcDbLine
 10
85.5
 20
142.5
 30
0.0
 11
85.5
 21
139.0
 31
0.0
  0
LINE
  5
1B3
100
AcDbEntity
  8
0_Framing
 62
256
370
-1
 48
1.0
  6
BYLAYER
100
AcDbLine
 10
85.5
 20
1.5
 30
0.0
 11
1.5
 21
1.5
 31
0.0
  0
LINE
  5
1B4
100
AcDbEntity
  8
0_Framing
 62
256
370
-1
 48
1.0
  6
BYLAYER
100
AcDbLine
 10
1.5
 20
144.0
 30
0.0
 11
85.5
 21
144.0
 31
0.0
  0
LINE
  5
1B5
100
AcDbEntity
  8
Step_07a
 62
256
370
-1
 48
1.0
  6
BYLAYER
100
AcDbLine
 10
0.0
 20
96.0
 30
0.0
 11
93.25
 21
96.0
 31
0.0
  0
LINE
  5
1B6
100
AcDbEntity
  8
Step_07b
 62
256
370
-1
 48
1.0
  6
BYLAYER
100
AcDbLine
 10
0.0
 20
96.0
 30
0.0
 11
93.25
 21
96.0
 31
0.0
  0
MTEXT
  5
1B7
100
AcDbEntity
  8
Step_06a
 62
256
370
-1
 48
1.0
  6
BYLAYER
100
AcDbMText
 10
34.7165636496892773
 20
113.3868207932340653
 30
0.0
 40
3.0
 41
0.0
 71
1
 72
1
  1
Panel 1
  7
textstyle55
 50
0.0
 73
2
 44
1.0
  0
MTEXT
  5
1B8
100
AcDbEntity
  8
Step_06b
 62
256
370
-1
 48
1.0
  6
BYLAYER
100
AcDbMText
 10
34.7165636496892844
 20
18.1368207932340582
 30
0.0
 40
3.0
 41
0.0
 71
1
 72
1
  1
Panel 1
  7
textstyle56
 50
0.0
 73
2
 44
1.0
  0
MTEXT
  5
1B9
100
AcDbEntity
  8
Step_07a
 62
256
370
-1
 48
1.0
  6
BYLAYER
100
AcDbMText
 10
44.2826727942764862
 20
17.4496777553654567
 30
0.0
 40
3.0
 41
0.0
 71
1
 72
1
  1
Panel 3
  7
textstyle57
 50
0.0
 73
2
 44
1.0
  0
MTEXT
  5
1BA
100
AcDbEntity
  8
Step_07b
 62
256
370
-1
 48
1.0
  6
BYLAYER
100
AcDbMText
 10
44.2826727942764862
 20
17.4496777553654567
 30
0.0
 40
3.0
 41
0.0
 71
1
 72
1
  1
Panel 1
  7
textstyle58
 50
0.0
 73
2
 44
1.0
  0
MTEXT
  5
1BB
100
AcDbEntity
  8
Step_07a
 62
256
370
-1
 48
1.0
  6
BYLAYER
100
AcDbMText
 10
44.2826727942764862
 20
65.4496777553654567
 30
0.0
 40
3.0
 41
0.0
 71
1
 72
1
  1
Panel 2
  7
textstyle59
 50
0.0
 73
2
 44
1.0
  0
MTEXT
  5
1BC
100
AcDbEntity
  8
Step_07b
 62
256
370
-1
 48
1.0
  6
BYLAYER
100
AcDbMText
 10
44.2826727942764862
 20
65.4496777553654567
 30
0.0
 40
3.0
 41
0.0
 71
1
 72
1
  1
Panel 2
  7
textstyle0
 50
0.0
 73
2
 44
1.0
  0
MTEXT
  5
1BD
100
AcDbEntity
  8
Step_07a
 62
256
370
-1
 48
1.0
  6
BYLAYER
100
AcDbMText
 10
44.2826727942764862
 20
113.4496777553654567
 30
0.0
 40
3.0
 41
0.0
 71
1
 72
1
  1
Panel 1
  7
textstyle1
 50
0.0
 73
2
 44
1.0
  0
MTEXT
  5
1BE
100
AcDbEntity
  8
Step_07b
 62
256
370
-1
 48
1.0
  6
BYLAYER
100
AcDbMText
 10
44.2826727942764933
 20
113.4496777553654425
 30
0.0
 40
3.0
 41
0.0
 71
1
 72
1
  1
Panel 3
  7
textstyle2
 50
0.0
 73
2
 44
1.0
  0
LINE
  5
1BF
100
AcDbEntity
  8
Step_06a
 62
256
370
-1
 48
1.0
  6
BYLAYER
100
AcDbLine
 10
0.0
 20
96.0
 30
0.0
 11
0.0
 21
144.0
 31
0.0
  0
LINE
  5
1C0
100
AcDbEntity
  8
Step_06b
 62
256
370
-1
 48
1.0
  6
BYLAYER
100
AcDbLine
 10
-0.25
 20
0.0
 30
0.0
 11
-0.25
 21
48.0
 31
0.0
  0
LINE
  5
1C1
100
AcDbEntity
  8
Step_06a
 62
256
370
-1
 48
1.0
  6
BYLAYER
100
AcDbLine
 10
0.0
 20
144.0
 30
0.0
 11
93.25
 21
144.0
 31
0.0
  0
LINE
  5
1C2
100
AcDbEntity
  8
Step_06b
 62
256
370
-1
 48
1.0
  6
BYLAYER
100
AcDbLine
 10
-0.25
 20
48.0
 30
0.0
 11
93.0
 21
48.0
 31
0.0
  0
LINE
  5
1C3
100
AcDbEntity
  8
Step_06a
 62
256
370
-1
 48
1.0
  6
BYLAYER
100
AcDbLine
 10
93.25
 20
144.0
 30
0.0
 11
93.25
 21
96.0
 31
0.0
  0
LINE
  5
1C4
100
AcDbEntity
  8
Step_06b
 62
256
370
-1
 48
1.0
  6
BYLAYER
100
AcDbLine
 10
93.0
 20
48.0
 30
0.0
 11
93.0
 21
0.0
 31
0.0
  0
LINE
  5
1C5
100
AcDbEntity
  8
Step_06a
 62
256
370
-1
 48
1.0
  6
BYLAYER
100
AcDbLine
 10
93.25
 20
96.0
 30
0.0
 11
0.0
 21
96.0
 31
0.0
  0
LINE
  5
1C6
100
AcDbEntity
  8
Step_06b
 62
256
370
-1
 48
1.0
  6
BYLAYER
100
AcDbLine
 10
93.0
 20
0.0
 30
0.0
 11
-0.25
 21
0.0
 31
0.0
  0
LINE
  5
1C7
100
AcDbEntity
  8
Step_07a
 62
252
420
10526884
370
-1
 48
1.0
  6
BYLAYER
100
AcDbLine
 10
0.0
 20
48.0
 30
0.0
 11
93.25
 21
48.0
 31
0.0
  0
LINE
  5
1C8
100
AcDbEntity
  8
Step_07b
 62
256
370
-1
 48
1.0
  6
BYLAYER
100
AcDbLine
 10
0.0
 20
48.0
 30
0.0
 11
93.25
 21
48.0
 31
0.0
  0
LINE
  5
1C9
100
AcDbEntity
  8
Step_07a
 62
256
370
-1
 48
1.0
  6
BYLAYER
100
AcDbLine
 10
93.25
 20
96.0
 30
0.0
 11
0.0
 21
96.0
 31
0.0
  0
LINE
  5
1CA
100
AcDbEntity
  8
Step_07b
 62
256
370
-1
 48
1.0
  6
BYLAYER
100
AcDbLine
 10
93.25
 20
96.0
 30
0.0
 11
0.0
 21
96.0
 31
0.0
  0
LINE
  5
1CB
100
AcDbEntity
  8
Step_07a
 62
256
370
-1
 48
1.0
  6
BYLAYER
100
AcDbLine
 10
93.25
 20
48.0
 30
0.0
 11
0.0
 21
48.0
 31
0.0
  0
LINE
  5
1CC
100
AcDbEntity
  8
Step_07b
 62
256
370
-1
 48
1.0
  6
BYLAYER
100
AcDbLine
 10
93.25
 20
48.0
 30
0.0
 11
0.0
 21
48.0
 31
0.0
  0
IMAGE
  5
1CD
100
AcDbEntity
  8
Step_07a
 62
256
370
-1
 48
1.0
  6
BYLAYER
100
AcDbRasterImage
 90
0
 10
57.4068555481424241
 20
-8.1069467364617758
 30
0.0
 11
0.15
 21
0.0
 31
0.0
 12
0.0
 22
0.15
 32
0.0
 13
9.0
 23
9.0
340
1CE
 70
15
280
0
281
50
282
50
283
0
  0
IMAGE
  5
1CF
100
AcDbEntity
  8
Step_07b
 62
256
370
-1
 48
1.0
  6
BYLAYER
100
AcDbRasterImage
 90
0
 10
57.4068555481424241
 20
-8.1069467364617829
 30
0.0
 11
0.15
 21
0.0
 31
0.0
 12
0.0
 22
0.15
 32
0.0
 13
9.0
 23
9.0
340
1D0
 70
15
280
0
281
50
282
50
283
0
  0
IMAGE
  5
1D1
100
AcDbEntity
  8
Step_07a
 62
256
370
-1
 48
1.0
  6
BYLAYER
100
AcDbRasterImage
 90
0
 10
66.9424945105562585
 20
152.1175302664349829
 30
0.0
 11
-0.15
 21
0.0
 31
0.0
 12
-0.0
 22
-0.15
 32
0.0
 13
9.0
 23
9.0
340
1D2
 70
15
280
0
281
50
282
50
283
0
  0
IMAGE
  5
1D3
100
AcDbEntity
  8
Step_07b
 62
256
370
-1
 48
1.0
  6
BYLAYER
100
AcDbRasterImage
 90
0
 10
66.9424945105562728
 20
152.1175302664349545
 30
0.0
 11
-0.15
 21
0.0
 31
0.0
 12
-0.0
 22
-0.15
 32
0.0
 13
9.0
 23
9.0
340
1D4
 70
15
280
0
281
50
282
50
283
0
  0
MTEXT
  5
1D5
100
AcDbEntity
  8
Step_07a
 62
256
370
-1
 48
1.0
  6
BYLAYER
100
AcDbMText
 10
7.6822480683998862
 20
146.4051678786616151
 30
0.0
 40
3.0
 41
0.0
 71
1
 72
1
  1

  7
textstyle50
 50
90.0
 73
2
 44
1.0
  0
MTEXT
  5
1D6
100
AcDbEntity
  8
Step_07b
 62
256
370
-1
 48
1.0
  6
BYLAYER
100
AcDbMText
 10
7.6822480683998817
 20
146.4051678786615867
 30
0.0
 40
3.0
 41
0.0
 71
1
 72
1
  1

  7
textstyle51
 50
90.0
 73
2
 44
1.0
  0
MTEXT
  5
1D7
100
AcDbEntity
  8
Step_07a
 62
256
370
-1
 48
1.0
  6
BYLAYER
100
AcDbMText
 10
20.8518161856568085
 20
151.1572492578849847
 30
0.0
 40
3.0
 41
0.0
 71
1
 72
1
  1
\H2;Rout off excess edge after\Pnailing down panel
  7
textstyle52
 50
0.0
 73
2
 44
1.0
  0
MTEXT
  5
1D8
100
AcDbEntity
  8
Step_07b
 62
256
370
-1
 48
1.0
  6
BYLAYER
100
AcDbMText
 10
20.8518161856567978
 20
151.1572492578849847
 30
0.0
 40
3.0
 41
0.0
 71
1
 72
1
  1
\H2;Rout off excess edge after\Pnailing down panel
  7
textstyle53
 50
0.0
 73
2
 44
1.0
  0
MTEXT
  5
1D9
100
AcDbEntity
  8
Step_07a
 62
256
370
-1
 48
1.0
  6
BYLAYER
100
AcDbMText
 10
21.0
 20
-1.9999999999999587
 30
0.0
 40
3.0
 41
0.0
 71
1
 72
1
  1
\H2;Rout off excess edge after\Pnailing down panel
  7
textstyle54
 50
0.0
 73
2
 44
1.0
  0
MTEXT
  5
1DA
100
AcDbEntity
  8
Step_07b
 62
256
370
-1
 48
1.0
  6
BYLAYER
100
AcDbMText
 10
21.0
 20
-1.9999999999999389
 30
0.0
 40
3.0
 41
0.0
 71
1
 72
1
  1
\H2;Rout off excess edge after\Pnailing down panel
  7
textstyle11
 50
0.0
 73
2
 44
1.0
  0
MTEXT
  5
1DB
100
AcDbEntity
  8
Step_05
 62
256
370
-1
 48
1.0
  6
BYLAYER
100
AcDbMText
 10
34.5073633157207951
 20
87.0455774278214278
 30
0.0
 40
3.0
 41
0.0
 71
1
 72
1
  1
\H2.50001;TYVEK
  7
textstyle12
 50
0.0
 73
2
 44
1.0
  0
LEADER
  5
1DC
100
AcDbEntity
  8
Step_02
 62
256
370
-1
 48
1.0
  6
BYLAYER
100
AcDbLeader
  3
Standard
 71
1
 72
0
 73
3
 74
0
 75
0
 40
1.0
 41
10.0
 76
2
 10
66.0
 20
144.0000000000000284
 10
66.1371830012214303
 20
150.9963330622927913
1001
ACAD
1000
DSTYLE
1002
{
1070
40
1040
1.0
1002
}
  0
LEADER
  5
1DD
100
AcDbEntity
  8
Step_02
 62
256
370
-1
 48
1.0
  6
BYLAYER
100
AcDbLeader
  3
Standard
 71
1
 72
0
 73
3
 74
0
 75
0
 40
1.0
 41
10.0
 76
2
 10
21.0
 20
144.0000000000000284
 10
21.1371830012214303
 20
150.9963330622927913
1001
ACAD
1000
DSTYLE
1002
{
1070
40
1040
1.0
1002
}
  0
LEADER
  5
1DE
100
AcDbEntity
  8
Step_02
 62
256
370
-1
 48
1.0
  6
BYLAYER
100
AcDbLeader
  3
Standard
 71
1
 72
0
 73
3
 74
0
 75
0
 40
1.0
 41
10.0
 76
2
 10
66.0
 20
-0.0000000000000213
 10
66.1371830012214446
 20
-6.9963330622927842
1001
ACAD
1000
DSTYLE
1002
{
1070
40
1040
1.0
1002
}
  0
LEADER
  5
1DF
100
AcDbEntity
  8
Step_02
 62
256
370
-1
 48
1.0
  6
BYLAYER
100
AcDbLeader
  3
Standard
 71
1
 72
0
 73
3
 74
0
 75
0
 40
1.0
 41
10.0
 76
2
 10
20.9999999999999929
 20
-0.0000000000000355
 10
21.1371830012214303
 20
-6.9963330622927984
1001
ACAD
1000
DSTYLE
1002
{
1070
40
1040
1.0
1002
}
  0
MTEXT
  5
1E0
100
AcDbEntity
  8
Step_02
 62
256
370
-1
 48
1.0
  6
BYLAYER
100
AcDbMText
 10
25.3486876678249224
 20
134.3384196758158282
 30
0.0
 40
3.0
 41
0.0
 71
1
 72
1
  1
\H2.50001;CLAMP
  7
textstyle13
 50
0.0
 73
2
 44
1.0
  0
MTEXT
  5
1E1
100
AcDbEntity
  8
Step_02
 62
256
370
-1
 48
1.0
  6
BYLAYER
100
AcDbMText
 10
25.3486876678249224
 20
9.6615803241841611
 30
0.0
 40
3.0
 41
0.0
 71
7
 72
1
  1
\H2.50001;CLAMP
  7
textstyle14
 50
0.0
 73
2
 44
1.0
  0
MTEXT
  5
1E2
100
AcDbEntity
  8
Step_02
 62
256
370
-1
 48
1.0
  6
BYLAYER
100
AcDbMText
 10
48.5554787077829104
 20
134.5670580111848835
 30
0.0
 40
3.0
 41
0.0
 71
1
 72
1
  1
\H2.50001;CLAMP
  7
textstyle15
 50
0.0
 73
2
 44
1.0
  0
MTEXT
  5
1E3
100
AcDbEntity
  8
Step_02
 62
256
370
-1
 48
1.0
  6
BYLAYER
100
AcDbMText
 10
48.5554787077829104
 20
9.4329419888151431
 30
0.0
 40
3.0
 41
0.0
 71
7
 72
1
  1
\H2.50001;CLAMP
  7
textstyle16
 50
0.0
 73
2
 44
1.0
  0
MTEXT
  5
1E4
100
AcDbEntity
  8
0_Framing
 62
256
370
-1
 48
1.0
  6
BYLAYER
100
AcDbMText
 10
34.4483680404115091
 20
-26.25
 30
0.0
 40
3.0
 41
0.0
 71
1
 72
1
  1
\fLiberation Sans|b0|i0|c0|p0;\H4.00001;Side Wall
  7
textstyle17
 50
0.0
 73
2
 44
1.0
  0
MTEXT
  5
1E5
100
AcDbEntity
  8
Step_01
 62
256
370
-1
 48
1.0
  6
BYLAYER
100
AcDbMText
 10
39.9999999999999929
 20
-20.0000000000000142
 30
0.0
 40
3.0
 41
0.0
 71
1
 72
1
  1
\fLiberation Sans|b0|i0|c0|p0;Step 1
  7
textstyle18
 50
0.0
 73
2
 44
1.0
  0
MTEXT
  5
1E6
100
AcDbEntity
  8
Step_02
 62
256
370
-1
 48
1.0
  6
BYLAYER
100
AcDbMText
 10
39.9999999999999787
 20
-20.0000000000000462
 30
0.0
 40
3.0
 41
0.0
 71
1
 72
1
  1
\fLiberation Sans|b0|i0|c0|p0;Step 2
  7
textstyle19
 50
0.0
 73
2
 44
1.0
  0
MTEXT
  5
1E7
100
AcDbEntity
  8
Step_03
 62
256
370
-1
 48
1.0
  6
BYLAYER
100
AcDbMText
 10
39.9999999999999787
 20
-20.0000000000000462
 30
0.0
 40
3.0
 41
0.0
 71
1
 72
1
  1
\fLiberation Sans|b0|i0|c0|p0;Step 3
  7
textstyle20
 50
0.0
 73
2
 44
1.0
  0
MTEXT
  5
1E8
100
AcDbEntity
  8
Step_04
 62
256
370
-1
 48
1.0
  6
BYLAYER
100
AcDbMText
 10
39.9999999999999787
 20
-20.0000000000000462
 30
0.0
 40
3.0
 41
0.0
 71
1
 72
1
  1
\fLiberation Sans|b0|i0|c0|p0;Step 4
  7
textstyle21
 50
0.0
 73
2
 44
1.0
  0
MTEXT
  5
1E9
100
AcDbEntity
  8
Step_05
 62
256
370
-1
 48
1.0
  6
BYLAYER
100
AcDbMText
 10
39.9999999999999787
 20
-20.0000000000000462
 30
0.0
 40
3.0
 41
0.0
 71
1
 72
1
  1
\fLiberation Sans|b0|i0|c0|p0;Step 5
  7
textstyle22
 50
0.0
 73
2
 44
1.0
  0
MTEXT
  5
1EA
100
AcDbEntity
  8
Step_06a
 62
256
370
-1
 48
1.0
  6
BYLAYER
100
AcDbMText
 10
39.9999999999999787
 20
-20.0000000000000462
 30
0.0
 40
3.0
 41
0.0
 71
1
 72
1
  1
\fLiberation Sans|b0|i0|c0|p0;Step 6
  7
textstyle3
 50
0.0
 73
2
 44
1.0
  0
MTEXT
  5
1EB
100
AcDbEntity
  8
Step_07a
 62
256
370
-1
 48
1.0
  6
BYLAYER
100
AcDbMText
 10
39.9999999999999787
 20
-20.0000000000000462
 30
0.0
 40
3.0
 41
0.0
 71
1
 72
1
  1
\fLiberation Sans|b0|i0|c0|p0;Step 7
  7
textstyle4
 50
0.0
 73
2
 44
1.0
  0
MTEXT
  5
1EC
100
AcDbEntity
  8
Step_07b
 62
256
370
-1
 48
1.0
  6
BYLAYER
100
AcDbMText
 10
39.9999999999999787
 20
-20.0000000000000462
 30
0.0
 40
3.0
 41
0.0
 71
1
 72
1
  1
\fLiberation Sans|b0|i0|c0|p0;Step 7
  7
textstyle5
 50
0.0
 73
2
 44
1.0
  0
LEADER
  5
1ED
100
AcDbEntity
  8
Step_02
 62
256
370
-1
 48
1.0
  6
BYLAYER
100
AcDbLeader
  3
Standard
 71
1
 72
0
 73
3
 74
0
 75
0
 40
1.0
 41
10.0
 76
3
 10
21.0
 20
139.0
 10
21.0
 20
133.0
 10
24.0
 20
133.0
1001
ACAD
1000
DSTYLE
1002
{
1070
40
1040
1.0
1002
}
  0
LEADER
  5
1EE
100
AcDbEntity
  8
Step_02
 62
256
370
-1
 48
1.0
  6
BYLAYER
100
AcDbLeader
  3
Standard
 71
1
 72
0
 73
3
 74
0
 75
0
 40
1.0
 41
10.0
 76
3
 10
20.9999999999999929
 20
4.9999999999999787
 10
21.0000000000000071
 20
10.9999999999999858
 10
24.0000000000000036
 20
10.9999999999999929
1001
ACAD
1000
DSTYLE
1002
{
1070
40
1040
1.0
1002
}
  0
LEADER
  5
1EF
100
AcDbEntity
  8
Step_02
 62
256
370
-1
 48
1.0
  6
BYLAYER
100
AcDbLeader
  3
Standard
 71
1
 72
0
 73
3
 74
0
 75
0
 40
1.0
 41
10.0
 76
3
 10
66.0
 20
139.0
 10
66.0
 20
133.0
 10
62.0
 20
133.0
1001
ACAD
1000
DSTYLE
1002
{
1070
40
1040
1.0
1002
}
  0
LEADER
  5
1F0
100
AcDbEntity
  8
Step_02
 62
256
370
-1
 48
1.0
  6
BYLAYER
100
AcDbLeader
  3
Standard
 71
1
 72
0
 73
3
 74
0
 75
0
 40
1.0
 41
10.0
 76
3
 10
66.0
 20
4.9999999999999929
 10
66.0
 20
10.9999999999999858
 10
62.0
 20
10.9999999999999858
1001
ACAD
1000
DSTYLE
1002
{
1070
40
1040
1.0
1002
}
  0
IMAGE
  5
1F1
100
AcDbEntity
  8
Step_05
 62
256
370
-1
 48
1.0
  6
BYLAYER
100
AcDbRasterImage
 90
0
 10
63.0
 20
47.9999999999999929
 30
0.0
 11
-0.5
 21
0.0000000000000001
 31
0.0
 12
-0.0000000000000001
 22
0.5
 32
0.0
 13
16.0
 23
16.0
340
1F2
 70
15
280
0
281
50
282
50
283
0
  0
MTEXT
  5
1F3
100
AcDbEntity
  8
Step_06a
 62
256
370
-1
 48
1.0
  6
BYLAYER
100
AcDbMText
 10
-12.0490995174147884
 20
63.207605570136991
 30
0.0
 40
3.0
 41
0.0
 71
1
 72
1
  1
TOP
  7
textstyle6
 50
0.0
 73
2
 44
1.0
  0
MTEXT
  5
1F4
100
AcDbEntity
  8
Step_06b
 62
256
370
-1
 48
1.0
  6
BYLAYER
100
AcDbMText
 10
-12.0490995174147901
 20
63.2076055701369839
 30
0.0
 40
3.0
 41
0.0
 71
1
 72
1
  1
TOP
  7
textstyle7
 50
0.0
 73
2
 44
1.0
  0
MTEXT
  5
1F5
100
AcDbEntity
  8
Step_07a
 62
256
370
-1
 48
1.0
  6
BYLAYER
100
AcDbMText
 10
-12.0490995174147901
 20
63.2076055701369839
 30
0.0
 40
3.0
 41
0.0
 71
1
 72
1
  1
TOP
  7
textstyle8
 50
0.0
 73
2
 44
1.0
  0
MTEXT
  5
1F6
100
AcDbEntity
  8
Step_07b
 62
256
370
-1
 48
1.0
  6
BYLAYER
100
AcDbMText
 10
-12.0490995174147901
 20
63.2076055701369839
 30
0.0
 40
3.0
 41
0.0
 71
1
 72
1
  1
TOP
  7
textstyle9
 50
0.0
 73
2
 44
1.0
  0
MTEXT
  5
1F7
100
AcDbEntity
  8
Step_05
 62
256
370
-1
 48
1.0
  6
BYLAYER
100
AcDbMText
 10
-12.0490995174147901
 20
63.2076055701369839
 30
0.0
 40
3.0
 41
0.0
 71
1
 72
1
  1
TOP
  7
textstyle10
 50
0.0
 73
2
 44
1.0
  0
LINE
  5
1F8
100
AcDbEntity
  8
Step_07a
 62
256
370
-1
 48
1.0
  6
BYLAYER
100
AcDbLine
 10
0.0
 20
145.0
 30
0.0
 11
0.0
 21
150.0
 31
0.0
  0
LINE
  5
1F9
100
AcDbEntity
  8
Step_07b
 62
256
370
-1
 48
1.0
  6
BYLAYER
100
AcDbLine
 10
0.0
 20
145.0
 30
0.0
 11
0.0
 21
150.0
 31
0.0
  0
LINE
  5
1FA
100
AcDbEntity
  8
Step_07a
 62
256
370
-1
 48
1.0
  6
BYLAYER
100
AcDbLine
 10
87.0
 20
145.0
 30
0.0
 11
87.0
 21
150.0
 31
0.0
  0
LINE
  5
1FB
100
AcDbEntity
  8
Step_07b
 62
256
370
-1
 48
1.0
  6
BYLAYER
100
AcDbLine
 10
87.0
 20
145.0
 30
0.0
 11
87.0
 21
150.0
 31
0.0
  0
LINE
  5
1FC
100
AcDbEntity
  8
Step_07a
 62
256
370
-1
 48
1.0
  6
BYLAYER
100
AcDbLine
 10
93.25
 20
145.0
 30
0.0
 11
93.25
 21
150.0
 31
0.0
  0
LINE
  5
1FD
100
AcDbEntity
  8
Step_07b
 62
256
370
-1
 48
1.0
  6
BYLAYER
100
AcDbLine
 10
93.25
 20
145.0
 30
0.0
 11
93.25
 21
150.0
 31
0.0
  0
LINE
  5
1FE
100
AcDbEntity
  8
Step_07a
 62
256
370
-1
 48
1.0
  6
BYLAYER
100
AcDbLine
 10
0.0
 20
-6.0
 30
0.0
 11
0.0
 21
-1.0
 31
0.0
  0
LINE
  5
1FF
100
AcDbEntity
  8
Step_07b
 62
256
370
-1
 48
1.0
  6
BYLAYER
100
AcDbLine
 10
0.0
 20
-6.0
 30
0.0
 11
0.0
 21
-1.0
 31
0.0
  0
LINE
  5
200
100
AcDbEntity
  8
Step_07a
 62
256
370
-1
 48
1.0
  6
BYLAYER
100
AcDbLine
 10
87.0
 20
-6.0
 30
0.0
 11
87.0
 21
-1.0
 31
0.0
  0
LINE
  5
201
100
AcDbEntity
  8
Step_07b
 62
256
370
-1
 48
1.0
  6
BYLAYER
100
AcDbLine
 10
87.0
 20
-6.0
 30
0.0
 11
87.0
 21
-1.0
 31
0.0
  0
LINE
  5
202
100
AcDbEntity
  8
Step_07a
 62
256
370
-1
 48
1.0
  6
BYLAYER
100
AcDbLine
 10
93.25
 20
-6.0
 30
0.0
 11
93.25
 21
-1.0
 31
0.0
  0
LINE
  5
203
100
AcDbEntity
  8
Step_07b
 62
256
370
-1
 48
1.0
  6
BYLAYER
100
AcDbLine
 10
93.25
 20
-6.0
 30
0.0
 11
93.25
 21
-1.0
 31
0.0
  0
LEADER
  5
204
100
AcDbEntity
  8
Step_07a
 62
256
370
-1
 48
1.0
  6
BYLAYER
100
AcDbLeader
  3
Standard
 71
1
 72
0
 73
3
 74
0
 75
0
 40
1.0
 41
10.0
 76
2
 10
0.0
 20
147.5
 10
17.5
 20
147.5
1001
ACAD
1000
DSTYLE
1002
{
1070
40
1040
1.0
1002
}
  0
LEADER
  5
205
100
AcDbEntity
  8
Step_07b
 62
256
370
-1
 48
1.0
  6
BYLAYER
100
AcDbLeader
  3
Standard
 71
1
 72
0
 73
3
 74
0
 75
0
 40
1.0
 41
10.0
 76
2
 10
0.0
 20
147.5
 10
17.5
 20
147.5
1001
ACAD
1000
DSTYLE
1002
{
1070
40
1040
1.0
1002
}
  0
LEADER
  5
206
100
AcDbEntity
  8
Step_07a
 62
256
370
-1
 48
1.0
  6
BYLAYER
100
AcDbLeader
  3
Standard
 71
1
 72
0
 73
3
 74
0
 75
0
 40
1.0
 41
10.0
 76
2
 10
0.0
 20
-3.5
 10
17.5
 20
-3.5
1001
ACAD
1000
DSTYLE
1002
{
1070
40
1040
1.0
1002
}
  0
LEADER
  5
207
100
AcDbEntity
  8
Step_07b
 62
256
370
-1
 48
1.0
  6
BYLAYER
100
AcDbLeader
  3
Standard
 71
1
 72
0
 73
3
 74
0
 75
0
 40
1.0
 41
10.0
 76
2
 10
0.0
 20
-3.5
 10
17.5
 20
-3.5
1001
ACAD
1000
DSTYLE
1002
{
1070
40
1040
1.0
1002
}
  0
LEADER
  5
208
100
AcDbEntity
  8
Step_07a
 62
256
370
-1
 48
1.0
  6
BYLAYER
100
AcDbLeader
  3
Standard
 71
1
 72
0
 73
3
 74
0
 75
0
 40
1.0
 41
10.0
 76
2
 10
87.0
 20
147.5
 10
69.0
 20
147.5
1001
ACAD
1000
DSTYLE
1002
{
1070
40
1040
1.0
1002
}
  0
LEADER
  5
209
100
AcDbEntity
  8
Step_07b
 62
256
370
-1
 48
1.0
  6
BYLAYER
100
AcDbLeader
  3
Standard
 71
1
 72
0
 73
3
 74
0
 75
0
 40
1.0
 41
10.0
 76
2
 10
87.0
 20
147.5
 10
69.0
 20
147.5
1001
ACAD
1000
DSTYLE
1002
{
1070
40
1040
1.0
1002
}
  0
LEADER
  5
20A
100
AcDbEntity
  8
Step_07a
 62
256
370
-1
 48
1.0
  6
BYLAYER
100
AcDbLeader
  3
Standard
 71
1
 72
0
 73
3
 74
0
 75
0
 40
1.0
 41
10.0
 76
2
 10
87.0
 20
-3.5
 10
69.0
 20
-3.5
1001
ACAD
1000
DSTYLE
1002
{
1070
40
1040
1.0
1002
}
  0
LEADER
  5
20B
100
AcDbEntity
  8
Step_07b
 62
256
370
-1
 48
1.0
  6
BYLAYER
100
AcDbLeader
  3
Standard
 71
1
 72
0
 73
3
 74
0
 75
0
 40
1.0
 41
10.0
 76
2
 10
87.0
 20
-3.5
 10
69.0
 20
-3.5
1001
ACAD
1000
DSTYLE
1002
{
1070
40
1040
1.0
1002
}
  0
LEADER
  5
20C
100
AcDbEntity
  8
Step_07a
 62
256
370
-1
 48
1.0
  6
BYLAYER
100
AcDbLeader
  3
Standard
 71
1
 72
0
 73
3
 74
0
 75
0
 40
1.0
 41
10.0
 76
2
 10
93.25
 20
147.5
 10
99.0
 20
147.5
1001
ACAD
1000
DSTYLE
1002
{
1070
40
1040
1.0
1002
}
  0
LEADER
  5
20D
100
AcDbEntity
  8
Step_07b
 62
256
370
-1
 48
1.0
  6
BYLAYER
100
AcDbLeader
  3
Standard
 71
1
 72
0
 73
3
 74
0
 75
0
 40
1.0
 41
10.0
 76
2
 10
93.25
 20
147.5
 10
99.0
 20
147.5
1001
ACAD
1000
DSTYLE
1002
{
1070
40
1040
1.0
1002
}
  0
LEADER
  5
20E
100
AcDbEntity
  8
Step_07a
 62
256
370
-1
 48
1.0
  6
BYLAYER
100
AcDbLeader
  3
Standard
 71
1
 72
0
 73
3
 74
0
 75
0
 40
1.0
 41
10.0
 76
2
 10
93.25
 20
-3.5
 10
99.0
 20
-3.5
1001
ACAD
1000
DSTYLE
1002
{
1070
40
1040
1.0
1002
}
  0
LEADER
  5
20F
100
AcDbEntity
  8
Step_07b
 62
256
370
-1
 48
1.0
  6
BYLAYER
100
AcDbLeader
  3
Standard
 71
1
 72
0
 73
3
 74
0
 75
0
 40
1.0
 41
10.0
 76
2
 10
93.25
 20
-3.5
 10
99.0
 20
-3.5
1001
ACAD
1000
DSTYLE
1002
{
1070
40
1040
1.0
1002
}
  0
MTEXT
  5
210
100
AcDbEntity
  8
Step_07a
 62
256
370
-1
 48
1.0
  6
BYLAYER
100
AcDbMText
 10
86.0
 20
156.0
 30
0.0
 40
3.0
 41
0.0
 71
1
 72
1
  1
\H2;Use jigsaw\P  here
  7
textstyle23
 50
0.0
 73
2
 44
1.0
  0
MTEXT
  5
211
100
AcDbEntity
  8
Step_07b
 62
256
370
-1
 48
1.0
  6
BYLAYER
100
AcDbMText
 10
86.0
 20
156.0
 30
0.0
 40
3.0
 41
0.0
 71
1
 72
1
  1
\H2;Use jigsaw\P  here
  7
textstyle24
 50
0.0
 73
2
 44
1.0
  0
MTEXT
  5
212
100
AcDbEntity
  8
Step_07a
 62
256
370
-1
 48
1.0
  6
BYLAYER
100
AcDbMText
 10
85.8202476423906973
 20
-6.3012725227704491
 30
0.0
 40
3.0
 41
0.0
 71
1
 72
1
  1
\H2;Use jigsaw\P  here
  7
textstyle25
 50
0.0
 73
2
 44
1.0
  0
MTEXT
  5
213
100
AcDbEntity
  8
Step_07b
 62
256
370
-1
 48
1.0
  6
BYLAYER
100
AcDbMText
 10
85.8202476423906973
 20
-6.3012725227704172
 30
0.0
 40
3.0
 41
0.0
 71
1
 72
1
  1
\H2;Use jigsaw\P  here
  7
textstyle26
 50
0.0
 73
2
 44
1.0
  0
MTEXT
  5
214
100
AcDbEntity
  8
Step_02
 62
256
370
-1
 48
1.0
  6
BYLAYER
100
AcDbMText
 10
37.4198952488315228
 20
154.9055992533125163
 30
0.0
 40
3.0
 41
0.0
 71
1
 72
1
  1
\H2;8 screws
  7
textstyle27
 50
0.0
 73
2
 44
1.0
  0
MTEXT
  5
215
100
AcDbEntity
  8
Step_02
 62
256
370
-1
 48
1.0
  6
BYLAYER
100
AcDbMText
 10
38.5630869256767426
 20
-8.1166609056010657
 30
0.0
 40
3.0
 41
0.0
 71
1
 72
1
  1
\H2;8 screws
  7
textstyle28
 50
0.0
 73
2
 44
1.0
  0
LINE
  5
216
100
AcDbEntity
  8
Step_02
 62
256
370
-1
 48
1.0
  6
BYLAYER
100
AcDbLine
 10
98.9861800768905482
 20
147.2638949085678064
 30
0.0
 11
101.9861800768905482
 21
147.2638949085678064
 31
0.0
  0
LINE
  5
217
100
AcDbEntity
  8
Step_02
 62
256
370
-1
 48
1.0
  6
BYLAYER
100
AcDbLine
 10
101.9861800768903919
 20
150.2638949085678064
 30
0.0
 11
101.9861800768905198
 21
147.2638949085678064
 31
0.0
  0
LINE
  5
218
100
AcDbEntity
  8
Step_02
 62
256
370
-1
 48
1.0
  6
BYLAYER
100
AcDbLine
 10
101.9861800768905482
 20
147.2638949085678064
 30
0.0
 11
101.9861800768905482
 21
154.2638949085678064
 31
0.0
  0
LINE
  5
219
100
AcDbEntity
  8
Step_02
 62
256
370
-1
 48
1.0
  6
BYLAYER
100
AcDbLine
 10
101.9861800768905198
 20
147.2638949085678064
 30
0.0
 11
108.9861800768904914
 21
147.2638949085678064
 31
0.0
  0
LINE
  5
21A
100
AcDbEntity
  8
Step_02
 62
256
370
-1
 48
1.0
  6
BYLAYER
100
AcDbLine
 10
101.9861800768905482
 20
154.2638949085678064
 30
0.0
 11
98.9861800768905482
 21
154.2638949085678064
 31
0.0
  0
LINE
  5
21B
100
AcDbEntity
  8
Step_02
 62
256
370
-1
 48
1.0
  6
BYLAYER
100
AcDbLine
 10
108.9861800768904914
 20
147.2638949085678064
 30
0.0
 11
108.9861800768904914
 21
150.2638949085678064
 31
0.0
  0
LINE
  5
21C
100
AcDbEntity
  8
Step_02
 62
256
370
-1
 48
1.0
  6
BYLAYER
100
AcDbLine
 10
98.9861800768905482
 20
154.2638949085678064
 30
0.0
 11
98.9861800768905482
 21
147.2638949085678064
 31
0.0
  0
LINE
  5
21D
100
AcDbEntity
  8
Step_02
 62
256
370
-1
 48
1.0
  6
BYLAYER
100
AcDbLine
 10
108.9861800768904914
 20
150.2638949085678064
 30
0.0
 11
101.9861800768903919
 21
150.2638949085678064
 31
0.0
  0
LINE
  5
21E
100
AcDbEntity
  8
Step_02
 62
256
370
-1
 48
1.0
  6
BYLAYER
100
AcDbLine
 10
98.9861800768905482
 20
147.2638949085678064
 30
0.0
 11
101.9861800768905482
 21
154.2638949085678064
 31
0.0
  0
LINE
  5
21F
100
AcDbEntity
  8
Step_02
 62
256
370
-1
 48
1.0
  6
BYLAYER
100
AcDbLine
 10
101.9861800768903919
 20
150.2638949085678064
 30
0.0
 11
108.9861800768904914
 21
147.2638949085678064
 31
0.0
  0
LINE
  5
220
100
AcDbEntity
  8
Step_02
 62
256
370
-1
 48
1.0
  6
BYLAYER
100
AcDbLine
 10
98.9861800768905482
 20
154.2638949085678064
 30
0.0
 11
101.9861800768905482
 21
147.2638949085678064
 31
0.0
  0
LINE
  5
221
100
AcDbEntity
  8
Step_02
 62
256
370
-1
 48
1.0
  6
BYLAYER
100
AcDbLine
 10
108.9861800768904914
 20
150.2638949085678064
 30
0.0
 11
101.9861800768905198
 21
147.2638949085678064
 31
0.0
  0
CIRCLE
  5
222
100
AcDbEntity
  8
Step_02
 62
256
370
-1
 48
1.0
  6
BYLAYER
100
AcDbCircle
 10
103.3234749771693401
 20
150.2638949085678064
 30
0.0
 40
8.2771677604475187
  0
LEADER
  5
223
100
AcDbEntity
  8
Step_02
 62
256
370
-1
 48
1.0
  6
BYLAYER
100
AcDbLeader
  3
Standard
 71
1
 72
0
 73
3
 74
0
 75
0
 40
1.0
 41
10.0
 76
2
 10
87.2035091882737987
 20
142.9736897795797859
 10
95.7817023418340483
 20
146.8531513457212156
1001
ACAD
1000
DSTYLE
1002
{
1070
40
1040
1.0
1002
}
  0
MTEXT
  5
224
100
AcDbEntity
  8
Step_06b
 62
256
370
-1
 48
1.0
  6
BYLAYER
100
AcDbMText
 10
38.0
 20
-32.0
 30
0.0
 40
3.0
 41
0.0
 71
1
 72
1
  1
\H4.00001; Wall #3
  7
textstyle31
 50
0.0
 73
2
 44
1.0
  0
MTEXT
  5
225
100
AcDbEntity
  8
Step_07a
 62
256
370
-1
 48
1.0
  6
BYLAYER
100
AcDbMText
 10
38.0
 20
-32.0
 30
0.0
 40
3.0
 41
0.0
 71
1
 72
1
  1
\H4.00001; Wall #1
  7
textstyle32
 50
0.0
 73
2
 44
1.0
  0
MTEXT
  5
226
100
AcDbEntity
  8
Step_07b
 62
256
370
-1
 48
1.0
  6
BYLAYER
100
AcDbMText
 10
38.0
 20
-32.0
 30
0.0
 40
3.0
 41
0.0
 71
1
 72
1
  1
\H4.00001; Wall #3
  7
textstyle33
 50
0.0
 73
2
 44
1.0
  0
MTEXT
  5
227
100
AcDbEntity
  8
Step_06a
 62
256
370
-1
 48
1.0
  6
BYLAYER
100
AcDbMText
 10
38.0
 20
-32.0
 30
0.0
 40
3.0
 41
0.0
 71
1
 72
1
  1
\H4.00001; Wall #1
  7
textstyle34
 50
0.0
 73
2
 44
1.0
  0
LINE
  5
228
100
AcDbEntity
  8
Step_06a
 62
256
370
-1
 48
1.0
  6
BYLAYER
100
AcDbLine
 10
-2.0
 20
96.0
 30
0.0
 11
5.0
 21
96.0
 31
0.0
  0
LINE
  5
229
100
AcDbEntity
  8
Step_06b
 62
256
370
-1
 48
1.0
  6
BYLAYER
100
AcDbLine
 10
-2.0
 20
51.75
 30
0.0
 11
5.0
 21
51.75
 31
0.0
  0
LINE
  5
22A
100
AcDbEntity
  8
Step_06a
 62
256
370
-1
 48
1.0
  6
BYLAYER
100
AcDbLine
 10
5.0
 20
96.0
 30
0.0
 11
5.0
 21
93.0
 31
0.0
  0
LINE
  5
22B
100
AcDbEntity
  8
Step_06b
 62
256
370
-1
 48
1.0
  6
BYLAYER
100
AcDbLine
 10
5.0
 20
51.75
 30
0.0
 11
5.0
 21
48.75
 31
0.0
  0
LINE
  5
22C
100
AcDbEntity
  8
Step_06a
 62
256
370
-1
 48
1.0
  6
BYLAYER
100
AcDbLine
 10
5.0
 20
93.0
 30
0.0
 11
-2.0
 21
93.0
 31
0.0
  0
LINE
  5
22D
100
AcDbEntity
  8
Step_06b
 62
256
370
-1
 48
1.0
  6
BYLAYER
100
AcDbLine
 10
5.0
 20
48.75
 30
0.0
 11
-2.0
 21
48.75
 31
0.0
  0
LINE
  5
22E
100
AcDbEntity
  8
Step_06a
 62
256
370
-1
 48
1.0
  6
BYLAYER
100
AcDbLine
 10
-2.0
 20
93.0
 30
0.0
 11
-2.0
 21
96.0
 31
0.0
  0
LINE
  5
22F
100
AcDbEntity
  8
Step_06b
 62
256
370
-1
 48
1.0
  6
BYLAYER
100
AcDbLine
 10
-2.0
 20
48.75
 30
0.0
 11
-2.0
 21
51.75
 31
0.0
  0
HATCH
  5
230
100
AcDbEntity
  8
Step_06a
 62
256
370
-1
 48
1.0
  6
BYLAYER
100
AcDbHatch
 10
0.0
 20
0.0
 30
0.0
210
0.0
220
0.0
230
1.0
  2
ACAD_ISO02W100
 70
0
 71
0
 91
1
 92
1
 93
4
 72
1
 10
-2.0
 20
93.0
 11
-2.0
 21
96.0
 72
1
 10
-2.0
 20
96.0
 11
5.0
 21
96.0
 72
1
 10
5.0
 20
96.0
 11
5.0
 21
93.0
 72
1
 10
5.0
 20
93.0
 11
-2.0
 21
93.0
 97
0
 75
0
 76
1
 52
-45.0
 41
0.15
 77
0
 78
1
 53
45.0
 43
0.0
 44
0.0
 45
-0.0883883476483184
 46
0.0883883476483185
 79
0
 98
0
1001
ACAD
1010
0.0
1020
0.0
1030
0
  0
HATCH
  5
231
100
AcDbEntity
  8
Step_06b
 62
256
370
-1
 48
1.0
  6
BYLAYER
100
AcDbHatch
 10
0.0
 20
0.0
 30
0.0
210
0.0
220
0.0
230
1.0
  2
ACAD_ISO02W100
 70
0
 71
0
 91
1
 92
1
 93
4
 72
1
 10
-2.0
 20
48.75
 11
-2.0
 21
51.75
 72
1
 10
-2.0
 20
51.75
 11
5.0
 21
51.75
 72
1
 10
5.0
 20
51.75
 11
5.0
 21
48.75
 72
1
 10
5.0
 20
48.75
 11
-2.0
 21
48.75
 97
0
 75
0
 76
1
 52
315.0
 41
0.15
 77
0
 78
1
 53
45.0
 43
0.0
 44
0.0
 45
-0.0883883476483184
 46
0.0883883476483185
 79
0
 98
0
1001
ACAD
1010
0.0
1020
0.0
1030
0
  0
LEADER
  5
232
100
AcDbEntity
  8
Step_06a
 62
256
370
-1
 48
1.0
  6
BYLAYER
100
AcDbLeader
  3
Standard
 71
1
 72
0
 73
3
 74
0
 75
0
 40
1.0
 41
10.0
 76
3
 10
-2.0
 20
94.5
 10
-15.0
 20
83.0
 10
-13.0
 20
83.0
1001
ACAD
1000
DSTYLE
1002
{
1070
40
1040
1.0
1002
}
  0
LEADER
  5
233
100
AcDbEntity
  8
Step_06b
 62
256
370
-1
 48
1.0
  6
BYLAYER
100
AcDbLeader
  3
Standard
 71
1
 72
0
 73
3
 74
0
 75
0
 40
1.0
 41
10.0
 76
3
 10
-2.0
 20
50.25
 10
-15.0
 20
38.75
 10
-13.0
 20
38.75
1001
ACAD
1000
DSTYLE
1002
{
1070
40
1040
1.0
1002
}
  0
MTEXT
  5
234
100
AcDbEntity
  8
Step_06a
 62
256
370
-1
 48
1.0
  6
BYLAYER
100
AcDbMText
 10
-12.2613443317693935
 20
84.3040905400403631
 30
0.0
 40
3.0
 41
0.0
 71
1
 72
1
  1
\H2.50001;Funky\PBoard
  7
textstyle29
 50
0.0
 73
2
 44
1.0
  0
MTEXT
  5
235
100
AcDbEntity
  8
Step_06b
 62
256
370
-1
 48
1.0
  6
BYLAYER
100
AcDbMText
 10
-12.2613443317693918
 20
40.0540905400403631
 30
0.0
 40
3.0
 41
0.0
 71
1
 72
1
  1
\H2.50001;Funky\PBoard
  7
textstyle30
 50
0.0
 73
2
 44
1.0
  0
ENDSEC
  0
SECTION
  2
OBJECTS
  0
DICTIONARY
  5
C
100
AcDbDictionary
280
0
281
1
  3
ACAD_GROUP
350
D
  3
ACAD_LAYOUT
350
1A
  3
ACAD_MLINESTYLE
350
17
  3
ACAD_PLOTSETTINGS
350
19
  3
ACAD_PLOTSTYLENAME
350
E
  3
AcDbVariableDictionary
350
236
  3
QCAD_OBJECTS
350
237
  0
DICTIONARY
  5
D
100
AcDbDictionary
280
0
281
1
  0
ACDBDICTIONARYWDFLT
  5
E
100
AcDbDictionary
281
1
  3
Normal
350
F
100
AcDbDictionaryWithDefault
340
F
  0
ACDBPLACEHOLDER
  5
F
  0
DICTIONARY
  5
17
100
AcDbDictionary
280
0
281
1
  3
Standard
350
18
  0
MLINESTYLE
  5
18
100
AcDbMlineStyle
  2
STANDARD
 70
0
  3

 62
256
 51
90.0
 52
90.0
 71
2
 49
0.5
 62
256
  6
BYLAYER
 49
-0.5
 62
256
  6
BYLAYER
  0
DICTIONARY
  5
19
100
AcDbDictionary
280
0
281
1
  0
DICTIONARY
  5
1A
100
AcDbDictionary
281
1
  3
Layout1
350
1E
  3
Layout2
350
26
  3
Model
350
22
  0
LAYOUT
  5
1E
100
AcDbPlotSettings
  1

  2
none_device
  4

  6

 40
0.0
 41
0.0
 42
0.0
 43
0.0
 44
0.0
 45
0.0
 46
0.0
 47
0.0
 48
0.0
 49
0.0
140
0.0
141
0.0
142
1.0
143
1.0
 70
688
 72
0
 73
0
 74
5
  7

 75
16
147
1.0
148
0.0
149
0.0
100
AcDbLayout
  1
Layout1
 70
1
 71
1
 10
0.0
 20
0.0
 11
420.0
 21
297.0
 12
0.0
 22
0.0
 32
0.0
 14
100000000000000000000.0
 24
100000000000000000000.0
 34
100000000000000000000.0
 15
-100000000000000000000.0
 25
-100000000000000000000.0
 35
-100000000000000000000.0
146
0.0
 13
0.0
 23
0.0
 33
0.0
 16
1.0
 26
0.0
 36
0.0
 17
0.0
 27
1.0
 37
0.0
 76
0
330
1B
  0
LAYOUT
  5
22
100
AcDbPlotSettings
  1

  2
none_device
  4

  6

 40
0.0
 41
0.0
 42
0.0
 43
0.0
 44
0.0
 45
0.0
 46
0.0
 47
0.0
 48
0.0
 49
0.0
140
0.0
141
0.0
142
1.0
143
1.0
 70
1712
 72
0
 73
0
 74
0
  7

 75
0
147
1.0
148
0.0
149
0.0
100
AcDbLayout
  1
Model
 70
1
 71
0
 10
0.0
 20
0.0
 11
12.0
 21
9.0
 12
0.0
 22
0.0
 32
0.0
 14
0.0
 24
0.0
 34
0.0
 15
0.0
 25
0.0
 35
0.0
146
0.0
 13
0.0
 23
0.0
 33
0.0
 16
1.0
 26
0.0
 36
0.0
 17
0.0
 27
1.0
 37
0.0
 76
0
330
1F
  0
LAYOUT
  5
26
100
AcDbPlotSettings
  1

  2
none_device
  4

  6

 40
0.0
 41
0.0
 42
0.0
 43
0.0
 44
0.0
 45
0.0
 46
0.0
 47
0.0
 48
0.0
 49
0.0
140
0.0
141
0.0
142
1.0
143
1.0
 70
688
 72
0
 73
0
 74
5
  7

 75
16
147
1.0
148
0.0
149
0.0
100
AcDbLayout
  1
Layout2
 70
1
 71
2
 10
0.0
 20
0.0
 11
12.0
 21
9.0
 12
0.0
 22
0.0
 32
0.0
 14
0.0
 24
0.0
 34
0.0
 15
0.0
 25
0.0
 35
0.0
146
0.0
 13
0.0
 23
0.0
 33
0.0
 16
1.0
 26
0.0
 36
0.0
 17
0.0
 27
1.0
 37
0.0
 76
0
330
23
  0
DICTIONARY
  5
236
100
AcDbDictionary
281
1
  3
DIMASSOC
350
239
  3
HIDETEXT
350
238
  0
DICTIONARYVAR
  5
238
100
DictionaryVariables
280
0
  1
2
  0
DICTIONARYVAR
  5
239
100
DictionaryVariables
280
0
  1
1
  0
DICTIONARY
  5
237
100
AcDbDictionary
281
1
  3
ColorSettings/BackgroundColor
350
23A
  3
ColorSettings/ColorMode
350
23B
  3
DimensionSettings/AngularFormat
350
23C
  3
DimensionSettings/AngularPrecision
350
23D
  3
DimensionSettings/DecimalPoint
350
23E
  3
DimensionSettings/DimensionFont
350
23F
  3
DimensionSettings/DimensionTextColor
350
240
  3
DimensionSettings/KeepProportions
350
241
  3
DimensionSettings/LinearFormat
350
242
  3
DimensionSettings/LinearPrecision
350
243
  3
Grid/DisplayGrid00
350
244
  3
Grid/DisplayGrid01
350
245
  3
Grid/DisplayGrid02
350
246
  3
Grid/DisplayGrid03
350
247
  3
Grid/GridSpacingX00
350
248
  3
Grid/GridSpacingX01
350
249
  3
Grid/GridSpacingX02
350
24A
  3
Grid/GridSpacingX03
350
24B
  3
Grid/GridSpacingY00
350
24C
  3
Grid/GridSpacingY01
350
24D
  3
Grid/GridSpacingY02
350
24E
  3
Grid/GridSpacingY03
350
24F
  3
Grid/IsometricGrid00
350
250
  3
Grid/IsometricGrid01
350
251
  3
Grid/IsometricGrid02
350
252
  3
Grid/IsometricGrid03
350
253
  3
Grid/IsometricProjection00
350
254
  3
Grid/IsometricProjection01
350
255
  3
Grid/IsometricProjection02
350
256
  3
Grid/IsometricProjection03
350
257
  3
Grid/MetaGridSpacingX00
350
258
  3
Grid/MetaGridSpacingX01
350
259
  3
Grid/MetaGridSpacingX02
350
25A
  3
Grid/MetaGridSpacingX03
350
25B
  3
Grid/MetaGridSpacingY00
350
25C
  3
Grid/MetaGridSpacingY01
350
25D
  3
Grid/MetaGridSpacingY02
350
25E
  3
Grid/MetaGridSpacingY03
350
25F
  3
MultiPageSettings/Columns
350
260
  3
MultiPageSettings/GlueMarginsBottom
350
261
  3
MultiPageSettings/GlueMarginsLeft
350
262
  3
MultiPageSettings/GlueMarginsRight
350
263
  3
MultiPageSettings/GlueMarginsTop
350
264
  3
MultiPageSettings/PrintCropMarks
350
265
  3
MultiPageSettings/Rows
350
266
  3
PageSettings/OffsetX
350
267
  3
PageSettings/OffsetY
350
268
  3
PageSettings/PageOrientation
350
269
  3
PageSettings/PaperHeight
350
26A
  3
PageSettings/PaperSizeAccepted
350
26B
  3
PageSettings/PaperSizeName
350
26C
  3
PageSettings/PaperWidth
350
26D
  3
PageSettings/PointSize
350
26E
  3
PageSettings/Scale
350
26F
  3
PageSettings/ShowPaperBorders
350
270
  3
PageTagSettings/EnablePageTags
350
271
  3
PageTagSettings/TagAlignment
350
272
  3
PageTagSettings/TagFont
350
273
  3
PageTagSettings/TagPosition
350
274
  3
QCADVersion
350
275
  3
UnitSettings/PaperUnit
350
276
  3
ViewportCenter
350
277
  3
ViewportHeight
350
278
  3
ViewportWidth
350
279
  0
XRECORD
  5
23A
330
237
100
AcDbXrecord
280
1
1000
White
  0
XRECORD
  5
23B
330
237
100
AcDbXrecord
280
1
1000
FullColor
  0
XRECORD
  5
23C
330
237
100
AcDbXrecord
280
1
 90
0
  0
XRECORD
  5
23D
330
237
100
AcDbXrecord
280
1
 90
0
  0
XRECORD
  5
23E
330
237
100
AcDbXrecord
280
1
 90
46
  0
XRECORD
  5
23F
330
237
100
AcDbXrecord
280
1
1000
DejaVu Sans
  0
XRECORD
  5
240
330
237
100
AcDbXrecord
280
1
1000
By Layer
  0
XRECORD
  5
241
330
237
100
AcDbXrecord
280
1
290
0
  0
XRECORD
  5
242
330
237
100
AcDbXrecord
280
1
 90
3
  0
XRECORD
  5
243
330
237
100
AcDbXrecord
280
1
 90
4
  0
XRECORD
  5
244
330
237
100
AcDbXrecord
280
1
290
1
  0
XRECORD
  5
245
330
237
100
AcDbXrecord
280
1
290
1
  0
XRECORD
  5
246
330
237
100
AcDbXrecord
280
1
290
1
  0
XRECORD
  5
247
330
237
100
AcDbXrecord
280
1
290
1
  0
XRECORD
  5
248
330
237
100
AcDbXrecord
280
1
1000
auto
  0
XRECORD
  5
249
330
237
100
AcDbXrecord
280
1
1000
auto
  0
XRECORD
  5
24A
330
237
100
AcDbXrecord
280
1
1000
auto
  0
XRECORD
  5
24B
330
237
100
AcDbXrecord
280
1
1000
auto
  0
XRECORD
  5
24C
330
237
100
AcDbXrecord
280
1
1000
auto
  0
XRECORD
  5
24D
330
237
100
AcDbXrecord
280
1
1000
auto
  0
XRECORD
  5
24E
330
237
100
AcDbXrecord
280
1
1000
auto
  0
XRECORD
  5
24F
330
237
100
AcDbXrecord
280
1
1000
auto
  0
XRECORD
  5
250
330
237
100
AcDbXrecord
280
1
290
0
  0
XRECORD
  5
251
330
237
100
AcDbXrecord
280
1
290
0
  0
XRECORD
  5
252
330
237
100
AcDbXrecord
280
1
290
0
  0
XRECORD
  5
253
330
237
100
AcDbXrecord
280
1
290
0
  0
XRECORD
  5
254
330
237
100
AcDbXrecord
280
1
 90
65537
  0
XRECORD
  5
255
330
237
100
AcDbXrecord
280
1
 90
65537
  0
XRECORD
  5
256
330
237
100
AcDbXrecord
280
1
 90
65537
  0
XRECORD
  5
257
330
237
100
AcDbXrecord
280
1
 90
65537
  0
XRECORD
  5
258
330
237
100
AcDbXrecord
280
1
1000
auto
  0
XRECORD
  5
259
330
237
100
AcDbXrecord
280
1
1000
auto
  0
XRECORD
  5
25A
330
237
100
AcDbXrecord
280
1
1000
auto
  0
XRECORD
  5
25B
330
237
100
AcDbXrecord
280
1
1000
auto
  0
XRECORD
  5
25C
330
237
100
AcDbXrecord
280
1
1000
auto
  0
XRECORD
  5
25D
330
237
100
AcDbXrecord
280
1
1000
auto
  0
XRECORD
  5
25E
330
237
100
AcDbXrecord
280
1
1000
auto
  0
XRECORD
  5
25F
330
237
100
AcDbXrecord
280
1
1000
auto
  0
XRECORD
  5
260
330
237
100
AcDbXrecord
280
1
 90
1
  0
XRECORD
  5
261
330
237
100
AcDbXrecord
280
1
 40
0.5
  0
XRECORD
  5
262
330
237
100
AcDbXrecord
280
1
 40
0.5
  0
XRECORD
  5
263
330
237
100
AcDbXrecord
280
1
 40
0.5
  0
XRECORD
  5
264
330
237
100
AcDbXrecord
280
1
 40
0.5
  0
XRECORD
  5
265
330
237
100
AcDbXrecord
280
1
290
0
  0
XRECORD
  5
266
330
237
100
AcDbXrecord
280
1
 90
1
  0
XRECORD
  5
267
330
237
100
AcDbXrecord
280
1
 40
-26.6051614383603408
  0
XRECORD
  5
268
330
237
100
AcDbXrecord
280
1
 40
-39.2413194116715474
  0
XRECORD
  5
269
330
237
100
AcDbXrecord
280
1
1000
Portrait
  0
XRECORD
  5
26A
330
237
100
AcDbXrecord
280
1
1000
9
  0
XRECORD
  5
26B
330
237
100
AcDbXrecord
280
1
290
1
  0
XRECORD
  5
26C
330
237
100
AcDbXrecord
280
1
1000
Custom
  0
XRECORD
  5
26D
330
237
100
AcDbXrecord
280
1
1000
6.5
  0
XRECORD
  5
26E
330
237
100
AcDbXrecord
280
1
1000
0.5
  0
XRECORD
  5
26F
330
237
100
AcDbXrecord
280
1
1000
0.045
  0
XRECORD
  5
270
330
237
100
AcDbXrecord
280
1
290
1
  0
XRECORD
  5
271
330
237
100
AcDbXrecord
280
1
290
0
  0
XRECORD
  5
272
330
237
100
AcDbXrecord
280
1
1000
Inside
  0
XRECORD
  5
273
330
237
100
AcDbXrecord
280
1
1000
Arial,10,-1,5,50,0,0,0,0,0
  0
XRECORD
  5
274
330
237
100
AcDbXrecord
280
1
1000
TopLeft
  0
XRECORD
  5
275
330
237
100
AcDbXrecord
280
1
1000
3.28.1
  0
XRECORD
  5
276
330
237
100
AcDbXrecord
280
1
 90
1
  0
XRECORD
  5
278
330
237
100
AcDbXrecord
280
1
 40
229.5213760735582298
  0
XRECORD
  5
279
330
237
100
AcDbXrecord
280
1
 40
293.3344940850407738
  0
IMAGEDEF
  5
DE
100
AcDbRasterImageDef
 90
0
  1
/home/means/Documents/TinyHomes/icons/NailGun.png
 10
14.0
 20
14.0
 11
1.0
 21
1.0
280
1
281
0
  0
IMAGEDEF
  5
E0
100
AcDbRasterImageDef
 90
0
  1
/home/means/Documents/TinyHomes/icons/NailGun.png
 10
14.0
 20
14.0
 11
1.0
 21
1.0
280
1
281
0
  0
IMAGEDEF
  5
E2
100
AcDbRasterImageDef
 90
0
  1
/home/means/Documents/TinyHomes/icons/NailGun.png
 10
14.0
 20
14.0
 11
1.0
 21
1.0
280
1
281
0
  0
IMAGEDEF
  5
E4
100
AcDbRasterImageDef
 90
0
  1
/home/means/Documents/TinyHomes/icons/NailGun.png
 10
14.0
 20
14.0
 11
1.0
 21
1.0
280
1
281
0
  0
IMAGEDEF
  5
E6
100
AcDbRasterImageDef
 90
0
  1
/home/means/Documents/TinyHomes/icons/NailGun.png
 10
14.0
 20
14.0
 11
1.0
 21
1.0
280
1
281
0
  0
IMAGEDEF
  5
E8
100
AcDbRasterImageDef
 90
0
  1
/home/means/Documents/TinyHomes/icons/NailGun.png
 10
14.0
 20
14.0
 11
1.0
 21
1.0
280
1
281
0
  0
IMAGEDEF
  5
EA
100
AcDbRasterImageDef
 90
0
  1
/home/means/Documents/TinyHomes/icons/NailGun.png
 10
14.0
 20
14.0
 11
1.0
 21
1.0
280
1
281
0
  0
IMAGEDEF
  5
EC
100
AcDbRasterImageDef
 90
0
  1
/home/means/Documents/TinyHomes/icons/NailGun.png
 10
14.0
 20
14.0
 11
1.0
 21
1.0
280
1
281
0
  0
IMAGEDEF
  5
EE
100
AcDbRasterImageDef
 90
0
  1
/home/means/Documents/TinyHomes/icons/NailGun.png
 10
14.0
 20
14.0
 11
1.0
 21
1.0
280
1
281
0
  0
IMAGEDEF
  5
F0
100
AcDbRasterImageDef
 90
0
  1
/home/means/Documents/TinyHomes/icons/NailGun.png
 10
14.0
 20
14.0
 11
1.0
 21
1.0
280
1
281
0
  0
IMAGEDEF
  5
F2
100
AcDbRasterImageDef
 90
0
  1
/home/means/Documents/TinyHomes/icons/NailGun.png
 10
14.0
 20
14.0
 11
1.0
 21
1.0
280
1
281
0
  0
IMAGEDEF
  5
F4
100
AcDbRasterImageDef
 90
0
  1
/home/means/Documents/TinyHomes/icons/NailGun.png
 10
14.0
 20
14.0
 11
1.0
 21
1.0
280
1
281
0
  0
IMAGEDEF
  5
F6
100
AcDbRasterImageDef
 90
0
  1
/home/means/Documents/TinyHomes/icons/NailGun.png
 10
14.0
 20
14.0
 11
1.0
 21
1.0
280
1
281
0
  0
IMAGEDEF
  5
F8
100
AcDbRasterImageDef
 90
0
  1
/home/means/Documents/TinyHomes/icons/NailGun.png
 10
14.0
 20
14.0
 11
1.0
 21
1.0
280
1
281
0
  0
IMAGEDEF
  5
119
100
AcDbRasterImageDef
 90
0
  1
/home/means/Documents/TinyHomes/icons/Screw.png
 10
2.0
 20
5.0
 11
1.0
 21
1.0
280
1
281
0
  0
IMAGEDEF
  5
11B
100
AcDbRasterImageDef
 90
0
  1
/home/means/Documents/TinyHomes/icons/Screw.png
 10
2.0
 20
5.0
 11
1.0
 21
1.0
280
1
281
0
  0
IMAGEDEF
  5
11D
100
AcDbRasterImageDef
 90
0
  1
/home/means/Documents/TinyHomes/icons/Screw.png
 10
2.0
 20
5.0
 11
1.0
 21
1.0
280
1
281
0
  0
IMAGEDEF
  5
11F
100
AcDbRasterImageDef
 90
0
  1
/home/means/Documents/TinyHomes/icons/Screw.png
 10
2.0
 20
5.0
 11
1.0
 21
1.0
280
1
281
0
  0
IMAGEDEF
  5
121
100
AcDbRasterImageDef
 90
0
  1
/home/means/Documents/TinyHomes/icons/Screw.png
 10
2.0
 20
5.0
 11
1.0
 21
1.0
280
1
281
0
  0
IMAGEDEF
  5
123
100
AcDbRasterImageDef
 90
0
  1
/home/means/Documents/TinyHomes/icons/Screw.png
 10
2.0
 20
5.0
 11
1.0
 21
1.0
280
1
281
0
  0
IMAGEDEF
  5
125
100
AcDbRasterImageDef
 90
0
  1
/home/means/Documents/TinyHomes/icons/Screw.png
 10
2.0
 20
5.0
 11
1.0
 21
1.0
280
1
281
0
  0
IMAGEDEF
  5
127
100
AcDbRasterImageDef
 90
0
  1
/home/means/Documents/TinyHomes/icons/Screw.png
 10
2.0
 20
5.0
 11
1.0
 21
1.0
280
1
281
0
  0
IMAGEDEF
  5
129
100
AcDbRasterImageDef
 90
0
  1
/home/means/Documents/TinyHomes/icons/Screw.png
 10
2.0
 20
5.0
 11
1.0
 21
1.0
280
1
281
0
  0
IMAGEDEF
  5
12B
100
AcDbRasterImageDef
 90
0
  1
/home/means/Documents/TinyHomes/icons/Screw.png
 10
2.0
 20
5.0
 11
1.0
 21
1.0
280
1
281
0
  0
IMAGEDEF
  5
12D
100
AcDbRasterImageDef
 90
0
  1
/home/means/Documents/TinyHomes/icons/Screw.png
 10
2.0
 20
5.0
 11
1.0
 21
1.0
280
1
281
0
  0
IMAGEDEF
  5
12F
100
AcDbRasterImageDef
 90
0
  1
/home/means/Documents/TinyHomes/icons/Screw.png
 10
2.0
 20
5.0
 11
1.0
 21
1.0
280
1
281
0
  0
IMAGEDEF
  5
131
100
AcDbRasterImageDef
 90
0
  1
/home/means/Documents/TinyHomes/icons/Screw.png
 10
2.0
 20
5.0
 11
1.0
 21
1.0
280
1
281
0
  0
IMAGEDEF
  5
133
100
AcDbRasterImageDef
 90
0
  1
/home/means/Documents/TinyHomes/icons/Screw.png
 10
2.0
 20
5.0
 11
1.0
 21
1.0
280
1
281
0
  0
IMAGEDEF
  5
135
100
AcDbRasterImageDef
 90
0
  1
/home/means/Documents/TinyHomes/icons/Screw.png
 10
2.0
 20
5.0
 11
1.0
 21
1.0
280
1
281
0
  0
IMAGEDEF
  5
137
100
AcDbRasterImageDef
 90
0
  1
/home/means/Documents/TinyHomes/icons/Screw.png
 10
2.0
 20
5.0
 11
1.0
 21
1.0
280
1
281
0
  0
IMAGEDEF
  5
139
100
AcDbRasterImageDef
 90
0
  1
/home/means/Documents/TinyHomes/icons/Screw.png
 10
2.0
 20
5.0
 11
1.0
 21
1.0
280
1
281
0
  0
IMAGEDEF
  5
13B
100
AcDbRasterImageDef
 90
0
  1
/home/means/Documents/TinyHomes/icons/Screw.png
 10
2.0
 20
5.0
 11
1.0
 21
1.0
280
1
281
0
  0
IMAGEDEF
  5
13D
100
AcDbRasterImageDef
 90
0
  1
/home/means/Documents/TinyHomes/icons/Screw.png
 10
2.0
 20
5.0
 11
1.0
 21
1.0
280
1
281
0
  0
IMAGEDEF
  5
13F
100
AcDbRasterImageDef
 90
0
  1
/home/means/Documents/TinyHomes/icons/Screw.png
 10
2.0
 20
5.0
 11
1.0
 21
1.0
280
1
281
0
  0
IMAGEDEF
  5
141
100
AcDbRasterImageDef
 90
0
  1
/home/means/Documents/TinyHomes/icons/Screw.png
 10
2.0
 20
5.0
 11
1.0
 21
1.0
280
1
281
0
  0
IMAGEDEF
  5
143
100
AcDbRasterImageDef
 90
0
  1
/home/means/Documents/TinyHomes/icons/Screw.png
 10
2.0
 20
5.0
 11
1.0
 21
1.0
280
1
281
0
  0
IMAGEDEF
  5
145
100
AcDbRasterImageDef
 90
0
  1
/home/means/Documents/TinyHomes/icons/Screw.png
 10
2.0
 20
5.0
 11
1.0
 21
1.0
280
1
281
0
  0
IMAGEDEF
  5
147
100
AcDbRasterImageDef
 90
0
  1
/home/means/Documents/TinyHomes/icons/Screw.png
 10
2.0
 20
5.0
 11
1.0
 21
1.0
280
1
281
0
  0
IMAGEDEF
  5
176
100
AcDbRasterImageDef
 90
0
  1
/home/means/Documents/TinyHomes/icons/Pencil.png
 10
7.0
 20
7.0
 11
1.0
 21
1.0
280
1
281
0
  0
IMAGEDEF
  5
178
100
AcDbRasterImageDef
 90
0
  1
/home/means/Documents/TinyHomes/icons/Pencil.png
 10
7.0
 20
7.0
 11
1.0
 21
1.0
280
1
281
0
  0
IMAGEDEF
  5
17A
100
AcDbRasterImageDef
 90
0
  1
/home/means/Documents/TinyHomes/icons/Pencil.png
 10
7.0
 20
7.0
 11
1.0
 21
1.0
280
1
281
0
  0
IMAGEDEF
  5
17C
100
AcDbRasterImageDef
 90
0
  1
/home/means/Documents/TinyHomes/icons/Pencil.png
 10
7.0
 20
7.0
 11
1.0
 21
1.0
280
1
281
0
  0
IMAGEDEF
  5
17E
100
AcDbRasterImageDef
 90
0
  1
/home/means/Documents/TinyHomes/icons/Pencil.png
 10
7.0
 20
7.0
 11
1.0
 21
1.0
280
1
281
0
  0
IMAGEDEF
  5
180
100
AcDbRasterImageDef
 90
0
  1
/home/means/Documents/TinyHomes/icons/Pencil.png
 10
7.0
 20
7.0
 11
1.0
 21
1.0
280
1
281
0
  0
IMAGEDEF
  5
182
100
AcDbRasterImageDef
 90
0
  1
/home/means/Documents/TinyHomes/icons/Pencil.png
 10
7.0
 20
7.0
 11
1.0
 21
1.0
280
1
281
0
  0
IMAGEDEF
  5
184
100
AcDbRasterImageDef
 90
0
  1
/home/means/Documents/TinyHomes/icons/Pencil.png
 10
7.0
 20
7.0
 11
1.0
 21
1.0
280
1
281
0
  0
IMAGEDEF
  5
186
100
AcDbRasterImageDef
 90
0
  1
/home/means/Documents/TinyHomes/icons/Pencil.png
 10
7.0
 20
7.0
 11
1.0
 21
1.0
280
1
281
0
  0
IMAGEDEF
  5
188
100
AcDbRasterImageDef
 90
0
  1
/home/means/Documents/TinyHomes/icons/Pencil.png
 10
7.0
 20
7.0
 11
1.0
 21
1.0
280
1
281
0
  0
IMAGEDEF
  5
1CE
100
AcDbRasterImageDef
 90
0
  1
/home/means/Documents/TinyHomes/icons/Router.png
 10
9.0
 20
9.0
 11
1.0
 21
1.0
280
1
281
0
  0
IMAGEDEF
  5
1D0
100
AcDbRasterImageDef
 90
0
  1
/home/means/Documents/TinyHomes/icons/Router.png
 10
9.0
 20
9.0
 11
1.0
 21
1.0
280
1
281
0
  0
IMAGEDEF
  5
1D2
100
AcDbRasterImageDef
 90
0
  1
/home/means/Documents/TinyHomes/icons/Router.png
 10
9.0
 20
9.0
 11
1.0
 21
1.0
280
1
281
0
  0
IMAGEDEF
  5
1D4
100
AcDbRasterImageDef
 90
0
  1
/home/means/Documents/TinyHomes/icons/Router.png
 10
9.0
 20
9.0
 11
1.0
 21
1.0
280
1
281
0
  0
IMAGEDEF
  5
1F2
100
AcDbRasterImageDef
 90
0
  1
/home/means/Documents/TinyHomes/icons/staple-gun.png
 10
16.0
 20
16.0
 11
1.0
 21
1.0
280
1
281
0
  0
ENDSEC
  0
EOF
