999
dxflib 3.26.4.0
  0
SECTION
  2
HEADER
  9
$ACADVER
  1
AC1015
  9
$HANDSEED
  5
FFFF
  9
$DIMADEC
 70
0
  9
$DIMASZ
 40
2.5
  9
$DIMATFIT
 70
0
  9
$DIMAUNIT
 70
0
  9
$DIMAZIN
 70
2
  9
$DIMBLK
  1
0
  9
$DIMBLK1
  1
0
  9
$DIMBLK2
  1
0
  9
$DIMDEC
 70
4
  9
$DIMDLI
 40
5.0
  9
$DIMDSEP
 70
46
  9
$DIMEXE
 40
1.25
  9
$DIMEXO
 40
0.625
  9
$DIMGAP
 40
0.625
  9
$DIMLFAC
 40
0.0
  9
$DIMLUNIT
 70
2
  9
$DIMSCALE
 40
1.0
  9
$DIMTAD
 70
1
  9
$DIMTIH
 70
0
  9
$DIMTSZ
 40
0.0
  9
$DIMTXT
 40
2.5
  9
$DIMZIN
 70
8
  9
$DWGCODEPAGE
  3
ANSI_1252
  9
$INSUNITS
 70
1
  9
$LTSCALE
 40
1.0
  9
$MAXACTVP
 70
64
  9
$MEASUREMENT
 70
0
  9
$MIRRTEXT
 70
0
  9
$PDMODE
 70
0
  9
$PDSIZE
 40
0.0
  0
ENDSEC
  0
SECTION
  2
TABLES
  0
TABLE
  2
VPORT
  5
8
100
AcDbSymbolTable
 70
1
  0
VPORT
  5
30
100
AcDbSymbolTableRecord
100
AcDbViewportTableRecord
  2
*Active
 70
0
 10
0.0
 20
0.0
 11
1.0
 21
1.0
 12
286.3055555555554861
 22
148.5
 13
0.0
 23
0.0
 14
10.0
 24
10.0
 15
10.0
 25
10.0
 16
0.0
 26
0.0
 36
1.0
 17
0.0
 27
0.0
 37
0.0
 40
297.0
 41
1.92798353909465
 42
50.0
 43
0.0
 44
0.0
 50
0.0
 51
0.0
 71
0
 72
100
 73
1
 74
3
 75
1
 76
1
 77
0
 78
0
281
0
 65
1
110
0.0
120
0.0
130
0.0
111
1.0
121
0.0
131
0.0
112
0.0
122
1.0
132
0.0
 79
0
146
0.0
  0
ENDTAB
  0
TABLE
  2
LTYPE
  5
5
100
AcDbSymbolTable
 70
41
  0
LTYPE
  5
16
100
AcDbSymbolTableRecord
100
AcDbLinetypeTableRecord
  2
Continuous
 70
0
  3
Solid line
 72
65
 73
0
 40
0.0
  0
LTYPE
  5
31
100
AcDbSymbolTableRecord
100
AcDbLinetypeTableRecord
  2
DASHDOTX2
 70
0
  3
Dash dot (2x) ____  .  ____  .  ____  .  ___
 72
65
 73
4
 40
2.0
 49
1.0
 74
0
 49
-0.45
 74
0
 49
0.1
 74
0
 49
-0.45
 74
0
  0
LTYPE
  5
32
100
AcDbSymbolTableRecord
100
AcDbLinetypeTableRecord
  2
CENTER
 70
0
  3
Center ____ _ ____ _ ____ _ ____ _ ____ _ ____
 72
65
 73
4
 40
2.0
 49
1.25
 74
0
 49
-0.25
 74
0
 49
0.25
 74
0
 49
-0.25
 74
0
  0
LTYPE
  5
33
100
AcDbSymbolTableRecord
100
AcDbLinetypeTableRecord
  2
CENTER2
 70
0
  3
Center (.5x) ___ _ ___ _ ___ _ ___ _ ___ _ ___
 72
65
 73
4
 40
1.125
 49
0.75
 74
0
 49
-0.125
 74
0
 49
0.125
 74
0
 49
-0.125
 74
0
  0
LTYPE
  5
34
100
AcDbSymbolTableRecord
100
AcDbLinetypeTableRecord
  2
DASHDOT
 70
0
  3
Dash dot __ . __ . __ . __ . __ . __ . __ . __
 72
65
 73
4
 40
1.0
 49
0.5
 74
0
 49
-0.2
 74
0
 49
0.1
 74
0
 49
-0.2
 74
0
  0
LTYPE
  5
35
100
AcDbSymbolTableRecord
100
AcDbLinetypeTableRecord
  2
DOT
 70
0
  3
Dot . . . . . . . . . . . . . . . . . . . . . . . .
 72
65
 73
2
 40
0.25
 49
0.1
 74
0
 49
-0.15
 74
0
  0
LTYPE
  5
36
100
AcDbSymbolTableRecord
100
AcDbLinetypeTableRecord
  2
ACAD_ISO06W100
 70
0
  3
ISO long-dash triple-dot ____ ... ____ ... ____
 72
65
 73
8
 40
36.0000000000000071
 49
24.0
 74
0
 49
-2.9500000000000002
 74
0
 49
0.1
 74
0
 49
-2.9000000000000004
 74
0
 49
0.1
 74
0
 49
-2.9000000000000004
 74
0
 49
0.1
 74
0
 49
-2.9500000000000002
 74
0
  0
LTYPE
  5
37
100
AcDbSymbolTableRecord
100
AcDbLinetypeTableRecord
  2
ACAD_ISO02W100
 70
0
  3
ISO dash __ __ __ __ __ __ __ __ __ __ __ __ __
 72
65
 73
2
 40
15.0
 49
12.0
 74
0
 49
-3.0
 74
0
  0
LTYPE
  5
15
100
AcDbSymbolTableRecord
100
AcDbLinetypeTableRecord
  2
BYLAYER
 70
0
  3

 72
65
 73
0
 40
0.0
  0
LTYPE
  5
38
100
AcDbSymbolTableRecord
100
AcDbLinetypeTableRecord
  2
DIVIDEX2
 70
0
  3
Divide (2x) ________  .  .  ________  .  .  _
 72
65
 73
6
 40
2.5000000000000004
 49
1.0
 74
0
 49
-0.45
 74
0
 49
0.1
 74
0
 49
-0.4
 74
0
 49
0.1
 74
0
 49
-0.45
 74
0
  0
LTYPE
  5
39
100
AcDbSymbolTableRecord
100
AcDbLinetypeTableRecord
  2
PHANTOM
 70
0
  3
Phantom ______  __  __  ______  __  __  ______ 
 72
65
 73
6
 40
2.5
 49
1.25
 74
0
 49
-0.25
 74
0
 49
0.25
 74
0
 49
-0.25
 74
0
 49
0.25
 74
0
 49
-0.25
 74
0
  0
LTYPE
  5
3A
100
AcDbSymbolTableRecord
100
AcDbLinetypeTableRecord
  2
ACAD_ISO03W100
 70
0
  3
ISO dash space __    __    __    __    __    __
 72
65
 73
2
 40
30.0
 49
12.0
 74
0
 49
-18.0
 74
0
  0
LTYPE
  5
3B
100
AcDbSymbolTableRecord
100
AcDbLinetypeTableRecord
  2
DASHED
 70
0
  3
Dashed __ __ __ __ __ __ __ __ __ __ __ __ __ _
 72
65
 73
2
 40
0.75
 49
0.5
 74
0
 49
-0.25
 74
0
  0
LTYPE
  5
3C
100
AcDbSymbolTableRecord
100
AcDbLinetypeTableRecord
  2
ACAD_ISO13W100
 70
0
  3
ISO double-dash double-dot __ __ . . __ __ . . _
 72
65
 73
8
 40
36.0000000000000071
 49
12.0
 74
0
 49
-3.0
 74
0
 49
12.0
 74
0
 49
-2.9500000000000002
 74
0
 49
0.1
 74
0
 49
-2.9000000000000004
 74
0
 49
0.1
 74
0
 49
-2.9500000000000002
 74
0
  0
LTYPE
  5
3D
100
AcDbSymbolTableRecord
100
AcDbLinetypeTableRecord
  2
DOT2
 70
0
  3
Dot (.5x) ........................................
 72
65
 73
2
 40
0.125
 49
0.1
 74
0
 49
-0.025
 74
0
  0
LTYPE
  5
3E
100
AcDbSymbolTableRecord
100
AcDbLinetypeTableRecord
  2
ACAD_ISO12W100
 70
0
  3
ISO dash double-dot __ . . __ . . __ . . __ . . 
 72
65
 73
6
 40
21.0
 49
12.0
 74
0
 49
-2.9500000000000002
 74
0
 49
0.1
 74
0
 49
-2.9000000000000004
 74
0
 49
0.1
 74
0
 49
-2.9500000000000002
 74
0
  0
LTYPE
  5
3F
100
AcDbSymbolTableRecord
100
AcDbLinetypeTableRecord
  2
BORDER
 70
0
  3
Border __ __ . __ __ . __ __ . __ __ . __ __ .
 72
65
 73
6
 40
1.75
 49
0.5
 74
0
 49
-0.25
 74
0
 49
0.5
 74
0
 49
-0.2
 74
0
 49
0.1
 74
0
 49
-0.2
 74
0
  0
LTYPE
  5
40
100
AcDbSymbolTableRecord
100
AcDbLinetypeTableRecord
  2
ACAD_ISO08W100
 70
0
  3
ISO long-dash short-dash ____ __ ____ __ ____ _
 72
65
 73
4
 40
36.0
 49
24.0
 74
0
 49
-3.0
 74
0
 49
6.0
 74
0
 49
-3.0
 74
0
  0
LTYPE
  5
41
100
AcDbSymbolTableRecord
100
AcDbLinetypeTableRecord
  2
ACAD_ISO15W100
 70
0
  3
ISO double-dash triple-dot __ __ . . . __ __ . .
 72
65
 73
10
 40
39.0000000000000071
 49
12.0
 74
0
 49
-3.0
 74
0
 49
12.0
 74
0
 49
-2.9500000000000002
 74
0
 49
0.1
 74
0
 49
-2.9000000000000004
 74
0
 49
0.1
 74
0
 49
-2.9000000000000004
 74
0
 49
0.1
 74
0
 49
-2.9500000000000002
 74
0
  0
LTYPE
  5
42
100
AcDbSymbolTableRecord
100
AcDbLinetypeTableRecord
  2
DASHDOT2
 70
0
  3
Dash dot (.5x) _._._._._._._._._._._._._._._.
 72
65
 73
4
 40
0.5
 49
0.25
 74
0
 49
-0.075
 74
0
 49
0.1
 74
0
 49
-0.075
 74
0
  0
LTYPE
  5
43
100
AcDbSymbolTableRecord
100
AcDbLinetypeTableRecord
  2
DIVIDE
 70
0
  3
Divide ____ . . ____ . . ____ . . ____ . . ____
 72
65
 73
6
 40
1.25
 49
0.5
 74
0
 49
-0.2
 74
0
 49
0.1
 74
0
 49
-0.15
 74
0
 49
0.1
 74
0
 49
-0.2
 74
0
  0
LTYPE
  5
44
100
AcDbSymbolTableRecord
100
AcDbLinetypeTableRecord
  2
DIVIDE2
 70
0
  3
Divide (.5x) __..__..__..__..__..__..__..__.._
 72
65
 73
6
 40
0.625
 49
0.25
 74
0
 49
-0.075
 74
0
 49
0.1
 74
0
 49
-0.025
 74
0
 49
0.1
 74
0
 49
-0.075
 74
0
  0
LTYPE
  5
45
100
AcDbSymbolTableRecord
100
AcDbLinetypeTableRecord
  2
BORDERX2
 70
0
  3
Border (2x) ____  ____  .  ____  ____  .  ___
 72
65
 73
6
 40
3.5000000000000004
 49
1.0
 74
0
 49
-0.5
 74
0
 49
1.0
 74
0
 49
-0.45
 74
0
 49
0.1
 74
0
 49
-0.45
 74
0
  0
LTYPE
  5
46
100
AcDbSymbolTableRecord
100
AcDbLinetypeTableRecord
  2
ACAD_ISO05W100
 70
0
  3
ISO long-dash double-dot ____ .. ____ .. ____ . 
 72
65
 73
6
 40
33.0000000000000071
 49
24.0
 74
0
 49
-2.9500000000000002
 74
0
 49
0.1
 74
0
 49
-2.9000000000000004
 74
0
 49
0.1
 74
0
 49
-2.9500000000000002
 74
0
  0
LTYPE
  5
47
100
AcDbSymbolTableRecord
100
AcDbLinetypeTableRecord
  2
ACAD_ISO11W100
 70
0
  3
ISO double-dash dot __ __ . __ __ . __ __ . __ _
 72
65
 73
6
 40
33.0
 49
12.0
 74
0
 49
-3.0
 74
0
 49
12.0
 74
0
 49
-2.9500000000000002
 74
0
 49
0.1
 74
0
 49
-2.9500000000000002
 74
0
  0
LTYPE
  5
48
100
AcDbSymbolTableRecord
100
AcDbLinetypeTableRecord
  2
PHANTOMX2
 70
0
  3
Phantom (2x) ____________    ____    ____   _
 72
65
 73
6
 40
5.0
 49
2.5
 74
0
 49
-0.5
 74
0
 49
0.5
 74
0
 49
-0.5
 74
0
 49
0.5
 74
0
 49
-0.5
 74
0
  0
LTYPE
  5
49
100
AcDbSymbolTableRecord
100
AcDbLinetypeTableRecord
  2
BORDER2
 70
0
  3
Border (.5x) __.__.__.__.__.__.__.__.__.__.__.
 72
65
 73
6
 40
0.8749999999999999
 49
0.25
 74
0
 49
-0.125
 74
0
 49
0.25
 74
0
 49
-0.075
 74
0
 49
0.1
 74
0
 49
-0.075
 74
0
  0
LTYPE
  5
4A
100
AcDbSymbolTableRecord
100
AcDbLinetypeTableRecord
  2
HIDDEN
 70
0
  3
Hidden __ __ __ __ __ __ __ __ __ __ __ __ __ __
 72
65
 73
2
 40
0.375
 49
0.25
 74
0
 49
-0.125
 74
0
  0
LTYPE
  5
4B
100
AcDbSymbolTableRecord
100
AcDbLinetypeTableRecord
  2
HIDDEN2
 70
0
  3
Hidden (.5x) _ _ _ _ _ _ _ _ _ _ _ _ _ _ _ _ _ 
 72
65
 73
2
 40
0.1875
 49
0.125
 74
0
 49
-0.0625
 74
0
  0
LTYPE
  5
4C
100
AcDbSymbolTableRecord
100
AcDbLinetypeTableRecord
  2
DOTX2
 70
0
  3
Dot (2x) .  .  .  .  .  .  .  .  .  .  .  .  .  .
 72
65
 73
2
 40
0.5
 49
0.1
 74
0
 49
-0.4
 74
0
  0
LTYPE
  5
4D
100
AcDbSymbolTableRecord
100
AcDbLinetypeTableRecord
  2
ACAD_ISO14W100
 70
0
  3
ISO dash triple-dot __ . . . __ . . . __ . . . _
 72
65
 73
8
 40
24.0000000000000036
 49
12.0
 74
0
 49
-2.9500000000000002
 74
0
 49
0.1
 74
0
 49
-2.9000000000000004
 74
0
 49
0.1
 74
0
 49
-2.9000000000000004
 74
0
 49
0.1
 74
0
 49
-2.9500000000000002
 74
0
  0
LTYPE
  5
4E
100
AcDbSymbolTableRecord
100
AcDbLinetypeTableRecord
  2
DASHED2
 70
0
  3
Dashed (.5x) _ _ _ _ _ _ _ _ _ _ _ _ _ _ _ _ _ 
 72
65
 73
2
 40
0.375
 49
0.25
 74
0
 49
-0.125
 74
0
  0
LTYPE
  5
4F
100
AcDbSymbolTableRecord
100
AcDbLinetypeTableRecord
  2
PHANTOM2
 70
0
  3
Phantom (.5x) ___ _ _ ___ _ _ ___ _ _ ___ _ _
 72
65
 73
6
 40
1.25
 49
0.625
 74
0
 49
-0.125
 74
0
 49
0.125
 74
0
 49
-0.125
 74
0
 49
0.125
 74
0
 49
-0.125
 74
0
  0
LTYPE
  5
14
100
AcDbSymbolTableRecord
100
AcDbLinetypeTableRecord
  2
BYBLOCK
 70
0
  3

 72
65
 73
0
 40
0.0
  0
LTYPE
  5
50
100
AcDbSymbolTableRecord
100
AcDbLinetypeTableRecord
  2
ACAD_ISO09W100
 70
0
  3
ISO long-dash double-short-dash ____ __ __ ____
 72
65
 73
6
 40
45.0
 49
24.0
 74
0
 49
-3.0
 74
0
 49
6.0
 74
0
 49
-3.0
 74
0
 49
6.0
 74
0
 49
-3.0
 74
0
  0
LTYPE
  5
51
100
AcDbSymbolTableRecord
100
AcDbLinetypeTableRecord
  2
ACAD_ISO07W100
 70
0
  3
ISO dot . . . . . . . . . . . . . . . . . . . . 
 72
65
 73
2
 40
3.0
 49
0.1
 74
0
 49
-2.8999999999999999
 74
0
  0
LTYPE
  5
52
100
AcDbSymbolTableRecord
100
AcDbLinetypeTableRecord
  2
HIDDENX2
 70
0
  3
Hidden (2x) ____ ____ ____ ____ ____ ____ ____ 
 72
65
 73
2
 40
0.75
 49
0.5
 74
0
 49
-0.25
 74
0
  0
LTYPE
  5
53
100
AcDbSymbolTableRecord
100
AcDbLinetypeTableRecord
  2
ACAD_ISO10W100
 70
0
  3
ISO dash dot __ . __ . __ . __ . __ . __ . __ . 
 72
65
 73
4
 40
18.0
 49
12.0
 74
0
 49
-2.9500000000000002
 74
0
 49
0.1
 74
0
 49
-2.9500000000000002
 74
0
  0
LTYPE
  5
54
100
AcDbSymbolTableRecord
100
AcDbLinetypeTableRecord
  2
ACAD_ISO04W100
 70
0
  3
ISO long-dash dot ____ . ____ . ____ . ____ . _
 72
65
 73
4
 40
30.0
 49
24.0
 74
0
 49
-2.9500000000000002
 74
0
 49
0.1
 74
0
 49
-2.9500000000000002
 74
0
  0
LTYPE
  5
55
100
AcDbSymbolTableRecord
100
AcDbLinetypeTableRecord
  2
DASHEDX2
 70
0
  3
Dashed (2x) ____  ____  ____  ____  ____  ___
 72
65
 73
2
 40
1.5
 49
1.0
 74
0
 49
-0.5
 74
0
  0
LTYPE
  5
56
100
AcDbSymbolTableRecord
100
AcDbLinetypeTableRecord
  2
CENTERX2
 70
0
  3
Center (2x) ________  __  ________  __  _____
 72
65
 73
4
 40
4.0
 49
2.5
 74
0
 49
-0.5
 74
0
 49
0.5
 74
0
 49
-0.5
 74
0
  0
ENDTAB
  0
TABLE
  2
LAYER
  5
2
100
AcDbSymbolTable
 70
4
  0
LAYER
  5
57
100
AcDbSymbolTableRecord
100
AcDbLayerTableRecord
  2
Plywood 1
 70
0
 62
7
420
0
  6
Continuous
370
25
390
F
  0
LAYER
  5
58
100
AcDbSymbolTableRecord
100
AcDbLayerTableRecord
  2
Plywood 2
 70
0
 62
7
420
0
  6
Continuous
370
25
390
F
  0
LAYER
  5
10
100
AcDbSymbolTableRecord
100
AcDbLayerTableRecord
  2
0
 70
1
 62
7
420
16777215
  6
Continuous
370
25
390
F
  0
LAYER
  5
59
100
AcDbSymbolTableRecord
100
AcDbLayerTableRecord
  2
Framing
 70
0
 62
7
420
0
  6
Continuous
370
25
390
F
  0
ENDTAB
  0
TABLE
  2
STYLE
  5
3
100
AcDbSymbolTable
 70
5
  0
STYLE
  5
5A
100
AcDbSymbolTableRecord
100
AcDbTextStyleTableRecord
  2
Standard
 70
0
 40
0.0
 41
1.0
 50
0.0
 71
0
 42
2.5
  3

  4

1001
ACAD
1000
txt
1071
0
  0
STYLE
  5
5B
100
AcDbSymbolTableRecord
100
AcDbTextStyleTableRecord
  2
textstyle0
 70
0
 40
0.0
 41
1.0
 50
0.0
 71
0
 42
1.0
  3

  4

1001
ACAD
1000
DejaVu Sans
1071
0
  0
STYLE
  5
5C
100
AcDbSymbolTableRecord
100
AcDbTextStyleTableRecord
  2
textstyle1
 70
0
 40
0.0
 41
1.0
 50
0.0
 71
0
 42
1.0
  3

  4

1001
ACAD
1000
DejaVu Sans
1071
0
  0
STYLE
  5
5D
100
AcDbSymbolTableRecord
100
AcDbTextStyleTableRecord
  2
textstyle2
 70
0
 40
0.0
 41
1.0
 50
0.0
 71
0
 42
3.0
  3

  4

1001
ACAD
1000
DejaVu Sans
1071
0
  0
STYLE
  5
5E
100
AcDbSymbolTableRecord
100
AcDbTextStyleTableRecord
  2
textstyle3
 70
0
 40
0.0
 41
1.0
 50
0.0
 71
0
 42
3.0
  3

  4

1001
ACAD
1000
DejaVu Sans
1071
0
  0
ENDTAB
  0
TABLE
  2
VIEW
  5
6
100
AcDbSymbolTable
 70
0
  0
ENDTAB
  0
TABLE
  2
UCS
  5
7
100
AcDbSymbolTable
 70
0
  0
ENDTAB
  0
TABLE
  2
APPID
  5
9
100
AcDbSymbolTable
 70
1
  0
APPID
  5
12
100
AcDbSymbolTableRecord
100
AcDbRegAppTableRecord
  2
ACAD
 70
0
  0
APPID
  5
5F
100
AcDbSymbolTableRecord
100
AcDbRegAppTableRecord
  2
QCAD
 70
0
  0
ENDTAB
  0
TABLE
  2
DIMSTYLE
  5
A
100
AcDbSymbolTable
 70
1
100
AcDbDimStyleTable
 71
0
  0
DIMSTYLE
105
27
100
AcDbSymbolTableRecord
100
AcDbDimStyleTableRecord
  2
Standard
 41
2.5
 42
0.625
 43
3.75
 44
1.25
 70
0
 73
0
 74
0
 77
1
 78
8
140
2.5
141
2.5
143
0.03937007874016
147
0.625
171
3
172
1
271
2
272
2
274
3
278
44
283
0
284
8
340
5A
  0
ENDTAB
  0
TABLE
  2
BLOCK_RECORD
  5
1
100
AcDbSymbolTable
 70
1
  0
BLOCK_RECORD
  5
1F
100
AcDbSymbolTableRecord
100
AcDbBlockTableRecord
  2
*Model_Space
340
22
  0
BLOCK_RECORD
  5
1B
100
AcDbSymbolTableRecord
100
AcDbBlockTableRecord
  2
*Paper_Space
340
1E
  0
BLOCK_RECORD
  5
23
100
AcDbSymbolTableRecord
100
AcDbBlockTableRecord
  2
*Paper_Space0
340
26
  0
BLOCK_RECORD
  5
60
100
AcDbSymbolTableRecord
100
AcDbBlockTableRecord
  2
H-clip
340
0
  0
BLOCK_RECORD
  5
61
100
AcDbSymbolTableRecord
100
AcDbBlockTableRecord
  2
noNail
340
0
  0
ENDTAB
  0
ENDSEC
  0
SECTION
  2
BLOCKS
  0
BLOCK
  5
20
100
AcDbEntity
  8
0
100
AcDbBlockBegin
  2
*Model_Space
 70
0
 10
0.0
 20
0.0
 30
0.0
  3
*Model_Space
  1

  0
ENDBLK
  5
21
100
AcDbEntity
  8
0
100
AcDbBlockEnd
  0
BLOCK
  5
1C
100
AcDbEntity
 67
1
  8
0
100
AcDbBlockBegin
  2
*Paper_Space
 70
0
 10
0.0
 20
0.0
 30
0.0
  3
*Paper_Space
  1

  0
ENDBLK
  5
1D
100
AcDbEntity
 67
1
  8
0
100
AcDbBlockEnd
  0
BLOCK
  5
24
100
AcDbEntity
  8
0
100
AcDbBlockBegin
  2
*Paper_Space0
 70
0
 10
0.0
 20
0.0
 30
0.0
  3
*Paper_Space0
  1

  0
ENDBLK
  5
25
100
AcDbEntity
  8
0
100
AcDbBlockEnd
  0
BLOCK
  5
62
100
AcDbEntity
  8
0
100
AcDbBlockBegin
  2
H-clip
 70
0
 10
0.0
 20
0.0
 30
0.0
  3
H-clip
  1

  0
HATCH
  5
63
100
AcDbEntity
  8
Plywood 2
 62
7
420
16053492
370
-1
 48
1.0
  6
BYLAYER
100
AcDbHatch
 10
0.0
 20
0.0
 30
0.0
210
0.0
220
0.0
230
1.0
  2
SOLID
 70
1
 71
0
 91
1
 92
1
 93
4
 72
1
 10
1.5
 20
0.0
 11
0.0
 21
0.0
 72
1
 10
0.0
 20
0.0
 11
0.0
 21
0.75
 72
1
 10
0.0
 20
0.75
 11
1.5
 21
0.75
 72
1
 10
1.5
 20
0.75
 11
1.5
 21
0.0
 97
0
 75
0
 76
1
 98
0
1001
ACAD
1010
0.0
1020
0.0
1030
0
  0
LINE
  5
64
100
AcDbEntity
  8
Plywood 2
 62
256
370
-1
 48
1.0
  6
BYLAYER
100
AcDbLine
 10
0.0
 20
0.0
 30
0.0
 11
0.0
 21
0.75
 31
0.0
  0
LINE
  5
65
100
AcDbEntity
  8
Plywood 2
 62
256
370
-1
 48
1.0
  6
BYLAYER
100
AcDbLine
 10
0.0
 20
0.75
 30
0.0
 11
1.5
 21
0.75
 31
0.0
  0
LINE
  5
66
100
AcDbEntity
  8
Plywood 2
 62
256
370
-1
 48
1.0
  6
BYLAYER
100
AcDbLine
 10
1.5
 20
0.75
 30
0.0
 11
1.5
 21
0.0
 31
0.0
  0
LINE
  5
67
100
AcDbEntity
  8
Plywood 2
 62
256
370
-1
 48
1.0
  6
BYLAYER
100
AcDbLine
 10
1.5
 20
0.0
 30
0.0
 11
0.0
 21
0.0
 31
0.0
  0
ENDBLK
  5
68
100
AcDbEntity
  8
0
100
AcDbBlockEnd
  0
BLOCK
  5
69
100
AcDbEntity
  8
0
100
AcDbBlockBegin
  2
noNail
 70
0
 10
0.0
 20
0.0
 30
0.0
  3
noNail
  1

  0
ENDBLK
  5
6A
100
AcDbEntity
  8
0
100
AcDbBlockEnd
  0
ENDSEC
  0
SECTION
  2
ENTITIES
  0
LINE
  5
6B
100
AcDbEntity
  8
Framing
 62
256
370
-1
 48
1.0
  6
BYLAYER
100
AcDbLine
 10
0.0
 20
0.0
 30
0.0
 11
0.0
 21
56.75
 31
0.0
  0
LINE
  5
6C
100
AcDbEntity
  8
Framing
 62
256
370
-1
 48
1.0
  6
BYLAYER
100
AcDbLine
 10
0.0
 20
-100.0
 30
0.0
 11
0.0
 21
-43.25
 31
0.0
  0
LINE
  5
6D
100
AcDbEntity
  8
Framing
 62
256
370
-1
 48
1.0
  6
BYLAYER
100
AcDbLine
 10
0.0
 20
56.75
 30
0.0
 11
1.5
 21
56.75
 31
0.0
  0
LINE
  5
6E
100
AcDbEntity
  8
Framing
 62
256
370
-1
 48
1.0
  6
BYLAYER
100
AcDbLine
 10
0.0
 20
-43.25
 30
0.0
 11
1.5
 21
-43.25
 31
0.0
  0
LINE
  5
6F
100
AcDbEntity
  8
Framing
 62
256
370
-1
 48
1.0
  6
BYLAYER
100
AcDbLine
 10
1.5
 20
56.75
 30
0.0
 11
1.5000000000001137
 21
0.0
 31
0.0
  0
LINE
  5
70
100
AcDbEntity
  8
Framing
 62
256
370
-1
 48
1.0
  6
BYLAYER
100
AcDbLine
 10
1.5
 20
-43.25
 30
0.0
 11
1.5000000000001137
 21
-100.0
 31
0.0
  0
LINE
  5
71
100
AcDbEntity
  8
Framing
 62
256
370
-1
 48
1.0
  6
BYLAYER
100
AcDbLine
 10
1.5000000000001137
 20
0.0
 30
0.0
 11
0.0
 21
0.0
 31
0.0
  0
LINE
  5
72
100
AcDbEntity
  8
Framing
 62
256
370
-1
 48
1.0
  6
BYLAYER
100
AcDbLine
 10
1.5000000000001137
 20
-100.0
 30
0.0
 11
0.0
 21
-100.0
 31
0.0
  0
LINE
  5
73
100
AcDbEntity
  8
Framing
 62
256
370
-1
 48
1.0
  6
BYLAYER
100
AcDbLine
 10
8.0
 20
0.0
 30
0.0
 11
8.0
 21
56.75
 31
0.0
  0
LINE
  5
74
100
AcDbEntity
  8
Framing
 62
256
370
-1
 48
1.0
  6
BYLAYER
100
AcDbLine
 10
8.0
 20
-100.0
 30
0.0
 11
8.0
 21
-43.25
 31
0.0
  0
LINE
  5
75
100
AcDbEntity
  8
Framing
 62
256
370
-1
 48
1.0
  6
BYLAYER
100
AcDbLine
 10
8.0
 20
56.75
 30
0.0
 11
9.5
 21
56.75
 31
0.0
  0
LINE
  5
76
100
AcDbEntity
  8
Framing
 62
256
370
-1
 48
1.0
  6
BYLAYER
100
AcDbLine
 10
8.0
 20
-43.25
 30
0.0
 11
9.5
 21
-43.25
 31
0.0
  0
LINE
  5
77
100
AcDbEntity
  8
Framing
 62
256
370
-1
 48
1.0
  6
BYLAYER
100
AcDbLine
 10
9.5
 20
56.75
 30
0.0
 11
9.5
 21
0.0
 31
0.0
  0
LINE
  5
78
100
AcDbEntity
  8
Framing
 62
256
370
-1
 48
1.0
  6
BYLAYER
100
AcDbLine
 10
9.5
 20
-43.25
 30
0.0
 11
9.5
 21
-100.0
 31
0.0
  0
LINE
  5
79
100
AcDbEntity
  8
Framing
 62
256
370
-1
 48
1.0
  6
BYLAYER
100
AcDbLine
 10
9.5
 20
0.0
 30
0.0
 11
8.0
 21
0.0
 31
0.0
  0
LINE
  5
7A
100
AcDbEntity
  8
Framing
 62
256
370
-1
 48
1.0
  6
BYLAYER
100
AcDbLine
 10
9.5
 20
-100.0
 30
0.0
 11
8.0
 21
-100.0
 31
0.0
  0
LINE
  5
7B
100
AcDbEntity
  8
Framing
 62
256
370
-1
 48
1.0
  6
BYLAYER
100
AcDbLine
 10
9.5
 20
0.0
 30
0.0
 11
9.5
 21
56.75
 31
0.0
  0
LINE
  5
7C
100
AcDbEntity
  8
Framing
 62
256
370
-1
 48
1.0
  6
BYLAYER
100
AcDbLine
 10
9.5
 20
-100.0
 30
0.0
 11
9.5
 21
-43.25
 31
0.0
  0
LINE
  5
7D
100
AcDbEntity
  8
Framing
 62
256
370
-1
 48
1.0
  6
BYLAYER
100
AcDbLine
 10
9.5
 20
56.75
 30
0.0
 11
11.0
 21
56.75
 31
0.0
  0
LINE
  5
7E
100
AcDbEntity
  8
Framing
 62
256
370
-1
 48
1.0
  6
BYLAYER
100
AcDbLine
 10
9.5
 20
-43.25
 30
0.0
 11
11.0
 21
-43.25
 31
0.0
  0
LINE
  5
7F
100
AcDbEntity
  8
Framing
 62
256
370
-1
 48
1.0
  6
BYLAYER
100
AcDbLine
 10
11.0
 20
56.75
 30
0.0
 11
11.0
 21
0.0
 31
0.0
  0
LINE
  5
80
100
AcDbEntity
  8
Framing
 62
256
370
-1
 48
1.0
  6
BYLAYER
100
AcDbLine
 10
11.0
 20
-43.25
 30
0.0
 11
11.0
 21
-100.0
 31
0.0
  0
LINE
  5
81
100
AcDbEntity
  8
Framing
 62
256
370
-1
 48
1.0
  6
BYLAYER
100
AcDbLine
 10
11.0
 20
0.0
 30
0.0
 11
9.5
 21
0.0
 31
0.0
  0
LINE
  5
82
100
AcDbEntity
  8
Framing
 62
256
370
-1
 48
1.0
  6
BYLAYER
100
AcDbLine
 10
11.0
 20
-100.0
 30
0.0
 11
9.5
 21
-100.0
 31
0.0
  0
LINE
  5
83
100
AcDbEntity
  8
Framing
 62
256
370
-1
 48
1.0
  6
BYLAYER
100
AcDbLine
 10
29.25
 20
0.0
 30
0.0
 11
29.25
 21
56.75
 31
0.0
  0
LINE
  5
84
100
AcDbEntity
  8
Framing
 62
256
370
-1
 48
1.0
  6
BYLAYER
100
AcDbLine
 10
29.25
 20
-100.0
 30
0.0
 11
29.25
 21
-43.25
 31
0.0
  0
LINE
  5
85
100
AcDbEntity
  8
Framing
 62
256
370
-1
 48
1.0
  6
BYLAYER
100
AcDbLine
 10
29.25
 20
56.75
 30
0.0
 11
30.75
 21
56.75
 31
0.0
  0
LINE
  5
86
100
AcDbEntity
  8
Framing
 62
256
370
-1
 48
1.0
  6
BYLAYER
100
AcDbLine
 10
29.25
 20
-43.25
 30
0.0
 11
30.75
 21
-43.25
 31
0.0
  0
LINE
  5
87
100
AcDbEntity
  8
Framing
 62
256
370
-1
 48
1.0
  6
BYLAYER
100
AcDbLine
 10
30.75
 20
56.75
 30
0.0
 11
30.75
 21
0.0
 31
0.0
  0
LINE
  5
88
100
AcDbEntity
  8
Framing
 62
256
370
-1
 48
1.0
  6
BYLAYER
100
AcDbLine
 10
30.75
 20
-43.25
 30
0.0
 11
30.75
 21
-100.0
 31
0.0
  0
LINE
  5
89
100
AcDbEntity
  8
Framing
 62
256
370
-1
 48
1.0
  6
BYLAYER
100
AcDbLine
 10
30.75
 20
0.0
 30
0.0
 11
29.25
 21
0.0
 31
0.0
  0
LINE
  5
8A
100
AcDbEntity
  8
Framing
 62
256
370
-1
 48
1.0
  6
BYLAYER
100
AcDbLine
 10
30.75
 20
-100.0
 30
0.0
 11
29.25
 21
-100.0
 31
0.0
  0
LINE
  5
8B
100
AcDbEntity
  8
Framing
 62
256
370
-1
 48
1.0
  6
BYLAYER
100
AcDbLine
 10
53.25
 20
0.0
 30
0.0
 11
53.25
 21
56.75
 31
0.0
  0
LINE
  5
8C
100
AcDbEntity
  8
Framing
 62
256
370
-1
 48
1.0
  6
BYLAYER
100
AcDbLine
 10
53.25
 20
-100.0
 30
0.0
 11
53.25
 21
-43.25
 31
0.0
  0
LINE
  5
8D
100
AcDbEntity
  8
Framing
 62
256
370
-1
 48
1.0
  6
BYLAYER
100
AcDbLine
 10
53.25
 20
56.75
 30
0.0
 11
54.75
 21
56.75
 31
0.0
  0
LINE
  5
8E
100
AcDbEntity
  8
Framing
 62
256
370
-1
 48
1.0
  6
BYLAYER
100
AcDbLine
 10
53.25
 20
-43.25
 30
0.0
 11
54.75
 21
-43.25
 31
0.0
  0
LINE
  5
8F
100
AcDbEntity
  8
Framing
 62
256
370
-1
 48
1.0
  6
BYLAYER
100
AcDbLine
 10
54.75
 20
56.75
 30
0.0
 11
54.75
 21
0.0
 31
0.0
  0
LINE
  5
90
100
AcDbEntity
  8
Framing
 62
256
370
-1
 48
1.0
  6
BYLAYER
100
AcDbLine
 10
54.75
 20
-43.25
 30
0.0
 11
54.75
 21
-100.0
 31
0.0
  0
LINE
  5
91
100
AcDbEntity
  8
Framing
 62
256
370
-1
 48
1.0
  6
BYLAYER
100
AcDbLine
 10
54.75
 20
0.0
 30
0.0
 11
53.25
 21
0.0
 31
0.0
  0
LINE
  5
92
100
AcDbEntity
  8
Framing
 62
256
370
-1
 48
1.0
  6
BYLAYER
100
AcDbLine
 10
54.75
 20
-100.0
 30
0.0
 11
53.25
 21
-100.0
 31
0.0
  0
LINE
  5
93
100
AcDbEntity
  8
Framing
 62
256
370
-1
 48
1.0
  6
BYLAYER
100
AcDbLine
 10
77.25
 20
0.0
 30
0.0
 11
77.25
 21
56.75
 31
0.0
  0
LINE
  5
94
100
AcDbEntity
  8
Framing
 62
256
370
-1
 48
1.0
  6
BYLAYER
100
AcDbLine
 10
77.25
 20
-100.0
 30
0.0
 11
77.25
 21
-43.25
 31
0.0
  0
LINE
  5
95
100
AcDbEntity
  8
Framing
 62
256
370
-1
 48
1.0
  6
BYLAYER
100
AcDbLine
 10
77.25
 20
56.75
 30
0.0
 11
78.75
 21
56.75
 31
0.0
  0
LINE
  5
96
100
AcDbEntity
  8
Framing
 62
256
370
-1
 48
1.0
  6
BYLAYER
100
AcDbLine
 10
77.25
 20
-43.25
 30
0.0
 11
78.75
 21
-43.25
 31
0.0
  0
LINE
  5
97
100
AcDbEntity
  8
Framing
 62
256
370
-1
 48
1.0
  6
BYLAYER
100
AcDbLine
 10
78.75
 20
56.75
 30
0.0
 11
78.75
 21
0.0
 31
0.0
  0
LINE
  5
98
100
AcDbEntity
  8
Framing
 62
256
370
-1
 48
1.0
  6
BYLAYER
100
AcDbLine
 10
78.75
 20
-43.25
 30
0.0
 11
78.75
 21
-100.0
 31
0.0
  0
LINE
  5
99
100
AcDbEntity
  8
Framing
 62
256
370
-1
 48
1.0
  6
BYLAYER
100
AcDbLine
 10
78.75
 20
0.0
 30
0.0
 11
77.25
 21
0.0
 31
0.0
  0
LINE
  5
9A
100
AcDbEntity
  8
Framing
 62
256
370
-1
 48
1.0
  6
BYLAYER
100
AcDbLine
 10
78.75
 20
-100.0
 30
0.0
 11
77.25
 21
-100.0
 31
0.0
  0
LINE
  5
9B
100
AcDbEntity
  8
Framing
 62
256
370
-1
 48
1.0
  6
BYLAYER
100
AcDbLine
 10
101.25
 20
0.0
 30
0.0
 11
101.25
 21
56.75
 31
0.0
  0
LINE
  5
9C
100
AcDbEntity
  8
Framing
 62
256
370
-1
 48
1.0
  6
BYLAYER
100
AcDbLine
 10
101.25
 20
-100.0
 30
0.0
 11
101.25
 21
-43.25
 31
0.0
  0
LINE
  5
9D
100
AcDbEntity
  8
Framing
 62
256
370
-1
 48
1.0
  6
BYLAYER
100
AcDbLine
 10
101.25
 20
56.75
 30
0.0
 11
102.75
 21
56.75
 31
0.0
  0
LINE
  5
9E
100
AcDbEntity
  8
Framing
 62
256
370
-1
 48
1.0
  6
BYLAYER
100
AcDbLine
 10
101.25
 20
-43.25
 30
0.0
 11
102.75
 21
-43.25
 31
0.0
  0
LINE
  5
9F
100
AcDbEntity
  8
Framing
 62
256
370
-1
 48
1.0
  6
BYLAYER
100
AcDbLine
 10
102.75
 20
56.75
 30
0.0
 11
102.75
 21
0.0
 31
0.0
  0
LINE
  5
A0
100
AcDbEntity
  8
Framing
 62
256
370
-1
 48
1.0
  6
BYLAYER
100
AcDbLine
 10
102.75
 20
-43.25
 30
0.0
 11
102.75
 21
-100.0
 31
0.0
  0
LINE
  5
A1
100
AcDbEntity
  8
Framing
 62
256
370
-1
 48
1.0
  6
BYLAYER
100
AcDbLine
 10
102.75
 20
0.0
 30
0.0
 11
101.25
 21
0.0
 31
0.0
  0
LINE
  5
A2
100
AcDbEntity
  8
Framing
 62
256
370
-1
 48
1.0
  6
BYLAYER
100
AcDbLine
 10
102.75
 20
-100.0
 30
0.0
 11
101.25
 21
-100.0
 31
0.0
  0
LINE
  5
A3
100
AcDbEntity
  8
Framing
 62
256
370
-1
 48
1.0
  6
BYLAYER
100
AcDbLine
 10
125.25
 20
0.0
 30
0.0
 11
125.25
 21
56.75
 31
0.0
  0
LINE
  5
A4
100
AcDbEntity
  8
Framing
 62
256
370
-1
 48
1.0
  6
BYLAYER
100
AcDbLine
 10
125.25
 20
-100.0
 30
0.0
 11
125.25
 21
-43.25
 31
0.0
  0
LINE
  5
A5
100
AcDbEntity
  8
Framing
 62
256
370
-1
 48
1.0
  6
BYLAYER
100
AcDbLine
 10
125.25
 20
56.75
 30
0.0
 11
126.75
 21
56.75
 31
0.0
  0
LINE
  5
A6
100
AcDbEntity
  8
Framing
 62
256
370
-1
 48
1.0
  6
BYLAYER
100
AcDbLine
 10
125.25
 20
-43.25
 30
0.0
 11
126.75
 21
-43.25
 31
0.0
  0
LINE
  5
A7
100
AcDbEntity
  8
Framing
 62
256
370
-1
 48
1.0
  6
BYLAYER
100
AcDbLine
 10
126.75
 20
56.75
 30
0.0
 11
126.75
 21
0.0
 31
0.0
  0
LINE
  5
A8
100
AcDbEntity
  8
Framing
 62
256
370
-1
 48
1.0
  6
BYLAYER
100
AcDbLine
 10
126.75
 20
-43.25
 30
0.0
 11
126.75
 21
-100.0
 31
0.0
  0
LINE
  5
A9
100
AcDbEntity
  8
Framing
 62
256
370
-1
 48
1.0
  6
BYLAYER
100
AcDbLine
 10
126.75
 20
0.0
 30
0.0
 11
125.25
 21
0.0
 31
0.0
  0
LINE
  5
AA
100
AcDbEntity
  8
Framing
 62
256
370
-1
 48
1.0
  6
BYLAYER
100
AcDbLine
 10
126.75
 20
-100.0
 30
0.0
 11
125.25
 21
-100.0
 31
0.0
  0
LINE
  5
AB
100
AcDbEntity
  8
Framing
 62
256
370
-1
 48
1.0
  6
BYLAYER
100
AcDbLine
 10
145.0
 20
0.0
 30
0.0
 11
145.0
 21
56.75
 31
0.0
  0
LINE
  5
AC
100
AcDbEntity
  8
Framing
 62
256
370
-1
 48
1.0
  6
BYLAYER
100
AcDbLine
 10
145.0
 20
-100.0
 30
0.0
 11
145.0
 21
-43.25
 31
0.0
  0
LINE
  5
AD
100
AcDbEntity
  8
Framing
 62
256
370
-1
 48
1.0
  6
BYLAYER
100
AcDbLine
 10
146.5
 20
0.0
 30
0.0
 11
146.5
 21
56.75
 31
0.0
  0
LINE
  5
AE
100
AcDbEntity
  8
Framing
 62
256
370
-1
 48
1.0
  6
BYLAYER
100
AcDbLine
 10
146.5
 20
-100.0
 30
0.0
 11
146.5
 21
-43.25
 31
0.0
  0
LINE
  5
AF
100
AcDbEntity
  8
Framing
 62
256
370
-1
 48
1.0
  6
BYLAYER
100
AcDbLine
 10
145.0
 20
56.75
 30
0.0
 11
146.5
 21
56.75
 31
0.0
  0
LINE
  5
B0
100
AcDbEntity
  8
Framing
 62
256
370
-1
 48
1.0
  6
BYLAYER
100
AcDbLine
 10
145.0
 20
-43.25
 30
0.0
 11
146.5
 21
-43.25
 31
0.0
  0
LINE
  5
B1
100
AcDbEntity
  8
Framing
 62
256
370
-1
 48
1.0
  6
BYLAYER
100
AcDbLine
 10
146.5
 20
56.75
 30
0.0
 11
148.0
 21
56.75
 31
0.0
  0
LINE
  5
B2
100
AcDbEntity
  8
Framing
 62
256
370
-1
 48
1.0
  6
BYLAYER
100
AcDbLine
 10
146.5
 20
-43.25
 30
0.0
 11
148.0
 21
-43.25
 31
0.0
  0
LINE
  5
B3
100
AcDbEntity
  8
Framing
 62
256
370
-1
 48
1.0
  6
BYLAYER
100
AcDbLine
 10
146.5
 20
56.75
 30
0.0
 11
146.5
 21
0.0
 31
0.0
  0
LINE
  5
B4
100
AcDbEntity
  8
Framing
 62
256
370
-1
 48
1.0
  6
BYLAYER
100
AcDbLine
 10
146.5
 20
-43.25
 30
0.0
 11
146.5
 21
-100.0
 31
0.0
  0
LINE
  5
B5
100
AcDbEntity
  8
Framing
 62
256
370
-1
 48
1.0
  6
BYLAYER
100
AcDbLine
 10
148.0
 20
56.75
 30
0.0
 11
148.0
 21
0.0
 31
0.0
  0
LINE
  5
B6
100
AcDbEntity
  8
Framing
 62
256
370
-1
 48
1.0
  6
BYLAYER
100
AcDbLine
 10
148.0
 20
-43.25
 30
0.0
 11
148.0
 21
-100.0
 31
0.0
  0
LINE
  5
B7
100
AcDbEntity
  8
Framing
 62
256
370
-1
 48
1.0
  6
BYLAYER
100
AcDbLine
 10
146.5
 20
0.0
 30
0.0
 11
145.0
 21
0.0
 31
0.0
  0
LINE
  5
B8
100
AcDbEntity
  8
Framing
 62
256
370
-1
 48
1.0
  6
BYLAYER
100
AcDbLine
 10
146.5
 20
-100.0
 30
0.0
 11
145.0
 21
-100.0
 31
0.0
  0
LINE
  5
B9
100
AcDbEntity
  8
Framing
 62
256
370
-1
 48
1.0
  6
BYLAYER
100
AcDbLine
 10
148.0
 20
0.0
 30
0.0
 11
146.5
 21
0.0
 31
0.0
  0
LINE
  5
BA
100
AcDbEntity
  8
Framing
 62
256
370
-1
 48
1.0
  6
BYLAYER
100
AcDbLine
 10
148.0
 20
-100.0
 30
0.0
 11
146.5
 21
-100.0
 31
0.0
  0
LINE
  5
BB
100
AcDbEntity
  8
Framing
 62
256
370
-1
 48
1.0
  6
BYLAYER
100
AcDbLine
 10
154.5
 20
0.0
 30
0.0
 11
154.5
 21
56.75
 31
0.0
  0
LINE
  5
BC
100
AcDbEntity
  8
Framing
 62
256
370
-1
 48
1.0
  6
BYLAYER
100
AcDbLine
 10
154.5
 20
-100.0
 30
0.0
 11
154.5
 21
-43.25
 31
0.0
  0
LINE
  5
BD
100
AcDbEntity
  8
Framing
 62
256
370
-1
 48
1.0
  6
BYLAYER
100
AcDbLine
 10
154.5
 20
56.75
 30
0.0
 11
156.0
 21
56.75
 31
0.0
  0
LINE
  5
BE
100
AcDbEntity
  8
Framing
 62
256
370
-1
 48
1.0
  6
BYLAYER
100
AcDbLine
 10
154.5
 20
-43.25
 30
0.0
 11
156.0
 21
-43.25
 31
0.0
  0
LINE
  5
BF
100
AcDbEntity
  8
Framing
 62
256
370
-1
 48
1.0
  6
BYLAYER
100
AcDbLine
 10
156.0
 20
56.75
 30
0.0
 11
156.0
 21
0.0
 31
0.0
  0
LINE
  5
C0
100
AcDbEntity
  8
Framing
 62
256
370
-1
 48
1.0
  6
BYLAYER
100
AcDbLine
 10
156.0
 20
-43.25
 30
0.0
 11
156.0
 21
-100.0
 31
0.0
  0
LINE
  5
C1
100
AcDbEntity
  8
Framing
 62
256
370
-1
 48
1.0
  6
BYLAYER
100
AcDbLine
 10
156.0
 20
0.0
 30
0.0
 11
154.5
 21
0.0
 31
0.0
  0
LINE
  5
C2
100
AcDbEntity
  8
Framing
 62
256
370
-1
 48
1.0
  6
BYLAYER
100
AcDbLine
 10
156.0
 20
-100.0
 30
0.0
 11
154.5
 21
-100.0
 31
0.0
  0
LINE
  5
C3
100
AcDbEntity
  8
Framing
 62
256
370
-1
 48
1.0
  6
BYLAYER
100
AcDbLine
 10
0.0
 20
56.75
 30
0.0
 11
0.0
 21
57.5
 31
0.0
  0
LINE
  5
C4
100
AcDbEntity
  8
Framing
 62
256
370
-1
 48
1.0
  6
BYLAYER
100
AcDbLine
 10
0.0
 20
-43.25
 30
0.0
 11
0.0
 21
-42.5
 31
0.0
  0
LINE
  5
C5
100
AcDbEntity
  8
Framing
 62
256
370
-1
 48
1.0
  6
BYLAYER
100
AcDbLine
 10
0.0
 20
57.5
 30
0.0
 11
156.0
 21
57.5
 31
0.0
  0
LINE
  5
C6
100
AcDbEntity
  8
Framing
 62
256
370
-1
 48
1.0
  6
BYLAYER
100
AcDbLine
 10
0.0
 20
-42.5
 30
0.0
 11
156.0
 21
-42.5
 31
0.0
  0
LINE
  5
C7
100
AcDbEntity
  8
Framing
 62
256
370
-1
 48
1.0
  6
BYLAYER
100
AcDbLine
 10
156.0
 20
57.5
 30
0.0
 11
156.0
 21
56.75
 31
0.0
  0
LINE
  5
C8
100
AcDbEntity
  8
Framing
 62
256
370
-1
 48
1.0
  6
BYLAYER
100
AcDbLine
 10
156.0
 20
-42.5
 30
0.0
 11
156.0
 21
-43.25
 31
0.0
  0
LINE
  5
C9
100
AcDbEntity
  8
Framing
 62
256
370
-1
 48
1.0
  6
BYLAYER
100
AcDbLine
 10
156.0
 20
56.75
 30
0.0
 11
0.0
 21
56.75
 31
0.0
  0
LINE
  5
CA
100
AcDbEntity
  8
Framing
 62
256
370
-1
 48
1.0
  6
BYLAYER
100
AcDbLine
 10
156.0
 20
-43.25
 30
0.0
 11
0.0
 21
-43.25
 31
0.0
  0
LINE
  5
CB
100
AcDbEntity
  8
Framing
 62
256
370
-1
 48
1.0
  6
BYLAYER
100
AcDbLine
 10
0.0
 20
7.5
 30
0.0
 11
156.0
 21
7.5
 31
0.0
  0
LINE
  5
CC
100
AcDbEntity
  8
Framing
 62
256
370
-1
 48
1.0
  6
BYLAYER
100
AcDbLine
 10
0.0
 20
-92.5
 30
0.0
 11
156.0
 21
-92.5
 31
0.0
  0
LINE
  5
CD
100
AcDbEntity
  8
Framing
 62
256
370
-1
 48
1.0
  6
BYLAYER
100
AcDbLine
 10
1.5000000000001137
 20
15.9149999999999636
 30
0.0
 11
1.5000000000001137
 21
17.4149999999999636
 31
0.0
  0
LINE
  5
CE
100
AcDbEntity
  8
Framing
 62
256
370
-1
 48
1.0
  6
BYLAYER
100
AcDbLine
 10
1.5000000000001137
 20
-84.0850000000000364
 30
0.0
 11
1.5000000000001137
 21
-82.5850000000000364
 31
0.0
  0
LINE
  5
CF
100
AcDbEntity
  8
Framing
 62
256
370
-1
 48
1.0
  6
BYLAYER
100
AcDbLine
 10
1.5000000000001137
 20
17.4149999999999636
 30
0.0
 11
8.0
 21
17.4149999999999636
 31
0.0
  0
LINE
  5
D0
100
AcDbEntity
  8
Framing
 62
256
370
-1
 48
1.0
  6
BYLAYER
100
AcDbLine
 10
1.5000000000001137
 20
-82.5850000000000364
 30
0.0
 11
8.0
 21
-82.5850000000000364
 31
0.0
  0
LINE
  5
D1
100
AcDbEntity
  8
Framing
 62
256
370
-1
 48
1.0
  6
BYLAYER
100
AcDbLine
 10
8.0
 20
17.4149999999999636
 30
0.0
 11
8.0
 21
15.9149999999999636
 31
0.0
  0
LINE
  5
D2
100
AcDbEntity
  8
Framing
 62
256
370
-1
 48
1.0
  6
BYLAYER
100
AcDbLine
 10
8.0
 20
-82.5850000000000364
 30
0.0
 11
8.0
 21
-84.0850000000000364
 31
0.0
  0
LINE
  5
D3
100
AcDbEntity
  8
Framing
 62
256
370
-1
 48
1.0
  6
BYLAYER
100
AcDbLine
 10
8.0
 20
15.9149999999999636
 30
0.0
 11
1.5000000000001137
 21
15.9149999999999636
 31
0.0
  0
LINE
  5
D4
100
AcDbEntity
  8
Framing
 62
256
370
-1
 48
1.0
  6
BYLAYER
100
AcDbLine
 10
8.0
 20
-84.0850000000000364
 30
0.0
 11
1.5000000000001137
 21
-84.0850000000000364
 31
0.0
  0
LINE
  5
D5
100
AcDbEntity
  8
Framing
 62
256
370
-1
 48
1.0
  6
BYLAYER
100
AcDbLine
 10
1.5
 20
29.2899999999999636
 30
0.0
 11
1.5
 21
30.7899999999999636
 31
0.0
  0
LINE
  5
D6
100
AcDbEntity
  8
Framing
 62
256
370
-1
 48
1.0
  6
BYLAYER
100
AcDbLine
 10
1.5
 20
-70.7100000000000364
 30
0.0
 11
1.5
 21
-69.2100000000000364
 31
0.0
  0
LINE
  5
D7
100
AcDbEntity
  8
Framing
 62
256
370
-1
 48
1.0
  6
BYLAYER
100
AcDbLine
 10
1.5
 20
30.7899999999999636
 30
0.0
 11
8.0
 21
30.7899999999999636
 31
0.0
  0
LINE
  5
D8
100
AcDbEntity
  8
Framing
 62
256
370
-1
 48
1.0
  6
BYLAYER
100
AcDbLine
 10
1.5
 20
-69.2100000000000364
 30
0.0
 11
8.0
 21
-69.2100000000000364
 31
0.0
  0
LINE
  5
D9
100
AcDbEntity
  8
Framing
 62
256
370
-1
 48
1.0
  6
BYLAYER
100
AcDbLine
 10
8.0
 20
30.7899999999999636
 30
0.0
 11
8.0
 21
29.2899999999999636
 31
0.0
  0
LINE
  5
DA
100
AcDbEntity
  8
Framing
 62
256
370
-1
 48
1.0
  6
BYLAYER
100
AcDbLine
 10
8.0
 20
-69.2100000000000364
 30
0.0
 11
8.0
 21
-70.7100000000000364
 31
0.0
  0
LINE
  5
DB
100
AcDbEntity
  8
Framing
 62
256
370
-1
 48
1.0
  6
BYLAYER
100
AcDbLine
 10
8.0
 20
29.2899999999999636
 30
0.0
 11
1.5
 21
29.2899999999999636
 31
0.0
  0
LINE
  5
DC
100
AcDbEntity
  8
Framing
 62
256
370
-1
 48
1.0
  6
BYLAYER
100
AcDbLine
 10
8.0
 20
-70.7100000000000364
 30
0.0
 11
1.5
 21
-70.7100000000000364
 31
0.0
  0
LINE
  5
DD
100
AcDbEntity
  8
Framing
 62
256
370
-1
 48
1.0
  6
BYLAYER
100
AcDbLine
 10
1.5
 20
42.6649999999999636
 30
0.0
 11
1.5
 21
44.1649999999999636
 31
0.0
  0
LINE
  5
DE
100
AcDbEntity
  8
Framing
 62
256
370
-1
 48
1.0
  6
BYLAYER
100
AcDbLine
 10
1.5
 20
-57.3350000000000364
 30
0.0
 11
1.5
 21
-55.8350000000000364
 31
0.0
  0
LINE
  5
DF
100
AcDbEntity
  8
Framing
 62
256
370
-1
 48
1.0
  6
BYLAYER
100
AcDbLine
 10
1.5
 20
44.1649999999999636
 30
0.0
 11
8.0
 21
44.1649999999999636
 31
0.0
  0
LINE
  5
E0
100
AcDbEntity
  8
Framing
 62
256
370
-1
 48
1.0
  6
BYLAYER
100
AcDbLine
 10
1.5
 20
-55.8350000000000364
 30
0.0
 11
8.0
 21
-55.8350000000000364
 31
0.0
  0
LINE
  5
E1
100
AcDbEntity
  8
Framing
 62
256
370
-1
 48
1.0
  6
BYLAYER
100
AcDbLine
 10
8.0
 20
44.1649999999999636
 30
0.0
 11
8.0
 21
42.6649999999999636
 31
0.0
  0
LINE
  5
E2
100
AcDbEntity
  8
Framing
 62
256
370
-1
 48
1.0
  6
BYLAYER
100
AcDbLine
 10
8.0
 20
-55.8350000000000364
 30
0.0
 11
8.0
 21
-57.3350000000000364
 31
0.0
  0
LINE
  5
E3
100
AcDbEntity
  8
Framing
 62
256
370
-1
 48
1.0
  6
BYLAYER
100
AcDbLine
 10
8.0
 20
42.6649999999999636
 30
0.0
 11
1.5
 21
42.6649999999999636
 31
0.0
  0
LINE
  5
E4
100
AcDbEntity
  8
Framing
 62
256
370
-1
 48
1.0
  6
BYLAYER
100
AcDbLine
 10
8.0
 20
-57.3350000000000364
 30
0.0
 11
1.5
 21
-57.3350000000000364
 31
0.0
  0
LINE
  5
E5
100
AcDbEntity
  8
Framing
 62
256
370
-1
 48
1.0
  6
BYLAYER
100
AcDbLine
 10
148.0
 20
15.9149999999999636
 30
0.0
 11
148.0
 21
17.4149999999999636
 31
0.0
  0
LINE
  5
E6
100
AcDbEntity
  8
Framing
 62
256
370
-1
 48
1.0
  6
BYLAYER
100
AcDbLine
 10
148.0
 20
-84.0850000000000364
 30
0.0
 11
148.0
 21
-82.5850000000000364
 31
0.0
  0
LINE
  5
E7
100
AcDbEntity
  8
Framing
 62
256
370
-1
 48
1.0
  6
BYLAYER
100
AcDbLine
 10
148.0
 20
29.2899999999999636
 30
0.0
 11
148.0
 21
30.7899999999999636
 31
0.0
  0
LINE
  5
E8
100
AcDbEntity
  8
Framing
 62
256
370
-1
 48
1.0
  6
BYLAYER
100
AcDbLine
 10
148.0
 20
-70.7100000000000364
 30
0.0
 11
148.0
 21
-69.2100000000000364
 31
0.0
  0
LINE
  5
E9
100
AcDbEntity
  8
Framing
 62
256
370
-1
 48
1.0
  6
BYLAYER
100
AcDbLine
 10
148.0
 20
42.6649999999999636
 30
0.0
 11
148.0
 21
44.1649999999999636
 31
0.0
  0
LINE
  5
EA
100
AcDbEntity
  8
Framing
 62
256
370
-1
 48
1.0
  6
BYLAYER
100
AcDbLine
 10
148.0
 20
-57.3350000000000364
 30
0.0
 11
148.0
 21
-55.8350000000000364
 31
0.0
  0
LINE
  5
EB
100
AcDbEntity
  8
Framing
 62
256
370
-1
 48
1.0
  6
BYLAYER
100
AcDbLine
 10
148.0
 20
17.4149999999999636
 30
0.0
 11
154.5
 21
17.4149999999999636
 31
0.0
  0
LINE
  5
EC
100
AcDbEntity
  8
Framing
 62
256
370
-1
 48
1.0
  6
BYLAYER
100
AcDbLine
 10
148.0
 20
-82.5850000000000364
 30
0.0
 11
154.5
 21
-82.5850000000000364
 31
0.0
  0
LINE
  5
ED
100
AcDbEntity
  8
Framing
 62
256
370
-1
 48
1.0
  6
BYLAYER
100
AcDbLine
 10
148.0
 20
30.7899999999999636
 30
0.0
 11
154.5
 21
30.7899999999999636
 31
0.0
  0
LINE
  5
EE
100
AcDbEntity
  8
Framing
 62
256
370
-1
 48
1.0
  6
BYLAYER
100
AcDbLine
 10
148.0
 20
-69.2100000000000364
 30
0.0
 11
154.5
 21
-69.2100000000000364
 31
0.0
  0
LINE
  5
EF
100
AcDbEntity
  8
Framing
 62
256
370
-1
 48
1.0
  6
BYLAYER
100
AcDbLine
 10
148.0
 20
44.1649999999999636
 30
0.0
 11
154.5
 21
44.1649999999999636
 31
0.0
  0
LINE
  5
F0
100
AcDbEntity
  8
Framing
 62
256
370
-1
 48
1.0
  6
BYLAYER
100
AcDbLine
 10
148.0
 20
-55.8350000000000364
 30
0.0
 11
154.5
 21
-55.8350000000000364
 31
0.0
  0
LINE
  5
F1
100
AcDbEntity
  8
Framing
 62
256
370
-1
 48
1.0
  6
BYLAYER
100
AcDbLine
 10
154.5
 20
17.4149999999999636
 30
0.0
 11
154.5
 21
15.9149999999999636
 31
0.0
  0
LINE
  5
F2
100
AcDbEntity
  8
Framing
 62
256
370
-1
 48
1.0
  6
BYLAYER
100
AcDbLine
 10
154.5
 20
-82.5850000000000364
 30
0.0
 11
154.5
 21
-84.0850000000000364
 31
0.0
  0
LINE
  5
F3
100
AcDbEntity
  8
Framing
 62
256
370
-1
 48
1.0
  6
BYLAYER
100
AcDbLine
 10
154.5
 20
30.7899999999999636
 30
0.0
 11
154.5
 21
29.2899999999999636
 31
0.0
  0
LINE
  5
F4
100
AcDbEntity
  8
Framing
 62
256
370
-1
 48
1.0
  6
BYLAYER
100
AcDbLine
 10
154.5
 20
-69.2100000000000364
 30
0.0
 11
154.5
 21
-70.7100000000000364
 31
0.0
  0
LINE
  5
F5
100
AcDbEntity
  8
Framing
 62
256
370
-1
 48
1.0
  6
BYLAYER
100
AcDbLine
 10
154.5
 20
44.1649999999999636
 30
0.0
 11
154.5
 21
42.6649999999999636
 31
0.0
  0
LINE
  5
F6
100
AcDbEntity
  8
Framing
 62
256
370
-1
 48
1.0
  6
BYLAYER
100
AcDbLine
 10
154.5
 20
-55.8350000000000364
 30
0.0
 11
154.5
 21
-57.3350000000000364
 31
0.0
  0
LINE
  5
F7
100
AcDbEntity
  8
Framing
 62
256
370
-1
 48
1.0
  6
BYLAYER
100
AcDbLine
 10
154.5
 20
15.9149999999999636
 30
0.0
 11
148.0
 21
15.9149999999999636
 31
0.0
  0
LINE
  5
F8
100
AcDbEntity
  8
Framing
 62
256
370
-1
 48
1.0
  6
BYLAYER
100
AcDbLine
 10
154.5
 20
-84.0850000000000364
 30
0.0
 11
148.0
 21
-84.0850000000000364
 31
0.0
  0
LINE
  5
F9
100
AcDbEntity
  8
Framing
 62
256
370
-1
 48
1.0
  6
BYLAYER
100
AcDbLine
 10
154.5
 20
29.2899999999999636
 30
0.0
 11
148.0
 21
29.2899999999999636
 31
0.0
  0
LINE
  5
FA
100
AcDbEntity
  8
Framing
 62
256
370
-1
 48
1.0
  6
BYLAYER
100
AcDbLine
 10
154.5
 20
-70.7100000000000364
 30
0.0
 11
148.0
 21
-70.7100000000000364
 31
0.0
  0
LINE
  5
FB
100
AcDbEntity
  8
Framing
 62
256
370
-1
 48
1.0
  6
BYLAYER
100
AcDbLine
 10
154.5
 20
42.6649999999999636
 30
0.0
 11
148.0
 21
42.6649999999999636
 31
0.0
  0
LINE
  5
FC
100
AcDbEntity
  8
Framing
 62
256
370
-1
 48
1.0
  6
BYLAYER
100
AcDbLine
 10
154.5
 20
-57.3350000000000364
 30
0.0
 11
148.0
 21
-57.3350000000000364
 31
0.0
  0
LINE
  5
FD
100
AcDbEntity
  8
Framing
 62
256
370
-1
 48
1.0
  6
BYLAYER
100
AcDbLine
 10
149.75
 20
52.2899999999999636
 30
0.0
 11
148.0
 21
52.2899999999999636
 31
0.0
  0
LINE
  5
FE
100
AcDbEntity
  8
Framing
 62
256
370
-1
 48
1.0
  6
BYLAYER
100
AcDbLine
 10
149.75
 20
-47.7100000000000364
 30
0.0
 11
148.0
 21
-47.7100000000000364
 31
0.0
  0
LINE
  5
FF
100
AcDbEntity
  8
Framing
 62
256
370
-1
 48
1.0
  6
BYLAYER
100
AcDbLine
 10
8.0
 20
52.2899999999999636
 30
0.0
 11
6.25
 21
52.2899999999999636
 31
0.0
  0
LINE
  5
100
100
AcDbEntity
  8
Framing
 62
256
370
-1
 48
1.0
  6
BYLAYER
100
AcDbLine
 10
8.0
 20
-47.7100000000000364
 30
0.0
 11
6.25
 21
-47.7100000000000364
 31
0.0
  0
LINE
  5
101
100
AcDbEntity
  8
Framing
 62
256
370
-1
 48
1.0
  6
BYLAYER
100
AcDbLine
 10
149.75
 20
52.2899999999999636
 30
0.0
 11
149.75
 21
48.7899999999999636
 31
0.0
  0
LINE
  5
102
100
AcDbEntity
  8
Framing
 62
256
370
-1
 48
1.0
  6
BYLAYER
100
AcDbLine
 10
149.75
 20
-47.7100000000000364
 30
0.0
 11
149.75
 21
-51.2100000000000364
 31
0.0
  0
LINE
  5
103
100
AcDbEntity
  8
Framing
 62
256
370
-1
 48
1.0
  6
BYLAYER
100
AcDbLine
 10
8.0
 20
52.2899999999999636
 30
0.0
 11
8.0
 21
48.7899999999999636
 31
0.0
  0
LINE
  5
104
100
AcDbEntity
  8
Framing
 62
256
370
-1
 48
1.0
  6
BYLAYER
100
AcDbLine
 10
8.0
 20
-47.7100000000000364
 30
0.0
 11
8.0
 21
-51.2100000000000364
 31
0.0
  0
LINE
  5
105
100
AcDbEntity
  8
Framing
 62
256
370
-1
 48
1.0
  6
BYLAYER
100
AcDbLine
 10
149.75
 20
48.7899999999999636
 30
0.0
 11
148.0
 21
48.7899999999999636
 31
0.0
  0
LINE
  5
106
100
AcDbEntity
  8
Framing
 62
256
370
-1
 48
1.0
  6
BYLAYER
100
AcDbLine
 10
149.75
 20
-51.2100000000000364
 30
0.0
 11
148.0
 21
-51.2100000000000364
 31
0.0
  0
LINE
  5
107
100
AcDbEntity
  8
Framing
 62
256
370
-1
 48
1.0
  6
BYLAYER
100
AcDbLine
 10
8.0
 20
48.7899999999999636
 30
0.0
 11
6.25
 21
48.7899999999999636
 31
0.0
  0
LINE
  5
108
100
AcDbEntity
  8
Framing
 62
256
370
-1
 48
1.0
  6
BYLAYER
100
AcDbLine
 10
8.0
 20
-51.2100000000000364
 30
0.0
 11
6.25
 21
-51.2100000000000364
 31
0.0
  0
LINE
  5
109
100
AcDbEntity
  8
Framing
 62
256
370
-1
 48
1.0
  6
BYLAYER
100
AcDbLine
 10
148.0
 20
48.7899999999999636
 30
0.0
 11
148.0
 21
52.2899999999999636
 31
0.0
  0
LINE
  5
10A
100
AcDbEntity
  8
Framing
 62
256
370
-1
 48
1.0
  6
BYLAYER
100
AcDbLine
 10
148.0
 20
-51.2100000000000364
 30
0.0
 11
148.0
 21
-47.7100000000000364
 31
0.0
  0
LINE
  5
10B
100
AcDbEntity
  8
Framing
 62
256
370
-1
 48
1.0
  6
BYLAYER
100
AcDbLine
 10
6.25
 20
48.7899999999999636
 30
0.0
 11
6.25
 21
52.2899999999999636
 31
0.0
  0
LINE
  5
10C
100
AcDbEntity
  8
Framing
 62
256
370
-1
 48
1.0
  6
BYLAYER
100
AcDbLine
 10
6.25
 20
-51.2100000000000364
 30
0.0
 11
6.25
 21
-47.7100000000000364
 31
0.0
  0
CIRCLE
  5
10D
100
AcDbEntity
  8
Framing
 62
256
370
-1
 48
1.0
  6
BYLAYER
100
AcDbCircle
 10
6.6238565788617052
 20
51.7367722488424988
 30
0.0
 40
0.1945216647575966
  0
CIRCLE
  5
10E
100
AcDbEntity
  8
Framing
 62
256
370
-1
 48
1.0
  6
BYLAYER
100
AcDbCircle
 10
6.6238565788617052
 20
-48.2632277511575012
 30
0.0
 40
0.1945216647575966
  0
CIRCLE
  5
10F
100
AcDbEntity
  8
Framing
 62
256
370
-1
 48
1.0
  6
BYLAYER
100
AcDbCircle
 10
6.6238565788617052
 20
50.4867722488424988
 30
0.0
 40
0.1945216647575966
  0
CIRCLE
  5
110
100
AcDbEntity
  8
Framing
 62
256
370
-1
 48
1.0
  6
BYLAYER
100
AcDbCircle
 10
6.6238565788617052
 20
-49.5132277511575012
 30
0.0
 40
0.1945216647575966
  0
CIRCLE
  5
111
100
AcDbEntity
  8
Framing
 62
256
370
-1
 48
1.0
  6
BYLAYER
100
AcDbCircle
 10
6.6238565788617052
 20
49.2367722488424988
 30
0.0
 40
0.1945216647575966
  0
CIRCLE
  5
112
100
AcDbEntity
  8
Framing
 62
256
370
-1
 48
1.0
  6
BYLAYER
100
AcDbCircle
 10
6.6238565788617052
 20
-50.7632277511575012
 30
0.0
 40
0.1945216647575966
  0
CIRCLE
  5
113
100
AcDbEntity
  8
Framing
 62
256
370
-1
 48
1.0
  6
BYLAYER
100
AcDbCircle
 10
149.3456169621526897
 20
51.7782109307358951
 30
0.0
 40
0.1945216647575966
  0
CIRCLE
  5
114
100
AcDbEntity
  8
Framing
 62
256
370
-1
 48
1.0
  6
BYLAYER
100
AcDbCircle
 10
149.3456169621526897
 20
-48.2217890692641049
 30
0.0
 40
0.1945216647575966
  0
CIRCLE
  5
115
100
AcDbEntity
  8
Framing
 62
256
370
-1
 48
1.0
  6
BYLAYER
100
AcDbCircle
 10
149.3456169621526897
 20
50.5282109307358951
 30
0.0
 40
0.1945216647575966
  0
CIRCLE
  5
116
100
AcDbEntity
  8
Framing
 62
256
370
-1
 48
1.0
  6
BYLAYER
100
AcDbCircle
 10
149.3456169621526897
 20
-49.4717890692641049
 30
0.0
 40
0.1945216647575966
  0
CIRCLE
  5
117
100
AcDbEntity
  8
Framing
 62
256
370
-1
 48
1.0
  6
BYLAYER
100
AcDbCircle
 10
149.3456169621526897
 20
49.2782109307358951
 30
0.0
 40
0.1945216647575966
  0
CIRCLE
  5
118
100
AcDbEntity
  8
Framing
 62
256
370
-1
 48
1.0
  6
BYLAYER
100
AcDbCircle
 10
149.3456169621526897
 20
-50.7217890692641049
 30
0.0
 40
0.1945216647575966
  0
HATCH
  5
119
100
AcDbEntity
  8
Framing
 62
7
420
16053492
370
-1
 48
1.0
  6
BYLAYER
100
AcDbHatch
 10
0.0
 20
0.0
 30
0.0
210
0.0
220
0.0
230
1.0
  2
SOLID
 70
1
 71
0
 91
1
 92
1
 93
4
 72
1
 10
156.0
 20
0.0
 11
0.0
 21
0.0
 72
1
 10
0.0
 20
0.0
 11
0.0
 21
7.5
 72
1
 10
0.0
 20
7.5
 11
156.0
 21
7.5
 72
1
 10
156.0
 20
7.5
 11
156.0
 21
0.0
 97
0
 75
0
 76
1
 98
0
1001
ACAD
1010
0.0
1020
0.0
1030
0
  0
HATCH
  5
11A
100
AcDbEntity
  8
Framing
 62
7
420
16053492
370
-1
 48
1.0
  6
BYLAYER
100
AcDbHatch
 10
0.0
 20
0.0
 30
0.0
210
0.0
220
0.0
230
1.0
  2
SOLID
 70
1
 71
0
 91
1
 92
1
 93
4
 72
1
 10
156.0
 20
-100.0
 11
0.0
 21
-100.0
 72
1
 10
0.0
 20
-100.0
 11
0.0
 21
-92.5
 72
1
 10
0.0
 20
-92.5
 11
156.0
 21
-92.5
 72
1
 10
156.0
 20
-92.5
 11
156.0
 21
-100.0
 97
0
 75
0
 76
1
 98
0
1001
ACAD
1010
0.0
1020
0.0
1030
0
  0
LINE
  5
11B
100
AcDbEntity
  8
Framing
 62
256
370
-1
 48
1.0
  6
BYLAYER
100
AcDbLine
 10
0.0
 20
0.0
 30
0.0
 11
0.0
 21
7.5
 31
0.0
  0
LINE
  5
11C
100
AcDbEntity
  8
Framing
 62
256
370
-1
 48
1.0
  6
BYLAYER
100
AcDbLine
 10
156.0
 20
7.5
 30
0.0
 11
156.0
 21
0.0
 31
0.0
  0
LINE
  5
11D
100
AcDbEntity
  8
Framing
 62
256
370
-1
 48
1.0
  6
BYLAYER
100
AcDbLine
 10
156.0
 20
0.0
 30
0.0
 11
0.0
 21
0.0
 31
0.0
  0
LINE
  5
11E
100
AcDbEntity
  8
Framing
 62
256
370
-1
 48
1.0
  6
BYLAYER
100
AcDbLine
 10
0.0
 20
-100.0
 30
0.0
 11
0.0
 21
-92.5
 31
0.0
  0
LINE
  5
11F
100
AcDbEntity
  8
Framing
 62
256
370
-1
 48
1.0
  6
BYLAYER
100
AcDbLine
 10
156.0
 20
-92.5
 30
0.0
 11
156.0
 21
-100.0
 31
0.0
  0
LINE
  5
120
100
AcDbEntity
  8
Framing
 62
256
370
-1
 48
1.0
  6
BYLAYER
100
AcDbLine
 10
156.0
 20
-100.0
 30
0.0
 11
0.0
 21
-100.0
 31
0.0
  0
MTEXT
  5
121
100
AcDbEntity
  8
Plywood 1
 62
256
370
-1
 48
1.0
  6
BYLAYER
100
AcDbMText
 10
60.0
 20
-10.0
 30
0.0
 40
1.0
 41
0.0
 71
1
 72
1
  1
\H3;2-panel option
  7
textstyle1
 50
1.0
 73
2
 44
1.0
  0
MTEXT
  5
122
100
AcDbEntity
  8
Plywood 2
 62
256
370
-1
 48
1.0
  6
BYLAYER
100
AcDbMText
 10
60.0
 20
-120.0
 30
0.0
 40
1.0
 41
0.0
 71
1
 72
1
  1
\H3;3-panel option
  7
textstyle0
 50
0.0
 73
2
 44
1.0
  0
LINE
  5
123
100
AcDbEntity
  8
Plywood 1
 62
256
370
-1
 48
1.0
  6
BYLAYER
100
AcDbLine
 10
0.25
 20
7.5
 30
0.0
 11
0.25
 21
55.5
 31
0.0
  0
LINE
  5
124
100
AcDbEntity
  8
Plywood 1
 62
256
370
-1
 48
1.0
  6
BYLAYER
100
AcDbLine
 10
78.0
 20
7.5
 30
0.0
 11
78.0
 21
55.5
 31
0.0
  0
LINE
  5
125
100
AcDbEntity
  8
Plywood 1
 62
256
370
-1
 48
1.0
  6
BYLAYER
100
AcDbLine
 10
0.25
 20
55.5
 30
0.0
 11
78.0
 21
55.5
 31
0.0
  0
LINE
  5
126
100
AcDbEntity
  8
Plywood 1
 62
256
370
-1
 48
1.0
  6
BYLAYER
100
AcDbLine
 10
78.0
 20
55.5
 30
0.0
 11
155.75
 21
55.5
 31
0.0
  0
LINE
  5
127
100
AcDbEntity
  8
Plywood 1
 62
256
370
-1
 48
1.0
  6
BYLAYER
100
AcDbLine
 10
78.0
 20
55.5
 30
0.0
 11
78.0
 21
7.5
 31
0.0
  0
LINE
  5
128
100
AcDbEntity
  8
Plywood 1
 62
256
370
-1
 48
1.0
  6
BYLAYER
100
AcDbLine
 10
155.75
 20
55.5
 30
0.0
 11
155.75
 21
7.5
 31
0.0
  0
LINE
  5
129
100
AcDbEntity
  8
Plywood 1
 62
256
370
-1
 48
1.0
  6
BYLAYER
100
AcDbLine
 10
78.0
 20
7.5
 30
0.0
 11
0.25
 21
7.5
 31
0.0
  0
LINE
  5
12A
100
AcDbEntity
  8
Plywood 1
 62
256
370
-1
 48
1.0
  6
BYLAYER
100
AcDbLine
 10
155.75
 20
7.5
 30
0.0
 11
78.0
 21
7.5
 31
0.0
  0
HATCH
  5
12B
100
AcDbEntity
  8
Plywood 1
 62
256
370
-1
 48
1.0
  6
BYLAYER
100
AcDbHatch
 10
0.0
 20
0.0
 30
0.0
210
0.0
220
0.0
230
1.0
  2
ACAD_ISO15W100
 70
0
 71
0
 91
1
 92
1
 93
4
 72
1
 10
78.0
 20
7.5
 11
0.25
 21
7.5
 72
1
 10
0.25
 20
7.5
 11
0.25
 21
55.5
 72
1
 10
0.25
 20
55.5
 11
78.0
 21
55.5
 72
1
 10
78.0
 20
55.5
 11
78.0
 21
7.5
 97
0
 75
0
 76
1
 52
45.0
 41
0.5
 77
0
 78
1
 53
45.0
 43
0.0
 44
0.0
 45
-0.0883883476483184
 46
0.0883883476483185
 79
0
 98
0
1001
ACAD
1010
0.0
1020
0.0
1030
0
  0
HATCH
  5
12C
100
AcDbEntity
  8
Plywood 1
 62
256
370
-1
 48
1.0
  6
BYLAYER
100
AcDbHatch
 10
0.0
 20
0.0
 30
0.0
210
0.0
220
0.0
230
1.0
  2
ACAD_ISO15W100
 70
0
 71
0
 91
1
 92
1
 93
4
 72
1
 10
155.75
 20
7.5
 11
78.0
 21
7.5
 72
1
 10
78.0
 20
7.5
 11
78.0
 21
55.5
 72
1
 10
78.0
 20
55.5
 11
155.75
 21
55.5
 72
1
 10
155.75
 20
55.5
 11
155.75
 21
7.5
 97
0
 75
0
 76
1
 52
-45.0
 41
0.5
 77
0
 78
1
 53
45.0
 43
0.0
 44
0.0
 45
-0.0883883476483184
 46
0.0883883476483185
 79
0
 98
0
1001
ACAD
1010
0.0
1020
0.0
1030
0
  0
LINE
  5
12D
100
AcDbEntity
  8
Plywood 2
 62
256
370
-1
 48
1.0
  6
BYLAYER
100
AcDbLine
 10
0.25
 20
-92.5
 30
0.0
 11
0.25
 21
-44.5
 31
0.0
  0
LINE
  5
12E
100
AcDbEntity
  8
Plywood 2
 62
256
370
-1
 48
1.0
  6
BYLAYER
100
AcDbLine
 10
0.25
 20
-44.5
 30
0.0
 11
18.75
 21
-44.5
 31
0.0
  0
LINE
  5
12F
100
AcDbEntity
  8
Plywood 2
 62
256
370
-1
 48
1.0
  6
BYLAYER
100
AcDbLine
 10
18.75
 20
-44.5
 30
0.0
 11
18.75
 21
-92.5
 31
0.0
  0
LINE
  5
130
100
AcDbEntity
  8
Plywood 2
 62
256
370
-1
 48
1.0
  6
BYLAYER
100
AcDbLine
 10
18.75
 20
-92.5
 30
0.0
 11
0.25
 21
-92.5
 31
0.0
  0
LINE
  5
131
100
AcDbEntity
  8
Plywood 2
 62
256
370
-1
 48
1.0
  6
BYLAYER
100
AcDbLine
 10
18.75
 20
-92.5
 30
0.0
 11
18.75
 21
-44.5
 31
0.0
  0
LINE
  5
132
100
AcDbEntity
  8
Plywood 2
 62
256
370
-1
 48
1.0
  6
BYLAYER
100
AcDbLine
 10
18.75
 20
-44.5
 30
0.0
 11
114.75
 21
-44.5
 31
0.0
  0
LINE
  5
133
100
AcDbEntity
  8
Plywood 2
 62
256
370
-1
 48
1.0
  6
BYLAYER
100
AcDbLine
 10
114.75
 20
-44.5
 30
0.0
 11
114.75
 21
-92.5
 31
0.0
  0
LINE
  5
134
100
AcDbEntity
  8
Plywood 2
 62
256
370
-1
 48
1.0
  6
BYLAYER
100
AcDbLine
 10
114.75
 20
-92.5
 30
0.0
 11
18.75
 21
-92.5
 31
0.0
  0
LINE
  5
135
100
AcDbEntity
  8
Plywood 2
 62
256
370
-1
 48
1.0
  6
BYLAYER
100
AcDbLine
 10
114.75
 20
-92.5
 30
0.0
 11
114.75
 21
-44.5
 31
0.0
  0
LINE
  5
136
100
AcDbEntity
  8
Plywood 2
 62
256
370
-1
 48
1.0
  6
BYLAYER
100
AcDbLine
 10
114.75
 20
-44.5
 30
0.0
 11
155.75
 21
-44.5
 31
0.0
  0
LINE
  5
137
100
AcDbEntity
  8
Plywood 2
 62
256
370
-1
 48
1.0
  6
BYLAYER
100
AcDbLine
 10
155.75
 20
-92.5
 30
0.0
 11
155.75
 21
-44.5
 31
0.0
  0
LINE
  5
138
100
AcDbEntity
  8
Plywood 2
 62
256
370
-1
 48
1.0
  6
BYLAYER
100
AcDbLine
 10
155.75
 20
-92.5
 30
0.0
 11
114.75
 21
-92.5
 31
0.0
  0
HATCH
  5
139
100
AcDbEntity
  8
Plywood 2
 62
256
370
-1
 48
1.0
  6
BYLAYER
100
AcDbHatch
 10
0.0
 20
0.0
 30
0.0
210
0.0
220
0.0
230
1.0
  2
ACAD_ISO15W100
 70
0
 71
0
 91
1
 92
1
 93
4
 72
1
 10
114.75
 20
-44.5
 11
155.75
 21
-44.5
 72
1
 10
155.75
 20
-44.5
 11
155.75
 21
-92.5
 72
1
 10
155.75
 20
-92.5
 11
114.75
 21
-92.5
 72
1
 10
114.75
 20
-92.5
 11
114.75
 21
-44.5
 97
0
 75
0
 76
1
 52
-45.0
 41
0.5
 77
0
 78
1
 53
45.0
 43
0.0
 44
0.0
 45
-0.0883883476483184
 46
0.0883883476483185
 79
0
 98
0
1001
ACAD
1010
0.0
1020
0.0
1030
0
  0
HATCH
  5
13A
100
AcDbEntity
  8
Plywood 2
 62
256
370
-1
 48
1.0
  6
BYLAYER
100
AcDbHatch
 10
0.0
 20
0.0
 30
0.0
210
0.0
220
0.0
230
1.0
  2
ACAD_ISO15W100
 70
0
 71
0
 91
1
 92
1
 93
4
 72
1
 10
18.75
 20
-92.5
 11
18.75
 21
-44.5
 72
1
 10
18.75
 20
-44.5
 11
0.25
 21
-44.5
 72
1
 10
0.25
 20
-44.5
 11
0.25
 21
-92.5
 72
1
 10
0.25
 20
-92.5
 11
18.75
 21
-92.5
 97
0
 75
0
 76
1
 52
-45.0
 41
0.5
 77
0
 78
1
 53
45.0
 43
0.0
 44
0.0
 45
-0.0883883476483184
 46
0.0883883476483185
 79
0
 98
0
1001
ACAD
1010
0.0
1020
0.0
1030
0
  0
HATCH
  5
13B
100
AcDbEntity
  8
Plywood 2
 62
256
370
-1
 48
1.0
  6
BYLAYER
100
AcDbHatch
 10
0.0
 20
0.0
 30
0.0
210
0.0
220
0.0
230
1.0
  2
ACAD_ISO15W100
 70
0
 71
0
 91
1
 92
1
 93
4
 72
1
 10
114.75
 20
-92.5
 11
114.75
 21
-44.5
 72
1
 10
114.75
 20
-44.5
 11
18.75
 21
-44.5
 72
1
 10
18.75
 20
-44.5
 11
18.75
 21
-92.5
 72
1
 10
18.75
 20
-92.5
 11
114.75
 21
-92.5
 97
0
 75
0
 76
1
 52
45.0
 41
0.5
 77
0
 78
1
 53
45.0
 43
0.0
 44
0.0
 45
-0.0883883476483184
 46
0.0883883476483185
 79
0
 98
0
1001
ACAD
1010
0.0
1020
0.0
1030
0
  0
INSERT
  5
13C
100
AcDbEntity
  8
Plywood 2
 62
256
370
-1
 48
1.0
  6
BYLAYER
100
AcDbBlockReference
  2
H-clip
 10
18.0
 20
-48.0
 30
0.0
  0
INSERT
  5
13D
100
AcDbEntity
  8
Plywood 2
 62
256
370
-1
 48
1.0
  6
BYLAYER
100
AcDbBlockReference
  2
H-clip
 10
114.0
 20
-48.0
 30
0.0
  0
INSERT
  5
13E
100
AcDbEntity
  8
Plywood 2
 62
256
370
-1
 48
1.0
  6
BYLAYER
100
AcDbBlockReference
  2
H-clip
 10
18.0
 20
-70.0
 30
0.0
  0
INSERT
  5
13F
100
AcDbEntity
  8
Plywood 2
 62
256
370
-1
 48
1.0
  6
BYLAYER
100
AcDbBlockReference
  2
H-clip
 10
114.0
 20
-70.0
 30
0.0
  0
INSERT
  5
140
100
AcDbEntity
  8
Plywood 2
 62
256
370
-1
 48
1.0
  6
BYLAYER
100
AcDbBlockReference
  2
H-clip
 10
18.0
 20
-87.0
 30
0.0
  0
INSERT
  5
141
100
AcDbEntity
  8
Plywood 2
 62
256
370
-1
 48
1.0
  6
BYLAYER
100
AcDbBlockReference
  2
H-clip
 10
114.0
 20
-87.0
 30
0.0
  0
LEADER
  5
142
100
AcDbEntity
  8
Plywood 2
 62
256
370
-1
 48
1.0
  6
BYLAYER
100
AcDbLeader
  3
Standard
 71
1
 72
0
 73
3
 74
0
 75
0
 40
1.0
 41
10.0
 76
3
 10
18.75
 20
-47.25
 10
26.0
 20
-35.75
 10
29.0
 20
-35.75
1001
ACAD
1000
DSTYLE
1002
{
1070
40
1040
1.0
1002
}
  0
LEADER
  5
143
100
AcDbEntity
  8
Plywood 2
 62
256
370
-1
 48
1.0
  6
BYLAYER
100
AcDbLeader
  3
Standard
 71
1
 72
0
 73
3
 74
0
 75
0
 40
1.0
 41
10.0
 76
3
 10
114.75
 20
-47.2500000000000071
 10
122.0
 20
-35.7500000000000071
 10
125.0
 20
-35.7500000000000071
1001
ACAD
1000
DSTYLE
1002
{
1070
40
1040
1.0
1002
}
  0
MTEXT
  5
144
100
AcDbEntity
  8
Plywood 2
 62
256
370
-1
 48
1.0
  6
BYLAYER
100
AcDbMText
 10
30.0
 20
-34.0
 30
0.0
 40
3.0
 41
0.0
 71
1
 72
1
  1
Hurricane Clips
  7
textstyle3
 50
0.0
 73
2
 44
1.0
  0
MTEXT
  5
145
100
AcDbEntity
  8
Plywood 2
 62
256
370
-1
 48
1.0
  6
BYLAYER
100
AcDbMText
 10
125.9366866797206796
 20
-34.2304537098336112
 30
0.0
 40
3.0
 41
0.0
 71
1
 72
1
  1
Hurricane Clips
  7
textstyle2
 50
0.0
 73
2
 44
1.0
  0
ENDSEC
  0
SECTION
  2
OBJECTS
  0
DICTIONARY
  5
C
100
AcDbDictionary
280
0
281
1
  3
ACAD_GROUP
350
D
  3
ACAD_LAYOUT
350
1A
  3
ACAD_MLINESTYLE
350
17
  3
ACAD_PLOTSETTINGS
350
19
  3
ACAD_PLOTSTYLENAME
350
E
  3
AcDbVariableDictionary
350
146
  3
QCAD_OBJECTS
350
147
  0
DICTIONARY
  5
D
100
AcDbDictionary
280
0
281
1
  0
ACDBDICTIONARYWDFLT
  5
E
100
AcDbDictionary
281
1
  3
Normal
350
F
100
AcDbDictionaryWithDefault
340
F
  0
ACDBPLACEHOLDER
  5
F
  0
DICTIONARY
  5
17
100
AcDbDictionary
280
0
281
1
  3
Standard
350
18
  0
MLINESTYLE
  5
18
100
AcDbMlineStyle
  2
STANDARD
 70
0
  3

 62
256
 51
90.0
 52
90.0
 71
2
 49
0.5
 62
256
  6
BYLAYER
 49
-0.5
 62
256
  6
BYLAYER
  0
DICTIONARY
  5
19
100
AcDbDictionary
280
0
281
1
  0
DICTIONARY
  5
1A
100
AcDbDictionary
281
1
  3
Layout1
350
1E
  3
Layout2
350
26
  3
Model
350
22
  0
LAYOUT
  5
1E
100
AcDbPlotSettings
  1

  2
none_device
  4

  6

 40
0.0
 41
0.0
 42
0.0
 43
0.0
 44
0.0
 45
0.0
 46
0.0
 47
0.0
 48
0.0
 49
0.0
140
0.0
141
0.0
142
1.0
143
1.0
 70
688
 72
0
 73
0
 74
5
  7

 75
16
147
1.0
148
0.0
149
0.0
100
AcDbLayout
  1
Layout1
 70
1
 71
1
 10
0.0
 20
0.0
 11
420.0
 21
297.0
 12
0.0
 22
0.0
 32
0.0
 14
100000000000000000000.0
 24
100000000000000000000.0
 34
100000000000000000000.0
 15
-100000000000000000000.0
 25
-100000000000000000000.0
 35
-100000000000000000000.0
146
0.0
 13
0.0
 23
0.0
 33
0.0
 16
1.0
 26
0.0
 36
0.0
 17
0.0
 27
1.0
 37
0.0
 76
0
330
1B
  0
LAYOUT
  5
22
100
AcDbPlotSettings
  1

  2
none_device
  4

  6

 40
0.0
 41
0.0
 42
0.0
 43
0.0
 44
0.0
 45
0.0
 46
0.0
 47
0.0
 48
0.0
 49
0.0
140
0.0
141
0.0
142
1.0
143
1.0
 70
1712
 72
0
 73
0
 74
0
  7

 75
0
147
1.0
148
0.0
149
0.0
100
AcDbLayout
  1
Model
 70
1
 71
0
 10
0.0
 20
0.0
 11
12.0
 21
9.0
 12
0.0
 22
0.0
 32
0.0
 14
0.0
 24
0.0
 34
0.0
 15
0.0
 25
0.0
 35
0.0
146
0.0
 13
0.0
 23
0.0
 33
0.0
 16
1.0
 26
0.0
 36
0.0
 17
0.0
 27
1.0
 37
0.0
 76
0
330
1F
  0
LAYOUT
  5
26
100
AcDbPlotSettings
  1

  2
none_device
  4

  6

 40
0.0
 41
0.0
 42
0.0
 43
0.0
 44
0.0
 45
0.0
 46
0.0
 47
0.0
 48
0.0
 49
0.0
140
0.0
141
0.0
142
1.0
143
1.0
 70
688
 72
0
 73
0
 74
5
  7

 75
16
147
1.0
148
0.0
149
0.0
100
AcDbLayout
  1
Layout2
 70
1
 71
2
 10
0.0
 20
0.0
 11
12.0
 21
9.0
 12
0.0
 22
0.0
 32
0.0
 14
0.0
 24
0.0
 34
0.0
 15
0.0
 25
0.0
 35
0.0
146
0.0
 13
0.0
 23
0.0
 33
0.0
 16
1.0
 26
0.0
 36
0.0
 17
0.0
 27
1.0
 37
0.0
 76
0
330
23
  0
DICTIONARY
  5
146
100
AcDbDictionary
281
1
  3
DIMASSOC
350
149
  3
HIDETEXT
350
148
  0
DICTIONARYVAR
  5
148
100
DictionaryVariables
280
0
  1
2
  0
DICTIONARYVAR
  5
149
100
DictionaryVariables
280
0
  1
1
  0
DICTIONARY
  5
147
100
AcDbDictionary
281
1
  3
ColorSettings/BackgroundColor
350
14A
  3
ColorSettings/ColorMode
350
14B
  3
DimensionSettings/AngularFormat
350
14C
  3
DimensionSettings/AngularPrecision
350
14D
  3
DimensionSettings/DecimalPoint
350
14E
  3
DimensionSettings/DimensionFont
350
14F
  3
DimensionSettings/DimensionTextColor
350
150
  3
DimensionSettings/KeepProportions
350
151
  3
DimensionSettings/LinearFormat
350
152
  3
DimensionSettings/LinearPrecision
350
153
  3
Grid/DisplayGrid00
350
154
  3
Grid/DisplayGrid01
350
155
  3
Grid/DisplayGrid02
350
156
  3
Grid/DisplayGrid03
350
157
  3
Grid/GridSpacingX00
350
158
  3
Grid/GridSpacingX01
350
159
  3
Grid/GridSpacingX02
350
15A
  3
Grid/GridSpacingX03
350
15B
  3
Grid/GridSpacingY00
350
15C
  3
Grid/GridSpacingY01
350
15D
  3
Grid/GridSpacingY02
350
15E
  3
Grid/GridSpacingY03
350
15F
  3
Grid/IsometricGrid00
350
160
  3
Grid/IsometricGrid01
350
161
  3
Grid/IsometricGrid02
350
162
  3
Grid/IsometricGrid03
350
163
  3
Grid/IsometricProjection00
350
164
  3
Grid/IsometricProjection01
350
165
  3
Grid/IsometricProjection02
350
166
  3
Grid/IsometricProjection03
350
167
  3
Grid/MetaGridSpacingX00
350
168
  3
Grid/MetaGridSpacingX01
350
169
  3
Grid/MetaGridSpacingX02
350
16A
  3
Grid/MetaGridSpacingX03
350
16B
  3
Grid/MetaGridSpacingY00
350
16C
  3
Grid/MetaGridSpacingY01
350
16D
  3
Grid/MetaGridSpacingY02
350
16E
  3
Grid/MetaGridSpacingY03
350
16F
  3
MultiPageSettings/Columns
350
170
  3
MultiPageSettings/GlueMarginsBottom
350
171
  3
MultiPageSettings/GlueMarginsLeft
350
172
  3
MultiPageSettings/GlueMarginsRight
350
173
  3
MultiPageSettings/GlueMarginsTop
350
174
  3
MultiPageSettings/PrintCropMarks
350
175
  3
MultiPageSettings/Rows
350
176
  3
PageSettings/OffsetX
350
177
  3
PageSettings/OffsetY
350
178
  3
PageSettings/PageOrientation
350
179
  3
PageSettings/PaperHeight
350
17A
  3
PageSettings/PaperSizeAccepted
350
17B
  3
PageSettings/PaperSizeName
350
17C
  3
PageSettings/PaperWidth
350
17D
  3
PageSettings/PointSize
350
17E
  3
PageSettings/PositionAccepted
350
17F
  3
PageSettings/Scale
350
180
  3
PageSettings/ShowPaperBorders
350
181
  3
PageTagSettings/EnablePageTags
350
182
  3
PageTagSettings/TagAlignment
350
183
  3
PageTagSettings/TagFont
350
184
  3
PageTagSettings/TagPosition
350
185
  3
QCADVersion
350
186
  3
UnitSettings/Measurement
350
187
  3
UnitSettings/PaperUnit
350
188
  3
ViewportCenter
350
189
  3
ViewportHeight
350
18A
  3
ViewportWidth
350
18B
  0
XRECORD
  5
14A
330
147
100
AcDbXrecord
280
1
1000
White
  0
XRECORD
  5
14B
330
147
100
AcDbXrecord
280
1
1000
FullColor
  0
XRECORD
  5
14C
330
147
100
AcDbXrecord
280
1
 90
0
  0
XRECORD
  5
14D
330
147
100
AcDbXrecord
280
1
 90
0
  0
XRECORD
  5
14E
330
147
100
AcDbXrecord
280
1
 90
46
  0
XRECORD
  5
14F
330
147
100
AcDbXrecord
280
1
1000
DejaVu Sans
  0
XRECORD
  5
150
330
147
100
AcDbXrecord
280
1
1000
By Layer
  0
XRECORD
  5
151
330
147
100
AcDbXrecord
280
1
290
1
  0
XRECORD
  5
152
330
147
100
AcDbXrecord
280
1
 90
2
  0
XRECORD
  5
153
330
147
100
AcDbXrecord
280
1
 90
4
  0
XRECORD
  5
154
330
147
100
AcDbXrecord
280
1
290
1
  0
XRECORD
  5
155
330
147
100
AcDbXrecord
280
1
290
1
  0
XRECORD
  5
156
330
147
100
AcDbXrecord
280
1
290
1
  0
XRECORD
  5
157
330
147
100
AcDbXrecord
280
1
290
1
  0
XRECORD
  5
158
330
147
100
AcDbXrecord
280
1
1000
auto
  0
XRECORD
  5
159
330
147
100
AcDbXrecord
280
1
1000
auto
  0
XRECORD
  5
15A
330
147
100
AcDbXrecord
280
1
1000
auto
  0
XRECORD
  5
15B
330
147
100
AcDbXrecord
280
1
1000
auto
  0
XRECORD
  5
15C
330
147
100
AcDbXrecord
280
1
1000
auto
  0
XRECORD
  5
15D
330
147
100
AcDbXrecord
280
1
1000
auto
  0
XRECORD
  5
15E
330
147
100
AcDbXrecord
280
1
1000
auto
  0
XRECORD
  5
15F
330
147
100
AcDbXrecord
280
1
1000
auto
  0
XRECORD
  5
160
330
147
100
AcDbXrecord
280
1
290
0
  0
XRECORD
  5
161
330
147
100
AcDbXrecord
280
1
290
0
  0
XRECORD
  5
162
330
147
100
AcDbXrecord
280
1
290
0
  0
XRECORD
  5
163
330
147
100
AcDbXrecord
280
1
290
0
  0
XRECORD
  5
164
330
147
100
AcDbXrecord
280
1
 90
65537
  0
XRECORD
  5
165
330
147
100
AcDbXrecord
280
1
 90
65537
  0
XRECORD
  5
166
330
147
100
AcDbXrecord
280
1
 90
65537
  0
XRECORD
  5
167
330
147
100
AcDbXrecord
280
1
 90
65537
  0
XRECORD
  5
168
330
147
100
AcDbXrecord
280
1
1000
auto
  0
XRECORD
  5
169
330
147
100
AcDbXrecord
280
1
1000
auto
  0
XRECORD
  5
16A
330
147
100
AcDbXrecord
280
1
1000
auto
  0
XRECORD
  5
16B
330
147
100
AcDbXrecord
280
1
1000
auto
  0
XRECORD
  5
16C
330
147
100
AcDbXrecord
280
1
1000
auto
  0
XRECORD
  5
16D
330
147
100
AcDbXrecord
280
1
1000
auto
  0
XRECORD
  5
16E
330
147
100
AcDbXrecord
280
1
1000
auto
  0
XRECORD
  5
16F
330
147
100
AcDbXrecord
280
1
1000
auto
  0
XRECORD
  5
170
330
147
100
AcDbXrecord
280
1
 90
1
  0
XRECORD
  5
171
330
147
100
AcDbXrecord
280
1
 40
0.0
  0
XRECORD
  5
172
330
147
100
AcDbXrecord
280
1
 40
0.0
  0
XRECORD
  5
173
330
147
100
AcDbXrecord
280
1
 40
0.0
  0
XRECORD
  5
174
330
147
100
AcDbXrecord
280
1
 40
0.0
  0
XRECORD
  5
175
330
147
100
AcDbXrecord
280
1
290
0
  0
XRECORD
  5
176
330
147
100
AcDbXrecord
280
1
 90
1
  0
XRECORD
  5
177
330
147
100
AcDbXrecord
280
1
 40
-31.2439114071397626
  0
XRECORD
  5
178
330
147
100
AcDbXrecord
280
1
 40
-194.2196817058808733
  0
XRECORD
  5
179
330
147
100
AcDbXrecord
280
1
1000
Portrait
  0
XRECORD
  5
17A
330
147
100
AcDbXrecord
280
1
1000
11
  0
XRECORD
  5
17B
330
147
100
AcDbXrecord
280
1
290
1
  0
XRECORD
  5
17C
330
147
100
AcDbXrecord
280
1
1000
ANSI A (Letter)
  0
XRECORD
  5
17D
330
147
100
AcDbXrecord
280
1
1000
8.5
  0
XRECORD
  5
17E
330
147
100
AcDbXrecord
280
1
1000
0.5
  0
XRECORD
  5
17F
330
147
100
AcDbXrecord
280
1
290
1
  0
XRECORD
  5
180
330
147
100
AcDbXrecord
280
1
 40
0.04
  0
XRECORD
  5
181
330
147
100
AcDbXrecord
280
1
290
1
  0
XRECORD
  5
182
330
147
100
AcDbXrecord
280
1
290
0
  0
XRECORD
  5
183
330
147
100
AcDbXrecord
280
1
1000
Inside
  0
XRECORD
  5
184
330
147
100
AcDbXrecord
280
1
1000
Arial,10,-1,5,50,0,0,0,0,0
  0
XRECORD
  5
185
330
147
100
AcDbXrecord
280
1
1000
TopLeft
  0
XRECORD
  5
186
330
147
100
AcDbXrecord
280
1
1000
3.32.6
  0
XRECORD
  5
187
330
147
100
AcDbXrecord
280
1
 90
0
  0
XRECORD
  5
188
330
147
100
AcDbXrecord
280
1
 90
1
  0
XRECORD
  5
18A
330
147
100
AcDbXrecord
280
1
 40
396.2292555464169936
  0
XRECORD
  5
18B
330
147
100
AcDbXrecord
280
1
 40
425.9269117806651934
  0
ENDSEC
  0
EOF
