999
dxflib 3.26.4.0
  0
SECTION
  2
HEADER
  9
$ACADVER
  1
AC1015
  9
$HANDSEED
  5
FFFF
  9
$DIMADEC
 70
0
  9
$DIMASZ
 40
1.5
  9
$DIMATFIT
 70
0
  9
$DIMAUNIT
 70
0
  9
$DIMAZIN
 70
2
  9
$DIMBLK
  1
0
  9
$DIMBLK1
  1
0
  9
$DIMBLK2
  1
0
  9
$DIMDEC
 70
4
  9
$DIMDLI
 40
5.0
  9
$DIMDSEP
 70
46
  9
$DIMEXE
 40
1.25
  9
$DIMEXO
 40
0.625
  9
$DIMGAP
 40
0.625
  9
$DIMLFAC
 40
0.0
  9
$DIMLUNIT
 70
2
  9
$DIMSCALE
 40
1.0
  9
$DIMTAD
 70
1
  9
$DIMTIH
 70
0
  9
$DIMTSZ
 40
0.0
  9
$DIMTXT
 40
2.5
  9
$DIMZIN
 70
8
  9
$DWGCODEPAGE
  3
ANSI_1252
  9
$INSUNITS
 70
1
  9
$LTSCALE
 40
1.0
  9
$MAXACTVP
 70
64
  9
$MEASUREMENT
 70
1
  9
$MIRRTEXT
 70
0
  9
$PDMODE
 70
0
  9
$PDSIZE
 40
0.0
  0
ENDSEC
  0
SECTION
  2
TABLES
  0
TABLE
  2
VPORT
  5
8
100
AcDbSymbolTable
 70
1
  0
VPORT
  5
30
100
AcDbSymbolTableRecord
100
AcDbViewportTableRecord
  2
*Active
 70
0
 10
0.0
 20
0.0
 11
1.0
 21
1.0
 12
286.3055555555554861
 22
148.5
 13
0.0
 23
0.0
 14
10.0
 24
10.0
 15
10.0
 25
10.0
 16
0.0
 26
0.0
 36
1.0
 17
0.0
 27
0.0
 37
0.0
 40
297.0
 41
1.92798353909465
 42
50.0
 43
0.0
 44
0.0
 50
0.0
 51
0.0
 71
0
 72
100
 73
1
 74
3
 75
1
 76
1
 77
0
 78
0
281
0
 65
1
110
0.0
120
0.0
130
0.0
111
1.0
121
0.0
131
0.0
112
0.0
122
1.0
132
0.0
 79
0
146
0.0
  0
ENDTAB
  0
TABLE
  2
LTYPE
  5
5
100
AcDbSymbolTable
 70
41
  0
LTYPE
  5
16
100
AcDbSymbolTableRecord
100
AcDbLinetypeTableRecord
  2
Continuous
 70
0
  3
Solid line
 72
65
 73
0
 40
0.0
  0
LTYPE
  5
31
100
AcDbSymbolTableRecord
100
AcDbLinetypeTableRecord
  2
ACAD_ISO06W100
 70
0
  3
ISO long-dash triple-dot ____ ... ____ ... ____
 72
65
 73
8
 40
36.0000000000000071
 49
24.0
 74
0
 49
-2.9500000000000002
 74
0
 49
0.1
 74
0
 49
-2.9000000000000004
 74
0
 49
0.1
 74
0
 49
-2.9000000000000004
 74
0
 49
0.1
 74
0
 49
-2.9500000000000002
 74
0
  0
LTYPE
  5
32
100
AcDbSymbolTableRecord
100
AcDbLinetypeTableRecord
  2
DASHEDX2
 70
0
  3
Dashed (2x) ____  ____  ____  ____  ____  ___
 72
65
 73
2
 40
1.5
 49
1.0
 74
0
 49
-0.5
 74
0
  0
LTYPE
  5
33
100
AcDbSymbolTableRecord
100
AcDbLinetypeTableRecord
  2
ACAD_ISO03W100
 70
0
  3
ISO dash space __    __    __    __    __    __
 72
65
 73
2
 40
30.0
 49
12.0
 74
0
 49
-18.0
 74
0
  0
LTYPE
  5
34
100
AcDbSymbolTableRecord
100
AcDbLinetypeTableRecord
  2
DIVIDEX2
 70
0
  3
Divide (2x) ________  .  .  ________  .  .  _
 72
65
 73
6
 40
2.5000000000000004
 49
1.0
 74
0
 49
-0.45
 74
0
 49
0.1
 74
0
 49
-0.4
 74
0
 49
0.1
 74
0
 49
-0.45
 74
0
  0
LTYPE
  5
35
100
AcDbSymbolTableRecord
100
AcDbLinetypeTableRecord
  2
BORDERX2
 70
0
  3
Border (2x) ____  ____  .  ____  ____  .  ___
 72
65
 73
6
 40
3.5000000000000004
 49
1.0
 74
0
 49
-0.5
 74
0
 49
1.0
 74
0
 49
-0.45
 74
0
 49
0.1
 74
0
 49
-0.45
 74
0
  0
LTYPE
  5
36
100
AcDbSymbolTableRecord
100
AcDbLinetypeTableRecord
  2
ACAD_ISO07W100
 70
0
  3
ISO dot . . . . . . . . . . . . . . . . . . . . 
 72
65
 73
2
 40
3.0
 49
0.1
 74
0
 49
-2.8999999999999999
 74
0
  0
LTYPE
  5
37
100
AcDbSymbolTableRecord
100
AcDbLinetypeTableRecord
  2
ACAD_ISO05W100
 70
0
  3
ISO long-dash double-dot ____ .. ____ .. ____ . 
 72
65
 73
6
 40
33.0000000000000071
 49
24.0
 74
0
 49
-2.9500000000000002
 74
0
 49
0.1
 74
0
 49
-2.9000000000000004
 74
0
 49
0.1
 74
0
 49
-2.9500000000000002
 74
0
  0
LTYPE
  5
38
100
AcDbSymbolTableRecord
100
AcDbLinetypeTableRecord
  2
ACAD_ISO10W100
 70
0
  3
ISO dash dot __ . __ . __ . __ . __ . __ . __ . 
 72
65
 73
4
 40
18.0
 49
12.0
 74
0
 49
-2.9500000000000002
 74
0
 49
0.1
 74
0
 49
-2.9500000000000002
 74
0
  0
LTYPE
  5
39
100
AcDbSymbolTableRecord
100
AcDbLinetypeTableRecord
  2
PHANTOM2
 70
0
  3
Phantom (.5x) ___ _ _ ___ _ _ ___ _ _ ___ _ _
 72
65
 73
6
 40
1.25
 49
0.625
 74
0
 49
-0.125
 74
0
 49
0.125
 74
0
 49
-0.125
 74
0
 49
0.125
 74
0
 49
-0.125
 74
0
  0
LTYPE
  5
3A
100
AcDbSymbolTableRecord
100
AcDbLinetypeTableRecord
  2
BORDER
 70
0
  3
Border __ __ . __ __ . __ __ . __ __ . __ __ .
 72
65
 73
6
 40
1.75
 49
0.5
 74
0
 49
-0.25
 74
0
 49
0.5
 74
0
 49
-0.2
 74
0
 49
0.1
 74
0
 49
-0.2
 74
0
  0
LTYPE
  5
3B
100
AcDbSymbolTableRecord
100
AcDbLinetypeTableRecord
  2
DOT
 70
0
  3
Dot . . . . . . . . . . . . . . . . . . . . . . . .
 72
65
 73
2
 40
0.25
 49
0.1
 74
0
 49
-0.15
 74
0
  0
LTYPE
  5
3C
100
AcDbSymbolTableRecord
100
AcDbLinetypeTableRecord
  2
ACAD_ISO15W100
 70
0
  3
ISO double-dash triple-dot __ __ . . . __ __ . .
 72
65
 73
10
 40
39.0000000000000071
 49
12.0
 74
0
 49
-3.0
 74
0
 49
12.0
 74
0
 49
-2.9500000000000002
 74
0
 49
0.1
 74
0
 49
-2.9000000000000004
 74
0
 49
0.1
 74
0
 49
-2.9000000000000004
 74
0
 49
0.1
 74
0
 49
-2.9500000000000002
 74
0
  0
LTYPE
  5
3D
100
AcDbSymbolTableRecord
100
AcDbLinetypeTableRecord
  2
CENTER2
 70
0
  3
Center (.5x) ___ _ ___ _ ___ _ ___ _ ___ _ ___
 72
65
 73
4
 40
1.125
 49
0.75
 74
0
 49
-0.125
 74
0
 49
0.125
 74
0
 49
-0.125
 74
0
  0
LTYPE
  5
3E
100
AcDbSymbolTableRecord
100
AcDbLinetypeTableRecord
  2
ACAD_ISO09W100
 70
0
  3
ISO long-dash double-short-dash ____ __ __ ____
 72
65
 73
6
 40
45.0
 49
24.0
 74
0
 49
-3.0
 74
0
 49
6.0
 74
0
 49
-3.0
 74
0
 49
6.0
 74
0
 49
-3.0
 74
0
  0
LTYPE
  5
3F
100
AcDbSymbolTableRecord
100
AcDbLinetypeTableRecord
  2
DIVIDE
 70
0
  3
Divide ____ . . ____ . . ____ . . ____ . . ____
 72
65
 73
6
 40
1.25
 49
0.5
 74
0
 49
-0.2
 74
0
 49
0.1
 74
0
 49
-0.15
 74
0
 49
0.1
 74
0
 49
-0.2
 74
0
  0
LTYPE
  5
40
100
AcDbSymbolTableRecord
100
AcDbLinetypeTableRecord
  2
DASHED2
 70
0
  3
Dashed (.5x) _ _ _ _ _ _ _ _ _ _ _ _ _ _ _ _ _ 
 72
65
 73
2
 40
0.375
 49
0.25
 74
0
 49
-0.125
 74
0
  0
LTYPE
  5
41
100
AcDbSymbolTableRecord
100
AcDbLinetypeTableRecord
  2
ACAD_ISO13W100
 70
0
  3
ISO double-dash double-dot __ __ . . __ __ . . _
 72
65
 73
8
 40
36.0000000000000071
 49
12.0
 74
0
 49
-3.0
 74
0
 49
12.0
 74
0
 49
-2.9500000000000002
 74
0
 49
0.1
 74
0
 49
-2.9000000000000004
 74
0
 49
0.1
 74
0
 49
-2.9500000000000002
 74
0
  0
LTYPE
  5
42
100
AcDbSymbolTableRecord
100
AcDbLinetypeTableRecord
  2
ACAD_ISO02W100
 70
0
  3
ISO dash __ __ __ __ __ __ __ __ __ __ __ __ __
 72
65
 73
2
 40
15.0
 49
12.0
 74
0
 49
-3.0
 74
0
  0
LTYPE
  5
43
100
AcDbSymbolTableRecord
100
AcDbLinetypeTableRecord
  2
DIVIDE2
 70
0
  3
Divide (.5x) __..__..__..__..__..__..__..__.._
 72
65
 73
6
 40
0.625
 49
0.25
 74
0
 49
-0.075
 74
0
 49
0.1
 74
0
 49
-0.025
 74
0
 49
0.1
 74
0
 49
-0.075
 74
0
  0
LTYPE
  5
44
100
AcDbSymbolTableRecord
100
AcDbLinetypeTableRecord
  2
DASHDOT
 70
0
  3
Dash dot __ . __ . __ . __ . __ . __ . __ . __
 72
65
 73
4
 40
1.0
 49
0.5
 74
0
 49
-0.2
 74
0
 49
0.1
 74
0
 49
-0.2
 74
0
  0
LTYPE
  5
14
100
AcDbSymbolTableRecord
100
AcDbLinetypeTableRecord
  2
BYBLOCK
 70
0
  3

 72
65
 73
0
 40
0.0
  0
LTYPE
  5
15
100
AcDbSymbolTableRecord
100
AcDbLinetypeTableRecord
  2
BYLAYER
 70
0
  3

 72
65
 73
0
 40
0.0
  0
LTYPE
  5
45
100
AcDbSymbolTableRecord
100
AcDbLinetypeTableRecord
  2
BORDER2
 70
0
  3
Border (.5x) __.__.__.__.__.__.__.__.__.__.__.
 72
65
 73
6
 40
0.8749999999999999
 49
0.25
 74
0
 49
-0.125
 74
0
 49
0.25
 74
0
 49
-0.075
 74
0
 49
0.1
 74
0
 49
-0.075
 74
0
  0
LTYPE
  5
46
100
AcDbSymbolTableRecord
100
AcDbLinetypeTableRecord
  2
DASHED
 70
0
  3
Dashed __ __ __ __ __ __ __ __ __ __ __ __ __ _
 72
65
 73
2
 40
0.75
 49
0.5
 74
0
 49
-0.25
 74
0
  0
LTYPE
  5
47
100
AcDbSymbolTableRecord
100
AcDbLinetypeTableRecord
  2
PHANTOMX2
 70
0
  3
Phantom (2x) ____________    ____    ____   _
 72
65
 73
6
 40
5.0
 49
2.5
 74
0
 49
-0.5
 74
0
 49
0.5
 74
0
 49
-0.5
 74
0
 49
0.5
 74
0
 49
-0.5
 74
0
  0
LTYPE
  5
48
100
AcDbSymbolTableRecord
100
AcDbLinetypeTableRecord
  2
DASHDOTX2
 70
0
  3
Dash dot (2x) ____  .  ____  .  ____  .  ___
 72
65
 73
4
 40
2.0
 49
1.0
 74
0
 49
-0.45
 74
0
 49
0.1
 74
0
 49
-0.45
 74
0
  0
LTYPE
  5
49
100
AcDbSymbolTableRecord
100
AcDbLinetypeTableRecord
  2
HIDDEN
 70
0
  3
Hidden __ __ __ __ __ __ __ __ __ __ __ __ __ __
 72
65
 73
2
 40
0.375
 49
0.25
 74
0
 49
-0.125
 74
0
  0
LTYPE
  5
4A
100
AcDbSymbolTableRecord
100
AcDbLinetypeTableRecord
  2
ACAD_ISO08W100
 70
0
  3
ISO long-dash short-dash ____ __ ____ __ ____ _
 72
65
 73
4
 40
36.0
 49
24.0
 74
0
 49
-3.0
 74
0
 49
6.0
 74
0
 49
-3.0
 74
0
  0
LTYPE
  5
4B
100
AcDbSymbolTableRecord
100
AcDbLinetypeTableRecord
  2
ACAD_ISO11W100
 70
0
  3
ISO double-dash dot __ __ . __ __ . __ __ . __ _
 72
65
 73
6
 40
33.0
 49
12.0
 74
0
 49
-3.0
 74
0
 49
12.0
 74
0
 49
-2.9500000000000002
 74
0
 49
0.1
 74
0
 49
-2.9500000000000002
 74
0
  0
LTYPE
  5
4C
100
AcDbSymbolTableRecord
100
AcDbLinetypeTableRecord
  2
ACAD_ISO14W100
 70
0
  3
ISO dash triple-dot __ . . . __ . . . __ . . . _
 72
65
 73
8
 40
24.0000000000000036
 49
12.0
 74
0
 49
-2.9500000000000002
 74
0
 49
0.1
 74
0
 49
-2.9000000000000004
 74
0
 49
0.1
 74
0
 49
-2.9000000000000004
 74
0
 49
0.1
 74
0
 49
-2.9500000000000002
 74
0
  0
LTYPE
  5
4D
100
AcDbSymbolTableRecord
100
AcDbLinetypeTableRecord
  2
PHANTOM
 70
0
  3
Phantom ______  __  __  ______  __  __  ______ 
 72
65
 73
6
 40
2.5
 49
1.25
 74
0
 49
-0.25
 74
0
 49
0.25
 74
0
 49
-0.25
 74
0
 49
0.25
 74
0
 49
-0.25
 74
0
  0
LTYPE
  5
4E
100
AcDbSymbolTableRecord
100
AcDbLinetypeTableRecord
  2
ACAD_ISO04W100
 70
0
  3
ISO long-dash dot ____ . ____ . ____ . ____ . _
 72
65
 73
4
 40
30.0
 49
24.0
 74
0
 49
-2.9500000000000002
 74
0
 49
0.1
 74
0
 49
-2.9500000000000002
 74
0
  0
LTYPE
  5
4F
100
AcDbSymbolTableRecord
100
AcDbLinetypeTableRecord
  2
CENTER
 70
0
  3
Center ____ _ ____ _ ____ _ ____ _ ____ _ ____
 72
65
 73
4
 40
2.0
 49
1.25
 74
0
 49
-0.25
 74
0
 49
0.25
 74
0
 49
-0.25
 74
0
  0
LTYPE
  5
50
100
AcDbSymbolTableRecord
100
AcDbLinetypeTableRecord
  2
DOTX2
 70
0
  3
Dot (2x) .  .  .  .  .  .  .  .  .  .  .  .  .  .
 72
65
 73
2
 40
0.5
 49
0.1
 74
0
 49
-0.4
 74
0
  0
LTYPE
  5
51
100
AcDbSymbolTableRecord
100
AcDbLinetypeTableRecord
  2
CENTERX2
 70
0
  3
Center (2x) ________  __  ________  __  _____
 72
65
 73
4
 40
4.0
 49
2.5
 74
0
 49
-0.5
 74
0
 49
0.5
 74
0
 49
-0.5
 74
0
  0
LTYPE
  5
52
100
AcDbSymbolTableRecord
100
AcDbLinetypeTableRecord
  2
ACAD_ISO12W100
 70
0
  3
ISO dash double-dot __ . . __ . . __ . . __ . . 
 72
65
 73
6
 40
21.0
 49
12.0
 74
0
 49
-2.9500000000000002
 74
0
 49
0.1
 74
0
 49
-2.9000000000000004
 74
0
 49
0.1
 74
0
 49
-2.9500000000000002
 74
0
  0
LTYPE
  5
53
100
AcDbSymbolTableRecord
100
AcDbLinetypeTableRecord
  2
HIDDEN2
 70
0
  3
Hidden (.5x) _ _ _ _ _ _ _ _ _ _ _ _ _ _ _ _ _ 
 72
65
 73
2
 40
0.1875
 49
0.125
 74
0
 49
-0.0625
 74
0
  0
LTYPE
  5
54
100
AcDbSymbolTableRecord
100
AcDbLinetypeTableRecord
  2
HIDDENX2
 70
0
  3
Hidden (2x) ____ ____ ____ ____ ____ ____ ____ 
 72
65
 73
2
 40
0.75
 49
0.5
 74
0
 49
-0.25
 74
0
  0
LTYPE
  5
55
100
AcDbSymbolTableRecord
100
AcDbLinetypeTableRecord
  2
DOT2
 70
0
  3
Dot (.5x) ........................................
 72
65
 73
2
 40
0.125
 49
0.1
 74
0
 49
-0.025
 74
0
  0
LTYPE
  5
56
100
AcDbSymbolTableRecord
100
AcDbLinetypeTableRecord
  2
DASHDOT2
 70
0
  3
Dash dot (.5x) _._._._._._._._._._._._._._._.
 72
65
 73
4
 40
0.5
 49
0.25
 74
0
 49
-0.075
 74
0
 49
0.1
 74
0
 49
-0.075
 74
0
  0
ENDTAB
  0
TABLE
  2
LAYER
  5
2
100
AcDbSymbolTable
 70
7
  0
LAYER
  5
10
100
AcDbSymbolTableRecord
100
AcDbLayerTableRecord
  2
0
 70
1
 62
7
420
16777215
  6
Continuous
370
25
390
F
  0
LAYER
  5
57
100
AcDbSymbolTableRecord
100
AcDbLayerTableRecord
  2
3.1_ScrewLocs
 70
1
 62
7
420
0
  6
Continuous
370
25
390
F
  0
LAYER
  5
58
100
AcDbSymbolTableRecord
100
AcDbLayerTableRecord
  2
5_Strike Plate
 70
0
 62
7
420
0
  6
Continuous
370
25
390
F
  0
LAYER
  5
59
100
AcDbSymbolTableRecord
100
AcDbLayerTableRecord
  2
2_Door
 70
1
 62
7
420
0
  6
Continuous
370
13
390
F
  0
LAYER
  5
5A
100
AcDbSymbolTableRecord
100
AcDbLayerTableRecord
  2
1_Drawing Labels
 70
1
 62
7
420
0
  6
Continuous
370
25
390
F
  0
LAYER
  5
5B
100
AcDbSymbolTableRecord
100
AcDbLayerTableRecord
  2
4_Shimming
 70
1
 62
7
420
0
  6
Continuous
370
25
390
F
  0
LAYER
  5
5C
100
AcDbSymbolTableRecord
100
AcDbLayerTableRecord
  2
3_Threshold
 70
1
 62
7
420
0
  6
Continuous
370
25
390
F
  0
ENDTAB
  0
TABLE
  2
STYLE
  5
3
100
AcDbSymbolTable
 70
35
  0
STYLE
  5
5D
100
AcDbSymbolTableRecord
100
AcDbTextStyleTableRecord
  2
Standard
 70
0
 40
0.0
 41
1.0
 50
0.0
 71
0
 42
2.5
  3

  4

1001
ACAD
1000
txt
1071
0
  0
STYLE
  5
5E
100
AcDbSymbolTableRecord
100
AcDbTextStyleTableRecord
  2
textstyle0
 70
0
 40
0.0
 41
1.0
 50
0.0
 71
0
 42
3.0
  3

  4

1001
ACAD
1000
textstyle6
1071
0
  0
STYLE
  5
5F
100
AcDbSymbolTableRecord
100
AcDbTextStyleTableRecord
  2
textstyle1
 70
0
 40
0.0
 41
1.0
 50
0.0
 71
0
 42
3.0
  3

  4

1001
ACAD
1000
textstyle7
1071
0
  0
STYLE
  5
60
100
AcDbSymbolTableRecord
100
AcDbTextStyleTableRecord
  2
textstyle2
 70
0
 40
0.0
 41
1.0
 50
0.0
 71
0
 42
2.0
  3

  4

1001
ACAD
1000
Nimbus Sans [UKWN]
1071
0
  0
STYLE
  5
61
100
AcDbSymbolTableRecord
100
AcDbTextStyleTableRecord
  2
textstyle3
 70
0
 40
0.0
 41
1.0
 50
0.0
 71
0
 42
2.5
  3

  4

1001
ACAD
1000
Nimbus Sans [UKWN]
1071
0
  0
STYLE
  5
62
100
AcDbSymbolTableRecord
100
AcDbTextStyleTableRecord
  2
textstyle4
 70
0
 40
0.0
 41
1.0
 50
0.0
 71
0
 42
2.5
  3

  4

1001
ACAD
1000
Nimbus Sans [UKWN]
1071
0
  0
STYLE
  5
63
100
AcDbSymbolTableRecord
100
AcDbTextStyleTableRecord
  2
textstyle5
 70
0
 40
0.0
 41
1.0
 50
0.0
 71
0
 42
3.0
  3

  4

1001
ACAD
1000
Liberation Sans
1071
0
  0
STYLE
  5
64
100
AcDbSymbolTableRecord
100
AcDbTextStyleTableRecord
  2
textstyle6
 70
0
 40
0.0
 41
1.0
 50
0.0
 71
0
 42
3.0
  3

  4

1001
ACAD
1000
Liberation Sans
1071
0
  0
STYLE
  5
65
100
AcDbSymbolTableRecord
100
AcDbTextStyleTableRecord
  2
textstyle7
 70
0
 40
0.0
 41
1.0
 50
0.0
 71
0
 42
3.0
  3

  4

1001
ACAD
1000
Liberation Sans
1071
0
  0
STYLE
  5
66
100
AcDbSymbolTableRecord
100
AcDbTextStyleTableRecord
  2
textstyle8
 70
0
 40
0.0
 41
1.0
 50
0.0
 71
0
 42
3.0
  3

  4

1001
ACAD
1000
Liberation Sans
1071
0
  0
STYLE
  5
67
100
AcDbSymbolTableRecord
100
AcDbTextStyleTableRecord
  2
textstyle9
 70
0
 40
0.0
 41
1.0
 50
0.0
 71
0
 42
3.0
  3

  4

1001
ACAD
1000
Liberation Sans
1071
0
  0
STYLE
  5
68
100
AcDbSymbolTableRecord
100
AcDbTextStyleTableRecord
  2
textstyle10
 70
0
 40
0.0
 41
1.0
 50
0.0
 71
0
 42
3.0
  3

  4

1001
ACAD
1000
Liberation Sans
1071
0
  0
STYLE
  5
69
100
AcDbSymbolTableRecord
100
AcDbTextStyleTableRecord
  2
textstyle11
 70
0
 40
0.0
 41
1.0
 50
0.0
 71
0
 42
3.0
  3

  4

1001
ACAD
1000
Liberation Sans
1071
0
  0
STYLE
  5
6A
100
AcDbSymbolTableRecord
100
AcDbTextStyleTableRecord
  2
textstyle12
 70
0
 40
0.0
 41
1.0
 50
0.0
 71
0
 42
3.0
  3

  4

1001
ACAD
1000
Liberation Sans
1071
0
  0
STYLE
  5
6B
100
AcDbSymbolTableRecord
100
AcDbTextStyleTableRecord
  2
textstyle13
 70
0
 40
0.0
 41
1.0
 50
0.0
 71
0
 42
3.0
  3

  4

1001
ACAD
1000
Liberation Sans
1071
0
  0
STYLE
  5
6C
100
AcDbSymbolTableRecord
100
AcDbTextStyleTableRecord
  2
textstyle14
 70
0
 40
0.0
 41
1.0
 50
0.0
 71
0
 42
3.0
  3

  4

1001
ACAD
1000
Liberation Sans
1071
0
  0
STYLE
  5
6D
100
AcDbSymbolTableRecord
100
AcDbTextStyleTableRecord
  2
textstyle15
 70
0
 40
0.0
 41
1.0
 50
0.0
 71
0
 42
3.0
  3

  4

1001
ACAD
1000
Liberation Sans
1071
0
  0
STYLE
  5
6E
100
AcDbSymbolTableRecord
100
AcDbTextStyleTableRecord
  2
textstyle16
 70
0
 40
0.0
 41
1.0
 50
0.0
 71
0
 42
3.0
  3

  4

1001
ACAD
1000
Liberation Sans
1071
0
  0
STYLE
  5
6F
100
AcDbSymbolTableRecord
100
AcDbTextStyleTableRecord
  2
textstyle17
 70
0
 40
0.0
 41
1.0
 50
0.0
 71
0
 42
3.0
  3

  4

1001
ACAD
1000
Liberation Sans
1071
0
  0
STYLE
  5
70
100
AcDbSymbolTableRecord
100
AcDbTextStyleTableRecord
  2
textstyle18
 70
0
 40
0.0
 41
1.0
 50
0.0
 71
0
 42
3.0
  3

  4

1001
ACAD
1000
Liberation Sans
1071
0
  0
STYLE
  5
71
100
AcDbSymbolTableRecord
100
AcDbTextStyleTableRecord
  2
textstyle19
 70
0
 40
0.0
 41
1.0
 50
0.0
 71
0
 42
3.0
  3

  4

1001
ACAD
1000
Liberation Sans
1071
0
  0
STYLE
  5
72
100
AcDbSymbolTableRecord
100
AcDbTextStyleTableRecord
  2
textstyle20
 70
0
 40
0.0
 41
1.0
 50
0.0
 71
0
 42
4.0
  3

  4

1001
ACAD
1000
Liberation Sans
1071
0
  0
STYLE
  5
73
100
AcDbSymbolTableRecord
100
AcDbTextStyleTableRecord
  2
textstyle21
 70
0
 40
0.0
 41
1.0
 50
0.0
 71
0
 42
3.0
  3

  4

1001
ACAD
1000
Liberation Sans
1071
0
  0
STYLE
  5
74
100
AcDbSymbolTableRecord
100
AcDbTextStyleTableRecord
  2
textstyle22
 70
0
 40
0.0
 41
1.0
 50
0.0
 71
0
 42
3.0
  3

  4

1001
ACAD
1000
Liberation Sans
1071
0
  0
STYLE
  5
75
100
AcDbSymbolTableRecord
100
AcDbTextStyleTableRecord
  2
textstyle23
 70
0
 40
0.0
 41
1.0
 50
0.0
 71
0
 42
2.0
  3

  4

1001
ACAD
1000
Nimbus Sans [UKWN]
1071
0
  0
STYLE
  5
76
100
AcDbSymbolTableRecord
100
AcDbTextStyleTableRecord
  2
textstyle24
 70
0
 40
0.0
 41
1.0
 50
0.0
 71
0
 42
3.0
  3

  4

1001
ACAD
1000
Nimbus Sans [UKWN]
1071
0
  0
STYLE
  5
77
100
AcDbSymbolTableRecord
100
AcDbTextStyleTableRecord
  2
textstyle25
 70
0
 40
0.0
 41
1.0
 50
0.0
 71
0
 42
3.0
  3

  4

1001
ACAD
1000
Nimbus Sans [UKWN]
1071
0
  0
STYLE
  5
78
100
AcDbSymbolTableRecord
100
AcDbTextStyleTableRecord
  2
textstyle26
 70
0
 40
0.0
 41
1.0
 50
0.0
 71
0
 42
3.0
  3

  4

1001
ACAD
1000
Nimbus Sans [UKWN]
1071
0
  0
STYLE
  5
79
100
AcDbSymbolTableRecord
100
AcDbTextStyleTableRecord
  2
textstyle27
 70
0
 40
0.0
 41
1.0
 50
0.0
 71
0
 42
2.0
  3

  4

1001
ACAD
1000
Nimbus Sans [UKWN]
1071
0
  0
STYLE
  5
7A
100
AcDbSymbolTableRecord
100
AcDbTextStyleTableRecord
  2
textstyle28
 70
0
 40
0.0
 41
1.0
 50
0.0
 71
0
 42
3.0
  3

  4

1001
ACAD
1000
Nimbus Sans [UKWN]
1071
0
  0
STYLE
  5
7B
100
AcDbSymbolTableRecord
100
AcDbTextStyleTableRecord
  2
textstyle29
 70
0
 40
0.0
 41
1.0
 50
0.0
 71
0
 42
3.0
  3

  4

1001
ACAD
1000
Nimbus Sans [UKWN]
1071
0
  0
STYLE
  5
7C
100
AcDbSymbolTableRecord
100
AcDbTextStyleTableRecord
  2
textstyle30
 70
0
 40
0.0
 41
1.0
 50
0.0
 71
0
 42
3.0
  3

  4

1001
ACAD
1000
Nimbus Sans [UKWN]
1071
0
  0
STYLE
  5
7D
100
AcDbSymbolTableRecord
100
AcDbTextStyleTableRecord
  2
textstyle31
 70
0
 40
0.0
 41
1.0
 50
0.0
 71
0
 42
3.0
  3

  4

1001
ACAD
1000
Nimbus Sans [UKWN]
1071
0
  0
STYLE
  5
7E
100
AcDbSymbolTableRecord
100
AcDbTextStyleTableRecord
  2
textstyle32
 70
0
 40
0.0
 41
1.0
 50
0.0
 71
0
 42
3.0
  3

  4

1001
ACAD
1000
Nimbus Sans [UKWN]
1071
0
  0
STYLE
  5
7F
100
AcDbSymbolTableRecord
100
AcDbTextStyleTableRecord
  2
textstyle33
 70
0
 40
0.0
 41
1.0
 50
0.0
 71
0
 42
3.0
  3

  4

1001
ACAD
1000
Nimbus Sans [UKWN]
1071
0
  0
ENDTAB
  0
TABLE
  2
VIEW
  5
6
100
AcDbSymbolTable
 70
0
  0
ENDTAB
  0
TABLE
  2
UCS
  5
7
100
AcDbSymbolTable
 70
0
  0
ENDTAB
  0
TABLE
  2
APPID
  5
9
100
AcDbSymbolTable
 70
1
  0
APPID
  5
12
100
AcDbSymbolTableRecord
100
AcDbRegAppTableRecord
  2
ACAD
 70
0
  0
APPID
  5
80
100
AcDbSymbolTableRecord
100
AcDbRegAppTableRecord
  2
QCAD
 70
0
  0
ENDTAB
  0
TABLE
  2
DIMSTYLE
  5
A
100
AcDbSymbolTable
 70
1
100
AcDbDimStyleTable
 71
0
  0
DIMSTYLE
105
27
100
AcDbSymbolTableRecord
100
AcDbDimStyleTableRecord
  2
Standard
 41
1.5
 42
0.625
 43
3.75
 44
1.25
 70
0
 73
0
 74
0
 77
1
 78
8
140
2.5
141
2.5
143
0.03937007874016
147
0.625
171
3
172
1
271
2
272
2
274
3
278
44
283
0
284
8
340
5D
  0
ENDTAB
  0
TABLE
  2
BLOCK_RECORD
  5
1
100
AcDbSymbolTable
 70
1
  0
BLOCK_RECORD
  5
1F
100
AcDbSymbolTableRecord
100
AcDbBlockTableRecord
  2
*Model_Space
340
22
  0
BLOCK_RECORD
  5
1B
100
AcDbSymbolTableRecord
100
AcDbBlockTableRecord
  2
*Paper_Space
340
1E
  0
BLOCK_RECORD
  5
23
100
AcDbSymbolTableRecord
100
AcDbBlockTableRecord
  2
*Paper_Space0
340
26
  0
BLOCK_RECORD
  5
81
100
AcDbSymbolTableRecord
100
AcDbBlockTableRecord
  2
Hinge_outline
340
0
  0
BLOCK_RECORD
  5
82
100
AcDbSymbolTableRecord
100
AcDbBlockTableRecord
  2
noNail
340
0
  0
ENDTAB
  0
ENDSEC
  0
SECTION
  2
BLOCKS
  0
BLOCK
  5
20
100
AcDbEntity
  8
0
100
AcDbBlockBegin
  2
*Model_Space
 70
0
 10
0.0
 20
0.0
 30
0.0
  3
*Model_Space
  1

  0
ENDBLK
  5
21
100
AcDbEntity
  8
0
100
AcDbBlockEnd
  0
BLOCK
  5
1C
100
AcDbEntity
 67
1
  8
0
100
AcDbBlockBegin
  2
*Paper_Space
 70
0
 10
0.0
 20
0.0
 30
0.0
  3
*Paper_Space
  1

  0
ENDBLK
  5
1D
100
AcDbEntity
 67
1
  8
0
100
AcDbBlockEnd
  0
BLOCK
  5
24
100
AcDbEntity
  8
0
100
AcDbBlockBegin
  2
*Paper_Space0
 70
0
 10
0.0
 20
0.0
 30
0.0
  3
*Paper_Space0
  1

  0
ENDBLK
  5
25
100
AcDbEntity
  8
0
100
AcDbBlockEnd
  0
BLOCK
  5
83
100
AcDbEntity
  8
0
100
AcDbBlockBegin
  2
Hinge_outline
 70
0
 10
0.0
 20
0.0
 30
0.0
  3
Hinge_outline
  1

  0
LINE
  5
84
100
AcDbEntity
  8
3.1_ScrewLocs
 62
256
370
-1
 48
1.0
  6
BYLAYER
100
AcDbLine
 10
0.0
 20
0.0
 30
0.0
 11
0.0
 21
4.0
 31
0.0
  0
LINE
  5
85
100
AcDbEntity
  8
3.1_ScrewLocs
 62
256
370
-1
 48
1.0
  6
BYLAYER
100
AcDbLine
 10
0.0
 20
4.0
 30
0.0
 11
1.7519882939172593
 21
4.0
 31
0.0
  0
LINE
  5
86
100
AcDbEntity
  8
3.1_ScrewLocs
 62
256
370
-1
 48
1.0
  6
BYLAYER
100
AcDbLine
 10
2.0
 20
3.7541950486523206
 30
0.0
 11
2.0
 21
0.25
 31
0.0
  0
LINE
  5
87
100
AcDbEntity
  8
3.1_ScrewLocs
 62
256
370
-1
 48
1.0
  6
BYLAYER
100
AcDbLine
 10
0.0
 20
0.0
 30
0.0
 11
1.7516453607213265
 21
0.0
 31
0.0
  0
ARC
  5
88
100
AcDbEntity
  8
3.1_ScrewLocs
 62
256
370
-1
 48
1.0
  6
BYLAYER
100
AcDbCircle
 10
1.7500350714053772
 20
3.7500076302728047
 30
0.0
 40
0.25
100
AcDbArc
 50
0.0
 51
90.0
  0
ARC
  5
89
100
AcDbEntity
  8
3.1_ScrewLocs
 62
256
370
-1
 48
1.0
  6
BYLAYER
100
AcDbCircle
 10
1.7500350714053772
 20
0.25
 30
0.0
 40
0.25
100
AcDbArc
 50
270.0
 51
0.0
  0
ENDBLK
  5
8A
100
AcDbEntity
  8
0
100
AcDbBlockEnd
  0
BLOCK
  5
8B
100
AcDbEntity
  8
0
100
AcDbBlockBegin
  2
noNail
 70
0
 10
0.0
 20
0.0
 30
0.0
  3
noNail
  1

  0
ENDBLK
  5
8C
100
AcDbEntity
  8
0
100
AcDbBlockEnd
  0
ENDSEC
  0
SECTION
  2
ENTITIES
  0
LINE
  5
8D
100
AcDbEntity
  8
2_Door
 62
256
370
-1
 48
1.0
  6
BYLAYER
100
AcDbLine
 10
38.0
 20
16.0
 30
0.0
 11
0.0
 21
16.0
 31
0.0
  0
LINE
  5
8E
100
AcDbEntity
  8
4_Shimming
 62
256
370
-1
 48
1.0
  6
BYLAYER
100
AcDbLine
 10
-5.5601990800238283
 20
8.4026499050736021
 30
0.0
 11
-5.5601990800238283
 21
89.4026499050736021
 31
0.0
  0
LINE
  5
8F
100
AcDbEntity
  8
3.1_ScrewLocs
 62
256
370
-1
 48
1.0
  6
BYLAYER
100
AcDbLine
 10
-5.5601990800000003
 20
8.4026499050736021
 30
0.0
 11
-5.5601990800238283
 21
88.1515141292359345
 31
0.0
  0
LINE
  5
90
100
AcDbEntity
  8
3.1_ScrewLocs
 62
256
370
-1
 48
1.0
  6
BYLAYER
100
AcDbLine
 10
-1.4351990800238283
 20
8.4026499050736021
 30
0.0
 11
-1.4351990800238283
 21
88.1515141292359345
 31
0.0
  0
LINE
  5
91
100
AcDbEntity
  8
3.1_ScrewLocs
 62
256
370
-1
 48
1.0
  6
BYLAYER
100
AcDbLine
 10
-5.5601990800000003
 20
8.4026499050736021
 30
0.0
 11
-5.5601990800238283
 21
88.1515141292359345
 31
0.0
  0
LINE
  5
92
100
AcDbEntity
  8
3.1_ScrewLocs
 62
256
370
-1
 48
1.0
  6
BYLAYER
100
AcDbLine
 10
-1.4351990800238283
 20
8.4026499050736021
 30
0.0
 11
-1.4351990800238283
 21
88.1515141292359345
 31
0.0
  0
LINE
  5
93
100
AcDbEntity
  8
3.1_ScrewLocs
 62
256
370
-1
 48
1.0
  6
BYLAYER
100
AcDbLine
 10
40.9999999989682777
 20
8.1526350427699885
 30
0.0
 11
40.9999999989444532
 21
87.9014992669323192
 31
0.0
  0
LINE
  5
94
100
AcDbEntity
  8
3.1_ScrewLocs
 62
256
370
-1
 48
1.0
  6
BYLAYER
100
AcDbLine
 10
45.1249999989444532
 20
8.1526350427699885
 30
0.0
 11
45.1249999989444532
 21
87.9014992669323192
 31
0.0
  0
LINE
  5
95
100
AcDbEntity
  8
2_Door
 62
256
370
-1
 48
1.0
  6
BYLAYER
100
AcDbLine
 10
0.125
 20
16.0
 30
0.0
 11
0.125
 21
96.5
 31
0.0
  0
LINE
  5
96
100
AcDbEntity
  8
4_Shimming
 62
256
370
-1
 48
1.0
  6
BYLAYER
100
AcDbLine
 10
-5.5601990800238283
 20
89.4026499050736021
 30
0.0
 11
32.4398009199761717
 21
89.4026499050736021
 31
0.0
  0
LINE
  5
97
100
AcDbEntity
  8
2_Door
 62
256
370
-1
 48
1.0
  6
BYLAYER
100
AcDbLine
 10
-0.875
 20
16.0
 30
0.0
 11
-0.875
 21
97.5
 31
0.0
  0
LINE
  5
98
100
AcDbEntity
  8
4_Shimming
 62
256
370
-1
 48
1.0
  6
BYLAYER
100
AcDbLine
 10
32.4398009199761717
 20
89.4026499050736021
 30
0.0
 11
32.4398009199761717
 21
8.4026499050736021
 31
0.0
  0
LINE
  5
99
100
AcDbEntity
  8
2_Door
 62
256
370
-1
 48
1.0
  6
BYLAYER
100
AcDbLine
 10
0.125
 20
96.5
 30
0.0
 11
37.875
 21
96.5
 31
0.0
  0
LINE
  5
9A
100
AcDbEntity
  8
4_Shimming
 62
256
370
-1
 48
1.0
  6
BYLAYER
100
AcDbLine
 10
32.4398009199761717
 20
8.4026499050736021
 30
0.0
 11
-5.5601990800238283
 21
8.4026499050736021
 31
0.0
  0
LINE
  5
9B
100
AcDbEntity
  8
2_Door
 62
256
370
-1
 48
1.0
  6
BYLAYER
100
AcDbLine
 10
-0.875
 20
97.5
 30
0.0
 11
38.875
 21
97.5
 31
0.0
  0
LINE
  5
9C
100
AcDbEntity
  8
4_Shimming
 62
256
370
-1
 48
1.0
  6
BYLAYER
100
AcDbLine
 10
-5.4351990800238283
 20
8.4026499050736021
 30
0.0
 11
-5.4351990800238283
 21
88.9026499050736021
 31
0.0
  0
LINE
  5
9D
100
AcDbEntity
  8
2_Door
 62
256
370
-1
 48
1.0
  6
BYLAYER
100
AcDbLine
 10
37.875
 20
96.5
 30
0.0
 11
37.875
 21
16.0
 31
0.0
  0
LINE
  5
9E
100
AcDbEntity
  8
4_Shimming
 62
256
370
-1
 48
1.0
  6
BYLAYER
100
AcDbLine
 10
-5.4351990800238283
 20
88.9026499050736021
 30
0.0
 11
32.3148009199761717
 21
88.9026499050736021
 31
0.0
  0
LINE
  5
9F
100
AcDbEntity
  8
2_Door
 62
256
370
-1
 48
1.0
  6
BYLAYER
100
AcDbLine
 10
38.875
 20
97.5
 30
0.0
 11
38.875
 21
16.0
 31
0.0
  0
LINE
  5
A0
100
AcDbEntity
  8
4_Shimming
 62
256
370
-1
 48
1.0
  6
BYLAYER
100
AcDbLine
 10
32.3148009199761717
 20
88.9026499050736021
 30
0.0
 11
32.3148009199761717
 21
8.4026499050736021
 31
0.0
  0
LINE
  5
A1
100
AcDbEntity
  8
2_Door
 62
256
370
-1
 48
1.0
  6
BYLAYER
100
AcDbLine
 10
37.875
 20
16.0
 30
0.0
 11
0.125
 21
16.0
 31
0.0
  0
LINE
  5
A2
100
AcDbEntity
  8
4_Shimming
 62
256
370
-1
 48
1.0
  6
BYLAYER
100
AcDbLine
 10
32.3148009199761717
 20
8.4026499050736021
 30
0.0
 11
-5.4351990800238283
 21
8.4026499050736021
 31
0.0
  0
LINE
  5
A3
100
AcDbEntity
  8
2_Door
 62
256
370
-1
 48
1.0
  6
BYLAYER
100
AcDbLine
 10
0.875
 20
16.0
 30
0.0
 11
0.875
 21
95.75
 31
0.0
  0
LINE
  5
A4
100
AcDbEntity
  8
4_Shimming
 62
256
370
-1
 48
1.0
  6
BYLAYER
100
AcDbLine
 10
-4.6851990800238283
 20
8.4026499050736021
 30
0.0
 11
-4.6851990800238283
 21
88.1526499050736021
 31
0.0
  0
LINE
  5
A5
100
AcDbEntity
  8
3.1_ScrewLocs
 62
256
370
-1
 48
1.0
  6
BYLAYER
100
AcDbLine
 10
-3.5601990800238283
 20
8.4026499050736021
 30
0.0
 11
-3.5601990800238283
 21
88.1526499050736021
 31
0.0
  0
LINE
  5
A6
100
AcDbEntity
  8
3.1_ScrewLocs
 62
256
370
-1
 48
1.0
  6
BYLAYER
100
AcDbLine
 10
-3.5601990800238283
 20
8.4026499050736021
 30
0.0
 11
-3.5601990800238283
 21
88.1526499050736021
 31
0.0
  0
LINE
  5
A7
100
AcDbEntity
  8
3.1_ScrewLocs
 62
256
370
-1
 48
1.0
  6
BYLAYER
100
AcDbLine
 10
42.9999999989444532
 20
8.1526350427699885
 30
0.0
 11
42.9999999989444532
 21
87.9026350427699867
 31
0.0
  0
LINE
  5
A8
100
AcDbEntity
  8
2_Door
 62
256
370
-1
 48
1.0
  6
BYLAYER
100
AcDbLine
 10
0.875
 20
95.75
 30
0.0
 11
37.125
 21
95.75
 31
0.0
  0
LINE
  5
A9
100
AcDbEntity
  8
4_Shimming
 62
256
370
-1
 48
1.0
  6
BYLAYER
100
AcDbLine
 10
-4.6851990800238283
 20
88.1526499050736021
 30
0.0
 11
31.5648009199761717
 21
88.1526499050736021
 31
0.0
  0
LINE
  5
AA
100
AcDbEntity
  8
2_Door
 62
256
370
-1
 48
1.0
  6
BYLAYER
100
AcDbLine
 10
37.125
 20
95.75
 30
0.0
 11
37.125
 21
16.0
 31
0.0
  0
LINE
  5
AB
100
AcDbEntity
  8
4_Shimming
 62
256
370
-1
 48
1.0
  6
BYLAYER
100
AcDbLine
 10
31.5648009199761717
 20
88.1526499050736021
 30
0.0
 11
31.5648009199761717
 21
8.4026499050736021
 31
0.0
  0
LINE
  5
AC
100
AcDbEntity
  8
2_Door
 62
256
370
-1
 48
1.0
  6
BYLAYER
100
AcDbLine
 10
37.125
 20
16.0
 30
0.0
 11
0.875
 21
16.0
 31
0.0
  0
LINE
  5
AD
100
AcDbEntity
  8
4_Shimming
 62
256
370
-1
 48
1.0
  6
BYLAYER
100
AcDbLine
 10
31.5648009199761717
 20
8.4026499050736021
 30
0.0
 11
-4.6851990800238283
 21
8.4026499050736021
 31
0.0
  0
LINE
  5
AE
100
AcDbEntity
  8
2_Door
 62
256
370
-1
 48
1.0
  6
BYLAYER
100
AcDbLine
 10
0.875
 20
16.75
 30
0.0
 11
37.125
 21
16.75
 31
0.0
  0
LINE
  5
AF
100
AcDbEntity
  8
4_Shimming
 62
256
370
-1
 48
1.0
  6
BYLAYER
100
AcDbLine
 10
-4.6851990800238283
 20
9.1526499050736021
 30
0.0
 11
31.5648009199761717
 21
9.1526499050736021
 31
0.0
  0
LINE
  5
B0
100
AcDbEntity
  8
2_Door
 62
256
370
-1
 48
1.0
  6
BYLAYER
100
AcDbLine
 10
1.0
 20
17.0
 30
0.0
 11
1.0
 21
95.5
 31
0.0
  0
LINE
  5
B1
100
AcDbEntity
  8
4_Shimming
 62
256
370
-1
 48
1.0
  6
BYLAYER
100
AcDbLine
 10
-4.5601990800238283
 20
9.4026499050736021
 30
0.0
 11
-4.5601990800238283
 21
87.9026499050736021
 31
0.0
  0
LINE
  5
B2
100
AcDbEntity
  8
2_Door
 62
256
370
-1
 48
1.0
  6
BYLAYER
100
AcDbLine
 10
1.0
 20
95.5
 30
0.0
 11
37.0
 21
95.5
 31
0.0
  0
LINE
  5
B3
100
AcDbEntity
  8
4_Shimming
 62
256
370
-1
 48
1.0
  6
BYLAYER
100
AcDbLine
 10
-4.5601990800238283
 20
87.9026499050736021
 30
0.0
 11
31.4398009199761717
 21
87.9026499050736021
 31
0.0
  0
LINE
  5
B4
100
AcDbEntity
  8
2_Door
 62
256
370
-1
 48
1.0
  6
BYLAYER
100
AcDbLine
 10
37.0
 20
95.5
 30
0.0
 11
37.0
 21
17.0
 31
0.0
  0
LINE
  5
B5
100
AcDbEntity
  8
4_Shimming
 62
256
370
-1
 48
1.0
  6
BYLAYER
100
AcDbLine
 10
31.4398009199761717
 20
87.9026499050736021
 30
0.0
 11
31.4398009199761717
 21
9.4026499050736021
 31
0.0
  0
LINE
  5
B6
100
AcDbEntity
  8
2_Door
 62
256
370
-1
 48
1.0
  6
BYLAYER
100
AcDbLine
 10
37.0
 20
17.0
 30
0.0
 11
1.0
 21
17.0
 31
0.0
  0
LINE
  5
B7
100
AcDbEntity
  8
4_Shimming
 62
256
370
-1
 48
1.0
  6
BYLAYER
100
AcDbLine
 10
31.4398009199761717
 20
9.4026499050736021
 30
0.0
 11
-4.5601990800238283
 21
9.4026499050736021
 31
0.0
  0
CIRCLE
  5
B8
100
AcDbEntity
  8
2_Door
 62
256
370
-1
 48
1.0
  6
BYLAYER
100
AcDbCircle
 10
34.0
 20
58.0
 30
0.0
 40
2.0
  0
CIRCLE
  5
B9
100
AcDbEntity
  8
4_Shimming
 62
256
370
-1
 48
1.0
  6
BYLAYER
100
AcDbCircle
 10
28.4398009199761717
 20
50.4026499050736021
 30
0.0
 40
2.0
  0
MTEXT
  5
BA
100
AcDbEntity
  8
1_Drawing Labels
 62
256
370
-1
 48
1.0
  6
BYLAYER
100
AcDbMText
 10
-0.4517382942451286
 20
-15.4592745145669852
 30
0.0
 40
4.0
 41
0.0
 71
1
 72
1
  1
Door Installation
  7
textstyle20
 50
0.0
 73
2
 44
1.0
  0
LINE
  5
BB
100
AcDbEntity
  8
2_Door
 62
256
370
-1
 48
1.0
  6
BYLAYER
100
AcDbLine
 10
0.3811640086184518
 20
80.4893424646535891
 30
0.0
 11
0.3811640086184518
 21
84.4893424646535891
 31
0.0
  0
LEADER
  5
BC
100
AcDbEntity
  8
4_Shimming
 62
256
370
-1
 48
1.0
  6
BYLAYER
100
AcDbLeader
  3
Standard
 71
1
 72
0
 73
3
 74
0
 75
0
 40
1.0
 41
10.0
 76
3
 10
-5.5601990800238283
 20
78.4026499050736021
 10
-10.5601990800238283
 20
73.4026499050736021
 10
-14.5601990800238283
 20
73.4026499050736021
1001
ACAD
1000
DSTYLE
1002
{
1070
40
1040
1.0
1002
}
  0
LINE
  5
BD
100
AcDbEntity
  8
2_Door
 62
256
370
-1
 48
1.0
  6
BYLAYER
100
AcDbLine
 10
0.3763025981275301
 20
54.4425949197699239
 30
0.0
 11
0.3763025981275301
 21
58.4425949197699239
 31
0.0
  0
LEADER
  5
BE
100
AcDbEntity
  8
4_Shimming
 62
256
370
-1
 48
1.0
  6
BYLAYER
100
AcDbLeader
  3
Standard
 71
1
 72
0
 73
3
 74
0
 75
0
 40
1.0
 41
10.0
 76
3
 10
-5.5601990800238283
 20
51.4026499050736021
 10
-10.5601990800238283
 20
46.4026499050736021
 10
-14.5601990800238283
 20
46.4026499050736021
1001
ACAD
1000
DSTYLE
1002
{
1070
40
1040
1.0
1002
}
  0
LINE
  5
BF
100
AcDbEntity
  8
2_Door
 62
256
370
-1
 48
1.0
  6
BYLAYER
100
AcDbLine
 10
0.3698358992802802
 20
27.5627777283715716
 30
0.0
 11
0.3698358992802802
 21
31.5627777283715716
 31
0.0
  0
LEADER
  5
C0
100
AcDbEntity
  8
4_Shimming
 62
256
370
-1
 48
1.0
  6
BYLAYER
100
AcDbLeader
  3
Standard
 71
1
 72
0
 73
3
 74
0
 75
0
 40
1.0
 41
10.0
 76
3
 10
-5.5601990800238283
 20
24.4026499050736021
 10
-10.5601990800238283
 20
19.4026499050736021
 10
-14.5601990800238283
 20
19.4026499050736021
1001
ACAD
1000
DSTYLE
1002
{
1070
40
1040
1.0
1002
}
  0
LINE
  5
C1
100
AcDbEntity
  8
2_Door
 62
256
370
-1
 48
1.0
  6
BYLAYER
100
AcDbLine
 10
0.3811640086184518
 20
84.4893424646535891
 30
0.0
 11
0.8811640086184518
 21
84.4893424646535891
 31
0.0
  0
LEADER
  5
C2
100
AcDbEntity
  8
4_Shimming
 62
256
370
-1
 48
1.0
  6
BYLAYER
100
AcDbLeader
  3
Standard
 71
1
 72
0
 73
3
 74
0
 75
0
 40
1.0
 41
10.0
 76
3
 10
32.4398009199762072
 20
53.4026499050735737
 10
37.4398009199761859
 20
48.4026499050735737
 10
41.4398009199761859
 20
48.4026499050735666
1001
ACAD
1000
DSTYLE
1002
{
1070
40
1040
1.0
1002
}
  0
LEADER
  5
C3
100
AcDbEntity
  8
4_Shimming
 62
256
370
-1
 48
1.0
  6
BYLAYER
100
AcDbLeader
  3
Standard
 71
1
 72
0
 73
3
 74
0
 75
0
 40
1.0
 41
10.0
 76
3
 10
32.4398009199761503
 20
24.402649905073595
 10
37.4398009199761646
 20
19.4026499050735879
 10
41.439800919976193
 20
19.4026499050736021
1001
ACAD
1000
DSTYLE
1002
{
1070
40
1040
1.0
1002
}
  0
LINE
  5
C4
100
AcDbEntity
  8
2_Door
 62
256
370
-1
 48
1.0
  6
BYLAYER
100
AcDbLine
 10
0.3763025981275301
 20
58.4425949197699239
 30
0.0
 11
0.8763025981275301
 21
58.4425949197699239
 31
0.0
  0
LEADER
  5
C5
100
AcDbEntity
  8
4_Shimming
 62
256
370
-1
 48
1.0
  6
BYLAYER
100
AcDbLeader
  3
Standard
 71
1
 72
0
 73
3
 74
0
 75
0
 40
1.0
 41
10.0
 76
3
 10
32.439800919976193
 20
78.4026499050735879
 10
37.439800919976193
 20
73.4026499050735879
 10
41.439800919976193
 20
73.4026499050736163
1001
ACAD
1000
DSTYLE
1002
{
1070
40
1040
1.0
1002
}
  0
LINE
  5
C6
100
AcDbEntity
  8
2_Door
 62
256
370
-1
 48
1.0
  6
BYLAYER
100
AcDbLine
 10
0.3698358992802802
 20
31.5627777283715716
 30
0.0
 11
0.8698358992802802
 21
31.5627777283715716
 31
0.0
  0
LEADER
  5
C7
100
AcDbEntity
  8
4_Shimming
 62
256
370
-1
 48
1.0
  6
BYLAYER
100
AcDbLeader
  3
Standard
 71
1
 72
0
 73
3
 74
0
 75
0
 40
1.0
 41
10.0
 76
3
 10
21.4398009199761574
 20
89.4026499050735879
 10
26.4398009199761432
 20
94.4026499050735595
 10
30.4398009199761574
 20
94.4026499050735737
1001
ACAD
1000
DSTYLE
1002
{
1070
40
1040
1.0
1002
}
  0
LINE
  5
C8
100
AcDbEntity
  8
2_Door
 62
256
370
-1
 48
1.0
  6
BYLAYER
100
AcDbLine
 10
0.8811640086184518
 20
84.4893424646535891
 30
0.0
 11
0.8811640086184518
 21
80.4893424646535891
 31
0.0
  0
LEADER
  5
C9
100
AcDbEntity
  8
4_Shimming
 62
256
370
-1
 48
1.0
  6
BYLAYER
100
AcDbLeader
  3
Standard
 71
1
 72
0
 73
3
 74
0
 75
0
 40
1.0
 41
10.0
 76
3
 10
4.4398009199762036
 20
89.4026499050736021
 10
-0.5601990800237999
 20
94.4026499050736021
 10
-4.560199080023807
 20
94.4026499050736021
1001
ACAD
1000
DSTYLE
1002
{
1070
40
1040
1.0
1002
}
  0
LINE
  5
CA
100
AcDbEntity
  8
2_Door
 62
256
370
-1
 48
1.0
  6
BYLAYER
100
AcDbLine
 10
0.8763025981275301
 20
58.4425949197699239
 30
0.0
 11
0.8763025981275301
 21
54.4425949197699239
 31
0.0
  0
MTEXT
  5
CB
100
AcDbEntity
  8
4_Shimming
 62
256
370
-1
 48
1.0
  6
BYLAYER
100
AcDbMText
 10
-24.5601990800238283
 20
74.9026499050736021
 30
0.0
 40
3.0
 41
0.0
 71
1
 72
1
  1
\H2.5;Shim
  7
textstyle22
 50
0.0
 73
2
 44
1.0
  0
LINE
  5
CC
100
AcDbEntity
  8
2_Door
 62
256
370
-1
 48
1.0
  6
BYLAYER
100
AcDbLine
 10
0.8698358992802802
 20
31.5627777283715716
 30
0.0
 11
0.8698358992802802
 21
27.5627777283715716
 31
0.0
  0
MTEXT
  5
CD
100
AcDbEntity
  8
4_Shimming
 62
256
370
-1
 48
1.0
  6
BYLAYER
100
AcDbMText
 10
51.4398009199761788
 20
74.9026499050736021
 30
0.0
 40
3.0
 41
0.0
 71
3
 72
1
  1
\H2.5;Shim
  7
textstyle21
 50
0.0
 73
2
 44
1.0
  0
LINE
  5
CE
100
AcDbEntity
  8
2_Door
 62
256
370
-1
 48
1.0
  6
BYLAYER
100
AcDbLine
 10
0.8811640086184518
 20
80.4893424646535891
 30
0.0
 11
0.3811640086184518
 21
80.4893424646535891
 31
0.0
  0
MTEXT
  5
CF
100
AcDbEntity
  8
4_Shimming
 62
256
370
-1
 48
1.0
  6
BYLAYER
100
AcDbMText
 10
-24.5601990800238354
 20
48.4026499050736874
 30
0.0
 40
3.0
 41
0.0
 71
1
 72
1
  1
\H2.5;Shim
  7
textstyle9
 50
0.0
 73
2
 44
1.0
  0
LINE
  5
D0
100
AcDbEntity
  8
2_Door
 62
256
370
-1
 48
1.0
  6
BYLAYER
100
AcDbLine
 10
0.8763025981275301
 20
54.4425949197699239
 30
0.0
 11
0.3763025981275301
 21
54.4425949197699239
 31
0.0
  0
MTEXT
  5
D1
100
AcDbEntity
  8
4_Shimming
 62
256
370
-1
 48
1.0
  6
BYLAYER
100
AcDbMText
 10
51.4398009199762001
 20
50.4026499050733889
 30
0.0
 40
3.0
 41
0.0
 71
3
 72
1
  1
\H2.50001;Shims
  7
textstyle8
 50
0.0
 73
2
 44
1.0
  0
LINE
  5
D2
100
AcDbEntity
  8
2_Door
 62
256
370
-1
 48
1.0
  6
BYLAYER
100
AcDbLine
 10
0.8698358992802802
 20
27.5627777283715716
 30
0.0
 11
0.3698358992802802
 21
27.5627777283715716
 31
0.0
  0
MTEXT
  5
D3
100
AcDbEntity
  8
4_Shimming
 62
256
370
-1
 48
1.0
  6
BYLAYER
100
AcDbMText
 10
-24.5601990800238212
 20
21.4026499050736057
 30
0.0
 40
3.0
 41
0.0
 71
1
 72
1
  1
\H2.5;Shim
  7
textstyle11
 50
0.0
 73
2
 44
1.0
  0
HATCH
  5
D4
100
AcDbEntity
  8
2_Door
 62
256
370
-1
 48
1.0
  6
BYLAYER
100
AcDbHatch
 10
0.0
 20
0.0
 30
0.0
210
0.0
220
0.0
230
1.0
  2
SOLID
 70
1
 71
0
 91
1
 92
1
 93
4
 72
1
 10
0.3811640086184518
 20
80.4893424646535891
 11
0.3811640086184518
 21
84.4893424646535891
 72
1
 10
0.3811640086184518
 20
84.4893424646535891
 11
0.8811640086184518
 21
84.4893424646535891
 72
1
 10
0.8811640086184518
 20
84.4893424646535891
 11
0.8811640086184518
 21
80.4893424646535891
 72
1
 10
0.8811640086184518
 20
80.4893424646535891
 11
0.3811640086184518
 21
80.4893424646535891
 97
0
 75
0
 76
1
 98
0
1001
ACAD
1010
0.0
1020
0.0
1030
0
  0
MTEXT
  5
D5
100
AcDbEntity
  8
4_Shimming
 62
256
370
-1
 48
1.0
  6
BYLAYER
100
AcDbMText
 10
51.4398009199761788
 20
21.4026499050736092
 30
0.0
 40
3.0
 41
0.0
 71
3
 72
1
  1
\H2.5;Shim
  7
textstyle10
 50
0.0
 73
2
 44
1.0
  0
HATCH
  5
D6
100
AcDbEntity
  8
2_Door
 62
256
370
-1
 48
1.0
  6
BYLAYER
100
AcDbHatch
 10
0.0
 20
0.0
 30
0.0
210
0.0
220
0.0
230
1.0
  2
SOLID
 70
1
 71
0
 91
1
 92
1
 93
4
 72
1
 10
0.3763025981275301
 20
54.4425949197699239
 11
0.3763025981275301
 21
58.4425949197699239
 72
1
 10
0.3763025981275301
 20
58.4425949197699239
 11
0.8763025981275301
 21
58.4425949197699239
 72
1
 10
0.8763025981275301
 20
58.4425949197699239
 11
0.8763025981275301
 21
54.4425949197699239
 72
1
 10
0.8763025981275301
 20
54.4425949197699239
 11
0.3763025981275301
 21
54.4425949197699239
 97
0
 75
0
 76
1
 98
0
1001
ACAD
1010
0.0
1020
0.0
1030
0
  0
MTEXT
  5
D7
100
AcDbEntity
  8
4_Shimming
 62
256
370
-1
 48
1.0
  6
BYLAYER
100
AcDbMText
 10
31.4398009199761717
 20
95.4026499050735879
 30
0.0
 40
3.0
 41
0.0
 71
1
 72
1
  1
\H2.5;Shims
  7
textstyle13
 50
0.0
 73
2
 44
1.0
  0
HATCH
  5
D8
100
AcDbEntity
  8
2_Door
 62
256
370
-1
 48
1.0
  6
BYLAYER
100
AcDbHatch
 10
0.0
 20
0.0
 30
0.0
210
0.0
220
0.0
230
1.0
  2
SOLID
 70
1
 71
0
 91
1
 92
1
 93
4
 72
1
 10
0.3698358992802802
 20
27.5627777283715716
 11
0.3698358992802802
 21
31.5627777283715716
 72
1
 10
0.3698358992802802
 20
31.5627777283715716
 11
0.8698358992802802
 21
31.5627777283715716
 72
1
 10
0.8698358992802802
 20
31.5627777283715716
 11
0.8698358992802802
 21
27.5627777283715716
 72
1
 10
0.8698358992802802
 20
27.5627777283715716
 11
0.3698358992802802
 21
27.5627777283715716
 97
0
 75
0
 76
1
 98
0
1001
ACAD
1010
0.0
1020
0.0
1030
0
  0
MTEXT
  5
D9
100
AcDbEntity
  8
4_Shimming
 62
256
370
-1
 48
1.0
  6
BYLAYER
100
AcDbMText
 10
-14.7922040608235434
 20
95.9822578483689739
 30
0.0
 40
3.0
 41
0.0
 71
1
 72
1
  1
\H2.5;Shims
  7
textstyle12
 50
0.0
 73
2
 44
1.0
  0
IMAGE
  5
DA
100
AcDbEntity
  8
2_Door
 62
256
370
-1
 48
1.0
  6
BYLAYER
100
AcDbRasterImage
 90
0
 10
-1.2971594327386411
 20
97.2439562389829888
 30
0.0
 11
0.15
 21
0.0
 31
0.0
 12
0.0
 22
0.15
 32
0.0
 13
3.0
 23
7.0
340
DB
 70
15
280
0
281
50
282
50
283
0
  0
MTEXT
  5
DC
100
AcDbEntity
  8
4_Shimming
 62
256
370
-1
 48
1.0
  6
BYLAYER
100
AcDbMText
 10
6.4398009199761734
 20
60.4026499050736021
 30
0.0
 40
3.0
 41
0.0
 71
1
 72
1
  1
\H2.5;Inside of door
  7
textstyle14
 50
0.0
 73
2
 44
1.0
  0
IMAGE
  5
DD
100
AcDbEntity
  8
2_Door
 62
256
370
-1
 48
1.0
  6
BYLAYER
100
AcDbRasterImage
 90
0
 10
36.3236913434402808
 20
97.3028830854263589
 30
0.0
 11
0.15
 21
0.0
 31
0.0
 12
0.0
 22
0.15
 32
0.0
 13
3.0
 23
7.0
340
DE
 70
15
280
0
281
50
282
50
283
0
  0
LEADER
  5
DF
100
AcDbEntity
  8
4_Shimming
 62
256
370
-1
 48
1.0
  6
BYLAYER
100
AcDbLeader
  3
Standard
 71
1
 72
0
 73
3
 74
0
 75
0
 40
1.0
 41
10.0
 76
3
 10
2.838309877537931
 20
87.8819524830002337
 10
-2.161690122462069
 20
82.8819524830002337
 10
1.838309877537931
 20
82.8819524830002337
1001
ACAD
1000
DSTYLE
1002
{
1070
40
1040
1.0
1002
}
  0
LEADER
  5
E0
100
AcDbEntity
  8
2_Door
 62
256
370
-1
 48
1.0
  6
BYLAYER
100
AcDbLeader
  3
Standard
 71
1
 72
0
 73
3
 74
0
 75
0
 40
1.0
 41
10.0
 76
3
 10
0.875
 20
16.0
 10
-4.0
 20
12.0
 10
-1.0
 20
12.0
1001
ACAD
1000
DSTYLE
1002
{
1070
40
1040
1.0
1002
}
  0
MTEXT
  5
E1
100
AcDbEntity
  8
4_Shimming
 62
256
370
-1
 48
1.0
  6
BYLAYER
100
AcDbMText
 10
2.9331783953182828
 20
83.8425508575096785
 30
0.0
 40
3.0
 41
0.0
 71
1
 72
1
  1
\H2;Gap should be even\P  across top of door
  7
textstyle17
 50
0.0
 73
2
 44
1.0
  0
MTEXT
  5
E2
100
AcDbEntity
  8
2_Door
 62
256
370
-1
 48
1.0
  6
BYLAYER
100
AcDbMText
 10
1.6029046808746017
 20
13.3082730659501749
 30
0.0
 40
3.0
 41
0.0
 71
1
 72
1
  1
\H2;Remove plastic shields
  7
textstyle16
 50
0.0
 73
2
 44
1.0
  0
MTEXT
  5
E3
100
AcDbEntity
  8
4_Shimming
 62
256
370
-1
 48
1.0
  6
BYLAYER
100
AcDbMText
 10
16.6992018122642527
 20
1.9474236463100567
 30
0.0
 40
3.0
 41
0.0
 71
1
 72
1
  1
\H2;Gap between door edge and jamb\P  should be about 1/8" after shimming
  7
textstyle15
 50
0.0
 73
2
 44
1.0
  0
LINE
  5
E4
100
AcDbEntity
  8
2_Door
 62
256
370
-1
 48
1.0
  6
BYLAYER
100
AcDbLine
 10
37.875
 20
16.0
 30
0.0
 11
38.875
 21
16.0
 31
0.0
  0
LEADER
  5
E5
100
AcDbEntity
  8
4_Shimming
 62
256
370
-1
 48
1.0
  6
BYLAYER
100
AcDbLeader
  3
Standard
 71
1
 72
0
 73
3
 74
0
 75
0
 40
1.0
 41
10.0
 76
3
 10
31.3904064011743884
 20
28.2135166992100039
 10
10.9117575802693523
 20
0.9026499050736021
 10
14.6958557319583321
 20
0.9026499050736021
1001
ACAD
1000
DSTYLE
1002
{
1070
40
1040
1.0
1002
}
  0
LINE
  5
E6
100
AcDbEntity
  8
2_Door
 62
256
370
-1
 48
1.0
  6
BYLAYER
100
AcDbLine
 10
-0.875
 20
16.0
 30
0.0
 11
0.125
 21
16.0
 31
0.0
  0
LINE
  5
E7
100
AcDbEntity
  8
4_Shimming
 62
256
370
-1
 48
1.0
  6
BYLAYER
100
AcDbLine
 10
-5.1790350714053766
 20
72.8919923697271912
 30
0.0
 11
-5.1790350714053766
 21
76.8919923697271912
 31
0.0
  0
LEADER
  5
E8
100
AcDbEntity
  8
2_Door
 62
256
370
-1
 48
1.0
  6
BYLAYER
100
AcDbLeader
  3
Standard
 71
1
 72
0
 73
3
 74
0
 75
0
 40
1.0
 41
10.0
 76
3
 10
37.5
 20
16.0
 10
34.0
 20
12.0
 10
31.0
 20
12.0
1001
ACAD
1000
DSTYLE
1002
{
1070
40
1040
1.0
1002
}
  0
LINE
  5
E9
100
AcDbEntity
  8
4_Shimming
 62
256
370
-1
 48
1.0
  6
BYLAYER
100
AcDbLine
 10
-5.1838964818962978
 20
46.845244824843526
 30
0.0
 11
-5.1838964818962978
 21
50.845244824843526
 31
0.0
  0
LEADER
  5
EA
100
AcDbEntity
  8
2_Door
 62
256
370
-1
 48
1.0
  6
BYLAYER
100
AcDbLeader
  3
Standard
 71
1
 72
0
 73
3
 74
0
 75
0
 40
1.0
 41
10.0
 76
3
 10
0.713739272508664
 20
97.5339880112024389
 10
5.0
 20
107.0
 10
8.0
 20
107.0
1001
ACAD
1000
DSTYLE
1002
{
1070
40
1040
1.0
1002
}
  0
LINE
  5
EB
100
AcDbEntity
  8
4_Shimming
 62
256
370
-1
 48
1.0
  6
BYLAYER
100
AcDbLine
 10
-5.1903631807435495
 20
19.9654276334451737
 30
0.0
 11
-5.1903631807435495
 21
23.9654276334451737
 31
0.0
  0
MTEXT
  5
EC
100
AcDbEntity
  8
2_Door
 62
256
370
-1
 48
1.0
  6
BYLAYER
100
AcDbMText
 10
10.0
 20
108.0
 30
0.0
 40
3.0
 41
0.0
 71
1
 72
1
  1
\H2;Drill/countersink for each screw
  7
textstyle19
 50
0.0
 73
2
 44
1.0
  0
LINE
  5
ED
100
AcDbEntity
  8
4_Shimming
 62
256
370
-1
 48
1.0
  6
BYLAYER
100
AcDbLine
 10
-5.1790350714053766
 20
76.8919923697271912
 30
0.0
 11
-4.6790350714053766
 21
76.8919923697271912
 31
0.0
  0
MTEXT
  5
EE
100
AcDbEntity
  8
2_Door
 62
256
370
-1
 48
1.0
  6
BYLAYER
100
AcDbMText
 10
10.0
 20
108.0
 30
0.0
 40
3.0
 41
0.0
 71
1
 72
1
  1
\H2;Drill/countersink for each screw
  7
textstyle18
 50
0.0
 73
2
 44
1.0
  0
LINE
  5
EF
100
AcDbEntity
  8
4_Shimming
 62
256
370
-1
 48
1.0
  6
BYLAYER
100
AcDbLine
 10
-5.1838964818962978
 20
50.845244824843526
 30
0.0
 11
-4.6838964818962978
 21
50.845244824843526
 31
0.0
  0
LINE
  5
F0
100
AcDbEntity
  8
3_Threshold
 62
256
370
-1
 48
1.0
  6
BYLAYER
100
AcDbLine
 10
0.1703395491245558
 20
-2.6407230888653004
 30
0.0
 11
-1.3296604508754442
 21
-2.6407230888653004
 31
0.0
  0
LINE
  5
F1
100
AcDbEntity
  8
4_Shimming
 62
256
370
-1
 48
1.0
  6
BYLAYER
100
AcDbLine
 10
-5.1903631807435495
 20
23.9654276334451737
 30
0.0
 11
-4.6903631807435495
 21
23.9654276334451737
 31
0.0
  0
LINE
  5
F2
100
AcDbEntity
  8
3_Threshold
 62
256
370
-1
 48
1.0
  6
BYLAYER
100
AcDbLine
 10
39.4203395491245558
 20
-2.6407230888653004
 30
0.0
 11
37.9203395491245558
 21
-2.6407230888653004
 31
0.0
  0
LINE
  5
F3
100
AcDbEntity
  8
4_Shimming
 62
256
370
-1
 48
1.0
  6
BYLAYER
100
AcDbLine
 10
-4.6790350714053766
 20
76.8919923697271912
 30
0.0
 11
-4.6790350714053766
 21
72.8919923697271912
 31
0.0
  0
LINE
  5
F4
100
AcDbEntity
  8
3_Threshold
 62
256
370
-1
 48
1.0
  6
BYLAYER
100
AcDbLine
 10
-1.3296604508754442
 20
-2.6407230888653004
 30
0.0
 11
-1.3296604508754442
 21
-6.1407230888653004
 31
0.0
  0
LINE
  5
F5
100
AcDbEntity
  8
4_Shimming
 62
256
370
-1
 48
1.0
  6
BYLAYER
100
AcDbLine
 10
-4.6838964818962978
 20
50.845244824843526
 30
0.0
 11
-4.6838964818962978
 21
46.845244824843526
 31
0.0
  0
LINE
  5
F6
100
AcDbEntity
  8
3_Threshold
 62
256
370
-1
 48
1.0
  6
BYLAYER
100
AcDbLine
 10
37.9203395491245558
 20
-2.6407230888653004
 30
0.0
 11
37.9203395491245558
 21
-6.1407230888653004
 31
0.0
  0
LINE
  5
F7
100
AcDbEntity
  8
4_Shimming
 62
256
370
-1
 48
1.0
  6
BYLAYER
100
AcDbLine
 10
-4.6903631807435495
 20
23.9654276334451737
 30
0.0
 11
-4.6903631807435495
 21
19.9654276334451737
 31
0.0
  0
LINE
  5
F8
100
AcDbEntity
  8
3_Threshold
 62
256
370
-1
 48
1.0
  6
BYLAYER
100
AcDbLine
 10
-1.3296604508754442
 20
-6.1407230888653004
 30
0.0
 11
-1.0796604508754442
 21
-6.1407230888653004
 31
0.0
  0
LINE
  5
F9
100
AcDbEntity
  8
4_Shimming
 62
256
370
-1
 48
1.0
  6
BYLAYER
100
AcDbLine
 10
-4.6790350714053766
 20
72.8919923697271912
 30
0.0
 11
-5.1790350714053766
 21
72.8919923697271912
 31
0.0
  0
LINE
  5
FA
100
AcDbEntity
  8
3_Threshold
 62
256
370
-1
 48
1.0
  6
BYLAYER
100
AcDbLine
 10
37.9203395491245558
 20
-6.1407230888653004
 30
0.0
 11
39.4203395491245558
 21
-6.1407230888653004
 31
0.0
  0
LINE
  5
FB
100
AcDbEntity
  8
4_Shimming
 62
256
370
-1
 48
1.0
  6
BYLAYER
100
AcDbLine
 10
-4.6838964818962978
 20
46.845244824843526
 30
0.0
 11
-5.1838964818962978
 21
46.845244824843526
 31
0.0
  0
LINE
  5
FC
100
AcDbEntity
  8
3_Threshold
 62
256
370
-1
 48
1.0
  6
BYLAYER
100
AcDbLine
 10
-0.0796604508754442
 20
-6.1407230888653004
 30
0.0
 11
0.1703395491245558
 21
-6.1407230888653004
 31
0.0
  0
LINE
  5
FD
100
AcDbEntity
  8
4_Shimming
 62
256
370
-1
 48
1.0
  6
BYLAYER
100
AcDbLine
 10
-4.6903631807435495
 20
19.9654276334451737
 30
0.0
 11
-5.1903631807435495
 21
19.9654276334451737
 31
0.0
  0
LINE
  5
FE
100
AcDbEntity
  8
3_Threshold
 62
256
370
-1
 48
1.0
  6
BYLAYER
100
AcDbLine
 10
0.1703395491245558
 20
-6.1407230888653004
 30
0.0
 11
0.1703395491245558
 21
-2.6407230888653004
 31
0.0
  0
HATCH
  5
FF
100
AcDbEntity
  8
4_Shimming
 62
256
370
-1
 48
1.0
  6
BYLAYER
100
AcDbHatch
 10
0.0
 20
0.0
 30
0.0
210
0.0
220
0.0
230
1.0
  2
SOLID
 70
1
 71
0
 91
1
 92
1
 93
4
 72
1
 10
-5.1790350714053766
 20
72.8919923697271912
 11
-5.1790350714053766
 21
76.8919923697271912
 72
1
 10
-5.1790350714053766
 20
76.8919923697271912
 11
-4.6790350714053766
 21
76.8919923697271912
 72
1
 10
-4.6790350714053766
 20
76.8919923697271912
 11
-4.6790350714053766
 21
72.8919923697271912
 72
1
 10
-4.6790350714053766
 20
72.8919923697271912
 11
-5.1790350714053766
 21
72.8919923697271912
 97
0
 75
0
 76
1
 98
0
1001
ACAD
1010
0.0
1020
0.0
1030
0
  0
LINE
  5
100
100
AcDbEntity
  8
3_Threshold
 62
256
370
-1
 48
1.0
  6
BYLAYER
100
AcDbLine
 10
39.4203395491245558
 20
-6.1407230888653004
 30
0.0
 11
39.4203395491245558
 21
-2.6407230888653004
 31
0.0
  0
HATCH
  5
101
100
AcDbEntity
  8
4_Shimming
 62
256
370
-1
 48
1.0
  6
BYLAYER
100
AcDbHatch
 10
0.0
 20
0.0
 30
0.0
210
0.0
220
0.0
230
1.0
  2
SOLID
 70
1
 71
0
 91
1
 92
1
 93
4
 72
1
 10
-5.1838964818962978
 20
46.845244824843526
 11
-5.1838964818962978
 21
50.845244824843526
 72
1
 10
-5.1838964818962978
 20
50.845244824843526
 11
-4.6838964818962978
 21
50.845244824843526
 72
1
 10
-4.6838964818962978
 20
50.845244824843526
 11
-4.6838964818962978
 21
46.845244824843526
 72
1
 10
-4.6838964818962978
 20
46.845244824843526
 11
-5.1838964818962978
 21
46.845244824843526
 97
0
 75
0
 76
1
 98
0
1001
ACAD
1010
0.0
1020
0.0
1030
0
  0
LINE
  5
102
100
AcDbEntity
  8
3_Threshold
 62
256
370
-1
 48
1.0
  6
BYLAYER
100
AcDbLine
 10
0.1703395491245558
 20
-2.6407230888653004
 30
0.0
 11
-1.3296604508754442
 21
-6.1407230888653004
 31
0.0
  0
HATCH
  5
103
100
AcDbEntity
  8
4_Shimming
 62
256
370
-1
 48
1.0
  6
BYLAYER
100
AcDbHatch
 10
0.0
 20
0.0
 30
0.0
210
0.0
220
0.0
230
1.0
  2
SOLID
 70
1
 71
0
 91
1
 92
1
 93
4
 72
1
 10
-5.1903631807435495
 20
19.9654276334451737
 11
-5.1903631807435495
 21
23.9654276334451737
 72
1
 10
-5.1903631807435495
 20
23.9654276334451737
 11
-4.6903631807435495
 21
23.9654276334451737
 72
1
 10
-4.6903631807435495
 20
23.9654276334451737
 11
-4.6903631807435495
 21
19.9654276334451737
 72
1
 10
-4.6903631807435495
 20
19.9654276334451737
 11
-5.1903631807435495
 21
19.9654276334451737
 97
0
 75
0
 76
1
 98
0
1001
ACAD
1010
0.0
1020
0.0
1030
0
  0
LINE
  5
104
100
AcDbEntity
  8
3_Threshold
 62
256
370
-1
 48
1.0
  6
BYLAYER
100
AcDbLine
 10
39.4203395491245558
 20
-2.6407230888653004
 30
0.0
 11
37.9203395491245558
 21
-6.1407230888653004
 31
0.0
  0
LEADER
  5
105
100
AcDbEntity
  8
4_Shimming
 62
256
370
-1
 48
1.0
  6
BYLAYER
100
AcDbLeader
  3
Standard
 71
1
 72
0
 73
3
 74
0
 75
0
 40
1.0
 41
10.0
 76
3
 10
-4.6790350714053766
 20
74.8919923697271912
 10
-1.7006608029700843
 20
70.829893109340702
 10
0.8034580306986179
 20
70.829893109340702
1001
ACAD
1000
DSTYLE
1002
{
1070
40
1040
1.0
1002
}
  0
LINE
  5
106
100
AcDbEntity
  8
3_Threshold
 62
256
370
-1
 48
1.0
  6
BYLAYER
100
AcDbLine
 10
-1.3296604508754442
 20
-6.1407230888653004
 30
0.0
 11
0.1703395491245558
 21
-6.1407230888653004
 31
0.0
  0
LEADER
  5
107
100
AcDbEntity
  8
4_Shimming
 62
256
370
-1
 48
1.0
  6
BYLAYER
100
AcDbLeader
  3
Standard
 71
1
 72
0
 73
3
 74
0
 75
0
 40
1.0
 41
10.0
 76
3
 10
-4.6838964818962729
 20
48.8452448248435118
 10
-1.7055222134609807
 20
44.7831455644570227
 10
0.7985966202077215
 20
44.7831455644570227
1001
ACAD
1000
DSTYLE
1002
{
1070
40
1040
1.0
1002
}
  0
LINE
  5
108
100
AcDbEntity
  8
3_Threshold
 62
256
370
-1
 48
1.0
  6
BYLAYER
100
AcDbLine
 10
37.9203395491245558
 20
-6.1407230888653004
 30
0.0
 11
39.4203395491245558
 21
-6.1407230888653004
 31
0.0
  0
LEADER
  5
109
100
AcDbEntity
  8
4_Shimming
 62
256
370
-1
 48
1.0
  6
BYLAYER
100
AcDbLeader
  3
Standard
 71
1
 72
0
 73
3
 74
0
 75
0
 40
1.0
 41
10.0
 76
3
 10
-4.6903631807435247
 20
21.9654276334451382
 10
-1.7119889123082288
 20
17.903328373058649
 10
0.7921299213604698
 20
17.903328373058649
1001
ACAD
1000
DSTYLE
1002
{
1070
40
1040
1.0
1002
}
  0
LINE
  5
10A
100
AcDbEntity
  8
3_Threshold
 62
256
370
-1
 48
1.0
  6
BYLAYER
100
AcDbLine
 10
0.1703395491245558
 20
-6.1407230888653004
 30
0.0
 11
-1.3296604508754442
 21
-2.6407230888653004
 31
0.0
  0
MTEXT
  5
10B
100
AcDbEntity
  8
4_Shimming
 62
256
370
-1
 48
1.0
  6
BYLAYER
100
AcDbMText
 10
1.4398009199761717
 20
72.4026499050736021
 30
0.0
 40
3.0
 41
0.0
 71
1
 72
1
  1
\H2.5;Hinge
  7
textstyle5
 50
0.0
 73
2
 44
1.0
  0
LINE
  5
10C
100
AcDbEntity
  8
3_Threshold
 62
256
370
-1
 48
1.0
  6
BYLAYER
100
AcDbLine
 10
39.4203395491245558
 20
-6.1407230888653004
 30
0.0
 11
37.9203395491245558
 21
-2.6407230888653004
 31
0.0
  0
MTEXT
  5
10D
100
AcDbEntity
  8
4_Shimming
 62
256
370
-1
 48
1.0
  6
BYLAYER
100
AcDbMText
 10
1.4349395094852788
 20
46.3559023601899298
 30
0.0
 40
3.0
 41
0.0
 71
1
 72
1
  1
\H2.5;Hinge
  7
textstyle7
 50
0.0
 73
2
 44
1.0
  0
LINE
  5
10E
100
AcDbEntity
  8
3_Threshold
 62
256
370
-1
 48
1.0
  6
BYLAYER
100
AcDbLine
 10
-1.3296604508754442
 20
-6.1407230888653004
 30
0.0
 11
-7.3296604508754442
 21
-6.1407230888653004
 31
0.0
  0
MTEXT
  5
10F
100
AcDbEntity
  8
4_Shimming
 62
256
370
-1
 48
1.0
  6
BYLAYER
100
AcDbMText
 10
1.4284728106380058
 20
19.4760851687915633
 30
0.0
 40
3.0
 41
0.0
 71
1
 72
1
  1
\H2.5;Hinge
  7
textstyle6
 50
0.0
 73
2
 44
1.0
  0
LINE
  5
110
100
AcDbEntity
  8
3_Threshold
 62
256
370
-1
 48
1.0
  6
BYLAYER
100
AcDbLine
 10
37.9203395491245558
 20
-6.1407230888653004
 30
0.0
 11
43.9203395491245558
 21
-6.1407230888653004
 31
0.0
  0
LINE
  5
111
100
AcDbEntity
  8
3_Threshold
 62
256
370
-1
 48
1.0
  6
BYLAYER
100
AcDbLine
 10
-7.3296604508754442
 20
-6.6407230888653004
 30
0.0
 11
43.9133987771889593
 21
-6.6401874120187809
 31
0.0
  0
LINE
  5
112
100
AcDbEntity
  8
3_Threshold
 62
256
370
-1
 48
1.0
  6
BYLAYER
100
AcDbLine
 10
0.1703395491245558
 20
-6.1407230888653004
 30
0.0
 11
37.9203395491245558
 21
-6.1407230888653004
 31
0.0
  0
HATCH
  5
113
100
AcDbEntity
  8
3_Threshold
 62
9
420
12632256
370
-1
 48
1.0
  6
BYLAYER
100
AcDbHatch
 10
0.0
 20
0.0
 30
0.0
210
0.0
220
0.0
230
1.0
  2
ACAD_ISO02W100
 70
0
 71
0
 91
1
 92
1
 93
4
 72
1
 10
0.1703395491245558
 20
-8.75
 11
37.9203395491245558
 21
-8.75
 72
1
 10
37.9203395491245558
 20
-8.75
 11
37.9203395491245558
 21
-4.75
 72
1
 10
37.9203395491245558
 20
-4.75
 11
0.1703395491245558
 21
-4.75
 72
1
 10
0.1703395491245558
 20
-4.75
 11
0.1703395491245558
 21
-8.75
 97
0
 75
0
 76
1
 52
330.0
 41
0.15
 77
0
 78
1
 53
45.0
 43
0.0
 44
0.0
 45
-0.0883883476483184
 46
0.0883883476483185
 79
0
 98
0
1001
ACAD
1010
0.0
1020
0.0
1030
0
  0
MTEXT
  5
114
100
AcDbEntity
  8
3_Threshold
 62
256
370
-1
 48
1.0
  6
BYLAYER
100
AcDbMText
 10
38.6888749218641408
 20
2.859276911134689
 30
0.0
 40
3.0
 41
0.0
 71
1
 72
1
  1
\fNimbus Sans [UKWN]|b0|i0|c0|p0;\H2;Finished floor edge
  7
textstyle1
 50
0.0
 73
2
 44
1.0
  0
MTEXT
  5
115
100
AcDbEntity
  8
3_Threshold
 62
256
370
-1
 48
1.0
  6
BYLAYER
100
AcDbMText
 10
13.0
 20
2.0
 30
0.0
 40
3.0
 41
0.0
 71
1
 72
1
  1
\fNimbus Sans [UKWN]|b0|i0|c0|p0;\H2;Doorway
  7
textstyle0
 50
0.0
 73
2
 44
1.0
  0
LEADER
  5
116
100
AcDbEntity
  8
4_Shimming
 62
256
370
-1
 48
1.0
  6
BYLAYER
100
AcDbLeader
  3
Standard
 71
1
 72
0
 73
3
 74
0
 75
0
 40
1.0
 41
10.0
 76
2
 10
32.539771604808422
 20
46.4332160801341232
 10
37.4398009199762001
 20
48.4026499050735737
1001
ACAD
1000
DSTYLE
1002
{
1070
40
1040
1.0
1002
}
  0
LINE
  5
117
100
AcDbEntity
  8
3_Threshold
 62
256
370
-1
 48
1.0
  6
BYLAYER
100
AcDbLine
 10
0.1703395491245558
 20
-4.0
 30
0.0
 11
0.1703395491245558
 21
-8.75
 31
0.0
  0
LINE
  5
118
100
AcDbEntity
  8
3_Threshold
 62
256
370
-1
 48
1.0
  6
BYLAYER
100
AcDbLine
 10
0.1703395491245558
 20
-8.75
 30
0.0
 11
37.9203395491245558
 21
-8.75
 31
0.0
  0
LINE
  5
119
100
AcDbEntity
  8
3_Threshold
 62
256
370
-1
 48
1.0
  6
BYLAYER
100
AcDbLine
 10
37.9203395491245558
 20
-8.75
 30
0.0
 11
37.9203395491245558
 21
-3.3907230888653004
 31
0.0
  0
LINE
  5
11A
100
AcDbEntity
  8
3_Threshold
 62
256
370
-1
 48
1.0
  6
BYLAYER
100
AcDbLine
 10
35.0
 20
-4.0
 30
0.0
 11
3.0
 21
-4.0
 31
0.0
  0
LINE
  5
11B
100
AcDbEntity
  8
3_Threshold
 62
256
370
-1
 48
1.0
  6
BYLAYER
100
AcDbLine
 10
37.9203395491245558
 20
-4.75
 30
0.0
 11
0.1703395491245557
 21
-4.75
 31
0.0
  0
LEADER
  5
11C
100
AcDbEntity
  8
3_Threshold
 62
256
370
-1
 48
1.0
  6
BYLAYER
100
AcDbLeader
  3
Standard
 71
1
 72
0
 73
3
 74
0
 75
0
 40
1.0
 41
10.0
 76
3
 10
19.0
 20
-8.75
 10
23.0
 20
-11.75
 10
27.0
 20
-11.75
1001
ACAD
1000
DSTYLE
1002
{
1070
40
1040
1.0
1002
}
  0
MTEXT
  5
11D
100
AcDbEntity
  8
3_Threshold
 62
256
370
-1
 48
1.0
  6
BYLAYER
100
AcDbMText
 10
28.0
 20
-10.0
 30
0.0
 40
2.0
 41
0.0
 71
1
 72
1
  1
Flexible flashing
  7
textstyle2
 50
0.0
 73
2
 44
1.0
  0
LINE
  5
11E
100
AcDbEntity
  8
3_Threshold
 62
256
370
-1
 48
1.0
  6
BYLAYER
100
AcDbLine
 10
0.1703395491245558
 20
-3.3907230888653004
 30
0.0
 11
37.9203395491245558
 21
-3.3907230888653004
 31
0.0
  0
LEADER
  5
11F
100
AcDbEntity
  8
3_Threshold
 62
256
370
-1
 48
1.0
  6
BYLAYER
100
AcDbLeader
  3
Standard
 71
1
 72
0
 73
3
 74
0
 75
0
 40
1.0
 41
10.0
 76
3
 10
30.8750072817700243
 20
-3.3585780823537981
 10
35.9475931850117334
 20
1.7492341118826467
 10
38.1316232266852566
 20
1.7492341118826467
1001
ACAD
1000
DSTYLE
1002
{
1070
40
1040
1.0
1002
}
  0
LINE
  5
120
100
AcDbEntity
  8
3_Threshold
 62
256
370
-1
 48
1.0
  6
BYLAYER
100
AcDbLine
 10
3.0
 20
-6.0
 30
0.0
 11
3.0
 21
-4.0
 31
0.0
  0
LINE
  5
121
100
AcDbEntity
  8
3_Threshold
 62
256
370
-1
 48
1.0
  6
BYLAYER
100
AcDbLine
 10
11.0
 20
-6.0
 30
0.0
 11
11.0
 21
-4.0
 31
0.0
  0
LINE
  5
122
100
AcDbEntity
  8
3_Threshold
 62
256
370
-1
 48
1.0
  6
BYLAYER
100
AcDbLine
 10
19.0
 20
-6.0
 30
0.0
 11
19.0
 21
-4.0
 31
0.0
  0
LINE
  5
123
100
AcDbEntity
  8
3_Threshold
 62
256
370
-1
 48
1.0
  6
BYLAYER
100
AcDbLine
 10
27.0
 20
-6.0
 30
0.0
 11
27.0
 21
-4.0
 31
0.0
  0
LINE
  5
124
100
AcDbEntity
  8
3_Threshold
 62
256
370
-1
 48
1.0
  6
BYLAYER
100
AcDbLine
 10
35.0
 20
-6.0
 30
0.0
 11
35.0
 21
-4.0
 31
0.0
  0
LINE
  5
125
100
AcDbEntity
  8
3_Threshold
 62
256
370
-1
 48
1.0
  6
BYLAYER
100
AcDbLine
 10
37.920339549124563
 20
-2.0997783612981018
 30
0.0
 11
44.0
 21
-2.0997783612981018
 31
0.0
  0
LINE
  5
126
100
AcDbEntity
  8
3_Threshold
 62
256
370
-1
 48
1.0
  6
BYLAYER
100
AcDbLine
 10
-7.4104838829840851
 20
-2.5997783612981018
 30
0.0
 11
0.1703395491245576
 21
-2.5997783612981018
 31
0.0
  0
LINE
  5
127
100
AcDbEntity
  8
3_Threshold
 62
256
370
-1
 48
1.0
  6
BYLAYER
100
AcDbLine
 10
37.9203395491245558
 20
-2.5997783612981018
 30
0.0
 11
43.9201396122344931
 21
-2.5997783612981018
 31
0.0
  0
LINE
  5
128
100
AcDbEntity
  8
3_Threshold
 62
256
370
-1
 48
1.0
  6
BYLAYER
100
AcDbLine
 10
0.1703395491245558
 20
-2.6407230888653004
 30
0.0
 11
0.1703395491245558
 21
-2.0997783612981018
 31
0.0
  0
LINE
  5
129
100
AcDbEntity
  8
3_Threshold
 62
256
370
-1
 48
1.0
  6
BYLAYER
100
AcDbLine
 10
37.9203395491245558
 20
-2.6407230888652995
 30
0.0
 11
37.920339549124563
 21
-2.0997783612981018
 31
0.0
  0
LINE
  5
12A
100
AcDbEntity
  8
3_Threshold
 62
256
370
-1
 48
1.0
  6
BYLAYER
100
AcDbLine
 10
-7.4322445554572614
 20
-2.0574069419779404
 30
0.0
 11
0.1703395491245567
 21
-2.0574069419779404
 31
0.0
  0
LEADER
  5
12B
100
AcDbEntity
  8
3_Threshold
 62
256
370
-1
 48
1.0
  6
BYLAYER
100
AcDbLeader
  3
Standard
 71
1
 72
0
 73
3
 74
0
 75
0
 40
1.0
 41
10.0
 76
3
 10
-1.4312673115629337
 20
-2.025201826089285
 10
-3.9252887139901098
 20
1.5678798553735938
 10
-6.003248479446146
 20
1.5678798553735929
1001
ACAD
1000
DSTYLE
1002
{
1070
40
1040
1.0
1002
}
  0
MTEXT
  5
12C
100
AcDbEntity
  8
3_Threshold
 62
256
370
-1
 48
1.0
  6
BYLAYER
100
AcDbMText
 10
-6.6392787335177346
 20
2.9622538739151518
 30
0.0
 40
2.5
 41
0.0
 71
3
 72
1
  1
\H2;Interior Plywood
  7
textstyle4
 50
0.0
 73
2
 44
1.0
  0
LEADER
  5
12D
100
AcDbEntity
  8
3_Threshold
 62
256
370
-1
 48
1.0
  6
BYLAYER
100
AcDbLeader
  3
Standard
 71
1
 72
0
 73
3
 74
0
 75
0
 40
1.0
 41
10.0
 76
3
 10
25.4924495429379974
 20
-3.8991990621035697
 10
34.1714005392612279
 20
5.2656590711093294
 10
38.1327274293634986
 20
5.2566894136801139
1001
ACAD
1000
DSTYLE
1002
{
1070
40
1040
1.0
1002
}
  0
MTEXT
  5
12E
100
AcDbEntity
  8
3_Threshold
 62
256
370
-1
 48
1.0
  6
BYLAYER
100
AcDbMText
 10
38.5709830150826321
 20
6.7556174999042771
 30
0.0
 40
2.5
 41
0.0
 71
1
 72
1
  1
\H2;3" Flooring blocks
  7
textstyle3
 50
0.0
 73
2
 44
1.0
  0
LINE
  5
12F
100
AcDbEntity
  8
5_Strike Plate
 62
256
370
-1
 48
1.0
  6
BYLAYER
100
AcDbLine
 10
11.5
 20
45.0
 30
0.0
 11
11.5
 21
45.0
 31
0.0
  0
LINE
  5
130
100
AcDbEntity
  8
5_Strike Plate
 62
256
370
-1
 48
1.0
  6
BYLAYER
100
AcDbLine
 10
11.5
 20
45.0
 30
0.0
 11
28.0
 21
45.0
 31
0.0
  0
LINE
  5
131
100
AcDbEntity
  8
5_Strike Plate
 62
256
370
-1
 48
1.0
  6
BYLAYER
100
AcDbLine
 10
25.5
 20
45.0
 30
0.0
 11
25.5
 21
51.0
 31
0.0
  0
LINE
  5
132
100
AcDbEntity
  8
5_Strike Plate
 62
256
370
-1
 48
1.0
  6
BYLAYER
100
AcDbLine
 10
25.5
 20
51.0
 30
0.0
 11
11.5
 21
51.0
 31
0.0
  0
LINE
  5
133
100
AcDbEntity
  8
5_Strike Plate
 62
256
370
-1
 48
1.0
  6
BYLAYER
100
AcDbLine
 10
11.5
 20
51.0
 30
0.0
 11
11.5
 21
45.0
 31
0.0
  0
LINE
  5
134
100
AcDbEntity
  8
5_Strike Plate
 62
256
370
-1
 48
1.0
  6
BYLAYER
100
AcDbLine
 10
11.5
 20
51.0
 30
0.0
 11
25.5
 21
45.0
 31
0.0
  0
LINE
  5
135
100
AcDbEntity
  8
5_Strike Plate
 62
256
370
-1
 48
1.0
  6
BYLAYER
100
AcDbLine
 10
25.5
 20
51.0
 30
0.0
 11
11.5
 21
45.0
 31
0.0
  0
LINE
  5
136
100
AcDbEntity
  8
5_Strike Plate
 62
256
370
-1
 48
1.0
  6
BYLAYER
100
AcDbLine
 10
25.5
 20
51.0
 30
0.0
 11
25.5
 21
84.8887304349973988
 31
0.0
  0
LINE
  5
137
100
AcDbEntity
  8
5_Strike Plate
 62
256
370
-1
 48
1.0
  6
BYLAYER
100
AcDbLine
 10
27.5
 20
45.0
 30
0.0
 11
27.5000000000000036
 21
84.8887304349973988
 31
0.0
  0
LINE
  5
138
100
AcDbEntity
  8
5_Strike Plate
 62
256
370
-1
 48
1.0
  6
BYLAYER
100
AcDbLine
 10
25.5
 20
45.0
 30
0.0
 11
27.5
 21
45.0
 31
0.0
  0
LINE
  5
139
100
AcDbEntity
  8
5_Strike Plate
 62
256
370
-1
 48
1.0
  6
BYLAYER
100
AcDbLine
 10
11.5
 20
51.0
 30
0.0
 11
11.5000000000000018
 21
84.8887304349973988
 31
0.0
  0
LINE
  5
13A
100
AcDbEntity
  8
5_Strike Plate
 62
256
370
-1
 48
1.0
  6
BYLAYER
100
AcDbLine
 10
10.0
 20
45.0
 30
0.0
 11
10.0
 21
84.8887304349973988
 31
0.0
  0
LINE
  5
13B
100
AcDbEntity
  8
5_Strike Plate
 62
256
370
-1
 48
1.0
  6
BYLAYER
100
AcDbLine
 10
10.0
 20
45.0
 30
0.0
 11
11.5
 21
45.0
 31
0.0
  0
LINE
  5
13C
100
AcDbEntity
  8
5_Strike Plate
 62
256
370
-1
 48
1.0
  6
BYLAYER
100
AcDbLine
 10
10.0
 20
45.0
 30
0.0
 11
10.0
 21
42.0
 31
0.0
  0
LINE
  5
13D
100
AcDbEntity
  8
5_Strike Plate
 62
256
370
-1
 48
1.0
  6
BYLAYER
100
AcDbLine
 10
10.0
 20
42.0
 30
0.0
 11
14.0
 21
42.0
 31
0.0
  0
LINE
  5
13E
100
AcDbEntity
  8
5_Strike Plate
 62
256
370
-1
 48
1.0
  6
BYLAYER
100
AcDbLine
 10
14.0
 20
42.0
 30
0.0
 11
14.0
 21
40.0
 31
0.0
  0
LINE
  5
13F
100
AcDbEntity
  8
5_Strike Plate
 62
256
370
-1
 48
1.0
  6
BYLAYER
100
AcDbLine
 10
14.0
 20
40.0
 30
0.0
 11
20.0
 21
40.0
 31
0.0
  0
LINE
  5
140
100
AcDbEntity
  8
5_Strike Plate
 62
256
370
-1
 48
1.0
  6
BYLAYER
100
AcDbLine
 10
20.0
 20
40.0
 30
0.0
 11
20.0
 21
42.0
 31
0.0
  0
LINE
  5
141
100
AcDbEntity
  8
5_Strike Plate
 62
256
370
-1
 48
1.0
  6
BYLAYER
100
AcDbLine
 10
20.0
 20
42.0
 30
0.0
 11
28.0
 21
42.0
 31
0.0
  0
LINE
  5
142
100
AcDbEntity
  8
5_Strike Plate
 62
256
370
-1
 48
1.0
  6
BYLAYER
100
AcDbLine
 10
28.0
 20
42.0
 30
0.0
 11
28.0
 21
45.0
 31
0.0
  0
LINE
  5
143
100
AcDbEntity
  8
5_Strike Plate
 62
256
370
-1
 48
1.0
  6
BYLAYER
100
AcDbLine
 10
9.9002898562734529
 20
7.9416372596906513
 30
0.0
 11
9.9002898562734547
 21
33.1244943417264608
 31
0.0
  0
LINE
  5
144
100
AcDbEntity
  8
5_Strike Plate
 62
256
370
-1
 48
1.0
  6
BYLAYER
100
AcDbLine
 10
14.0383180152934202
 20
8.2963253876066432
 30
0.0
 11
14.0383180152934219
 21
33.7156412215864663
 31
0.0
  0
LINE
  5
145
100
AcDbEntity
  8
5_Strike Plate
 62
256
370
-1
 48
1.0
  6
BYLAYER
100
AcDbLine
 10
20.0680161898653751
 20
8.2963253876066432
 30
0.0
 11
20.0680161898653751
 21
33.3609530936704672
 31
0.0
  0
LINE
  5
146
100
AcDbEntity
  8
5_Strike Plate
 62
256
370
-1
 48
1.0
  6
BYLAYER
100
AcDbLine
 10
27.9893843799893176
 20
7.5869491317746593
 30
0.0
 11
27.9893843799893176
 21
33.1244943417264679
 31
0.0
  0
LINE
  5
147
100
AcDbEntity
  8
5_Strike Plate
 62
256
370
-1
 48
1.0
  6
BYLAYER
100
AcDbLine
 10
9.6638311043294536
 20
33.3609530936704672
 30
0.0
 11
9.9002898562734529
 21
33.3609530936704672
 31
0.0
  0
LINE
  5
148
100
AcDbEntity
  8
5_Strike Plate
 62
256
370
-1
 48
1.0
  6
BYLAYER
100
AcDbLine
 10
9.9002898562734529
 20
33.3609530936704672
 30
0.0
 11
9.9002898562734529
 21
33.2427237176984676
 31
0.0
  0
LINE
  5
149
100
AcDbEntity
  8
5_Strike Plate
 62
256
370
-1
 48
1.0
  6
BYLAYER
100
AcDbLine
 10
9.9002898562734529
 20
33.2427237176984676
 30
0.0
 11
10.0185192322454455
 21
33.2427237176984676
 31
0.0
  0
LINE
  5
14A
100
AcDbEntity
  8
5_Strike Plate
 62
256
370
-1
 48
1.0
  6
BYLAYER
100
AcDbLine
 10
10.0185192322454455
 20
33.2427237176984676
 30
0.0
 11
10.1367486082174452
 21
33.1244943417264679
 31
0.0
  0
LINE
  5
14B
100
AcDbEntity
  8
5_Strike Plate
 62
256
370
-1
 48
1.0
  6
BYLAYER
100
AcDbLine
 10
10.1367486082174452
 20
33.1244943417264679
 30
0.0
 11
10.2549779841894448
 21
33.0062649657544682
 31
0.0
  0
LINE
  5
14C
100
AcDbEntity
  8
5_Strike Plate
 62
256
370
-1
 48
1.0
  6
BYLAYER
100
AcDbLine
 10
10.2549779841894448
 20
33.0062649657544682
 30
0.0
 11
10.3732073601614445
 21
32.8880355897824685
 31
0.0
  0
LINE
  5
14D
100
AcDbEntity
  8
5_Strike Plate
 62
256
370
-1
 48
1.0
  6
BYLAYER
100
AcDbLine
 10
10.3732073601614445
 20
32.8880355897824685
 30
0.0
 11
10.6096661121054439
 21
32.8880355897824685
 31
0.0
  0
LINE
  5
14E
100
AcDbEntity
  8
5_Strike Plate
 62
256
370
-1
 48
1.0
  6
BYLAYER
100
AcDbLine
 10
10.6096661121054439
 20
32.8880355897824685
 30
0.0
 11
10.7278954880774435
 21
32.8880355897824685
 31
0.0
  0
LINE
  5
14F
100
AcDbEntity
  8
5_Strike Plate
 62
256
370
-1
 48
1.0
  6
BYLAYER
100
AcDbLine
 10
10.7278954880774435
 20
32.8880355897824685
 30
0.0
 11
10.8461248640494432
 21
32.8880355897824685
 31
0.0
  0
LINE
  5
150
100
AcDbEntity
  8
5_Strike Plate
 62
256
370
-1
 48
1.0
  6
BYLAYER
100
AcDbLine
 10
10.8461248640494432
 20
32.8880355897824685
 30
0.0
 11
11.0825836159934425
 21
32.7698062138104689
 31
0.0
  0
LINE
  5
151
100
AcDbEntity
  8
5_Strike Plate
 62
256
370
-1
 48
1.0
  6
BYLAYER
100
AcDbLine
 10
11.0825836159934425
 20
32.7698062138104689
 30
0.0
 11
11.4372717439094416
 21
32.7698062138104689
 31
0.0
  0
LINE
  5
152
100
AcDbEntity
  8
5_Strike Plate
 62
256
370
-1
 48
1.0
  6
BYLAYER
100
AcDbLine
 10
11.4372717439094416
 20
32.7698062138104689
 30
0.0
 11
11.6737304958534338
 21
32.7698062138104689
 31
0.0
  0
LINE
  5
153
100
AcDbEntity
  8
5_Strike Plate
 62
256
370
-1
 48
1.0
  6
BYLAYER
100
AcDbLine
 10
11.6737304958534338
 20
32.7698062138104689
 30
0.0
 11
12.2648773757134322
 21
32.8880355897824685
 31
0.0
  0
LINE
  5
154
100
AcDbEntity
  8
5_Strike Plate
 62
256
370
-1
 48
1.0
  6
BYLAYER
100
AcDbLine
 10
12.2648773757134322
 20
32.8880355897824685
 30
0.0
 11
12.5013361276574315
 21
33.1244943417264679
 31
0.0
  0
LINE
  5
155
100
AcDbEntity
  8
5_Strike Plate
 62
256
370
-1
 48
1.0
  6
BYLAYER
100
AcDbLine
 10
12.5013361276574315
 20
33.1244943417264679
 30
0.0
 11
12.7377948796014309
 21
33.3609530936704672
 31
0.0
  0
LINE
  5
156
100
AcDbEntity
  8
5_Strike Plate
 62
256
370
-1
 48
1.0
  6
BYLAYER
100
AcDbLine
 10
12.7377948796014309
 20
33.3609530936704672
 30
0.0
 11
12.9742536315454302
 21
33.3609530936704672
 31
0.0
  0
LINE
  5
157
100
AcDbEntity
  8
5_Strike Plate
 62
256
370
-1
 48
1.0
  6
BYLAYER
100
AcDbLine
 10
12.9742536315454302
 20
33.3609530936704672
 30
0.0
 11
13.0924830075174299
 21
33.4791824696424669
 31
0.0
  0
LINE
  5
158
100
AcDbEntity
  8
5_Strike Plate
 62
256
370
-1
 48
1.0
  6
BYLAYER
100
AcDbLine
 10
13.0924830075174299
 20
33.4791824696424669
 30
0.0
 11
13.2107123834894225
 21
33.5974118456144595
 31
0.0
  0
LINE
  5
159
100
AcDbEntity
  8
5_Strike Plate
 62
256
370
-1
 48
1.0
  6
BYLAYER
100
AcDbLine
 10
13.2107123834894225
 20
33.5974118456144595
 30
0.0
 11
13.3289417594614221
 21
33.5974118456144595
 31
0.0
  0
LINE
  5
15A
100
AcDbEntity
  8
5_Strike Plate
 62
256
370
-1
 48
1.0
  6
BYLAYER
100
AcDbLine
 10
13.3289417594614221
 20
33.5974118456144595
 30
0.0
 11
13.4471711354334218
 21
33.7156412215864663
 31
0.0
  0
LINE
  5
15B
100
AcDbEntity
  8
5_Strike Plate
 62
256
370
-1
 48
1.0
  6
BYLAYER
100
AcDbLine
 10
13.4471711354334218
 20
33.7156412215864663
 30
0.0
 11
13.5654005114054215
 21
33.7156412215864663
 31
0.0
  0
LINE
  5
15C
100
AcDbEntity
  8
5_Strike Plate
 62
256
370
-1
 48
1.0
  6
BYLAYER
100
AcDbLine
 10
13.5654005114054215
 20
33.7156412215864663
 30
0.0
 11
13.6836298873774211
 21
33.7156412215864663
 31
0.0
  0
LINE
  5
15D
100
AcDbEntity
  8
5_Strike Plate
 62
256
370
-1
 48
1.0
  6
BYLAYER
100
AcDbLine
 10
13.6836298873774211
 20
33.7156412215864663
 30
0.0
 11
13.9200886393214205
 21
33.7156412215864663
 31
0.0
  0
LINE
  5
15E
100
AcDbEntity
  8
5_Strike Plate
 62
256
370
-1
 48
1.0
  6
BYLAYER
100
AcDbLine
 10
13.9200886393214205
 20
33.7156412215864663
 30
0.0
 11
14.0383180152934202
 21
33.7156412215864663
 31
0.0
  0
LINE
  5
15F
100
AcDbEntity
  8
5_Strike Plate
 62
256
370
-1
 48
1.0
  6
BYLAYER
100
AcDbLine
 10
14.0383180152934202
 20
33.7156412215864663
 30
0.0
 11
14.1565473912654198
 21
33.7156412215864663
 31
0.0
  0
LINE
  5
160
100
AcDbEntity
  8
5_Strike Plate
 62
256
370
-1
 48
1.0
  6
BYLAYER
100
AcDbLine
 10
14.1565473912654198
 20
33.7156412215864663
 30
0.0
 11
14.5112355191814189
 21
33.7156412215864663
 31
0.0
  0
LINE
  5
161
100
AcDbEntity
  8
5_Strike Plate
 62
256
370
-1
 48
1.0
  6
BYLAYER
100
AcDbLine
 10
14.5112355191814189
 20
33.7156412215864663
 30
0.0
 11
14.6294648951534185
 21
33.7156412215864663
 31
0.0
  0
LINE
  5
162
100
AcDbEntity
  8
5_Strike Plate
 62
256
370
-1
 48
1.0
  6
BYLAYER
100
AcDbLine
 10
14.6294648951534185
 20
33.7156412215864663
 30
0.0
 11
14.7476942711254111
 21
33.7156412215864663
 31
0.0
  0
LINE
  5
163
100
AcDbEntity
  8
5_Strike Plate
 62
256
370
-1
 48
1.0
  6
BYLAYER
100
AcDbLine
 10
14.7476942711254111
 20
33.7156412215864663
 30
0.0
 11
14.8659236470974108
 21
33.5974118456144595
 31
0.0
  0
LINE
  5
164
100
AcDbEntity
  8
5_Strike Plate
 62
256
370
-1
 48
1.0
  6
BYLAYER
100
AcDbLine
 10
14.8659236470974108
 20
33.5974118456144595
 30
0.0
 11
14.9841530230694104
 21
33.5974118456144595
 31
0.0
  0
LINE
  5
165
100
AcDbEntity
  8
5_Strike Plate
 62
256
370
-1
 48
1.0
  6
BYLAYER
100
AcDbLine
 10
14.9841530230694104
 20
33.5974118456144595
 30
0.0
 11
15.1023823990414101
 21
33.5974118456144595
 31
0.0
  0
LINE
  5
166
100
AcDbEntity
  8
5_Strike Plate
 62
256
370
-1
 48
1.0
  6
BYLAYER
100
AcDbLine
 10
15.1023823990414101
 20
33.5974118456144595
 30
0.0
 11
15.2206117750134098
 21
33.4791824696424669
 31
0.0
  0
LINE
  5
167
100
AcDbEntity
  8
5_Strike Plate
 62
256
370
-1
 48
1.0
  6
BYLAYER
100
AcDbLine
 10
15.2206117750134098
 20
33.4791824696424669
 30
0.0
 11
15.3388411509854095
 21
33.4791824696424669
 31
0.0
  0
LINE
  5
168
100
AcDbEntity
  8
5_Strike Plate
 62
256
370
-1
 48
1.0
  6
BYLAYER
100
AcDbLine
 10
15.3388411509854095
 20
33.4791824696424669
 30
0.0
 11
15.4570705269574091
 21
33.4791824696424669
 31
0.0
  0
LINE
  5
169
100
AcDbEntity
  8
5_Strike Plate
 62
256
370
-1
 48
1.0
  6
BYLAYER
100
AcDbLine
 10
15.4570705269574091
 20
33.4791824696424669
 30
0.0
 11
15.5752999029294088
 21
33.4791824696424669
 31
0.0
  0
LINE
  5
16A
100
AcDbEntity
  8
5_Strike Plate
 62
256
370
-1
 48
1.0
  6
BYLAYER
100
AcDbLine
 10
15.5752999029294088
 20
33.4791824696424669
 30
0.0
 11
15.6935292789014085
 21
33.4791824696424669
 31
0.0
  0
LINE
  5
16B
100
AcDbEntity
  8
5_Strike Plate
 62
256
370
-1
 48
1.0
  6
BYLAYER
100
AcDbLine
 10
15.6935292789014085
 20
33.4791824696424669
 30
0.0
 11
15.8117586548734081
 21
33.4791824696424669
 31
0.0
  0
LINE
  5
16C
100
AcDbEntity
  8
5_Strike Plate
 62
256
370
-1
 48
1.0
  6
BYLAYER
100
AcDbLine
 10
15.8117586548734081
 20
33.4791824696424669
 30
0.0
 11
16.0482174068174075
 21
33.4791824696424669
 31
0.0
  0
LINE
  5
16D
100
AcDbEntity
  8
5_Strike Plate
 62
256
370
-1
 48
1.0
  6
BYLAYER
100
AcDbLine
 10
16.0482174068174075
 20
33.4791824696424669
 30
0.0
 11
16.1664467827894072
 21
33.4791824696424669
 31
0.0
  0
LINE
  5
16E
100
AcDbEntity
  8
5_Strike Plate
 62
256
370
-1
 48
1.0
  6
BYLAYER
100
AcDbLine
 10
16.1664467827894072
 20
33.4791824696424669
 30
0.0
 11
16.2846761587614068
 21
33.3609530936704672
 31
0.0
  0
LINE
  5
16F
100
AcDbEntity
  8
5_Strike Plate
 62
256
370
-1
 48
1.0
  6
BYLAYER
100
AcDbLine
 10
16.2846761587614068
 20
33.3609530936704672
 30
0.0
 11
16.4029055347333994
 21
33.3609530936704672
 31
0.0
  0
LINE
  5
170
100
AcDbEntity
  8
5_Strike Plate
 62
256
370
-1
 48
1.0
  6
BYLAYER
100
AcDbLine
 10
16.4029055347333994
 20
33.3609530936704672
 30
0.0
 11
16.5211349107053991
 21
33.3609530936704672
 31
0.0
  0
LINE
  5
171
100
AcDbEntity
  8
5_Strike Plate
 62
256
370
-1
 48
1.0
  6
BYLAYER
100
AcDbLine
 10
16.5211349107053991
 20
33.3609530936704672
 30
0.0
 11
16.6393642866773988
 21
33.3609530936704672
 31
0.0
  0
LINE
  5
172
100
AcDbEntity
  8
5_Strike Plate
 62
256
370
-1
 48
1.0
  6
BYLAYER
100
AcDbLine
 10
16.6393642866773988
 20
33.3609530936704672
 30
0.0
 11
16.8758230386213981
 21
33.3609530936704672
 31
0.0
  0
LINE
  5
173
100
AcDbEntity
  8
5_Strike Plate
 62
256
370
-1
 48
1.0
  6
BYLAYER
100
AcDbLine
 10
16.8758230386213981
 20
33.3609530936704672
 30
0.0
 11
16.9940524145933978
 21
33.3609530936704672
 31
0.0
  0
LINE
  5
174
100
AcDbEntity
  8
5_Strike Plate
 62
256
370
-1
 48
1.0
  6
BYLAYER
100
AcDbLine
 10
16.9940524145933978
 20
33.3609530936704672
 30
0.0
 11
17.2305111665373971
 21
33.3609530936704672
 31
0.0
  0
LINE
  5
175
100
AcDbEntity
  8
5_Strike Plate
 62
256
370
-1
 48
1.0
  6
BYLAYER
100
AcDbLine
 10
17.2305111665373971
 20
33.3609530936704672
 30
0.0
 11
17.5851992944533961
 21
33.3609530936704672
 31
0.0
  0
LINE
  5
176
100
AcDbEntity
  8
5_Strike Plate
 62
256
370
-1
 48
1.0
  6
BYLAYER
100
AcDbLine
 10
17.5851992944533961
 20
33.3609530936704672
 30
0.0
 11
17.8216580463973955
 21
33.3609530936704672
 31
0.0
  0
LINE
  5
177
100
AcDbEntity
  8
5_Strike Plate
 62
256
370
-1
 48
1.0
  6
BYLAYER
100
AcDbLine
 10
17.8216580463973955
 20
33.3609530936704672
 30
0.0
 11
17.939887422369388
 21
33.3609530936704672
 31
0.0
  0
LINE
  5
178
100
AcDbEntity
  8
5_Strike Plate
 62
256
370
-1
 48
1.0
  6
BYLAYER
100
AcDbLine
 10
17.939887422369388
 20
33.3609530936704672
 30
0.0
 11
18.1763461743133874
 21
33.3609530936704672
 31
0.0
  0
LINE
  5
179
100
AcDbEntity
  8
5_Strike Plate
 62
256
370
-1
 48
1.0
  6
BYLAYER
100
AcDbLine
 10
18.1763461743133874
 20
33.3609530936704672
 30
0.0
 11
18.2945755502853871
 21
33.3609530936704672
 31
0.0
  0
LINE
  5
17A
100
AcDbEntity
  8
5_Strike Plate
 62
256
370
-1
 48
1.0
  6
BYLAYER
100
AcDbLine
 10
18.2945755502853871
 20
33.3609530936704672
 30
0.0
 11
18.5310343022293864
 21
33.3609530936704672
 31
0.0
  0
LINE
  5
17B
100
AcDbEntity
  8
5_Strike Plate
 62
256
370
-1
 48
1.0
  6
BYLAYER
100
AcDbLine
 10
18.5310343022293864
 20
33.3609530936704672
 30
0.0
 11
18.6492636782013861
 21
33.3609530936704672
 31
0.0
  0
LINE
  5
17C
100
AcDbEntity
  8
5_Strike Plate
 62
256
370
-1
 48
1.0
  6
BYLAYER
100
AcDbLine
 10
18.6492636782013861
 20
33.3609530936704672
 30
0.0
 11
19.3586399340333841
 21
33.3609530936704672
 31
0.0
  0
LINE
  5
17D
100
AcDbEntity
  8
5_Strike Plate
 62
256
370
-1
 48
1.0
  6
BYLAYER
100
AcDbLine
 10
19.3586399340333841
 20
33.3609530936704672
 30
0.0
 11
19.713328061949376
 21
33.3609530936704672
 31
0.0
  0
LINE
  5
17E
100
AcDbEntity
  8
5_Strike Plate
 62
256
370
-1
 48
1.0
  6
BYLAYER
100
AcDbLine
 10
19.713328061949376
 20
33.3609530936704672
 30
0.0
 11
20.0680161898653751
 21
33.4791824696424669
 31
0.0
  0
LINE
  5
17F
100
AcDbEntity
  8
5_Strike Plate
 62
256
370
-1
 48
1.0
  6
BYLAYER
100
AcDbLine
 10
20.0680161898653751
 20
33.4791824696424669
 30
0.0
 11
20.1862455658373747
 21
33.4791824696424669
 31
0.0
  0
LINE
  5
180
100
AcDbEntity
  8
5_Strike Plate
 62
256
370
-1
 48
1.0
  6
BYLAYER
100
AcDbLine
 10
20.1862455658373747
 20
33.4791824696424669
 30
0.0
 11
20.4227043177813741
 21
33.5974118456144595
 31
0.0
  0
LINE
  5
181
100
AcDbEntity
  8
5_Strike Plate
 62
256
370
-1
 48
1.0
  6
BYLAYER
100
AcDbLine
 10
20.4227043177813741
 20
33.5974118456144595
 30
0.0
 11
20.7773924456973731
 21
33.5974118456144595
 31
0.0
  0
LINE
  5
182
100
AcDbEntity
  8
5_Strike Plate
 62
256
370
-1
 48
1.0
  6
BYLAYER
100
AcDbLine
 10
20.7773924456973731
 20
33.5974118456144595
 30
0.0
 11
21.0138511976413724
 21
33.7156412215864663
 31
0.0
  0
LINE
  5
183
100
AcDbEntity
  8
5_Strike Plate
 62
256
370
-1
 48
1.0
  6
BYLAYER
100
AcDbLine
 10
21.0138511976413724
 20
33.7156412215864663
 30
0.0
 11
21.2503099495853647
 21
33.7156412215864663
 31
0.0
  0
LINE
  5
184
100
AcDbEntity
  8
5_Strike Plate
 62
256
370
-1
 48
1.0
  6
BYLAYER
100
AcDbLine
 10
21.2503099495853647
 20
33.7156412215864663
 30
0.0
 11
21.3685393255573644
 21
33.7156412215864663
 31
0.0
  0
LINE
  5
185
100
AcDbEntity
  8
5_Strike Plate
 62
256
370
-1
 48
1.0
  6
BYLAYER
100
AcDbLine
 10
21.3685393255573644
 20
33.7156412215864663
 30
0.0
 11
21.486768701529364
 21
33.7156412215864663
 31
0.0
  0
LINE
  5
186
100
AcDbEntity
  8
5_Strike Plate
 62
256
370
-1
 48
1.0
  6
BYLAYER
100
AcDbLine
 10
21.486768701529364
 20
33.7156412215864663
 30
0.0
 11
21.6049980775013637
 21
33.7156412215864663
 31
0.0
  0
LINE
  5
187
100
AcDbEntity
  8
5_Strike Plate
 62
256
370
-1
 48
1.0
  6
BYLAYER
100
AcDbLine
 10
21.6049980775013637
 20
33.7156412215864663
 30
0.0
 11
21.7232274534733634
 21
33.7156412215864663
 31
0.0
  0
LINE
  5
188
100
AcDbEntity
  8
5_Strike Plate
 62
256
370
-1
 48
1.0
  6
BYLAYER
100
AcDbLine
 10
21.7232274534733634
 20
33.7156412215864663
 30
0.0
 11
21.841456829445363
 21
33.7156412215864663
 31
0.0
  0
LINE
  5
189
100
AcDbEntity
  8
5_Strike Plate
 62
256
370
-1
 48
1.0
  6
BYLAYER
100
AcDbLine
 10
21.841456829445363
 20
33.7156412215864663
 30
0.0
 11
21.9596862054173627
 21
33.7156412215864663
 31
0.0
  0
LINE
  5
18A
100
AcDbEntity
  8
5_Strike Plate
 62
256
370
-1
 48
1.0
  6
BYLAYER
100
AcDbLine
 10
21.9596862054173627
 20
33.7156412215864663
 30
0.0
 11
22.1961449573613621
 21
33.7156412215864663
 31
0.0
  0
LINE
  5
18B
100
AcDbEntity
  8
5_Strike Plate
 62
256
370
-1
 48
1.0
  6
BYLAYER
100
AcDbLine
 10
22.1961449573613621
 20
33.7156412215864663
 30
0.0
 11
22.3143743333333617
 21
33.7156412215864663
 31
0.0
  0
LINE
  5
18C
100
AcDbEntity
  8
5_Strike Plate
 62
256
370
-1
 48
1.0
  6
BYLAYER
100
AcDbLine
 10
22.3143743333333617
 20
33.7156412215864663
 30
0.0
 11
22.3143743333333617
 21
33.5974118456144595
 31
0.0
  0
LINE
  5
18D
100
AcDbEntity
  8
5_Strike Plate
 62
256
370
-1
 48
1.0
  6
BYLAYER
100
AcDbLine
 10
22.3143743333333617
 20
33.5974118456144595
 30
0.0
 11
22.4326037093053614
 21
33.4791824696424669
 31
0.0
  0
LINE
  5
18E
100
AcDbEntity
  8
5_Strike Plate
 62
256
370
-1
 48
1.0
  6
BYLAYER
100
AcDbLine
 10
22.4326037093053614
 20
33.4791824696424669
 30
0.0
 11
22.5508330852773611
 21
33.3609530936704672
 31
0.0
  0
LINE
  5
18F
100
AcDbEntity
  8
5_Strike Plate
 62
256
370
-1
 48
1.0
  6
BYLAYER
100
AcDbLine
 10
22.5508330852773611
 20
33.3609530936704672
 30
0.0
 11
22.6690624612493536
 21
33.2427237176984676
 31
0.0
  0
LINE
  5
190
100
AcDbEntity
  8
5_Strike Plate
 62
256
370
-1
 48
1.0
  6
BYLAYER
100
AcDbLine
 10
22.6690624612493536
 20
33.2427237176984676
 30
0.0
 11
22.7872918372213533
 21
33.1244943417264679
 31
0.0
  0
LINE
  5
191
100
AcDbEntity
  8
5_Strike Plate
 62
256
370
-1
 48
1.0
  6
BYLAYER
100
AcDbLine
 10
22.7872918372213533
 20
33.1244943417264679
 30
0.0
 11
22.905521213193353
 21
33.0062649657544682
 31
0.0
  0
LINE
  5
192
100
AcDbEntity
  8
5_Strike Plate
 62
256
370
-1
 48
1.0
  6
BYLAYER
100
AcDbLine
 10
22.905521213193353
 20
33.0062649657544682
 30
0.0
 11
23.0237505891653527
 21
33.0062649657544682
 31
0.0
  0
LINE
  5
193
100
AcDbEntity
  8
5_Strike Plate
 62
256
370
-1
 48
1.0
  6
BYLAYER
100
AcDbLine
 10
23.0237505891653527
 20
33.0062649657544682
 30
0.0
 11
23.260209341109352
 21
32.8880355897824685
 31
0.0
  0
LINE
  5
194
100
AcDbEntity
  8
5_Strike Plate
 62
256
370
-1
 48
1.0
  6
BYLAYER
100
AcDbLine
 10
23.260209341109352
 20
32.8880355897824685
 30
0.0
 11
23.3784387170813517
 21
32.8880355897824685
 31
0.0
  0
LINE
  5
195
100
AcDbEntity
  8
5_Strike Plate
 62
256
370
-1
 48
1.0
  6
BYLAYER
100
AcDbLine
 10
23.3784387170813517
 20
32.8880355897824685
 30
0.0
 11
23.4966680930533514
 21
32.8880355897824685
 31
0.0
  0
LINE
  5
196
100
AcDbEntity
  8
5_Strike Plate
 62
256
370
-1
 48
1.0
  6
BYLAYER
100
AcDbLine
 10
23.4966680930533514
 20
32.8880355897824685
 30
0.0
 11
23.8513562209693504
 21
32.8880355897824685
 31
0.0
  0
LINE
  5
197
100
AcDbEntity
  8
5_Strike Plate
 62
256
370
-1
 48
1.0
  6
BYLAYER
100
AcDbLine
 10
23.8513562209693504
 20
32.8880355897824685
 30
0.0
 11
23.96958559694135
 21
32.8880355897824685
 31
0.0
  0
LINE
  5
198
100
AcDbEntity
  8
5_Strike Plate
 62
256
370
-1
 48
1.0
  6
BYLAYER
100
AcDbLine
 10
23.96958559694135
 20
32.8880355897824685
 30
0.0
 11
24.2060443488853494
 21
32.8880355897824685
 31
0.0
  0
LINE
  5
199
100
AcDbEntity
  8
5_Strike Plate
 62
256
370
-1
 48
1.0
  6
BYLAYER
100
AcDbLine
 10
24.2060443488853494
 20
32.8880355897824685
 30
0.0
 11
24.324273724857342
 21
32.8880355897824685
 31
0.0
  0
LINE
  5
19A
100
AcDbEntity
  8
5_Strike Plate
 62
256
370
-1
 48
1.0
  6
BYLAYER
100
AcDbLine
 10
24.324273724857342
 20
32.8880355897824685
 30
0.0
 11
24.5607324768013413
 21
32.8880355897824685
 31
0.0
  0
LINE
  5
19B
100
AcDbEntity
  8
5_Strike Plate
 62
256
370
-1
 48
1.0
  6
BYLAYER
100
AcDbLine
 10
24.5607324768013413
 20
32.8880355897824685
 30
0.0
 11
24.678961852773341
 21
32.8880355897824685
 31
0.0
  0
LINE
  5
19C
100
AcDbEntity
  8
5_Strike Plate
 62
256
370
-1
 48
1.0
  6
BYLAYER
100
AcDbLine
 10
24.678961852773341
 20
32.8880355897824685
 30
0.0
 11
24.7971912287453407
 21
32.8880355897824685
 31
0.0
  0
LINE
  5
19D
100
AcDbEntity
  8
5_Strike Plate
 62
256
370
-1
 48
1.0
  6
BYLAYER
100
AcDbLine
 10
24.7971912287453407
 20
32.8880355897824685
 30
0.0
 11
25.03364998068934
 21
32.8880355897824685
 31
0.0
  0
LINE
  5
19E
100
AcDbEntity
  8
5_Strike Plate
 62
256
370
-1
 48
1.0
  6
BYLAYER
100
AcDbLine
 10
25.03364998068934
 20
32.8880355897824685
 30
0.0
 11
25.2701087326333393
 21
32.8880355897824685
 31
0.0
  0
LINE
  5
19F
100
AcDbEntity
  8
5_Strike Plate
 62
256
370
-1
 48
1.0
  6
BYLAYER
100
AcDbLine
 10
25.2701087326333393
 20
32.8880355897824685
 30
0.0
 11
25.5065674845773387
 21
32.8880355897824685
 31
0.0
  0
LINE
  5
1A0
100
AcDbEntity
  8
5_Strike Plate
 62
256
370
-1
 48
1.0
  6
BYLAYER
100
AcDbLine
 10
25.5065674845773387
 20
32.8880355897824685
 30
0.0
 11
25.6247968605493384
 21
32.8880355897824685
 31
0.0
  0
LINE
  5
1A1
100
AcDbEntity
  8
5_Strike Plate
 62
256
370
-1
 48
1.0
  6
BYLAYER
100
AcDbLine
 10
25.6247968605493384
 20
32.8880355897824685
 30
0.0
 11
25.8612556124933306
 21
32.8880355897824685
 31
0.0
  0
LINE
  5
1A2
100
AcDbEntity
  8
5_Strike Plate
 62
256
370
-1
 48
1.0
  6
BYLAYER
100
AcDbLine
 10
25.8612556124933306
 20
32.8880355897824685
 30
0.0
 11
25.9794849884653303
 21
32.8880355897824685
 31
0.0
  0
LINE
  5
1A3
100
AcDbEntity
  8
5_Strike Plate
 62
256
370
-1
 48
1.0
  6
BYLAYER
100
AcDbLine
 10
25.9794849884653303
 20
32.8880355897824685
 30
0.0
 11
26.2159437404093296
 21
33.0062649657544682
 31
0.0
  0
LINE
  5
1A4
100
AcDbEntity
  8
5_Strike Plate
 62
256
370
-1
 48
1.0
  6
BYLAYER
100
AcDbLine
 10
26.2159437404093296
 20
33.0062649657544682
 30
0.0
 11
26.452402492353329
 21
33.0062649657544682
 31
0.0
  0
LINE
  5
1A5
100
AcDbEntity
  8
5_Strike Plate
 62
256
370
-1
 48
1.0
  6
BYLAYER
100
AcDbLine
 10
26.452402492353329
 20
33.0062649657544682
 30
0.0
 11
26.6888612442973283
 21
33.0062649657544682
 31
0.0
  0
LINE
  5
1A6
100
AcDbEntity
  8
5_Strike Plate
 62
256
370
-1
 48
1.0
  6
BYLAYER
100
AcDbLine
 10
26.6888612442973283
 20
33.0062649657544682
 30
0.0
 11
26.9253199962413277
 21
33.0062649657544682
 31
0.0
  0
LINE
  5
1A7
100
AcDbEntity
  8
5_Strike Plate
 62
256
370
-1
 48
1.0
  6
BYLAYER
100
AcDbLine
 10
26.9253199962413277
 20
33.0062649657544682
 30
0.0
 11
27.0435493722133273
 21
33.0062649657544682
 31
0.0
  0
LINE
  5
1A8
100
AcDbEntity
  8
5_Strike Plate
 62
256
370
-1
 48
1.0
  6
BYLAYER
100
AcDbLine
 10
27.0435493722133273
 20
33.0062649657544682
 30
0.0
 11
27.2800081241573267
 21
33.0062649657544682
 31
0.0
  0
LINE
  5
1A9
100
AcDbEntity
  8
5_Strike Plate
 62
256
370
-1
 48
1.0
  6
BYLAYER
100
AcDbLine
 10
27.2800081241573267
 20
33.0062649657544682
 30
0.0
 11
27.3982375001293263
 21
33.0062649657544682
 31
0.0
  0
LINE
  5
1AA
100
AcDbEntity
  8
5_Strike Plate
 62
256
370
-1
 48
1.0
  6
BYLAYER
100
AcDbLine
 10
27.3982375001293263
 20
33.0062649657544682
 30
0.0
 11
27.5164668761013189
 21
33.0062649657544682
 31
0.0
  0
LINE
  5
1AB
100
AcDbEntity
  8
5_Strike Plate
 62
256
370
-1
 48
1.0
  6
BYLAYER
100
AcDbLine
 10
27.5164668761013189
 20
33.0062649657544682
 30
0.0
 11
27.6346962520733186
 21
33.0062649657544682
 31
0.0
  0
LINE
  5
1AC
100
AcDbEntity
  8
5_Strike Plate
 62
256
370
-1
 48
1.0
  6
BYLAYER
100
AcDbLine
 10
10.1367486082174452
 20
7.9416372596906513
 30
0.0
 11
10.1367486082174452
 21
7.8234078837186445
 31
0.0
  0
LINE
  5
1AD
100
AcDbEntity
  8
5_Strike Plate
 62
256
370
-1
 48
1.0
  6
BYLAYER
100
AcDbLine
 10
10.1367486082174452
 20
7.8234078837186445
 30
0.0
 11
10.3732073601614445
 21
7.8234078837186445
 31
0.0
  0
LINE
  5
1AE
100
AcDbEntity
  8
5_Strike Plate
 62
256
370
-1
 48
1.0
  6
BYLAYER
100
AcDbLine
 10
10.3732073601614445
 20
7.8234078837186445
 30
0.0
 11
10.4914367361334442
 21
7.7051785077466519
 31
0.0
  0
LINE
  5
1AF
100
AcDbEntity
  8
5_Strike Plate
 62
256
370
-1
 48
1.0
  6
BYLAYER
100
AcDbLine
 10
10.4914367361334442
 20
7.7051785077466519
 30
0.0
 11
10.7278954880774435
 21
7.7051785077466519
 31
0.0
  0
LINE
  5
1B0
100
AcDbEntity
  8
5_Strike Plate
 62
256
370
-1
 48
1.0
  6
BYLAYER
100
AcDbLine
 10
10.7278954880774435
 20
7.7051785077466519
 30
0.0
 11
10.8461248640494432
 21
7.5869491317746593
 31
0.0
  0
LINE
  5
1B1
100
AcDbEntity
  8
5_Strike Plate
 62
256
370
-1
 48
1.0
  6
BYLAYER
100
AcDbLine
 10
10.8461248640494432
 20
7.5869491317746593
 30
0.0
 11
11.2008129919654422
 21
7.5869491317746593
 31
0.0
  0
LINE
  5
1B2
100
AcDbEntity
  8
5_Strike Plate
 62
256
370
-1
 48
1.0
  6
BYLAYER
100
AcDbLine
 10
11.2008129919654422
 20
7.5869491317746593
 30
0.0
 11
11.4372717439094416
 21
7.5869491317746593
 31
0.0
  0
LINE
  5
1B3
100
AcDbEntity
  8
5_Strike Plate
 62
256
370
-1
 48
1.0
  6
BYLAYER
100
AcDbLine
 10
11.4372717439094416
 20
7.5869491317746593
 30
0.0
 11
11.6737304958534338
 21
7.5869491317746593
 31
0.0
  0
LINE
  5
1B4
100
AcDbEntity
  8
5_Strike Plate
 62
256
370
-1
 48
1.0
  6
BYLAYER
100
AcDbLine
 10
11.6737304958534338
 20
7.5869491317746593
 30
0.0
 11
11.9101892477974332
 21
7.5869491317746593
 31
0.0
  0
LINE
  5
1B5
100
AcDbEntity
  8
5_Strike Plate
 62
256
370
-1
 48
1.0
  6
BYLAYER
100
AcDbLine
 10
11.9101892477974332
 20
7.5869491317746593
 30
0.0
 11
12.0284186237694328
 21
7.5869491317746593
 31
0.0
  0
LINE
  5
1B6
100
AcDbEntity
  8
5_Strike Plate
 62
256
370
-1
 48
1.0
  6
BYLAYER
100
AcDbLine
 10
12.0284186237694328
 20
7.5869491317746593
 30
0.0
 11
12.1466479997414325
 21
7.5869491317746593
 31
0.0
  0
LINE
  5
1B7
100
AcDbEntity
  8
5_Strike Plate
 62
256
370
-1
 48
1.0
  6
BYLAYER
100
AcDbLine
 10
12.1466479997414325
 20
7.5869491317746593
 30
0.0
 11
12.2648773757134322
 21
7.5869491317746593
 31
0.0
  0
LINE
  5
1B8
100
AcDbEntity
  8
5_Strike Plate
 62
256
370
-1
 48
1.0
  6
BYLAYER
100
AcDbLine
 10
12.2648773757134322
 20
7.5869491317746593
 30
0.0
 11
12.3831067516854318
 21
7.5869491317746593
 31
0.0
  0
LINE
  5
1B9
100
AcDbEntity
  8
5_Strike Plate
 62
256
370
-1
 48
1.0
  6
BYLAYER
100
AcDbLine
 10
12.3831067516854318
 20
7.5869491317746593
 30
0.0
 11
12.5013361276574315
 21
7.5869491317746593
 31
0.0
  0
LINE
  5
1BA
100
AcDbEntity
  8
5_Strike Plate
 62
256
370
-1
 48
1.0
  6
BYLAYER
100
AcDbLine
 10
12.5013361276574315
 20
7.5869491317746593
 30
0.0
 11
12.7377948796014309
 21
7.5869491317746593
 31
0.0
  0
LINE
  5
1BB
100
AcDbEntity
  8
5_Strike Plate
 62
256
370
-1
 48
1.0
  6
BYLAYER
100
AcDbLine
 10
12.7377948796014309
 20
7.5869491317746593
 30
0.0
 11
12.9742536315454302
 21
7.7051785077466519
 31
0.0
  0
LINE
  5
1BC
100
AcDbEntity
  8
5_Strike Plate
 62
256
370
-1
 48
1.0
  6
BYLAYER
100
AcDbLine
 10
12.9742536315454302
 20
7.7051785077466519
 30
0.0
 11
13.2107123834894225
 21
7.8234078837186445
 31
0.0
  0
LINE
  5
1BD
100
AcDbEntity
  8
5_Strike Plate
 62
256
370
-1
 48
1.0
  6
BYLAYER
100
AcDbLine
 10
13.2107123834894225
 20
7.8234078837186445
 30
0.0
 11
13.3289417594614221
 21
7.9416372596906513
 31
0.0
  0
LINE
  5
1BE
100
AcDbEntity
  8
5_Strike Plate
 62
256
370
-1
 48
1.0
  6
BYLAYER
100
AcDbLine
 10
13.3289417594614221
 20
7.9416372596906513
 30
0.0
 11
13.6836298873774211
 21
7.9416372596906513
 31
0.0
  0
LINE
  5
1BF
100
AcDbEntity
  8
5_Strike Plate
 62
256
370
-1
 48
1.0
  6
BYLAYER
100
AcDbLine
 10
13.6836298873774211
 20
7.9416372596906513
 30
0.0
 11
14.1565473912654198
 21
8.2963253876066432
 31
0.0
  0
LINE
  5
1C0
100
AcDbEntity
  8
5_Strike Plate
 62
256
370
-1
 48
1.0
  6
BYLAYER
100
AcDbLine
 10
14.1565473912654198
 20
8.2963253876066432
 30
0.0
 11
14.6294648951534185
 21
8.2963253876066432
 31
0.0
  0
LINE
  5
1C1
100
AcDbEntity
  8
5_Strike Plate
 62
256
370
-1
 48
1.0
  6
BYLAYER
100
AcDbLine
 10
14.6294648951534185
 20
8.2963253876066432
 30
0.0
 11
14.9841530230694104
 21
8.2963253876066432
 31
0.0
  0
LINE
  5
1C2
100
AcDbEntity
  8
5_Strike Plate
 62
256
370
-1
 48
1.0
  6
BYLAYER
100
AcDbLine
 10
14.9841530230694104
 20
8.2963253876066432
 30
0.0
 11
15.1023823990414101
 21
8.2963253876066432
 31
0.0
  0
LINE
  5
1C3
100
AcDbEntity
  8
5_Strike Plate
 62
256
370
-1
 48
1.0
  6
BYLAYER
100
AcDbLine
 10
15.1023823990414101
 20
8.2963253876066432
 30
0.0
 11
15.3388411509854095
 21
8.41455476357865
 31
0.0
  0
LINE
  5
1C4
100
AcDbEntity
  8
5_Strike Plate
 62
256
370
-1
 48
1.0
  6
BYLAYER
100
AcDbLine
 10
15.3388411509854095
 20
8.41455476357865
 30
0.0
 11
15.5752999029294088
 21
8.41455476357865
 31
0.0
  0
LINE
  5
1C5
100
AcDbEntity
  8
5_Strike Plate
 62
256
370
-1
 48
1.0
  6
BYLAYER
100
AcDbLine
 10
15.5752999029294088
 20
8.41455476357865
 30
0.0
 11
15.6935292789014085
 21
8.41455476357865
 31
0.0
  0
LINE
  5
1C6
100
AcDbEntity
  8
5_Strike Plate
 62
256
370
-1
 48
1.0
  6
BYLAYER
100
AcDbLine
 10
15.6935292789014085
 20
8.41455476357865
 30
0.0
 11
15.8117586548734081
 21
8.41455476357865
 31
0.0
  0
LINE
  5
1C7
100
AcDbEntity
  8
5_Strike Plate
 62
256
370
-1
 48
1.0
  6
BYLAYER
100
AcDbLine
 10
15.8117586548734081
 20
8.41455476357865
 30
0.0
 11
16.0482174068174075
 21
8.41455476357865
 31
0.0
  0
LINE
  5
1C8
100
AcDbEntity
  8
5_Strike Plate
 62
256
370
-1
 48
1.0
  6
BYLAYER
100
AcDbLine
 10
16.0482174068174075
 20
8.41455476357865
 30
0.0
 11
16.1664467827894072
 21
8.41455476357865
 31
0.0
  0
LINE
  5
1C9
100
AcDbEntity
  8
5_Strike Plate
 62
256
370
-1
 48
1.0
  6
BYLAYER
100
AcDbLine
 10
16.1664467827894072
 20
8.41455476357865
 30
0.0
 11
16.2846761587614068
 21
8.41455476357865
 31
0.0
  0
LINE
  5
1CA
100
AcDbEntity
  8
5_Strike Plate
 62
256
370
-1
 48
1.0
  6
BYLAYER
100
AcDbLine
 10
16.2846761587614068
 20
8.41455476357865
 30
0.0
 11
16.4029055347333994
 21
8.41455476357865
 31
0.0
  0
LINE
  5
1CB
100
AcDbEntity
  8
5_Strike Plate
 62
256
370
-1
 48
1.0
  6
BYLAYER
100
AcDbLine
 10
16.4029055347333994
 20
8.41455476357865
 30
0.0
 11
16.5211349107053991
 21
8.41455476357865
 31
0.0
  0
LINE
  5
1CC
100
AcDbEntity
  8
5_Strike Plate
 62
256
370
-1
 48
1.0
  6
BYLAYER
100
AcDbLine
 10
16.5211349107053991
 20
8.41455476357865
 30
0.0
 11
16.6393642866773988
 21
8.41455476357865
 31
0.0
  0
LINE
  5
1CD
100
AcDbEntity
  8
5_Strike Plate
 62
256
370
-1
 48
1.0
  6
BYLAYER
100
AcDbLine
 10
16.6393642866773988
 20
8.41455476357865
 30
0.0
 11
16.7575936626493984
 21
8.41455476357865
 31
0.0
  0
LINE
  5
1CE
100
AcDbEntity
  8
5_Strike Plate
 62
256
370
-1
 48
1.0
  6
BYLAYER
100
AcDbLine
 10
16.7575936626493984
 20
8.41455476357865
 30
0.0
 11
16.8758230386213981
 21
8.41455476357865
 31
0.0
  0
LINE
  5
1CF
100
AcDbEntity
  8
5_Strike Plate
 62
256
370
-1
 48
1.0
  6
BYLAYER
100
AcDbLine
 10
16.8758230386213981
 20
8.41455476357865
 30
0.0
 11
16.9940524145933978
 21
8.41455476357865
 31
0.0
  0
LINE
  5
1D0
100
AcDbEntity
  8
5_Strike Plate
 62
256
370
-1
 48
1.0
  6
BYLAYER
100
AcDbLine
 10
16.9940524145933978
 20
8.41455476357865
 30
0.0
 11
17.2305111665373971
 21
8.41455476357865
 31
0.0
  0
LINE
  5
1D1
100
AcDbEntity
  8
5_Strike Plate
 62
256
370
-1
 48
1.0
  6
BYLAYER
100
AcDbLine
 10
17.2305111665373971
 20
8.41455476357865
 30
0.0
 11
17.5851992944533961
 21
8.41455476357865
 31
0.0
  0
LINE
  5
1D2
100
AcDbEntity
  8
5_Strike Plate
 62
256
370
-1
 48
1.0
  6
BYLAYER
100
AcDbLine
 10
17.5851992944533961
 20
8.41455476357865
 30
0.0
 11
17.7034286704253958
 21
8.41455476357865
 31
0.0
  0
LINE
  5
1D3
100
AcDbEntity
  8
5_Strike Plate
 62
256
370
-1
 48
1.0
  6
BYLAYER
100
AcDbLine
 10
17.7034286704253958
 20
8.41455476357865
 30
0.0
 11
17.8216580463973955
 21
8.41455476357865
 31
0.0
  0
LINE
  5
1D4
100
AcDbEntity
  8
5_Strike Plate
 62
256
370
-1
 48
1.0
  6
BYLAYER
100
AcDbLine
 10
17.8216580463973955
 20
8.41455476357865
 30
0.0
 11
17.939887422369388
 21
8.41455476357865
 31
0.0
  0
LINE
  5
1D5
100
AcDbEntity
  8
5_Strike Plate
 62
256
370
-1
 48
1.0
  6
BYLAYER
100
AcDbLine
 10
17.939887422369388
 20
8.41455476357865
 30
0.0
 11
18.0581167983413877
 21
8.41455476357865
 31
0.0
  0
LINE
  5
1D6
100
AcDbEntity
  8
5_Strike Plate
 62
256
370
-1
 48
1.0
  6
BYLAYER
100
AcDbLine
 10
18.0581167983413877
 20
8.41455476357865
 30
0.0
 11
18.1763461743133874
 21
8.41455476357865
 31
0.0
  0
LINE
  5
1D7
100
AcDbEntity
  8
5_Strike Plate
 62
256
370
-1
 48
1.0
  6
BYLAYER
100
AcDbLine
 10
18.1763461743133874
 20
8.41455476357865
 30
0.0
 11
18.2945755502853871
 21
8.41455476357865
 31
0.0
  0
LINE
  5
1D8
100
AcDbEntity
  8
5_Strike Plate
 62
256
370
-1
 48
1.0
  6
BYLAYER
100
AcDbLine
 10
18.2945755502853871
 20
8.41455476357865
 30
0.0
 11
18.4128049262573867
 21
8.41455476357865
 31
0.0
  0
LINE
  5
1D9
100
AcDbEntity
  8
5_Strike Plate
 62
256
370
-1
 48
1.0
  6
BYLAYER
100
AcDbLine
 10
18.4128049262573867
 20
8.41455476357865
 30
0.0
 11
18.5310343022293864
 21
8.41455476357865
 31
0.0
  0
LINE
  5
1DA
100
AcDbEntity
  8
5_Strike Plate
 62
256
370
-1
 48
1.0
  6
BYLAYER
100
AcDbLine
 10
18.5310343022293864
 20
8.41455476357865
 30
0.0
 11
18.6492636782013861
 21
8.41455476357865
 31
0.0
  0
LINE
  5
1DB
100
AcDbEntity
  8
5_Strike Plate
 62
256
370
-1
 48
1.0
  6
BYLAYER
100
AcDbLine
 10
18.6492636782013861
 20
8.41455476357865
 30
0.0
 11
18.7674930541733858
 21
8.41455476357865
 31
0.0
  0
LINE
  5
1DC
100
AcDbEntity
  8
5_Strike Plate
 62
256
370
-1
 48
1.0
  6
BYLAYER
100
AcDbLine
 10
18.7674930541733858
 20
8.41455476357865
 30
0.0
 11
19.5950986859773764
 21
8.41455476357865
 31
0.0
  0
LINE
  5
1DD
100
AcDbEntity
  8
5_Strike Plate
 62
256
370
-1
 48
1.0
  6
BYLAYER
100
AcDbLine
 10
19.5950986859773764
 20
8.41455476357865
 30
0.0
 11
19.713328061949376
 21
8.41455476357865
 31
0.0
  0
LINE
  5
1DE
100
AcDbEntity
  8
5_Strike Plate
 62
256
370
-1
 48
1.0
  6
BYLAYER
100
AcDbLine
 10
19.713328061949376
 20
8.41455476357865
 30
0.0
 11
19.9497868138933754
 21
8.41455476357865
 31
0.0
  0
LINE
  5
1DF
100
AcDbEntity
  8
5_Strike Plate
 62
256
370
-1
 48
1.0
  6
BYLAYER
100
AcDbLine
 10
19.9497868138933754
 20
8.41455476357865
 30
0.0
 11
20.1862455658373747
 21
8.2963253876066432
 31
0.0
  0
LINE
  5
1E0
100
AcDbEntity
  8
5_Strike Plate
 62
256
370
-1
 48
1.0
  6
BYLAYER
100
AcDbLine
 10
20.1862455658373747
 20
8.2963253876066432
 30
0.0
 11
20.4227043177813741
 21
8.2963253876066432
 31
0.0
  0
LINE
  5
1E1
100
AcDbEntity
  8
5_Strike Plate
 62
256
370
-1
 48
1.0
  6
BYLAYER
100
AcDbLine
 10
20.4227043177813741
 20
8.2963253876066432
 30
0.0
 11
20.6591630697253734
 21
8.2963253876066432
 31
0.0
  0
LINE
  5
1E2
100
AcDbEntity
  8
5_Strike Plate
 62
256
370
-1
 48
1.0
  6
BYLAYER
100
AcDbLine
 10
20.6591630697253734
 20
8.2963253876066432
 30
0.0
 11
20.8956218216693728
 21
8.1780960116346506
 31
0.0
  0
LINE
  5
1E3
100
AcDbEntity
  8
5_Strike Plate
 62
256
370
-1
 48
1.0
  6
BYLAYER
100
AcDbLine
 10
20.8956218216693728
 20
8.1780960116346506
 30
0.0
 11
21.132080573613365
 21
8.1780960116346506
 31
0.0
  0
LINE
  5
1E4
100
AcDbEntity
  8
5_Strike Plate
 62
256
370
-1
 48
1.0
  6
BYLAYER
100
AcDbLine
 10
21.132080573613365
 20
8.1780960116346506
 30
0.0
 11
21.2503099495853647
 21
7.9416372596906513
 31
0.0
  0
LINE
  5
1E5
100
AcDbEntity
  8
5_Strike Plate
 62
256
370
-1
 48
1.0
  6
BYLAYER
100
AcDbLine
 10
21.2503099495853647
 20
7.9416372596906513
 30
0.0
 11
21.3685393255573644
 21
7.9416372596906513
 31
0.0
  0
LINE
  5
1E6
100
AcDbEntity
  8
5_Strike Plate
 62
256
370
-1
 48
1.0
  6
BYLAYER
100
AcDbLine
 10
21.3685393255573644
 20
7.9416372596906513
 30
0.0
 11
21.6049980775013637
 21
7.9416372596906513
 31
0.0
  0
LINE
  5
1E7
100
AcDbEntity
  8
5_Strike Plate
 62
256
370
-1
 48
1.0
  6
BYLAYER
100
AcDbLine
 10
21.6049980775013637
 20
7.9416372596906513
 30
0.0
 11
22.1961449573613621
 21
7.8234078837186445
 31
0.0
  0
LINE
  5
1E8
100
AcDbEntity
  8
5_Strike Plate
 62
256
370
-1
 48
1.0
  6
BYLAYER
100
AcDbLine
 10
22.1961449573613621
 20
7.8234078837186445
 30
0.0
 11
22.3143743333333617
 21
7.8234078837186445
 31
0.0
  0
LINE
  5
1E9
100
AcDbEntity
  8
5_Strike Plate
 62
256
370
-1
 48
1.0
  6
BYLAYER
100
AcDbLine
 10
22.3143743333333617
 20
7.8234078837186445
 30
0.0
 11
22.4326037093053614
 21
7.8234078837186445
 31
0.0
  0
LINE
  5
1EA
100
AcDbEntity
  8
5_Strike Plate
 62
256
370
-1
 48
1.0
  6
BYLAYER
100
AcDbLine
 10
22.4326037093053614
 20
7.8234078837186445
 30
0.0
 11
22.5508330852773611
 21
7.8234078837186445
 31
0.0
  0
LINE
  5
1EB
100
AcDbEntity
  8
5_Strike Plate
 62
256
370
-1
 48
1.0
  6
BYLAYER
100
AcDbLine
 10
22.5508330852773611
 20
7.8234078837186445
 30
0.0
 11
22.6690624612493536
 21
7.8234078837186445
 31
0.0
  0
LINE
  5
1EC
100
AcDbEntity
  8
5_Strike Plate
 62
256
370
-1
 48
1.0
  6
BYLAYER
100
AcDbLine
 10
22.6690624612493536
 20
7.8234078837186445
 30
0.0
 11
22.7872918372213533
 21
7.8234078837186445
 31
0.0
  0
LINE
  5
1ED
100
AcDbEntity
  8
5_Strike Plate
 62
256
370
-1
 48
1.0
  6
BYLAYER
100
AcDbLine
 10
22.7872918372213533
 20
7.8234078837186445
 30
0.0
 11
23.0237505891653527
 21
7.8234078837186445
 31
0.0
  0
LINE
  5
1EE
100
AcDbEntity
  8
5_Strike Plate
 62
256
370
-1
 48
1.0
  6
BYLAYER
100
AcDbLine
 10
23.0237505891653527
 20
7.8234078837186445
 30
0.0
 11
23.260209341109352
 21
7.8234078837186445
 31
0.0
  0
LINE
  5
1EF
100
AcDbEntity
  8
5_Strike Plate
 62
256
370
-1
 48
1.0
  6
BYLAYER
100
AcDbLine
 10
23.260209341109352
 20
7.8234078837186445
 30
0.0
 11
23.3784387170813517
 21
7.8234078837186445
 31
0.0
  0
LINE
  5
1F0
100
AcDbEntity
  8
5_Strike Plate
 62
256
370
-1
 48
1.0
  6
BYLAYER
100
AcDbLine
 10
23.3784387170813517
 20
7.8234078837186445
 30
0.0
 11
23.4966680930533514
 21
7.8234078837186445
 31
0.0
  0
LINE
  5
1F1
100
AcDbEntity
  8
5_Strike Plate
 62
256
370
-1
 48
1.0
  6
BYLAYER
100
AcDbLine
 10
23.4966680930533514
 20
7.8234078837186445
 30
0.0
 11
23.8513562209693504
 21
7.8234078837186445
 31
0.0
  0
LINE
  5
1F2
100
AcDbEntity
  8
5_Strike Plate
 62
256
370
-1
 48
1.0
  6
BYLAYER
100
AcDbLine
 10
23.8513562209693504
 20
7.8234078837186445
 30
0.0
 11
24.0878149729133497
 21
7.8234078837186445
 31
0.0
  0
LINE
  5
1F3
100
AcDbEntity
  8
5_Strike Plate
 62
256
370
-1
 48
1.0
  6
BYLAYER
100
AcDbLine
 10
24.0878149729133497
 20
7.8234078837186445
 30
0.0
 11
24.2060443488853494
 21
7.8234078837186445
 31
0.0
  0
LINE
  5
1F4
100
AcDbEntity
  8
5_Strike Plate
 62
256
370
-1
 48
1.0
  6
BYLAYER
100
AcDbLine
 10
24.2060443488853494
 20
7.8234078837186445
 30
0.0
 11
24.4425031008293416
 21
7.8234078837186445
 31
0.0
  0
LINE
  5
1F5
100
AcDbEntity
  8
5_Strike Plate
 62
256
370
-1
 48
1.0
  6
BYLAYER
100
AcDbLine
 10
24.4425031008293416
 20
7.8234078837186445
 30
0.0
 11
24.5607324768013413
 21
7.8234078837186445
 31
0.0
  0
LINE
  5
1F6
100
AcDbEntity
  8
5_Strike Plate
 62
256
370
-1
 48
1.0
  6
BYLAYER
100
AcDbLine
 10
24.5607324768013413
 20
7.8234078837186445
 30
0.0
 11
24.678961852773341
 21
7.8234078837186445
 31
0.0
  0
LINE
  5
1F7
100
AcDbEntity
  8
5_Strike Plate
 62
256
370
-1
 48
1.0
  6
BYLAYER
100
AcDbLine
 10
24.678961852773341
 20
7.8234078837186445
 30
0.0
 11
24.9154206047173403
 21
7.8234078837186445
 31
0.0
  0
LINE
  5
1F8
100
AcDbEntity
  8
5_Strike Plate
 62
256
370
-1
 48
1.0
  6
BYLAYER
100
AcDbLine
 10
24.9154206047173403
 20
7.8234078837186445
 30
0.0
 11
25.03364998068934
 21
7.8234078837186445
 31
0.0
  0
LINE
  5
1F9
100
AcDbEntity
  8
5_Strike Plate
 62
256
370
-1
 48
1.0
  6
BYLAYER
100
AcDbLine
 10
25.03364998068934
 20
7.8234078837186445
 30
0.0
 11
25.2701087326333393
 21
7.8234078837186445
 31
0.0
  0
LINE
  5
1FA
100
AcDbEntity
  8
5_Strike Plate
 62
256
370
-1
 48
1.0
  6
BYLAYER
100
AcDbLine
 10
25.2701087326333393
 20
7.8234078837186445
 30
0.0
 11
25.388338108605339
 21
7.8234078837186445
 31
0.0
  0
LINE
  5
1FB
100
AcDbEntity
  8
5_Strike Plate
 62
256
370
-1
 48
1.0
  6
BYLAYER
100
AcDbLine
 10
25.388338108605339
 20
7.8234078837186445
 30
0.0
 11
25.5065674845773387
 21
7.8234078837186445
 31
0.0
  0
LINE
  5
1FC
100
AcDbEntity
  8
5_Strike Plate
 62
256
370
-1
 48
1.0
  6
BYLAYER
100
AcDbLine
 10
25.5065674845773387
 20
7.8234078837186445
 30
0.0
 11
25.6247968605493384
 21
7.8234078837186445
 31
0.0
  0
LINE
  5
1FD
100
AcDbEntity
  8
5_Strike Plate
 62
256
370
-1
 48
1.0
  6
BYLAYER
100
AcDbLine
 10
25.6247968605493384
 20
7.8234078837186445
 30
0.0
 11
25.8612556124933306
 21
7.7051785077466519
 31
0.0
  0
LINE
  5
1FE
100
AcDbEntity
  8
5_Strike Plate
 62
256
370
-1
 48
1.0
  6
BYLAYER
100
AcDbLine
 10
25.8612556124933306
 20
7.7051785077466519
 30
0.0
 11
26.0977143644373299
 21
7.7051785077466519
 31
0.0
  0
LINE
  5
1FF
100
AcDbEntity
  8
5_Strike Plate
 62
256
370
-1
 48
1.0
  6
BYLAYER
100
AcDbLine
 10
26.0977143644373299
 20
7.7051785077466519
 30
0.0
 11
26.2159437404093296
 21
7.7051785077466519
 31
0.0
  0
LINE
  5
200
100
AcDbEntity
  8
5_Strike Plate
 62
256
370
-1
 48
1.0
  6
BYLAYER
100
AcDbLine
 10
26.2159437404093296
 20
7.7051785077466519
 30
0.0
 11
26.452402492353329
 21
7.7051785077466519
 31
0.0
  0
LINE
  5
201
100
AcDbEntity
  8
5_Strike Plate
 62
256
370
-1
 48
1.0
  6
BYLAYER
100
AcDbLine
 10
26.452402492353329
 20
7.7051785077466519
 30
0.0
 11
26.6888612442973283
 21
7.7051785077466519
 31
0.0
  0
LINE
  5
202
100
AcDbEntity
  8
5_Strike Plate
 62
256
370
-1
 48
1.0
  6
BYLAYER
100
AcDbLine
 10
26.6888612442973283
 20
7.7051785077466519
 30
0.0
 11
26.807090620269328
 21
7.7051785077466519
 31
0.0
  0
LINE
  5
203
100
AcDbEntity
  8
5_Strike Plate
 62
256
370
-1
 48
1.0
  6
BYLAYER
100
AcDbLine
 10
26.807090620269328
 20
7.7051785077466519
 30
0.0
 11
26.9253199962413277
 21
7.5869491317746593
 31
0.0
  0
LINE
  5
204
100
AcDbEntity
  8
5_Strike Plate
 62
256
370
-1
 48
1.0
  6
BYLAYER
100
AcDbLine
 10
26.9253199962413277
 20
7.5869491317746593
 30
0.0
 11
27.0435493722133273
 21
7.5869491317746593
 31
0.0
  0
LINE
  5
205
100
AcDbEntity
  8
5_Strike Plate
 62
256
370
-1
 48
1.0
  6
BYLAYER
100
AcDbLine
 10
27.0435493722133273
 20
7.5869491317746593
 30
0.0
 11
27.161778748185327
 21
7.5869491317746593
 31
0.0
  0
LINE
  5
206
100
AcDbEntity
  8
5_Strike Plate
 62
256
370
-1
 48
1.0
  6
BYLAYER
100
AcDbLine
 10
27.161778748185327
 20
7.5869491317746593
 30
0.0
 11
27.2800081241573267
 21
7.4687197558026526
 31
0.0
  0
LINE
  5
207
100
AcDbEntity
  8
5_Strike Plate
 62
256
370
-1
 48
1.0
  6
BYLAYER
100
AcDbLine
 10
27.2800081241573267
 20
7.4687197558026526
 30
0.0
 11
27.3982375001293263
 21
7.4687197558026526
 31
0.0
  0
LINE
  5
208
100
AcDbEntity
  8
5_Strike Plate
 62
256
370
-1
 48
1.0
  6
BYLAYER
100
AcDbLine
 10
27.3982375001293263
 20
7.4687197558026526
 30
0.0
 11
27.5164668761013189
 21
7.4687197558026526
 31
0.0
  0
ARC
  5
209
100
AcDbEntity
  8
5_Strike Plate
 62
256
370
-1
 48
1.0
  6
BYLAYER
100
AcDbCircle
 10
24.9040790593056265
 20
21.0585513656701728
 30
0.0
 40
1.5
100
AcDbArc
 50
180.0
 51
0.0
  0
ARC
  5
20A
100
AcDbEntity
  8
5_Strike Plate
 62
256
370
-1
 48
1.0
  6
BYLAYER
100
AcDbCircle
 10
24.9040790593056265
 20
22.0585513656701728
 30
0.0
 40
1.5
100
AcDbArc
 50
0.0
 51
180.0
  0
LINE
  5
20B
100
AcDbEntity
  8
5_Strike Plate
 62
256
370
-1
 48
1.0
  6
BYLAYER
100
AcDbLine
 10
23.4040790593056265
 20
22.0585513656701728
 30
0.0
 11
23.4040790593056265
 21
21.0585513656701728
 31
0.0
  0
LINE
  5
20C
100
AcDbEntity
  8
5_Strike Plate
 62
256
370
-1
 48
1.0
  6
BYLAYER
100
AcDbLine
 10
26.4040790593056265
 20
22.0585513656701728
 30
0.0
 11
26.4040790593056265
 21
21.0585513656701728
 31
0.0
  0
LINE
  5
20D
100
AcDbEntity
  8
5_Strike Plate
 62
256
370
20
 48
1.0
  6
ACAD_ISO10W100
100
AcDbLine
 10
26.4628067999999992
 20
16.0
 30
0.0
 11
26.462806799276315
 21
27.0
 31
0.0
  0
LINE
  5
20E
100
AcDbEntity
  8
5_Strike Plate
 62
256
370
20
 48
1.0
  6
ACAD_ISO10W100
100
AcDbLine
 10
24.5
 20
25.0
 30
0.0
 11
28.5
 21
25.0
 31
0.0
  0
LINE
  5
20F
100
AcDbEntity
  8
5_Strike Plate
 62
256
370
20
 48
1.0
  6
ACAD_ISO10W100
100
AcDbLine
 10
24.5
 20
18.1520792063585326
 30
0.0
 11
28.5
 21
18.1520792063585326
 31
0.0
  0
LINE
  5
210
100
AcDbEntity
  8
5_Strike Plate
 62
256
370
-1
 48
1.0
  6
BYLAYER
100
AcDbLine
 10
27.2800081241573267
 20
7.4687197558026526
 30
0.0
 11
27.9893843799893176
 21
7.5869491317746593
 31
0.0
  0
LINE
  5
211
100
AcDbEntity
  8
5_Strike Plate
 62
256
370
-1
 48
1.0
  6
BYLAYER
100
AcDbLine
 10
10.1367486082174452
 20
7.9416372596906513
 30
0.0
 11
9.9002898562734529
 21
7.9416372596906513
 31
0.0
  0
LINE
  5
212
100
AcDbEntity
  8
5_Strike Plate
 62
256
370
-1
 48
1.0
  6
BYLAYER
100
AcDbLine
 10
22.6899210425651461
 20
24.1485648328455937
 30
0.0
 11
27.9893843799893176
 21
24.1485648328455937
 31
0.0
  0
LINE
  5
213
100
AcDbEntity
  8
5_Strike Plate
 62
256
370
-1
 48
1.0
  6
BYLAYER
100
AcDbLine
 10
22.6899210425651425
 20
19.0055869780636293
 30
0.0
 11
27.9893843799893176
 21
19.0055869780636293
 31
0.0
  0
LINE
  5
214
100
AcDbEntity
  8
5_Strike Plate
 62
256
370
-1
 48
1.0
  6
BYLAYER
100
AcDbLine
 10
22.6899210425651425
 20
19.0055869780636293
 30
0.0
 11
22.6899210425651425
 21
24.1485648328455937
 31
0.0
  0
LEADER
  5
215
100
AcDbEntity
  8
5_Strike Plate
 62
256
370
-1
 48
1.0
  6
BYLAYER
100
AcDbLeader
  3
Standard
 71
1
 72
0
 73
3
 74
0
 75
0
 40
1.0
 41
10.0
 76
3
 10
26.4628067994078933
 20
25.0
 10
35.0
 20
31.0
 10
39.0
 20
31.0
1001
ACAD
1000
DSTYLE
1002
{
1070
40
1040
1.0
1002
}
  0
LEADER
  5
216
100
AcDbEntity
  8
5_Strike Plate
 62
256
370
-1
 48
1.0
  6
BYLAYER
100
AcDbLeader
  3
Standard
 71
1
 72
0
 73
3
 74
0
 75
0
 40
1.0
 41
10.0
 76
2
 10
26.4628067998584129
 20
18.1520792063585326
 10
35.0
 20
31.0
1001
ACAD
1000
DSTYLE
1002
{
1070
40
1040
1.0
1002
}
  0
MTEXT
  5
217
100
AcDbEntity
  8
5_Strike Plate
 62
256
370
-1
 48
1.0
  6
BYLAYER
100
AcDbMText
 10
40.0
 20
32.0
 30
0.0
 40
3.0
 41
0.0
 71
1
 72
1
  1
\fDejaVu Sans|b0|i0|c0|p0;\H2;Drill and countersink\P  1/2" from edge,\P  at a 30%%d angle
  7
textstyle33
 50
0.0
 73
2
 44
1.0
  0
MTEXT
  5
218
100
AcDbEntity
  8
1_Drawing Labels
 62
256
370
-1
 48
1.0
  6
BYLAYER
100
AcDbMText
 10
0.5226374849606827
 20
-3.1211877727600239
 30
0.0
 40
3.0
 41
0.0
 71
1
 72
1
  1
\fDejaVu Sans|b0|i0|c0|p0;\H2.5;Securing latch opening
  7
textstyle32
 50
0.0
 73
2
 44
1.0
  0
IMAGE
  5
219
100
AcDbEntity
  8
5_Strike Plate
 62
256
370
-1
 48
1.0
  6
BYLAYER
100
AcDbRasterImage
 90
0
 10
24.9993864544904056
 20
46.6431200909326833
 30
0.0
 11
-0.1299038105676658
 21
-0.075
 31
0.0
 12
0.0749999999999999
 22
-0.1299038105676659
 32
0.0
 13
3.0
 23
7.0
340
21A
 70
15
280
0
281
50
282
50
283
0
  0
ARC
  5
21B
100
AcDbEntity
  8
3.1_ScrewLocs
 62
256
370
-1
 48
1.0
  6
BYLAYER
100
AcDbCircle
 10
-4.3102
 20
76.6419999999999959
 30
0.0
 40
0.25
100
AcDbArc
 50
0.0
 51
90.0
  0
INSERT
  5
21C
100
AcDbEntity
  8
3.1_ScrewLocs
 62
256
370
-1
 48
1.0
  6
BYLAYER
100
AcDbBlockReference
  2
Hinge_outline
 10
-6.0602350714053772
 20
72.8919923697271912
 30
0.0
  0
INSERT
  5
21D
100
AcDbEntity
  8
3.1_ScrewLocs
 62
256
370
-1
 48
1.0
  6
BYLAYER
100
AcDbBlockReference
  2
Hinge_outline
 10
-6.0602350700000001
 20
46.8391673377848363
 30
0.0
  0
INSERT
  5
21E
100
AcDbEntity
  8
3.1_ScrewLocs
 62
256
370
-1
 48
1.0
  6
BYLAYER
100
AcDbBlockReference
  2
Hinge_outline
 10
-6.0602350700000001
 20
19.9999999999999929
 30
0.0
  0
INSERT
  5
21F
100
AcDbEntity
  8
3.1_ScrewLocs
 62
256
370
-1
 48
1.0
  6
BYLAYER
100
AcDbBlockReference
  2
Hinge_outline
 10
13.0
 20
69.0
 30
0.0
 41
3.0
 42
3.0
 43
1.0
  0
LINE
  5
220
100
AcDbEntity
  8
3.1_ScrewLocs
 62
256
370
-1
 48
1.0
  6
BYLAYER
100
AcDbLine
 10
-5.5601990800238283
 20
88.1515141292359345
 30
0.0
 11
-1.4351990800238283
 21
88.1515141292359345
 31
0.0
  0
LINE
  5
221
100
AcDbEntity
  8
3.1_ScrewLocs
 62
256
370
-1
 48
1.0
  6
BYLAYER
100
AcDbLine
 10
-5.5601990800238283
 20
88.1515141292359345
 30
0.0
 11
-1.4351990800238283
 21
88.1515141292359345
 31
0.0
  0
LINE
  5
222
100
AcDbEntity
  8
3.1_ScrewLocs
 62
256
370
-1
 48
1.0
  6
BYLAYER
100
AcDbLine
 10
40.9999999989444532
 20
87.9014992669323192
 30
0.0
 11
45.1249999989444532
 21
87.9014992669323192
 31
0.0
  0
LINE
  5
223
100
AcDbEntity
  8
3.1_ScrewLocs
 62
256
370
-1
 48
1.0
  6
BYLAYER
100
AcDbLine
 10
-5.5601990800238283
 20
8.4026499050736021
 30
0.0
 11
-1.4351990800238283
 21
8.4026499050736021
 31
0.0
  0
LINE
  5
224
100
AcDbEntity
  8
3.1_ScrewLocs
 62
256
370
-1
 48
1.0
  6
BYLAYER
100
AcDbLine
 10
-5.5601990800238283
 20
8.4026499050736021
 30
0.0
 11
-1.4351990800238283
 21
8.4026499050736021
 31
0.0
  0
LINE
  5
225
100
AcDbEntity
  8
3.1_ScrewLocs
 62
256
370
-1
 48
1.0
  6
BYLAYER
100
AcDbLine
 10
40.9999999989444532
 20
8.1526350427699885
 30
0.0
 11
45.1249999989444532
 21
8.1526350427699885
 31
0.0
  0
LINE
  5
226
100
AcDbEntity
  8
3.1_ScrewLocs
 62
256
370
-1
 48
1.0
  6
BYLAYER
100
AcDbLine
 10
-3.9799972614973527
 20
77.3316539940940686
 30
0.0
 11
-3.9799972614973527
 21
78.3316539940940686
 31
0.0
  0
LINE
  5
227
100
AcDbEntity
  8
3.1_ScrewLocs
 62
256
370
-1
 48
1.0
  6
BYLAYER
100
AcDbLine
 10
-3.9505093333999159
 20
51.2909556436989007
 30
0.0
 11
-3.9505093333999159
 21
52.2909556436989007
 31
0.0
  0
LINE
  5
228
100
AcDbEntity
  8
3.1_ScrewLocs
 62
256
370
-1
 48
1.0
  6
BYLAYER
100
AcDbLine
 10
-3.9999999999999996
 20
24.4999999999999964
 30
0.0
 11
-3.9999999999999996
 21
25.4999999999999964
 31
0.0
  0
LINE
  5
229
100
AcDbEntity
  8
3.1_ScrewLocs
 62
256
370
-1
 48
1.0
  6
BYLAYER
100
AcDbLine
 10
19.2407134297240709
 20
82.3189848731006322
 30
0.0
 11
19.2407134297240709
 21
85.3189848731006322
 31
0.0
  0
LINE
  5
22A
100
AcDbEntity
  8
3.1_ScrewLocs
 62
256
370
-1
 48
1.0
  6
BYLAYER
100
AcDbLine
 10
43.4999999956406356
 20
77.3666839945218214
 30
0.0
 11
43.4999999956406356
 21
78.3666839945218214
 31
0.0
  0
LINE
  5
22B
100
AcDbEntity
  8
3.1_ScrewLocs
 62
256
370
-1
 48
1.0
  6
BYLAYER
100
AcDbLine
 10
43.4799972571379882
 20
24.6235300004277491
 30
0.0
 11
43.4799972571379882
 21
25.6235300004277491
 31
0.0
  0
LINE
  5
22C
100
AcDbEntity
  8
3.1_ScrewLocs
 62
256
370
-1
 48
1.0
  6
BYLAYER
100
AcDbLine
 10
-4.4799972614973527
 20
77.8316539940940686
 30
0.0
 11
-3.4799972614973527
 21
77.8316539940940686
 31
0.0
  0
LINE
  5
22D
100
AcDbEntity
  8
3.1_ScrewLocs
 62
256
370
-1
 48
1.0
  6
BYLAYER
100
AcDbLine
 10
-4.4505093333999159
 20
51.7909556436989007
 30
0.0
 11
-3.4505093333999159
 21
51.7909556436989007
 31
0.0
  0
LINE
  5
22E
100
AcDbEntity
  8
3.1_ScrewLocs
 62
256
370
-1
 48
1.0
  6
BYLAYER
100
AcDbLine
 10
-4.5
 20
24.9999999999999964
 30
0.0
 11
-3.4999999999999996
 21
24.9999999999999964
 31
0.0
  0
LINE
  5
22F
100
AcDbEntity
  8
3.1_ScrewLocs
 62
256
370
-1
 48
1.0
  6
BYLAYER
100
AcDbLine
 10
15.2407134299999996
 20
83.8189848731006322
 30
0.0
 11
20.7407134297240709
 21
83.8189848731006322
 31
0.0
  0
LINE
  5
230
100
AcDbEntity
  8
3.1_ScrewLocs
 62
256
370
-1
 48
1.0
  6
BYLAYER
100
AcDbLine
 10
42.9999999956406356
 20
77.8666839945218214
 30
0.0
 11
43.9999999956406356
 21
77.8666839945218214
 31
0.0
  0
LINE
  5
231
100
AcDbEntity
  8
3.1_ScrewLocs
 62
256
370
-1
 48
1.0
  6
BYLAYER
100
AcDbLine
 10
42.9799972571379882
 20
25.1235300004277491
 30
0.0
 11
43.9799972571379882
 21
25.1235300004277491
 31
0.0
  0
CIRCLE
  5
232
100
AcDbEntity
  8
3.1_ScrewLocs
 62
256
370
-1
 48
1.0
  6
BYLAYER
100
AcDbCircle
 10
16.0
 20
77.0
 30
0.0
 40
12.2065556157337021
  0
CIRCLE
  5
233
100
AcDbEntity
  8
3.1_ScrewLocs
 62
256
370
-1
 48
1.0
  6
BYLAYER
100
AcDbCircle
 10
-5.169443052281065
 20
75.4392174815249916
 30
0.0
 40
3.9212905129512792
  0
LINE
  5
234
100
AcDbEntity
  8
3.1_ScrewLocs
 62
256
370
-1
 48
1.0
  6
BYLAYER
100
AcDbLine
 10
-1.2481525393297859
 20
75.4392174815249916
 30
0.0
 11
3.8431156899092538
 21
75.8999255156720665
 31
0.0
  0
LINE
  5
235
100
AcDbEntity
  8
3.1_ScrewLocs
 62
256
370
-1
 48
1.0
  6
BYLAYER
100
AcDbLine
 10
14.4054770456341323
 20
64.8957631255933052
 30
0.0
 11
14.4054770456341341
 21
89.1019625081223978
 31
0.0
  0
LINE
  5
236
100
AcDbEntity
  8
3.1_ScrewLocs
 62
256
370
-1
 48
1.0
  6
BYLAYER
100
AcDbLine
 10
20.3555678160923357
 20
65.5346990472532411
 30
0.0
 11
20.3555678160923357
 21
88.403027185770469
 31
0.0
  0
LEADER
  5
237
100
AcDbEntity
  8
3.1_ScrewLocs
 62
256
370
-1
 48
1.0
  6
BYLAYER
100
AcDbLeader
  3
Standard
 71
1
 72
0
 73
3
 74
0
 75
0
 40
1.0
 41
10.0
 76
2
 10
19.2235408374423322
 20
84.75
 10
16.3949182675936314
 20
84.75
1001
ACAD
1000
DSTYLE
1002
{
1070
40
1040
1.0
1002
}
  0
LEADER
  5
238
100
AcDbEntity
  8
3.1_ScrewLocs
 62
256
370
-1
 48
1.0
  6
BYLAYER
100
AcDbLeader
  3
Standard
 71
1
 72
0
 73
3
 74
0
 75
0
 40
1.0
 41
10.0
 76
2
 10
20.3459000651845869
 20
84.75
 10
23.1383174986545015
 20
84.75
1001
ACAD
1000
DSTYLE
1002
{
1070
40
1040
1.0
1002
}
  0
MTEXT
  5
239
100
AcDbEntity
  8
3.1_ScrewLocs
 62
256
370
-1
 48
1.0
  6
BYLAYER
100
AcDbMText
 10
21.2972092089603962
 20
84.2950810636373546
 30
0.0
 40
2.0
 41
0.0
 71
1
 72
1
  1
1/2"
  7
textstyle23
 50
0.0
 73
2
 44
1.0
  0
LEADER
  5
23A
100
AcDbEntity
  8
3.1_ScrewLocs
 62
256
370
-1
 48
1.0
  6
BYLAYER
100
AcDbLeader
  3
Standard
 71
1
 72
0
 73
3
 74
0
 75
0
 40
1.0
 41
10.0
 76
2
 10
15.8160948178235152
 20
83.8363739118099431
 10
15.8321431938779398
 20
86.3559689523546439
1001
ACAD
1000
DSTYLE
1002
{
1070
40
1040
1.0
1002
}
  0
LEADER
  5
23B
100
AcDbEntity
  8
3.1_ScrewLocs
 62
256
370
-1
 48
1.0
  6
BYLAYER
100
AcDbLeader
  3
Standard
 71
1
 72
0
 73
3
 74
0
 75
0
 40
1.0
 41
10.0
 76
3
 10
15.8321431938779398
 20
81.0
 10
15.8321431938779398
 20
78.6046033180674613
 10
15.8321431938779398
 20
78.6046033180674613
1001
ACAD
1000
DSTYLE
1002
{
1070
40
1040
1.0
1002
}
  0
MTEXT
  5
23C
100
AcDbEntity
  8
3.1_ScrewLocs
 62
256
370
-1
 48
1.0
  6
BYLAYER
100
AcDbMText
 10
14.5523505549213965
 20
83.2829098367305676
 30
0.0
 40
2.0
 41
0.0
 71
1
 72
1
  1
1"
  7
textstyle27
 50
0.0
 73
2
 44
1.0
  0
MTEXT
  5
23D
100
AcDbEntity
  8
3.1_ScrewLocs
 62
256
370
-1
 48
1.0
  6
BYLAYER
100
AcDbMText
 10
-8.2140473620590768
 20
5.3229083050941313
 30
0.0
 40
3.0
 41
0.0
 71
1
 72
1
  1
\H2;Hinge side
  7
textstyle26
 50
0.0
 73
2
 44
1.0
  0
MTEXT
  5
23E
100
AcDbEntity
  8
3.1_ScrewLocs
 62
256
370
-1
 48
1.0
  6
BYLAYER
100
AcDbMText
 10
38.2608656463317516
 20
5.0990733926004239
 30
0.0
 40
3.0
 41
0.0
 71
1
 72
1
  1
\H2;Latch side
  7
textstyle25
 50
0.0
 73
2
 44
1.0
  0
MTEXT
  5
23F
100
AcDbEntity
  8
3.1_ScrewLocs
 62
256
370
-1
 48
1.0
  6
BYLAYER
100
AcDbMText
 10
0.0
 20
50.0
 30
0.0
 40
3.0
 41
0.0
 71
1
 72
1
  1
\H2;Outside
  7
textstyle24
 50
0.0
 73
2
 44
1.0
  0
MTEXT
  5
240
100
AcDbEntity
  8
3.1_ScrewLocs
 62
256
370
-1
 48
1.0
  6
BYLAYER
100
AcDbMText
 10
27.4099548989400503
 20
49.9336057114935983
 30
0.0
 40
3.0
 41
0.0
 71
1
 72
1
  1
\H2;Outside
  7
textstyle31
 50
0.0
 73
2
 44
1.0
  0
MTEXT
  5
241
100
AcDbEntity
  8
3.1_ScrewLocs
 62
256
370
-1
 48
1.0
  6
BYLAYER
100
AcDbMText
 10
-16.655551793359038
 20
50.0935911623586918
 30
0.0
 40
3.0
 41
0.0
 71
1
 72
1
  1
\H2;Inside
  7
textstyle30
 50
0.0
 73
2
 44
1.0
  0
MTEXT
  5
242
100
AcDbEntity
  8
3.1_ScrewLocs
 62
256
370
-1
 48
1.0
  6
BYLAYER
100
AcDbMText
 10
48.1578501741725375
 20
49.9336057114935983
 30
0.0
 40
3.0
 41
0.0
 71
1
 72
1
  1
\H2;Inside
  7
textstyle29
 50
0.0
 73
2
 44
1.0
  0
MTEXT
  5
243
100
AcDbEntity
  8
3.1_ScrewLocs
 62
256
370
-1
 48
1.0
  6
BYLAYER
100
AcDbMText
 10
-1.3621976755661294
 20
-2.4146411999723512
 30
0.0
 40
3.0
 41
0.0
 71
1
 72
1
  1
\H2.5;Door Frame Screw Locations
  7
textstyle28
 50
0.0
 73
2
 44
1.0
  0
DIMENSION
  5
244
100
AcDbEntity
  8
3.1_ScrewLocs
 62
256
370
-1
 48
1.0
  6
BYLAYER
100
AcDbDimension
 10
49.5
 20
77.8338714945666652
 30
0.0
 11
47.625
 21
82.9059796815745642
 31
0.0
 70
0
 71
8
 72
2
 74
0
 75
0
 41
1.0
 42
0.0
  1

  3
Standard
100
AcDbAlignedDimension
 13
45.6543867214763566
 23
77.9059796800000015
 33
0.0
 14
51.4266140333864072
 24
87.9059796831491127
 34
0.0
 50
90.0
100
AcDbRotatedDimension
1001
ACAD
1000
DSTYLE
1002
{
1070
144
1040
1.0
1070
40
1040
1.0
1002
}
  0
DIMENSION
  5
245
100
AcDbEntity
  8
3.1_ScrewLocs
 62
256
370
-1
 48
1.0
  6
BYLAYER
100
AcDbDimension
 10
49.5
 20
25.1567771320636204
 30
0.0
 11
47.625
 21
16.6518872524005381
 31
0.0
 70
0
 71
8
 72
2
 74
0
 75
0
 41
1.0
 42
0.0
  1

  3
Standard
100
AcDbAlignedDimension
 13
46.296156982045737
 23
25.1518872500000015
 33
0.0
 14
45.791008861258419
 24
8.1518872548010748
 34
0.0
 50
90.0
100
AcDbRotatedDimension
1001
ACAD
1000
DSTYLE
1002
{
1070
144
1040
1.0
1070
40
1040
1.0
1002
}
  0
ENDSEC
  0
SECTION
  2
OBJECTS
  0
DICTIONARY
  5
C
100
AcDbDictionary
280
0
281
1
  3
ACAD_GROUP
350
D
  3
ACAD_LAYOUT
350
1A
  3
ACAD_MLINESTYLE
350
17
  3
ACAD_PLOTSETTINGS
350
19
  3
ACAD_PLOTSTYLENAME
350
E
  3
AcDbVariableDictionary
350
246
  3
QCAD_OBJECTS
350
247
  0
DICTIONARY
  5
D
100
AcDbDictionary
280
0
281
1
  0
ACDBDICTIONARYWDFLT
  5
E
100
AcDbDictionary
281
1
  3
Normal
350
F
100
AcDbDictionaryWithDefault
340
F
  0
ACDBPLACEHOLDER
  5
F
  0
DICTIONARY
  5
17
100
AcDbDictionary
280
0
281
1
  3
Standard
350
18
  0
MLINESTYLE
  5
18
100
AcDbMlineStyle
  2
STANDARD
 70
0
  3

 62
256
 51
90.0
 52
90.0
 71
2
 49
0.5
 62
256
  6
BYLAYER
 49
-0.5
 62
256
  6
BYLAYER
  0
DICTIONARY
  5
19
100
AcDbDictionary
280
0
281
1
  0
DICTIONARY
  5
1A
100
AcDbDictionary
281
1
  3
Layout1
350
1E
  3
Layout2
350
26
  3
Model
350
22
  0
LAYOUT
  5
1E
100
AcDbPlotSettings
  1

  2
none_device
  4

  6

 40
0.0
 41
0.0
 42
0.0
 43
0.0
 44
0.0
 45
0.0
 46
0.0
 47
0.0
 48
0.0
 49
0.0
140
0.0
141
0.0
142
1.0
143
1.0
 70
688
 72
0
 73
0
 74
5
  7

 75
16
147
1.0
148
0.0
149
0.0
100
AcDbLayout
  1
Layout1
 70
1
 71
1
 10
0.0
 20
0.0
 11
420.0
 21
297.0
 12
0.0
 22
0.0
 32
0.0
 14
100000000000000000000.0
 24
100000000000000000000.0
 34
100000000000000000000.0
 15
-100000000000000000000.0
 25
-100000000000000000000.0
 35
-100000000000000000000.0
146
0.0
 13
0.0
 23
0.0
 33
0.0
 16
1.0
 26
0.0
 36
0.0
 17
0.0
 27
1.0
 37
0.0
 76
0
330
1B
  0
LAYOUT
  5
22
100
AcDbPlotSettings
  1

  2
none_device
  4

  6

 40
0.0
 41
0.0
 42
0.0
 43
0.0
 44
0.0
 45
0.0
 46
0.0
 47
0.0
 48
0.0
 49
0.0
140
0.0
141
0.0
142
1.0
143
1.0
 70
1712
 72
0
 73
0
 74
0
  7

 75
0
147
1.0
148
0.0
149
0.0
100
AcDbLayout
  1
Model
 70
1
 71
0
 10
0.0
 20
0.0
 11
12.0
 21
9.0
 12
0.0
 22
0.0
 32
0.0
 14
0.0
 24
0.0
 34
0.0
 15
0.0
 25
0.0
 35
0.0
146
0.0
 13
0.0
 23
0.0
 33
0.0
 16
1.0
 26
0.0
 36
0.0
 17
0.0
 27
1.0
 37
0.0
 76
0
330
1F
  0
LAYOUT
  5
26
100
AcDbPlotSettings
  1

  2
none_device
  4

  6

 40
0.0
 41
0.0
 42
0.0
 43
0.0
 44
0.0
 45
0.0
 46
0.0
 47
0.0
 48
0.0
 49
0.0
140
0.0
141
0.0
142
1.0
143
1.0
 70
688
 72
0
 73
0
 74
5
  7

 75
16
147
1.0
148
0.0
149
0.0
100
AcDbLayout
  1
Layout2
 70
1
 71
2
 10
0.0
 20
0.0
 11
12.0
 21
9.0
 12
0.0
 22
0.0
 32
0.0
 14
0.0
 24
0.0
 34
0.0
 15
0.0
 25
0.0
 35
0.0
146
0.0
 13
0.0
 23
0.0
 33
0.0
 16
1.0
 26
0.0
 36
0.0
 17
0.0
 27
1.0
 37
0.0
 76
0
330
23
  0
DICTIONARY
  5
246
100
AcDbDictionary
281
1
  3
DIMASSOC
350
249
  3
HIDETEXT
350
248
  0
DICTIONARYVAR
  5
248
100
DictionaryVariables
280
0
  1
2
  0
DICTIONARYVAR
  5
249
100
DictionaryVariables
280
0
  1
1
  0
DICTIONARY
  5
247
100
AcDbDictionary
281
1
  3
ColorSettings/BackgroundColor
350
24A
  3
ColorSettings/ColorMode
350
24B
  3
DimensionSettings/AngularFormat
350
24C
  3
DimensionSettings/AngularPrecision
350
24D
  3
DimensionSettings/DecimalPoint
350
24E
  3
DimensionSettings/DimensionFont
350
24F
  3
DimensionSettings/DimensionTextColor
350
250
  3
DimensionSettings/KeepProportions
350
251
  3
DimensionSettings/LinearFormat
350
252
  3
DimensionSettings/LinearPrecision
350
253
  3
Grid/DisplayGrid00
350
254
  3
Grid/DisplayGrid01
350
255
  3
Grid/DisplayGrid02
350
256
  3
Grid/DisplayGrid03
350
257
  3
Grid/GridSpacingX00
350
258
  3
Grid/GridSpacingX01
350
259
  3
Grid/GridSpacingX02
350
25A
  3
Grid/GridSpacingX03
350
25B
  3
Grid/GridSpacingY00
350
25C
  3
Grid/GridSpacingY01
350
25D
  3
Grid/GridSpacingY02
350
25E
  3
Grid/GridSpacingY03
350
25F
  3
Grid/IsometricGrid00
350
260
  3
Grid/IsometricGrid01
350
261
  3
Grid/IsometricGrid02
350
262
  3
Grid/IsometricGrid03
350
263
  3
Grid/IsometricProjection00
350
264
  3
Grid/IsometricProjection01
350
265
  3
Grid/IsometricProjection02
350
266
  3
Grid/IsometricProjection03
350
267
  3
Grid/MetaGridSpacingX00
350
268
  3
Grid/MetaGridSpacingX01
350
269
  3
Grid/MetaGridSpacingX02
350
26A
  3
Grid/MetaGridSpacingX03
350
26B
  3
Grid/MetaGridSpacingY00
350
26C
  3
Grid/MetaGridSpacingY01
350
26D
  3
Grid/MetaGridSpacingY02
350
26E
  3
Grid/MetaGridSpacingY03
350
26F
  3
MultiPageSettings/Columns
350
270
  3
MultiPageSettings/GlueMarginsBottom
350
271
  3
MultiPageSettings/GlueMarginsLeft
350
272
  3
MultiPageSettings/GlueMarginsRight
350
273
  3
MultiPageSettings/GlueMarginsTop
350
274
  3
MultiPageSettings/PrintCropMarks
350
275
  3
MultiPageSettings/Rows
350
276
  3
PageSettings/OffsetX
350
277
  3
PageSettings/OffsetY
350
278
  3
PageSettings/PageOrientation
350
279
  3
PageSettings/PaperHeight
350
27A
  3
PageSettings/PaperSizeAccepted
350
27B
  3
PageSettings/PaperSizeName
350
27C
  3
PageSettings/PaperWidth
350
27D
  3
PageSettings/PointSize
350
27E
  3
PageSettings/Scale
350
27F
  3
PageSettings/ShowPaperBorders
350
280
  3
PageTagSettings/EnablePageTags
350
281
  3
PageTagSettings/TagAlignment
350
282
  3
PageTagSettings/TagFont
350
283
  3
PageTagSettings/TagPosition
350
284
  3
QCADVersion
350
285
  3
UnitSettings/Measurement
350
286
  3
UnitSettings/PaperUnit
350
287
  3
ViewportCenter
350
288
  3
ViewportHeight
350
289
  3
ViewportWidth
350
28A
  0
XRECORD
  5
24A
330
247
100
AcDbXrecord
280
1
1000
White
  0
XRECORD
  5
24B
330
247
100
AcDbXrecord
280
1
1000
FullColor
  0
XRECORD
  5
24C
330
247
100
AcDbXrecord
280
1
 90
0
  0
XRECORD
  5
24D
330
247
100
AcDbXrecord
280
1
 90
0
  0
XRECORD
  5
24E
330
247
100
AcDbXrecord
280
1
 90
46
  0
XRECORD
  5
24F
330
247
100
AcDbXrecord
280
1
1000
DejaVu Sans
  0
XRECORD
  5
250
330
247
100
AcDbXrecord
280
1
1000
By Layer
  0
XRECORD
  5
251
330
247
100
AcDbXrecord
280
1
290
0
  0
XRECORD
  5
252
330
247
100
AcDbXrecord
280
1
 90
2
  0
XRECORD
  5
253
330
247
100
AcDbXrecord
280
1
 90
4
  0
XRECORD
  5
254
330
247
100
AcDbXrecord
280
1
290
1
  0
XRECORD
  5
255
330
247
100
AcDbXrecord
280
1
290
1
  0
XRECORD
  5
256
330
247
100
AcDbXrecord
280
1
290
1
  0
XRECORD
  5
257
330
247
100
AcDbXrecord
280
1
290
1
  0
XRECORD
  5
258
330
247
100
AcDbXrecord
280
1
1000
auto
  0
XRECORD
  5
259
330
247
100
AcDbXrecord
280
1
1000
auto
  0
XRECORD
  5
25A
330
247
100
AcDbXrecord
280
1
1000
auto
  0
XRECORD
  5
25B
330
247
100
AcDbXrecord
280
1
1000
auto
  0
XRECORD
  5
25C
330
247
100
AcDbXrecord
280
1
1000
auto
  0
XRECORD
  5
25D
330
247
100
AcDbXrecord
280
1
1000
auto
  0
XRECORD
  5
25E
330
247
100
AcDbXrecord
280
1
1000
auto
  0
XRECORD
  5
25F
330
247
100
AcDbXrecord
280
1
1000
auto
  0
XRECORD
  5
260
330
247
100
AcDbXrecord
280
1
290
0
  0
XRECORD
  5
261
330
247
100
AcDbXrecord
280
1
290
0
  0
XRECORD
  5
262
330
247
100
AcDbXrecord
280
1
290
0
  0
XRECORD
  5
263
330
247
100
AcDbXrecord
280
1
290
0
  0
XRECORD
  5
264
330
247
100
AcDbXrecord
280
1
 90
65537
  0
XRECORD
  5
265
330
247
100
AcDbXrecord
280
1
 90
65537
  0
XRECORD
  5
266
330
247
100
AcDbXrecord
280
1
 90
65537
  0
XRECORD
  5
267
330
247
100
AcDbXrecord
280
1
 90
65537
  0
XRECORD
  5
268
330
247
100
AcDbXrecord
280
1
1000
auto
  0
XRECORD
  5
269
330
247
100
AcDbXrecord
280
1
1000
auto
  0
XRECORD
  5
26A
330
247
100
AcDbXrecord
280
1
1000
auto
  0
XRECORD
  5
26B
330
247
100
AcDbXrecord
280
1
1000
auto
  0
XRECORD
  5
26C
330
247
100
AcDbXrecord
280
1
1000
auto
  0
XRECORD
  5
26D
330
247
100
AcDbXrecord
280
1
1000
auto
  0
XRECORD
  5
26E
330
247
100
AcDbXrecord
280
1
1000
auto
  0
XRECORD
  5
26F
330
247
100
AcDbXrecord
280
1
1000
auto
  0
XRECORD
  5
270
330
247
100
AcDbXrecord
280
1
 90
1
  0
XRECORD
  5
271
330
247
100
AcDbXrecord
280
1
 40
0.0
  0
XRECORD
  5
272
330
247
100
AcDbXrecord
280
1
 40
0.0
  0
XRECORD
  5
273
330
247
100
AcDbXrecord
280
1
 40
0.0
  0
XRECORD
  5
274
330
247
100
AcDbXrecord
280
1
 40
0.0
  0
XRECORD
  5
275
330
247
100
AcDbXrecord
280
1
290
0
  0
XRECORD
  5
276
330
247
100
AcDbXrecord
280
1
 90
1
  0
XRECORD
  5
277
330
247
100
AcDbXrecord
280
1
 40
-34.4622309126996242
  0
XRECORD
  5
278
330
247
100
AcDbXrecord
280
1
 40
-29.1794996040682797
  0
XRECORD
  5
279
330
247
100
AcDbXrecord
280
1
1000
Portrait
  0
XRECORD
  5
27A
330
247
100
AcDbXrecord
280
1
1000
9
  0
XRECORD
  5
27B
330
247
100
AcDbXrecord
280
1
290
1
  0
XRECORD
  5
27C
330
247
100
AcDbXrecord
280
1
1000
Custom
  0
XRECORD
  5
27D
330
247
100
AcDbXrecord
280
1
1000
6.5
  0
XRECORD
  5
27E
330
247
100
AcDbXrecord
280
1
1000
0.5
  0
XRECORD
  5
27F
330
247
100
AcDbXrecord
280
1
1000
0.06
  0
XRECORD
  5
280
330
247
100
AcDbXrecord
280
1
290
1
  0
XRECORD
  5
281
330
247
100
AcDbXrecord
280
1
290
0
  0
XRECORD
  5
282
330
247
100
AcDbXrecord
280
1
1000
Inside
  0
XRECORD
  5
283
330
247
100
AcDbXrecord
280
1
1000
Arial,10,-1,5,50,0,0,0,0,0
  0
XRECORD
  5
284
330
247
100
AcDbXrecord
280
1
1000
TopLeft
  0
XRECORD
  5
285
330
247
100
AcDbXrecord
280
1
1000
3.32.6
  0
XRECORD
  5
286
330
247
100
AcDbXrecord
280
1
 90
1
  0
XRECORD
  5
287
330
247
100
AcDbXrecord
280
1
 90
1
  0
XRECORD
  5
289
330
247
100
AcDbXrecord
280
1
 40
187.3967679571281906
  0
XRECORD
  5
28A
330
247
100
AcDbXrecord
280
1
 40
161.8561624986289473
  0
IMAGEDEF
  5
DB
100
AcDbRasterImageDef
 90
0
  1
../../common/clipart/Screw.png
 10
3.0
 20
7.0
 11
1.0
 21
1.0
280
1
281
0
  0
IMAGEDEF
  5
DE
100
AcDbRasterImageDef
 90
0
  1
../../common/clipart/Screw.png
 10
3.0
 20
7.0
 11
1.0
 21
1.0
280
1
281
0
  0
IMAGEDEF
  5
21A
100
AcDbRasterImageDef
 90
0
  1
../../common/clipart/Screw.png
 10
3.0
 20
7.0
 11
1.0
 21
1.0
280
1
281
0
  0
ENDSEC
  0
EOF
